<?xml version="1.0" encoding="UTF-8" standalone="no"?>
<!-- Created with Inkscape (http://www.inkscape.org/) -->

<svg
   width="210mm"
   height="297mm"
   viewBox="0 0 210 297"
   version="1.1"
   id="svg5"
   inkscape:version="1.1 (c68e22c387, 2021-05-23)"
   sodipodi:docname="3Katzen.svg"
   xmlns:inkscape="http://www.inkscape.org/namespaces/inkscape"
   xmlns:sodipodi="http://sodipodi.sourceforge.net/DTD/sodipodi-0.dtd"
   xmlns="http://www.w3.org/2000/svg"
   xmlns:svg="http://www.w3.org/2000/svg">
  <sodipodi:namedview
     id="namedview7"
     pagecolor="#ffffff"
     bordercolor="#666666"
     borderopacity="1.0"
     inkscape:pageshadow="2"
     inkscape:pageopacity="0.0"
     inkscape:pagecheckerboard="0"
     inkscape:document-units="mm"
     showgrid="false"
     inkscape:zoom="1.3879489"
     inkscape:cx="440.21792"
     inkscape:cy="457.50963"
     inkscape:window-width="1920"
     inkscape:window-height="1000"
     inkscape:window-x="-11"
     inkscape:window-y="-11"
     inkscape:window-maximized="1"
     inkscape:current-layer="layer1" />
  <defs
     id="defs2" />
  <g
     inkscape:label="Ebene 1"
     inkscape:groupmode="layer"
     id="layer1">
    <path
       style="fill:none;stroke-width:0.3;stroke:#000000;stroke-opacity:1;stroke-miterlimit:4;stroke-dasharray:none"
       d="m 85.45274,134.22933 c -0.153021,-0.48213 -1.17022,-1.66847 -1.651386,-1.92598 -0.508479,-0.27213 -1.295188,0.0862 -1.371527,0.62466 -0.110968,0.78276 -0.440103,0.44245 -0.761724,-0.7876 -0.171816,-0.65712 -0.374583,-1.25696 -0.450592,-1.33299 -0.07601,-0.076 -6.434867,-0.13823 -14.130795,-0.13823 -15.482691,0 -14.355978,-0.0994 -14.361857,1.26669 -0.0015,0.37802 -0.121835,0.84988 -0.26713,1.04859 -0.247769,0.33884 -0.285112,0.31715 -0.601383,-0.34934 -0.185464,-0.39084 -0.392488,-0.7127 -0.460049,-0.71523 -0.06756,-0.003 -0.45397,-0.0815 -0.858684,-0.17541 -0.730118,-0.16947 -0.747123,-0.15967 -2.185266,1.25993 -0.797182,0.7869 -1.487206,1.43073 -1.533386,1.43073 -0.04618,0 -0.08397,-0.16652 -0.08397,-0.37003 0,-0.20351 -0.346221,-0.64423 -0.76938,-0.97938 l -0.76938,-0.60936 -0.973415,0.5298 c -0.612744,0.33349 -1.015224,0.69638 -1.086254,0.97938 -0.153624,0.61209 -0.387851,0.56454 -0.759508,-0.15416 -0.414322,-0.80121 -1.237407,-1.50698 -1.766291,-1.51454 -0.234856,-0.003 -0.597553,0.17696 -0.805995,0.40069 -0.508254,0.54555 -0.723431,0.36027 -0.84616,-0.72858 -0.143498,-1.27311 -0.457018,-1.45178 -2.419926,-1.3791 -1.768288,0.0655 -1.891699,-0.0277 -1.744304,-1.31751 l 0.06336,-0.55443 1.923596,-0.0558 1.923596,-0.0558 1.037692,-1.06285 c 0.667641,-0.68382 1.538807,-1.30731 2.442915,-1.74838 l 1.405224,-0.68555 0.106631,-1.93511 c 0.05865,-1.06431 0.201204,-2.02968 0.316794,-2.14527 0.115591,-0.11559 0.210165,-0.32853 0.210165,-0.47319 0,-0.14466 0.211751,-0.7139 0.470559,-1.26498 0.463749,-0.98745 0.467979,-1.04528 0.292291,-3.9954 -0.09805,-1.6464 -0.264242,-3.55835 -0.369321,-4.24878 -0.298788,-1.96321 -0.429737,-4.58985 -0.234829,-4.71031 0.170718,-0.10551 1.354217,1.13043 4.581182,4.78418 0.854316,0.9673 1.689747,1.78501 1.856513,1.81713 0.166767,0.0321 0.945196,-0.24147 1.72984,-0.60798 0.784646,-0.3665 1.643897,-0.72324 1.909445,-0.79275 1.104986,-0.28926 1.93126,-0.75278 1.93126,-1.08338 0,-0.35228 0.420907,-2.20131 0.810178,-3.5591 0.827454,-2.88617 3.096081,-7.867034 5.541663,-12.166943 1.045934,-1.838994 3.380851,-6.464761 3.906727,-7.739721 0.70177,-1.701402 1.231264,-3.766628 1.433229,-5.59014 0.169684,-1.53205 -0.341032,-4.254737 -1.075938,-5.735948 -2.022779,-4.076935 -6.209672,-7.134655 -10.520018,-7.682848 -1.519276,-0.193223 -4.10163,-0.0079 -5.020555,0.360224 -1.711394,0.685663 -3.171112,1.601892 -4.218585,2.647903 -1.44724,1.44522 -1.854807,1.988669 -2.618472,3.491464 -2.068659,4.070856 -1.866842,8.079549 0.573041,11.382298 1.344049,1.819371 2.939412,2.870141 5.214644,3.434573 1.16811,0.289782 1.350825,0.290042 2.316366,0.0033 2.993718,-0.889038 4.977053,-4.693552 3.71398,-7.124306 -0.680895,-1.310362 -1.072093,-1.542457 -2.636184,-1.564027 -2.191262,-0.03022 -2.186648,-0.02888 -2.642399,-0.766301 -0.51729,-0.836993 -0.447463,-2.311238 0.129452,-2.733089 1.679046,-1.227747 5.320221,-0.424843 7.370258,1.625194 1.131278,1.131276 1.522368,1.876886 1.886029,3.595694 0.334932,1.583025 0.35044,2.524946 0.06175,3.75056 -0.399213,1.694851 -0.775935,2.555923 -1.619652,3.702032 -1.966342,2.671088 -5.351743,3.847277 -8.668162,3.011582 -4.994381,-1.258517 -9.033453,-5.059667 -10.465618,-9.849135 -0.476898,-1.594846 -0.478102,-5.157615 -0.0023,-6.759412 1.960457,-6.599719 6.295245,-10.665916 12.571465,-11.792517 3.478258,-0.624357 6.612541,-0.170686 9.849428,1.425653 2.195285,1.082651 4.84982,3.335843 6.411516,5.44215 2.209584,2.980134 2.859472,4.452784 3.133373,7.100227 0.485577,4.693423 -0.888346,9.35474 -4.851926,16.461151 -0.475475,0.852498 -2.004622,3.678118 -2.299311,4.248778 -2.2257,4.309964 -4.335368,10.195224 -3.836367,10.702154 0.09571,0.0972 0.676736,0.16037 1.291178,0.14031 0.614443,-0.02 1.393279,0.0446 1.73075,0.14368 0.84117,0.24695 0.993262,0.0243 1.96424,-2.87485 1.806239,-5.39316 2.07349,-6.08347 2.355203,-6.08347 0.196411,0 0.807966,1.57455 2.025273,5.2144 0.959143,2.86793 1.852513,5.40905 1.985268,5.64694 0.132753,0.2379 0.500192,0.56638 0.816531,0.72996 0.879963,0.45505 2.551228,2.22412 3.01266,3.18898 0.779854,1.63067 1.091274,3.03329 0.989448,4.45642 -0.107919,1.50833 0.0042,1.59607 1.331413,1.04154 0.776342,-0.32438 1.611784,-0.38238 1.611784,-0.11191 0,0.0978 -0.252233,0.23318 -0.560516,0.30089 -1.047353,0.23004 -3.257719,1.56125 -3.00761,1.81136 0.06793,0.0679 1.206372,0.13162 2.529872,0.14155 1.54274,0.0116 2.486626,0.0983 2.630001,0.24167 0.169433,0.16943 -0.273061,0.22364 -1.825627,0.22364 -1.62902,0 -2.27083,0.0848 -3.129706,0.41346 -1.286378,0.49227 -1.214612,0.70584 0.41509,1.23524 0.61259,0.199 1.210286,0.47434 1.328215,0.61188 0.11793,0.13753 0.403104,0.25006 0.633721,0.25006 0.230618,0 0.466043,0.12179 0.523165,0.27066 0.05712,0.14886 0.29339,0.33188 0.525035,0.40672 0.361431,0.11676 0.373276,0.14886 0.08351,0.22626 -0.185715,0.0496 -0.474369,-0.0465 -0.641454,-0.2136 -0.167085,-0.16708 -0.417301,-0.30379 -0.556037,-0.30379 -0.138736,0 -0.354663,-0.1234 -0.479835,-0.27423 -0.25483,-0.30705 -2.81145,-0.61328 -3.55728,-0.42609 -0.578909,0.14529 -2.442461,1.79842 -2.442461,2.16666 0,0.22602 0.772572,0.27178 4.586744,0.27169 l 4.586743,-1.1e-4 1.082418,-1.21042 c 1.321513,-1.47779 3.146208,-2.46591 5.092604,-2.75779 0.483356,-0.0725 0.928393,-0.21199 0.988973,-0.31001 0.06058,-0.098 -3.86e-4,-0.60971 -0.135605,-1.13708 -0.196359,-0.76615 -0.198093,-1.20133 -0.0086,-2.16529 0.130414,-0.66354 0.286398,-1.48559 0.34663,-1.82678 0.100681,-0.57031 -0.118652,-1.56452 -0.800472,-3.62842 -0.140358,-0.42488 -0.441334,-1.42431 -0.66883,-2.22095 -0.227499,-0.79665 -0.670569,-2.25925 -0.984601,-3.25022 -0.809243,-2.55369 -0.637158,-2.68153 1.563888,-1.16184 0.792987,0.54751 2.122227,1.50675 2.953867,2.13165 1.82001,1.36756 2.93917,2.08728 3.24573,2.08728 0.12486,0 0.49594,-0.19896 0.82463,-0.44213 1.61752,-1.19669 5.241117,-2.06203 8.655217,-2.06693 l 1.10508,-0.002 0.27878,-1.01391 c 0.48789,-1.77442 0.53751,-2.99906 0.21623,-5.33657 -0.29818,-2.16946 -0.609,-3.69825 -1.16292,-5.719904 -0.14551,-0.5311 -0.40954,-1.53052 -0.58672,-2.22095 -0.17719,-0.69042 -0.4347,-1.689853 -0.57226,-2.22095 -0.34716,-1.340399 -0.78315,-3.497216 -1.19069,-5.890345 -0.50463,-2.963233 -0.50357,-12.203243 0.002,-14.967269 0.65386,-3.576804 1.74033,-7.304363 2.9271,-10.042555 1.06717,-2.462242 2.362,-4.931277 2.86116,-5.455811 0.96638,-1.015485 1.81984,-0.80756 2.41546,0.588465 0.41425,0.970941 0.26157,1.739173 -0.75166,3.782042 -1.43417,2.891485 -2.4466,5.791479 -3.2444,9.293123 -1.29784,5.696415 -1.21413,11.746942 0.24983,18.057286 0.24642,1.062193 0.54505,2.409247 0.66363,2.993454 0.11857,0.584206 0.523,2.235434 0.89872,3.6694 0.37573,1.43396 0.81322,3.30245 0.97221,4.152214 0.38741,2.07055 0.5543,6.35549 0.33097,8.49754 -0.0997,0.95598 -0.14849,1.82949 -0.10849,1.94114 0.04,0.11165 0.82145,0.35863 1.73657,0.54882 1.91299,0.39761 3.89632,1.25021 5.85371,2.51645 0.75154,0.48616 1.45626,0.88394 1.56605,0.88394 0.10978,0 1.21513,-0.59806 2.45633,-1.32903 2.9977,-1.76539 5.6188,-3.11287 6.05512,-3.11287 0.4271,0 0.44202,0.18286 0.0736,0.9017 -0.24835,0.48452 -0.80504,1.74481 -1.2652,2.86426 -0.13644,0.33191 -0.52864,1.1788 -2.05708,4.4419 -0.14926,0.31865 -0.43763,0.85603 -0.64082,1.19415 -0.25115,0.41793 -0.40878,1.16 -0.49229,2.31752 -0.11598,1.60775 -0.53063,3.33324 -0.9324,3.88007 -0.29373,0.39978 -0.0514,0.46766 1.86998,0.52387 1.18619,0.0347 2.01965,0.15767 2.37769,0.35081 0.30321,0.16357 0.7251,0.36295 0.93754,0.44308 0.37317,0.14075 0.37187,0.14822 -0.0383,0.2204 -0.23351,0.0411 -0.59715,-0.0177 -0.80809,-0.13054 -0.69606,-0.37252 -3.74273,-0.25259 -4.77007,0.18778 -2.06127,0.88357 -0.007,1.15197 8.81779,1.15197 7.04635,0 7.32406,-0.0138 7.32406,-0.36404 0,-0.20022 -0.19554,-0.49314 -0.43453,-0.65094 -0.239,-0.15779 -0.68407,-0.53714 -0.98906,-0.84299 -0.52477,-0.52627 -0.63953,-0.55517 -2.13926,-0.53863 -1.05922,0.0117 -1.79778,0.12375 -2.22719,0.33797 -0.35335,0.17627 -0.7622,0.3205 -0.90854,0.3205 -0.14634,0 -0.3161,0.13036 -0.37724,0.28969 -0.0611,0.15933 -0.29741,0.28692 -0.52504,0.28355 -0.41031,-0.006 -0.41055,-0.009 -0.0276,-0.28311 0.21244,-0.15233 0.49122,-0.36683 0.61951,-0.47667 0.12829,-0.10984 0.35664,-0.19971 0.50745,-0.19971 0.15081,0 0.38238,-0.13036 0.51461,-0.28969 0.13223,-0.15933 0.35241,-0.28969 0.48928,-0.28969 0.362,0 2.40761,-0.80448 2.40761,-0.94684 0,-0.0664 -0.4128,-0.31581 -0.91734,-0.55423 -0.7822,-0.36963 -1.23745,-0.43326 -3.09002,-0.43185 -1.19497,9.7e-4 -2.17267,-0.0727 -2.17267,-0.16354 0,-0.24601 2.27135,-0.41177 3.84012,-0.28025 1.04805,0.0879 1.37428,0.0565 1.37428,-0.13205 0,-0.31545 -0.90416,-1.16064 -1.24162,-1.16064 -0.14085,0 -0.35644,-0.12091 -0.47909,-0.26869 -0.12264,-0.14778 -0.61127,-0.32692 -1.08584,-0.39809 -0.47456,-0.0712 -0.86284,-0.21097 -0.86284,-0.31068 0,-0.27991 0.9984,-0.21218 1.61536,0.10959 0.30425,0.15867 0.75014,0.2885 0.99088,0.2885 0.41813,0 0.44125,-0.081 0.51698,-1.81253 0.0714,-1.63163 0.15398,-1.96414 0.8278,-3.33143 0.54012,-1.09601 1.09471,-1.85267 1.99191,-2.71773 l 1.24339,-1.19884 0.35839,-2.18087 c 0.93996,-5.71976 1.56584,-9.03483 1.72424,-9.13272 0.17534,-0.10837 0.63224,0.4015 0.98937,1.10406 0.14687,0.28896 1.04369,2.05832 1.99292,3.93192 l 1.72587,3.40654 0.97789,-0.12405 c 0.53784,-0.0682 1.45588,-0.17527 2.04009,-0.23786 1.25806,-0.1348 1.61274,-0.35165 1.35692,-0.82965 -0.099,-0.18495 -0.26972,-0.97971 -0.37941,-1.76614 -0.23114,-1.65711 -0.67518,-4.06168 -0.94734,-5.13 -0.10393,-0.40796 -0.33174,-1.39356 -0.50625,-2.190204 -0.65603,-2.99481 -1.47537,-5.965386 -2.5302,-9.17349 -2.52127,-7.668012 -3.02023,-13.26973 -1.58896,-17.838616 1.51984,-4.851581 6.12783,-8.329964 11.03513,-8.329964 2.38591,0 4.20372,0.61027 6.12694,2.056909 1.35717,1.020863 1.86677,1.707961 2.69992,3.640309 0.62446,1.448305 0.66522,1.671933 0.65137,3.572832 -0.014,1.917694 -0.0501,2.094169 -0.6648,3.249427 -0.72681,1.365906 -2.25022,2.873969 -3.51392,3.478506 -1.98521,0.949693 -3.84184,1.007662 -4.24064,0.132403 -0.49207,-1.079982 0.2632,-2.325286 2.06098,-3.398176 0.95742,-0.571374 1.80104,-1.417229 2.03979,-2.045186 0.0996,-0.262068 0.18116,-1.00448 0.18116,-1.6498 0,-1.527818 -0.53034,-2.591389 -1.9455,-3.901573 -1.03395,-0.957254 -1.76765,-1.276205 -3.46203,-1.504993 -0.64352,-0.08689 -2.47163,0.516846 -3.38424,1.117655 -1.10924,0.73026 -1.46286,1.108131 -2.42418,2.590477 -0.92808,1.431075 -1.28074,2.467496 -1.55743,4.577033 -0.25602,1.951943 -0.0303,5.378841 0.49563,7.523481 0.77137,3.145677 1.14037,4.480966 2.04643,7.405217 1.58504,5.115619 1.97494,6.522129 2.59652,9.366623 0.18569,0.84975 0.46307,2.06645 0.6164,2.70376 0.15334,0.63732 0.3641,1.76711 0.46836,2.51064 0.10427,0.74354 0.26647,1.90527 0.36045,2.58164 0.094,0.67637 0.24321,1.29276 0.33162,1.36976 0.0884,0.077 0.9712,0.33762 1.96175,0.57917 0.99055,0.24154 2.45972,0.69282 3.26482,1.00284 l 1.46383,0.56366 1.3702,-0.41124 c 0.75361,-0.22619 1.63092,-0.4875 1.94958,-0.58071 0.31866,-0.0932 1.18772,-0.34955 1.93126,-0.56966 0.74353,-0.22011 1.82987,-0.539 2.41408,-0.70864 0.5842,-0.16963 1.29381,-0.39057 1.5769,-0.49098 1.04191,-0.36952 1.86977,-0.48785 2.06279,-0.29484 0.18044,0.18044 -0.30557,0.9919 -1.76178,2.94151 -3.94152,5.27702 -3.72385,4.89181 -3.42558,6.06204 0.12545,0.49219 0.32234,1.11216 0.43754,1.37771 0.1152,0.26555 0.26002,1.77257 0.32182,3.34895 l 0.11236,2.86612 0.96563,0.42426 c 1.4874,0.65349 2.25096,1.18823 3.05845,2.1419 l 0.74093,0.87507 h 1.91455 1.91455 v 0.96563 0.96563 h -1.55378 c -1.3922,0 -1.60309,0.0493 -2.02783,0.47404 -0.32201,0.32201 -0.47403,0.68998 -0.47403,1.14736 0,0.8951 -0.32302,1.05006 -0.89746,0.43054 -0.25853,-0.27881 -0.55042,-0.50693 -0.64865,-0.50693 -0.35418,0 -1.60723,1.26313 -1.86496,1.87997 -0.31848,0.76222 -0.59719,0.81188 -0.68003,0.12115 -0.0463,-0.38562 -0.30723,-0.6482 -1.07325,-1.07982 l -1.01213,-0.57032 -0.77428,0.61325 c -0.42586,0.33728 -0.77429,0.77975 -0.77429,0.98326 0,0.20351 -0.0392,0.37003 -0.0872,0.37003 -0.048,0 -0.73379,-0.64657 -1.52403,-1.43681 l -1.43681,-1.43681 -0.7452,0.2166 c -0.93137,0.27071 -1.22052,0.48776 -1.44845,1.08724 -0.26109,0.68672 -0.58664,0.26052 -0.67141,-0.879 -0.0437,-0.58768 -0.18957,-1.01925 -0.39558,-1.17048 -0.25627,-0.18812 -6.57412,-0.24008 -29.42684,-0.24201 -16.00528,-0.001 -29.373447,0.0521 -29.707037,0.11885 -0.56496,0.11299 -0.60653,0.17715 -0.60653,0.93619 0,0.56985 -0.13252,0.9691 -0.44069,1.32774 -0.54278,0.63168 -0.71807,0.64632 -0.71807,0.06 0,-0.65281 -0.62439,-1.12287 -1.64421,-1.23782 -0.82874,-0.0934 -0.9299,-0.0536 -1.53061,0.60221 -0.35378,0.38623 -0.76187,0.70332 -0.90687,0.70463 -0.14501,0.001 -0.45998,0.30549 -0.69995,0.67595 -0.42099,0.64989 -1.06206,0.92755 -0.99772,0.43214 0.072,-0.55439 -0.0532,-0.74388 -0.805329,-1.21866 l -0.790909,-0.49928 -1.038769,0.54387 c -0.775108,0.40582 -1.068449,0.67899 -1.155697,1.07623 -0.138493,0.63055 -0.396254,0.69057 -0.573081,0.13343 z m -29.583827,-5.81159 c 0.229818,-0.123 0.532568,-0.33835 0.672778,-0.47856 0.140209,-0.14021 0.394531,-0.33305 0.56516,-0.42854 0.278414,-0.15581 0.26921,-0.23123 -0.08976,-0.73535 -0.379891,-0.53351 -0.383829,-0.58843 -0.07836,-1.0928 0.434661,-0.71769 1.020099,-0.61949 1.233088,0.20683 0.122799,0.47642 0.267478,0.62766 0.600448,0.62766 0.696117,0 0.902393,-0.37434 0.899263,-1.63192 -0.0054,-2.16328 -0.949676,-3.7284 -2.760554,-4.5755 -0.810187,-0.37899 -1.283954,-0.45543 -2.822741,-0.45543 -1.605602,0 -1.950894,0.0608 -2.621654,0.46164 -1.416025,0.84619 -2.507885,2.34953 -2.738478,3.77051 -0.141039,0.86912 0.149036,1.32725 1.237342,1.95419 0.506967,0.29205 1.347745,0.99673 1.868396,1.56595 l 0.946639,1.03494 h 1.335289 c 0.73441,0 1.523322,-0.10063 1.753142,-0.22362 z m 6.895544,-0.16263 c 0.248849,-0.46498 -0.05004,-1.15875 -0.4992,-1.15875 -0.404165,0 -1.432061,0.55018 -1.432061,0.76651 0,0.28432 0.819813,0.77849 1.291496,0.77849 0.238177,0 0.526072,-0.17381 0.639765,-0.38625 z m 42.839133,-0.0483 c -0.0506,-0.3561 -0.18372,-0.43453 -0.73766,-0.43453 -0.55394,0 -0.68708,0.0784 -0.73765,0.43453 -0.0555,0.39058 0.0191,0.43453 0.73765,0.43453 0.71851,0 0.79313,-0.0439 0.73766,-0.43453 z m 8.79588,-0.2426 c 0.30424,-0.15867 0.6544,-0.2885 0.77813,-0.2885 0.3668,0 1.65967,-1.36297 2.09515,-2.20877 0.4767,-0.92585 0.55739,-2.4131 0.15711,-2.89583 -0.36655,-0.44206 -0.91355,-0.35167 -3.68013,0.60816 -2.5744,0.89316 -4.1865,1.34174 -5.40174,1.50309 -0.47481,0.063 -0.92472,0.21403 -0.99981,0.33553 -0.36175,0.58532 0.92724,1.91432 2.69915,2.78292 1.10048,0.53946 3.46113,0.6281 4.35214,0.1634 z m -5.19891,-1.32457 c -0.14962,-0.59616 0.0516,-1.28144 0.37631,-1.28144 0.13366,0 0.45079,0.22117 0.70474,0.4915 0.55105,0.58656 0.35271,1.11376 -0.45543,1.21053 -0.40133,0.0481 -0.52964,-0.0382 -0.62562,-0.42059 z m -8.5834,0.5355 c 1.85563,-0.64446 3.27278,-2.35079 3.27947,-3.94869 0.004,-1.05648 -0.63874,-2.41216 -1.4113,-2.97478 -0.74071,-0.53944 -3.557667,-0.56125 -5.247877,-0.0406 -1.74608,0.53782 -3.25212,1.09864 -3.49777,1.3025 -0.51576,0.42805 -0.44722,3.65155 0.0776,3.65155 0.0758,0 0.56985,0.40236 1.0979,0.89412 0.52804,0.49176 1.26656,1.00708 1.64115,1.14515 0.94319,0.34764 3.01869,0.33272 4.060787,-0.0292 z m -4.266897,-1.64194 -0.40438,-0.40437 0.60123,-0.58782 c 0.58257,-0.56956 0.61311,-0.57707 0.98376,-0.24163 0.46063,0.41686 0.49061,0.92315 0.079,1.33472 -0.4109,0.41089 -0.7772,0.38155 -1.25965,-0.1009 z m 53.154667,1.38211 c 0.37042,-0.30398 0.41606,-0.43981 0.24333,-0.72422 -0.2493,-0.4105 -1.33702,-0.57024 -1.71979,-0.25257 -0.43244,0.35889 0.0664,1.35094 0.67933,1.35094 0.18766,0 0.54637,-0.16837 0.79713,-0.37415 z m 10.25708,-1.08909 1.3036,-0.87298 v -1.54186 c 0,-1.70956 -0.25463,-2.51228 -1.15918,-3.65437 -1.7713,-2.23645 -5.3885,-2.54451 -7.4541,-0.63482 -1.04568,0.96675 -1.42556,1.62336 -1.60841,2.78005 -0.17395,1.10045 0.063,1.42062 0.57934,0.78292 0.4079,-0.50373 0.91651,-0.54049 1.09319,-0.079 0.0712,0.18589 0.29902,0.47557 0.50634,0.64375 0.37198,0.30173 0.37099,0.31383 -0.0752,0.91734 -0.24869,0.33637 -0.52786,0.61158 -0.62037,0.61158 -0.45191,0 0.13218,0.35832 0.76981,0.47225 1.35506,0.24212 3.06265,0.95403 4.08677,1.70382 0.42387,0.31033 0.50301,0.31422 0.87044,0.0428 0.22229,-0.16418 0.99079,-0.69136 1.70777,-1.17151 z m -89.211534,-0.49645 c 0.753198,-0.39561 1.85756,-1.7838 2.177315,-2.73691 0.398877,-1.18895 0.249783,-2.23222 -0.508831,-3.5605 -0.730366,-1.27883 -1.773564,-1.95916 -3.347746,-2.18326 -2.826689,-0.40242 -4.941848,0.67273 -6.350341,3.22793 -0.458427,0.83165 -0.443188,2.5759 0.0306,3.50245 0.472326,0.9237 1.26945,1.77872 1.658271,1.77872 0.378046,0 0.606371,-0.53623 0.341222,-0.80138 -0.204734,-0.20473 0.179503,-1.20233 0.551694,-1.43236 0.354715,-0.21922 0.751815,0.34789 0.751815,1.07369 v 0.72392 l 1.496726,0.13991 c 0.8232,0.077 1.670541,0.21242 1.882979,0.30105 0.545778,0.2277 0.833264,0.22044 1.316297,-0.0333 z m 70.944594,-0.14741 c 0.8246,-0.1479 1.59625,-0.15486 2.51064,-0.0227 0.72607,0.10497 1.37864,0.19258 1.45015,0.19469 0.31413,0.009 1.31842,-1.03071 1.31842,-1.36523 0,-0.39313 -0.28451,-0.49682 -0.48281,-0.17596 -0.20261,0.32782 -0.67167,0.21496 -1.16754,-0.28091 -0.59497,-0.59497 -0.5966,-0.83028 -0.008,-1.09865 0.25655,-0.11689 0.50956,-0.3774 0.56226,-0.5789 0.16165,-0.61817 1.03252,-0.0804 1.18486,0.7317 0.18978,1.0116 0.4902,0.56814 0.4902,-0.72359 0,-1.37038 -0.43751,-2.34968 -1.54415,-3.45632 -1.1491,-1.1491 -2.31021,-1.59979 -4.15307,-1.61202 -2.40442,-0.016 -3.76213,0.8277 -4.63276,2.87875 -0.40077,0.94415 -0.44357,2.72232 -0.0812,3.37358 0.77728,1.39695 2.16198,2.57765 2.86578,2.44358 0.27297,-0.052 1.03203,-0.19062 1.68681,-0.30805 z m 9.91344,-1.08043 c -0.19805,-0.23865 -0.28839,-0.25266 -0.40564,-0.063 -0.20251,0.32766 0.20805,0.82235 0.46732,0.56309 0.12875,-0.12875 0.10819,-0.29547 -0.0617,-0.50014 z"
       id="path854" />
  </g>
</svg>
