<?xml version="1.0" encoding="UTF-8" standalone="no"?>
<!-- Created with Inkscape (http://www.inkscape.org/) -->

<svg
   width="210mm"
   height="297mm"
   viewBox="0 0 210 297"
   version="1.1"
   id="svg3503"
   inkscape:version="1.1 (c68e22c387, 2021-05-23)"
   sodipodi:docname="3Mimi.svg"
   xmlns:inkscape="http://www.inkscape.org/namespaces/inkscape"
   xmlns:sodipodi="http://sodipodi.sourceforge.net/DTD/sodipodi-0.dtd"
   xmlns="http://www.w3.org/2000/svg"
   xmlns:svg="http://www.w3.org/2000/svg">
  <sodipodi:namedview
     id="namedview3505"
     pagecolor="#ffffff"
     bordercolor="#666666"
     borderopacity="1.0"
     inkscape:pageshadow="2"
     inkscape:pageopacity="0.0"
     inkscape:pagecheckerboard="0"
     inkscape:document-units="mm"
     showgrid="false"
     inkscape:zoom="0.69397447"
     inkscape:cx="334.30625"
     inkscape:cy="561.25984"
     inkscape:window-width="1920"
     inkscape:window-height="1017"
     inkscape:window-x="-8"
     inkscape:window-y="-8"
     inkscape:window-maximized="1"
     inkscape:current-layer="layer1" />
  <defs
     id="defs3500" />
  <g
     inkscape:label="Ebene 1"
     inkscape:groupmode="layer"
     id="layer1">
    <path
       style="fill:#000000;stroke-width:1"
       d="m 52.328611,130.31909 c -0.108465,-0.10846 -0.197209,-0.41361 -0.197209,-0.6781 0,-0.2645 -0.343788,-0.86566 -0.763973,-1.33593 -0.659833,-0.73849 -0.82213,-0.80677 -1.190625,-0.50094 -0.234658,0.19474 -0.426652,0.52513 -0.426652,0.73418 0,0.20905 -0.125655,0.30243 -0.279233,0.20751 -0.153578,-0.0949 -0.234134,-0.36983 -0.179013,-0.61092 0.05512,-0.2411 -0.05733,-0.75983 -0.249899,-1.15275 -0.311412,-0.63542 -0.518319,-0.72318 -1.871508,-0.79375 -1.425265,-0.0743 -1.521388,-0.12115 -1.521388,-0.74081 0,-0.62848 0.08576,-0.66595 1.719791,-0.75154 1.674933,-0.0877 1.740646,-0.11878 2.519309,-1.19062 0.439734,-0.6053 1.34629,-1.39075 2.014569,-1.74544 l 1.215052,-0.6449 0.150239,-2.31895 c 0.09714,-1.49945 0.346534,-2.76272 0.705696,-3.57466 0.552486,-1.24899 0.553192,-1.28514 0.131825,-6.75906 -0.232998,-3.02685 -0.385555,-5.76462 -0.339015,-6.08394 0.06649,-0.45622 0.639411,0.16703 2.674907,2.90989 1.42466,1.91976 2.656436,3.49047 2.737281,3.49047 0.08085,0 0.509754,-0.25831 0.95313,-0.57402 0.443377,-0.31572 1.473788,-0.84532 2.289803,-1.1769 l 1.483662,-0.60288 0.323372,-1.92726 c 0.707546,-4.21691 2.567777,-9.596666 5.289826,-15.298106 3.37638,-7.07197 4.384223,-10.38898 4.38131,-14.41979 -0.0021,-2.86336 -0.553929,-4.51689 -2.457225,-7.36255 -3.886941,-5.81146 -11.294933,-6.96251 -15.327264,-2.38154 -2.126652,2.41601 -3.719394,6.39135 -3.719394,9.28328 0,4.73375 2.220268,8.53244 5.762366,9.85894 1.696515,0.63534 2.802894,0.48525 4.132454,-0.56058 1.695458,-1.33364 2.766898,-5.13644 1.912637,-6.78839 -0.617394,-1.19392 -1.418544,-1.65229 -2.887889,-1.65229 -1.814785,0 -2.304984,-0.32978 -2.304984,-1.55068 0,-2.17042 2.086346,-2.84813 4.696373,-1.52553 1.556549,0.78876 2.577146,2.05339 3.296216,4.08435 1.044948,2.95139 0.203868,7.73172 -1.724024,9.7986 -1.403355,1.50453 -3.817633,2.15113 -6.051553,1.62075 -4.953542,-1.17608 -8.607664,-5.15427 -9.478899,-10.31954 -0.801752,-4.75332 1.338415,-11.82755 4.542432,-15.01482 3.814137,-3.79419 8.881711,-4.51964 14.141128,-2.02437 3.466604,1.6447 5.958174,4.76204 7.588431,9.49432 0.74866,2.17319 0.825569,2.69953 0.833117,5.70151 0.01024,4.06862 -0.420946,5.71743 -3.079001,11.77396 -3.113989,7.0954 -4.945337,11.88389 -5.637301,14.740046 -0.957617,3.95268 -1.010781,3.78078 1.169289,3.78078 h 1.828238 l 1.25957,-4.44443 c 0.692764,-2.444436 1.352018,-4.501566 1.465011,-4.571396 0.225404,-0.13931 0.746313,1.508 2.288884,7.238316 0.911582,3.38633 1.102148,3.83907 1.835071,4.35976 0.997952,0.70897 2.288034,2.60334 2.746054,4.03233 0.186569,0.58209 0.346967,1.98075 0.356444,3.10814 0.01117,1.32902 0.121698,2.05006 0.314323,2.05053 0.163404,2.6e-4 0.852987,-0.24519 1.532411,-0.54573 0.679421,-0.30054 1.438695,-0.50664 1.687277,-0.45799 0.248581,0.0487 -0.267356,0.35143 -1.14653,0.67284 -0.879173,0.32141 -1.921753,0.92179 -2.316845,1.33418 l -0.718349,0.74979 2.369053,-0.0163 c 1.30298,-0.009 2.488276,0.10277 2.63399,0.24829 0.176649,0.17641 -0.5589,0.26458 -2.207278,0.26458 -2.059832,0 -2.565114,0.0841 -3.029125,0.50403 -0.764101,0.69155 -0.698664,0.95118 0.239726,0.95118 0.952153,0 2.93688,0.88903 3.58599,1.60629 0.647714,0.71571 0.244639,0.98542 -0.481062,0.32188 -0.925047,-0.84579 -2.198931,-1.399 -3.221514,-1.399 -0.770107,0 -1.131739,0.21371 -2.06366,1.21953 -0.621461,0.67075 -1.169617,1.32559 -1.218123,1.45521 -0.04936,0.13189 1.836153,0.23568 4.281649,0.23568 4.300037,0 4.372824,-0.01 4.55636,-0.59532 0.4597,-1.46723 2.132592,-2.83007 4.235688,-3.45066 1.125712,-0.33217 1.29272,-0.46938 1.233477,-1.01338 -0.204674,-1.87942 -0.157417,-2.86073 0.187936,-3.90257 0.371136,-1.11961 0.339897,-1.33169 -0.973788,-6.61121 -0.746474,-2.99998 -1.311929,-5.4998 -1.256565,-5.55516 0.05536,-0.0554 1.527207,1.17008 3.270764,2.7232 l 3.170102,2.82386 1.119801,-0.81118 c 1.405922,-1.01845 3.745933,-1.75063 6.385333,-1.99797 l 2.04302,-0.19144 0.17649,-0.94081 c 0.37616,-2.00509 -0.12229,-7.500456 -1.09707,-12.095066 -1.70095,-8.01743 -2.00443,-10.24813 -2.16513,-15.91452 -0.23077,-8.1369 0.47116,-12.94306 2.87303,-19.67194 1.34417,-3.76571 2.49047,-6.08542 3.00715,-6.08542 0.21619,0 0.64501,0.25195 0.95294,0.55988 0.79529,0.79529 0.57046,2.40558 -0.77149,5.52554 -2.08267,4.84212 -3.2296,10.88949 -3.2258,17.00858 0.003,5.2056 0.40696,8.24043 1.97868,14.87371 1.14782,4.84424 1.49233,7.88173 1.43855,12.683416 l -0.0503,4.4932 1.68889,0.42632 c 2.38356,0.60166 3.36821,1.07859 4.81873,2.334 0.69739,0.60359 1.32033,1.09744 1.38431,1.09744 0.064,0 1.2176,-0.75671 2.56359,-1.68156 1.346,-0.92486 3.01881,-2.01125 3.71736,-2.4142 l 1.27007,-0.73262 -0.17827,0.76054 c -0.43077,1.83768 -1.29194,4.12487 -2.47801,6.58138 -1.09376,2.26532 -1.30568,2.96927 -1.47357,4.89479 -0.10785,1.23693 -0.34378,2.74035 -0.52429,3.34093 l -0.3282,1.09198 1.89503,0.12161 c 1.04227,0.0669 2.11784,0.24631 2.39016,0.39871 0.36139,0.20224 -0.1476,0.24044 -1.88446,0.14141 -2.57658,-0.14691 -3.53042,0.11891 -3.53042,0.98387 0,0.77589 1.60515,0.8924 8.73013,0.63366 l 6.33023,-0.22988 -1.10314,-1.41404 c -1.06832,-1.3694 -1.13559,-1.40886 -2.13051,-1.24976 -1.24707,0.19941 -2.78651,0.95694 -3.46155,1.70337 -0.27411,0.30309 -0.61048,0.4818 -0.7475,0.39711 -0.35323,-0.2183 0.80078,-1.37998 1.96295,-1.97597 0.5399,-0.27688 1.4031,-0.50342 1.91822,-0.50342 0.6195,0 0.93659,-0.12349 0.93659,-0.36477 0,-0.63725 -1.62196,-1.09043 -3.9027,-1.09043 -1.33876,0 -2.14817,-0.10232 -2.09309,-0.26459 0.0516,-0.15193 1.17824,-0.26458 2.64626,-0.26458 1.40604,0 2.55629,-0.0812 2.55611,-0.18042 -8e-4,-0.3841 -1.62116,-1.30636 -3.07076,-1.74768 -1.69026,-0.51459 -2.40473,-1.31318 -0.87408,-0.97699 0.48438,0.10638 1.37521,0.40541 1.97962,0.66449 l 1.09893,0.47105 0.14978,-2.02564 c 0.20031,-2.70927 0.79102,-4.27092 2.2143,-5.85395 1.13364,-1.26088 1.20132,-1.42961 1.56583,-3.90414 0.20954,-1.42247 0.49571,-3.18162 0.63594,-3.90922 0.14022,-0.72761 0.3153,-2.144116 0.38905,-3.147806 0.0738,-1.00369 0.19439,-1.88517 0.26807,-1.95886 0.16673,-0.16673 1.66552,3.11978 2.63051,5.768126 1.23579,3.39151 1.11209,3.20086 1.88586,2.90667 0.37734,-0.14346 1.28219,-0.26084 2.0108,-0.26084 h 1.32473 l -0.16675,-1.52135 c -0.58743,-5.359446 -1.77624,-11.531606 -3.4662,-17.996036 -2.33957,-8.9493 -2.67343,-12.27915 -1.7028,-16.98349 1.25561,-6.08555 4.73128,-9.80042 9.16989,-9.80099 5.53663,-8e-4 8.53399,3.80721 8.01799,10.18625 -0.24045,2.97258 -1.65738,5.15213 -4.05825,6.24247 -1.33447,0.60604 -1.85248,0.62525 -2.3891,0.0886 -0.86962,-0.86961 -0.52113,-1.73356 1.44271,-3.57667 2.16467,-2.0316 2.46137,-2.74484 1.98832,-4.77981 -0.43839,-1.88591 -0.97954,-2.88476 -2.0921,-3.8616 -1.53406,-1.34692 -4.1274,-1.3784 -5.7904,-0.0703 -1.10847,0.87193 -2.24971,2.92976 -2.85926,5.1557 -0.50479,1.84339 -0.56034,2.55949 -0.44126,5.68855 0.1668,4.38307 0.64617,7.12133 2.17835,12.44321 1.62939,5.65954 2.40906,9.11073 2.89897,12.8323 0.22988,1.746246 0.50475,3.829796 0.61083,4.630116 l 0.19286,1.45512 2.66774,0.97498 2.66775,0.97499 4.97511,-1.57822 c 2.73631,-0.86802 5.00916,-1.54417 5.05078,-1.50255 0.0416,0.0416 -0.98694,1.7699 -2.28569,3.84063 l -2.36135,3.76496 0.3876,2.31894 c 0.21318,1.27542 0.43932,3.3905 0.50253,4.70019 l 0.11494,2.38125 1.20036,0.58442 c 0.84241,0.41014 1.41033,0.9427 1.90449,1.78593 l 0.70414,1.20153 h 1.95924 1.95923 v 0.79375 0.79375 h -1.71048 c -1.91566,0 -2.25499,0.28512 -2.26217,1.90083 l -0.004,0.87729 -0.33345,-0.66146 c -0.1834,-0.3638 -0.5686,-0.69179 -0.856,-0.72886 -0.50304,-0.0649 -0.73055,0.28439 -1.59493,2.44866 -0.20777,0.52022 -0.21301,0.51976 -0.31037,-0.0271 -0.0545,-0.30596 -0.50256,-0.9474 -0.99576,-1.42543 l -0.89673,-0.86915 -0.80977,0.80977 c -0.44538,0.44537 -0.80977,0.94926 -0.80977,1.11974 0,0.17049 -0.41672,-0.18881 -0.92604,-0.79843 -0.50933,-0.60962 -0.92605,-1.27573 -0.92605,-1.48024 0,-0.42892 -0.42051,-0.49711 -0.66145,-0.10726 -0.0899,0.14552 -0.43963,0.26458 -0.7771,0.26458 -0.33854,0 -0.79718,0.26685 -1.02318,0.59532 -0.39561,0.57496 -0.40802,0.55461 -0.363,-0.59532 l 0.0466,-1.19062 -25.13542,-0.0727 c -13.82448,-0.04 -25.403298,-0.008 -25.730719,0.0712 -0.489644,0.11834 -0.595313,0.32509 -0.595313,1.16478 0,0.5915 -0.169473,1.16154 -0.402931,1.3553 -0.334865,0.27791 -0.376119,0.26453 -0.244211,-0.0792 0.264552,-0.68942 -0.337134,-1.44219 -1.263747,-1.58109 -0.752478,-0.1128 -1.002152,0.0144 -1.886816,0.96108 -0.560768,0.60009 -1.147569,1.38873 -1.304004,1.75253 l -0.284427,0.66146 -0.111342,-0.65548 c -0.09647,-0.56785 -1.164902,-1.85806 -1.538687,-1.85806 -0.07135,0 -0.385318,0.23813 -0.697714,0.52917 -0.312399,0.29104 -0.724138,0.52916 -0.914979,0.52916 -0.1978,0 -0.354685,0.31284 -0.364893,0.72761 l -0.01791,0.7276 -0.312822,-0.65933 c -0.172048,-0.36264 -0.491411,-0.84933 -0.709692,-1.08155 -0.218281,-0.23222 -0.523539,-0.64137 -0.678349,-0.90923 -0.395568,-0.68442 -1.173734,-0.32591 -1.173734,0.54076 0,0.38954 -0.114205,0.61479 -0.264583,0.52185 -0.145521,-0.0899 -0.266208,-0.48392 -0.268195,-0.87551 -0.0021,-0.39159 -0.07571,-0.98106 -0.163838,-1.30992 l -0.160224,-0.59794 -12.205433,0.0688 -12.205435,0.0688 -0.08202,1.32292 c -0.09801,1.58084 -0.579439,2.29463 -0.579439,0.8591 0,-0.88737 -0.07922,-0.9884 -0.967357,-1.23362 -1.063555,-0.29367 -1.413893,-0.19402 -1.413893,0.40216 0,0.2163 -0.306923,0.70021 -0.682051,1.07533 -0.375128,0.37513 -0.7843,0.93527 -0.909271,1.24475 -0.217659,0.53902 -0.228251,0.54043 -0.251746,0.0335 -0.01349,-0.29105 -0.381369,-0.92152 -0.817509,-1.40106 l -0.792983,-0.87189 -0.720616,0.84891 c -0.396338,0.46691 -0.7807,1.07699 -0.854136,1.35574 -0.07344,0.27875 -0.222264,0.41807 -0.330729,0.3096 z m 16.589543,-5.5641 c 1.160178,-0.4452 0.994981,-2.21783 -0.206686,-2.21783 -0.798515,0 -1.234233,0.47792 -1.234233,1.35379 0,0.87042 0.555784,1.2037 1.440919,0.86404 z m -4.758226,-1.12778 c 0.587592,-0.56465 1.425536,-1.13945 1.862099,-1.27734 0.7032,-0.22211 0.803598,-0.38419 0.880074,-1.42077 0.177288,-2.40302 -1.039774,-4.68393 -2.966026,-5.55868 -1.867941,-0.84826 -3.524515,-0.52604 -5.028694,0.97814 -0.913244,0.91324 -1.370016,1.92355 -1.616425,3.5753 l -0.182472,1.22315 1.146153,0.63226 c 0.732629,0.40414 1.369291,1.03676 1.764616,1.7534 0.589356,1.06839 0.676207,1.12116 1.845395,1.12116 1.065157,0 1.367798,-0.13537 2.29528,-1.02662 z m 0.07703,-1.24352 c -0.09447,-0.0945 0.0011,-0.43551 0.212268,-0.75787 0.211217,-0.32236 0.294317,-0.6822 0.184666,-0.79965 -0.109651,-0.11744 -0.02077,-0.15755 0.19751,-0.0891 0.539994,0.16928 0.529122,1.6351 -0.0129,1.73949 -0.225378,0.0434 -0.487071,0.002 -0.581542,-0.0928 z m 49.459832,1.56733 c 1.22743,-0.58245 2.17715,-2.07562 2.37323,-3.73122 0.20598,-1.7392 -0.038,-2.70972 -0.6811,-2.70972 -0.27333,0 -1.1938,0.34407 -2.04548,0.7646 -1.56062,0.77059 -5.61403,2.14581 -6.32466,2.14581 -1.29882,0 1.02688,3.19719 2.68709,3.694 1.2554,0.37568 3.00585,0.30397 3.99092,-0.16347 z m -4.94177,-1.54278 c -0.3531,-0.42546 -0.18994,-1.194 0.25349,-1.194 0.15009,0 0.27288,0.16868 0.27288,0.37483 0,0.20615 0.14015,0.42154 0.31143,0.47864 0.32792,0.1093 0.0772,0.73403 -0.29464,0.73403 -0.11912,0 -0.36354,-0.17707 -0.54316,-0.3935 z m -6.93497,0.814 c 0.39296,-0.20529 1.06615,-0.74314 1.49597,-1.19521 0.66145,-0.69569 0.79803,-1.08144 0.88906,-2.511 0.13029,-2.04632 -0.27338,-3.39725 -1.19572,-4.00159 -0.91023,-0.59641 -3.257786,-0.41244 -5.766501,0.45191 l -1.852083,0.63811 -0.07759,2.0577 -0.07759,2.0577 1.460974,1.43782 c 1.416267,1.39381 1.506082,1.43781 2.935004,1.43781 0.810706,0 1.795526,-0.16796 2.188476,-0.37325 z m -3.890089,-2.10939 c -0.23422,-0.28222 -0.211357,-0.40142 0.0999,-0.52086 0.221993,-0.0852 0.403627,-0.36273 0.403627,-0.61676 0,-0.42372 0.03503,-0.42685 0.424068,-0.0378 0.27076,0.27076 0.35996,0.62604 0.24675,0.98274 -0.20321,0.64027 -0.73101,0.72687 -1.174341,0.19269 z m 53.089399,1.22587 c 0.57991,-0.5457 1.24876,-1.14571 1.48633,-1.33335 0.31086,-0.24551 0.43195,-0.77221 0.43195,-1.87874 0,-3.69037 -1.86862,-5.84989 -5.06189,-5.84989 -1.28543,0 -1.45485,0.0794 -2.50137,1.17157 -1.30726,1.36433 -1.83646,3.20013 -1.49278,5.17843 l 0.20684,1.19063 1.32598,0.16273 c 1.54565,0.18968 2.63697,0.70354 3.53445,1.66421 0.35279,0.37763 0.72573,0.6866 0.82877,0.6866 0.10303,0 0.66181,-0.44648 1.24172,-0.99219 z m -6.42157,-2.81549 c -0.44316,-0.67635 -0.28078,-1.48399 0.29837,-1.48399 0.20271,0 0.36857,0.23813 0.36857,0.52917 0,0.29104 0.17485,0.52917 0.38857,0.52917 0.4723,0 0.25938,0.69155 -0.27621,0.89708 -0.21485,0.0824 -0.54872,-0.11953 -0.7793,-0.47143 z m -0.94012,3.05048 c 0.42031,-0.78537 -0.21274,-1.41904 -1.31287,-1.31415 -0.99313,0.0947 -1.34255,0.73717 -0.77369,1.4226 0.46036,0.55471 1.76802,0.48674 2.08656,-0.10845 z m -67.132016,-1.5579 c 1.103863,-1.17984 1.534914,-2.29758 1.534914,-3.98015 0,-3.02183 -1.844667,-5.06811 -4.577201,-5.07748 -4.13359,-0.0142 -6.408266,5.13317 -3.844272,8.69915 0.411421,0.5722 0.567333,0.60352 2.248958,0.45169 1.350886,-0.12197 1.973821,-0.0649 2.468349,0.22625 0.958543,0.56428 1.403757,0.49871 2.169252,-0.31946 z m -5.409009,-1.52136 c 0.135398,-0.70828 0.460147,-0.87128 0.658931,-0.33073 0.176081,0.47881 -0.05533,0.99219 -0.447241,0.99219 -0.218008,0 -0.293214,-0.23499 -0.21169,-0.66146 z m 66.320005,1.55231 c 0.74018,0.0855 1.64344,0.18792 2.00724,0.22761 0.54644,0.0596 0.76783,-0.13487 1.27315,-1.11846 0.50723,-0.98729 0.59689,-1.5149 0.52501,-3.08944 -0.0754,-1.65273 -0.191,-2.02769 -0.89159,-2.89329 -1.21649,-1.50302 -2.05529,-2.01571 -3.52963,-2.15737 -1.63953,-0.15754 -2.67914,0.24028 -3.71702,1.42236 -0.98229,1.11876 -1.43316,2.74332 -1.19831,4.31768 0.27192,1.82285 0.79936,2.86132 1.74551,3.43671 0.79109,0.48109 0.91157,0.48906 1.6467,0.10891 0.56162,-0.29043 1.186,-0.36478 2.13894,-0.25471 z m 1.7749,-1.75819 c -0.35769,-0.3577 -0.39226,-0.98474 -0.0543,-0.98474 0.1334,0 0.35157,-0.32711 0.48484,-0.7269 l 0.2423,-0.7269 0.33141,0.61925 c 0.59158,1.10539 -0.22993,2.59362 -1.00426,1.81929 z"
       id="path3594" />
  </g>
</svg>
