<?xml version="1.0" encoding="UTF-8" standalone="no"?>
<!-- Created with Inkscape (http://www.inkscape.org/) -->

<svg
   width="210mm"
   height="297mm"
   viewBox="0 0 210 297"
   version="1.1"
   id="svg882"
   inkscape:version="1.1 (c68e22c387, 2021-05-23)"
   sodipodi:docname="affe4.svg"
   xmlns:inkscape="http://www.inkscape.org/namespaces/inkscape"
   xmlns:sodipodi="http://sodipodi.sourceforge.net/DTD/sodipodi-0.dtd"
   xmlns="http://www.w3.org/2000/svg"
   xmlns:svg="http://www.w3.org/2000/svg">
  <sodipodi:namedview
     id="namedview884"
     pagecolor="#ffffff"
     bordercolor="#666666"
     borderopacity="1.0"
     inkscape:pageshadow="2"
     inkscape:pageopacity="0.0"
     inkscape:pagecheckerboard="0"
     inkscape:document-units="mm"
     showgrid="false"
     inkscape:zoom="0.23496321"
     inkscape:cx="-285.15102"
     inkscape:cy="1406.6032"
     inkscape:window-width="1920"
     inkscape:window-height="1017"
     inkscape:window-x="-8"
     inkscape:window-y="-8"
     inkscape:window-maximized="1"
     inkscape:current-layer="layer2"
     inkscape:snap-global="false"
     showborder="false" />
  <defs
     id="defs879" />
  <g
     inkscape:groupmode="layer"
     id="layer2"
     inkscape:label="Ebene 2"
     style="display:inline">
    <path
       id="path1708"
       style="fill:#000000;fill-opacity:1;stroke:#0000ff;stroke-width:0.623622;stroke-linecap:butt;stroke-linejoin:miter;stroke-miterlimit:4;stroke-dasharray:none;stroke-opacity:1"
       d="m 422.65234,266.28516 c -85.56905,-0.17352 -173.47577,17.25334 -268.41796,58.73437 -19.21907,7.8895 -37.86808,18.06467 -51.16211,49.6543 -8.461702,21.31685 -15.01979,42.63433 -13.54102,63.95117 3.509189,7.63578 1.09074,25.57969 15.04687,15.04688 1.95732,0.79936 14.67982,-14.69475 0,11.28515 -24.43733,65.63788 3.70354,91.27172 23.32227,123.38867 85.97865,73.04742 143.10919,65.52642 225.33203,26.33203 1.35594,-0.64637 16.83219,-14.6059 26.61524,-34.65429 10.42034,-21.35433 15.14062,-48.85742 15.14062,-48.85742 2.91855,-26.92683 10.38855,-25.89981 20.31445,-9.78125 13.6712,21.09044 21.12943,43.42322 30.09375,65.45507 49.93108,67.14838 127.63247,49.27631 193.19336,11.65625 24.56742,-14.09729 44.66471,-29.37063 60.35157,-51.53125 20.83026,-38.62711 14.80693,-66.51294 6.01953,-93.29296 l -10.53321,-21.81836 c -1.88107,-7.14747 -2.52127,-13.88118 4.51368,-18.05664 11.80826,-8.00686 16.39194,-25.98957 21.02148,-43.2754 4.90885,-18.32854 13.16256,-34.83567 20.35742,-51.52148 2.76824,-7.95646 0.85359,-8.6284 -0.75195,-9.78125 -20.97861,-22.01957 -52.19396,-34.60556 -77.11719,-40.15625 -2.25316,-0.45751 -14.87373,-4.37764 -11.18945,7.33594 3.05646,5.66508 8.38622,10.02978 13.07226,14.76367 5.24928,3.98098 10.40591,7.93365 -0.7539,6.77148 -75.83063,-12.20239 -148.99607,-29.19418 -223.84375,-31.38086 -5.68521,-0.16609 -11.37938,-0.25601 -17.08399,-0.26757 z m -47.48632,69.14257 c 65.04877,0.0382 123.15959,15.61523 146.00586,27.7461 10.00361,4.90666 5.24224,8.68706 -2.11915,9.95312 -35.26892,16.12518 -77.10579,25.76288 -105.42382,65.50586 -6.00469,8.61808 -11.2779,7.33625 -17.29102,0.79688 -9.36756,-8.67659 -18.44021,-20.58455 -28.46094,-22.07617 -10.39083,-1.6554 -13.93966,1.42524 -15.16211,6.11718 -3.761,13.70529 -2.61823,31.44636 -3.35351,48.68164 -2.53346,12.82137 -0.78432,54.64631 -11.90625,23.96289 -13.72544,-39.59629 -44.50848,-121.23419 -118.77344,-110.20898 -16.75062,6.36117 -16.25782,-1.52129 -3.38476,-7.76953 47.31183,-32.10453 105.97158,-42.74066 159.86914,-42.70899 z m 236.13281,60.3125 c 1.8907,0.0314 4.47014,0.68112 7.41601,1.66211 36.97233,16.0071 45.2991,62.20696 29.79102,133.53125 -3.7369,8.72315 -7.53777,18.05812 -8.51172,0.53321 11.88117,-83.71015 -17.70475,-88.85397 -29.79297,-127.14844 -3.61739,-6.44433 -2.51187,-8.63803 1.09766,-8.57813 z"
       transform="scale(0.26458333)" />
    <path
       style="fill:#000000;fill-opacity:1;stroke:#0000fc;stroke-width:0.264583px;stroke-linecap:butt;stroke-linejoin:miter;stroke-opacity:1"
       d="m 17.716488,99.729892 c 1.977147,12.600288 3.525169,10.181198 4.976541,4.379358 L 28.266755,92.762733 C 42.400954,74.656569 109.00265,56.908405 179.95174,67.282842 c 10.72243,4.246395 3.73795,-4.15501 4.57842,-6.967159 C 175.73337,33.096425 158.74847,25.39109 136.95194,21.518251 116.54923,17.893067 99.758272,6.8788785 87.068878,19.214645 82.852166,23.313846 76.046409,25.74036 69.485271,27.193543 57.560353,29.834713 46.642073,35.979111 35.233914,41.404825 29.129651,48.065179 22.355842,48.253253 17.716488,69.074397 Z"
       id="path4953"
       sodipodi:nodetypes="cccccsssccc" />
    <path
       style="fill:#000000;fill-opacity:1;stroke:#0000fe;stroke-width:0.264583px;stroke-linecap:butt;stroke-linejoin:miter;stroke-opacity:1"
       d="m 74.249999,215.38472 c -0.0896,-0.9657 14.159386,-10.42434 15.626341,-10.74933 2.863332,-0.63435 0.529187,-4.28652 -0.497654,-4.1803 -6.074778,-1.4433 -9.032365,1.21497 -12.739947,2.8864 -1.354877,0.85286 -2.456013,2.1407 -2.886395,4.57841 -0.09243,2.03089 -0.230314,4.01634 -0.199062,6.17092 -0.08382,1.69553 0.254306,1.70329 0.696717,1.2939 z"
       id="path6436"
       sodipodi:nodetypes="csccccc" />
    <path
       style="fill:#000000;fill-opacity:1;stroke:#0000fe;stroke-width:0.264583px;stroke-linecap:butt;stroke-linejoin:miter;stroke-opacity:1"
       d="m 120.63137,203.29172 c 7.73698,-9.55909 15.64193,1.76636 16.32305,2.8864 0.39875,1.84644 0.67113,3.57225 -1.79155,2.68733 -3.09971,-1.05424 -6.31315,-2.06584 -11.49581,-2.33898 -3.5019,-0.19942 -4.03512,-1.44662 -3.03569,-3.23475 z"
       id="path7017"
       sodipodi:nodetypes="ccccc" />
    <path
       style="fill:#000000;fill-opacity:1;stroke:#0000fb;stroke-width:0.264583px;stroke-linecap:butt;stroke-linejoin:miter;stroke-opacity:1"
       d="m 110.77782,218.42041 c 2.74655,-2.48238 5.71711,-4.62875 9.25636,-5.92209 2.84996,-1.07285 4.85886,-0.2767 6.51927,1.2939 2.35079,1.41047 3.86918,8.35009 -0.1493,9.40567 -2.16258,0.56807 -6.80767,1.07725 -8.11176,0.99531 -1.68788,-0.0415 -3.03865,0.39863 -2.88639,2.98592 l -0.44789,4.62818 c -0.81667,1.71446 -1.44124,3.9668 -4.18029,0.2986 -1.78676,-2.47168 -2.01023,-4.94337 -2.53804,-7.41505 -0.0394,-2.449 0.23742,-4.45303 2.53804,-6.27044 z"
       id="path7408"
       sodipodi:nodetypes="cccscccccc" />
    <path
       style="fill:#000000;fill-opacity:1;stroke:#0000fd;stroke-width:0.264583px;stroke-linecap:butt;stroke-linejoin:miter;stroke-opacity:1"
       d="m 86.741118,216.82791 c 1.035586,-4.11949 3.955874,-3.23243 4.976543,-3.38405 3.720143,-0.55264 11.717009,4.21165 12.292059,5.87232 1.06552,1.66127 2.49324,1.99449 2.4385,7.76341 -0.41084,3.86998 -1.24675,7.56993 -3.63287,10.6498 -0.98024,0.8546 -3.441533,2.29431 -5.723026,0.49765 -1.371959,-2.41542 -0.721755,-3.87972 0.547421,-4.57841 0.696716,-0.91825 1.198107,-0.91887 1.542727,-2.38875 0.222681,-0.94978 0.225681,-3.36636 -0.09953,-4.82724 0.0094,-0.79312 -0.673588,-2.04332 -2.836627,-2.48827 l -6.967159,-0.99531 c -1.09777,-0.22755 -2.096114,-0.61418 -2.538037,-1.89109 -0.381966,-1.41002 -0.414015,-2.82004 -10e-7,-4.23006 z"
       id="path8268"
       sodipodi:nodetypes="cscccccsccccc" />
    <path
       style="fill:#000000;fill-opacity:1;stroke:#0000fd;stroke-width:0.264583px;stroke-linecap:butt;stroke-linejoin:miter;stroke-opacity:1"
       d="m 191.19873,117.24732 c -0.2943,-7.91114 2.20304,-17.772869 5.27513,-19.55781 0.81056,-0.47095 1.65498,-1.831532 2.55902,-2.090917 1.67564,-0.480765 3.31375,0.518747 3.61189,1.742559 5.10655,11.241338 4.09107,42.655648 -3.98123,64.396448 -2.44841,4.37064 -5.12569,1.50497 -6.27045,-0.69671 -1.20424,-12.9147 -1.75244,-28.85052 -1.19436,-43.79357 z"
       id="path10117"
       sodipodi:nodetypes="csscccc" />
    <path
       style="fill:#000000;fill-opacity:1;stroke:#0000fe;stroke-width:0.264583px;stroke-linecap:butt;stroke-linejoin:miter;stroke-opacity:1"
       d="m 4.636722,127.42361 c 0.3819863,-8.13475 1.0288448,-16.13707 2.5294976,-23.71249 0.1765108,-1.5047 0.8993423,-2.1509 2.3887401,-1.59249 2.9386043,0.22931 4.4686003,2.14894 6.5690343,3.38405 2.05475,1.73663 2.984239,3.66081 2.786864,5.77279 1.600879,12.32406 2.08528,24.48862 2.38874,36.62734 0.483679,1.14351 0.22149,2.00732 -0.796247,2.5878 -2.827831,1.45226 -5.387362,2.53205 -7.763405,3.78218 -1.696347,0.3784 -2.8137428,-0.30461 -3.3840479,-1.99062 -1.0839948,-2.20216 -1.5301229,-4.85995 -2.1896785,-7.36528 -0.2542863,-0.98979 -0.4982379,-1.77806 -0.6220675,-0.22394 l 0.92066,12.91412 c -4.3767324,2.68124 -8.9985181,4.38226 -13.6357235,6.02161 -2.5643509,0.66492 -2.9416488,-1.29146 -3.3591657,-2.18967 C -21.75949,129.69572 -18.658351,105.07095 -16.522118,88.184314 -11.531405,61.134299 0.86840341,39.472718 17.517426,20.901474 29.564435,11.265461 40.745225,1.4700487 55.78703,-6.6685655 c 2.47473,-0.6022602 4.706013,-1.1446702 6.668567,-5.0760725 1.273879,-5.820241 4.693552,-9.028211 9.007538,-11.147453 14.367017,-8.316977 31.344755,-10.134559 47.734855,-7.577496 5.40795,0.843709 9.64324,2.917589 15.16863,4.39251 3.97903,0.740633 6.50092,2.313917 6.7681,5.175603 1.63588,4.440722 2.7417,9.531966 7.16622,10.550268 29.01831,12.1564936 56.8541,27.500627 73.85187,72.06032 4.95505,14.76136 11.48771,31.720775 10.55027,54.741956 -2.22886,16.48687 -5.29072,32.33297 -10.94839,46.1823 -0.25403,0.68251 -0.90021,1.48561 -1.71014,1.24164 -2.68135,-0.28128 -5.65144,-1.04377 -8.04388,-0.84351 -2.6348,-0.55545 -2.79084,0.1875 -3.58311,0.59718 -1.06077,1.82272 -2.14297,3.64544 -3.57207,5.46816 -1.44056,0.94901 -3.02247,2.3423 -3.19603,-0.69067 2.17447,-8.19724 4.83176,-16.31401 5.97185,-24.68365 2.09978,-14.86327 0.70079,-29.72654 0.59718,-44.589814 0.66977,-3.464866 1.97707,-1.61694 3.18499,-0.597185 l 3.78217,10.152149 c 1.66643,3.11165 3.43015,0.99155 3.38405,-0.99531 1.61639,-11.376916 -2.13661,-26.19088 -7.40436,-37.850788 C 205.62293,57.573712 197.95269,49.582516 197.27011,48.571046 195.5417,46.009823 170.83267,19.870347 163.23056,15.128686 148.96785,3.4390855 118.36746,-4.3569601 107.29423,-1.7674047 106.58487,-1.6015155 99.415959,-0.93281676 91.491912,0.62990211 81.100882,2.67914 69.431069,6.4630741 68.746652,6.8747007 68.244654,7.1766159 60.126685,9.7888111 52.309065,14.806874 c -11.5223,7.396063 -24.04231,18.0383 -24.04231,18.0383 -15.257939,13.436364 -26.6858949,31.796993 -31.4517417,58.72319 -1.7332486,7.790459 -3.0979505,15.446906 -2.7868631,22.493966 1.7184856,5.18282 1.6804885,2.33601 2.1896782,1.99062 l 2.93969623,-9.3559 C 1.3780568,102.75494 2.5548823,103.5095 3.2795159,106.29893 Z"
       id="path14367"
       sodipodi:nodetypes="cccccccccccccccccccsccccccccccccccccsscssssccccccc" />
    <path
       style="fill:#000000;fill-opacity:1;stroke:#0000fc;stroke-width:0.264583px;stroke-linecap:butt;stroke-linejoin:miter;stroke-opacity:1"
       d="m 3.58311,195.27949 c -1.5265586,0.98586 -3.28174364,2.84811 -3.18498667,-2.38874 0.36443305,-1.87067 0.69757427,-3.7609 1.79155497,-5.17561 0.7214507,-1.72857 1.6447912,-3.03154 3.2905549,-4.39039 8.1511348,-5.31147 16.7658508,-9.51036 25.3743238,-13.72422 2.015151,-0.88156 3.629247,-1.2338 6.205066,-0.5268 8.022384,3.73247 15.306922,8.18538 21.078457,13.79356 2.387672,3.0331 4.147229,6.41721 3.371972,11.21783 0.498872,0.18141 -6.32683,26.79913 -6.68564,27.9742 -0.450323,1.47476 -0.666068,3.30952 -0.725268,5.17528 -0.20023,6.3104 5.148147,11.83046 6.334182,13.45406 7.232301,8.13705 16.746501,12.24275 26.766747,15.45443 l 4.813679,1.96847 c 1.387279,1.26539 3.077433,1.01639 3.864625,5.28221 0.211366,2.48888 0.559538,5.07352 -0.129718,6.93197 -0.228624,2.03166 -1.574249,2.71115 -3.583112,2.58778 C 77.17032,268.68924 68.012732,260.439 55.936326,254.20174 c -2.528923,-1.13102 -2.035689,0.42432 -1.240597,2.24798 5.242521,7.91932 10.384453,14.80402 16.38176,18.73342 6.287358,4.11944 13.131217,5.97909 20.291813,7.28536 23.013718,3.49986 34.426438,0.46116 46.709108,-2.67026 10.72783,-5.37731 26.07081,-12.7017 30.52682,-34.35521 0.28003,-1.05614 1.26108,-3.04114 -0.19906,-1.79156 -9.59075,10.90407 -20.67354,19.65298 -33.64143,25.67896 -0.48502,0.0808 -5.6943,0.76545 -7.7634,-1.39343 -2.15921,-2.2529 -2.1209,-7.49197 -1.99062,-7.56435 0.35992,-3.02061 2.37933,-4.1743 4.1803,-5.57373 14.09321,-8.14665 25.672,-18.32878 35.8311,-29.66018 -0.83947,-13.58388 -4.67516,-22.37096 -8.18568,-32.44705 -1.15746,-4.54107 -2.60676,-9.17333 -0.86456,-12.80826 3.55521,-7.53137 12.32467,-13.13154 20.79487,-18.84255 2.50991,-0.72928 5.22864,-2.29383 6.66357,1.27683 0.5119,1.369 0.43059,4.91313 0.39812,8.27813 0.93653,4.99588 3.6515,5.19668 5.81902,6.32374 6.22333,3.43052 12.12067,3.27517 17.97385,2.63404 5.55418,-1.14541 12.40908,-1.93608 16.124,-3.58311 1.63234,-0.21468 3.38077,-0.60879 3.01007,2.27213 -3.71752,4.5215 -8.34831,6.91203 -12.56503,10.26875 0.13215,2.64308 4.30711,9.13852 8.50472,14.16644 3.47651,4.16418 7.00049,7.26129 7.42021,7.53128 2.30932,1.4855 2.75971,5.17741 0.72586,4.32106 0.23633,0.64935 -5.304,0.50855 -7.09583,-1.13607 -4.48617,-4.11759 -7.96247,-10.74933 -7.96247,-10.74933 -6.18858,-5.93349 -14.44006,-9.87775 -25.87802,-10.74933 -2.14699,0.12324 -3.93682,0.38935 -2.38874,1.99062 -0.3784,2.39655 10.60606,12.23916 14.82509,12.43428 1.27521,0.059 4.56346,3.69234 3.38405,4.21652 -0.46939,3.0545 -1.1557,6.13792 1.09984,8.82909 4.13838,3.75124 8.46893,7.55738 11.34652,10.94839 0.81165,2.00967 2.47006,3.24315 1.19437,7.16622 -0.41571,0.85247 -0.51499,2.28507 -1.99062,1.19437 -7.23024,-5.04367 -12.49805,-10.74149 -18.71179,-16.12399 -0.84977,0.0963 -1.59356,-2.03279 -2.61195,1.60457 1.43734,9.68566 9.01202,20.70554 14.35658,31.2406 2.2706,3.3549 5.38825,5.01572 8.16153,7.36528 1.20255,1.64617 1.63439,3.30705 -1.06569,3.46651 -3.75826,0.82105 -7.89252,0.60087 -14.06299,-5.25806 -0.1757,-0.87188 -0.96006,-1.41664 -0.98935,-2.14818 -0.16413,-4.09973 -2.21417,-5.67048 -3.19095,-6.21241 -1.3206,-0.73269 -3.41134,-2.01184 -5.55968,-2.49351 -3.75702,-0.84233 -7.6902,-0.54944 -7.98859,0.0244 -2.01391,0.12125 -1.09867,1.0236 -0.38605,1.87193 9.49749,3.52497 12.95063,7.91341 11.94371,12.93901 -0.24821,1.10357 -1.32869,2.13148 0.32774,3.4082 -0.0417,0.45888 7.91686,6.17586 9.02815,6.54487 3.24513,1.07756 2.51831,5.21759 1.79156,5.97186 0,0 -2.74482,3.09483 -3.44235,3.64797 -2.02838,1.6085 -4.32253,0.61962 -4.12855,-1.45828 -0.52656,-2.53506 -0.6446,-5.27404 -4.66536,-6.67462 -1.00694,-0.16864 -3.42384,-1.71364 -4.97757,3.01559 -0.99966,6.38137 0.88242,11.70413 4.47388,16.39896 0.31798,1.12965 3.97209,4.70541 -0.53888,5.01276 -0.9806,0.50612 -3.89205,0.31931 -7.11301,-0.98969 -1.2623,-0.51299 -2.23357,-1.56405 -3.50764,-2.52407 -0.50839,-0.38308 -2.03253,-1.87315 -3.01746,-3.59451 -1.28374,-2.2436 -1.97113,-4.80635 -1.55992,-5.0707 0.16932,-2.12658 -1.61575,-3.33422 -3.60726,-2.96178 -3.64243,0.77135 -6.17602,2.58224 -8.3254,4.75332 -0.46489,1.08324 -1.74763,1.07599 -0.39812,4.57843 1.94445,4.85792 4.95452,9.36824 7.96246,12.19002 1.07955,1.61598 2.96249,4.51854 -0.56199,5.02382 -3.88148,-0.23653 -9.0541,-1.24566 -12.57607,-3.67765 -0.37985,0.66473 -3.12655,-2.94899 -3.38405,-5.17559 -0.63275,-5.47126 -0.0335,-8.17058 0,-12.14276 0.14952,-1.41208 0.16481,-2.41032 -0.79625,-0.39812 -2.80328,5.02882 -5.66319,10.0091 -9.75402,13.9343 -0.42262,0.7498 -1.50698,1.31053 -0.73795,2.40081 l 5.31637,9.3559 c 1.33363,1.50292 0.30583,3.76518 -1.7091,3.4082 -2.40368,-0.42585 -6.1724,-2.25446 -8.86481,-4.1764 -1.02186,-0.72944 -2.02974,-1.79293 -2.60039,-2.45196 -1.34067,-1.54832 -1.84797,-4.89151 -1.55627,-5.1525 0.54986,-5.84841 1.81961,-9.53717 2.78687,-14.13338 0.47523,-3.4059 -0.0637,-4.34885 -2.21279,-1.38136 -5.77356,13.40629 -4.57421,25.55746 -6.1478,38.20776 -0.63546,1.37304 -1.52024,2.69894 -2.5295,2.57677 -1.0811,0.89178 -1.97378,1.25236 -3.03924,1.87507 -3.95763,2.31304 -7.52647,4.0163 -12.39408,13.19428 -0.46979,1.12878 -2.66034,2.55864 -3.33678,-0.92493 -0.19108,-2.84523 0.3591,-4.94921 0.79625,-7.16621 1.29761,-4.85374 8.05064,-7.24939 8.63003,-7.51707 1.58735,-0.73339 4.93731,-2.61326 5.43866,-5.87614 0.36211,-2.35676 -0.35447,-4.08728 -1.79725,-6.91004 -0.54359,-1.06352 -21.8264,-26.67532 -21.8264,-26.67532 l 1.79155,8.3606 c 0.79147,4.33256 0.0444,6.23585 4.10992,15.73794 0.66949,3.60024 3.92417,6.03714 1.26475,11.13539 0.24275,1.65072 -3.97067,6.84326 -5.57373,1.99062 -0.85461,-2.587 -2.22973,-8.9519 -1.99062,-9.15686 -0.92496,-2.60683 -2.798089,-3.79142 -4.83578,-4.72916 -6.279224,-3.89486 -11.591129,-8.90152 -14.905476,-20.94979 -1.19647,-1.65338 -2.55177,-4.49797 -3.034226,-0.79624 0.825799,9.3575 3.31893,20.01182 2.471195,28.06769 0.01817,2.02415 -0.523211,3.92395 -2.189679,5.57374 -2.388739,0.83887 -4.777479,2.72197 -7.166218,2.38874 -4.583985,0.42379 -3.445687,-1.60484 -2.973851,-3.34783 l 3.172913,-5.01277 c 0.107961,-0.054 0.774812,-2.07943 -1.592493,-4.37936 -2.257473,-2.19323 -4.801631,-3.37198 -6.394126,-5.95976 -1.592492,-2.58781 -1.126062,-7.22868 -1.126062,-7.22868 l 1.16229,-14.21168 c 0.582777,-2.42713 -1.494821,-5.31193 -4.636723,-1.74536 0,0 -2.967664,13.07539 -3.53688,14.21586 -0.438393,0.87836 -2.208509,4.29649 -4.630595,5.40299 -0.743889,0.33984 -1.028927,0.67449 -2.535626,0.96698 -5.026721,0.97581 -2.765638,-5.09812 -1.990616,-5.17562 6.800972,-5.8961 7.210579,-13.61831 2.189678,-22.89209 -1.319947,-1.74912 -2.902333,-4.44958 -2.786864,-0.99531 l 0.02415,3.59519 c -0.886068,2.42357 -1.939277,1.67146 -3.010077,0.58512 -5.331357,-4.29597 -9.385345,-9.53317 -11.157455,-16.45174 -0.538293,-1.61639 0.387527,-5.62859 -1.980615,-4.25068 l -1.592493,1.59249 c -1.639778,1.10879 -3.001863,1.55112 -2.786864,-1.79155 -1.106206,-13.30246 -0.270272,-26.05003 -0.199061,-39.01609 0.0672,-1.16247 0.820974,-3.35478 -1.592493,-0.79624 -3.529154,4.70091 -7.242947,8.75558 -11.147453,12.14276 -1.415665,0.83189 -2.807218,1.61074 -2.38874,-1.59249 l 15.526809,-25.87802 c 0.657406,-0.49305 0.281997,-5.06703 -1.779479,-3.23122 -1.557248,1.38678 -13.659488,2.6132 -17.5295017,1.97855 -4.3925255,0.40271 -1.1404671,-2.61705 0.3981236,-2.78686 6.9136971,-4.62597 12.9131811,-10.77563 18.7117951,-17.26007 2.233086,-3.02818 -0.69582,-3.95334 -3.384048,-4.97654 -3.819524,-0.39725 -7.02354,0.16296 -9.156836,2.38874 z"
       id="path18292"
       sodipodi:nodetypes="ccccccccssccccccccscccccscccccccccccccsscscccscccccccccccsssccccscscccccssscccccccscccccssscccccscccsssccccscccccccccsscccsssccccccccccccccscccccc" />
  </g>
</svg>
