<?xml version="1.0" encoding="UTF-8" standalone="no"?>
<!-- Created with Inkscape (http://www.inkscape.org/) -->

<svg
   width="210mm"
   height="297mm"
   viewBox="0 0 210 297"
   version="1.1"
   id="svg5"
   inkscape:version="1.1 (c68e22c387, 2021-05-23)"
   sodipodi:docname="Affe-solo.svg"
   xmlns:inkscape="http://www.inkscape.org/namespaces/inkscape"
   xmlns:sodipodi="http://sodipodi.sourceforge.net/DTD/sodipodi-0.dtd"
   xmlns="http://www.w3.org/2000/svg"
   xmlns:svg="http://www.w3.org/2000/svg">
  <sodipodi:namedview
     id="namedview7"
     pagecolor="#ffffff"
     bordercolor="#666666"
     borderopacity="1.0"
     inkscape:pageshadow="2"
     inkscape:pageopacity="0.0"
     inkscape:pagecheckerboard="0"
     inkscape:document-units="mm"
     showgrid="false"
     inkscape:zoom="0.69397447"
     inkscape:cx="828.56074"
     inkscape:cy="439.49744"
     inkscape:window-width="1920"
     inkscape:window-height="1000"
     inkscape:window-x="-11"
     inkscape:window-y="-11"
     inkscape:window-maximized="1"
     inkscape:current-layer="layer1" />
  <defs
     id="defs2" />
  <g
     inkscape:label="Ebene 1"
     inkscape:groupmode="layer"
     id="layer1">
    <path
       style="fill:none;stroke:#000000;stroke-width:0.2;stroke-miterlimit:4;stroke-dasharray:none;stroke-opacity:1"
       d="m 97.658715,156.73058 c 0,-2.56221 1.01525,-4.09967 3.344185,-5.06435 3.73627,-1.54762 3.47913,-4.01565 -0.92111,-8.84102 -1.531415,-1.67938 -3.627995,-4.1221 -4.659065,-5.42827 -1.7757,-2.24948 -1.83781,-2.27402 -1.17641,-0.46473 0.38405,1.05057 0.69827,2.79688 0.69827,3.88068 0,1.08378 0.62157,3.16303 1.38126,4.62053 1.1694,2.24355 1.25554,2.92593 0.56161,4.44894 -1.10936,2.43477 -2.21037,1.87782 -2.6214,-1.32604 -0.24047,-1.87433 -0.7913,-2.86884 -1.89141,-3.41488 -2.69251,-1.33643 -4.66648,-3.63112 -5.49101,-6.38313 -1.23114,-4.10918 -2.41359,-4.28578 -1.84539,-0.2756 1.39375,9.8367 1.37578,10.22775 -0.52723,11.47465 -0.973257,0.63771 -2.262997,0.97011 -2.866107,0.73867 -1.00199,-0.3845 -0.99672,-0.57313 0.0612,-2.18767 1.13674,-1.73488 1.11843,-1.80277 -1.01089,-3.7476 -2.1599,-1.97277 -2.16667,-1.99992 -1.68741,-6.77213 0.44602,-4.44128 0.3889,-4.77375 -0.78157,-4.54978 -0.957,0.18313 -1.35472,1.04058 -1.64257,3.54128 -0.37334,3.24333 -1.7957,5.16654 -3.82107,5.16654 -1.2891,0 -1.0894,-1.15579 0.46895,-2.71413 1.62209,-1.62208 1.75531,-4.72556 0.32184,-7.49757 -1.19168,-2.30445 -1.85915,-2.59506 -1.55192,-0.67568 0.11675,0.72943 -0.092,1.39751 -0.46384,1.48462 -1.12663,0.2639 -5.09142,-5.50622 -5.09142,-7.40977 0,-1.38389 -0.18094,-1.59834 -0.81424,-0.96505 -0.44783,0.44783 -1.08277,0.81424 -1.41098,0.81424 -0.32822,0 -0.49615,-3.99597 -0.3732,-8.87993 l 0.22356,-8.87993 -2.71414,3.11791 c -4.31657,4.95875 -4.66367,3.61231 -0.64217,-2.49102 4.08167,-6.19468 4.5629,-7.73708 2.16887,-6.95162 -2.86666,0.94052 -7.29423,1.18589 -7.29423,0.40424 0,-0.41077 0.46741,-0.74686 1.0387,-0.74686 1.08939,0 7.78223,-6.512865 7.78223,-7.572955 0,-1.0811 -2.97495,-1.80611 -4.41046,-1.07486 -0.74639,0.38021 -2.21899,1.71816 -3.27244,2.97322 -1.05345,1.25506 -2.23158,2.28193 -2.61806,2.28193 -0.87237,0 -0.11166,-3.40402 1.01578,-4.54535 1.31081,-1.32697 10.73796,-6.31172 11.92365,-6.30482 1.73964,0.0101 7.93677,3.83243 9.56066,5.89688 1.68452,2.14152 1.63874,2.94958 -0.6685,11.799495 -1.45075,5.56463 -1.46796,5.93705 -0.3804,8.2289 1.60834,3.38933 6.08046,6.73565 11.238427,8.40929 4.28092,1.38905 4.41975,1.50635 4.62434,3.90701 0.14239,1.67085 -0.10405,2.59584 -0.75851,2.84698 -1.15625,0.4437 -7.755097,-2.65355 -12.266247,-5.75731 -1.77489,-1.22115 -3.40364,-2.04371 -3.61945,-1.82789 -0.49523,0.49522 2.6341,5.04749 5.08067,7.39089 6.452647,6.18056 25.015482,6.48925 33.211232,0.55228 3.4461,-2.49635 5.52439,-5.40348 6.73238,-9.41733 l 0.94799,-3.14991 -3.76918,3.82978 c -3.63213,3.69052 -9.53782,7.31805 -11.91394,7.31805 -1.09891,0 -1.95271,-1.80785 -1.97226,-4.17606 -0.005,-0.66079 1.55642,-2.00629 3.79635,-3.27042 2.09309,-1.18126 5.64915,-3.94054 7.90237,-6.13173 l 4.09676,-3.98399 -0.40215,-3.39556 c -0.22119,-1.86756 -1.19351,-5.37365 -2.16073,-7.791305 -1.92971,-4.82353 -1.82236,-6.54427 0.58063,-9.30635 2.05127,-2.3578 6.56618,-5.37073 8.0481,-5.37073 0.95849,0 1.20007,0.57953 1.2021,2.88376 0.003,2.78615 0.10776,2.92704 3.11053,4.16205 2.68007,1.10228 3.684,1.18072 7.29169,0.56974 2.30105,-0.38969 4.71806,-0.92125 5.37115,-1.18124 2.289,-0.91123 1.2319,1.40718 -1.39989,3.0702 l -2.58731,1.63491 1.62589,2.90903 c 0.89423,1.59996 2.69647,3.791485 4.00497,4.870055 1.54159,1.27072 2.10532,2.13024 1.6014,2.44168 -1.56677,0.96831 -3.8523,-0.34159 -5.39961,-3.09467 -1.10128,-1.959455 -2.42847,-3.176655 -4.37785,-4.015035 -3.44433,-1.48133 -7.88644,-2.31529 -7.88644,-1.4806 0,1.32413 2.95648,4.276495 5.23636,5.229095 2.1244,0.88763 2.3531,1.22014 2.01206,2.92535 -0.33115,1.65577 0.0353,2.27504 2.62947,4.44349 2.06097,1.72276 3.01425,3.04539 3.01425,4.18216 0,0.91441 -0.2359,1.66256 -0.52421,1.66256 -0.28831,0 -2.34936,-1.70229 -4.5801,-3.78288 -3.88996,-3.6281 -4.06448,-3.71344 -4.26576,-2.08577 -0.12808,1.03569 0.86359,3.59143 2.5445,6.55776 1.5149,2.67337 2.75436,5.12952 2.75436,5.45814 0,0.3286 0.91602,1.2747 2.0356,2.10245 1.11958,0.82774 2.03561,1.7529 2.03561,2.05591 0,0.30302 -0.91603,0.55093 -2.03561,0.55093 -2.10599,0 -4.74973,-2.01868 -4.74973,-3.62677 0,-1.62288 -2.41776,-3.15856 -4.9728,-3.15856 -3.14198,0 -3.19258,0.83078 -0.1183,1.94245 2.34203,0.84689 3.71437,3.22786 2.75509,4.78001 -0.23549,0.38104 0.80445,1.47091 2.31098,2.42194 2.99796,1.89253 3.12356,2.1667 1.79461,3.91737 -1.20055,1.58153 -2.44811,1.50725 -2.44811,-0.14577 0,-1.7642 -2.64539,-3.25896 -3.46857,-1.95989 -0.97604,1.54029 -0.66847,4.1946 0.75697,6.53253 1.73276,2.84198 1.72716,2.86736 -0.63182,2.86736 -2.1841,0 -4.79899,-2.63791 -4.79899,-4.84124 0,-1.64967 -2.08547,-1.65288 -4.11887,-0.006 -1.41766,1.14795 -1.47879,1.44344 -0.69171,3.34362 0.47486,1.14641 1.44616,2.61179 2.15845,3.2564 1.97101,1.78374 1.67792,3.11241 -0.5709,2.58814 -4.70797,-1.09757 -5.26968,-1.72566 -5.12001,-5.7251 l 0.13863,-3.70448 -1.0693,2.0356 c -0.58812,1.11958 -1.71462,2.74235 -2.50335,3.60616 l -1.43405,1.57057 1.53682,2.67026 c 1.31642,2.28734 1.37863,2.67028 0.43381,2.67028 -1.84865,0 -4.96954,-2.20803 -5.21647,-3.69066 -0.1281,-0.76909 0.15237,-2.75813 0.62327,-4.42009 0.4709,-1.66195 0.70962,-3.16829 0.53048,-3.34743 -1.22563,-1.22562 -3.10192,5.92361 -3.25924,12.4187 -0.0535,2.20766 -0.40257,4.11724 -0.77577,4.24352 -2.14577,0.7261 -5.20776,3.16237 -5.742605,4.56909 -0.92016,2.41999 -2.06054,2.8293 -2.06054,0.73935 z m -25.992587,-33.4003 c -0.17204,-0.6602 -0.32411,-0.28433 -0.33794,0.83525 -0.0138,1.11958 0.12693,1.65973 0.3128,1.20035 0.18586,-0.45939 0.19718,-1.37541 0.0251,-2.0356 z m 20.168187,-9.77404 c -0.29405,-0.47577 -0.17332,-0.96214 0.276,-1.11192 0.43927,-0.14642 0.79867,-1.13836 0.79867,-2.20431 0,-1.74979 -0.24723,-1.95856 -2.5445,-2.14869 -2.20562,-0.18255 -2.5445,-0.43651 -2.5445,-1.90693 0,-1.22682 0.40985,-1.75468 1.48077,-1.90714 2.15309,-0.30652 5.56103,1.68023 6.02018,3.50965 0.91155,3.63191 -1.91599,8.31068 -3.48662,5.76934 z m 5.1017,-3.07757 c -0.99314,-2.61215 -0.58388,-3.70635 2.0503,-5.48152 2.608525,-1.75788 3.935335,-1.75794 5.042275,-1.9e-4 1.17002,1.85788 -0.32225,3.60069 -2.90273,3.39008 -1.930985,-0.1576 -2.110075,6.8e-4 -2.110075,1.86597 0,2.52649 -1.15726,2.65206 -2.07977,0.22566 z m -14.205037,-7.63761 c 0,-1.72911 0.41478,-2.30469 2.313197,-3.209975 2.27833,-1.08646 4.47214,-0.9003 4.47214,0.379485 0,0.35976 -0.61233,0.84844 -1.36073,1.08598 -0.7484,0.23753 -2.2751,1.20127 -3.39267,2.14164 l -2.031937,1.70977 z m 23.748692,-0.73922 c -0.5598,-0.35553 -2.01017,-0.65108 -3.22304,-0.6568 -2.32792,-0.011 -2.73342,-0.56785 -1.391,-1.910275 1.16276,-1.16276 2.86872,-1.00688 4.63518,0.42351 1.69931,1.376015 1.68107,3.224625 -0.0212,2.143565 z M 73.647598,85.511035 c -8.64422,-3.55388 -12.29955,-10.649396 -8.92515,-17.324973 0.69426,-1.37344 0.8243,-2.016855 0.30847,-1.526246 -1.4429,1.372361 -1.97741,0.992355 -1.97741,-1.405828 0,-3.422284 1.95748,-8.442601 3.88219,-9.956577 2.02323,-1.591472 11.91887,-4.862535 19.328977,-6.38931 7.98855,-1.645957 18.981425,-1.41112 28.711765,0.61336 9.7165,2.0216 9.93277,2.029994 7.86154,0.305108 -0.89255,-0.743303 -1.42841,-1.545868 -1.1908,-1.783479 0.67016,-0.67017 5.96039,1.289886 7.83613,2.903331 l 1.68216,1.446934 -1.48636,3.576597 c -0.81751,1.967128 -1.48637,3.993888 -1.48637,4.503912 0,0.510024 -0.58505,1.512368 -1.30012,2.227432 -1.28113,1.281131 -1.28017,1.340411 0.0653,4.059757 2.07315,4.19021 1.23247,9.109396 -2.09895,12.282002 -3.47154,3.30602 -9.38346,6.11677 -13.83107,6.57581 -5.11609,0.52803 -9.6883,-1.5923 -11.096725,-5.146 -3.32328,-8.385226 -4.47149,-9.477043 -5.30333,-5.042916 -1.3465,7.177406 -3.5931,9.406036 -11.082047,10.993366 -4.83193,1.02417 -5.291,0.98185 -9.89816,-0.91228 z M 122.01383,73.280769 c 1.17085,-4.649861 -0.37807,-10.570019 -3.0886,-11.805022 -0.97042,-0.44215 -1.87643,-0.691869 -2.01338,-0.554929 -0.13694,0.136939 0.70549,2.011211 1.87206,4.165049 1.89132,3.491953 2.08172,4.349606 1.75805,7.919122 -0.41836,4.613676 0.34362,4.756446 1.47187,0.27578 z M 90.184455,67.677616 c 0.009,-3.665976 0.18009,-4.240835 1.2623,-4.240835 0.68854,0 1.80456,0.61068 2.48003,1.357067 1.53583,1.697069 2.50225,1.716885 3.52927,0.07237 0.9483,-1.51846 7.169915,-5.132866 9.969925,-5.791957 5.01493,-1.180462 -5.25864,-3.974451 -14.856265,-4.040293 -6.23742,-0.04279 -7.19627,0.133365 -11.874337,2.181506 -5.0899,2.228452 -8.00982,4.132595 -4.89075,3.189367 0.85542,-0.258685 2.76655,-0.265701 4.24694,-0.01559 2.2795,0.385119 3.10815,1.036424 5.412067,4.253808 1.51423,2.114597 2.90773,4.970251 3.14283,6.440504 0.61267,3.831436 1.5653,1.775296 1.57799,-3.40594 z M 134.0035,84.013245 c 1.88957,-6.02532 2.4739,-11.312496 2.07362,-18.762742 -0.30053,-5.59356 -0.19854,-7.281091 0.42744,-7.07243 0.45218,0.150727 1.08739,1.395598 1.41157,2.766379 0.33879,1.432538 1.00159,2.492329 1.55872,2.492329 0.78541,0 0.89033,-0.868879 0.55306,-4.580102 -0.61095,-6.722741 -1.94981,-10.826405 -5.14704,-15.775906 -3.17021,-4.907659 -12.96929,-14.939044 -17.9212,-18.346046 -3.92682,-2.701725 -11.54038,-5.39348 -16.64466,-5.884675 -4.134855,-0.397905 -12.532895,1.044408 -19.269372,3.309396 -8.89287,2.990029 -20.70923,12.924351 -24.68715,20.755128 -2.15619,4.244602 -4.64236,13.1129 -5.13504,18.316971 -0.49844,5.264976 0.39707,6.786842 1.42813,2.42704 0.32419,-1.370781 0.9652,-2.617587 1.42448,-2.770679 0.61905,-0.20635 0.86058,1.447554 0.93374,6.393897 l 0.0987,6.672244 0.50496,-6.653906 c 0.27772,-3.65965 0.69178,-6.840736 0.92012,-7.06908 0.6121,-0.612093 3.66518,1.186546 4.16374,2.452949 0.23645,0.60062 0.60186,4.496584 0.81201,8.657699 l 0.3821,7.565664 -2.14528,1.10936 c -2.38146,1.2315 -2.32299,1.28864 -3.42687,-3.34855 -0.57762,-2.426446 -0.61037,-2.282606 -0.309,1.35706 l 0.33709,4.07121 -2.44235,1.18743 c -1.3433,0.65309 -2.85364,1.18743 -3.35633,1.18743 -0.58491,0 -1.491,-2.2598 -2.51661,-6.27643 -2.23603,-8.756997 -2.22616,-20.981434 0.0229,-28.304863 2.86413,-9.326416 7.75017,-17.271637 14.48048,-23.546817 3.64651,-3.39992 11.79613,-8.955765 13.91876,-9.488849 0.99722,-0.250446 1.71322,-1.122321 2.06544,-2.515096 0.368,-1.455192 1.26443,-2.498571 2.82449,-3.287499 1.25697,-0.635652 2.464897,-1.4263765 2.684297,-1.7571645 0.2194,-0.330788 3.60498,-0.985037 7.52351,-1.453887 6.12355,-0.732678 7.55362,-0.708989 10.178005,0.168599 1.67937,0.561579 3.99513,1.2147 5.14611,1.45138 1.70017,0.34961 2.20926,0.8896575 2.71413,2.8791625 0.3418,1.346859 1.07945,2.680485 1.63924,2.963612 0.55979,0.283127 3.61319,1.730628 6.78534,3.216668 15.14687,7.095786 24.33068,20.708686 27.14078,40.230003 0.76062,5.283882 -0.45687,14.767725 -2.76351,21.526821 l -1.4631,4.2873 -2.46652,-0.41524 c -2.10891,-0.35503 -2.56489,-0.19597 -3.14505,1.09707 -0.37319,0.83177 -1.05248,1.63127 -1.50954,1.77666 -0.61607,0.19598 -0.56545,-0.58244 0.1957,-3.0095 z m -4.13336,-0.25109 c -0.24105,-0.39004 -0.51623,-5.50449 -0.61148,-11.365436 -0.15962,-9.821475 -0.062,-10.829659 1.24641,-12.869573 2.10296,-3.278717 3.35075,-2.585792 4.00174,2.222258 0.65381,4.828861 0.16519,11.656245 -1.29308,18.067741 -1.00429,4.41558 -2.18893,5.81329 -3.34359,3.94501 z M 60.763458,60.63783 c -0.6707,-3.353505 -0.48659,-13.572783 0.29525,-16.388171 1.61592,-5.818905 8.50372,-10.585607 20.17067,-13.959118 5.362267,-1.550509 7.311477,-2.439624 8.409987,-3.836163 1.61092,-2.047953 2.80988,-2.061696 10.733495,-0.123033 2.42576,0.593508 6.74602,1.589874 9.60059,2.214147 8.15062,1.782478 14.27639,7.296945 16.56934,14.915857 1.03449,3.437337 0.5216,4.080836 -2.14845,2.695593 -1.54907,-0.803664 -4.37693,-0.92346 -15.168,-0.642558 -17.930965,0.466759 -29.458012,2.358577 -38.089452,6.251238 -4.88624,2.203624 -6.9865,4.349855 -8.19107,8.370364 -0.95132,3.175218 -1.61707,3.32831 -2.18236,0.501844 z"
       id="path1188"
       sodipodi:nodetypes="sssssssssssssssssssssssssssscsssssssssssssssssssssscsscsscsssscsssscssssssssssssssssssssssssssssscsssscsscssssssscsscssccssssssssssssssssssscscsssccsssssssssscssscsssssssssssssssssssssssssscsssssssssssssscsssscssscssscssssssssssssscsssccssssssssssssssssss" />
  </g>
</svg>
