<?xml version="1.0" encoding="UTF-8" standalone="no"?>
<!-- Created with Inkscape (http://www.inkscape.org/) -->

<svg
   width="210mm"
   height="297mm"
   viewBox="0 0 210 297"
   version="1.1"
   id="svg8367"
   inkscape:version="1.1 (c68e22c387, 2021-05-23)"
   sodipodi:docname="BB-11.svg"
   xmlns:inkscape="http://www.inkscape.org/namespaces/inkscape"
   xmlns:sodipodi="http://sodipodi.sourceforge.net/DTD/sodipodi-0.dtd"
   xmlns="http://www.w3.org/2000/svg"
   xmlns:svg="http://www.w3.org/2000/svg">
  <sodipodi:namedview
     id="namedview8369"
     pagecolor="#ffffff"
     bordercolor="#666666"
     borderopacity="1.0"
     inkscape:pageshadow="2"
     inkscape:pageopacity="0.0"
     inkscape:pagecheckerboard="0"
     inkscape:document-units="mm"
     showgrid="false"
     inkscape:zoom="0.69397447"
     inkscape:cx="334.30625"
     inkscape:cy="561.25984"
     inkscape:window-width="1920"
     inkscape:window-height="1017"
     inkscape:window-x="-8"
     inkscape:window-y="-8"
     inkscape:window-maximized="1"
     inkscape:current-layer="layer1" />
  <defs
     id="defs8364" />
  <g
     inkscape:label="Ebene 1"
     inkscape:groupmode="layer"
     id="layer1">
    <path
       style="fill:#000000;stroke-width:1"
       d="M 107.59195,264.59245 C 98.632646,264.21 91.915555,262.74259 82.519894,259.1152 c -2.458392,-0.94911 -3.134051,-1.2487 -6.98464,-3.09707 -5.260627,-2.52522 -11.299865,-6.41392 -16.796467,-10.81537 -1.786554,-1.43058 -7.656348,-7.17199 -9.120809,-8.92129 -1.616278,-1.93065 -3.69122,-4.57391 -4.292404,-5.46806 -0.326136,-0.48507 -0.642742,-0.92163 -0.703566,-0.97013 -0.407608,-0.32507 -3.328582,-4.9584 -4.447995,-7.05556 -2.243395,-4.20285 -2.85581,-5.45289 -4.080104,-8.32813 -2.245843,-5.27433 -3.711707,-9.91327 -4.335554,-13.72048 -0.910106,-5.55419 -1.130764,-8.67916 -1.145862,-16.22778 -0.01539,-7.6935 0.07316,-8.97304 0.952132,-13.75833 0.739262,-4.02469 1.71205,-7.72425 2.829242,-10.75972 0.303497,-0.82462 0.614216,-1.69775 0.690487,-1.94028 0.07627,-0.24254 0.298343,-0.79816 0.493495,-1.23472 0.195151,-0.43657 0.58005,-1.30969 0.855331,-1.94028 0.578586,-1.32538 3.02401,-6.13455 3.318611,-6.52639 0.109411,-0.14552 0.351785,-0.5424 0.538611,-0.88194 0.802573,-1.45864 4.3926,-6.77291 5.34891,-7.91792 0.373612,-0.44733 0.926539,-1.17052 1.228724,-1.60708 0.302186,-0.43657 0.734205,-0.99219 0.960043,-1.23473 0.225838,-0.24253 0.939503,-1.07597 1.585925,-1.85208 1.241142,-1.49015 2.764241,-3.01743 3.492545,-3.50212 0.536914,-0.35732 1.372124,-0.37123 2.250237,-0.0375 0.874256,0.33228 3.15668,0.86988 5.780306,1.36147 1.711768,0.32074 2.740886,0.39656 5.379861,0.39636 3.384172,-1.8e-4 8.98917,-0.30256 11.288888,-0.60885 0.727604,-0.0969 2.275417,-0.25172 3.439583,-0.34402 2.969625,-0.23547 8.86404,-1.05211 12.611805,-1.74731 0.436562,-0.081 1.309687,-0.23563 1.940278,-0.34365 1.566007,-0.26828 6.674403,-1.57601 10.382793,-2.65796 l 3.06265,-0.89355 1.08249,0.85483 c 2.05429,1.62225 6.95692,5.28449 7.89892,5.90045 0.51957,0.33975 1.77811,1.19006 2.79676,1.88959 4.08211,2.80329 12.22259,7.27507 16.66875,9.1566 1.80859,0.76536 2.61244,1.11106 3.70416,1.593 1.70925,0.75456 10.89052,3.8875 11.39252,3.8875 0.17409,0 0.36558,0.0794 0.42554,0.17639 0.06,0.097 0.25396,0.17639 0.43112,0.17639 0.17717,0 0.70826,0.11837 1.18022,0.26304 1.31444,0.40292 7.24029,1.81396 8.53102,2.03137 0.63059,0.10622 1.78153,0.30197 2.55764,0.435 0.77611,0.13304 2.00642,0.32846 2.73402,0.43428 0.72761,0.10582 1.79917,0.2734 2.38125,0.37241 2.05047,0.34878 8.88372,0.92869 13.31736,1.1302 3.39695,0.15439 3.73962,0.21478 4.33275,0.76353 1.10457,1.02193 1.84481,2.68893 3.77663,8.50489 2.31174,6.95978 3.0814,11.20033 3.68166,20.28472 0.35883,5.43065 0.3933,7.78641 0.11521,7.87379 -0.097,0.0305 -0.53357,-0.71519 -0.97014,-1.65704 -2.38699,-5.14979 -6.34674,-8.88822 -11.14256,-10.51979 -3.0551,-1.03937 -5.76097,-1.18321 -9.96489,-0.5297 -2.98375,0.46382 -7.17497,1.91222 -10.22338,3.53297 -0.86113,0.45784 -1.88319,0.99748 -2.27125,1.1992 -1.73879,0.90388 -6.32112,4.10659 -8.20208,5.73267 -0.63059,0.54514 -1.52276,1.29153 -1.9826,1.65864 -0.45985,0.36712 -2.37244,2.19078 -4.25021,4.0526 -4.43288,4.39523 -6.7485,7.25029 -10.49892,12.94481 -3.52521,5.35254 -5.03872,8.16414 -7.32276,13.60325 -1.40599,3.34817 -2.83667,7.79629 -3.61293,11.23291 -1.80041,7.97076 -0.85603,18.75867 2.16999,24.78823 0.79145,1.577 1.47888,2.59459 2.70207,3.99981 0.52424,0.60224 0.899,1.18262 0.83282,1.2897 -0.18839,0.30482 -0.9307,0.54314 -2.55551,0.82042 -1.78093,0.30394 -15.88389,0.46054 -21.16667,0.23504 z M 82.585846,230.57682 c 2.099253,-0.40714 3.539424,-0.93258 5.779717,-2.10878 4.675781,-2.45486 9.238766,-6.06527 12.058387,-9.5411 3.25071,-4.00724 6.23688,-9.54453 7.8108,-14.48366 2.05257,-6.44116 2.60967,-13.65802 1.75649,-22.75417 -0.27136,-2.89319 -0.36661,-3.5768 -0.92164,-6.61458 -0.47509,-2.60027 -1.58737,-6.79786 -2.11036,-7.96416 -0.13708,-0.3057 -0.24923,-0.64413 -0.24923,-0.75205 0,-0.10792 -0.0774,-0.33405 -0.17196,-0.50251 -0.0946,-0.16846 -0.38098,-0.82222 -0.63645,-1.45281 -0.59928,-1.47924 -2.38633,-5.0095 -2.57451,-5.08588 -0.0797,-0.0323 -0.14486,-0.1375 -0.14486,-0.2337 0,-0.34677 -2.17199,-3.51441 -3.840393,-5.60086 -1.520933,-1.90202 -4.726709,-5.19452 -6.287406,-6.4575 -0.47706,-0.38606 -1.34175,-1.08783 -1.921537,-1.55949 -1.224574,-0.9962 -4.637673,-3.01921 -6.740161,-3.99502 -1.294615,-0.60086 -2.692719,-1.0964 -5.640364,-1.99913 -4.284311,-1.31209 -11.133271,-1.35585 -15.963194,-0.10197 -5.843834,1.51709 -12.9349,6.02543 -17.125488,10.888 -1.678289,1.94742 -2.107062,2.52994 -3.725593,5.06152 -2.331136,3.64619 -4.223877,7.76215 -5.231798,11.37708 -0.524002,1.87935 -1.557924,7.19263 -1.784841,9.17223 -0.105644,0.92163 -0.268313,2.2544 -0.361485,2.96172 -0.40653,3.08615 -0.09177,9.11041 0.712494,13.6367 0.560744,3.15577 2.220004,8.61822 3.744806,12.32828 0.979375,2.38294 3.043194,6.22016 4.549515,8.4588 4.775767,7.09759 9.773323,11.53781 16.752946,14.88466 6.294977,3.01856 5.936077,2.94566 14.11111,2.86632 5.455449,-0.0529 6.5056,-0.10806 8.155005,-0.42794 z M 63.847509,218.0318 c -1.93714,-0.46489 -3.972357,-1.08059 -5.606532,-1.69609 l -0.755838,-0.28467 0.02577,-5.05423 c 0.01418,-2.77982 -0.03297,-5.37173 -0.104779,-5.75978 -0.197509,-1.06744 -0.589371,-1.60613 -1.54781,-2.12778 -0.785958,-0.42776 -0.935918,-0.45405 -1.546728,-0.27104 -0.871306,0.26105 -1.901793,1.33376 -2.938099,3.05847 -0.969352,1.61329 -1.62972,2.29486 -2.223498,2.29486 -0.56252,0 -1.561098,-0.91703 -2.237999,-2.05523 -0.294145,-0.49461 -0.781592,-1.29616 -1.083217,-1.78123 -2.137911,-3.43817 -3.265697,-5.94864 -4.437404,-9.87778 -1.67249,-5.60842 -1.9427,-7.61965 -1.832056,-13.63641 0.09321,-5.0687 0.255876,-6.36534 0.89172,-7.10795 0.505001,-0.5898 1.389489,-0.35183 3.933609,1.05832 1.297451,0.71914 2.472454,1.25341 2.75663,1.25341 0.948634,0 1.769068,-1.48649 2.243238,-4.06438 0.264135,-1.436 -0.229434,-3.12083 -1.952427,-6.6647 -2.01141,-4.13709 -2.0264,-4.17803 -1.706677,-4.66193 0.60102,-0.90964 3.034375,-3.53519 4.354651,-4.6986 2.752526,-2.42549 5.502681,-3.95584 9.011641,-5.01461 3.009216,-0.90799 5.440299,-1.24267 8.107189,-1.1161 3.362323,0.15957 5.622039,0.6742 8.554861,1.94829 1.837051,0.79805 1.869366,0.98757 0.595457,3.49218 -0.508586,0.99992 -1.057908,2.01648 -1.220719,2.25901 -0.269645,0.40169 -1.187169,1.93648 -2.260834,3.78181 -0.229159,0.39386 -0.685835,1.17723 -1.014838,1.74082 -0.479381,0.8212 -0.561652,1.09297 -0.414242,1.36841 0.334093,0.62425 3.860893,3.16313 4.393969,3.16313 0.188196,0 0.450908,-0.15524 0.583803,-0.34497 0.367317,-0.52442 8.794444,-9.18169 8.924868,-9.1686 0.201422,0.0202 2.89903,3.28811 3.661034,4.435 1.082924,1.62991 3.125992,5.82357 3.677242,7.54801 0.263605,0.82462 0.541652,1.62098 0.617884,1.76968 0.07623,0.14871 0.197546,0.54558 0.269592,0.88195 0.07205,0.33636 0.18958,0.69094 0.261186,0.78796 0.07161,0.097 0.21541,0.49389 0.319561,0.88194 0.10415,0.38806 0.317096,1.14212 0.47321,1.6757 0.971222,3.31949 1.191347,5.62677 1.102247,11.55347 -0.08329,5.53988 -0.268818,7.19035 -0.992085,8.8254 -0.568282,1.28471 -0.738508,1.29636 -3.689501,0.25226 -1.423309,-0.50358 -3.553367,-1.30387 -4.733461,-1.77841 -1.180096,-0.47456 -2.672703,-1.00108 -3.316903,-1.17004 -1.153583,-0.30256 -1.181121,-0.30155 -1.823124,0.0662 -0.481959,0.2761 -0.828731,0.71266 -1.330543,1.67511 -0.835083,1.60161 -0.805699,2.38587 0.137072,3.65834 0.673364,0.90884 2.741361,2.98196 4.013106,4.02301 1.562049,1.27871 4.114493,3.45579 4.86562,4.15009 l 0.752378,0.69547 -0.311406,0.52975 c -0.420442,0.71524 -1.617316,2.09555 -3.12309,3.60174 -2.877949,2.87873 -7.248034,5.05946 -12.167388,6.07165 -1.388978,0.28579 -2.35703,0.35215 -4.928192,0.33777 -2.84843,-0.0159 -3.422359,-0.0713 -5.228152,-0.5047 z m 81.315271,41.45114 c -0.8552,-0.16575 -1.57816,-0.5779 -2.22796,-1.27011 -0.88957,-0.94764 -2.29545,-3.02838 -3.05996,-4.5288 -1.14485,-2.24691 -0.92677,-3.91897 0.65672,-5.03511 0.42419,-0.29901 2.21522,-1.30499 3.98005,-2.23555 3.41787,-1.80213 5.08913,-2.88556 6.36709,-4.12761 1.19105,-1.15756 1.38434,-2.41527 0.40849,-2.658 -0.59789,-0.14871 -4.28906,0.36857 -7.53554,1.05602 -4.63481,0.98145 -5.46805,0.8496 -5.46805,-0.86522 0,-2.64895 3.13091,-12.01418 5.81422,-17.39157 1.65364,-3.31391 6.27609,-9.68437 9.39632,-12.94959 1.72963,-1.81 2.07691,-2.0943 2.55821,-2.0943 0.30629,0 0.69059,0.11094 0.854,0.24657 0.49366,0.4097 2.21861,2.78077 3.51668,4.83394 0.67282,1.06419 1.53251,2.23497 1.91043,2.60173 0.59948,0.58177 0.79415,0.66682 1.52625,0.66682 0.46153,0 1.1068,-0.11311 1.43394,-0.25139 0.69743,-0.29474 2.44049,-1.74259 2.74932,-2.28367 0.47136,-0.82585 0.2056,-3.09358 -0.93284,-7.96007 -1.01063,-4.32016 -1.1863,-6.17608 -0.63205,-6.67768 0.64423,-0.58302 4.90564,-2.06012 8.22982,-2.85263 3.856,-0.91931 7.21781,-0.44279 11.10512,1.57409 1.86587,0.96808 3.15544,2.05075 3.64348,3.0589 0.31663,0.65407 0.36425,0.98554 0.2822,1.96418 -0.11941,1.42441 -0.51778,2.61821 -2.06771,6.19633 -1.24955,2.88465 -2.11528,5.53309 -2.11522,6.47081 7e-5,0.87662 0.29064,1.46669 0.72225,1.46669 0.40489,0 1.78113,-1.3295 5.24944,-5.07118 1.20375,-1.29863 2.13627,-2.16076 2.33716,-2.16076 0.18384,0 0.33425,0.022 0.33425,0.049 0,0.16492 -0.99309,3.04385 -1.42527,4.1318 -0.66524,1.67464 -4.12008,8.74341 -5.5,11.25324 -4.02047,7.31256 -6.81747,11.14984 -12.38931,16.99722 -6.1589,6.46346 -15.42593,12.76814 -24.25347,16.5005 -3.37903,1.42868 -4.11022,1.60859 -5.46806,1.34542 z m 25.57639,-118.71769 c -2.66788,-0.0649 -5.02185,-0.17339 -5.23104,-0.24118 -0.2092,-0.0678 -1.08232,-0.23796 -1.94028,-0.37816 -3.46287,-0.5659 -4.68125,-0.82952 -8.52729,-1.84504 -1.5657,-0.41341 -2.64595,-0.76657 -2.64717,-0.86542 -7e-4,-0.0595 -0.0829,-0.61052 -0.18248,-1.22452 -0.0996,-0.61401 -0.25764,-1.71958 -0.35111,-2.45683 -0.39644,-3.12684 -1.10701,-5.22184 -2.32389,-6.85171 -1.0901,-1.46005 -1.85024,-1.67771 -3.84396,-1.10069 -1.2834,0.37144 -2.22601,1.64324 -3.60309,4.86141 -0.50197,1.17307 -0.9685,2.01749 -1.14572,2.07374 -0.49246,0.1563 -4.16716,-1.53437 -5.97566,-2.7493 -0.41717,-0.28025 -0.83389,-0.50955 -0.92604,-0.50955 -0.0922,0 -0.16755,-0.0794 -0.16755,-0.17639 0,-0.097 -0.0952,-0.17639 -0.2115,-0.17639 -0.64223,0 -9.60603,-6.41095 -10.5368,-7.53597 -0.79444,-0.96024 -0.674,-1.29581 0.62465,-1.74035 1.65345,-0.56599 2.94238,-1.4158 7.1279,-4.69954 1.86014,-1.45937 3.88345,-2.85869 4.56408,-3.15652 1.24133,-0.54319 2.44167,-0.45636 4.97309,0.35975 1.22094,0.39362 3.04656,1.07865 4.05695,1.52229 1.01038,0.44364 2.15455,0.92899 2.54261,1.07856 0.38805,0.14956 1.43775,0.62127 2.33265,1.04825 0.89491,0.42697 1.66783,0.77631 1.7176,0.77631 0.0777,0 3.22911,1.87539 4.22752,2.51577 1.3662,0.8763 5.9505,3.98051 6.4507,4.36803 0.33955,0.26305 1.56986,1.18255 2.73402,2.04332 1.95706,1.44703 3.75651,2.90645 6.6093,5.36038 1.51734,1.30519 4.86329,4.64369 5.74628,5.73348 0.39265,0.4846 1.10702,1.45834 1.5875,2.16386 0.48047,0.70552 0.98249,1.43974 1.11559,1.6316 0.27779,0.40042 0.48325,0.39643 -8.79686,0.17081 z M 49.824593,128.06184 c -3.756124,-0.30304 -5.404402,-0.62288 -4.880033,-0.94696 0.201877,-0.12476 4.370248,-0.75742 5.938366,-0.9013 0.679097,-0.0623 3.02066,-0.3009 5.203472,-0.53022 2.182812,-0.22932 5.199062,-0.50441 6.702777,-0.61131 2.759326,-0.19617 5.700203,-0.50714 9.260416,-0.9792 1.067153,-0.1415 2.614965,-0.34231 3.439584,-0.44624 0.824618,-0.10393 1.816805,-0.25972 2.20486,-0.3462 0.388056,-0.0865 2.015243,-0.40464 3.615972,-0.70703 1.60073,-0.3024 3.902604,-0.78504 5.115278,-1.07254 1.212673,-0.28751 2.720798,-0.64488 3.351389,-0.79417 2.120009,-0.50188 8.814459,-2.55358 10.847916,-3.32464 0.58208,-0.22072 1.81239,-0.6848 2.73403,-1.03129 1.71158,-0.64348 4.47867,-1.78916 6.52082,-2.69989 3.07089,-1.36949 11.50662,-5.77573 13.37945,-6.98849 0.25995,-0.16834 0.65829,-0.38734 0.88519,-0.48667 0.2269,-0.0993 0.9636,-0.53707 1.6371,-0.97276 0.6735,-0.43568 1.25046,-0.79215 1.28212,-0.79215 0.0317,0 1.59684,-0.92394 3.47818,-2.0532 3.72993,-2.23887 4.97328,-2.881323 5.58137,-2.883964 0.3355,-0.0014 0.39688,0.09274 0.39688,0.609094 0,0.50486 -0.16065,0.76711 -0.92604,1.5118 -0.97582,0.9494 -2.92012,2.38833 -4.98299,3.68777 -0.6791,0.42777 -1.6316,1.03155 -2.11667,1.34172 -1.85665,1.18721 -3.93257,2.42608 -7.32014,4.36852 -0.72617,0.41639 -6.13437,3.11505 -8.29027,4.13681 -5.64006,2.673 -15.936663,6.23587 -24.16528,8.36176 -1.115659,0.28823 -2.465034,0.63883 -2.998611,0.7791 -1.299633,0.34167 -3.168482,0.76105 -4.674305,1.04897 -0.679097,0.12984 -1.830034,0.36627 -2.557639,0.52541 -2.412458,0.52762 -7.220297,1.25951 -13.405554,2.04071 -1.843656,0.23285 -12.905138,0.34635 -15.257638,0.15656 z m -8.185557,-6.40324 c -0.45822,-0.12162 -0.909595,-0.38729 -1.099732,-0.64727 -0.472172,-0.64561 -1.86177,-4.70167 -2.447437,-7.14375 -0.781923,-3.26042 -1.080419,-5.53474 -1.180665,-8.99583 -0.185523,-6.405292 0.69092,-12.305996 2.625291,-17.674925 1.18506,-3.289183 1.488999,-3.542128 3.854003,-3.207397 2.216512,0.313713 14.397831,-0.0466 17.831416,-0.527445 3.106138,-0.434986 3.720211,-0.754417 4.398635,-2.288104 0.899773,-2.034091 0.07307,-2.424852 -4.154288,-1.963625 -8.496421,0.927008 -13.111187,1.060542 -14.728472,0.426191 -1.089774,-0.427445 -1.757306,-0.918159 -1.954484,-1.436776 -0.211139,-0.555339 0.41579,-1.769752 1.47924,-2.865411 l 0.736621,-0.758932 1.32452,0.106403 c 0.747594,0.06006 1.747086,0.281299 2.294659,0.507936 0.903673,0.374024 1.21183,0.400599 4.497916,0.387901 4.858506,-0.01878 7.916134,-0.468101 14.993055,-2.203263 4.759746,-1.167025 11.836203,-3.502743 16.139582,-5.327174 2.716671,-1.151742 6.971312,-3.221997 7.87494,-3.831849 0.43219,-0.291682 0.820316,-0.530331 0.862503,-0.530331 0.185368,0 2.012055,-1.185647 2.816029,-1.8278 1.68887,-1.348943 2.590582,-2.324114 3.121372,-3.375672 0.29382,-0.582084 0.65666,-1.19724 0.80633,-1.367014 0.37272,-0.422811 1.16392,-0.388391 2.70846,0.117828 2.84022,0.930874 3.43064,1.348547 3.25733,2.304295 -0.22973,1.266899 -3.01181,3.936239 -6.10113,5.853902 -1.52853,0.948815 -6.221751,3.401203 -9.172144,4.792795 -2.679326,1.263738 -3.880635,1.930289 -3.880635,2.153183 0,0.455967 0.472439,1.036524 1.202184,1.477306 0.747533,0.451527 0.933639,0.489282 1.979568,0.401595 1.949068,-0.163403 5.77702,-1.737323 9.979097,-4.103058 3.34546,-1.883461 5.56426,-3.41086 8.95077,-6.161602 0.95628,-0.776757 2.02214,-1.630567 2.36857,-1.897355 0.64866,-0.499532 1.16973,-0.617809 1.36067,-0.308857 0.1515,0.245119 2.74599,2.389697 4.23345,3.499315 2.84045,2.118934 4.62575,3.825385 6.85788,6.555028 2.22099,2.716014 3.03949,3.876802 4.74865,6.734469 3.11694,5.211459 4.2466,8.563356 4.60906,13.675854 l 0.12516,1.765407 -0.67385,0.522397 c -0.37062,0.28732 -1.94385,1.296647 -3.49607,2.242949 -1.55222,0.946301 -3.49691,2.140257 -4.32153,2.653234 -2.97606,1.851342 -5.52706,3.312892 -7.46343,4.276022 -1.08535,0.53985 -2.33056,1.18939 -2.76712,1.44342 -0.85772,0.49911 -5.05751,2.49585 -6.35,3.01903 -0.43657,0.17672 -1.30969,0.55817 -1.94028,0.84767 -1.81791,0.83461 -7.00063,2.95532 -8.643057,3.53666 -0.824618,0.29187 -2.412118,0.85942 -3.527778,1.26123 -6.281125,2.26217 -12.523885,4.02437 -16.580554,4.68036 -9.268652,1.4988 -15.33506,2.27718 -21.960415,2.81773 -1.843264,0.15039 -4.276685,0.35097 -5.407602,0.44572 -2.809783,0.23543 -9.211974,0.19621 -10.186288,-0.0624 z m 69.084514,-19.41253 c 1.87286,-0.35717 3.10888,-1.03111 4.58532,-2.500163 1.52043,-1.51283 2.28981,-2.985551 2.56781,-4.915279 0.20475,-1.42121 0.0144,-3.547017 -0.46556,-5.200303 -0.68071,-2.344633 -2.58587,-5.375366 -3.96198,-6.302727 -0.31461,-0.212016 -1.14603,-0.483726 -1.84759,-0.603801 -1.08132,-0.185071 -1.53052,-0.174711 -2.94975,0.06803 -3.67903,0.629251 -5.68928,2.425218 -7.06312,6.310221 -0.452,1.278182 -0.52312,1.729605 -0.52312,3.320316 0,1.012555 0.0758,2.08477 0.16848,2.3827 0.0927,0.297929 0.29744,0.978252 0.45506,1.511829 0.68558,2.320939 2.17661,4.434937 3.69799,5.243057 1.75321,0.93127 3.1257,1.10774 5.33646,0.68612 z m -27.032293,-2.21109 c 2.462677,-0.787298 4.179713,-1.838748 5.832888,-3.571856 3.071659,-3.220176 4.313851,-6.298552 4.068732,-10.083057 -0.161664,-2.495993 -0.828465,-4.32415 -2.4554,-6.731924 -1.640503,-2.427855 -3.592107,-3.929733 -6.250647,-4.810254 -2.254088,-0.746562 -5.87106,-0.567459 -8.259032,0.40897 -2.925513,1.196227 -4.020197,1.93584 -5.749466,3.884577 -3.683082,4.150516 -4.516867,9.908221 -2.131056,14.716012 1.197349,2.41285 4.354039,5.212548 6.694716,5.937603 2.711263,0.839849 6.084295,0.942039 8.249265,0.249929 z M 57.266487,66.66641 c -0.996212,-0.234384 -1.357215,-0.479066 -1.350135,-0.915097 0.01214,-0.746869 1.089148,-1.67872 3.345046,-2.894168 2.848174,-1.53456 5.068007,-2.780993 5.953124,-3.342668 0.774434,-0.491439 0.926042,-0.672682 0.926042,-1.107052 0,-0.481616 -0.708739,-4.75092 -1.334678,-8.039837 -0.147708,-0.776111 -0.335353,-1.887361 -0.416991,-2.469444 -0.139451,-0.994305 -0.338091,-2.167554 -0.716738,-4.233334 -0.08891,-0.485069 -0.207998,-1.358194 -0.26464,-1.940277 l -0.102985,-1.058334 0.28605,0.617361 c 0.493334,1.06473 3.12129,8.541637 4.246762,12.082639 0.810053,2.548624 1.316364,3.154138 2.781351,3.326319 1.344482,0.158018 3.434838,-0.407226 4.055923,-1.096742 0.522943,-0.580561 0.344969,-1.623686 -1.328394,-7.785827 -0.197585,-0.727604 -0.422111,-1.561042 -0.498947,-1.852083 -0.634526,-2.403456 -1.116482,-4.182089 -1.31439,-4.850695 -0.129223,-0.436562 -0.373948,-1.309687 -0.543836,-1.940277 -0.299824,-1.112894 -0.699466,-2.506176 -1.821402,-6.35 -1.281086,-4.389082 -3.207287,-11.409505 -3.667412,-13.366611 -0.207606,-0.883041 -0.24499,-1.34085 -0.11972,-1.466119 0.189683,-0.189684 0.702426,1.251017 2.516774,7.071619 0.498966,1.600729 1.0183,3.227916 1.154079,3.615972 0.135777,0.388056 0.532961,1.697743 0.882629,2.910417 0.787566,2.731334 0.854234,2.951786 1.386905,4.586111 0.237146,0.727604 0.60324,1.918229 0.813541,2.645833 0.210301,0.727604 0.449929,1.521354 0.532507,1.763889 0.08258,0.242535 0.321365,1.036284 0.530638,1.763889 0.209273,0.727604 0.739098,2.473854 1.177389,3.880555 0.438289,1.406701 0.865993,2.795764 0.950454,3.086806 0.642367,2.213543 1.302233,4.023081 1.609502,4.413708 0.665336,0.845838 0.917087,0.877958 6.881373,0.877958 4.882568,0 5.628943,0.03572 5.8752,0.281154 0.44628,0.444789 0.158422,1.098982 -0.990854,2.251828 -3.127043,3.136758 -18.06477,8.697372 -25.646895,9.547135 -1.897414,0.21265 -4.853005,0.20518 -5.787272,-0.01462 z"
       id="path8458"
       sodipodi:nodetypes="ssssssssssssssssssssssssscssssscsssssssssssssssssscsssssssssssssssssssssssssscsssssssssssssssssssscssssssssssssssssssssssssssssssssssssssssssssscsssssssssssssssssssssscsssssssssssssssssssssssssssssssssssssssssssssssssssssssssssssssssssssscsssssssssssssssssssssssscssssssssssssssssssssssssscssssssssssssssssscsssssscssssssssssssssssssssscsssssssssssssssssssssssssss" />
    <rect
       style="fill:none;fill-opacity:0.0575539;stroke:#000000;stroke-width:0.104;stroke-linecap:round;stroke-miterlimit:4;stroke-dasharray:none"
       id="rect8698"
       width="186.81644"
       height="264.21182"
       x="19.44416"
       y="9.5314503" />
  </g>
</svg>
