<?xml version="1.0" encoding="UTF-8" standalone="no"?>
<!-- Created with Inkscape (http://www.inkscape.org/) -->

<svg
   width="210mm"
   height="297mm"
   viewBox="0 0 210 297"
   version="1.1"
   id="svg6328"
   inkscape:version="1.1 (c68e22c387, 2021-05-23)"
   sodipodi:docname="DarthVader3.svg"
   xmlns:inkscape="http://www.inkscape.org/namespaces/inkscape"
   xmlns:sodipodi="http://sodipodi.sourceforge.net/DTD/sodipodi-0.dtd"
   xmlns="http://www.w3.org/2000/svg"
   xmlns:svg="http://www.w3.org/2000/svg">
  <sodipodi:namedview
     id="namedview6330"
     pagecolor="#ffffff"
     bordercolor="#666666"
     borderopacity="1.0"
     inkscape:pageshadow="2"
     inkscape:pageopacity="0.0"
     inkscape:pagecheckerboard="0"
     inkscape:document-units="mm"
     showgrid="false"
     inkscape:zoom="0.69397447"
     inkscape:cx="334.30625"
     inkscape:cy="561.25984"
     inkscape:window-width="1920"
     inkscape:window-height="1017"
     inkscape:window-x="-8"
     inkscape:window-y="-8"
     inkscape:window-maximized="1"
     inkscape:current-layer="layer1" />
  <defs
     id="defs6325" />
  <g
     inkscape:label="Ebene 1"
     inkscape:groupmode="layer"
     id="layer1">
    <path
       style="fill:none;stroke-width:0.2;stroke:#000000;stroke-opacity:1;stroke-miterlimit:4;stroke-dasharray:none"
       d="m 94.524608,187.74322 c -0.19403,-0.0477 -0.43216,-0.14767 -0.52917,-0.22217 -0.097,-0.0745 -0.73201,-0.43634 -1.41111,-0.8041 -1.43032,-0.77457 -7.752343,-4.5481 -9.436807,-5.6327 -0.630591,-0.40603 -1.265591,-0.78704 -1.411111,-0.84669 -0.586934,-0.24059 -3.243146,-2.19089 -3.489789,-2.56236 l -0.264137,-0.39781 6.066199,0.10536 c 3.336411,0.0579 6.163615,0.13642 6.282685,0.17439 0.11906,0.038 4.40531,0.0877 9.525,0.11058 5.119682,0.0229 9.923672,0.072 10.675532,0.1092 1.31003,0.0648 1.36701,0.0854 1.36701,0.49468 0,0.23487 -0.0836,0.42704 -0.18577,0.42704 -0.10218,0 -0.73296,0.35719 -1.40173,0.79375 -0.66877,0.43656 -1.25588,0.79375 -1.30468,0.79375 -0.0488,0 -0.44158,0.23812 -0.87282,0.52916 -0.43124,0.29105 -0.85987,0.52917 -0.95252,0.52917 -0.0926,0 -0.49104,0.23369 -0.88533,0.51932 -0.3943,0.28562 -1.14043,0.74763 -1.65807,1.02668 -1.65741,0.89347 -3.02103,1.66411 -4.49344,2.53944 -0.789582,0.4694 -1.485692,0.85345 -1.546902,0.85345 -0.0612,0 -0.40738,0.18302 -0.76926,0.4067 -0.64473,0.39853 -2.60428,1.20072 -2.83441,1.16034 -0.0641,-0.0112 -0.27535,-0.0595 -0.46937,-0.10718 z m 23.952382,-11.7076 c -0.30339,-0.30577 0.48023,-1.19275 1.51664,-1.71668 1.19635,-0.60479 1.48971,-0.94746 2.3376,-2.73053 1.0581,-2.22513 4.01757,-8.09248 4.19497,-8.31681 0.68327,-0.86403 6.54868,-12.46954 7.07297,-13.99485 0.46024,-1.33895 0.37146,-2.06028 -0.2308,-1.87525 -0.21505,0.0661 -0.39255,0.13011 -0.39445,0.14232 -0.005,0.0328 -1.79673,2.69653 -2.18596,3.24999 -0.18425,0.262 -1.42504,2.14323 -2.75731,4.18052 -1.33227,2.03729 -2.78834,4.24309 -3.23571,4.90177 -0.44737,0.65868 -1.09121,1.62381 -1.43076,2.14472 -2.75785,4.23094 -5.1671,7.54033 -5.60968,7.70553 -0.2115,0.079 -0.54701,-0.14883 -1.14327,-0.77617 -0.46415,-0.48836 -0.90071,-0.98651 -0.97013,-1.10701 -0.0694,-0.1205 -0.41563,-0.56497 -0.76936,-0.98771 -1.00727,-1.2038 -3.59759,-4.39002 -4.28158,-5.26654 -1.68451,-2.15871 -4.39559,-5.59617 -4.66037,-5.90903 -0.39205,-0.46325 -2.26599,-2.77892 -2.93852,-3.6312 -0.83608,-1.05955 -1.87295,-2.30262 -2.58772,-3.10231 -0.36195,-0.40495 -0.970682,-1.35745 -1.352742,-2.11666 -0.82851,-1.64638 -1.08452,-1.89972 -2.37986,-2.35499 -1.2932,-0.45453 -2.99398,-0.45448 -4.31151,1.1e-4 -1.18208,0.40785 -2.39511,1.59089 -2.68612,2.61969 -0.23714,0.83835 -0.45723,1.20377 -1.357291,2.25358 -2.027543,2.36486 -3.081856,3.6544 -6.402585,7.83108 -1.907534,2.39923 -2.644071,3.30898 -2.932878,3.62262 -0.182028,0.19767 -0.524644,0.63424 -0.76137,0.97013 -0.236726,0.3359 -0.845208,1.08698 -1.352183,1.66906 -0.506975,0.58208 -1.961995,2.2669 -3.233378,3.74405 -1.271382,1.47714 -2.462196,2.76631 -2.646251,2.86481 -0.273912,0.14659 -0.41846,0.0795 -0.796438,-0.36971 -0.253984,-0.30184 -0.590204,-0.79726 -0.747155,-1.10092 -0.156953,-0.30367 -0.576628,-0.94899 -0.932612,-1.43406 -0.355985,-0.48507 -1.340609,-2.03289 -2.18805,-3.43959 -0.847441,-1.4067 -1.893094,-3.11326 -2.323672,-3.79236 -0.430577,-0.6791 -1.071799,-1.75066 -1.424938,-2.38125 -0.353138,-0.63059 -0.818892,-1.42434 -1.035009,-1.76389 -0.216117,-0.33955 -0.772903,-1.25236 -1.237301,-2.02847 -2.691972,-4.49887 -3.960797,-6.2618 -4.506772,-6.2618 -0.373711,0 -0.426531,0.1939 -0.180841,0.66385 0.445816,0.85274 3.014873,6.22251 3.014873,6.3016 0,0.18454 6.974268,14.28472 8.158436,16.49427 0.929242,1.73387 1.83774,2.76202 2.597775,2.9399 0.821921,0.19236 1.56293,0.74534 1.470813,1.0976 -0.0821,0.31396 -0.112748,0.31279 -0.820394,-0.0315 -0.404308,-0.19672 -1.261332,-0.40683 -1.9045,-0.46691 -0.643167,-0.0601 -1.286671,-0.20657 -1.430008,-0.32553 -0.31137,-0.25841 -2.329473,-4.34084 -3.986462,-8.06423 -0.172693,-0.38805 -0.521635,-1.14212 -0.775423,-1.67569 -0.25379,-0.53358 -0.631716,-1.355 -0.839833,-1.82538 -0.922735,-2.08552 -2.10796,-3.61364 -3.138587,-4.04661 -0.998175,-0.41933 -3.080303,-0.81282 -5.329039,-1.00711 -6.089123,-0.52608 -11.401589,0.12105 -17.268765,2.10359 -1.87183,0.63249 -3.192346,0.89435 -3.192346,0.63303 0,-0.28108 1.674819,-5.63395 1.932446,-6.17627 0.09217,-0.19403 0.244574,-0.63059 0.33867,-0.97014 0.184939,-0.66736 1.942095,-5.73781 3.27031,-9.43681 0.452857,-1.26118 1.1333,-3.16618 1.512095,-4.23333 1.197466,-3.37353 1.992181,-5.46903 2.475119,-6.52639 0.08862,-0.19403 0.59039,-1.46403 1.115043,-2.82222 0.524653,-1.35819 1.230427,-3.06612 1.568386,-3.79538 0.337959,-0.72927 0.674922,-1.5164 0.748806,-1.74919 0.250037,-0.78779 2.352308,-5.10415 3.374731,-6.92896 1.209535,-2.15876 1.931234,-3.11545 3.740411,-4.95835 2.883019,-2.93677 5.148075,-4.13659 8.234399,-4.36186 1.861998,-0.1359 3.199435,-0.005 3.138521,0.30646 -0.02006,0.10269 -0.500093,0.93121 -1.066733,1.84116 -2.426582,3.89677 -2.840246,5.58475 -1.851302,7.55436 1.661911,3.30992 7.170093,6.33961 13.802429,7.59182 2.5334,0.47831 3.632045,0.54387 8.295557,0.495 4.471821,-0.0469 4.984592,-0.0823 5.186256,-0.35834 0.123086,-0.16849 0.271316,-0.97978 0.329403,-1.80286 0.05809,-0.82309 0.196072,-1.66556 0.306636,-1.87215 0.230591,-0.43086 0.555221,-0.40541 2.109931,0.16542 0.84357,0.30972 1.00367,0.32315 1.22716,0.10295 0.33321,-0.32832 0.21254,-0.43478 -1.40355,-1.23822 -2.275566,-1.1313 -5.182274,-2.93984 -9.789587,-6.09104 -4.37974,-2.99555 -9.591806,-5.85091 -12.341385,-6.76107 -2.137924,-0.70768 -5.303809,-1.02332 -7.930311,-0.79066 -2.605019,0.23076 -4.101972,0.65926 -5.981903,1.71231 -2.05991,1.15386 -4.10569,3.03303 -5.408205,4.96776 -0.145521,0.21615 -0.594394,0.85032 -0.997497,1.40926 -0.403101,0.55894 -0.904194,1.32552 -1.113538,1.7035 -0.209343,0.37799 -0.585898,1.04444 -0.836787,1.481 -0.546509,0.95096 -3.225789,6.32191 -3.225789,6.46649 0,0.0558 -0.319322,0.81067 -0.709607,1.67743 -0.390284,0.86677 -0.816425,1.86944 -0.946981,2.22816 -0.207555,0.57028 -1.447872,3.72185 -1.853322,4.70917 -0.333835,0.81293 -1.291436,3.38181 -2.399959,6.43819 -0.650944,1.79476 -1.294081,3.51332 -1.429193,3.81902 -0.135114,0.3057 -0.24566,0.66768 -0.24566,0.8044 0,0.13672 -0.202948,0.75972 -0.450995,1.38446 -0.248045,0.62473 -1.116917,3.12025 -1.930825,5.54559 -0.813908,2.42535 -1.563694,4.64785 -1.666194,4.93889 -0.402269,1.14222 -1.637136,4.82304 -1.982401,5.90903 -1.409037,4.43196 -2.350481,6.71877 -2.954329,7.17618 -0.539475,0.40865 -3.832285,-1.71525 -5.401527,-3.48405 -2.913483,-3.28399 -4.399552,-6.65068 -4.860854,-11.01227 -0.102606,-0.97014 -0.136557,-2.27983 -0.07545,-2.91042 0.124502,-1.28471 0.989505,-3.97307 1.959984,-6.09146 0.354029,-0.77278 1.183571,-2.67506 1.843427,-4.22729 1.242673,-2.92322 3.549719,-8.06065 4.792219,-10.67152 1.485516,-3.12153 7.805392,-15.81337 8.16842,-16.40417 0.208642,-0.33955 1.39555,-2.60174 2.637575,-5.02708 1.242023,-2.42535 2.315478,-4.4891 2.385453,-4.58611 0.06997,-0.097 0.62834,-1.12889 1.240813,-2.29306 0.612472,-1.16417 2.11371,-3.863496 3.336084,-5.998525 1.222374,-2.13503 2.314724,-4.19878 2.427444,-4.58611 0.11272,-0.38734 0.373219,-2.17268 0.578889,-3.96744 0.374436,-3.26748 0.444232,-3.758 0.97884,-6.87917 1.22649,-7.160549 4.160852,-17.600219 6.180081,-21.987074 0.140712,-0.305703 0.255841,-0.605852 0.255841,-0.666995 0,-0.06114 0.720334,-1.557274 1.60074,-3.324731 2.249401,-4.51578 5.054201,-8.672106 7.350333,-10.892181 2.158623,-2.087121 2.578576,-2.445025 4.054786,-3.455677 1.23416,-0.84494 3.624196,-2.155924 4.544835,-2.492936 0.291041,-0.10654 0.965729,-0.363606 1.499305,-0.571257 1.924152,-0.748821 2.413737,-0.87338 6.605667,-1.680584 1.852653,-0.35675 2.918019,-0.44789 5.639668,-0.482465 l 3.355526,-0.04263 0.228392,0.471512 c 0.169234,0.349384 0.272093,2.656582 0.397118,8.907638 0.0928,4.63987 0.214623,8.894541 0.27072,9.454823 0.05609,0.560281 0.215187,4.409969 0.353538,8.554861 0.494581,14.817333 0.625061,17.797536 0.877401,20.041156 0.2568,2.28333 0.32759,2.57107 0.57232,2.32641 0.17546,-0.1754 0.16753,-14.47649 -0.0189,-34.082998 l -0.15117,-15.900211 0.3661,-0.366104 c 0.34589,-0.345894 0.56061,-0.366266 3.88948,-0.369026 2.77784,-0.0023 3.57532,0.04902 3.76886,0.242559 0.20495,0.204947 0.26642,3.299054 0.37229,18.73868 0.14152,20.638076 0.22759,26.12722 0.45093,28.75776 0.16096,1.89587 0.23916,2.17086 0.61732,2.17086 0.32274,0 0.38994,-1.94644 0.43237,-12.523615 0.0805,-20.071586 0.214282,-34.009992 0.334252,-34.832365 0.16042,-1.099675 0.53587,-1.321167 2.24561,-1.324756 1.6532,-0.0035 7.45486,0.474117 8.80052,0.724452 2.48013,0.461376 6.62923,1.621077 7.46637,2.086893 0.1703,0.09476 0.69449,0.339375 1.16487,0.543587 1.09587,0.475766 2.35108,1.242964 3.91982,2.395845 1.42356,1.046185 4.75452,4.48625 5.61614,5.800095 3.14104,4.789626 3.96345,6.253774 5.796,10.318749 0.24054,0.533577 0.60658,1.329706 0.81341,1.769177 0.20684,0.439471 0.44896,1.034784 0.53805,1.322917 0.0891,0.288133 0.33053,0.960441 0.53652,1.494017 0.66407,1.720127 0.89349,2.359055 1.26675,3.527778 0.20139,0.63059 0.47606,1.40719 0.61038,1.725776 0.13432,0.318587 0.24422,0.736382 0.24422,0.928436 0,0.192052 0.0746,0.487015 0.16582,0.655473 0.34832,0.643384 2.02436,7.18379 2.58716,10.09587 0.14062,0.727601 0.37624,1.918231 0.5236,2.645831 0.14736,0.72761 0.38045,2.03729 0.51799,2.91042 0.64889,4.11952 0.7941,4.99558 0.95398,5.75563 0.177,0.84147 0.97089,2.44847 1.6813,3.40328 0.53844,0.72369 6.00984,9.946325 6.2926,10.606855 0.12218,0.28543 0.31569,0.63802 0.43002,0.78354 0.19902,0.25332 0.43305,0.66981 1.93281,3.43958 0.85289,1.57514 4.11469,8.09868 7.2761,14.55209 3.62505,7.39983 4.44973,9.11152 4.44973,9.23581 0,0.11338 0.28264,0.74054 2.11765,4.69891 0.56216,1.21267 1.32202,2.91923 1.68856,3.79236 0.36655,0.87312 0.77135,1.74407 0.89956,1.93543 0.12822,0.19136 0.23312,0.44379 0.23312,0.56095 0,0.18033 0.31235,0.92825 1.24105,2.97167 0.62966,1.38545 0.87562,2.32799 0.87562,3.3555 0,1.29474 -0.60804,5.80185 -0.87878,6.51394 -0.0988,0.25975 -0.18005,0.6457 -0.18064,0.85767 -5.3e-4,0.21197 -0.11967,0.61275 -0.26459,0.89063 -0.14492,0.27787 -0.26349,0.57532 -0.26349,0.66098 0,0.26897 -1.09197,2.48066 -1.63975,3.32118 -0.56141,0.86142 -3.38547,3.71469 -3.67667,3.71469 -0.0964,0 -0.42785,0.19064 -0.73667,0.42365 -0.59911,0.45203 -1.61215,0.78299 -2.08195,0.68018 -0.15715,-0.0344 -0.40946,-0.35635 -0.56069,-0.71547 -0.28883,-0.68591 -2.12281,-5.72154 -2.74319,-7.53211 -0.19945,-0.58209 -0.53196,-1.4949 -0.7389,-2.02848 -0.20695,-0.53357 -0.43638,-1.21013 -0.50984,-1.50345 -0.0735,-0.29332 -0.21487,-0.6902 -0.31423,-0.88195 -0.0994,-0.19174 -0.59566,-1.57894 -1.10286,-3.08265 -0.50721,-1.50372 -1.16321,-3.36903 -1.45779,-4.14514 -0.29457,-0.77611 -0.63938,-1.68892 -0.76623,-2.02847 -0.54005,-1.44557 -1.51064,-3.99584 -1.6447,-4.32153 -0.0799,-0.19403 -0.40002,-1.02747 -0.71146,-1.85208 -0.31144,-0.82462 -0.67224,-1.77712 -0.80177,-2.11667 -0.31539,-0.82672 -1.48304,-3.70302 -1.68275,-4.14514 -0.0876,-0.19403 -0.68483,-1.62278 -1.32707,-3.175 -0.64224,-1.55222 -1.32953,-3.17941 -1.5273,-3.61597 -0.52214,-1.15257 -3.46324,-7.0816 -3.71768,-7.49455 -0.11888,-0.19295 -0.95185,-1.4769 -1.85104,-2.85323 -4.44459,-6.80305 -8.21103,-9.24851 -14.26374,-9.26112 -2.26139,-0.005 -4.68441,0.32992 -6.35131,0.87713 -1.6853,0.55326 -4.12721,1.6316 -5.23819,2.31318 -1.89596,1.16315 -6.44652,4.2116 -7.52068,5.03815 -0.5844,0.44968 -1.83648,1.32513 -2.78241,1.94545 -0.94593,0.62033 -2.07706,1.37337 -2.51362,1.67343 -0.43657,0.30007 -1.62719,1.02999 -2.64584,1.62204 -2.155862,1.25303 -3.175002,2.0112 -3.175002,2.36198 0,0.31799 0.59363,0.32017 1.60018,0.006 2.917812,-0.91111 2.926172,-0.90841 2.836102,0.91372 -0.0829,1.67686 0.16104,2.35814 0.99112,2.76814 1.48217,0.7321 8.87406,0.48704 14.15176,-0.46917 4.7513,-0.86084 8.74534,-2.71082 11.04165,-5.11433 1.85468,-1.94126 2.18412,-3.22114 1.40795,-5.46991 -0.25606,-0.74187 -0.74417,-1.85203 -1.0847,-2.46704 -1.12463,-2.03115 -1.70063,-3.32469 -1.59871,-3.59028 0.0785,-0.20462 0.43952,-0.26104 1.64945,-0.2578 4.18379,0.0112 7.64204,1.99095 10.84692,6.20952 0.53604,0.70557 1.17802,1.64004 1.42664,2.07661 0.49118,0.86249 2.23997,4.35992 2.23997,4.47976 0,0.0406 0.35718,0.83818 0.79375,1.77249 0.43656,0.93431 0.79375,1.77687 0.79375,1.87235 0,0.16085 0.97431,2.70755 1.52445,3.98469 0.13169,0.30571 0.23921,0.62321 0.23893,0.70556 -3.5e-4,0.0824 0.19241,0.62598 0.42821,1.20806 0.23579,0.58209 0.62854,1.69334 0.87278,2.46945 0.50838,1.61549 0.80574,2.49362 1.01541,2.99861 0.15332,0.36927 0.69636,1.9723 1.82247,5.37986 0.3687,1.11566 0.98445,2.94128 1.36834,4.05694 0.3839,1.11566 0.86001,2.5841 1.05805,3.2632 0.19803,0.67909 0.81598,2.62378 1.37322,4.32153 1.41384,4.30752 1.76341,5.47357 1.76341,5.88211 0,0.19505 0.0956,0.61903 0.21245,0.94217 0.18114,0.50091 0.16894,0.63104 -0.0828,0.88274 -0.27604,0.27604 -0.39014,0.25939 -1.75585,-0.25627 -1.94628,-0.73487 -4.95495,-1.71944 -6.04674,-1.97876 -3.94353,-0.93666 -9.75098,-1.19321 -14.02137,-0.61942 -3.5299,0.4743 -4.24841,0.87719 -5.69638,3.19413 -0.68443,1.09518 -3.47739,6.61007 -3.47739,6.86633 0,0.12312 -0.19315,0.6082 -0.42922,1.07797 -0.23607,0.46977 -0.71426,1.52881 -1.06265,2.35343 -0.34839,0.82462 -0.84977,1.75366 -1.11419,2.06455 -0.26441,0.31088 -0.64318,0.771 -0.8417,1.02249 -0.55859,0.70761 -2.78848,1.37082 -3.20332,0.95272 z M 71.757838,162.01729 c 0.152451,-0.15245 0.277183,-0.43303 0.277183,-0.6235 0,-0.34251 1.06363,-4.16227 1.443711,-5.18473 0.685952,-1.8453 1.995943,-4.53242 2.903815,-5.95646 1.729974,-2.71356 5.071386,-6.05284 7.542117,-7.53729 3.251661,-1.95366 3.388001,-2.53735 0.971744,-4.16017 -1.406564,-0.94468 -3.312536,-1.81409 -5.037806,-2.29797 -2.456214,-0.68891 -9.663968,-0.44664 -13.529795,0.45475 -1.910262,0.44542 -2.421737,0.4492 -2.964897,0.022 -0.521439,-0.41017 -2.496546,-1.42691 -2.771888,-1.42691 -0.393684,0 -0.184012,0.51482 0.603309,1.48134 1.012726,1.24323 2.284886,2.22283 2.886676,2.22283 0.254608,0 1.334601,-0.20435 2.399981,-0.45412 4.656378,-1.09163 9.229007,-1.43237 11.580105,-0.86291 2.906577,0.704 4.705814,1.48966 5.100542,2.22722 0.169009,0.31579 0.124298,0.43419 -0.305436,0.80879 -0.276885,0.24137 -0.820928,0.63944 -1.208984,0.88461 -2.472319,1.56197 -5.835346,4.81433 -7.382515,7.13958 -1.292624,1.94269 -2.095207,3.7231 -3.09535,6.86656 -0.113139,0.3556 -0.279084,1.2899 -0.368765,2.07622 -0.08968,0.78633 -0.213614,1.69916 -0.275402,2.02852 -0.141137,0.75233 0.359102,2.56886 0.707417,2.56886 0.135881,0 0.371789,-0.12473 0.524238,-0.27718 z m 46.912672,-0.50223 c 0.2871,-1.14388 -0.78495,-6.7446 -1.65773,-8.66046 -0.19326,-0.42423 -0.35138,-0.80571 -0.35138,-0.84773 0,-0.042 -0.36446,-0.73532 -0.80992,-1.54066 -1.45928,-2.63818 -3.56219,-5.13315 -6.23893,-7.40208 -1.92609,-1.63265 -3.0053,-2.68233 -3.0053,-2.92307 0,-0.65673 2.63388,-1.80623 5.00686,-2.18512 1.32885,-0.21218 5.31951,-0.26795 6.39807,-0.0894 1.50697,0.24944 4.81215,0.94901 6.68623,1.4152 0.49129,0.12221 1.11116,0.18055 1.37749,0.12963 0.57741,-0.11038 2.30907,-1.64612 2.69278,-2.38813 0.24659,-0.47685 0.24522,-0.55184 -0.0148,-0.81189 -0.26441,-0.26441 -0.33024,-0.26108 -0.85372,0.0431 -0.31197,0.1813 -1.08315,0.59465 -1.71374,0.91856 l -1.14653,0.58893 -1.67569,-0.43725 c -3.45508,-0.90157 -10.03817,-1.41756 -12.25902,-0.96088 -0.58208,0.11969 -1.41552,0.27901 -1.85208,0.35405 -1.78026,0.30599 -3.99809,1.38668 -5.15774,2.51323 -0.73364,0.7127 -0.85368,0.92271 -0.8066,1.41111 0.0588,0.61022 0.02,0.57853 2.96802,2.42394 0.70813,0.44328 2.15466,1.67009 3.28631,2.78715 3.4864,3.44142 5.13074,6.41129 7.10377,12.83025 0.29905,0.97292 0.54373,1.82731 0.54373,1.89866 0,0.0713 0.17859,0.40543 0.39687,0.74241 0.4632,0.7151 0.93076,0.79732 1.08307,0.19044 z M 94.436408,131.62312 c 0.53358,-0.0597 1.67251,-0.0148 2.53097,0.0998 1.69904,0.22671 2.05514,0.1774 2.05514,-0.28458 0,-0.72966 -1.85001,-1.7511 -3.56343,-1.96746 -1.84391,-0.23285 -3.76522,0.55356 -4.2099,1.72314 -0.26565,0.69872 -0.0575,0.82156 1.13902,0.67221 0.59293,-0.074 1.51463,-0.18339 2.0482,-0.24306 z m 24.341662,-0.54904 c 1.50371,-0.19188 3.24996,-0.4984 3.88055,-0.68117 1.57352,-0.45606 4.64367,-1.70927 5.47852,-2.23629 0.37845,-0.2389 0.75713,-0.43437 0.84151,-0.43437 0.0844,0 0.48782,-0.24223 0.89652,-0.53829 0.54706,-0.39629 0.72854,-0.64059 0.68793,-0.92604 -0.0482,-0.33898 -0.15285,-0.38322 -0.83176,-0.35168 -0.42713,0.0198 -1.1415,0.15811 -1.5875,0.30727 -5.88669,1.96879 -9.84016,2.59546 -17.74423,2.81266 -3.95823,0.10877 -5.03848,0.22956 -5.15407,0.57632 -0.0988,0.29643 0.4539,0.76559 0.90191,0.76559 0.21832,0 0.74843,0.11112 1.17803,0.24693 0.42959,0.13581 1.49545,0.34251 2.36857,0.45933 0.87313,0.11683 1.66688,0.23757 1.76389,0.26832 0.5975,0.18938 4.99571,0.028 7.32013,-0.26858 z m -37.341065,-0.44746 c 1.372576,-0.29259 2.768849,-0.92168 2.768849,-1.24749 0,-0.54884 -0.579259,-0.6497 -4.545896,-0.7915 -8.306661,-0.29696 -10.906975,-0.69901 -16.925753,-2.61696 -2.224821,-0.70897 -3.042131,-0.8152 -3.487377,-0.45329 -0.233985,0.1902 -0.282385,0.31639 -0.143727,0.37475 0.114977,0.0484 0.523732,0.31596 0.908344,0.59457 0.629044,0.45568 1.309148,0.80065 3.909688,1.98314 1.391419,0.63269 1.821258,0.79801 3.263194,1.25505 1.279733,0.40564 3.176187,0.86773 4.321527,1.05299 0.242535,0.0392 2.290616,0.0821 4.55129,0.0953 3.100883,0.0181 4.422101,-0.0424 5.379861,-0.24661 z m 12.086293,-3.54144 c 1.09847,-0.23473 1.56764,-0.24467 3.13572,-0.0665 1.43953,0.1636 1.90046,0.16269 2.10148,-0.004 0.34397,-0.28548 0.10994,-0.67818 -0.64378,-1.08021 -1.95165,-1.04102 -2.10467,-1.08413 -3.493,-0.98404 -0.73361,0.0529 -1.62676,0.22105 -1.98477,0.37368 -0.60838,0.25938 -1.55393,1.25119 -1.55393,1.62996 0,0.32441 0.44409,0.60893 0.79375,0.50854 0.19403,-0.0557 0.93407,-0.2255 1.64453,-0.37732 z M 47.576874,104.54533 c 3.148635,-2.99003 4.005329,-3.76068 5.551018,-4.993506 1.203687,-0.96005 4.05402,-2.602219 6.023973,-3.470589 1.439069,-0.63436 4.778502,-1.20454 6.268574,-1.07031 2.180402,0.19643 4.063752,0.47944 4.265246,0.64095 0.321328,0.25756 2.104894,0.39681 2.241959,0.17503 0.06449,-0.10435 -0.02387,-0.26458 -0.196363,-0.35606 -0.7818,-0.41465 -3.30653,-1.17703 -5.076121,-1.53282 -1.710842,-0.34397 -2.01028,-0.36162 -2.532278,-0.14925 -0.325602,0.13248 -0.649219,0.2055 -0.719152,0.16228 -0.274812,-0.16984 -3.353998,0.44112 -4.738502,0.9402 -1.86257,0.67141 -5.242285,2.590019 -6.193444,3.515919 -0.13676,0.13313 -0.537177,0.42419 -0.889817,0.6468 -0.727472,0.45924 -4.754365,4.403846 -6.127508,6.002306 -0.998213,1.16201 -1.361812,2.02847 -0.851221,2.02847 0.164735,0 1.50287,-1.14274 2.973636,-2.53942 z m 98.012306,1.83387 c 0,-0.097 -0.0841,-0.17639 -0.1868,-0.17639 -0.10274,0 -0.13774,0.0794 -0.0778,0.17639 0.0599,0.097 0.14401,0.17638 0.1868,0.17638 0.0428,0 0.0778,-0.0794 0.0778,-0.17638 z m -0.92386,-1.27111 c -0.96297,-1.16466 -5.05085,-5.293856 -6.07234,-6.133716 -1.06915,-0.87906 -3.20759,-2.425569 -3.58713,-2.594209 -0.14552,-0.0647 -0.5484,-0.2942 -0.89529,-0.51011 -1.26032,-0.78445 -3.83026,-1.78884 -6.13817,-2.39896 -2.73841,-0.72392 -5.84938,-0.33856 -9.40845,1.16542 -0.65327,0.27606 -1.15414,0.87961 -0.87376,1.05289 0.0813,0.0502 0.69665,-0.0937 1.36749,-0.31981 0.67084,-0.22613 1.77533,-0.54044 2.45443,-0.69846 1.55687,-0.36226 4.82101,-0.38442 5.81493,-0.0395 0.3913,0.13581 1.22739,0.38911 1.85798,0.56289 2.46775,0.68009 6.61924,2.933939 7.9375,4.309289 0.0485,0.0506 0.63372,0.515996 1.30046,1.034206 1.54774,1.20295 1.90373,1.5063 3.00242,2.55842 1.92761,1.84592 3.52059,3.11453 3.69362,2.9415 0.11244,-0.11245 -0.0456,-0.43629 -0.45369,-0.92989 z m -35.24338,70.17284 c -0.045,-0.0451 -4.24883,-0.12651 -9.34171,-0.181 -5.092882,-0.0545 -10.371042,-0.14077 -11.729236,-0.19173 -1.358195,-0.051 -4.255383,-0.13205 -6.438195,-0.18019 -4.837187,-0.10669 -6.559591,-0.33529 -5.846525,-0.77599 0.583698,-0.36075 5.252874,-0.36561 22.691664,-0.0236 14.269902,0.27984 15.812292,0.38617 15.029182,1.0361 -0.23517,0.19518 -4.19909,0.48252 -4.36518,0.31644 z m -1.72108,-2.79118 c -0.23724,-0.23724 -0.30612,-6.42236 -0.0756,-6.78476 0.37493,-0.58932 1.33051,1.06992 1.64012,2.84785 0.21624,1.24171 0.11054,3.23661 -0.20248,3.82149 -0.19974,0.37322 -1.03363,0.44387 -1.36208,0.11542 z m -20.826675,-0.29987 c -0.199173,-0.12616 -0.238996,-1.42222 -0.224642,-7.31102 0.01841,-7.55157 0.07099,-8.14457 0.857471,-9.66931 0.446671,-0.86595 0.829982,-1.1566 1.056093,-0.80078 0.351,0.55235 -0.01432,16.6366 -0.400747,17.64359 -0.121994,0.31791 -0.876284,0.39844 -1.288175,0.13752 z m 14.467855,-0.14992 c -0.52874,-0.44666 -0.72306,-3.22587 -0.73076,-10.45104 -0.003,-3.24997 -0.009,-6.25237 -0.0117,-6.67199 -0.005,-0.68967 0.0323,-0.75745 0.38718,-0.70556 0.28417,0.0416 0.54947,0.37409 0.96047,1.20394 l 0.56784,1.14652 0.11845,7.52864 c 0.0846,5.37429 0.0626,7.63302 -0.0768,7.8934 -0.23868,0.44598 -0.72648,0.4685 -1.21468,0.0561 z m -6.641042,0.005 c -0.19403,-0.0473 -0.49738,-0.21426 -0.67412,-0.3711 -0.30408,-0.26986 -0.31988,-0.80164 -0.29429,-9.90367 0.0149,-5.29017 7.1e-4,-9.77725 -0.0314,-9.97128 -0.0508,-0.30623 0.0634,-0.36503 0.86539,-0.44566 0.50814,-0.0511 1.08733,-0.0324 1.28709,0.0415 0.36161,0.13377 0.36298,0.17772 0.31084,9.97865 -0.0483,9.07475 -0.0768,9.88159 -0.36511,10.32138 -0.31171,0.4755 -0.42968,0.51312 -1.09836,0.35021 z m -14.340422,-0.43758 c -0.137392,-0.13739 -0.211666,-0.853 -0.211666,-2.03935 0,-1.74442 0.02934,-1.88784 0.643994,-3.14836 0.373468,-0.7659 0.709559,-1.25512 0.800075,-1.1646 0.187849,0.18784 0.248858,5.60304 0.06948,6.16711 -0.141163,0.44389 -0.930856,0.55623 -1.301883,0.1852 z"
       id="path6419"
       sodipodi:nodetypes="ssssssccsssssssssssssscscssssscsssscssssssssssssssssssssssssssssssssssssssssssssssssssssssssscssssssssssssssssssssssssssssssssssssssssssssssssscssssssscsssssssscsssssssssssscsscsssssssssssssscssssssssssssssssscsssscssssssscsssssssssssssscsssssssssssssssssssccsssssssscssssssssssssssssssssssssssssscssssssssssssccssssccssssssccssssssscsssssssscscccccsssssccsssssscssssssssssscsscscssscssssssssccsscssssssccssccssssssscccscccssssscssssssssssss" />
    <rect
       style="fill:none;fill-opacity:0.0575539;stroke:#000000;stroke-width:0.2;stroke-linecap:round;stroke-miterlimit:4;stroke-dasharray:none;stroke-opacity:1"
       id="rect6676"
       width="176.90372"
       height="172.70988"
       x="5.3376122"
       y="26.306805" />
  </g>
</svg>
