<?xml version="1.0" encoding="UTF-8" standalone="no"?>
<!-- Created with Inkscape (http://www.inkscape.org/) -->

<svg
   width="210mm"
   height="297mm"
   viewBox="0 0 210 297"
   version="1.1"
   id="svg1990"
   inkscape:version="1.1 (c68e22c387, 2021-05-23)"
   sodipodi:docname="DarthVader1.svg"
   xmlns:inkscape="http://www.inkscape.org/namespaces/inkscape"
   xmlns:sodipodi="http://sodipodi.sourceforge.net/DTD/sodipodi-0.dtd"
   xmlns="http://www.w3.org/2000/svg"
   xmlns:svg="http://www.w3.org/2000/svg">
  <sodipodi:namedview
     id="namedview1992"
     pagecolor="#ffffff"
     bordercolor="#666666"
     borderopacity="1.0"
     inkscape:pageshadow="2"
     inkscape:pageopacity="0.0"
     inkscape:pagecheckerboard="0"
     inkscape:document-units="mm"
     showgrid="false"
     inkscape:zoom="0.35355339"
     inkscape:cx="311.12698"
     inkscape:cy="162.63456"
     inkscape:window-width="1920"
     inkscape:window-height="1017"
     inkscape:window-x="-8"
     inkscape:window-y="-8"
     inkscape:window-maximized="1"
     inkscape:current-layer="layer1"
     inkscape:snap-global="false" />
  <defs
     id="defs1987" />
  <g
     inkscape:label="Ebene 1"
     inkscape:groupmode="layer"
     id="layer1">
    <path
       style="fill:none;stroke-width:0.2;stroke:#000000;stroke-opacity:1;stroke-miterlimit:4;stroke-dasharray:none"
       d="m 124.50384,164.42551 c -0.89988,-0.0617 -1.53258,-0.17028 -1.778,-0.30512 -0.20955,-0.11511 -0.48584,-0.20966 -0.61398,-0.21008 -0.12813,0 -1.27113,-0.51049 -2.54,-1.13348 -3.81108,-1.87112 -3.29788,-1.71063 -5.59679,-1.75023 -1.11087,-0.0191 -2.0337,-0.0498 -2.05073,-0.0682 -0.017,-0.0184 -0.0677,-5.02092 -0.11248,-11.11679 -0.0448,-6.09586 -0.10515,-11.15363 -0.13404,-11.2395 -0.0289,-0.0859 -0.0818,-1.32768 -0.11764,-2.75961 -0.0444,-1.77746 -0.12861,-2.84358 -0.26525,-3.36019 -0.11008,-0.41618 -0.22406,-0.78061 -0.2533,-0.80985 -0.0639,-0.0639 0.22347,-0.64848 0.68129,-1.38598 0.25204,-0.40602 0.4151,-0.53958 0.65896,-0.53975 0.28358,-2.6e-4 0.38555,0.13495 0.8168,1.08265 0.3601,0.79134 0.66607,1.24665 1.13646,1.69116 1.06517,1.00655 1.25044,1.09067 2.41237,1.09533 1.00912,0.004 1.04279,-0.006 1.62541,-0.48272 l 0.59494,-0.48684 0.48379,0.38878 c 0.26608,0.21383 0.683,0.42239 0.92648,0.46346 0.96442,0.16269 1.00144,0.18237 1.12657,0.59869 0.18498,0.61545 0.78558,2.02772 0.98377,2.31327 0.0956,0.13778 0.17387,0.33865 0.17387,0.44638 0,0.10773 0.10589,0.39505 0.23532,0.63849 0.12942,0.24344 0.309,0.67122 0.39907,0.95062 0.0901,0.2794 0.24134,0.62073 0.33618,0.75851 0.0948,0.13778 0.17243,0.33154 0.17243,0.43059 0,0.099 0.11149,0.41494 0.24777,0.70199 0.39948,0.84147 1.02226,2.33352 1.02187,2.4482 -2.5e-4,0.0581 0.10863,0.33431 0.24183,0.61371 0.42034,0.88172 0.74494,1.64002 0.84264,1.9685 0.0519,0.17463 0.20074,0.51668 0.33066,0.76012 0.12993,0.24344 0.23623,0.508 0.23623,0.5879 0,0.164 0.52924,1.39958 0.89877,2.09828 0.13432,0.25397 0.24601,0.53972 0.2482,0.635 0.002,0.0953 0.14454,0.45895 0.31634,0.8082 0.1718,0.34925 0.31289,0.70505 0.31353,0.79068 6.3e-4,0.0856 0.11524,0.3428 0.25468,0.5715 0.13944,0.2287 0.25374,0.4908 0.254,0.58243 3.8e-4,0.15346 0.27537,0.80628 0.89843,2.1333 0.13478,0.28706 0.24505,0.58937 0.24505,0.67182 0,0.0824 0.10745,0.36192 0.23878,0.62108 0.13133,0.25915 0.28096,0.72837 0.33252,1.04269 0.0516,0.31433 0.16639,0.71438 0.2552,0.889 0.0888,0.17463 0.22759,0.74613 0.3084,1.27 0.0808,0.52388 0.22999,1.19738 0.33152,1.49668 0.30524,0.89993 0.23964,1.83049 -0.1889,2.67943 -0.28651,0.56756 -0.47134,0.77618 -0.79375,0.89589 -0.23115,0.0858 -0.60626,0.23622 -0.83358,0.33423 -0.51366,0.22146 -3.35586,0.32319 -5.30169,0.18976 z m -6.46847,-6.70724 c 0.15439,-1.62176 -0.29625,-4.06806 -1.23411,-6.69925 -0.0747,-0.20955 -0.19361,-0.6096 -0.26425,-0.889 -0.0707,-0.2794 -0.21141,-0.76517 -0.3128,-1.0795 -0.10139,-0.31432 -0.23738,-0.88582 -0.30219,-1.27 -0.0648,-0.38417 -0.22881,-1.18427 -0.36444,-1.778 -0.28957,-1.26766 -0.72866,-4.10552 -0.84494,-5.461 -0.045,-0.52387 -0.18477,-1.20967 -0.31073,-1.524 -0.12595,-0.31432 -0.29815,-0.87944 -0.38267,-1.2558 -0.13129,-0.58469 -0.17342,-0.6494 -0.28942,-0.4445 -0.15841,0.27982 -0.13645,2.57527 0.0345,3.6053 0.0638,0.38418 0.15269,1.55575 0.19762,2.6035 0.0449,1.04775 0.13447,2.2479 0.19898,2.667 0.16774,1.08971 0.93087,3.71506 1.32898,4.572 0.22818,0.49117 0.67522,1.76228 0.84864,2.413 0.0745,0.2794 0.23482,0.76518 0.35635,1.0795 0.12153,0.31433 0.25986,0.88113 0.30741,1.25956 0.0476,0.37844 0.16815,0.88361 0.26801,1.12259 0.0999,0.23899 0.24535,0.8009 0.32333,1.24869 0.078,0.44779 0.18819,0.81416 0.24491,0.81416 0.0567,0 0.14529,-0.44291 0.19683,-0.98425 z m 8.14935,-0.42278 c 0.19033,-0.37304 0.20245,-1.00471 0.0361,-1.88186 -0.0928,-0.48961 -0.3956,-1.06726 -1.19055,-2.27159 -1.13658,-1.72188 -2.24093,-3.61336 -2.24093,-3.83818 0,-0.075 -0.1145,-0.36089 -0.25444,-0.6352 -0.13995,-0.27431 -0.31708,-0.79081 -0.39364,-1.14778 -0.0765,-0.35696 -0.21888,-0.80176 -0.31627,-0.98844 -0.0974,-0.18668 -0.17765,-0.45372 -0.17835,-0.59342 -0.003,-0.52982 -1.32195,-2.75979 -1.5878,-2.68376 -0.21361,0.0611 -0.21887,0.82566 -0.0104,1.51871 0.10868,0.36138 0.25466,1.4 0.3244,2.30805 0.12164,1.58377 0.41815,2.7167 0.85351,3.26109 0.0738,0.0924 0.22267,0.33936 0.3307,0.54891 0.10802,0.20955 0.4152,0.62057 0.68262,0.9134 0.26741,0.29281 0.62908,0.73993 0.80371,0.99358 0.17462,0.25366 0.40694,0.55701 0.51625,0.67411 0.25055,0.26839 1.38875,2.01646 1.38875,2.13287 0,0.0477 0.13973,0.37812 0.31051,0.73435 0.17079,0.35623 0.34435,0.80892 0.38569,1.00596 0.0871,0.41495 0.3134,0.39366 0.54017,-0.0508 z m -67.797785,5.46517 c -0.665659,-0.2617 -0.872636,-1.3788 -0.570333,-3.07825 0.109146,-0.61358 0.260939,-1.23236 0.337319,-1.37508 0.07638,-0.14272 0.2157,-0.52653 0.309602,-0.85291 0.0939,-0.32638 0.348735,-1.07919 0.566299,-1.67292 0.217563,-0.59372 0.479898,-1.34566 0.582966,-1.67098 0.103068,-0.32531 0.272128,-0.75393 0.375689,-0.9525 0.103562,-0.19856 0.188645,-0.45951 0.189076,-0.57986 3.81e-4,-0.12038 0.111133,-0.46328 0.246007,-0.762 0.134873,-0.29875 0.330194,-0.80033 0.434047,-1.11466 0.103853,-0.31432 0.283498,-0.85725 0.399212,-1.2065 0.115712,-0.34925 0.271893,-0.748 0.347067,-0.88613 0.07517,-0.13812 0.210894,-0.5096 0.301598,-0.8255 0.09071,-0.3159 0.342611,-1.06014 0.559788,-1.65387 0.217178,-0.59372 0.478218,-1.33667 0.580088,-1.651 0.101872,-0.31432 0.263963,-0.74295 0.360203,-0.9525 0.09624,-0.20955 0.2129,-0.56115 0.259243,-0.78134 0.04635,-0.22019 0.195248,-0.61804 0.330896,-0.88411 0.135649,-0.26606 0.246634,-0.58881 0.246634,-0.71721 0,-0.1284 0.09073,-0.40891 0.201623,-0.62335 0.110893,-0.21444 0.278154,-0.65451 0.371693,-0.97794 0.213188,-0.73714 0.656352,-1.99193 0.880484,-2.49305 0.09373,-0.20955 0.208327,-0.56115 0.25467,-0.78134 0.04634,-0.2202 0.195248,-0.61804 0.330896,-0.88411 0.135649,-0.26606 0.246634,-0.58618 0.246634,-0.71136 0,-0.12519 0.1143,-0.44087 0.254,-0.70152 0.1397,-0.26065 0.254,-0.56334 0.254,-0.67264 0,-0.55837 0.743695,-0.67392 1.109085,-0.17232 0.347458,0.47698 1.28592,0.69643 2.127071,0.4974 0.649429,-0.15367 1.418147,-0.59215 1.94827,-1.11129 0.482894,-0.47289 1.165575,-1.56452 1.165575,-1.86378 0,-0.28483 0.559458,-0.90381 0.812294,-0.89871 0.255805,0.005 0.687534,0.43553 0.888938,0.88617 0.109263,0.24448 0.270956,0.54451 0.359315,0.66675 0.129539,0.17921 0.129539,0.2653 0,0.4445 -0.526472,0.72833 -0.540879,0.87641 -0.729699,7.50046 -0.100932,3.54078 -0.184488,9.87408 -0.18568,14.074 -0.0017,5.95611 -0.0371,7.66346 -0.160918,7.7601 -0.10608,0.0828 -0.622249,0.0272 -1.55575,-0.1676 -2.083085,-0.43466 -3.574084,-0.36682 -6.223001,0.28307 -0.4191,0.10283 -1.086914,0.26335 -1.484033,0.35671 -0.397117,0.0933 -0.968617,0.25698 -1.27,0.36361 -2.273879,0.80456 -4.624668,1.16835 -5.450868,0.84356 z m 4.719687,-3.77417 c 0.08405,-0.26098 0.199599,-0.53397 0.256777,-0.60668 0.05718,-0.0727 0.161491,-0.38891 0.231809,-0.70269 0.148667,-0.66339 1.104062,-2.38536 2.179145,-3.92762 0.934909,-1.34117 1.717281,-2.93019 1.813362,-3.683 0.04012,-0.31432 0.08955,-1.59944 0.109842,-2.8558 0.03273,-2.02596 0.01356,-2.28879 -0.169485,-2.32404 -0.466005,-0.0897 -1.219682,1.76817 -1.565508,3.85919 -0.09359,0.56587 -0.254866,1.19452 -0.358398,1.397 -0.103531,0.20248 -0.230863,0.56818 -0.28296,0.81265 -0.0521,0.24448 -0.198563,0.64453 -0.325478,0.889 -0.126916,0.24448 -0.373239,0.73644 -0.547384,1.09326 -0.174146,0.3568 -0.502215,0.98545 -0.729042,1.397 -1.358615,2.46495 -1.248929,2.15668 -1.252082,3.51884 -0.0039,1.69447 0.290517,2.21615 0.639402,1.13289 z m 6.855251,-4.54938 c 0.08533,-0.69251 0.20158,-1.31806 0.258326,-1.39011 0.05675,-0.072 0.188108,-0.53833 0.291912,-1.03618 0.103804,-0.49784 0.278621,-1.07899 0.38848,-1.29144 0.10986,-0.21244 0.199746,-0.49069 0.199746,-0.61831 0,-0.12763 0.07545,-0.34478 0.167664,-0.48256 0.201476,-0.30103 0.827257,-2.12598 1.239936,-3.61601 0.280583,-1.01308 0.299224,-1.29831 0.30294,-4.6355 0.0022,-1.9558 -0.04078,-3.66557 -0.09545,-3.79949 -0.210069,-0.5145 -0.40891,0.0892 -0.852435,2.58825 -0.06772,0.38157 -0.157478,1.29597 -0.199461,2.032 -0.04198,0.73604 -0.179846,1.76687 -0.306366,2.29074 -0.126518,0.52388 -0.267825,1.23825 -0.314013,1.5875 -0.04619,0.34925 -0.195093,0.96384 -0.330896,1.36576 -0.135804,0.40192 -0.246916,0.84666 -0.246916,0.98833 0,0.14166 -0.09249,0.47005 -0.205537,0.72974 -0.113047,0.2597 -0.280139,0.7865 -0.371318,1.17067 -0.09118,0.38418 -0.260609,0.95568 -0.376512,1.27 -0.269095,0.72978 -0.313814,3.23947 -0.07241,4.064 0.142944,0.48825 0.181875,0.53291 0.267244,0.30661 0.05496,-0.1457 0.169741,-0.8315 0.255074,-1.524 z m 6.48509,5.86811 c -0.100555,-0.12116 -0.134767,-0.89286 -0.1108,-2.49922 l 0.03467,-2.32394 0.374826,-0.10014 c 0.625464,-0.16709 13.981511,-0.12947 14.354421,0.0404 0.30621,0.13952 0.320953,0.19653 0.33624,1.30028 0.03504,2.52977 -0.02529,3.4324 -0.240552,3.59911 -0.317091,0.24557 -14.544517,0.22962 -14.748809,-0.0165 z m 18.751624,0.0381 c -0.198976,-0.11589 -0.22225,-0.37516 -0.22225,-2.47578 v -2.34633 l 0.323776,-0.12311 c 0.198658,-0.0755 3.071468,-0.11112 7.434177,-0.0921 6.15785,0.0268 7.12689,0.0565 7.23349,0.22149 0.14268,0.2208 0.0968,4.55775 -0.0507,4.79646 -0.12553,0.20313 -14.370842,0.22186 -14.718503,0.0194 z m 6.191253,-5.79916 c -5.906715,-0.0305 -5.971322,-0.0337 -6.191253,-0.29983 -0.259624,-0.31421 -0.301176,-1.32566 -0.07486,-1.82236 0.126544,-0.27773 0.229805,-0.32374 0.73025,-0.32537 0.320574,-0.001 3.554087,-0.005 7.185583,-0.008 l 6.60272,-0.006 0.22353,0.27605 c 0.2652,0.32751 0.29797,1.2993 0.0597,1.7719 -0.14982,0.29725 -0.2368,0.32156 -1.36337,0.381 -0.66184,0.0349 -3.88939,0.0496 -7.17234,0.0327 z m -24.828503,-0.28667 c -0.196876,-0.19687 -0.254,-0.42333 -0.254,-1.00693 0,-0.7866 0.192108,-1.14903 0.612321,-1.15519 0.117248,-0.002 3.327854,-0.002 7.134678,0 6.882161,0.004 6.922764,0.005 7.14375,0.27119 0.286276,0.34477 0.301076,1.46748 0.02455,1.86227 l -0.197703,0.28226 h -7.104798 c -6.935465,0 -7.110852,-0.006 -7.358798,-0.254 z m 0.396334,-3.30432 c -0.236042,-0.0546 -0.483087,-0.17646 -0.548987,-0.27074 -0.21283,-0.30451 0.222287,-17.05614 0.45251,-17.42126 0.138345,-0.21941 0.490959,-0.23196 6.583396,-0.23424 3.540472,-0.001 6.500875,0.0369 6.578673,0.085 0.102284,0.0632 0.116812,1.27761 0.05246,4.38575 l -0.08899,4.29833 0.50872,0.61098 c 0.938961,1.12771 0.922375,1.04288 0.929412,4.75324 0.0061,3.20547 -0.0037,3.34288 -0.256578,3.59579 -0.258863,0.25891 -0.366696,0.26321 -7.02218,0.27969 -3.717603,0.009 -6.952403,-0.028 -7.188444,-0.0826 z m 9.355522,-3.42297 c 0.433868,-0.22047 0.851023,-0.51703 0.927009,-0.65901 0.07599,-0.14198 0.140239,-0.80548 0.142783,-1.47444 0.0039,-1.03155 -0.03037,-1.24189 -0.225785,-1.38478 -0.315373,-0.2306 -6.15023,-0.24531 -6.379464,-0.0161 -0.181279,0.18128 -0.210843,2.34435 -0.03825,2.79831 0.124865,0.32842 1.456945,1.06198 2.108346,1.16104 0.20955,0.0319 0.897489,0.0395 1.528752,0.0169 0.98993,-0.0354 1.256224,-0.0962 1.936605,-0.44192 z m 9.488644,3.46241 c -0.833865,-0.12775 -0.8255,-0.0875 -0.8255,-3.97094 v -3.51346 l 0.474891,-0.56261 c 0.26119,-0.30943 0.54694,-0.63813 0.635,-0.73043 0.209693,-0.21979 0.19864,0.033 0.211982,-4.84868 l 0.01163,-4.2545 1.5875,-0.0962 c 0.873125,-0.0529 3.81635,-0.0787 6.5405,-0.0574 l 4.953,0.0387 0.14758,0.31144 c 0.0982,0.20729 0.19383,2.22249 0.28587,6.02643 0.23849,9.85694 0.25,11.00657 0.11325,11.3067 -0.11694,0.25668 -0.24126,0.2898 -1.29056,0.34384 -1.50386,0.0775 -12.346733,0.0834 -12.84514,0.007 z m 8.924913,-3.48954 c 0.42702,-0.23159 0.83674,-0.55236 0.91049,-0.7128 0.0737,-0.16045 0.1341,-0.82996 0.1341,-1.48779 0,-1.05252 -0.0295,-1.21183 -0.24565,-1.32752 -0.1493,-0.0799 -1.41349,-0.13147 -3.22295,-0.13147 -2.555481,0 -3.000839,0.0284 -3.143428,0.20017 -0.212226,0.25572 -0.299089,2.1122 -0.123593,2.64149 0.09578,0.28887 0.312997,0.49453 0.798347,0.7559 0.945154,0.50896 1.385314,0.59185 2.836024,0.53409 1.15828,-0.0461 1.35422,-0.0911 2.05666,-0.47207 z m -13.03506,-9.61126 c -0.290245,-0.29024 -0.315844,-0.72819 -0.284588,-4.8686 0.01054,-1.39624 -0.0057,-1.49763 -0.270033,-1.68275 -0.244932,-0.17156 -1.093658,-0.197 -6.572693,-0.197 h -6.291444 l -0.628899,-0.41275 c -0.371097,-0.24355 -0.786986,-0.66887 -1.014548,-1.03755 -0.369052,-0.59791 -0.38759,-0.69594 -0.430761,-2.27793 -0.04026,-1.47537 -0.02058,-1.67107 0.183023,-1.81995 0.320395,-0.23428 33.321153,-0.24846 33.555193,-0.0144 0.10458,0.10459 0.15233,0.73213 0.1522,2.00025 -2.5e-4,2.18118 -0.11291,2.51538 -1.06191,3.1496 l -0.6176,0.41275 h -6.50646 c -6.14207,0 -6.518238,0.013 -6.71665,0.23225 -0.183571,0.20284 -0.210183,0.62726 -0.210183,3.35191 0,2.85251 -0.01903,3.12729 -0.22225,3.20874 -0.122238,0.049 -0.800229,0.12007 -1.506647,0.15794 -1.191847,0.0639 -1.30395,0.0493 -1.55575,-0.20249 z m -22.160451,-6.08357 c -0.192508,-0.31149 -0.589784,-1.54069 -0.589839,-1.82501 -3.4e-5,-0.18411 0.08531,-0.49843 0.189654,-0.6985 0.104463,-0.2003 0.19007,-0.69573 0.1905,-1.10249 6.35e-4,-0.60196 -0.06079,-0.81945 -0.331791,-1.17475 -0.30361,-0.39806 -0.390022,-0.43603 -0.99224,-0.43603 -0.554197,0 -0.712935,0.0558 -0.992846,0.34925 -0.49482,0.51869 -0.629771,0.99335 -0.622841,2.19075 0.0048,0.83631 -0.05756,1.23478 -0.277003,1.76879 -0.155788,0.37911 -0.339253,0.70796 -0.407703,0.73078 -0.252021,0.084 -1.40471,-1.08567 -1.757972,-1.78388 -0.3184,-0.62931 -0.354138,-0.81739 -0.310515,-1.63417 0.07974,-1.49296 0.671231,-2.49383 2.234206,-3.78052 0.504251,-0.41511 0.552488,-0.51166 0.729695,-1.4605 0.104362,-0.5588 0.189758,-1.07886 0.189771,-1.1557 1.1e-5,-0.0768 -0.385741,-0.3005 -0.857229,-0.49704 -1.245449,-0.51917 -1.219299,-0.48366 -1.130416,-1.53513 0.04219,-0.49908 0.139566,-1.07182 0.216397,-1.27277 0.07683,-0.20095 0.219812,-0.97275 0.317734,-1.71511 0.09792,-0.74237 0.240534,-1.51389 0.316918,-1.7145 0.07639,-0.20061 0.193166,-0.85053 0.259512,-1.44425 0.140076,-1.2535 0.443541,-2.2738 0.706282,-2.37462 0.101061,-0.0388 0.309427,0.0414 0.463035,0.17812 0.466822,0.41558 1.22554,0.80002 2.218753,1.12424 0.848464,0.27697 1.553036,0.31046 1.553036,0.0738 0,-0.12919 -0.66616,-0.72166 -1.016,-0.90361 -0.174625,-0.0908 -0.403225,-0.24425 -0.508,-0.34096 -0.184114,-0.16994 -0.561497,-0.45493 -1.64483,-1.24211 -0.418738,-0.30427 -0.514171,-0.4502 -0.514171,-0.78626 0,-0.22695 0.04968,-0.44334 0.110399,-0.48087 0.06072,-0.0375 0.875108,-1.58458 1.80975,-3.4379 0.934644,-1.85333 1.899377,-3.764 2.143852,-4.24596 0.244475,-0.48196 0.50165,-0.99104 0.5715,-1.1313 1.191251,-2.391993 1.680949,-2.935383 2.999143,-3.327953 0.489721,-0.14585 0.986805,-0.24682 1.104629,-0.22438 0.323909,0.0617 0.340202,1.38101 0.03707,3.00175 -0.139335,0.744973 -0.289805,1.897413 -0.334377,2.560993 -0.04457,0.66357 -0.156573,1.52081 -0.248889,1.90499 -0.09232,0.38417 -0.234555,1.44132 -0.316087,2.34922 -0.08153,0.90789 -0.224508,1.99374 -0.317722,2.413 -0.09322,0.41925 -0.208025,1.3052 -0.25513,1.96878 -0.04711,0.66357 -0.168349,1.60357 -0.269429,2.08887 -0.101081,0.4853 -0.239903,1.57349 -0.308496,2.4182 -0.06859,0.8447 -0.18161,1.73351 -0.251152,1.97513 -0.06954,0.24161 -0.213513,1.34769 -0.319939,2.45795 -0.133736,1.39517 -0.261006,2.13327 -0.412061,2.38975 -0.214526,0.36424 -0.232626,0.36938 -0.98056,0.27848 -1.131802,-0.13757 -1.227805,-0.13213 -1.335247,0.0756 -0.08665,0.16756 -0.263964,0.91671 -0.450875,1.905 -0.04792,0.25337 0.09424,0.48423 0.703853,1.143 0.420145,0.45403 0.764096,0.90007 0.764334,0.99122 2.54e-4,0.0911 0.121623,0.43174 0.269743,0.75688 0.21883,0.48037 0.254534,0.73252 0.190486,1.34529 -0.04335,0.41476 -0.130377,0.81711 -0.19339,0.89411 -0.06301,0.077 -0.175857,0.36932 -0.250763,0.6496 -0.224325,0.83936 -1.82647,2.17351 -2.092739,1.74268 z m 46.791861,-0.0415 c -0.71464,-0.28568 -1.49785,-1.3961 -1.68294,-2.38601 -0.15278,-0.81716 -0.0552,-2.25374 0.19359,-2.849 0.093,-0.22262 0.47145,-0.7355 0.84093,-1.13974 l 0.67177,-0.73496 -0.0858,-0.83718 c -0.0885,-0.86389 -0.33281,-1.50405 -0.60914,-1.59616 -0.087,-0.029 -0.38822,-0.008 -0.66942,0.0465 -0.28121,0.0546 -0.69443,0.1017 -0.91828,0.10474 -0.37342,0.005 -0.41329,-0.0338 -0.48334,-0.47072 -0.042,-0.26194 -0.18289,-1.04775 -0.31311,-1.74625 -0.13023,-0.6985 -0.27393,-1.78435 -0.31936,-2.413 -0.0454,-0.62865 -0.1625,-1.57163 -0.26018,-2.0955 -0.0977,-0.52388 -0.24018,-1.60973 -0.31666,-2.413 -0.0765,-0.80328 -0.19002,-1.66053 -0.2523,-1.905 -0.0623,-0.24448 -0.175,-1.07315 -0.2505,-1.8415 -0.0755,-0.76835 -0.21948,-1.88278 -0.31997,-2.4765 -0.10049,-0.59373 -0.2438,-1.7653 -0.31847,-2.6035 -0.0747,-0.8382 -0.18755,-1.69544 -0.25085,-1.90499 -0.0633,-0.20955 -0.17892,-1.0668 -0.25697,-1.905 -0.078,-0.838203 -0.22716,-1.943573 -0.33138,-2.456373 -0.10422,-0.5128 -0.15298,-1.09859 -0.10836,-1.30175 0.10054,-0.45774 0.37505,-0.47641 1.5281,-0.1039 0.93012,0.30049 1.77591,1.03297 2.14002,1.85331 0.11832,0.26659 0.28108,0.59901 0.36168,0.73871 0.46,0.797283 4.40492,8.603273 4.40967,8.725603 0.002,0.0493 0.14635,0.30015 0.32098,0.55747 0.56016,0.82544 0.43102,1.15619 -0.7639,1.95642 -0.15645,0.10477 -0.62008,0.41555 -1.03028,0.69061 -0.4102,0.27506 -0.93645,0.68477 -1.16945,0.91046 -0.42159,0.40837 -0.42229,0.41107 -0.14649,0.55867 0.41559,0.22242 2.23583,-0.38782 3.0305,-1.01597 0.457,-0.36123 0.69155,-0.46582 0.93872,-0.41857 0.34808,0.0665 0.35437,0.0852 0.54713,1.6243 0.0437,0.34925 0.15711,0.92075 0.25193,1.27 0.0948,0.34925 0.23566,1.12077 0.31298,1.7145 0.0773,0.59372 0.21594,1.36525 0.30804,1.7145 0.19781,0.75018 0.50066,2.9775 0.41631,3.06184 -0.0322,0.0323 -0.48047,0.27306 -0.99606,0.53514 l -0.93743,0.47651 0.0373,0.75725 c 0.0554,1.12292 0.22266,1.50642 0.89001,2.04011 1.37388,1.09872 1.90091,1.92097 2.01511,3.14389 0.12916,1.38314 -0.0321,2.15116 -0.60363,2.87415 -0.27521,0.34815 -0.72416,0.74718 -0.99768,0.88672 l -0.49732,0.25371 -0.12546,-0.41066 c -0.25915,-0.84818 -0.40366,-1.69898 -0.38255,-2.25216 0.0308,-0.8063 -0.23163,-1.62986 -0.65383,-2.05207 -0.30083,-0.30082 -0.46723,-0.36093 -0.99924,-0.36093 -0.57459,0 -0.67064,0.0424 -0.96227,0.42474 -0.38531,0.50517 -0.4177,1.09386 -0.12337,2.24274 0.22955,0.896 0.0983,1.77879 -0.34912,2.34755 -0.27699,0.35213 -0.29106,0.3556 -0.72971,0.18025 z m -41.670578,-7.42238 c -0.179497,-0.21628 -0.09224,-2.80674 0.130327,-3.8689 0.06586,-0.31432 0.209379,-1.59665 0.318926,-2.8496 0.109548,-1.25296 0.251793,-2.51289 0.316101,-2.79984 0.06431,-0.28696 0.178972,-1.29064 0.254808,-2.2304 0.07584,-0.93976 0.218349,-2.19444 0.316693,-2.78816 0.09834,-0.59373 0.239931,-1.8796 0.314635,-2.8575 0.07471,-0.9779 0.190318,-2.0066 0.256918,-2.286 0.0666,-0.2794 0.18128,-1.38783 0.254844,-2.46318 0.07356,-1.07535 0.184131,-2.18978 0.245705,-2.476503 0.06158,-0.28672 0.151186,-0.87757 0.199135,-1.31299 0.066,-0.59936 0.17676,-0.90439 0.455952,-1.25571 0.202824,-0.25522 0.370299,-0.49904 0.372166,-0.54182 0.0019,-0.0428 0.239273,-0.33497 0.527568,-0.64929 0.288294,-0.31433 0.83105,-0.95098 1.206124,-1.41478 0.608091,-0.75195 0.74279,-0.85241 1.243655,-0.92752 0.775031,-0.11622 1.042319,0.0532 2.569315,1.62894 0.712556,0.73528 1.512656,1.44816 1.778,1.58418 0.265343,0.13601 0.653892,0.42769 0.863442,0.64818 0.20955,0.2205 0.628626,0.51185 0.93128,0.64745 0.515673,0.23104 0.876095,0.24655 5.73124,0.24655 5.735504,0 5.669245,0.008 6.658318,-0.83827 0.27741,-0.23745 0.582656,-0.43173 0.678326,-0.43173 0.48693,0 0.97696,-0.3933 2.37352,-1.905 1.05801,-1.14524 1.42224,-1.397 2.02113,-1.397 0.45097,0 0.60235,0.0969 1.51692,0.97064 0.55877,0.53385 1.40998,1.38545 1.89157,1.89244 0.82157,0.86489 0.88731,0.97782 1.06487,1.82941 0.10408,0.49918 0.27266,1.890723 0.37463,3.092313 0.10196,1.20158 0.23903,2.41329 0.30459,2.69269 0.0656,0.2794 0.18075,1.3081 0.25597,2.286 0.0752,0.9779 0.21752,2.17805 0.31621,2.667 0.0987,0.48895 0.21823,1.51765 0.26564,2.286 0.0474,0.76835 0.16604,1.78299 0.26361,2.25476 0.0976,0.47177 0.2351,1.58619 0.30563,2.4765 0.0705,0.89031 0.20835,2.07594 0.30628,2.63474 0.0979,0.5588 0.21721,1.7018 0.26505,2.54 0.0478,0.8382 0.1413,1.77452 0.20769,2.08071 0.0997,0.45968 0.0833,0.59802 -0.0938,0.79375 -0.20753,0.22931 -0.81558,0.23704 -18.657786,0.23704 -16.432238,0 -18.460922,-0.0213 -18.605182,-0.1951 z m 31.352008,-3.05829 c 0.52783,-0.10556 0.64929,-0.52807 0.64294,-2.23636 -0.004,-1.12878 -0.0451,-1.41174 -0.23886,-1.651 l -0.23379,-0.28875 -12.814435,-0.0335 -12.814433,-0.0335 -0.28136,0.2995 c -0.241481,0.25704 -0.2872,0.4688 -0.322563,1.49403 -0.0512,1.48429 0.01283,1.93405 0.322671,2.26663 0.242657,0.26046 0.288628,0.2614 12.795709,0.2614 6.903698,0 12.728551,-0.0353 12.944121,-0.0784 z m -3.28119,-8.04683 c 0.16252,-0.10266 0.19582,-0.79896 0.22671,-4.74097 0.0341,-4.35732 0.0227,-4.63739 -0.20166,-4.9144 l -0.23786,-0.29375 -8.561349,0.012 c -4.70874,0.007 -8.912419,0.0157 -9.341507,0.0202 -0.619355,0.006 -0.798621,0.054 -0.86971,0.23039 -0.151083,0.37498 -0.07291,9.45725 0.08302,9.64514 0.110736,0.13342 1.942532,0.16524 9.424651,0.16367 5.625967,-0.001 9.362305,-0.0494 9.477705,-0.12228 z m -16.778451,-1.1208 c -0.207909,-0.0241 -0.38587,-0.15686 -0.47625,-0.35522 -0.188748,-0.41426 -0.200164,-6.56708 -0.01283,-6.91711 0.116429,-0.21755 0.275735,-0.24565 1.392532,-0.24565 1.116798,0 1.276104,0.0281 1.392532,0.24565 0.200989,0.37555 0.176195,6.75956 -0.02728,7.02453 -0.155999,0.20315 -1.442504,0.34367 -2.268697,0.2478 z m 5.855,-0.34629 c -0.201278,-0.5294 -0.155955,-6.6765 0.05124,-6.94944 0.138573,-0.18255 0.371782,-0.22225 1.305513,-0.22225 1.764673,0 1.680925,-0.18139 1.685765,3.65112 0.0029,2.29014 -0.03966,3.22956 -0.156749,3.46088 -0.153614,0.30347 -0.218169,0.3191 -1.460467,0.35371 -1.296803,0.0361 -1.300034,0.0355 -1.4253,-0.29402 z m 6.552181,0.0434 c -0.170314,-0.24316 -0.200733,-0.78032 -0.200733,-3.54478 0,-2.87484 0.02469,-3.2787 0.209871,-3.43249 0.146815,-0.12193 0.588626,-0.1743 1.47051,-0.1743 1.082532,0 1.285092,0.0334 1.433662,0.23631 0.24244,0.33113 0.26497,6.3428 0.0255,6.81219 -0.1546,0.30306 -0.22054,0.31914 -1.45003,0.35358 -1.213466,0.034 -1.299691,0.0195 -1.4888,-0.25051 z M 87.946861,96.503247 c -0.135744,-0.21964 -0.22851,-1.05201 -0.154478,-1.3861 0.04377,-0.19755 0.292185,-0.59666 0.552022,-0.88692 0.259837,-0.29025 1.015356,-1.14542 1.678931,-1.90036 1.877565,-2.13609 1.634288,-1.98245 3.060088,-1.9326 1.221108,0.0427 1.221441,0.0428 1.588889,0.48699 0.202138,0.24435 0.483163,0.56262 0.6245,0.70724 0.141337,0.14463 0.707906,0.80196 1.259042,1.46072 0.551134,0.65876 1.107007,1.29999 1.235273,1.42495 0.174071,0.16958 0.233209,0.41653 0.233209,0.97386 0,1.26151 0.500749,1.14844 -5.086093,1.14844 -2.712555,0 -4.958677,-0.0433 -4.991383,-0.0962 z m -17.503956,-0.89433 c -0.493519,-0.0588 -1.455448,-0.9559 -1.63066,-1.52069 -0.08075,-0.2603 -0.238963,-0.67329 -0.351589,-0.91776 -0.157503,-0.34189 -0.206055,-0.8696 -0.210321,-2.286 l -0.0055,-1.8415 0.697523,-1.18111 c 0.928011,-1.57138 1.382228,-2.37042 2.18024,-3.83539 0.133172,-0.24448 0.380592,-0.6731 0.549821,-0.9525 0.169229,-0.2794 0.381429,-0.65088 0.471557,-0.8255 0.09013,-0.17463 0.40654,-0.72752 0.703138,-1.22866 0.296597,-0.501137 0.539269,-0.963767 0.539269,-1.028067 0,-0.0643 0.11106,-0.217417 0.246802,-0.34026 0.135741,-0.122844 0.283013,-0.388221 0.327271,-0.589727 0.04426,-0.201507 0.126345,-0.394727 0.182414,-0.429381 0.100552,-0.06214 1.912305,-3.181836 2.730909,-4.702407 0.112813,-0.20955 0.377304,-0.695325 0.587761,-1.0795 0.286631,-0.523226 0.412389,-0.969377 0.501173,-1.778 0.06519,-0.593725 0.202733,-1.36525 0.305657,-1.7145 0.102924,-0.34925 0.270929,-0.977901 0.373346,-1.397001 0.321216,-1.314461 0.573034,-2.114142 0.838278,-2.662066 0.141015,-0.291295 0.256389,-0.618886 0.256389,-0.72798 0,-0.109095 0.08351,-0.267662 0.185581,-0.352372 0.10207,-0.08471 0.222088,-0.277445 0.266707,-0.428301 0.07981,-0.269851 0.199836,-0.471378 1.108813,-1.861781 0.54714,-0.836924 1.849213,-2.196043 2.634115,-2.749525 1.330713,-0.938365 2.972121,-1.736741 4.019077,-1.954869 0.291938,-0.06082 0.810648,-0.202123 1.152689,-0.314 0.356967,-0.116757 0.915327,-0.186732 1.310705,-0.164258 l 0.688816,0.03915 0.0325,10.262194 c 0.02279,7.195885 -0.0087,10.33916 -0.105358,10.519786 -0.122846,0.22954 -0.160964,0.237197 -0.350002,0.0703 -0.328464,-0.289987 -1.727219,-0.797136 -3.200383,-1.160368 -1.08465,-0.26744 -1.660384,-0.331792 -3.048,-0.340689 -1.011542,-0.0065 -1.84053,0.04706 -2.028261,0.131004 -1.086639,0.485907 -2.376821,1.53804 -3.24894,2.649485 -0.343508,0.437772 -0.753147,0.960425 -0.910309,1.161451 -0.157163,0.201026 -0.28575,0.40558 -0.28575,0.454565 0,0.04898 -0.128588,0.268148 -0.28575,0.487031 -0.434891,0.605686 -1.49225,2.606926 -1.49225,2.824346 0,0.0434 -0.1143,0.22414 -0.254,0.40174 -0.1397,0.1776 -0.254,0.41567 -0.254,0.52905 0,0.11337 -0.142875,0.47452 -0.3175,0.80255 -0.174625,0.32803 -0.3175,0.66422 -0.3175,0.74708 0,0.0829 -0.108612,0.38552 -0.241361,0.67257 -0.132748,0.28705 -0.420363,1.00768 -0.639142,1.60141 -0.218779,0.59372 -0.481642,1.23119 -0.584139,1.41659 -0.102498,0.18541 -0.18688,0.41401 -0.187519,0.508 -6.35e-4,0.094 -0.141727,0.45666 -0.313529,0.80591 -0.171802,0.34925 -0.314155,0.7053 -0.316339,0.79123 -0.0043,0.17095 -0.55794,1.64907 -0.845217,2.25677 -0.09906,0.20955 -0.225454,0.55086 -0.280874,0.75847 -0.107107,0.40122 -0.49474,0.55594 -1.186312,0.47348 z m 44.838395,-0.097 c -0.31302,-0.16752 -0.60882,-0.64255 -0.61546,-0.98836 -0.002,-0.12892 -0.0884,-0.38609 -0.19086,-0.5715 -0.1025,-0.1854 -0.3644,-0.82287 -0.58201,-1.41659 -0.21761,-0.59373 -0.4733,-1.25095 -0.5682,-1.4605 -0.22931,-0.50632 -0.81319,-2.0097 -0.95001,-2.44607 -0.06,-0.19136 -0.43107,-1.11946 -0.8246,-2.06243 -0.39353,-0.94298 -0.77805,-1.88595 -0.85449,-2.0955 -0.0764,-0.20955 -0.24414,-0.5173 -0.37266,-0.68388 -0.12852,-0.16658 -0.23367,-0.39675 -0.23367,-0.51149 0,-0.11474 -0.0991,-0.34992 -0.22018,-0.52262 -0.20037,-0.28576 -0.321,-0.49766 -0.87604,-1.538899 -0.0985,-0.184737 -0.26359,-0.406047 -0.36692,-0.4918 -0.10332,-0.08575 -0.18786,-0.210326 -0.18786,-0.276831 0,-0.125307 -1.17508,-1.703319 -1.68367,-2.260982 -0.51492,-0.564623 -1.53739,-1.336002 -2.25333,-1.699984 -0.67321,-0.342259 -0.76552,-0.354796 -2.5495,-0.346306 -1.44518,0.0069 -2.029906,0.06268 -2.667003,0.254529 -0.4488,0.135146 -1.016025,0.282875 -1.2605,0.328284 -0.244475,0.04541 -0.916323,0.288159 -1.492996,0.539443 -0.576671,0.251282 -1.091021,0.414366 -1.143,0.362408 -0.155631,-0.155571 -0.183777,-20.361918 -0.02877,-20.651558 0.180228,-0.336761 1.178637,-0.334193 2.263325,0.0058 0.442787,0.1388 0.929408,0.252362 1.081381,0.252362 0.151975,0 0.475494,0.106301 0.718936,0.236224 0.24344,0.129923 0.585497,0.279491 0.760117,0.332374 0.77828,0.235687 2.39854,1.344879 3.44711,2.359818 1.93086,1.868919 3.33983,4.350204 4.0703,7.168084 0.0724,0.2794 0.23408,0.8509 0.35922,1.27 0.12515,0.4191 0.26427,1.133475 0.30916,1.5875 0.0997,1.008241 0.52608,2.61705 0.80784,3.048001 0.25662,0.392524 0.37476,0.593956 1.48387,2.530112 0.48895,0.853554 1.01402,1.762173 1.16682,2.019152 0.52873,0.889185 0.74059,1.271415 1.29011,2.327508 0.30356,0.5834 0.62349,1.146453 0.71095,1.251221 0.0875,0.10478 0.19651,0.27623 0.24235,0.381 0.0458,0.10478 0.25464,0.47625 0.46401,0.8255 0.20937,0.34925 0.49783,0.8636 0.64104,1.143 0.31618,0.61689 0.74503,1.37107 1.56918,2.7596 1.63051,2.74707 1.7139,3.07702 1.42086,5.6224 -0.19218,1.66948 -0.45437,2.31582 -1.24388,3.06653 -0.46591,0.44302 -1.18518,0.59836 -1.64098,0.35442 z m -29.790038,-1.02999 c -0.386372,-0.40698 -1.02292,-1.07723 -1.414551,-1.48945 -0.971042,-1.02208 -1.458626,-1.21506 -3.29344,-1.30352 -1.491245,-0.0719 -1.69953,-0.0474 -3.811451,0.44802 -1.029429,0.24149 -1.052541,0.2416 -1.178699,0.006 -0.09493,-0.17737 -0.06458,-0.39894 0.115664,-0.84467 0.308943,-0.76396 0.751933,-2.10245 0.91452,-2.76322 0.06875,-0.2794 0.20465,-0.67945 0.302002,-0.889 0.09735,-0.20955 0.358215,-0.86677 0.579694,-1.4605 0.528102,-1.4157 1.980751,-4.3205 2.611549,-5.222215 0.807082,-1.153706 2.20425,-2.524787 2.572821,-2.524787 0.06596,0 0.283626,-0.08537 0.483698,-0.189718 1.007655,-0.525528 1.682492,-0.0017 1.187531,0.921788 -1.002557,1.870554 0.851962,3.443452 4.331928,3.674112 0.802102,0.0532 1.049686,0.0206 1.468995,-0.19334 0.798542,-0.40739 0.868313,-0.55618 0.868313,-1.851798 0,-1.10864 0.01163,-1.156194 0.292597,-1.196025 0.160928,-0.02281 0.574214,0.105775 0.918412,0.28575 0.772899,0.404138 0.82335,0.404146 1.406223,2.54e-4 0.303931,-0.210624 0.600171,-0.312328 0.832326,-0.28575 l 0.360443,0.04123 v 1.16079 c 0,1.335909 0.115465,1.550039 1.022644,1.896499 1.011021,0.38611 3.113045,0.0861 4.592569,-0.65555 1.15934,-0.58112 1.60363,-1.765524 1.06115,-2.828874 -0.20425,-0.40036 -0.21961,-0.531923 -0.0921,-0.788691 0.2064,-0.415556 0.60146,-0.446306 1.48566,-0.115637 0.89287,0.333915 1.97388,1.356182 2.86844,2.712593 0.32822,0.497679 0.73027,1.107969 0.89344,1.356189 0.16317,0.24823 0.29667,0.49494 0.29667,0.54825 0,0.0533 0.253,0.62173 0.56222,1.26317 0.30922,0.64144 0.60374,1.33771 0.65449,1.54726 0.0508,0.20955 0.1978,0.58018 0.32678,0.82362 0.12898,0.24344 0.23451,0.53003 0.23451,0.63688 0,0.10684 0.11025,0.39997 0.24501,0.6514 0.13476,0.25143 0.28411,0.66554 0.33189,0.92025 0.0478,0.2547 0.1947,0.67459 0.32649,0.93308 0.13178,0.25849 0.23961,0.6039 0.23961,0.76759 0,0.16369 0.11142,0.5422 0.2476,0.84114 0.22172,0.48671 0.23487,1.10061 0.0233,1.0892 -0.0442,-0.002 -0.53764,-0.11995 -1.09644,-0.26126 -1.87299,-0.47364 -2.27933,-0.52461 -3.683,-0.46201 -2.0203,0.0901 -2.25597,0.20835 -4.01368,2.01401 -1.02724,1.05526 -1.53398,1.49074 -1.672713,1.4375 -0.188719,-0.0724 -1.660069,-1.64305 -3.330609,-3.55534 -0.4191,-0.47976 -1.002979,-1.12205 -1.297509,-1.42732 -0.627956,-0.65085 -0.990844,-1.20921 -1.224479,-1.88405 -0.183243,-0.52929 -0.559986,-0.69591 -1.26938,-0.5614 -0.292914,0.0555 -0.406685,0.18565 -0.593587,0.67884 -0.213404,0.56312 -0.82178,1.42857 -1.45162,2.06502 -0.295368,0.29846 -1.055373,1.147 -2.164426,2.41655 -1.285189,1.47119 -1.883908,2.09756 -2.131719,2.23018 -0.198666,0.10633 -0.351874,0.006 -0.939855,-0.61292 z m 15.457858,-3.38455 c 1.23826,-1.21395 2.01686,-1.60991 3.16569,-1.60991 0.47442,0 1.10556,0.0857 1.40253,0.1905 0.61813,0.21809 1.09406,0.24542 1.20304,0.0691 0.13096,-0.21189 -0.26643,-0.96312 -0.76623,-1.44852 -0.26543,-0.25778 -0.84305,-0.64615 -1.28361,-0.86303 -0.70748,-0.34829 -0.92397,-0.39343 -1.854,-0.38657 -1.2644,0.009 -2.10595,0.36441 -2.80825,1.18489 -0.709325,0.82869 -0.874781,1.28923 -0.818841,2.27922 0.03948,0.69871 0.10803,0.92989 0.353077,1.19073 0.167248,0.17803 0.338688,0.32369 0.380978,0.32369 0.04229,0 0.503816,-0.41854 1.025616,-0.93009 z m -13.867389,0.23159 c 0.104914,-0.31371 0.147883,-0.83512 0.112346,-1.3633 -0.054,-0.8026 -0.09491,-0.89903 -0.664126,-1.5653 -0.877396,-1.027 -1.679621,-1.3716 -3.154846,-1.35519 -0.792891,0.009 -1.185491,0.0673 -1.333501,0.19875 -0.115373,0.10244 -0.409793,0.27456 -0.654268,0.3825 -0.567773,0.25068 -0.856521,0.51145 -1.384742,1.25058 -0.58394,0.8171 -0.484918,1.05319 0.392892,0.93674 0.360132,-0.0478 0.755442,-0.14073 0.878468,-0.20657 0.123026,-0.0658 0.563076,-0.11971 0.977889,-0.11971 1.189957,0 2.384652,0.62718 3.490766,1.83256 0.691903,0.754 1.089058,0.75665 1.339122,0.009 z M 92.588355,78.554478 92.055336,78.162491 V 67.521028 c 0,-9.763088 0.01741,-10.655851 0.210958,-10.815764 0.262394,-0.216801 1.749097,-0.20161 2.016852,0.02061 0.161936,0.134394 0.18233,1.566503 0.154158,10.824657 -0.03195,10.500145 -0.03648,10.67201 -0.28501,10.810604 -0.138897,0.07746 -0.389492,0.240846 -0.556877,0.363083 -0.393653,0.287477 -0.382877,0.289293 -1.007062,-0.169737 z"
       id="path2081"
       sodipodi:nodetypes="sscccssscssscsscccssssssccsscscssscssscssscsscssssssscssscsssccsscsccssssccssscscssscsssssscccssssssscssssssssssssssssssssssscsssssscsccssssssscssssscssscsssssscssssssssssssssscscsssscscccssccccscccscscccscccscscccssccscssscccssssssccsscscssscscccsscccssssscsssssssscssssscscssssssscsssssccsssssssssssssscsssssscsscsssssssssssssssssssssscccscsccsccsscssssscscssssscssssssccssscsccsssscscsssssccsssssssssssscsssssssscssssssscsssccccccssscsscccssssccsssccccscsssssssssssssscssssssssssssssssssssssssssccssssssssssssssssssssssscssssccsssssssssssssscsssscccsssscssccsssscsssssssssscsssscsccssscscccssscsssssscsccssscccsscssssssscssscssscssscssscssssccsscssscsssssscssccssccssccccsssssssc" />
    <rect
       style="fill:none;fill-opacity:0.118519;stroke:#000000;stroke-width:0.2;stroke-linecap:round;stroke-miterlimit:4;stroke-dasharray:none;stroke-opacity:1"
       id="rect2442"
       width="98.936455"
       height="127.53081"
       x="44.416557"
       y="47.657253" />
  </g>
</svg>
