<?xml version="1.0" encoding="UTF-8" standalone="no"?>
<!-- Created with Inkscape (http://www.inkscape.org/) -->

<svg
   width="210mm"
   height="297mm"
   viewBox="0 0 210 297"
   version="1.1"
   id="svg9035"
   inkscape:version="1.1 (c68e22c387, 2021-05-23)"
   sodipodi:docname="DarthVader2.svg"
   xmlns:inkscape="http://www.inkscape.org/namespaces/inkscape"
   xmlns:sodipodi="http://sodipodi.sourceforge.net/DTD/sodipodi-0.dtd"
   xmlns="http://www.w3.org/2000/svg"
   xmlns:svg="http://www.w3.org/2000/svg">
  <sodipodi:namedview
     id="namedview9037"
     pagecolor="#ffffff"
     bordercolor="#666666"
     borderopacity="1.0"
     inkscape:pageshadow="2"
     inkscape:pageopacity="0.0"
     inkscape:pagecheckerboard="0"
     inkscape:document-units="mm"
     showgrid="false"
     inkscape:zoom="0.69397447"
     inkscape:cx="334.30625"
     inkscape:cy="561.25984"
     inkscape:window-width="1920"
     inkscape:window-height="1017"
     inkscape:window-x="-8"
     inkscape:window-y="-8"
     inkscape:window-maximized="1"
     inkscape:current-layer="layer1" />
  <defs
     id="defs9032" />
  <g
     inkscape:label="Ebene 1"
     inkscape:groupmode="layer"
     id="layer1">
    <path
       style="fill:#000000;stroke-width:1"
       d="m 112.0871,180.14308 c -0.53357,-0.44315 -1.44639,-1.22261 -2.02847,-1.73214 -0.58208,-0.50953 -1.4949,-1.30393 -2.02847,-1.76532 -2.3079,-1.99569 -5.04157,-4.49492 -7.26436,-6.64137 -0.807955,-0.78021 -1.063235,-1.408 -0.67109,-1.65036 0.14445,-0.0893 8.68199,-0.11886 25.88301,-0.0897 1.62621,0.003 1.6316,0.004 1.6316,0.44799 0,0.46598 -1.19842,1.74938 -3.52778,3.77794 -0.63059,0.54916 -1.50371,1.35583 -1.94027,1.7926 -0.43657,0.43676 -1.62719,1.47486 -2.64584,2.30689 -1.01864,0.83203 -2.24896,1.87774 -2.73403,2.32381 -0.48506,0.44607 -0.93396,0.81279 -0.99754,0.81492 -0.0636,0.002 -0.44812,0.28171 -0.85454,0.62125 -1.02949,0.86012 -1.58704,0.81932 -2.82222,-0.20652 z m 65.87176,-14.432 c 0.20726,-1.38212 -0.35907,-3.10871 -1.41806,-4.32328 -0.21147,-0.24254 -1.02997,-1.14647 -1.8189,-2.00873 -1.57195,-1.71807 -1.86927,-2.22113 -2.21923,-3.75496 -0.47726,-2.09178 -1.3296,-5.46123 -1.57614,-6.23076 -0.59595,-1.86017 -1.44213,-5.12081 -1.69146,-6.51781 -0.0961,-0.5383 -0.34056,-1.57403 -0.54332,-2.30163 -0.44076,-1.58171 -0.98286,-3.74871 -1.30171,-5.20347 -0.65428,-2.9852 -0.95315,-4.06969 -1.89581,-6.87917 -0.29295,-0.87313 -0.63356,-1.94469 -0.7569,-2.38125 -0.25289,-0.89507 -1.36245,-3.98308 -1.61955,-4.50736 -0.0926,-0.18884 -0.51893,-1.05771 -0.94741,-1.93084 -2.03596,-4.14883 -3.90421,-6.80121 -6.95619,-9.8758 -3.04494,-3.06751 -6.38809,-4.77245 -10.01204,-5.10593 -0.65592,-0.0604 -1.38582,-0.18321 -1.62198,-0.273 -1.29252,-0.49141 -11.27237,-1.01675 -11.90364,-0.6266 -0.0992,0.0613 -1.07481,0.22256 -2.16792,0.35828 -3.15057,0.39118 -5.31177,0.76493 -5.9674,1.03199 -0.89003,0.36254 -4.65043,1.07377 -4.98942,0.94369 -0.26765,-0.1027 -0.29039,-1.40744 -0.28259,-16.212709 0.0115,-21.937634 0.25906,-45.525172 0.48188,-45.923332 0.1448,-0.258746 0.46037,-0.326979 1.73945,-0.37611 1.73826,-0.06677 5.89192,0.359744 7.1188,0.730986 0.43656,0.132099 1.07156,0.296723 1.41111,0.365831 0.62654,0.127519 4.1654,1.218127 4.89833,1.50957 0.22023,0.08757 1.47695,0.522549 2.79272,0.966617 5.1683,1.744287 8.91881,4.241496 12.30444,8.192683 0.78967,0.921581 1.55482,1.795646 1.70034,1.942368 1.03059,1.039098 2.80112,3.815548 4.10435,6.436198 0.33771,0.679097 1.20688,2.396083 1.93149,3.815523 0.72461,1.41944 1.4053,2.967253 1.51264,3.439583 0.10735,0.472331 0.38677,1.573158 0.62093,2.446283 0.37539,1.399717 0.83911,3.397398 1.53543,6.614584 0.51671,2.387328 0.68498,3.132379 0.85649,3.792361 0.38738,1.490652 0.72654,3.609998 0.90327,5.644445 0.10113,1.164166 0.21847,2.235729 0.26075,2.38125 0.0423,0.145521 0.16111,1.256771 0.26405,2.469444 0.10294,1.212674 0.30128,2.879549 0.44075,3.704167 0.13948,0.824618 0.32951,2.015248 0.42229,2.645838 0.0928,0.63058 0.22381,1.28491 0.29115,1.45406 0.0891,0.22368 0.009,0.3503 -0.29286,0.46432 -0.3574,0.13492 -0.45736,0.0797 -0.71688,-0.39573 -0.53274,-0.97606 -4.66345,-6.020663 -6.56942,-8.022871 -1.02471,-1.076443 -7.32152,-6.198634 -7.62286,-6.200871 -0.0805,-5.29e-4 -0.37935,-0.122551 -0.66404,-0.271007 -0.28469,-0.148456 -0.80063,-0.337841 -1.14653,-0.420855 -0.3459,-0.08301 -1.102,-0.27856 -1.68021,-0.434548 -1.62256,-0.437729 -6.12402,-0.39448 -7.95541,0.07643 -2.548,0.655173 -5.19762,1.575687 -6.64164,2.307392 -0.88374,0.447809 -3.69563,2.80473 -4.21689,3.534595 -0.23072,0.32305 -0.70853,1.183028 -1.06182,1.911067 -0.92363,1.903386 -0.60061,1.99938 0.97491,0.289724 1.84019,-1.996862 4.4847,-3.733301 7.94118,-5.214344 1.38518,-0.593524 4.10536,-1.071814 6.09573,-1.071814 1.87049,0 4.88386,0.510501 5.78348,0.979789 0.26649,0.139017 0.6036,0.258522 0.74912,0.265567 0.14552,0.007 0.66146,0.242477 1.14653,0.523182 0.48507,0.280707 1.21043,0.663928 1.61192,0.851602 0.40148,0.187674 1.03648,0.670978 1.41111,1.074007 0.37462,0.40303 1.23676,1.183999 1.91585,1.735486 1.50115,1.219067 1.75028,1.472249 3.03876,3.088186 0.55773,0.69947 1.5758,1.906764 2.26238,2.682875 1.10148,1.245098 2.59807,3.059948 4.69346,5.691538 0.35529,0.44621 0.79784,1.0944 0.98343,1.44043 0.1856,0.34602 0.4254,0.78789 0.53289,0.98192 0.19851,0.3583 1.2684,3.7112 2.05439,6.43819 0.23768,0.82462 0.63892,2.09462 0.89165,2.82222 0.53288,1.5342 1.46702,4.5333 1.73062,5.55625 0.42447,1.64726 1.96736,6.30624 2.77465,8.37848 0.20787,0.53357 0.46308,1.20826 0.56713,1.4993 0.10405,0.29104 0.2481,0.60854 0.3201,0.70556 0.072,0.097 0.34299,0.73201 0.60222,1.41111 0.25922,0.6791 0.58567,1.44541 0.72544,1.70291 0.13977,0.2575 0.25413,0.57806 0.25413,0.71236 0,0.13429 0.1527,0.54367 0.33933,0.90973 0.18663,0.36607 0.419,0.87894 0.51637,1.13973 0.0974,0.26079 0.34665,0.91072 0.55395,1.4443 0.61346,1.57905 1.48134,4.27831 2.21184,6.87916 0.12261,0.43657 0.54639,1.82563 0.94173,3.08681 0.39533,1.26118 0.991,3.16618 1.32371,4.23333 0.33271,1.06716 0.73697,2.6812 0.89835,3.58677 0.27605,1.54903 0.27522,1.73176 -0.0141,3.08681 -0.56932,2.66641 -1.61123,4.4057 -2.86942,4.78999 -0.41167,0.12574 -0.41737,0.11218 -0.29526,-0.70209 z M 48.164825,165.23842 c -0.67214,-0.69395 -0.98563,-1.18836 -1.15886,-1.82769 -0.13062,-0.48202 -0.3242,-0.9876 -0.43019,-1.1235 -0.10598,-0.13591 -0.22111,-1.14219 -0.25584,-2.2362 -0.0723,-2.2787 -0.20513,-1.7167 2.1849,-9.24657 0.53888,-1.69774 1.13428,-3.60274 1.32311,-4.23333 1.56607,-5.22966 1.6372,-5.43051 2.88646,-8.15099 0.25439,-0.55397 0.69125,-1.62554 0.9708,-2.38125 0.27955,-0.7557 0.63296,-1.61214 0.78536,-1.90318 0.15239,-0.29104 0.722,-1.6801 1.26578,-3.0868 0.54378,-1.4067 1.05871,-2.7313 1.14428,-2.94354 0.2708,-0.67166 1.0076,-2.91631 1.40766,-4.28841 0.49383,-1.69369 0.93933,-3.15462 1.66746,-5.46805 0.32061,-1.01865 0.88282,-2.80459 1.24936,-3.96875 1.99508,-6.33657 2.69215,-8.00604 3.86659,-9.26042 0.31792,-0.33955 1.07249,-1.24731 1.67685,-2.01724 3.34443,-4.260736 8.46679,-9.685543 10.7699,-11.405802 0.81947,-0.612084 4.24028,-2.254085 4.97101,-2.386103 0.31992,-0.0578 1.01824,-0.229641 1.55182,-0.381871 1.38524,-0.395209 6.01874,-0.376882 7.58472,0.03 1.01772,0.26443 1.60158,0.493734 4.05695,1.593328 2.3831,1.067232 4.746655,2.87736 6.526375,4.998228 0.33955,0.404634 0.6769,0.738921 0.74966,0.74286 0.61805,0.03346 -0.6858,-2.832042 -1.84479,-4.054329 -1.334875,-1.407802 -2.853205,-2.672417 -3.598485,-2.997182 -0.39867,-0.173733 -1.16039,-0.521916 -1.69271,-0.773741 -0.53231,-0.251825 -1.07925,-0.460556 -1.21541,-0.463848 -0.13616,-0.0033 -0.56506,-0.159348 -0.95312,-0.346793 -0.38805,-0.187445 -0.85871,-0.343501 -1.04589,-0.346793 -0.18719,-0.0033 -0.82219,-0.156353 -1.41111,-0.340134 -2.5895,-0.808094 -4.74279,-0.916915 -7.68536,-0.388398 -3.3424,0.600333 -3.97553,0.922546 -7.87266,4.006584 -3.09867,2.452171 -3.61753,2.957553 -7.27919,7.090118 -1.4465,1.632523 -2.5832,3.097416 -3.13927,4.045636 -0.59256,1.01046 -1.38881,0.97866 -1.10437,-0.0441 0.13748,-0.49439 0.70012,-4.276615 0.86589,-5.820831 0.10414,-0.970139 0.30485,-2.597327 0.44601,-3.615973 0.14117,-1.018645 0.30024,-2.435223 0.3535,-3.14795 0.0853,-1.140976 0.48888,-3.349334 1.24613,-6.818022 0.12707,-0.582083 0.38683,-1.772709 0.57724,-2.645834 0.19041,-0.873125 0.52352,-2.262187 0.74025,-3.086805 0.21672,-0.824618 0.49561,-1.935868 0.61975,-2.469445 0.47455,-2.0398 0.82125,-3.283192 1.06486,-3.819019 0.13898,-0.305703 0.2527,-0.647178 0.2527,-0.758833 0,-0.202447 1.31955,-2.936593 1.57886,-3.271454 0.0751,-0.09701 0.51977,-0.890763 0.9881,-1.763889 1.53524,-2.862227 1.74604,-3.240345 2.52971,-4.53765 0.89235,-1.477202 1.63178,-2.440762 3.00955,-3.921733 1.58011,-1.698477 4.10374,-4.164894 4.77017,-4.662028 0.33954,-0.253293 0.79573,-0.621278 1.01375,-0.817745 0.34444,-0.310393 1.80344,-1.092193 3.92513,-2.103265 0.33955,-0.161808 1.1333,-0.49328 1.76389,-0.736604 0.63059,-0.243323 1.42434,-0.551461 1.76389,-0.684752 0.7667,-0.300966 4.60344,-1.518635 6.26181,-1.987309 2.305005,-0.651424 2.820335,-0.765701 4.577775,-1.015141 0.96555,-0.137045 1.86837,-0.292465 2.00626,-0.345378 0.13789,-0.05291 1.29055,-0.09914 2.56147,-0.102731 2.02335,-0.0057 2.34121,0.03304 2.55552,0.311544 0.20743,0.269563 0.23048,5.022035 0.1511,31.162996 -0.0673,22.153816 -0.14853,30.899801 -0.28841,31.039681 -0.21569,0.21569 -3.54311,-0.37724 -5.30192,-0.94478 -0.90056,-0.2906 -3.0627,-0.71634 -4.938885,-0.9725 -0.43656,-0.0596 -1.36587,-0.2218 -2.06513,-0.36042 -2.14951,-0.42614 -7.66037,-0.33499 -11.16403,0.18465 -7.04547,1.04494 -7.64377,1.21831 -10.40695,3.01571 -1.67804,1.09154 -5.33291,4.91495 -7.07342,7.39961 -0.64387,0.91915 -3.33352,5.48763 -3.33352,5.66211 0,0.0428 -0.1319,0.37286 -0.29311,0.73355 -0.45017,1.00717 -0.75891,1.79924 -1.11507,2.86065 -0.17904,0.53358 -0.6179,1.76389 -0.97525,2.73403 -0.83661,2.27129 -1.26919,3.62285 -1.58075,4.93889 -0.1378,0.58208 -0.33635,1.37583 -0.44123,1.76389 -0.2449,0.90614 -1.18839,4.78424 -1.5153,6.22844 -0.13859,0.61224 -0.32234,1.24724 -0.40834,1.41111 -0.086,0.16387 -0.21167,0.65514 -0.27927,1.0917 -0.12147,0.78449 -0.33961,1.64661 -0.9819,3.88056 -0.18131,0.63059 -0.46177,1.62277 -0.62325,2.20486 -0.16149,0.58208 -0.40702,1.44096 -0.54564,1.90862 -0.13861,0.46765 -0.31918,1.18203 -0.40126,1.5875 -0.18521,0.91491 -0.61109,2.60261 -1.11183,4.40605 -0.36295,1.3072 -0.46157,1.46021 -1.97816,3.06941 -2.7696,2.93872 -3.27076,3.785 -3.40213,5.745 -0.0505,0.7539 -0.16772,1.41761 -0.26042,1.4749 -0.0927,0.0573 -0.58317,-0.32391 -1.08993,-0.84711 z m 88.403675,0.44592 c -0.7692,-0.31919 -1.55085,-1.50678 -1.55085,-2.35626 0,-0.88278 0.78059,-2.03781 1.59831,-2.365 0.87918,-0.35178 1.39093,-0.35385 2.23458,-0.009 1.03267,0.42208 1.37071,1.01546 1.36989,2.40465 -5.3e-4,1.01152 -0.0627,1.24327 -0.44098,1.647 -0.86828,0.92659 -2.02451,1.17096 -3.21095,0.67864 z m -47.837615,-0.14826 c -2.10549,-0.75024 -2.20621,-3.75488 -0.15727,-4.69184 1.22235,-0.55898 2.33636,-0.34395 3.22877,0.62323 0.38099,0.41291 0.44097,0.64236 0.44097,1.68684 0,1.09774 -0.0478,1.25877 -0.51914,1.7508 -0.47915,0.50013 -1.40148,0.89996 -2.0385,0.88368 -0.14552,-0.004 -0.57519,-0.11743 -0.95483,-0.25271 z m 27.769395,-0.41215 c -0.43466,-0.0309 -0.8929,-0.14138 -1.01831,-0.24547 -0.29987,-0.24887 -0.31253,-18.77689 -0.0131,-19.13771 0.22486,-0.27094 2.90963,-0.31546 3.32098,-0.0551 0.23044,0.14587 0.26041,1.37639 0.23219,9.53422 -0.0226,6.53246 -0.0914,9.43778 -0.22724,9.60152 -0.22063,0.26585 -1.12816,0.3855 -2.29454,0.30251 z m 6.25892,0.0139 c -0.29073,-0.0427 -0.5886,-0.16974 -0.66194,-0.28226 -0.21522,-0.33017 -0.1402,-18.85622 0.0774,-19.11844 0.10514,-0.12669 0.56945,-0.22432 1.06682,-0.22432 0.79057,0 0.94194,0.0669 1.47973,0.65403 0.32949,0.35972 0.76525,0.99732 0.96836,1.41689 0.36154,0.74684 0.36798,0.9352 0.30666,8.9734 -0.0601,7.88539 -0.0762,8.22046 -0.40502,8.46089 -0.33155,0.24242 -1.62528,0.29715 -2.83203,0.11981 z m 6.39352,-0.17115 c -0.27824,-0.30959 -0.30868,-0.8239 -0.30868,-5.21559 0,-4.40587 0.0288,-4.88823 0.30045,-5.04028 0.2491,-0.13941 0.3799,-0.0128 0.76541,0.74089 0.25573,0.49996 0.72626,1.38527 1.04562,1.96736 1.88846,3.44198 2.7431,5.62748 2.56723,6.56496 -0.1615,0.86088 -0.72567,1.13823 -2.52105,1.23936 -1.36752,0.077 -1.57492,0.0482 -1.84898,-0.2567 z m -34.390235,-0.0779 c -0.57608,-0.21061 -0.7692,-0.95687 -0.59244,-2.28935 0.12119,-0.91357 0.48468,-1.74607 1.95384,-4.47486 0.47009,-0.87312 0.98324,-1.82988 1.14035,-2.12613 0.59665,-1.12509 1.10332,-1.71215 1.26184,-1.46204 0.0825,0.13023 0.15129,2.47634 0.15278,5.21356 0.003,4.74136 -0.0134,4.98542 -0.33848,5.15938 -0.4275,0.22879 -2.93529,0.21438 -3.57789,-0.0206 z m 7.049965,0.0214 c -0.28685,-0.17526 -0.30868,-0.76861 -0.30868,-8.39067 0,-6.94321 0.0406,-8.28055 0.2644,-8.71337 0.48666,-0.9411 1.31959,-2.07793 1.60178,-2.18622 0.40619,-0.15587 1.71123,-0.12625 1.98122,0.045 0.18661,0.11835 0.22838,1.98579 0.2157,9.64468 -0.009,5.22385 -0.0597,9.54206 -0.11353,9.59602 -0.18885,0.18945 -3.33184,0.19341 -3.64089,0.005 z m 6.82779,-0.0388 c -0.0464,-0.12127 -0.0638,-4.50674 -0.0386,-9.74549 l 0.0458,-9.525 h 1.76389 1.76389 l 0.0488,9.34861 c 0.0268,5.14174 0.005,9.52721 -0.0475,9.74549 -0.0915,0.37701 -0.18025,0.39687 -1.77414,0.39687 -1.17969,0 -1.70293,-0.0655 -1.76227,-0.22048 z m 35.46144,-0.11403 c -0.57999,-0.25393 -1.30085,-1.01547 -1.42339,-1.50369 -0.18134,-0.72254 0.0629,-1.58821 0.58774,-2.0831 0.26558,-0.25043 1.15756,-0.70961 1.98218,-1.0204 0.82462,-0.3108 1.65805,-0.63149 1.85208,-0.71266 0.65658,-0.27465 2.11081,-0.84248 3.35139,-1.30861 0.6791,-0.25516 1.39347,-0.53662 1.5875,-0.62546 1.87127,-0.85688 2.43706,-0.91051 3.6505,-0.34598 0.66847,0.31098 1.0887,1.40944 0.85835,2.24369 -0.17568,0.63629 -0.97624,1.6287 -1.32275,1.63976 -0.10312,0.003 -0.50499,0.15935 -0.89304,0.3468 -0.38806,0.18744 -0.79469,0.3435 -0.90362,0.34679 -0.18292,0.006 -1.11175,0.37737 -2.47443,0.99058 -0.3057,0.13757 -0.6232,0.25013 -0.70556,0.25013 -0.18311,0 -3.55505,1.34729 -3.99004,1.59425 -0.45064,0.25585 -1.74431,0.36855 -2.15691,0.1879 z m -62.000685,-0.14129 c -0.81696,-0.29387 -2.65787,-1.02571 -3.29761,-1.31094 -0.40699,-0.18146 -0.7937,-0.32992 -0.85936,-0.32992 -0.1673,0 -5.291,-2.06778 -5.88561,-2.37526 -0.63247,-0.32706 -1.03382,-0.95286 -1.17422,-1.83086 -0.10337,-0.64647 -0.0549,-0.76481 0.60097,-1.46762 0.67703,-0.72548 0.76267,-0.764 1.67963,-0.75543 0.53142,0.005 1.07275,0.0952 1.20295,0.20059 0.1302,0.10537 0.79235,0.40577 1.47145,0.66756 0.67909,0.26179 2.10784,0.83616 3.175,1.27638 1.06715,0.44022 2.29746,0.9034 2.73403,1.02928 1.27459,0.36753 2.24145,0.91819 2.72478,1.55187 0.85474,1.12062 0.43147,2.54584 -0.93142,3.13628 -0.78869,0.34167 -0.98882,0.37058 -1.44059,0.20807 z m 57.978135,-5.20993 c -0.54678,-0.47253 -1.00664,-1.25318 -1.00066,-1.69867 0.006,-0.44149 0.61637,-1.64735 1.08364,-2.1406 0.41727,-0.44048 3.03708,-3.84343 4.20415,-5.46092 0.33955,-0.47059 1.6782,-2.21415 2.97477,-3.87457 1.29657,-1.66042 2.56657,-3.32857 2.82222,-3.70698 0.25565,-0.37842 0.66374,-0.91258 0.90687,-1.18702 0.24312,-0.27444 0.7394,-0.90674 1.10284,-1.40512 0.66877,-0.91707 1.52549,-1.47511 2.26465,-1.47511 0.62213,0 1.70677,0.84384 1.9217,1.49506 0.35051,1.06208 0.0121,1.812 -1.96278,4.34987 -1.00886,1.29644 -1.95197,2.52799 -2.09581,2.73679 -0.14385,0.20881 -0.64455,0.8724 -1.11268,1.47466 -1.56665,2.01554 -5.06548,6.59668 -6.16996,8.07855 -0.60103,0.80639 -1.41672,1.83063 -1.81264,2.27607 -0.65763,0.73988 -0.80249,0.81663 -1.6757,0.88774 -0.82198,0.067 -1.02513,0.018 -1.45061,-0.34975 z m -55.780985,-0.78396 c -0.52933,-0.5509 -0.96243,-1.0579 -0.96243,-1.12666 0,-0.11229 -1.90231,-2.65411 -3.35757,-4.48629 -0.30822,-0.38805 -1.5643,-2.05493 -2.79128,-3.70416 -1.22699,-1.64924 -2.5481,-3.41101 -2.93581,-3.91506 -2.83252,-3.68246 -3.08617,-4.09363 -3.08617,-5.00275 0,-0.7062 0.62495,-1.67753 1.2444,-1.93412 0.59864,-0.24796 1.80992,-0.13934 2.21741,0.19884 0.24451,0.20293 3.4141,4.33374 5.00486,6.52264 0.33955,0.46723 1.92705,2.56582 3.52778,4.66353 1.60073,2.09772 3.02431,3.98687 3.16351,4.19811 0.13921,0.21125 0.46395,0.62221 0.72167,0.91325 0.86127,0.97267 1.19533,1.588 1.3225,2.43608 0.12312,0.821 0.10826,0.85865 -0.60789,1.5399 -0.65447,0.62258 -0.82979,0.69833 -1.61632,0.69833 -0.84215,0 -0.92595,-0.0455 -1.84466,-1.00164 z m 53.102225,-5.55518 c -0.24334,-0.28919 -0.44244,-0.5886 -0.44244,-0.66536 0,-0.0768 -0.45641,-0.74439 -1.01424,-1.48364 -0.55782,-0.73925 -1.41111,-1.87589 -1.89618,-2.52589 -1.34346,-1.80023 -2.44215,-2.93634 -4.06551,-4.20395 -1.3976,-1.09132 -2.08768,-1.58158 -5.45948,-3.87865 -2.45844,-1.67483 -2.24774,-1.33502 -2.1777,-3.51199 0.053,-1.6482 0.10732,-1.93237 0.41381,-2.16551 0.30516,-0.23215 1.06691,-0.2539 5.64444,-0.1612 2.91042,0.0589 5.72823,0.18565 6.26181,0.28157 1.81291,0.32592 3.43628,0.68828 4.7625,1.06305 0.7276,0.20561 1.75947,0.47999 2.29305,0.60973 0.53358,0.12975 1.36701,0.39342 1.85208,0.58595 0.8142,0.32315 0.88623,0.40021 0.9377,1.00309 0.0307,0.35918 -0.0656,1.0225 -0.21396,1.47404 -1.06043,3.22797 -1.53058,4.69491 -1.87429,5.84808 -0.21686,0.7276 -0.5428,1.69482 -0.7243,2.14936 -0.18151,0.45455 -0.33001,0.90752 -0.33001,1.0066 0,0.40151 -1.37437,2.99377 -2.08094,3.92496 -0.93251,1.22895 -1.29417,1.35352 -1.88634,0.64976 z m -48.358325,0.0761 c -0.33938,-0.22416 -1.77593,-2.25574 -1.91493,-2.70811 -0.0717,-0.23341 -0.20049,-0.51241 -0.28615,-0.61999 -0.0857,-0.10759 -0.26794,-0.54415 -0.40507,-0.97014 -0.13712,-0.426 -0.44423,-1.33016 -0.68248,-2.00926 -0.23824,-0.67909 -0.6502,-1.94909 -0.91545,-2.82222 -0.74669,-2.45782 -0.94235,-3.08995 -1.32416,-4.27813 -0.82585,-2.57004 -0.57811,-2.81167 3.93577,-3.83874 0.56488,-0.12853 1.16019,-0.28708 1.32292,-0.35234 0.16272,-0.0653 1.19474,-0.30714 2.29336,-0.53751 3.44688,-0.72279 13.159565,-1.02592 13.873985,-0.433 0.27986,0.23226 0.47196,3.15448 0.25766,3.91946 -0.13856,0.49461 -0.55138,0.83752 -2.76614,2.29771 -4.861525,3.2052 -6.403005,4.43404 -8.009065,6.38467 -1.68165,2.04245 -3.64528,4.73802 -4.12116,5.65733 -0.1897,0.36645 -0.90657,0.54311 -1.25909,0.31027 z m 18.317835,-10.48791 c -0.35436,-0.35436 -0.26509,-3.39386 0.14693,-5.00269 0.79024,-3.08567 2.18779,-4.80748 4.7491,-5.85096 1.405,-0.57241 2.02873,-0.51732 3.64468,0.3219 1.61236,0.83736 2.97045,2.13728 3.58155,3.42816 0.86012,1.81693 1.4809,6.76902 0.89524,7.14155 -0.41296,0.26268 -12.75285,0.22669 -13.0175,-0.038 z M 96.476695,129.10596 c -0.48507,-0.0855 -1.59632,-0.27873 -2.46945,-0.42951 -4.18028,-0.72188 -6.65195,-1.71517 -9.94847,-3.99798 -1.33992,-0.92788 -3.13804,-2.7091 -3.55002,-3.51665 -0.443,-0.86835 -0.44841,-2.10686 -0.0178,-4.07729 0.75688,-3.46357 2.97449,-6.5898 5.94294,-8.37797 0.53705,-0.32352 1.01652,-0.58821 1.06549,-0.58821 0.049,0 0.42203,-0.15081 0.82901,-0.33513 1.12591,-0.50992 5.97015,-0.78251 8.34447,-0.46956 0.98101,0.1293 2.05257,0.32297 2.38125,0.43037 0.32867,0.10741 1.034145,0.30596 1.567725,0.44123 0.53358,0.13526 1.4067,0.37785 1.94028,0.53908 0.53357,0.16122 1.4067,0.39883 1.94028,0.52802 0.53357,0.12919 1.4067,0.48108 1.94027,0.78197 0.53358,0.30089 1.15044,0.54851 1.3708,0.55027 0.84037,0.007 1.08138,1.61577 1.13654,7.58792 0.0425,4.59912 0.0166,5.12345 -0.30441,6.15905 -0.42639,1.37571 -1.16373,2.18326 -2.54045,2.78233 -0.54197,0.23583 -1.13395,0.51002 -1.31553,0.60929 -0.86703,0.47405 -4.63551,1.3346 -6.410335,1.46382 -0.56135,0.0409 -1.41751,0.004 -1.90258,-0.081 z m 32.014565,0.12919 c -0.0485,-0.0494 -0.87939,-0.22381 -1.84642,-0.38752 -2.01054,-0.34035 -4.50747,-1.26273 -5.89507,-2.17767 -0.74594,-0.49185 -1.04876,-0.83784 -1.40698,-1.60758 -0.43152,-0.92725 -0.4598,-1.16401 -0.51763,-4.33357 -0.071,-3.89173 0.19267,-8.79212 0.51064,-9.49 0.12578,-0.27605 0.41504,-0.53 0.67494,-0.59256 0.25016,-0.0602 0.97077,-0.36486 1.60136,-0.677 0.63059,-0.31214 1.43753,-0.62051 1.7932,-0.68527 0.35567,-0.0648 1.34786,-0.34344 2.20486,-0.6193 3.63318,-1.16948 6.88179,-1.55146 10.8626,-1.27723 2.23073,0.15367 2.26378,0.16233 4.10095,1.07533 1.34437,0.6681 2.13015,1.19589 2.86642,1.92533 1.99353,1.97502 3.37544,4.49741 3.92367,7.16183 0.44697,2.17232 0.4442,2.794 -0.0167,3.74608 -0.42567,0.87931 -2.75635,3.10314 -4.21557,4.0223 -1.29044,0.81284 -4.07548,2.2007 -4.41854,2.20187 -0.15038,5.3e-4 -0.34881,0.0716 -0.44098,0.15792 -0.15293,0.14325 -2.40903,0.72732 -4.84187,1.25346 -1.03301,0.22341 -4.79089,0.45439 -4.93889,0.30358 z m -17.46249,-7.31064 c -0.388,-0.1477 -0.52344,-0.41932 -0.52647,-1.05586 -0.002,-0.38199 0.10865,-0.62665 0.33848,-0.74965 0.43408,-0.23231 5.47927,-0.24107 6.08553,-0.0106 0.36564,0.13901 0.45246,0.2894 0.45246,0.78374 0,1.03876 -0.37224,1.16306 -3.43474,1.14697 -1.45787,-0.008 -2.76974,-0.0593 -2.91526,-0.11464 z m -0.13229,-4.11027 c -0.53675,-0.21574 -0.57672,-1.47334 -0.0557,-1.75218 0.49857,-0.26683 6.05595,-0.24129 6.32631,0.0291 0.11642,0.11642 0.21167,0.51526 0.21167,0.88631 0,0.56188 -0.0756,0.70339 -0.45246,0.84667 -0.5648,0.21473 -5.4911,0.20668 -6.02983,-0.01 z m 0.0484,-4.11467 c -0.20414,-0.14927 -0.3277,-0.45797 -0.3277,-0.81872 0,-0.95537 0.31901,-1.05833 3.27911,-1.05833 1.47127,0 2.77357,0.0802 2.96489,0.18259 0.24846,0.13297 0.34119,0.37098 0.34119,0.87574 0,0.50477 -0.0927,0.74277 -0.34119,0.87574 -0.53291,0.28521 -5.51393,0.2372 -5.9163,-0.057 z"
       id="path9108" />
    <rect
       style="fill:none;fill-opacity:0.0575539;stroke:#000000;stroke-width:0.104;stroke-linecap:round"
       id="rect9365"
       width="154.4095"
       height="167.37227"
       x="35.838257"
       y="28.594353" />
  </g>
</svg>
