<?xml version="1.0" encoding="UTF-8" standalone="no"?>
<!-- Created with Inkscape (http://www.inkscape.org/) -->

<svg
   width="210mm"
   height="297mm"
   viewBox="0 0 210 297"
   version="1.1"
   id="svg12112"
   inkscape:version="1.1 (c68e22c387, 2021-05-23)"
   sodipodi:docname="DarthVader4.svg"
   xmlns:inkscape="http://www.inkscape.org/namespaces/inkscape"
   xmlns:sodipodi="http://sodipodi.sourceforge.net/DTD/sodipodi-0.dtd"
   xmlns="http://www.w3.org/2000/svg"
   xmlns:svg="http://www.w3.org/2000/svg">
  <sodipodi:namedview
     id="namedview12114"
     pagecolor="#ffffff"
     bordercolor="#666666"
     borderopacity="1.0"
     inkscape:pageshadow="2"
     inkscape:pageopacity="0.0"
     inkscape:pagecheckerboard="0"
     inkscape:document-units="mm"
     showgrid="false"
     inkscape:zoom="0.69397447"
     inkscape:cx="334.30625"
     inkscape:cy="561.25984"
     inkscape:window-width="1920"
     inkscape:window-height="1017"
     inkscape:window-x="-8"
     inkscape:window-y="-8"
     inkscape:window-maximized="1"
     inkscape:current-layer="layer1" />
  <defs
     id="defs12109" />
  <g
     inkscape:label="Ebene 1"
     inkscape:groupmode="layer"
     id="layer1">
    <path
       style="fill:#000000;stroke-width:1"
       d="m 60.985754,213.2921 c -0.06468,-0.0647 -0.117593,-3.19998 -0.117593,-6.96736 v -6.84977 h 4.327093 c 4.902985,0 5.682405,0.14545 7.432444,1.38694 1.62618,1.15362 2.549026,2.5801 2.899414,4.48172 0.672232,3.64834 -2.182878,7.31354 -6.14317,7.88619 -1.340972,0.1939 -8.215585,0.24489 -8.398188,0.0623 z m 8.522538,-4.6187 c 0.856005,-0.45908 1.274117,-1.09737 1.36619,-2.08563 0.06397,-0.68661 -3.52e-4,-0.96711 -0.333309,-1.45213 -0.763426,-1.1123 -1.235305,-1.33238 -3.005196,-1.40162 -1.203209,-0.0471 -1.635769,-0.004 -1.753593,0.17639 -0.153169,0.23393 -0.180822,4.69668 -0.03072,4.95727 0.04191,0.0728 0.767288,0.13229 1.611947,0.13229 1.157813,0 1.685597,-0.0804 2.144677,-0.32657 z m 7.183473,4.604 c -0.03972,-0.0728 0.236132,-1.28322 0.613004,-2.68993 0.376873,-1.4067 1.183309,-4.46264 1.792083,-6.79097 l 1.106862,-4.23333 h 4.211831 4.211832 l 0.580384,2.20486 c 0.832233,3.16162 1.354709,5.15407 2.232595,8.51396 0.91304,3.49444 1.153273,3.16618 -2.261778,3.0904 l -2.293056,-0.0509 -0.251583,-0.83785 -0.251585,-0.83784 h -1.994013 -1.994015 l -0.103762,0.48507 c -0.285922,1.33663 -0.151406,1.27882 -2.975572,1.27882 -1.403057,0 -2.583508,-0.0595 -2.623227,-0.1323 z m 8.624471,-5.73263 c -0.197695,-0.99346 -0.85221,-3.32585 -0.91553,-3.26253 -0.09075,0.0908 -0.953807,3.36032 -0.954322,3.6153 -3.53e-4,0.15031 0.315348,0.22049 0.991742,0.22049 h 0.992188 z m 7.94869,5.74733 c -0.0647,-0.0647 -0.1176,-3.19998 -0.1176,-6.96736 v -6.84977 h 4.32709 c 3.907134,0 4.432134,0.0354 5.409344,0.36458 2.54346,0.85684 4.39928,2.87398 4.89868,5.32453 0.74727,3.66685 -2.05273,7.4177 -6.01756,8.06105 -1.23094,0.19974 -8.311404,0.25553 -8.499954,0.067 z m 8.522534,-4.6187 c 0.85601,-0.45908 1.27412,-1.09737 1.36619,-2.08563 0.064,-0.68661 -3.5e-4,-0.96711 -0.33331,-1.45213 -0.79599,-1.15975 -1.21325,-1.33914 -3.114824,-1.33914 h -1.70749 l -0.0495,2.37235 c -0.0272,1.3048 -0.01,2.47558 0.0386,2.60174 0.1466,0.38205 3.044944,0.30793 3.800334,-0.0972 z m 7.17608,4.6187 c -0.0647,-0.0647 -0.1176,-3.19998 -0.1176,-6.96736 v -6.84977 h 4.4057 c 4.27703,0 4.44013,0.013 5.58491,0.44386 3.38409,1.27377 5.27187,4.34674 4.6716,7.60453 -0.28723,1.55887 -0.74718,2.40911 -1.94012,3.58642 -1.19151,1.17589 -2.53015,1.87018 -4.07903,2.11559 -1.25996,0.19963 -8.33717,0.25503 -8.52546,0.0667 z m 8.51917,-4.60928 c 0.33609,-0.16511 0.79957,-0.57802 1.02995,-0.91757 0.59618,-0.87869 0.48539,-2.24774 -0.24475,-3.02424 -0.74662,-0.79402 -1.4553,-1.0327 -3.0663,-1.0327 h -1.41678 v 2.64583 2.64583 l 1.5434,-0.008 c 1.08215,-0.006 1.72603,-0.0982 2.15448,-0.30868 z m 12.67586,2.48267 -0.0586,-2.25371 -2.68949,-4.5666 c -1.47923,-2.51163 -2.6895,-4.63491 -2.6895,-4.7184 0,-0.0835 1.29757,-0.15181 2.88348,-0.15181 h 2.88348 l 1.03995,1.94028 c 0.57198,1.06715 1.09279,1.94028 1.15735,1.94028 0.0646,0 0.60815,-0.87313 1.20797,-1.94028 l 1.09057,-1.94028 h 2.89429 c 1.59187,0 2.8943,0.0319 2.8943,0.071 0,0.039 -1.21047,2.12263 -2.68993,4.63021 l -2.68993,4.55923 -0.0882,2.29306 -0.0882,2.29305 -2.49943,0.0489 -2.49943,0.0488 z M 74.273717,190.21078 c 0,-2.02864 -0.0344,-2.26225 -0.422046,-2.86632 -0.633113,-0.98659 -5.04601,-8.64919 -5.04601,-8.76195 0,-0.0538 1.301142,-0.0978 2.891425,-0.0978 h 2.891427 l 1.04161,1.88427 c 0.572884,1.03635 1.117212,1.90906 1.209615,1.93934 0.0924,0.0303 0.645089,-0.79779 1.22819,-1.84018 l 1.060182,-1.89524 2.864471,-0.0485 c 1.686003,-0.0285 2.864469,0.0191 2.864469,0.11582 0,0.1495 -2.690791,4.89376 -3.613335,6.37085 -0.212072,0.33954 -0.716141,1.22583 -1.120152,1.96953 l -0.734568,1.35217 v 2.04331 2.04332 h -2.557639 -2.557639 z m 17.241294,2.01714 c -1.825417,-0.43022 -3.942403,-2.08607 -4.777682,-3.73697 -1.355132,-2.67837 -0.875875,-5.55951 1.284999,-7.72502 4.548069,-4.55783 12.709722,-1.54615 12.709722,4.68994 0,4.46666 -4.614194,7.85686 -9.217039,6.77205 z m 3.666155,-4.92898 c 0.74032,-0.71755 1.03046,-1.62017 0.79014,-2.45812 -0.65964,-2.30002 -3.921244,-2.64799 -4.984469,-0.53178 -0.597034,1.18833 -0.218267,2.54498 0.925769,3.31588 0.51535,0.34726 0.785274,0.40425 1.63356,0.34489 0.86766,-0.0607 1.10665,-0.15877 1.635,-0.67087 z m 12.126914,4.96049 c -1.62768,-0.4185 -3.51934,-1.73023 -4.43434,-3.0749 -1.00633,-1.47887 -1.1301,-2.14246 -1.19003,-6.37988 -0.0302,-2.13517 0.008,-3.98319 0.0839,-4.10671 0.10314,-0.16688 0.70172,-0.2118 2.32975,-0.17482 l 2.19094,0.0498 0.0882,3.88902 c 0.0761,3.35583 0.13183,3.95552 0.40646,4.37405 1.04593,1.59396 3.6586,1.5482 4.62062,-0.0809 0.31444,-0.53248 0.36236,-1.00955 0.44097,-4.38977 l 0.0882,-3.79236 2.26018,-0.0495 2.26018,-0.0494 -0.0553,4.38098 -0.0553,4.38098 -0.60654,1.1942 c -0.73405,1.44523 -1.89517,2.54147 -3.50634,3.31041 -0.99109,0.473 -1.40064,0.56358 -2.75883,0.61015 -0.87722,0.0301 -1.85043,-0.011 -2.16268,-0.0913 z m 10.04658,-6.76328 0.0461,-6.92326 h 5.55625 c 5.47952,0 5.56721,0.006 6.35,0.41227 3.42396,1.77839 3.78499,6.03746 0.68565,8.08851 -0.38331,0.25366 -0.66821,0.5482 -0.6331,0.65452 0.0378,0.11457 0.77659,0.22924 1.81362,0.28151 l 1.74981,0.0882 0.0496,2.17603 0.0497,2.17604 -2.89505,-0.0594 -2.89505,-0.0594 -0.94696,-0.65431 c -0.52083,-0.35987 -1.50045,-1.21315 -2.17695,-1.89618 -0.67649,-0.68302 -1.29165,-1.24187 -1.36701,-1.24187 -0.0754,0 -0.13702,0.87313 -0.13702,1.94028 v 1.94028 h -2.64788 -2.64788 z m 9.23734,-1.45814 c 0.32661,-0.32661 0.412,-0.548 0.32317,-0.83785 -0.23981,-0.78244 -0.39015,-0.83491 -2.39221,-0.83491 h -1.91868 v 1.05834 1.05833 h 1.7719 c 1.65798,0 1.80045,-0.0285 2.21582,-0.44391 z M 68.36189,171.20865 c -0.04396,-0.12126 -0.721646,-2.68111 -1.505977,-5.68854 -0.784329,-3.00743 -1.574255,-6.00383 -1.755389,-6.65868 l -0.329332,-1.19062 2.193624,-0.0196 c 1.206493,-0.0108 2.352373,-0.0196 2.546401,-0.0196 0.194028,0 0.422502,0.009 0.507723,0.0196 0.08522,0.0108 0.286688,0.55538 0.44771,1.21022 0.552251,2.2459 0.832152,3.08955 0.973399,2.93393 0.07778,-0.0857 0.368839,-1.04523 0.646804,-2.13232 l 0.505387,-1.97651 2.886377,-0.052 c 1.78928,-0.0322 2.929689,0.0151 3.000327,0.12443 0.124146,0.19218 0.387855,1.10404 0.854437,2.95452 0.165114,0.65484 0.355148,1.19062 0.422301,1.19062 0.06715,0 0.334633,-0.85671 0.594403,-1.9038 0.259768,-1.04709 0.529087,-1.99567 0.598485,-2.10796 0.124917,-0.20212 5.060762,-0.36281 5.252572,-0.171 0.04778,0.0478 -0.281451,1.50454 -0.731626,3.23725 -0.450174,1.7327 -1.012964,3.90443 -1.250641,4.82607 -0.487729,1.89124 -1.276031,4.86991 -1.412101,5.33576 -0.08127,0.27824 -0.384005,0.30868 -3.070089,0.30868 h -2.979926 l -0.185304,-0.74965 c -0.101915,-0.41231 -0.258122,-1.02747 -0.347124,-1.36702 -0.089,-0.33954 -0.252578,-0.9648 -0.363502,-1.38945 -0.110926,-0.42465 -0.263536,-0.70246 -0.339134,-0.61736 -0.0756,0.0851 -0.365512,1.0477 -0.644248,2.13911 l -0.506794,1.98437 h -2.96442 c -2.21132,0 -2.984726,-0.056 -3.044343,-0.22049 z m 18.964605,-6.65868 v -6.87916 l 2.248958,-0.0204 c 1.236927,-0.0112 2.368021,-0.031 2.513542,-0.0441 0.220466,-0.0198 0.279288,0.40271 0.352777,2.53389 l 0.08819,2.55764 h 2.116674 2.11666 l 0.0489,-2.51354 0.0489,-2.51354 1.97954,-0.0147 c 1.08874,-0.008 2.177974,-0.0368 2.420504,-0.0637 0.91368,-0.10159 0.88195,-0.35262 0.88195,6.97646 v 6.86029 h -2.645844 -2.64583 v -2.56307 -2.56307 l -2.16077,0.0495 -2.160764,0.0495 -0.04894,2.51354 -0.04894,2.51354 H 89.879205 87.32641 Z m 20.563185,6.50817 c -1.86136,-0.64012 -3.33528,-1.92094 -4.28513,-3.72371 -0.44701,-0.84842 -0.49125,-1.09913 -0.49125,-2.78446 0,-1.68532 0.0442,-1.93603 0.49125,-2.78445 0.98692,-1.87313 2.6708,-3.2699 4.62796,-3.83886 1.64864,-0.47927 3.98449,-0.29188 5.46852,0.43871 2.08934,1.02857 3.60742,2.97475 3.93403,5.0434 0.53157,3.36687 -1.43462,6.50273 -4.80411,7.662 -1.40207,0.48238 -3.51757,0.47697 -4.94127,-0.0126 z m 3.47547,-4.10519 c 0.31218,-0.13357 0.80572,-0.49597 1.09677,-0.80533 0.46416,-0.49339 0.52916,-0.68985 0.52916,-1.59943 0,-0.94456 -0.0546,-1.09325 -0.61235,-1.66874 -1.1913,-1.22912 -2.78752,-1.26893 -3.90203,-0.0973 -1.09012,1.14596 -1.07924,2.43605 0.0299,3.5452 0.8634,0.8634 1.81572,1.07183 2.85854,0.62564 z m 11.76829,2.35952 v -2.11666 h 2.62696 c 3.17681,0 3.37081,-0.13405 1.82089,-1.25808 -1.64152,-1.19045 -2.30035,-1.90947 -2.61349,-2.85225 -0.51881,-1.56197 -0.007,-3.2501 1.33322,-4.39726 1.09175,-0.9345 1.60793,-1.01741 6.33379,-1.01741 h 4.25697 v 2.11229 2.1123 l -2.86632,0.0485 c -2.20558,0.0373 -2.86632,0.10119 -2.86632,0.27719 0,0.12579 0.71229,0.80048 1.58288,1.4993 1.90465,1.52888 2.37888,2.2658 2.38297,3.70296 0.005,1.62708 -0.78657,2.8173 -2.41542,3.63364 -0.69631,0.34897 -1.01809,0.37218 -5.15938,0.37218 h -4.41675 z m -2.9147,-7.37717 c 0.11885,-0.86411 0.10597,-0.903 -0.33573,-1.01386 -1.17139,-0.294 -1.53591,-1.84282 -0.64369,-2.73503 0.99331,-0.99332 2.62586,-0.51671 2.88568,0.84244 0.18805,0.98372 -0.68805,2.8652 -1.64688,3.53679 -0.38178,0.26741 -0.38258,0.26545 -0.25938,-0.63034 z M 92.441772,148.12341 c -4.387125,-0.27803 -8.35882,-0.90886 -11.556636,-1.83555 -4.424723,-1.28223 -8.551697,-3.7248 -8.551697,-5.06136 0,-0.55735 0.03664,-0.53889 -1.675694,-0.84446 -3.778275,-0.67424 -7.219412,-2.06604 -10.505876,-4.24919 -2.145812,-1.42543 -5.38406,-4.64751 -6.742566,-6.7089 -1.064087,-1.61465 -2.583384,-4.54502 -2.94797,-5.68595 -0.42649,-1.33465 0.03465,-2.77694 1.415329,-4.4266 0.581228,-0.69447 2.288721,-3.86149 2.288721,-4.24507 0,-0.0467 0.357308,-0.92141 0.794016,-1.94385 1.545863,-3.61922 5.221158,-13.660156 8.563411,-23.395329 1.955965,-5.697243 2.192409,-6.232543 3.173484,-7.184643 l 0.698256,-0.677636 v -1.917903 c 0,-2.220218 0.378296,-5.720073 0.875773,-8.102341 2.876753,-13.7759 12.170517,-22.628259 26.199923,-24.955564 1.07341,-0.178065 1.33842,-0.30183 2.02847,-0.947316 1.15407,-1.07954 1.45354,-1.159825 4.326264,-1.159825 2.95411,0 3.6283,0.184877 4.4633,1.223925 0.50654,0.630318 0.63082,0.686263 1.95452,0.879814 6.79767,0.993951 13.80974,4.433334 17.98068,8.819431 5.77425,6.072113 8.66193,13.551637 9.13038,23.649052 l 0.11866,2.557639 0.66793,0.732118 c 0.95218,1.043677 1.27676,1.765376 2.74273,6.098455 2.75181,8.13368 6.7844,19.193943 8.818,24.185283 1.49863,3.67828 2.44327,5.56646 3.29925,6.59466 0.92441,1.11041 1.37399,2.15535 1.38218,3.21254 0.0136,1.75694 -2.36101,6.10554 -5.01954,9.19219 -3.56092,4.13436 -8.94681,7.18374 -14.74872,8.35042 l -2.04271,0.41075 -0.0556,0.5585 c -0.0772,0.77533 -1.68277,2.033 -4.17771,3.2725 -3.41325,1.69573 -7.76563,2.81238 -13.14097,3.37145 -3.16992,0.32969 -15.865764,0.47928 -19.755558,0.23276 z m -9.986685,-5.41214 c 0.04857,-0.0786 0.12861,-1.56687 0.177874,-3.3073 0.129635,-4.57972 0.617566,-8.77537 1.721861,-14.80608 0.301995,-1.64924 0.587237,-3.21689 0.633869,-3.48368 0.230854,-1.32071 -1.007835,0.28851 -2.244376,2.91574 -1.180766,2.50873 -2.264443,5.58201 -3.596772,10.20034 -1.251488,4.33811 -1.432202,5.05565 -1.3723,5.44885 0.139192,0.91366 1.188289,1.79488 3.145103,2.64182 1.330892,0.57603 1.407861,0.5956 1.534741,0.39031 z m 38.835433,-0.63987 c 1.56517,-0.72704 2.50479,-1.53597 2.64075,-2.27344 0.23365,-1.26749 -3.27014,-12.28659 -5.11368,-16.08201 -0.97414,-2.00553 -1.86977,-3.30998 -2.10863,-3.07112 -0.0417,0.0417 0.0354,0.59106 0.17145,1.22072 0.37586,1.73981 1.08546,5.95919 1.48293,8.81776 0.51357,3.69356 0.70994,6.25284 0.71165,9.27511 8.8e-4,1.4633 0.0553,2.71433 0.12104,2.78007 0.16239,0.16239 0.62809,0.0141 2.09449,-0.66709 z m -16.05228,-13.06493 c 11.50525,-9.29472 11.21553,-9.04578 10.72008,-9.21093 -0.0803,-0.0268 -3.41797,2.57077 -7.41702,5.77232 -3.99905,3.20155 -7.31807,5.821 -7.3756,5.821 -0.0575,0 -0.91286,-0.609 -1.900734,-1.35333 -2.48999,-1.87616 -10.088775,-7.63329 -12.112091,-9.17659 -1.055388,-0.805 -1.734719,-1.21424 -1.840325,-1.10863 -0.09207,0.0921 -0.133003,0.19865 -0.09096,0.23686 0.04204,0.0382 3.635114,2.8175 7.984606,6.17621 6.977994,5.38844 7.945344,6.08071 8.224114,5.88545 0.17376,-0.1217 1.88733,-1.49077 3.80793,-3.04236 z m -3.13834,0.6626 c 0.0528,-0.16019 -0.22078,-0.22048 -1.00037,-0.22048 -0.99941,0 -1.254204,0.1128 -0.94751,0.41949 0.20966,0.20967 1.86908,0.0401 1.94788,-0.19901 z m 1.18979,-0.92604 c 0.0705,-0.11415 -0.70372,-0.17639 -2.19445,-0.17639 -1.418054,0 -2.303464,0.0678 -2.303464,0.17639 0,0.10814 0.84907,0.17639 2.194454,0.17639 1.2727,0 2.24024,-0.0741 2.30346,-0.17639 z m 0.70556,-0.82884 c 0.64151,-0.10856 0.66553,-0.13081 0.26458,-0.24506 -0.58491,-0.16667 -5.438034,-0.19486 -6.195664,-0.036 l -0.59531,0.12483 0.52917,0.11888 c 0.71057,0.15963 5.112644,0.18703 5.997224,0.0373 z m 1.67569,-1.09709 c 0,-0.0791 -1.02134,-0.18079 -2.26965,-0.22587 -2.85629,-0.10314 -7.078964,0.0335 -7.078964,0.2291 0,0.0814 0.93266,0.17024 2.07257,0.19748 3.145154,0.0752 7.276044,-0.0388 7.276044,-0.20071 z m 0.61736,-0.87092 0.70556,-0.13068 -0.86247,-0.12373 c -1.12822,-0.16187 -8.912004,-0.15722 -10.161844,0.006 l -0.97013,0.12675 0.70555,0.11127 c 1.00444,0.15841 9.737814,0.16693 10.583334,0.0103 z m -1.35977,-0.8477 c 2.11433,-0.0802 2.99359,-0.17205 2.86624,-0.2994 -0.2387,-0.2387 -12.170484,-0.25629 -13.148134,-0.0194 -0.60619,0.14689 -0.38263,0.18453 1.5875,0.26725 3.859724,0.16206 5.521024,0.17191 8.694394,0.0515 z m -53.22002,-1.69696 c 0.152435,-0.31213 1.009391,-1.83752 1.904346,-3.38974 1.794187,-3.11186 3.632795,-6.768 4.834306,-9.61319 0.943882,-2.23513 1.322298,-3.32262 2.15329,-6.18813 3.555799,-12.261489 7.673291,-20.550574 12.79132,-25.750718 2.90775,-2.954402 5.609433,-4.555682 8.882998,-5.264927 3.733749,-0.808948 7.663143,-0.151028 11.909986,1.994154 1.55274,0.784322 1.63619,0.805116 3.14514,0.783784 1.68755,-0.02386 2.5788,0.110846 3.158894,0.477431 0.32343,0.204389 0.47462,0.186673 1.11632,-0.130815 0.61808,-0.305802 1.05396,-0.364827 2.60598,-0.352887 1.7895,0.01376 1.90667,-0.009 2.94063,-0.571123 1.74568,-0.949072 4.12185,-1.814025 6.10395,-2.2219 3.31245,-0.681635 6.77317,-0.244993 9.71049,1.225182 7.44878,3.728231 13.33368,13.324116 18.07535,29.473559 0.52697,1.79475 1.2022,3.89819 1.50052,4.6743 1.39133,3.61963 3.62658,8.15279 6.04479,12.25903 0.77129,1.30969 1.50421,2.56801 1.6287,2.79628 0.22346,0.40972 0.22882,0.41043 0.41867,0.0557 0.4973,-0.92923 0.13059,-2.0785 -1.22937,-3.85284 -0.50618,-0.66042 -1.05913,-1.51899 -1.22877,-1.90794 -0.16964,-0.38894 -0.58471,-1.30248 -0.92238,-2.03009 -0.73995,-1.59444 -2.24046,-5.39057 -4.6365,-11.72986 -0.59401,-1.57159 -3.5514,-9.964903 -5.26833,-14.951934 -1.60824,-4.671333 -2.0957,-5.702114 -3.0355,-6.418938 -0.357,-0.272296 -0.59656,-0.609804 -0.59656,-0.840457 0,-0.212217 -0.28513,-0.658617 -0.63445,-0.993301 -0.34895,-0.334326 -0.70656,-0.792737 -0.79469,-1.018692 -0.0881,-0.225954 -0.28131,-1.575329 -0.42928,-2.998611 -0.30378,-2.921873 -0.74714,-4.767685 -1.93772,-8.067137 -2.34769,-6.506139 -5.25506,-10.908862 -9.24597,-14.001476 -2.39624,-1.856877 -6.07048,-3.624651 -9.1928,-4.422896 -1.89788,-0.485205 -4.12306,-0.878364 -4.97308,-0.878674 l -0.66146,-2.41e-4 v 0.948541 c 0,0.546636 0.0934,1.0237 0.22049,1.125925 0.12127,0.09756 0.65705,0.269215 1.19062,0.381452 5.10511,1.073856 9.56554,4.126485 12.46313,8.529522 0.65251,0.991516 1.20668,1.831647 1.2315,1.86696 0.0248,0.03531 0.25845,-0.103591 0.51918,-0.30868 1.04646,-0.823144 1.97483,-0.222413 3.03583,1.964436 0.82504,1.700482 1.80036,4.656264 1.80036,5.456106 0,1.230996 -1.23265,1.548235 -3.2795,0.844016 -3.30321,-1.136472 -7.79742,-1.438513 -10.56702,-0.710179 -2.28021,0.599636 -3.24612,1.112393 -6.50156,3.451363 -0.47141,0.338698 -1.04504,0.615816 -1.27475,0.615816 -0.85295,0 -0.89273,-0.287313 -1.11123,-8.025695 -0.24154,-8.55464 -0.5158,-15.585521 -0.64788,-16.60907 -0.0598,-0.463635 -0.26292,-0.902269 -0.55128,-1.190625 -0.38633,-0.386334 -0.61411,-0.456555 -1.48099,-0.456555 -0.81335,0 -1.121204,0.08322 -1.493984,0.403871 -0.41559,0.357481 -0.48647,0.585416 -0.61702,1.984375 -0.20529,2.199851 -0.50777,10.396661 -0.62787,17.014532 -0.0555,3.055938 -0.17798,5.810427 -0.27228,6.121086 -0.34054,1.12199 -1.04031,0.991315 -3.09762,-0.578453 -1.78642,-1.363072 -3.546846,-2.237804 -5.518684,-2.742158 -2.836843,-0.725602 -7.299247,-0.419193 -10.628132,0.729774 -1.82698,0.630583 -2.973866,0.417246 -3.229356,-0.600705 -0.122381,-0.4876 0.969876,-3.931937 1.804465,-5.690227 0.6532,-1.376141 1.58644,-2.354595 2.245791,-2.354595 0.226075,0 0.619155,0.163698 0.873507,0.363773 l 0.462462,0.363772 0.487368,-0.833071 c 2.776731,-4.746343 7.143079,-8.044884 12.461009,-9.41362 l 1.96108,-0.504746 0.13546,-0.92919 c 0.0847,-0.580905 0.068,-0.996629 -0.0445,-1.109112 -0.24859,-0.248595 -2.979336,0.115081 -5.182078,0.690141 -5.090374,1.328921 -8.673381,3.356396 -12.012186,6.797196 -2.529489,2.60676 -4.268403,5.419924 -6.008664,9.720638 -1.745824,4.31446 -2.276542,6.299608 -2.7151,10.155814 -0.339541,2.985573 -0.505261,3.484325 -1.339317,4.030818 -0.283448,0.185723 -0.438517,0.451681 -0.438521,0.75211 -3e-6,0.320483 -0.19326,0.618982 -0.622467,0.961446 -1.170217,0.933718 -1.412508,1.457526 -3.44182,7.440837 -2.525452,7.446149 -6.7665,19.055728 -8.28001,22.665968 -0.305032,0.7276 -0.658573,1.60073 -0.785647,1.94028 -0.55218,1.47545 -2.049936,4.27664 -2.795352,5.22802 -0.445484,0.56858 -0.894223,1.25723 -0.997196,1.53034 -0.303651,0.80533 -0.20922,2.42582 0.140328,2.40811 0.06238,-0.003 0.238139,-0.26112 0.390574,-0.57326 z m 57.74064,0.22274 c 0.11295,-0.11294 -0.37455,-0.17899 -1.40578,-0.19048 -1.91101,-0.0213 -1.38677,-0.28945 0.62618,-0.32031 0.72761,-0.0112 1.42748,-0.0866 1.55527,-0.16762 0.13046,-0.0827 -1.78704,-0.20317 -4.37293,-0.27468 -5.08034,-0.1405 -14.275499,0.041 -13.907213,0.27458 0.127882,0.0811 0.9072,0.15656 1.731819,0.16772 2.18525,0.0296 2.78976,0.2984 0.72025,0.32031 -0.91354,0.01 -1.60164,0.0771 -1.529099,0.14987 0.382269,0.38343 16.199953,0.42217 16.581503,0.0406 z m 1.86624,-1.56872 c 0.92638,-0.26456 -1.95056,-0.36807 -10.23056,-0.36807 -8.280003,0 -11.156945,0.10351 -10.230558,0.36807 0.242535,0.0693 4.846284,0.12594 10.230558,0.12594 5.38427,0 9.98802,-0.0567 10.23056,-0.12594 z m 1.29442,-1.00987 c 0.23915,-0.13527 -0.47866,-0.21389 -2.73403,-0.29944 -6.11046,-0.23178 -20.800181,-0.0746 -20.508445,0.21948 0.231661,0.2335 4.359471,0.32432 13.393195,0.29467 6.21089,-0.0204 9.63783,-0.0951 9.84928,-0.21471 z m 0.38127,-0.93128 1.23472,-0.1206 -1.94027,-0.1568 c -4.10079,-0.33139 -24.89562,-0.14397 -24.530564,0.22109 0.33833,0.33832 21.857374,0.38635 25.236114,0.0563 z m -0.52916,-0.88709 c 0.87312,-0.0714 -4.24657,-0.12756 -11.37709,-0.12485 -7.130524,0.003 -12.289898,0.0547 -11.46528,0.11558 2.131349,0.15732 20.93785,0.16495 22.84237,0.009 z m -28.219474,-1.47785 c 0.454147,-0.64838 0.255751,-1.66057 -0.428443,-2.18588 -0.433067,-0.3325 -1.329809,-0.26465 -1.843582,0.13948 -0.914656,0.71947 -0.477283,2.43245 0.681768,2.67017 0.518844,0.10641 1.290944,-0.19644 1.590257,-0.62377 z m 35.132284,0.20593 c 0.12188,-0.10115 0.27065,-0.44539 0.33061,-0.76497 0.24728,-1.31815 -1.05671,-2.29716 -2.22611,-1.67132 -0.48371,0.25887 -0.89943,1.14767 -0.7728,1.65222 0.12708,0.50634 0.73093,1.10027 1.22354,1.20345 0.38251,0.0801 1.09055,-0.12541 1.44476,-0.41938 z m -4.57565,0.16022 c -0.0578,-0.17344 -3.09068,-0.23012 -14.21401,-0.26563 -12.496574,-0.0399 -14.14052,-0.0143 -14.14052,0.22048 0,0.23439 1.671967,0.26564 14.21401,0.26564 11.2928,0 14.1989,-0.0453 14.14052,-0.22049 z m -23.983336,-4.58271 c 0.03909,-1.62859 0.0016,-2.04905 -0.176389,-1.97466 -0.20918,0.0874 -2.795521,3.59355 -2.933056,3.97611 -0.03719,0.10346 0.550462,0.15007 1.499305,0.11893 l 1.560474,-0.0512 z m 4.448252,-3.04611 c 0,-2.86191 -0.0304,-5.20347 -0.0676,-5.20347 -0.0372,0 -0.55313,0.66823 -1.14652,1.48497 l -1.078907,1.48497 v 3.7185 3.7185 h 1.146527 1.14653 z m 4.54404,-2.01681 c 0.0361,-5.58867 -0.002,-7.16261 -0.17639,-7.27313 -0.39994,-0.25349 -1.44173,0.0454 -1.85323,0.53169 -0.39505,0.46684 -0.396,0.48395 -0.39688,7.09725 -5.3e-4,3.64611 0.0554,6.68556 0.12418,6.75434 0.0688,0.0688 0.60456,0.10185 1.19062,0.0735 l 1.06558,-0.0515 z m 4.451794,0.50062 c 0,-7.74971 0.0148,-7.66544 -1.36425,-7.77512 -0.42751,-0.034 -0.81138,-0.0277 -0.85305,0.0139 -0.0417,0.0417 -0.0757,3.3169 -0.0757,7.27831 v 7.20254 h 1.14652 1.14653 z m 4.54576,3.14319 c 0.0317,-2.30852 -0.0184,-3.61208 -0.14805,-3.85432 -0.36935,-0.69013 -1.97154,-2.79976 -2.12633,-2.79976 -0.18308,0 -0.21221,9.93787 -0.0297,10.12042 0.0688,0.0688 0.60456,0.10185 1.19063,0.0735 l 1.06557,-0.0515 z m 5.09258,3.31381 c -0.15447,-0.40256 -2.81305,-3.97559 -2.89622,-3.89242 -0.0597,0.0597 -0.10066,3.12827 -0.0525,3.9346 0.009,0.15829 0.44142,0.22048 1.53135,0.22048 1.27207,0 1.50184,-0.0426 1.41738,-0.26266 z m -22.448876,-8.61616 c 2.971212,-4.05873 5.402202,-7.452006 5.402202,-7.540616 0,-0.456097 -0.47247,0.0156 -1.71493,1.712066 -2.183432,2.98131 -6.872785,9.35842 -8.155958,11.0914 -0.6465,0.87312 -1.234713,1.68672 -1.30714,1.80799 -0.159198,0.26655 0.04991,0.66502 0.239485,0.45634 0.07378,-0.0812 2.565132,-3.46845 5.536341,-7.52718 z m 24.452206,7.09347 c 0,-0.20305 -2.12751,-3.16039 -6.51961,-9.06256 -1.37166,-1.84327 -2.86698,-3.88677 -3.32292,-4.54113 -0.81452,-1.168958 -1.09358,-1.415035 -1.09358,-0.964326 0,0.21564 0.47987,0.897426 4.3919,6.239956 6.43507,8.78817 6.54421,8.92706 6.54421,8.32806 z m 12.80982,-13.2959 c -0.0281,-0.097 -0.13204,-0.17639 -0.23106,-0.17639 -0.15011,0 -3.15014,3.17366 -8.72711,9.23221 -0.56619,0.61508 -1.0264,1.1707 -1.02269,1.23472 0.004,0.064 2.2624,-2.18547 5.01932,-4.99887 2.75691,-2.8134 4.98961,-5.19465 4.96154,-5.29167 z m -46.345931,9.4809 c -0.342638,-0.3638 -2.118419,-2.28864 -3.946182,-4.27743 -4.854401,-5.28206 -5.031744,-5.46805 -5.213809,-5.46805 -0.405731,0 -0.07277,0.51377 1.192061,1.83942 2.705804,2.83589 8.382548,8.56752 8.48548,8.56752 0.05799,0 -0.174912,-0.29765 -0.51755,-0.66146 z m 4.736575,-3.66006 c 1.250438,-1.74625 3.490059,-4.86427 4.976932,-6.928926 1.48687,-2.064657 2.66647,-3.79086 2.62133,-3.836004 -0.0452,-0.04514 -1.782235,0.240247 -3.860199,0.6342 -2.077963,0.393954 -4.373428,0.825353 -5.101032,0.958666 -1.883903,0.345174 -9.710292,1.841781 -10.198178,1.950156 -0.224728,0.04992 -0.383478,0.195082 -0.352778,0.322582 0.07319,0.304 9.3619,10.178136 9.519439,10.119406 0.06653,-0.0248 1.144047,-1.47383 2.394486,-3.22008 z m 34.795536,-1.77365 c 2.57019,-2.7555 4.69791,-5.084466 4.72825,-5.175496 0.0639,-0.1917 0.2037,-0.16179 -8.343,-1.785255 -3.58952,-0.681836 -7.53904,-1.43631 -8.77673,-1.67661 -1.23768,-0.240298 -2.2894,-0.436906 -2.33715,-0.436906 -0.27178,0 0.17545,0.697387 2.68012,4.179251 1.52182,2.115536 3.75052,5.215656 4.95268,6.889146 1.20216,1.67349 2.23907,3.03667 2.30425,3.02928 0.0652,-0.007 2.22138,-2.26792 4.79158,-5.02341 z M 84.416078,94.795294 c 2.685403,-0.152656 7.14375,-1.165114 7.14375,-1.622295 0,-0.320013 -0.503518,-0.298069 -1.433031,0.06245 -0.616589,0.23915 -1.392694,0.301237 -3.858636,0.308681 -2.766575,0.0083 -3.224046,-0.03382 -4.409722,-0.406467 -2.767986,-0.869959 -4.801426,-2.180476 -6.081621,-3.919497 -1.033871,-1.404416 -1.413878,-2.56131 -1.39745,-4.254401 0.01122,-1.156162 0.09721,-1.52844 0.57921,-2.507518 2.015462,-4.093983 7.688547,-6.39523 13.703315,-5.558653 2.211371,0.307575 5.152553,1.542735 6.381613,2.679981 0.32469,0.300432 0.39688,0.316484 0.39688,0.08824 0,-0.48003 -1.79014,-1.922523 -3.263197,-2.629477 -2.424157,-1.163413 -3.81215,-1.450049 -7.055556,-1.457046 -2.672939,-0.0058 -2.88729,0.01963 -4.052361,0.480236 -1.729333,0.683678 -2.745023,1.382808 -4.038346,2.779718 -2.690084,2.905539 -4.296507,8.047824 -3.366633,10.776855 0.28769,0.844326 1.0789,1.77904 1.833423,2.165958 0.248433,0.127395 1.086695,0.370292 1.862806,0.539768 2.197471,0.479854 2.400094,0.630682 2.596431,1.932742 0.07946,0.526976 0.796893,0.794262 1.899054,0.707512 0.534915,-0.0421 1.686946,-0.117159 2.560071,-0.166793 z m 37.262152,-0.22832 c 0.12127,-0.15796 0.22049,-0.497852 0.22049,-0.755315 0,-0.257464 0.13891,-0.59165 0.30868,-0.742637 0.30392,-0.270292 0.5177,-0.338835 2.93459,-0.940908 1.58408,-0.394612 2.58439,-1.297319 3.00048,-2.70772 0.35105,-1.189933 0.35303,-1.71871 0.0132,-3.510345 -0.78499,-4.138092 -3.15089,-7.64553 -6.25886,-9.278724 -1.82304,-0.957977 -3.19038,-1.212825 -5.90708,-1.100972 -4.10884,0.169171 -7.69807,1.572659 -9.41337,3.680878 -0.53883,0.662265 -0.38893,0.808422 0.26489,0.258273 1.93003,-1.624011 5.50739,-2.757588 8.7075,-2.759188 3.97396,-0.002 7.62548,1.403697 9.83742,3.787 1.47753,1.591995 1.89244,2.618368 1.89244,4.681372 0,1.533763 -0.0489,1.77851 -0.56455,2.822222 -1.16865,2.365684 -3.56927,4.166831 -6.84378,5.134787 -1.23441,0.364893 -1.77556,0.417039 -4.32153,0.416425 -2.28292,-5.29e-4 -3.11697,-0.06704 -3.86847,-0.308368 -1.14755,-0.368517 -1.42319,-0.383101 -1.42319,-0.07529 0,0.513667 4.45763,1.490992 7.76111,1.701602 2.55262,0.16274 3.35335,0.09643 3.66007,-0.303089 z M 99.086226,92.74524 c 1.018594,-0.493091 2.387604,-0.494855 3.496134,-0.0045 0.56044,0.24791 0.91817,0.319649 1.03105,0.206767 0.47087,-0.470867 -1.32079,-1.422531 -2.67813,-1.422531 -1.340154,0 -2.849064,0.71512 -2.849064,1.350256 0,0.315797 0.10818,0.301736 1.00001,-0.129994 z M 87.491413,90.74505 c 0.426134,-0.513461 -0.834852,-1.513127 -1.908673,-1.513127 -0.727039,0 -4.318273,-0.916369 -5.235582,-1.335955 -1.47402,-0.674231 -2.221798,-0.431583 -1.499557,0.486597 0.442776,0.562901 2.5482,1.675655 4.157366,2.197244 1.491116,0.483325 4.141445,0.580941 4.486446,0.165241 z m 30.879967,-0.03029 c 1.39928,-0.415542 3.72089,-1.550968 4.2868,-2.096544 1.01194,-0.975563 0.206,-1.4631 -1.22995,-0.744042 -0.73905,0.370082 -3.73117,1.122583 -5.72932,1.440889 -1.07136,0.170669 -1.91872,1.088141 -1.44371,1.563157 0.23262,0.232614 3.17606,0.115725 4.11618,-0.16346 z M 91.484499,89.978875 c 0.286152,-0.19594 0.413202,-0.662054 0.25169,-0.923387 -0.244618,-0.395801 -1.234694,0.116447 -1.234694,0.638807 0,0.31832 0.09578,0.41892 0.396875,0.416872 0.218281,-0.0014 0.482039,-0.06102 0.586129,-0.132292 z M 111.26214,89.82181 c 0.1321,-0.344239 -0.51836,-0.942665 -1.02463,-0.942665 -0.38526,0 -0.46591,0.678711 -0.12157,1.023056 0.30848,0.308474 1.01602,0.25885 1.1462,-0.08039 z M 98.438996,88.938542 c 1.4913,-0.350114 4.234064,-0.342684 5.379864,0.01457 0.48507,0.151245 0.97557,0.275848 1.09001,0.276899 0.30415,0.0028 -0.60658,-1.547619 -1.06248,-1.808738 -0.4988,-0.285695 -4.716754,-0.283386 -5.671974,0.0031 -0.55752,0.167209 -0.78893,0.369781 -1.10293,0.965477 -0.47772,0.906332 -0.49533,1.094396 -0.0877,0.937025 0.16977,-0.06554 0.82462,-0.240298 1.45521,-0.388341 z m 1.33974,-3.779439 c 1.055394,-0.183788 2.049034,-0.144219 3.458824,0.137741 0.5128,0.102561 0.51545,0.09875 0.46034,-0.663833 -0.0533,-0.737789 -0.0823,-0.772853 -0.76098,-0.921168 -0.91053,-0.198973 -4.155224,-0.04939 -4.647884,0.21427 -0.55386,0.296415 -0.47219,1.742753 0.0863,1.52844 0.13397,-0.05141 0.76551,-0.184365 1.40339,-0.29545 z m -0.91677,-4.770516 c 0.74352,-0.338773 0.73802,-0.78833 -0.0145,-1.184425 -0.83566,-0.439856 -2.34875,-0.05916 -2.34875,0.590955 0,0.653802 1.43817,1.014963 2.36325,0.59347 z m 6.113294,-0.125023 c 0.48623,-0.393723 0.37071,-0.840516 -0.28142,-1.088455 -0.99082,-0.376711 -2.28609,-0.02542 -2.28609,0.620008 0,0.742031 1.81965,1.074029 2.56751,0.468447 z"
       id="path12203" />
  </g>
</svg>
