<?xml version="1.0" encoding="UTF-8" standalone="no"?>
<!-- Created with Inkscape (http://www.inkscape.org/) -->

<svg
   width="210mm"
   height="297mm"
   viewBox="0 0 210 297"
   version="1.1"
   id="svg5"
   inkscape:version="1.1 (c68e22c387, 2021-05-23)"
   sodipodi:docname="Ruecken.svg"
   xmlns:inkscape="http://www.inkscape.org/namespaces/inkscape"
   xmlns:sodipodi="http://sodipodi.sourceforge.net/DTD/sodipodi-0.dtd"
   xmlns="http://www.w3.org/2000/svg"
   xmlns:svg="http://www.w3.org/2000/svg">
  <sodipodi:namedview
     id="namedview7"
     pagecolor="#ffffff"
     bordercolor="#666666"
     borderopacity="1.0"
     inkscape:pageshadow="2"
     inkscape:pageopacity="0.0"
     inkscape:pagecheckerboard="0"
     inkscape:document-units="mm"
     showgrid="false"
     inkscape:snap-global="false"
     inkscape:zoom="1.047399"
     inkscape:cx="289.76541"
     inkscape:cy="311.24719"
     inkscape:window-width="1920"
     inkscape:window-height="1000"
     inkscape:window-x="-11"
     inkscape:window-y="-11"
     inkscape:window-maximized="1"
     inkscape:current-layer="layer5" />
  <defs
     id="defs2" />
  <g
     inkscape:groupmode="layer"
     id="layer2"
     inkscape:label="Dino"
     style="display:inline" />
  <g
     inkscape:groupmode="layer"
     id="layer5"
     inkscape:label="Ruecken">
    <path
       style="display:inline;fill:none;fill-opacity:1;stroke:#000000;stroke-width:0.9;stroke-linecap:square;stroke-miterlimit:4;stroke-dasharray:none;stroke-dashoffset:0"
       d="m 162.5315,69.294531 c -5.48612,-0.82327 -14.84465,-1.11119 -20.21129,0.12167 -7.57278,1.96437 -12.87642,9.80805 -12.69161,22.16297 -0.33472,9.913349 -1.56065,19.826689 -3.40969,29.740039 -7.9043,-1.27719 -15.33442,-1.56075 -24.24667,-1.32599 -6.676346,1.58884 -11.539091,3.73372 -15.911872,8.33479 l -13.070467,11.93391 c -4.234085,4.38084 -8.420631,8.80243 -16.101301,10.22906 -2.850717,0.7662 -8.381236,0.4221 -10.986767,-2.0837 -4.088633,-3.18664 -4.672933,-7.22308 -5.543996,-11.5124 -0.300311,-3.63052 -0.826495,-5.92064 -0.280531,-9.67641 l 3.089213,4.36723 -1.474522,2.83562 4.536991,3.40274 -2.268495,5.21754 3.175894,1.02082 1.134248,3.96987 4.310141,-1.58795 2.949044,2.83562 3.175891,-4.19672 3.51617,1.58795 3.629591,-6.57864 4.53699,0.79398 2.041647,-10.32166 9.414253,-0.22685 2.381922,-10.5485 9.981377,1.70137 4.083291,-6.69206 11.151698,3.88204 6.76942,-4.56259 7.03233,4.31015 -2.72219,-6.69207 5.78466,-2.94904 -6.80549,-7.25918 7.93974,-6.805489 -5.67124,-13.61097 8.62028,-4.08329 4.31013,-13.837821 8.6203,4.423571 6.12493,-5.444391 5.89809,4.990691 8.99857,2.60188 c -0.41587,-0.20357 -1.16543,-0.37096 -1.81068,-0.46779 z"
       id="path1141-0"
       sodipodi:nodetypes="scccccccccccccccccccccccccccccccccccccccccs" />
  </g>
  <g
     inkscape:groupmode="layer"
     id="layer1"
     inkscape:label="Dino+"
     style="display:inline" />
  <g
     inkscape:groupmode="layer"
     id="layer3"
     inkscape:label="Schrift"
     style="display:none">
    <g
       aria-label="Stefan"
       id="text17528"
       style="font-size:36px;line-height:1.25;font-family:'Comic Sans MS';-inkscape-font-specification:'Comic Sans MS, Normal';display:inline;fill:none;stroke:#000000;stroke-width:0.899999;stroke-linecap:square"
       transform="translate(-19.179506,-327.55983)">
      <path
         d="m 59.573048,585.1521 q 0.08431,-0.73366 0.652181,-1.1161 0.587706,-0.39742 1.336357,-0.29328 0.853113,0.11867 1.361676,1.18327 0.703871,1.44671 1.3349,2.01367 1.344265,1.18085 4.164764,1.57319 2.698625,0.37539 5.176485,-0.469 3.168065,-1.08558 3.538613,-3.74938 0.305158,-2.19372 -2.007744,-3.81102 -1.95409,-1.38991 -5.041046,-1.90806 -2.736326,-0.48712 -4.51631,-1.85281 -2.276116,-1.75415 -1.910412,-4.38314 0.431096,-3.09906 4.304031,-5.16918 3.696865,-1.95264 7.283425,-1.45373 1.688817,0.23492 3.732974,1.10494 2.716357,1.141 2.554091,2.3075 -0.213126,1.53212 -1.78007,1.31415 -0.696419,-0.0969 -2.386608,-0.70468 -1.687767,-0.62522 -2.647765,-0.74101 -2.72088,-0.343 -4.800264,0.6988 -2.136459,1.06936 -2.402867,2.98451 -0.201016,1.44507 2.293392,2.39547 0.926092,0.35954 3.650307,0.93371 3.945829,0.85059 5.884202,3.37415 1.773498,2.30539 1.369044,5.21295 -0.576409,4.14369 -4.750623,6.08316 -3.623295,1.67891 -8.010737,1.0686 -3.186118,-0.44321 -5.66298,-2.03007 -3.030068,-1.94777 -2.719016,-4.56661 z"
         style="font-size:36px;stroke-width:0.9"
         id="path21047" />
      <path
         d="m 96.545215,578.4493 q -0.368335,-0.0244 -0.874666,-0.0931 -0.488791,-0.0676 -0.857126,-0.092 -0.403414,-0.0267 -2.402819,0.10522 l -0.352809,10.38805 -0.03354,0.77291 -0.04166,0.89569 q -0.184068,3.84584 -2.0959,3.71931 -0.701591,-0.0464 -1.197601,-0.53729 -0.478471,-0.4897 -0.433197,-1.17375 0.04411,-0.66651 0.184956,-1.99605 0.140844,-1.32954 0.184957,-1.99605 l 0.327143,-10.26643 q -1.276919,-0.13736 -3.87409,-0.55589 -1.547108,-0.31379 -1.446113,-1.83975 0.05108,-0.77175 0.558315,-1.24906 0.507238,-0.47731 1.243908,-0.42855 l 3.663613,0.54195 q 0.0592,-0.89452 0.07018,-2.39121 0.02967,-1.51306 0.07379,-2.17957 0.04876,-0.73667 0.588752,-1.17658 0.541157,-0.45744 1.277826,-0.40869 1.578578,0.10448 1.671029,2.70023 0.0097,0.65246 -0.0507,1.56452 l -0.102409,1.01499 -0.08951,1.0863 q 2.193503,-0.13669 2.509219,-0.11579 1.824134,0.12073 2.373798,0.33327 1.046707,0.42161 0.960804,1.71955 -0.05108,0.77175 -0.575855,1.2479 -0.506077,0.45977 -1.260287,0.40985 z"
         style="font-size:36px;stroke-width:0.9"
         id="path21049" />
      <path
         d="m 108.9633,594.4687 q -3.97263,-0.0162 -6.42543,-2.0126 -2.680445,-2.20824 -2.66428,-6.16329 0.01868,-4.57027 2.24615,-7.65495 2.42198,-3.36512 6.44733,-3.34867 2.91795,0.0119 4.75961,1.00384 2.26261,1.22214 2.25233,3.7358 -0.007,1.75779 -1.99939,3.19107 -0.88148,0.62921 -3.73457,1.9535 l -6.7278,3.15417 q 0.97841,1.463 2.43436,2.20723 1.47353,0.74431 3.42469,0.75229 1.21288,0.005 2.8495,-0.44539 2.07657,-0.5716 2.67803,-1.50079 0.60153,-0.94676 1.28707,-0.94396 0.61523,0.003 1.0879,0.47906 0.49031,0.45904 0.4878,1.07427 -0.008,1.95115 -3.16018,3.34453 -2.69432,1.18431 -5.24312,1.17389 z m -0.40916,-16.01548 q -2.14451,-0.009 -3.57515,1.65533 -1.43057,1.64651 -2.14734,4.98345 l 5.40693,-2.54433 q 3.18793,-1.53386 4.54611,-2.67089 -1.50596,-1.41242 -4.23055,-1.42356 z"
         style="font-size:36px;stroke-width:0.9"
         id="path21051" />
      <path
         d="m 130.8012,568.15346 q -4.24635,0.25337 -4.40343,6.1795 l 0.0123,1.09105 q 2.97041,-0.38855 3.84776,-0.4409 2.78996,-0.16647 2.89466,1.58822 0.0764,1.28093 -1.27758,1.60825 -0.59031,0.14088 -1.39852,0.17149 -0.7917,0.012 -4.02218,0.46891 l 0.0983,4.00908 q 0.0649,1.08791 0.26492,3.25954 0.20002,2.17163 0.26388,3.24199 0.19893,3.33391 -0.0761,5.21692 -0.21454,1.42155 -1.5481,1.50112 -0.71943,0.0429 -1.25656,-0.40048 -0.53608,-0.42586 -0.57796,-1.12773 -0.008,-0.14038 0.0142,-0.35304 0.23238,-2.30308 0.0722,-4.98776 l -0.33846,-4.78717 -0.30363,-5.0886 q -2.18289,0.30634 -2.76194,0.34089 -1.77224,0.10574 -1.87379,-1.59631 -0.10365,-1.73714 2.96182,-2.0081 l 1.68136,-0.15315 q -0.006,-0.98577 0.10407,-2.68284 0.22379,-3.92263 1.62289,-5.8551 1.69192,-2.33734 5.56979,-2.56872 2.50921,-0.14972 2.61076,1.55233 0.10051,1.68451 -2.18059,1.82061 z"
         style="font-size:36px;stroke-width:0.9"
         id="path21053" />
      <path
         d="m 152.50864,591.78455 q -0.33154,0.0403 -1.2974,-0.62134 -0.87225,-0.61992 -1.32406,-1.13161 -1.56478,1.11113 -2.78342,1.71975 -1.21651,0.62608 -2.07153,0.73008 -4.08319,0.49665 -6.23045,-1.57959 -2.02558,-1.94938 -2.56892,-6.41645 -0.51363,-4.22279 2.01793,-7.57643 2.54902,-3.35576 6.57985,-3.84604 1.51811,-0.18465 3.49817,0.37135 2.49199,0.68853 2.65966,2.06704 0.0573,0.47114 -0.24711,0.88002 -0.0938,0.68431 -0.0139,2.21515 0.0974,1.52872 0.3686,3.90398 0.24574,2.16586 0.71264,3.38403 0.26788,0.74655 1.47287,2.9374 0.16035,0.29923 0.51383,0.87601 l 0.14077,0.2839 q 0.0849,0.69799 -0.3485,1.2111 -0.43341,0.51312 -1.07904,0.59165 z m -5.10459,-11.68596 q -0.0913,-0.75033 -0.11013,-1.63341 -0.004,-0.90266 0.0674,-1.92063 -0.68596,-0.25301 -1.1762,-0.35275 -0.47279,-0.10187 -0.75198,-0.0679 -2.70468,0.32898 -4.40693,2.7849 -1.68692,2.43635 -1.33672,5.31552 0.34808,2.86172 1.53419,4.16948 1.18611,1.30776 3.21026,1.06156 1.67515,-0.20375 2.76999,-0.95669 0.58785,-0.40794 1.60109,-1.54052 -1.12082,-4.55621 -1.40099,-6.85955 z"
         style="font-size:36px;stroke-width:0.9"
         id="path21055" />
      <path
         d="m 170.49496,588.68297 q -1.48622,0.2765 -1.97853,-1.31261 l -1.18799,-3.69464 q -0.6181,-1.97694 -0.94604,-3.73966 -0.09,-0.48389 -0.25359,-1.6514 -0.14628,-1.17073 -0.2363,-1.65461 -0.69446,-3.73283 -2.07699,-3.47562 -1.93554,0.36008 -3.27066,2.98647 -1.20088,2.38686 -1.50473,5.75114 0.0908,0.68042 0.15954,1.72254 0.0571,0.88337 0.20817,1.6956 0.0965,0.51845 0.39305,1.53606 0.29659,1.0176 0.39304,1.53605 0.14468,0.77767 -0.24918,1.35158 -0.37658,0.57069 -1.11969,0.70894 -0.76039,0.14146 -1.31702,-0.25561 -0.55662,-0.39708 -0.7013,-1.17475 -0.0965,-0.51845 -0.41033,-1.53284 -0.29659,-1.01761 -0.39305,-1.53606 -0.33115,-1.78 -0.67435,-4.97026 -0.32913,-3.21076 -0.66029,-4.99077 -0.10288,-0.55301 -0.37455,-1.62889 -0.2544,-1.0791 -0.35728,-1.63211 -0.13825,-0.74311 0.25883,-1.29973 0.41114,-0.57712 1.13697,-0.71216 1.58991,-0.29578 2.1634,1.92189 l 0.42801,2.0123 q 2.18313,-4.41121 5.24198,-4.98028 2.76505,-0.51441 4.30712,1.71975 1.04533,1.48622 1.70603,4.65317 l 0.32472,1.74545 0.28172,1.6104 q 0.26685,1.43437 1.05415,3.64803 0.80137,2.19316 1.06501,3.61025 0.14146,0.76039 -0.2729,1.32023 -0.39386,0.5739 -1.13697,0.71215 z"
         style="font-size:36px;stroke-width:0.9"
         id="path21057" />
    </g>
  </g>
  <g
     inkscape:groupmode="layer"
     id="layer4"
     inkscape:label="Kreise" />
</svg>
