<?xml version="1.0" encoding="UTF-8" standalone="no"?>
<!-- Created with Inkscape (http://www.inkscape.org/) -->

<svg
   width="210mm"
   height="297mm"
   viewBox="0 0 210 297"
   version="1.1"
   id="svg3451"
   inkscape:version="1.1 (c68e22c387, 2021-05-23)"
   sodipodi:docname="Eule.svg"
   xmlns:inkscape="http://www.inkscape.org/namespaces/inkscape"
   xmlns:sodipodi="http://sodipodi.sourceforge.net/DTD/sodipodi-0.dtd"
   xmlns="http://www.w3.org/2000/svg"
   xmlns:svg="http://www.w3.org/2000/svg">
  <sodipodi:namedview
     id="namedview3453"
     pagecolor="#ffffff"
     bordercolor="#666666"
     borderopacity="1.0"
     inkscape:pageshadow="2"
     inkscape:pageopacity="0.0"
     inkscape:pagecheckerboard="0"
     inkscape:document-units="mm"
     showgrid="false"
     inkscape:zoom="0.69397447"
     inkscape:cx="334.30625"
     inkscape:cy="561.25984"
     inkscape:window-width="1920"
     inkscape:window-height="1017"
     inkscape:window-x="-8"
     inkscape:window-y="-8"
     inkscape:window-maximized="1"
     inkscape:current-layer="layer1" />
  <defs
     id="defs3448" />
  <g
     inkscape:label="Ebene 1"
     inkscape:groupmode="layer"
     id="layer1">
    <path
       d="m 57.482208,113.59028 c 0.0721,-0.097 0.13234,-0.47404 0.13382,-0.83784 0.002,-0.44435 0.0828,-0.66146 0.24676,-0.66146 0.31413,0 1.51983,1.32975 1.51983,1.67621 0,0.16409 0.16697,0.26407 0.44098,0.26407 0.24253,0 0.44097,0.0794 0.44097,0.17639 0,0.097 0.19844,0.17639 0.44097,0.17639 0.24254,0 0.44097,-0.0794 0.44097,-0.17639 0,-0.097 0.15875,-0.17639 0.35278,-0.17639 0.19403,0 0.35874,-0.0198 0.36603,-0.0441 0.007,-0.0243 0.1065,-0.67422 0.22048,-1.44436 l 0.20724,-1.40025 6.17361,0.0355 c 3.39549,0.0195 6.80861,-0.0338 7.58472,-0.11839 1.65204,-0.18011 2.02848,-10e-6 2.02848,0.97049 0,0.32451 0.0794,0.59002 0.17638,0.59002 0.097,0 0.17639,-0.27075 0.17639,-0.60166 0,-0.33092 0.15378,-1.02545 0.34173,-1.54341 0.18794,-0.51795 0.38735,-1.22537 0.44312,-1.57205 0.14257,-0.88624 1.0597,-2.2801 1.50026,-2.2801 0.19392,0 0.48509,0.20222 0.64704,0.44939 0.24864,0.37946 0.27885,0.76601 0.19422,2.48444 -0.0699,1.41946 -0.17849,2.12389 -0.35894,2.32874 -0.1423,0.16152 -0.31114,0.54069 -0.37521,0.84258 -0.0726,0.342 -0.27944,0.62314 -0.5488,0.74587 -0.50358,0.22946 -0.5801,0.73371 -0.11134,0.73371 0.40065,0 0.99838,-0.67366 1.35496,-1.52707 l 0.27177,-0.65044 0.61365,0.66995 c 0.33751,0.36847 0.61365,0.82122 0.61365,1.0061 0,0.18488 0.13891,0.37914 0.30868,0.43168 0.16978,0.0525 0.43584,0.16245 0.59125,0.24424 0.34374,0.18088 1.01699,-0.13047 1.28762,-0.59548 0.10654,-0.18307 0.44741,-0.61615 0.75751,-0.96243 l 0.56379,-0.62959 0.18251,0.48002 c 0.21856,0.57488 1.16026,1.53302 1.50672,1.53302 1.20176,0 1.61159,-1.10807 1.45574,-3.93609 -0.10325,-1.87391 0.0272,-2.53672 0.53138,-2.70043 1.56269,-0.50736 4.68127,-2.38644 6.57194,-3.95987 1.68827,-1.405 2.55249,-2.3083 4.290762,-4.484873 0.92603,-1.15952 2.4245,-4.24218 3.02248,-6.21789 0.11099,-0.36671 0.74384,-0.86626 0.89981,-0.71029 0.0373,0.0373 0.37648,0.65885 0.75381,1.3813 1.90783,3.65288 1.88497,3.62238 2.58337,3.44709 0.28352,-0.0712 0.57884,-0.37753 0.82658,-0.85754 0.34503,-0.66849 0.53526,-1.23879 1.24936,-3.74544 0.1212,-0.42546 0.20361,-2.21109 0.20756,-4.49792 0.006,-3.38229 -0.0342,-3.92587 -0.37043,-5.02708 -0.20734,-0.6791 -0.43454,-1.51222 -0.5049,-1.85138 -0.0703,-0.33916 -0.22685,-0.8551 -0.34778,-1.14653 -0.12093,-0.29143 -0.31999,-0.847366 -0.44232,-1.235426 -0.12236,-0.38805 -0.52876,-1.36192 -0.90311,-2.16415 -0.37437,-0.802233 -0.68066,-1.493954 -0.68066,-1.537163 0,-0.182962 -2.05937,-3.647991 -2.97449,-5.004761 -0.54684,-0.81077 -1.1091,-1.64421 -1.24945,-1.85208 -0.14036,-0.207881 -0.68251,-0.910519 -1.20479,-1.561431 -1.09858,-1.36915 -1.09863,-1.367539 0.10115,-3.02877 0.45631,-0.63182 0.98841,-1.408528 1.18244,-1.726009 0.19403,-0.317479 0.53244,-0.85751 0.75202,-1.20005 0.3375,-0.5265 0.86996,-1.58556 1.64334,-3.268641 1.53289,-3.335999 2.10682,-8.454869 1.41404,-12.611809 -0.37266,-2.236129 -1.80888,-6.399041 -2.67761,-7.761111 -0.0928,-0.145518 -0.28164,-0.509079 -0.41964,-0.807899 -0.23731,-0.513901 -1.28037,-2.090881 -2.66756,-4.033002 -0.70118,-0.981649 -0.70195,-1.009264 -0.14306,-5.036878 0.23656,-1.704745 0.2294,-2.108073 -0.0899,-5.069988 -0.19081,-1.769846 -0.40143,-3.306054 -0.46801,-3.413795 -0.0666,-0.107741 -0.26062,-0.723434 -0.43117,-1.368205 -0.604002,-2.283434 -1.206012,-3.553563 -1.684292,-3.553563 -0.70967,0 -3.11079,1.946502 -6.02418,4.883605 -2.60527,2.626476 -2.71942,2.678872 -3.98104,1.827413 -0.8688,-0.586345 -2.73145,-1.331955 -4.18472,-1.675111 -0.53356,-0.125995 -1.16856,-0.307798 -1.41111,-0.404011 -0.24253,-0.09621 -0.91722,-0.230891 -1.4993,-0.299291 -0.58207,-0.0684 -1.4949,-0.232746 -2.02847,-0.365221 -0.53358,-0.132471 -2.20045,-0.327816 -3.70417,-0.434096 -1.50372,-0.106281 -3.41672,-0.278927 -4.25112,-0.383659 -1.1004,-0.138121 -2.14202,-0.135771 -3.79236,0.0086 -1.2514,0.109437 -3.46589,0.279709 -4.9211,0.378386 -1.45521,0.09867 -3.04271,0.287459 -3.52778,0.419523 -0.48507,0.132064 -1.31851,0.29182 -1.85208,0.355013 -1.0834,0.128307 -2.87832,0.62739 -4.54551,1.263896 -0.60825,0.232222 -1.21369,0.422222 -1.34541,0.422222 -0.13172,0 -0.33532,0.115467 -0.45245,0.256595 -0.11712,0.141124 -0.56806,0.464701 -1.00209,0.719061 l -0.78915,0.462464 -2.15332,-2.174269 c -3.29411,-3.326162 -5.79203,-5.336402 -6.49571,-5.227516 -0.58027,0.08979 -1.91322,3.8001 -2.26922,6.316441 -0.10293,0.727604 -0.25873,1.719791 -0.34621,2.204862 -0.2465,1.366764 -0.20171,4.278773 0.0868,5.64062 0.1434,0.676995 0.31085,1.720152 0.37212,2.318129 l 0.11139,1.087228 -1.04274,1.386028 c -2.76472,3.67493 -4.26606,6.947511 -5.33771,11.63502 -0.46477,2.032932 -0.52109,6.490071 -0.10125,8.01293 0.14624,0.530471 0.34243,1.392981 0.43599,1.9167 0.26057,1.458751 2.32601,6.366251 2.67992,6.3675 0.0652,1.82e-4 0.2103,0.27823 0.32236,0.617781 0.11206,0.33955 0.26734,0.61736 0.34506,0.61736 0.0777,0 0.23994,0.23813 0.3605,0.529169 0.12055,0.291042 0.27181,0.529172 0.33614,0.529172 0.0643,0 0.2641,0.249089 0.44394,0.55353 0.17984,0.30444 0.47476,0.70132 0.65539,0.881938 0.18063,0.180631 0.32841,0.491112 0.32841,0.689951 0,0.39211 -0.4353,1.333371 -0.66156,1.43052 -0.16851,0.0724 -2.1915,2.85056 -3.06206,4.205169 -2.01491,3.135251 -4.11268,7.575666 -4.74986,10.054169 -0.11223,0.43656 -0.27827,0.88437 -0.36896,0.99514 -0.0907,0.11077 -0.24074,0.86888 -0.33344,1.6847 -0.0927,0.81581 -0.24886,1.9068 -0.34703,2.42441 -0.26435,1.39392 -0.21695,4.19312 0.088,5.19843 0.14447,0.47624 0.26267,1.13123 0.26267,1.45554 0,0.67466 0.87684,3.32302 1.32837,4.01214 0.36568,0.55811 1.0767,0.77963 1.40005,0.43619 0.12601,-0.13385 0.6868,-1.12622 1.24619,-2.20528 0.55939,-1.07905 1.15905,-2.15014 1.33258,-2.38019 l 0.31551,-0.41827 0.51595,1.14546 c 0.28377,0.63001 0.72921,1.66141 0.98986,2.292 0.26066,0.63059 0.54711,1.26559 0.63658,1.41111 0.0895,0.14553 0.29122,0.51891 0.44836,0.82974 0.15714,0.31083 0.39746,0.6579 0.53405,0.77125 0.13658,0.11335 0.24833,0.28199 0.24833,0.37476 0,0.0928 0.46878,0.73788 1.04173,1.433613 2.73382,3.3196 6.28002,5.87369 10.84001,7.80732 0.80921,0.34314 1.26072,0.64469 1.36265,0.91006 0.23429,0.60998 0.44572,0.47712 0.70176,-0.44097 0.27953,-1.00228 1.02739,-2.14475 1.41008,-2.15407 0.15122,-0.004 0.42903,0.10636 0.61735,0.24453 0.30473,0.22359 0.33925,0.45472 0.31385,2.10134 -0.0188,1.21627 -0.11972,2.05175 -0.29466,2.4387 -0.14636,0.32373 -0.32196,0.78703 -0.39021,1.02957 -0.0683,0.24253 -0.273,0.58297 -0.455,0.75652 -0.18199,0.17356 -0.33089,0.39184 -0.33089,0.48507 0,0.32207 -0.68642,0.16828 -0.95399,-0.21372 -0.2293,-0.32737 -0.28421,-0.3421 -0.37673,-0.10102 -0.2104,0.5483 -0.0104,1.09906 0.42142,1.16019 0.46197,0.0654 1.43846,-0.28424 1.43846,-0.51505 0,-0.30195 1.277,-1.41713 1.51721,-1.32495 0.13567,0.0521 0.24668,0.32879 0.24668,0.61494 0,0.72405 0.16411,1.07723 0.50394,1.08456 0.1594,0.003 0.48825,0.11673 0.73079,0.25176 0.39737,0.22123 0.48441,0.20754 0.88041,-0.13855 0.2417,-0.21122 0.49845,-0.46342 0.57056,-0.56045 z m 26.10878,-0.10108 c -0.43294,-0.38682 -0.56575,-0.67599 -0.65531,-1.42676 -0.28865,-2.41967 -0.0746,-4.98996 0.43842,-5.26452 0.61663,-0.33001 0.95846,-0.18823 1.38896,0.57611 0.37677,0.66892 0.43047,1.02385 0.5069,3.34993 0.0762,2.31829 0.0543,2.60174 -0.20093,2.60174 -0.15752,0 -0.43235,0.14595 -0.61074,0.32433 -0.31484,0.31485 -0.3402,0.31015 -0.8673,-0.16083 z m -23.41608,0.22604 c -0.78958,-0.56402 -1.3402,-2.35577 -1.45389,-4.73106 -0.0635,-1.32567 -0.0359,-1.46861 0.37444,-1.94028 0.42301,-0.48625 0.46476,-0.49724 0.92725,-0.24404 0.3008,0.16468 0.54279,0.49085 0.63867,0.86085 0.0849,0.32764 0.27997,0.78742 0.43351,1.02174 0.30877,0.47125 0.54219,4.3961 0.28239,4.74838 -0.18821,0.25522 -0.98079,0.4427 -1.20237,0.28441 z m -4.91174,-1.13025 c -0.39575,-1.48541 -0.40623,-2.62385 -0.0379,-4.10999 0.48542,-1.95829 1.34176,-2.41988 2.00938,-1.08311 0.32547,0.65169 0.38406,1.0687 0.38406,2.73403 0,1.08078 -0.0728,1.96506 -0.1617,1.96506 -0.0889,0 -0.27366,0.33734 -0.41052,0.74965 -0.22336,0.67297 -0.31214,0.75508 -0.86804,0.80269 l -0.61922,0.053 z m 32.57994,0.79494 c -0.26747,-0.0523 -0.41197,-0.24922 -0.49067,-0.66869 -0.0614,-0.32703 -0.20063,-0.62428 -0.30951,-0.66058 -0.21718,-0.0724 -0.8415,-2.87724 -0.84623,-3.80181 -0.003,-0.54482 0.29539,-1.416 0.66853,-1.95322 0.28969,-0.41707 1.03798,0.26165 1.64268,1.48999 0.52429,1.06499 0.55414,1.23641 0.56681,3.25533 0.0155,2.47566 -0.0356,2.5728 -1.23161,2.33898 z m -24.05076,-8.88288 c -1.78048,-0.15748 -2.81871,-0.40751 -3.02172,-0.72769 -0.21476,-0.33872 -0.18965,-0.45093 0.15846,-0.70831 0.17146,-0.12677 0.45122,-0.44895 0.62169,-0.71595 0.28415,-0.44508 0.28719,-0.52947 0.0365,-1.01424 -0.22173,-0.42878 -0.38588,-0.52877 -0.868,-0.52877 -0.61103,0 -0.72109,0.0951 -2.12082,1.83341 -0.43472,0.53986 -0.54517,0.59951 -0.67628,0.36523 -0.10105,-0.18058 -0.0555,-0.53284 0.12818,-0.992 0.15669,-0.3916 0.30226,-1.1872 0.3235,-1.76802 0.0337,-0.922153 -0.0142,-1.098853 -0.37779,-1.393853 -0.48117,-0.39036 -1.47816,-0.44712 -1.7658,-0.10053 -0.35896,0.43252 -0.42883,1.367053 -0.19489,2.606873 0.18022,0.95517 0.1843,1.27128 0.0185,1.43706 -0.16578,0.16578 -0.31681,0.0772 -0.68658,-0.40275 -0.92311,-1.19815 -1.40435,-1.58542 -1.97008,-1.58542 -0.32618,0 -0.66555,0.14143 -0.84651,0.35278 -0.16613,0.19402 -0.39081,0.35277 -0.49927,0.35277 -0.18108,0 -1.7972,-0.78622 -2.6348,-1.28181 -1.73202,-1.024773 -1.89493,-1.147723 -3.39199,-2.559843 -0.65669,-0.61942 -1.24717,-1.37169 -1.46727,-1.86927 -0.2528,-0.57148 -0.54453,-0.91669 -0.93002,-1.10052 -0.37431,-0.1785 -0.76747,-0.63166 -1.17856,-1.35841 -0.67609,-1.19522 -0.96003,-1.86455 -0.84134,-1.98324 0.0423,-0.0423 0.56491,0.12143 1.16139,0.3638 1.5646,0.63575 1.77969,0.60455 1.626,-0.23589 -0.12415,-0.67896 -0.23579,-0.84956 -1.34734,-2.05894 -0.60078,-0.65366 -0.95323,-0.72866 -1.99076,-0.42362 -0.2828,0.0832 -1.0786,-1.75326 -1.07422,-2.47892 0.005,-0.87885 0.47916,-1.05949 0.7635,-0.29106 0.11445,0.3093 0.14552,0.3124 0.44199,0.0441 0.17539,-0.15872 0.51951,-0.28859 0.76471,-0.28859 0.48382,0 1.96699,-1.03919 2.25725,-1.58155 0.24229,-0.45273 0.22673,-1.12296 -0.0321,-1.38178 -0.11641,-0.11642 -0.44611,-0.21167 -0.73265,-0.21167 -0.59808,0 -1.75375,1.10535 -2.16692,2.07257 -0.51657,1.20928 -0.88275,0.4597 -0.47641,-0.97525 0.15716,-0.55502 0.32251,-1.3492 0.36744,-1.76484 0.0741,-0.68561 0.0235,-0.81061 -0.54561,-1.34734 -0.77836,-0.73409 -0.91717,-1.25576 -0.64074,-2.408033 l 0.21623,-0.901341 0.81634,0.779021 c 1.13797,1.085947 2.75581,2.076043 3.16785,1.938693 0.11338,-0.0378 0.20614,-0.33579 0.20614,-0.66222 0,-0.455076 -0.21041,-0.846326 -0.90219,-1.677584 -0.96968,-1.165191 -0.8665,-1.130782 -2.53739,-0.84636 -0.32276,0.0549 -0.35137,-0.0332 -0.33613,-1.035333 0.009,-0.602461 0.11305,-1.21154 0.23088,-1.35351 0.11782,-0.14197 0.8754,-0.59028 1.68351,-0.996241 1.48915,-0.748099 1.86132,-1.149919 1.86132,-2.00963 0,-0.590629 -0.41773,-0.86901 -1.10081,-0.733589 -1.26854,0.2515 -1.28357,0.24605 -1.24387,-0.45086 0.0201,-0.353092 0.21972,-1.027782 0.44357,-1.499312 l 0.40701,-0.857308 1.40851,-0.01791 c 0.97474,-0.01241 1.62579,0.0755 2.11406,0.285481 0.38806,0.16687 1.047,0.355121 1.46433,0.41834 0.41732,0.0632 1.0683,0.310341 1.44661,0.549161 0.71491,0.4513 0.72409,0.474168 0.97267,2.42502 0.0587,0.460809 0.17338,0.837841 0.25482,0.837841 0.0814,0 0.21832,0.297119 0.3042,0.660267 0.22244,0.940581 0.68759,0.972402 0.93225,0.0638 0.10503,-0.390041 0.25771,-0.750422 0.3393,-0.800841 0.0816,-0.0504 0.2036,-0.508198 0.27113,-1.01728 0.0675,-0.509069 0.20678,-1.02679 0.30944,-1.15048 0.24374,-0.29369 0.87304,-0.286999 1.28422,0.01371 0.30994,0.226632 0.29422,0.281721 -0.31452,1.102432 -0.3524,0.475128 -0.76187,0.989589 -0.90989,1.143248 -0.14803,0.15366 -0.26914,0.48632 -0.26914,0.739241 0,0.844079 0.76369,0.93636 1.64087,0.198271 0.27657,-0.23273 0.59625,-0.42314 0.71039,-0.42314 0.41161,0 1.17652,-1.015032 1.17652,-1.561251 0,-0.628211 0.23598,-0.81575 0.95735,-0.76078 0.60177,0.0459 1.15931,0.47821 1.15931,0.899009 0,0.772361 1.79263,2.169062 2.82222,2.19888 0.55749,0.01619 0.61278,-0.0249 0.57006,-0.423079 -0.026,-0.242541 -0.20967,-0.662871 -0.4081,-0.934069 -0.38007,-0.519472 -0.39802,-1.19448 -0.0349,-1.314021 0.29219,-0.0962 0.91077,0.949899 1.04485,1.766929 0.0601,0.365951 0.1646,0.699612 0.23232,0.741461 0.0677,0.0419 0.37343,-0.0988 0.67935,-0.31259 0.37531,-0.262281 0.55719,-0.535471 0.55926,-0.840041 0.002,-0.248248 0.10643,-0.592759 0.23281,-0.76558 0.20207,-0.276349 0.25614,-0.28245 0.44856,-0.0506 0.29145,0.351161 0.0864,1.117849 -0.38769,1.449949 -0.30046,0.210441 -0.33616,0.323111 -0.18034,0.56914 0.24167,0.38165 1.03424,0.324119 1.65701,-0.12028 0.24441,-0.174408 0.6016,-0.371218 0.79375,-0.437369 0.19214,-0.0661 0.58749,-0.430822 0.87853,-0.81038 0.77857,-1.01538 1.97511,-1.050541 2.82221,-0.0829 1.02714,1.173241 2.96513,2.145371 3.28145,1.646041 0.20681,-0.326421 0.1983,-0.85844 -0.0137,-0.85844 -0.29178,0 -0.7634,-1.075571 -0.56056,-1.278411 0.27933,-0.279318 0.7321,-0.01151 0.73547,0.43503 0.002,0.221321 0.20011,0.58933 0.44098,0.817801 0.24086,0.228459 0.43792,0.486431 0.43792,0.573259 0,0.0868 0.15875,0.157872 0.35277,0.157872 0.29967,0 0.35278,-0.117592 0.35278,-0.781151 0,-0.79194 0.32397,-1.335511 0.79594,-1.335511 0.39882,0 0.51419,0.39057 0.18621,0.630391 -0.16857,0.123259 -0.35137,0.558851 -0.40625,0.967989 l -0.0998,0.743892 0.68798,-0.126381 c 1.02204,-0.18774 2.23127,-1.03618 2.71276,-1.90337 0.50842,-0.91571 0.63868,-1.011931 1.37449,-1.015381 0.46273,-0.0021 0.61827,0.0934 0.78515,0.48237 0.11446,0.26679 0.3509,0.695791 0.52542,0.95332 0.35636,0.52587 2.07259,1.560222 2.58876,1.560222 0.7084,0 0.61797,-0.953702 -0.18361,-1.936372 -0.28802,-0.353079 -0.50041,-0.825968 -0.50041,-1.11415 0,-0.440499 0.0574,-0.49398 0.47775,-0.444878 0.39368,0.046 0.53575,0.211 0.80741,0.93776 0.33753,0.902959 0.38262,1.055738 0.55966,1.896179 0.0562,0.26679 0.21294,0.485071 0.34832,0.485071 0.36646,0 1.09408,-1.425202 1.1979,-2.34637 0.14596,-1.294921 0.5884,-1.733931 2.10151,-2.085221 2.13525,-0.495731 4.33653,-1.196951 5.53176,-1.762141 0.90485,-0.427889 1.00205,-0.420989 1.49744,0.106331 0.38169,0.406289 0.39584,0.489209 0.18989,1.113229 -0.17547,0.53168 -0.17833,0.914381 -0.0136,1.809972 0.40321,2.191409 0.23409,3.14592 -0.35086,1.980229 -0.57635,-1.14854 -1.53751,-1.991029 -2.27146,-1.991029 -0.39364,0 -0.90355,0.615968 -0.90355,1.091499 0,0.633949 1.61938,1.880899 2.90292,2.235311 0.53889,0.148788 0.65868,0.124118 0.87134,-0.179502 0.1705,-0.243408 0.40178,-0.33425 0.74969,-0.294449 0.39591,0.0453 0.60728,0.24551 0.99183,0.939501 0.41611,0.75097 0.47587,1.026009 0.40239,1.852081 -0.13622,1.531342 -0.11381,1.806104 0.17317,2.123212 0.44992,0.497157 0.61298,1.398123 0.63107,3.486953 0.0139,1.60207 -0.0385,2.05584 -0.26643,2.30768 -0.15603,0.17241 -0.40946,0.68259 -0.56318,1.13373 -0.2552,0.74896 -0.25514,0.84461 7.9e-4,1.10041 0.41215,0.41215 0.34431,1.42573 -0.20736,3.09836 -0.52879,1.60322 -1.10327,2.65979 -1.65713,3.04773 -0.1935,0.13553 -0.49486,0.70875 -0.66969,1.27378 -0.40383,1.30518 -0.64635,1.46512 -1.5819,1.04325 -1.3875,-0.62566 -2.02738,0.23432 -1.30362,1.75205 0.29586,0.62044 0.2948,0.62625 -0.20939,1.15253 -0.27872,0.2909 -0.68517,0.52892 -0.90324,0.52892 -0.71021,0 -1.29147,0.33138 -1.51918,0.86611 -0.36778,0.863643 -1.46172,1.603353 -2.37118,1.603353 -0.67876,0 -0.86257,0.0904 -1.45948,0.71788 -0.57398,0.60338 -0.77684,0.70889 -1.27175,0.66147 -0.50761,-0.0487 -0.59712,-0.12936 -0.64885,-0.58504 -0.0713,-0.62762 -0.27912,-0.788 -1.02599,-0.79162 -0.45056,-0.002 -0.68973,0.15723 -1.25303,0.83514 -0.3829,0.46083 -0.79761,1.03075 -0.92159,1.26652 -0.20946,0.39836 -0.24135,0.40685 -0.45097,0.12017 -0.16701,-0.2284 -0.17916,-0.45418 -0.0468,-0.86964 0.0983,-0.30863 0.25546,-1.01745 0.34916,-1.57514 0.15294,-0.910323 0.13181,-1.068163 -0.2066,-1.543413 -0.30598,-0.42966 -0.50361,-0.5294 -1.04895,-0.5294 -0.37408,0 -0.76674,0.11422 -0.88579,0.25767 -0.33465,0.40323 -0.43016,1.636643 -0.18439,2.381333 0.47823,1.44905 0.14833,2.84784 -0.39197,1.66199 -0.21355,-0.46868 -0.57066,-0.95172 -1.23737,-1.67367 -0.19068,-0.20648 -0.54635,-0.33425 -0.93041,-0.33425 -0.50508,0 -0.654,0.0849 -0.79375,0.45244 -0.28241,0.74282 -0.21204,0.92812 0.71314,1.87796 0.61174,0.62802 0.8286,0.96529 0.70205,1.09182 -0.10071,0.10071 -1.5378,0.25515 -3.19354,0.34319 -2.70601,0.14389 -3.0401,0.1304 -3.30379,-0.13335 -0.25788,-0.25795 -0.26136,-0.31367 -0.0288,-0.46074 0.14552,-0.092 0.4269,-0.16854 0.62527,-0.17002 0.56063,-0.004 2.19695,-1.60743 2.19695,-2.15252 0,-0.57113 -0.35131,-0.86733 -1.05234,-0.88725 -0.64875,-0.0185 -1.50725,0.70535 -1.88537,1.58954 -0.13664,0.31951 -0.36499,0.62566 -0.50744,0.68033 -0.15798,0.0606 -0.25901,0.33499 -0.25901,0.70341 0,0.71804 -0.1852,0.81365 -1.22716,0.6335 -0.73411,-0.12692 -0.79838,-0.18313 -0.97014,-0.84849 -0.33481,-1.29693 -1.65124,-2.71933 -2.51704,-2.71963 -0.8013,-2.6e-4 -1.26752,0.69225 -0.91254,1.35553 0.30427,0.56855 1.68673,1.64288 2.11406,1.64288 0.37338,0 0.61954,0.3222 0.40182,0.52596 -0.26715,0.25001 -1.16873,0.30671 -2.70983,0.17039 z m 5.27406,-1.18889 c 0.57552,-0.88902 0.89485,-3.421633 0.52829,-4.189893 -0.32554,-0.68227 -1.35277,-0.82548 -1.91175,-0.26651 -0.48966,0.48966 -0.49278,2.087833 -0.006,3.160213 0.19189,0.42291 0.3489,0.91251 0.3489,1.08801 0,0.4813 0.18967,0.87801 0.41575,0.86964 0.11088,-0.004 0.39213,-0.30176 0.62498,-0.66146 z m -2.72753,-6.050553 c 0.85999,-0.58864 1.2413,-1.33902 0.99987,-1.96768 -0.156,-0.4062 -0.29067,-0.48506 -0.82832,-0.48506 -0.51458,0 -0.76456,0.1313 -1.25926,0.66145 -0.33947,0.36381 -0.72972,0.92288 -0.86721,1.2424 -0.13749,0.31952 -0.36654,0.62567 -0.50899,0.68033 -0.30539,0.11719 -0.34112,0.61454 -0.0641,0.8916 0.21763,0.21763 1.4353,-0.27514 2.52797,-1.02304 z m -16.09875,0.48515 c -0.0669,-0.56614 -0.65918,-1.5293 -1.45421,-2.36463 -0.57952,-0.60889 -1.47345,-0.77977 -1.89162,-0.3616 -0.47444,0.47444 -0.24272,1.22705 0.62233,2.02125 0.4587,0.42113 0.99916,0.7657 1.20101,0.7657 0.20185,0 0.52108,0.11767 0.7094,0.2615 0.52443,0.40052 0.88172,0.25893 0.81309,-0.32222 z m 3.04669,0.31969 c 0.18832,-0.14244 0.47367,-0.25897 0.63412,-0.25897 0.16045,0 0.4354,-0.15875 0.61099,-0.35278 0.17559,-0.19403 0.42061,-0.35278 0.54449,-0.35278 0.33496,0 0.95482,-0.95835 0.95482,-1.47623 0,-0.50085 -0.43317,-0.81682 -1.11979,-0.81682 -0.66148,0 -2.23239,1.71309 -2.47413,2.69804 -0.20107,0.81924 0.17695,1.06823 0.8495,0.55954 z m 8.84457,0.0308 c 0.0505,-0.13167 0.40522,-0.34281 0.78822,-0.46921 0.62776,-0.20718 0.69635,-0.2884 0.69635,-0.82461 0,-0.32714 0.11906,-0.87975 0.26458,-1.22803 0.65736,-1.57329 0.1283,-3.0596 -1.08908,-3.0596 -1.20348,0 -1.66708,1.34893 -1.01967,2.96695 0.34122,0.8528 0.41998,2.172 0.13568,2.27258 -0.1184,0.0419 -0.2821,-0.19014 -0.37723,-0.53465 -0.16575,-0.60031 -0.29071,-0.78361 -1.27076,-1.864 -0.6484,-0.7148 -1.44116,-0.75098 -1.87708,-0.0857 -0.28829,0.43999 -0.28637,0.49248 0.04,1.09511 0.23343,0.43098 0.65242,0.79364 1.31297,1.13644 0.53358,0.27691 1.04555,0.57786 1.13771,0.66878 0.25405,0.25063 1.15401,0.19765 1.25828,-0.0741 z m 11.15535,-0.3659 c 0.038,-0.32336 -0.0669,-0.60587 -0.30868,-0.83112 -0.20145,-0.18767 -0.36627,-0.41086 -0.36627,-0.49595 0,-0.0851 -0.30227,-0.47889 -0.67171,-0.87508 -0.67013,-0.71864 -1.28976,-0.9042 -2.04789,-0.61328 -0.54527,0.20924 -0.33782,1.12634 0.4173,1.84466 0.68157,0.64837 2.39375,1.58632 2.74327,1.5028 0.097,-0.0232 0.20231,-0.26259 0.23398,-0.53203 z m 4.46313,-0.50516 c 0.94572,-0.58937 1.30352,-1.14641 1.14417,-1.78129 -0.25053,-0.99822 -1.56192,-0.89831 -2.36823,0.18043 -0.2082,0.27854 -0.49506,0.6281 -0.63748,0.77681 -0.36202,0.37799 -0.65095,1.72116 -0.38971,1.81166 0.25028,0.0867 1.18618,-0.32387 2.25125,-0.98761 z m 6.91254,0.26093 c -0.39566,-0.99248 -1.68861,-2.58123 -2.15563,-2.64879 -1.66174,-0.24039 -1.82507,1.3587 -0.2447,2.39587 0.3326,0.21828 0.65875,0.39957 0.72479,0.40286 0.066,0.003 0.43266,0.15382 0.81474,0.3345 0.96652,0.45707 1.18675,0.33313 0.8608,-0.48444 z m 3.56252,0.29298 c 1.67094,-0.79816 2.23866,-1.37471 2.16911,-2.20284 -0.0464,-0.55267 -0.13463,-0.67796 -0.55611,-0.78982 -0.88112,-0.23386 -1.80513,0.38803 -2.33643,1.57249 -0.14332,0.31952 -0.37714,0.62567 -0.51958,0.68033 -0.35698,0.13698 -0.33278,1.29637 0.0271,1.29637 0.028,0 0.57515,-0.25044 1.21596,-0.55653 z m -36.41244,-0.45768 c 0.0642,-0.31411 0.22188,-0.69773 0.35032,-0.85248 0.14048,-0.16927 0.26401,-0.91936 0.31007,-1.88282 0.0863,-1.80482 -0.06,-2.07132 -1.13706,-2.07132 -0.99468,0 -1.18315,0.37473 -1.08187,2.15102 0.0487,0.85345 0.16749,1.65127 0.26406,1.77292 0.0966,0.12166 0.2729,0.52321 0.39184,0.89234 0.26635,0.82664 0.73262,0.82165 0.90264,-0.01 z m 23.06038,-0.12656 c 0.0309,-0.36989 0.18499,-0.86905 0.34237,-1.10926 0.19509,-0.29774 0.28947,-0.84892 0.29656,-1.73194 0.0121,-1.50976 -0.16996,-1.78977 -1.21742,-1.87212 -0.99697,-0.0784 -1.23377,0.45153 -1.07163,2.3981 0.0971,1.16522 0.2211,1.60506 0.64442,2.28517 0.60599,0.97363 0.92602,0.98319 1.0057,0.03 z m 11.3094,0.12105 c 0.37193,-0.37194 0.51676,-0.72379 0.59899,-1.45521 0.0596,-0.53056 0.15725,-1.20855 0.21686,-1.50665 0.0651,-0.32559 1.8e-4,-0.80097 -0.16259,-1.19062 -0.25438,-0.60881 -0.31898,-0.64863 -1.05217,-0.64863 -0.51183,0 -0.86462,0.10066 -1.02324,0.29197 -0.33814,0.40781 -0.26532,2.75249 0.10176,3.27657 0.15043,0.21478 0.27352,0.63743 0.27352,0.93923 0,0.93335 0.3178,1.0224 1.04687,0.29334 z m -29.97465,-5.52826 c 0,-0.18215 -0.0834,-0.33118 -0.18539,-0.33118 -0.10196,0 -0.30747,-0.29766 -0.45668,-0.66146 -0.14921,-0.3638 -0.55814,-0.95912 -0.90874,-1.32292 -0.51046,-0.52968 -0.76712,-0.66146 -1.28833,-0.66146 -0.69391,0 -0.86502,0.20011 -0.86502,1.01166 0,0.58747 1.23099,1.74244 2.15086,2.01804 0.37155,0.11132 0.76451,0.30959 0.87325,0.44061 0.2512,0.30268 0.68005,-0.008 0.68005,-0.49329 z m -7.98412,-0.0802 c 1.71344,-0.90613 2.01492,-1.23022 1.95107,-2.09746 -0.0514,-0.69803 -0.0659,-0.71213 -0.7844,-0.76452 -0.63209,-0.0461 -0.80886,0.0262 -1.29477,0.52917 -0.3095,0.3204 -0.67568,0.84051 -0.81373,1.1558 -0.13805,0.3153 -0.36899,0.57327 -0.51321,0.57327 -0.26957,0 -0.34458,0.46207 -0.15516,0.95571 0.14855,0.3871 0.25782,0.36321 1.6102,-0.35197 z m 10.70433,0.47696 c 0.0524,-0.0847 0.53138,-0.36743 1.06452,-0.62827 1.10955,-0.54285 1.68333,-1.17414 1.68333,-1.85205 0,-0.61994 -0.29973,-0.89344 -0.97914,-0.89344 -0.44029,0 -0.72293,0.18142 -1.35982,0.87282 -0.4422,0.48005 -0.85838,1.12042 -0.92485,1.42303 -0.0665,0.30262 -0.23242,0.59303 -0.3688,0.64536 -0.13637,0.0523 -0.24795,0.20572 -0.24795,0.34086 0,0.27245 0.97235,0.35116 1.13271,0.0917 z m 20.26146,-0.19876 c 0.0754,-0.28819 0.24059,-0.35277 0.90251,-0.35277 0.69267,0 0.81027,0.0512 0.81027,0.35277 0,0.36106 0.32639,0.4685 0.62618,0.20613 0.0922,-0.0807 0.49047,-0.23827 0.88512,-0.35025 1.02688,-0.29135 2.19286,-1.41287 2.19286,-2.10924 0,-0.95193 -0.69383,-1.33679 -1.55164,-0.86067 -0.36344,0.20172 -1.65189,1.91037 -1.8526,2.4568 -0.0627,0.1706 -0.12783,0.17066 -0.30863,2.7e-4 -0.18582,-0.17509 -0.18771,-0.37536 -0.01,-1.05833 0.60478,-2.32401 0.63238,-2.6734 0.25161,-3.18486 -0.54356,-0.73011 -1.18467,-0.89278 -1.77669,-0.4508 -0.62417,0.46598 -0.76728,1.32581 -0.42526,2.55489 0.46785,1.68121 0.26786,2.85166 -0.2888,1.69023 -0.12615,-0.26319 -0.55508,-0.83643 -0.95317,-1.27386 -0.56511,-0.621 -0.84549,-0.79539 -1.27877,-0.79539 -0.30523,0 -0.65021,0.0952 -0.76662,0.21167 -0.22739,0.22739 -0.27725,0.82329 -0.10619,1.26909 0.16886,0.44003 1.74791,1.48557 2.4396,1.61533 0.3486,0.0654 0.67731,0.18928 0.73047,0.2753 0.16327,0.26416 0.38279,0.1743 0.47973,-0.19639 z m 11.20408,-0.31186 c 0.037,-0.37267 -0.0623,-0.66605 -0.30868,-0.91246 -0.19975,-0.19975 -0.36318,-0.46456 -0.36318,-0.58848 0,-0.27864 -0.99838,-1.17174 -1.54008,-1.3777 -0.49035,-0.18643 -1.28214,0.0839 -1.28214,0.43768 0,0.13999 -0.0425,0.3654 -0.0945,0.50092 -0.1648,0.42947 1.75412,2.07551 2.41958,2.07551 0.15268,0 0.37861,0.12171 0.50207,0.27046 0.32624,0.3931 0.6045,0.22375 0.66698,-0.40593 z m -23.05294,0.17957 c 0.0417,-0.63413 -0.0563,-0.96208 -0.38643,-1.29217 -0.18669,-0.18668 -0.33943,-0.41269 -0.33943,-0.50225 0,-0.0896 -0.24423,-0.40705 -0.54274,-0.70555 -0.85722,-0.85722 -2.27948,-0.6464 -2.27948,0.33788 0,1.02594 3.48318,3.14848 3.54808,2.16209 z m 3.35687,0.0561 c 0.82953,-0.25176 1.21904,-0.50286 2.13662,-1.37737 0.63856,-0.60858 0.61345,-1.35021 -0.0565,-1.66973 -0.76627,-0.36544 -1.39348,-0.0569 -2.1571,1.06109 -0.37709,0.55211 -0.75796,1.00383 -0.84636,1.00383 -0.18426,0 -0.22057,0.93973 -0.0432,1.11713 0.0647,0.0647 0.1242,0.11673 0.13229,0.11568 0.008,-0.001 0.3835,-0.11383 0.83424,-0.25063 z m -24.72838,-0.44429 c 0.5193,-0.5559 0.77378,-1.70061 0.7741,-3.48194 1.8e-4,-1.23065 -0.26585,-1.52816 -1.26589,-1.41544 -0.42813,0.0483 -0.84676,0.1956 -0.93028,0.32743 -0.24312,0.38371 -0.18074,2.41671 0.0902,2.94071 0.13613,0.26325 0.30389,0.85462 0.3728,1.31416 0.0689,0.45954 0.2035,0.83552 0.29908,0.83552 0.0956,0 0.39256,-0.23419 0.65995,-0.52044 z m 22.86729,0.21176 c 0.0516,-0.16977 0.2037,-0.5468 0.33791,-0.83784 1.24119,-2.6916 0.55174,-4.99194 -1.26823,-4.23151 l -0.63207,0.2641 0.0872,1.27815 c 0.16092,2.35806 1.12765,4.6695 1.47517,3.5271 z m 25.69382,-0.19181 c 0.89694,-0.52816 1.71787,-1.4835 1.71787,-1.99915 0,-0.48538 -0.72813,-0.87369 -1.39003,-0.74131 -0.43084,0.0862 -0.77443,0.39021 -1.44,1.27418 -1.10806,1.47169 -1.15457,1.97018 -0.18328,1.96377 0.25062,-0.002 0.83356,-0.22553 1.29544,-0.49749 z m -36.73491,-0.35991 c 0,-0.37621 0.11907,-0.96897 0.26459,-1.31725 0.14552,-0.34828 0.26458,-1.14591 0.26458,-1.77251 0,-1.08852 -0.0235,-1.15099 -0.5269,-1.40213 -1.18254,-0.58993 -2.03384,0.20764 -1.85328,1.73632 0.0573,0.48507 0.14848,1.36569 0.20264,1.95694 0.0875,0.95574 0.1502,1.09552 0.56474,1.26005 0.90616,0.35966 1.08363,0.28409 1.08363,-0.46142 z m 34.2316,-0.0583 c 0.0581,-0.35767 0.20037,-0.7644 0.31609,-0.90383 0.24912,-0.30017 0.47104,-2.37089 0.31782,-2.96552 -0.0589,-0.22849 -0.3397,-0.54623 -0.62407,-0.70611 -0.48541,-0.27291 -0.54984,-0.27072 -1.05369,0.0357 -0.36493,0.22193 -0.5723,0.51632 -0.64802,0.91997 -0.112,0.59697 0.16585,2.56808 0.43756,3.10418 0.0802,0.15829 0.23465,0.51173 0.34318,0.78542 0.28096,0.70862 0.77592,0.56205 0.91113,-0.26979 z m -25.74663,-5.89414 c 1.01434,-0.68124 1.35909,-1.2886 1.07961,-1.902 -0.17463,-0.38327 -0.32481,-0.45739 -0.92673,-0.45739 -0.60361,0 -0.81613,0.10564 -1.33071,0.66146 -0.33681,0.3638 -0.66105,0.85989 -0.72053,1.10243 -0.0595,0.24253 -0.22832,0.65041 -0.37519,0.90638 -0.14686,0.25597 -0.22101,0.58534 -0.16476,0.73191 0.0874,0.22763 0.2168,0.20852 0.88734,-0.13095 0.43179,-0.2186 1.12973,-0.62893 1.55097,-0.91184 z m -12.54191,0.69491 c 2.00853,-0.93621 2.90643,-2.39155 1.80799,-2.93043 -0.59449,-0.29164 -1.06185,-0.20694 -1.60353,0.29061 -0.69802,0.64117 -1.43918,1.87053 -1.43918,2.38719 0,0.4864 0.15045,0.7849 0.34175,0.67803 0.0546,-0.0305 0.45641,-0.22191 0.89297,-0.4254 z m 7.8201,-0.51085 c -0.74219,-2.1999 -2.91887,-3.47024 -3.30564,-1.92922 -0.15081,0.6009 0.31932,1.47121 0.91762,1.69868 0.26197,0.0996 0.59551,0.28647 0.74121,0.41527 0.24984,0.22086 1.80218,0.81415 1.89599,0.72462 0.024,-0.0229 -0.0882,-0.43208 -0.24918,-0.90935 z m -11.34787,0.64598 c 0,-0.0891 0.0426,-0.27284 0.0945,-0.40836 0.052,-0.13552 -0.0869,-0.45394 -0.30869,-0.7076 -0.22177,-0.25367 -0.66679,-0.81918 -0.98892,-1.2567 -0.6223,-0.8452 -1.05609,-1.01908 -1.83965,-0.73741 -1.27952,0.45995 -0.0352,2.37308 1.97584,3.03799 0.7848,0.25946 1.06686,0.27852 1.06686,0.0721 z m 23.07455,-0.41281 c 0.0672,-0.58243 0.30939,-0.61623 0.72629,-0.10137 0.42421,0.52387 0.8936,0.32142 0.8936,-0.38542 0,-0.2989 0.10804,-0.7578 0.24008,-1.01977 0.32262,-0.64003 0.50455,-2.37902 0.30407,-2.90634 -0.19271,-0.50687 -1.07076,-0.91373 -1.60559,-0.74399 -0.70679,0.22433 -0.88986,1.05899 -0.62202,2.83601 0.13229,0.87767 0.17019,1.64349 0.0858,1.73283 -0.19685,0.20835 -0.64731,-0.16566 -0.7962,-0.6611 -0.063,-0.20952 -0.35943,-0.63891 -0.6588,-0.95421 -0.41779,-0.44002 -0.69206,-0.57326 -1.17998,-0.57326 -0.76114,0 -1.05901,0.25552 -1.05901,0.90844 0,0.5806 1.17348,1.64486 2.33964,2.12189 0.96781,0.3959 1.26368,0.33955 1.33214,-0.25371 z m 3.84215,-0.0458 c 1.69164,-0.94601 2.29047,-2.0388 1.44265,-2.63263 -0.69533,-0.48703 -1.11028,-0.33808 -2.06043,0.73965 -0.84982,0.96392 -1.25297,1.907 -0.9942,2.32569 0.1828,0.29578 0.42615,0.23046 1.61198,-0.43271 z m 10.66239,0.41486 c 0.76903,-0.26808 2.03207,-1.12499 2.37061,-1.60834 0.44153,-0.63037 0.34492,-1.34005 -0.21123,-1.5515 -0.263,-0.1 -0.65647,-0.13706 -0.87437,-0.0824 -0.4818,0.12092 -1.38827,1.06167 -1.66369,1.72659 -0.11086,0.26763 -0.3063,0.48659 -0.43433,0.48659 -0.35764,0 -0.44993,0.27734 -0.25922,0.77894 0.19712,0.51848 0.26016,0.53318 1.07223,0.25008 z m 8.5466,-0.29929 c 0.12892,-0.28797 0.2713,-0.36412 0.52916,-0.28302 1.05755,0.33255 1.0573,0.33268 1.07438,-0.48623 0.009,-0.42307 0.14779,-0.97028 0.30881,-1.21603 0.17712,-0.2703 0.30203,-0.84895 0.31623,-1.46482 0.0211,-0.914 -0.0312,-1.07274 -0.51204,-1.55353 -0.67813,-0.67812 -1.2607,-0.57513 -1.8144,0.32077 l -0.39157,0.63358 0.31002,1.4773 c 0.30371,1.44726 0.28184,2.01863 -0.0773,2.01863 -0.0988,0 -0.29507,-0.25796 -0.43629,-0.57327 -0.44976,-1.00428 -1.44582,-1.89617 -2.11764,-1.89617 -0.38512,0 -0.98175,0.63656 -0.98175,1.04745 0,0.63526 1.29557,1.7325 2.61846,2.21764 0.79261,0.29067 0.94982,0.25822 1.1739,-0.2423 z m -44.52775,-0.42106 c 0.11024,-0.41231 0.28763,-0.85593 0.3942,-0.98583 0.10657,-0.1299 0.22758,-0.94349 0.26891,-1.80797 l 0.0752,-1.5718 -0.64702,-0.27034 c -0.8096,-0.33827 -1.51289,-0.0645 -1.70577,0.66398 -0.17813,0.67279 0.12815,2.92178 0.49888,3.66328 0.65424,1.30855 0.83495,1.35855 1.11565,0.30868 z m 32.71235,0.56896 c 0.22795,-0.36884 -0.12689,-1.18947 -0.89303,-2.06529 -0.91191,-1.04246 -1.66205,-1.32444 -2.20828,-0.8301 -0.74251,0.67196 -0.18217,1.74761 1.31628,2.52671 1.10094,0.57244 1.59591,0.67467 1.78503,0.36868 z m -21.52618,-0.20233 c 0.24943,-0.11364 0.48409,-0.37161 0.52147,-0.57326 0.0374,-0.20165 0.16204,-0.76351 0.27701,-1.24858 0.41417,-1.74737 0.41224,-2.25725 -0.0106,-2.79481 -0.60038,-0.76326 -1.03587,-0.84865 -1.70916,-0.33511 -0.489,0.37298 -0.57394,0.54873 -0.57394,1.1876 0,0.41241 0.15875,1.24677 0.35278,1.85413 0.19402,0.60735 0.35277,1.27915 0.35277,1.49288 0,0.3399 0.13002,0.62378 0.28568,0.62378 0.0278,0 0.25458,-0.093 0.504,-0.20663 z m 23.30094,-0.48773 c 0.39224,-0.59272 0.47325,-0.94775 0.55343,-2.42535 0.0866,-1.59571 0.0652,-1.75674 -0.27357,-2.06062 -0.27974,-0.25093 -0.5152,-0.30192 -0.98622,-0.21355 -1.04159,0.1954 -1.20814,0.4983 -1.06565,1.93792 0.0681,0.6881 0.23367,1.46544 0.36791,1.72741 0.13422,0.26197 0.24404,0.70515 0.24404,0.98484 0,0.98786 0.52422,1.01016 1.16006,0.0494 z m -30.25911,-5.05173 c 0.14098,-0.3708 0.27812,-0.44866 0.74529,-0.4231 0.96426,0.0528 1.01348,0.0236 1.01348,-0.599596 0,-0.32735 0.11907,-0.932648 0.26459,-1.345096 0.27851,-0.789393 0.36599,-2.822226 0.12145,-2.822226 -0.0787,0 -0.31299,-0.15825 -0.5206,-0.351671 -0.28709,-0.26746 -0.47455,-0.31455 -0.78291,-0.196628 -0.94745,0.362289 -1.33319,1.358879 -0.94827,2.449872 0.22548,0.63908 0.34034,1.563053 0.29533,2.375859 -0.029,0.524316 -0.37408,0.341656 -0.66361,-0.35128 -0.58179,-1.39242 -1.6202,-2.23238 -2.47828,-2.004669 -0.41165,0.109231 -0.50015,0.237519 -0.54664,0.79243 -0.0305,0.364162 0.0405,0.777753 0.15781,0.919102 0.33213,0.400197 1.71507,1.290443 2.18963,1.409553 0.23517,0.059 0.51994,0.2186 0.63281,0.3546 0.27783,0.33476 0.32032,0.31783 0.51992,-0.20715 z m -8.25632,-0.14134 c 1.24082,-0.558886 2.43038,-1.605134 2.43038,-2.137574 0,-0.775742 -0.17849,-0.970822 -0.88826,-0.970822 -0.52172,0 -0.80775,0.129601 -1.26518,0.573262 -0.32508,0.315301 -0.68723,0.793782 -0.80478,1.063292 -0.11756,0.269506 -0.33348,0.535966 -0.47984,0.592126 -0.27638,0.10606 -0.34381,0.538586 -0.15905,1.020086 0.1338,0.34867 0.0617,0.35733 1.16673,-0.14037 z m 12.39634,-0.517706 c 1.49588,-0.986926 1.81526,-1.632258 1.18998,-2.404439 -0.28776,-0.355381 -0.35826,-0.365959 -1.01135,-0.151839 -0.53417,0.17513 -0.86158,0.462309 -1.36926,1.201012 -0.36698,0.533958 -0.69831,1.216496 -0.73631,1.516742 -0.0685,0.54101 -0.0633,0.54483 0.57615,0.42497 0.35488,-0.0665 0.96274,-0.33043 1.35079,-0.586446 z m 7.14375,0.0447 c 0,-0.285306 -0.11922,-0.657646 -0.26493,-0.827432 -0.14571,-0.169769 -0.5474,-0.64113 -0.89265,-1.047472 -0.69932,-0.82305 -1.16615,-0.979749 -1.88513,-0.632769 -0.93345,0.45049 -0.37992,1.6164 1.18735,2.500903 1.4742,0.83199 1.85536,0.83339 1.85536,0.007 z m 4.41264,-0.126216 c 0.98164,-0.66333 1.3644,-1.080485 1.41211,-1.539056 0.0655,-0.629671 0.004,-0.747802 -0.50065,-0.956712 -0.69942,-0.289711 -1.2978,-0.01511 -1.90855,0.875842 -0.27782,0.405281 -0.64403,0.864881 -0.81381,1.021336 -0.3557,0.32778 -0.4143,1.198706 -0.0882,1.310726 0.35673,0.12255 1.04682,-0.13622 1.8991,-0.712136 z m 11.23594,0.214786 c 1.46918,-0.957901 1.90327,-1.721462 1.45494,-2.559194 -0.20898,-0.390469 -0.53036,-0.425119 -1.31424,-0.141671 -0.52277,0.189042 -0.83591,0.556332 -1.54526,1.812563 -0.16944,0.300066 -0.40756,0.545566 -0.52917,0.545566 -0.34213,0 -0.36394,-0.889866 -0.0386,-1.575436 0.16112,-0.339542 0.30504,-1.010383 0.31981,-1.490752 0.0217,-0.703972 -0.0561,-0.961782 -0.40075,-1.328952 -0.50848,-0.5417 -1.17108,-0.58153 -1.74296,-0.104791 -0.53178,0.44332 -0.65385,1.31618 -0.3159,2.258912 0.14936,0.416682 0.32375,1.150903 0.38751,1.631603 0.11177,0.842532 0.13637,0.874002 0.68324,0.874002 0.33151,0 0.69222,0.13802 0.86784,0.33208 0.25641,0.28333 0.40936,0.30778 1.04158,0.16653 0.40758,-0.0911 0.91695,-0.28027 1.13198,-0.42046 z m 7.4294,0.005 c 0.0346,-0.296186 -0.0458,-0.583786 -0.19338,-0.691946 -0.13892,-0.1018 -0.37632,-0.423213 -0.52754,-0.714255 -0.44745,-0.861221 -1.09246,-1.355061 -1.79592,-1.375002 -1.22433,-0.0347 -1.47207,0.927952 -0.48263,1.875313 0.5325,0.509864 2.49517,1.55238 2.76385,1.46809 0.097,-0.0304 0.20304,-0.28342 0.23562,-0.5622 z m -43.75687,-2.277685 c 0.17688,-1.321972 0.16803,-1.623513 -0.0606,-2.065663 -0.38888,-0.75201 -0.95001,-0.95875 -1.63742,-0.603279 -0.54907,0.283929 -0.55357,0.2975 -0.54737,1.648772 0.004,0.847079 0.10161,1.529302 0.25833,1.803463 0.13865,0.242539 0.2549,0.624776 0.25834,0.849436 0.003,0.22466 0.0945,0.573346 0.20233,0.774866 0.19041,0.35577 0.21236,0.34863 0.75769,-0.24664 0.48818,-0.532876 0.58868,-0.815382 0.76872,-2.160955 z m 22.36597,1.959179 c 0.0666,-0.30719 0.19861,-0.607886 0.29332,-0.668216 0.21853,-0.13924 0.49196,-2.551785 0.36313,-3.203935 -0.18643,-0.943541 -1.32699,-1.31889 -1.99075,-0.65513 -0.26585,0.265859 -0.35088,0.580949 -0.3451,1.278819 0.0108,1.296524 0.43054,3.013262 0.92544,3.784658 0.22318,0.34788 0.62405,0.0628 0.75396,-0.536196 z m 9.95459,0.609536 c 0,-0.33645 -0.58077,-1.516822 -1.02747,-2.088253 -0.82153,-1.050933 -1.96353,-1.428901 -2.31771,-0.767101 -0.42267,0.78977 -0.0216,1.756568 0.88433,2.131828 0.28632,0.11859 0.52057,0.27875 0.52057,0.355906 0,0.19077 0.86045,0.49147 1.45521,0.50854 0.26679,0.008 0.48507,-0.0558 0.48507,-0.14092 z m 15.08013,-0.12103 c 0.96434,-0.457606 2.02959,-1.469693 2.02959,-1.928292 0,-0.597184 -0.17126,-0.955662 -0.55455,-1.160794 -0.50034,-0.26779 -1.68802,0.457841 -2.11306,1.291014 -0.186,0.364569 -0.40667,0.66285 -0.4904,0.66285 -0.18751,0 -0.36626,0.862212 -0.24452,1.179432 0.11894,0.30999 0.66348,0.29246 1.37294,-0.0442 z m -2.0152,-0.642816 c 0.0581,-0.35767 0.20556,-0.770626 0.32759,-0.917676 0.12204,-0.147051 0.26518,-0.898954 0.3181,-1.670902 0.0935,-1.363914 0.0823,-1.416373 -0.39477,-1.858545 -0.61441,-0.56942 -1.04075,-0.575318 -1.59401,-0.02209 -0.30835,0.308348 -0.43257,0.625618 -0.43162,1.102429 0.002,0.957503 0.34399,2.937116 0.5271,3.050274 0.0853,0.0527 0.23962,0.31827 0.34299,0.59015 0.26932,0.708346 0.76959,0.557006 0.90462,-0.27367 z m -3.86239,-5.414043 c 2.17802,-1.104728 2.71174,-1.861309 1.89158,-2.68147 -0.52061,-0.520618 -1.32135,-0.3337 -2.05418,0.479521 -0.31531,0.349879 -0.57327,0.721481 -0.57327,0.82578 0,0.104309 -0.16846,0.368959 -0.37436,0.588121 -0.27051,0.287949 -0.34296,0.52351 -0.26122,0.84922 0.0622,0.247899 0.17115,0.449728 0.24206,0.448498 0.0709,-0.0011 0.57913,-0.230579 1.12939,-0.50967 z m -37.86258,-0.0272 c 0.0799,-0.251679 -0.011,-0.487931 -0.29679,-0.771739 -0.22655,-0.22497 -0.61035,-0.699781 -0.85289,-1.055151 -0.62302,-0.91286 -1.29969,-1.250741 -1.95839,-0.9779 -0.41244,0.170839 -0.50983,0.31817 -0.50471,0.763551 0.007,0.624758 0.57239,1.404588 1.22838,1.69482 0.24253,0.10731 0.63941,0.309589 0.88195,0.449519 0.65907,0.38023 1.36441,0.33183 1.50245,-0.1031 z m 17.28176,-12.55778 c -1.91804,-3.940098 -1.90621,-3.905308 -1.49868,-4.409199 0.30601,-0.37836 0.45961,-0.40005 3.20651,-0.452829 1.71297,-0.0329 3.08102,0.0191 3.36735,0.127928 0.67632,0.25713 0.63027,0.843161 -0.20175,2.567141 -0.3762,0.779521 -1.02398,2.131679 -1.43951,3.00481 -0.76808,1.613929 -1.30502,2.38125 -1.66631,2.38125 -0.11031,0 -0.90574,-1.448599 -1.76761,-3.219101 z m -17.99046,-0.22542 c -0.48507,-0.139059 -1.06293,-0.254378 -1.28414,-0.256249 -0.96974,-0.008 -4.19004,-1.56642 -5.69493,-2.75563 -1.28032,-1.011751 -3.18883,-3.06633 -3.69656,-3.979489 -0.57424,-1.03278 -1.36303,-2.69054 -1.49694,-3.14606 -0.0713,-0.24253 -0.19441,-0.522592 -0.27359,-0.622361 -0.0792,-0.0998 -0.31297,-1.171321 -0.51955,-2.38125 -0.36231,-2.12195 -0.36561,-2.26858 -0.0932,-4.140139 0.60422,-4.151651 2.16603,-7.249441 4.94504,-9.80834 3.80328,-3.502057 8.21073,-4.713803 13.93471,-3.8311 0.6791,0.104724 1.39129,0.29941 1.58266,0.432633 0.19135,0.133223 0.48242,0.242226 0.6468,0.242226 0.60861,0 3.95837,1.960949 4.91429,2.87682 2.03347,1.948281 3.11808,3.570539 4.38584,6.559981 0.40584,0.95699 0.90583,3.992298 0.90583,5.49905 0,1.171109 -0.48643,4.044799 -0.78535,4.639609 -0.12291,0.24457 -0.27861,0.67415 -0.34601,0.954609 -0.12717,0.529082 -1.33571,2.654922 -2.22979,3.922191 -0.93344,1.323081 -2.5873,2.716379 -4.94403,4.16515 -0.69398,0.426609 -3.11878,1.300401 -4.30662,1.551919 -1.59044,0.336762 -4.59451,0.377441 -5.64444,0.0764 z m 6.32161,-3.94784 c 0.84768,-0.185248 1.63741,-0.41366 1.75495,-0.507579 0.11754,-0.0939 0.39975,-0.227891 0.62714,-0.297701 1.60159,-0.491689 4.24901,-3.137308 5.29839,-5.294789 0.75612,-1.55453 1.43193,-4.007919 1.43193,-5.1983 0,-1.25457 -0.72986,-3.939781 -1.48803,-5.47455 -1.82022,-3.68472 -5.49514,-6.017019 -9.91814,-6.294591 -1.33654,-0.0839 -1.75073,-0.0327 -3.67753,0.454271 -1.44195,0.364429 -3.72057,1.716371 -4.85564,2.880921 -4.42505,4.539949 -4.75981,10.98082 -0.82306,15.835789 0.59,0.727599 1.13281,1.347891 1.20625,1.3784 0.0734,0.0305 0.42356,0.285969 0.77802,0.567661 0.93093,0.73982 3.05379,1.702858 4.23494,1.921208 0.56028,0.103571 1.05868,0.228312 1.10756,0.277191 0.21453,0.214529 2.9159,0.0596 4.32322,-0.247931 z m -2.00009,-6.167699 c -1.09716,-0.36109 -2.45584,-1.127559 -2.938,-1.657419 -0.28993,-0.318622 -0.74902,-1.04829 -1.02019,-1.621502 -0.43908,-0.928129 -0.48432,-1.188219 -0.41331,-2.37627 0.0965,-1.6144 0.53145,-2.55347 1.71424,-3.700918 0.66668,-0.64675 1.10599,-0.891712 2.19976,-1.226632 1.22084,-0.373819 1.47291,-0.397158 2.36177,-0.218649 2.00094,0.401849 3.74469,1.8918 4.24114,3.623861 0.59708,2.08312 0.29608,3.80424 -0.92615,5.29582 -1.15068,1.404239 -3.78462,2.353858 -5.21926,1.881709 z m 3.38006,-6.06321 c 0.99374,-0.80409 1.11505,-1.938531 0.30583,-2.860181 -0.44446,-0.506208 -0.67225,-0.623498 -1.21093,-0.623498 -0.76204,0 -1.46367,0.472948 -1.87144,1.261488 -0.24662,0.476912 -0.24391,0.596691 0.0297,1.313252 0.16562,0.43366 0.42823,0.862769 0.58358,0.95359 0.41276,0.241279 1.84642,0.21169 2.16322,-0.0446 z m 27.04702,16.178741 c -0.38805,-0.127891 -0.92623,-0.23863 -1.19594,-0.246081 -0.84701,-0.02339 -3.67641,-1.289359 -5.15269,-2.305441 -1.0332,-0.711139 -2.88582,-2.37544 -3.26456,-2.93274 -0.14553,-0.214119 -0.50542,-0.73352 -0.79978,-1.154218 -0.7213,-1.03088 -2.00151,-3.684831 -2.12784,-4.411091 -0.0562,-0.32294 -0.21418,-0.88642 -0.35114,-1.25218 -0.16842,-0.44976 -0.24902,-1.421051 -0.24902,-3.000651 0,-4.784129 1.54352,-8.422568 4.96495,-11.703518 1.46807,-1.4078 4.38023,-3.239831 5.14996,-3.239831 0.13595,0 0.59463,-0.149455 1.01926,-0.332121 0.42464,-0.182665 1.66279,-0.431128 2.75142,-0.552137 2.27958,-0.253389 4.79873,-0.03599 6.31434,0.544917 0.48696,0.186637 0.96321,0.341831 1.05834,0.344876 0.25082,0.008 1.98071,0.898001 2.92162,1.503088 1.13873,0.732297 3.03398,2.361657 3.47713,2.989297 1.735462,2.457981 2.329762,3.52489 3.045792,5.468051 0.33341,0.904779 0.4021,1.526 0.47343,4.28159 0.0814,3.144248 0.0715,3.26099 -0.40338,4.7625 -0.44036,1.39232 -0.80161,2.230269 -1.76619,4.09688 -0.780822,1.510998 -3.670362,4.225629 -5.779172,5.429359 -1.08621,0.620019 -2.81963,1.27105 -3.85678,1.448511 -0.51595,0.0883 -1.21537,0.243748 -1.55428,0.345488 -0.84415,0.25341 -3.81293,0.199731 -4.67547,-0.0845 z m 4.22056,-3.977801 c 1.86535,-0.4504 2.73495,-0.887899 4.45727,-2.242431 4.29616,-3.378758 5.62957,-9.321128 3.20069,-14.263899 -1.02693,-2.089809 -3.13358,-4.245679 -5.08945,-5.20835 -2.88209,-1.418561 -5.61098,-1.72494 -8.30485,-0.93241 -2.31104,0.679911 -3.68642,1.47819 -5.26737,3.057229 -1.57444,1.572532 -2.19043,2.566942 -2.96545,4.787191 -0.40098,1.148699 -0.46257,1.61327 -0.4677,3.527771 -0.005,1.74752 0.0572,2.3294 0.2986,2.805229 0.16748,0.3302 0.30568,0.76676 0.30711,0.97014 10e-4,0.20338 0.11573,0.568211 0.254,0.81075 0.13828,0.24253 0.37161,0.69996 0.51852,1.01651 0.51571,1.1112 2.04098,2.796879 3.49332,3.86071 1.68859,1.23689 2.79661,1.659279 5.69753,2.171999 0.93568,0.16537 2.1643,0.0509 3.86778,-0.360439 z m -5.71986,-6.13473 c -1.68036,-0.487291 -3.30509,-1.83447 -3.69663,-3.065139 -0.11532,-0.362451 -0.28325,-0.70448 -0.37319,-0.760061 -0.0899,-0.0556 -0.16352,-0.68943 -0.16352,-1.408541 0,-1.590829 0.4708,-2.761819 1.61244,-4.010549 0.62303,-0.681479 1.01863,-0.926751 2.08634,-1.2935 1.45742,-0.500621 2.11453,-0.492631 3.68967,0.0449 2.70234,0.922132 4.2583,4.38503 3.15058,7.011832 -0.84227,1.997318 -2.87464,3.48321 -4.87961,3.567549 -0.54181,0.02281 -1.18355,-0.01611 -1.42608,-0.0864 z m 3.40107,-6.00747 c 0.59707,-0.22701 0.97082,-1.54735 0.6543,-2.31148 -0.3169,-0.76509 -0.98509,-1.230939 -1.76558,-1.230939 -0.5477,0 -0.77078,0.12124 -1.29913,0.70607 -0.35084,0.388329 -0.63789,0.86774 -0.63789,1.06536 0,0.460799 0.62731,1.696138 0.92133,1.814349 0.38189,0.15353 1.67863,0.1271 2.12697,-0.0434 z m -6.88148,69.376387 c 0.12483,-0.12483 -0.40799,-1.30495 -0.58919,-1.30495 -0.20776,0 -0.28984,1.03807 -0.0973,1.23061 0.20122,0.20121 0.52462,0.23623 0.68651,0.0743 z m -28.43352,-1.52543 c 0.0379,-0.67 -0.0485,-3.04931 -0.11296,-3.11382 -0.17972,-0.17972 -0.29724,0.21336 -0.38292,1.28077 -0.0978,1.21881 0.0283,2.05353 0.31039,2.05353 0.0952,0 0.17864,-0.0992 0.18549,-0.22048 z"
       style="fill:none;stroke:#000000;stroke-width:0.126;stroke-miterlimit:4;stroke-dasharray:none;stroke-opacity:1"
       id="path4215" />
    <path
       d="m 183.81249,56.944676 c -0.12128,-0.16082 -0.77611,-0.59271 -1.45521,-0.95974 -1.23235,-0.66606 -1.23864,-0.66732 -3.26437,-0.65182 -1.59359,0.0122 -2.26638,0.0974 -3.1316,0.39687 -0.60608,0.20974 -1.21794,0.38136 -1.35968,0.38136 -0.14175,0 -0.59785,0.11036 -1.01354,0.24523 -0.4157,0.13488 -0.9741,0.29515 -1.24089,0.35613 -0.41306,0.0944 -0.48506,0.20052 -0.48506,0.71451 0,0.77299 -0.27385,0.93644 -0.777,0.46376 -0.38822,-0.36473 -0.4055,-0.3658 -0.69693,-0.0438 -0.3112,0.34387 -1.0374,0.33336 -1.48576,-0.0215 -0.16152,-0.12785 -0.34524,-0.0663 -0.64637,0.21663 l -0.42073,0.39525 -0.20761,-0.38793 c -0.30507,-0.57002 -0.0711,-1.49766 0.46663,-1.84999 0.33919,-0.22225 0.6512,-0.26952 1.21793,-0.18453 0.49214,0.0738 0.88756,0.0358 1.11684,-0.10742 0.29757,-0.18584 0.41162,-0.17035 0.70572,0.0958 0.4004,0.36236 1.25741,0.26717 1.62932,-0.18097 0.12149,-0.14638 0.504,-0.41173 0.85004,-0.58967 1.14828,-0.59048 3.53958,-3.17101 3.53958,-3.81968 0,-0.279 0.76843,-1.12267 1.02253,-1.12267 0.0862,0 0.30696,0.27911 0.49067,0.62024 0.20201,0.37512 0.42783,0.58425 0.57136,0.52917 0.13054,-0.0501 0.31219,-0.0911 0.40368,-0.0911 0.35288,0 0.53716,-1.05267 0.54042,-3.0868 0.003,-1.92182 -0.0451,-2.24657 -0.52346,-3.52778 -0.66751,-1.78788 -0.94857,-2.30529 -2.1938,-4.03845 l -1.01152,-1.40788 0.46274,-0.80461 c 0.2545,-0.44254 0.57078,-0.92993 0.70283,-1.08309 0.13207,-0.15316 0.24011,-0.35277 0.24011,-0.44358 0,-0.0908 0.16247,-0.46825 0.36105,-0.83875 0.2003,-0.37375 0.44779,-1.34558 0.55588,-2.18298 0.34037,-2.63674 -0.24362,-5.00762 -1.77001,-7.18588 l -0.6135,-0.87549 -0.0164,-2.74048 c -0.016,-2.68124 -0.0269,-2.75668 -0.50364,-3.49013 -0.26801,-0.41231 -0.58551,-0.74938 -0.70556,-0.74905 -0.12005,2.7e-4 -0.83562,0.56439 -1.59015,1.25344 -1.52471,1.39239 -1.66624,1.42199 -3.33896,0.69824 -0.70359,-0.30443 -2.37201,-0.5684 -5.60791,-0.88726 -0.84382,-0.0831 -1.89784,-0.0478 -2.91042,0.0977 -0.87312,0.12542 -2.10344,0.30227 -2.73403,0.39301 -0.63059,0.0907 -1.55263,0.34472 -2.04898,0.5644 -0.56429,0.24976 -1.06,0.35801 -1.32291,0.2889 -0.23126,-0.0608 -0.91152,-0.59221 -1.51169,-1.18093 -0.73826,-0.72416 -1.24768,-1.08163 -1.57493,-1.10513 -0.4443,-0.0319 -0.51719,0.0587 -0.89479,1.11178 -0.3624,1.01078 -0.40623,1.41984 -0.37024,3.4548 0.0363,2.05395 0.003,2.36211 -0.30704,2.79689 -0.47542,0.66774 -1.11271,1.71768 -1.23738,2.03859 -0.0565,0.14552 -0.27537,0.70114 -0.48631,1.23472 -0.57801,1.46217 -0.553,4.43661 0.0497,5.90903 0.23826,0.58208 0.57457,1.24763 0.74736,1.47899 0.17279,0.23137 0.31416,0.49666 0.31416,0.58954 0,0.0929 0.15875,0.3707 0.35278,0.61736 0.51749,0.65789 0.43634,1.1848 -0.34547,2.2431 -0.86293,1.16811 -2.1477,3.71248 -2.58793,5.12517 -0.6478,2.07882 -0.31697,5.63931 0.55509,5.97395 0.12282,0.0471 0.4738,-0.22601 0.77995,-0.60697 0.68412,-0.85129 1.00238,-0.87459 1.21922,-0.0893 0.38641,1.39948 2.28825,3.49928 4.2597,4.70308 0.91295,0.55747 -1.91526,0.63249 -3.21344,0.0852 -0.36069,-0.15205 -0.84288,-0.27645 -1.07154,-0.27645 -1.00984,0 -4.29599,-1.3902 -5.32822,-2.2541 -0.6501,-0.54408 -1.87522,-2.2181 -2.19076,-2.99347 -0.12831,-0.3153 -0.34273,-0.57327 -0.47648,-0.57327 -0.32261,0 -0.31021,0.67218 0.0309,1.67698 0.4473,1.31751 0.0116,1.84785 -1.20781,1.47025 -0.31108,-0.0963 -2.07373,-0.19317 -3.91699,-0.2152 l -3.35139,-0.0401 -0.0527,-0.70809 c -0.047,-0.63168 -0.11973,-0.73233 -0.67427,-0.93286 -0.57575,-0.20819 -0.60115,-0.24739 -0.34422,-0.53129 0.42926,-0.47433 0.33609,-0.69909 -0.41425,-0.99931 -0.65265,-0.26114 -0.68193,-0.30459 -0.51944,-0.77071 0.0947,-0.27168 0.35851,-0.669 0.58623,-0.88293 l 0.41404,-0.38897 0.10541,0.54374 c 0.058,0.29906 0.1514,0.78187 0.20762,1.07292 0.11272,0.58361 0.43017,0.67714 0.85533,0.25197 0.30275,-0.30275 0.32717,-0.25437 0.28361,0.56183 -0.0293,0.54896 0.4167,1.21282 0.698,1.03897 0.0808,-0.0499 0.19967,-0.40356 0.26426,-0.78588 0.27979,-1.65603 -1.27654,-4.42871 -2.93549,-5.22971 -1.52773,-0.73764 -2.36457,-1.08965 -2.86997,-1.20723 -0.28339,-0.0659 -0.71081,-0.2737 -0.94983,-0.46173 -0.51126,-0.40215 -1.23903,-0.44868 -1.37741,-0.0881 -0.13167,0.34312 0.23556,3.26643 0.44168,3.51598 0.0904,0.10945 0.22119,0.5165 0.29066,0.90455 0.34185,1.90991 1.86057,3.97633 3.22473,4.38767 0.45413,0.13693 1.23121,0.46135 1.72685,0.72091 0.71702,0.3755 1.29374,0.50592 2.82223,0.6382 1.05658,0.0914 2.41362,0.28441 3.01564,0.42884 0.60202,0.14442 1.29867,0.26258 1.54811,0.26258 0.38888,0 1.92593,0.43019 3.88369,1.08698 0.29104,0.0976 0.90006,0.28108 1.35336,0.40765 0.4533,0.12656 1.00675,0.35799 1.22987,0.51427 0.22313,0.15628 0.55089,0.28415 0.72837,0.28415 0.17747,0 0.61622,0.15366 0.97498,0.34147 0.35877,0.18781 1.10872,0.55798 1.66655,0.82259 0.55783,0.26462 1.01423,0.57337 1.01423,0.68612 0,0.33045 -0.74099,0.9117 -1.45275,1.13957 -0.36245,0.11605 -0.70314,0.28242 -0.7571,0.36972 -0.054,0.0873 -0.43209,0.24802 -0.8403,0.35715 -0.40821,0.10914 -0.85349,0.28977 -0.9895,0.40142 -0.13601,0.11164 -0.49223,0.28247 -0.7916,0.37963 -0.30342,0.0985 -0.57243,0.32326 -0.60785,0.50794 -0.0577,0.3009 0.0149,0.31953 0.79161,0.20308 0.47032,-0.0705 1.01022,-0.21122 1.19977,-0.31266 0.18956,-0.10144 0.70549,-0.28479 1.14653,-0.40745 0.75915,-0.21113 1.98321,-0.68085 3.35953,-1.28916 0.44855,-0.19825 1.32964,-0.28413 3.22225,-0.31407 2.29019,-0.0362 2.81227,0.0122 4.32152,0.40108 1.62937,0.41979 1.90944,0.43865 5.50901,0.37091 2.53619,-0.0477 3.96764,-0.14604 4.32152,-0.29681 0.29105,-0.12399 1.1514,-0.29116 1.91189,-0.3715 0.7605,-0.0803 1.91144,-0.26726 2.55764,-0.4154 2.21276,-0.50726 4.49529,-0.68196 7.16596,-0.54845 l 2.56166,0.12806 0.16629,-0.41516 c 0.22223,-0.55485 0.22176,-0.5684 -0.0318,-0.90474 z m -6.82363,-24.11667 c -0.51651,1.69184 -2.03988,3.42645 -3.66045,4.16799 -1.33372,0.6103 -3.43282,0.68629 -4.6443,0.16811 -2.01041,-0.85988 -2.94449,-1.7981 -3.78919,-3.80604 -0.41528,-0.98713 -0.47024,-1.3166 -0.39718,-2.38125 0.22046,-3.21234 2.71785,-5.74117 5.95329,-6.02822 1.11344,-0.0988 3.45999,0.57019 3.73713,1.06541 0.0885,0.15819 0.26988,0.28761 0.40303,0.28761 0.36554,0 1.34535,1.23892 1.98934,2.51542 0.4898,0.97085 0.57107,1.31346 0.55811,2.35314 -0.008,0.66927 -0.0757,1.4153 -0.14978,1.65783 z m -2.65102,-3.82411 c -0.93234,-1.4351 -2.14051,-2.14479 -3.74101,-2.19747 -1.5685,-0.0516 -2.40978,0.28356 -3.44978,1.37453 -1.10327,1.15736 -1.34797,1.86375 -1.24992,3.60814 0.0577,1.02595 0.16611,1.43494 0.50931,1.92085 0.61489,0.87062 1.31572,1.5875 1.55191,1.5875 0.1105,0 0.49708,0.15875 0.85911,0.35278 0.39647,0.2125 0.99519,0.35278 1.50568,0.35278 0.49939,0 1.13152,-0.1449 1.539,-0.35278 0.38032,-0.19403 0.79388,-0.35362 0.919,-0.35465 0.26364,-0.002 1.14897,-0.90573 1.64007,-1.67382 0.73077,-1.14292 0.68951,-3.42821 -0.0834,-4.61786 z m -2.81882,3.37095 c -0.3409,0.51711 -1.41522,1.1593 -1.93734,1.15806 -0.90028,-0.002 -2.12742,-1.39644 -2.1286,-2.41855 -0.001,-0.83566 0.90671,-1.81413 1.68288,-1.81413 0.32379,0 0.63614,0.0768 0.69414,0.17062 0.058,0.0938 0.34049,0.1236 0.62776,0.0661 0.40782,-0.0816 0.52232,-0.0415 0.52232,0.18284 0,0.21348 -0.14092,0.2758 -0.54851,0.24253 -0.71999,-0.0588 -1.08475,0.42603 -0.64869,0.8621 0.27725,0.27724 0.33667,0.26521 0.93169,-0.18864 0.34956,-0.26662 0.75074,-0.44056 0.89152,-0.38654 0.38204,0.1466 0.32662,1.49785 -0.0872,2.12557 z m 4.05943,15.81443 c -0.1183,0.60525 -0.65932,1.51369 -1.25808,2.11245 -0.15431,0.15431 -0.45583,0.64262 -0.67006,1.08513 -0.24698,0.51022 -0.66145,0.98318 -1.13293,1.29281 -0.40889,0.26853 -0.9585,0.63459 -1.22137,0.81344 -0.64278,0.43735 -1.0021,0.40964 -1.55481,-0.11988 l -0.46455,-0.44507 -0.42705,0.40131 c -0.23488,0.22072 -0.54662,0.58579 -0.69277,0.81126 -0.18393,0.28376 -0.45284,0.4194 -0.87354,0.44064 -0.54414,0.0275 -0.65164,-0.0478 -1.02632,-0.71899 -0.23016,-0.4123 -0.5193,-0.74964 -0.64253,-0.74964 -0.31433,0 -0.72529,0.50248 -1.04587,1.27882 -0.2132,0.51626 -0.37039,0.66145 -0.71617,0.66145 -0.50741,0 -0.68419,-0.16529 -1.22464,-1.14502 -0.51458,-0.93288 -0.89626,-0.98478 -1.36757,-0.18598 -0.69286,1.17432 -1.36775,1.19814 -2.26631,0.08 -0.6268,-0.77996 -0.87373,-0.84183 -1.33331,-0.33401 -0.21788,0.24076 -0.43989,0.31875 -0.6888,0.24193 -0.78418,-0.24198 -2.7428,-1.71781 -3.21029,-2.41896 -0.26987,-0.40474 -0.62083,-0.89462 -0.77992,-1.08865 -0.40404,-0.49279 -1.08578,-2.64164 -1.01876,-3.21125 0.0425,-0.36148 0.18521,-0.50589 0.60721,-0.61445 0.76493,-0.1968 1.08229,-0.9586 0.70406,-1.69001 -0.14929,-0.28868 -0.44418,-0.57004 -0.65535,-0.62527 -0.35424,-0.0926 -0.37444,-0.17277 -0.26148,-1.03665 0.11932,-0.91232 0.82122,-2.66689 1.14757,-2.86858 0.0896,-0.0553 0.34738,-0.0256 0.57293,0.0661 0.22554,0.0917 0.88634,0.29928 1.46843,0.46132 1.98612,0.55291 2.07366,0.6057 1.95859,1.18104 -0.10101,0.50503 0.28328,1.54683 0.57057,1.54683 0.32809,0 1.08681,-1.02265 1.08681,-1.46486 0,-0.41292 0.0711,-0.47542 0.54076,-0.47542 0.70089,0 1.22313,0.28585 1.22313,0.66947 0,0.41502 0.82924,1.27997 1.12011,1.16835 0.12936,-0.0496 0.4082,-0.39803 0.61961,-0.77419 0.21141,-0.37616 0.47894,-0.71545 0.5945,-0.75397 0.50057,-0.16685 1.06426,0.13922 1.58065,0.85828 0.5612,0.78146 0.90127,0.9537 1.08959,0.55186 0.56944,-1.21503 0.95667,-1.63357 1.5591,-1.68507 0.54921,-0.0469 0.63975,0.004 0.7429,0.41457 0.149,0.59365 0.80591,1.49098 1.09149,1.49098 0.26238,0 0.66951,-1.14638 0.53325,-1.50147 -0.12655,-0.32982 0.31994,-0.76504 0.91481,-0.89172 0.26001,-0.0554 0.65506,-0.17455 0.87791,-0.26485 0.22285,-0.0903 0.57439,-0.16418 0.78122,-0.16418 0.20684,0 0.63356,-0.0931 0.94827,-0.20691 0.86885,-0.31418 1.25802,0.0442 1.7614,1.62213 0.43184,1.35359 0.50356,1.88018 0.32094,2.35608 -0.0937,0.24431 -0.14885,0.24333 -0.53467,-0.009 -0.4865,-0.31877 -0.45515,-0.33387 -0.82708,0.39815 -0.25754,0.50685 -0.25257,0.58324 0.0727,1.11816 0.33281,0.54726 0.36834,0.56155 0.75938,0.30533 0.73962,-0.48461 0.98533,0.28207 0.64631,2.01666 z m -2.14608,-0.51828 c -0.22846,-0.65535 -0.43306,-0.69106 -0.98561,-0.17196 -0.53185,0.49965 -0.52105,1.08948 0.0265,1.44828 0.57457,0.37645 0.70966,0.3603 0.93747,-0.11201 0.24839,-0.51505 0.24838,-0.51387 0.0216,-1.16431 z m -0.24403,-6.35513 c -0.20183,-0.20633 -0.30751,-0.17398 -0.69395,0.21247 -0.25073,0.25072 -0.45586,0.60439 -0.45586,0.78591 0,0.41992 0.79057,1.17439 1.05762,1.00934 0.53777,-0.33236 0.59127,-1.49751 0.0922,-2.00772 z m -1.54669,9.19421 c -0.12126,-0.097 -0.38861,-0.22782 -0.5941,-0.29067 -0.29711,-0.0909 -0.41657,-0.0106 -0.58343,0.39226 -0.24035,0.58024 -0.0877,1.42517 0.28316,1.56749 0.34555,0.13259 1.11486,-0.62926 1.11486,-1.10404 0,-0.21375 -0.0992,-0.46802 -0.22049,-0.56504 z m -0.0541,-5.82477 c -0.37387,-0.53376 -0.89527,-0.49431 -1.20191,0.0909 -0.2194,0.41876 -0.21956,0.54772 -0.001,0.97014 0.2863,0.55364 0.68463,0.62098 1.15504,0.19527 0.39483,-0.35732 0.40946,-0.74024 0.048,-1.25632 z m -2.17287,2.53198 c -0.23648,-0.14615 -1.08032,0.58524 -1.08032,0.93635 0,0.16885 0.22788,0.52531 0.5064,0.79215 l 0.50639,0.48515 0.34952,-0.58444 c 0.30796,-0.51493 0.32131,-0.64084 0.11222,-1.05835 -0.13051,-0.26062 -0.30791,-0.51752 -0.39421,-0.57086 z m -1.47719,3.38934 c -0.12128,-0.15428 -0.38862,-0.33023 -0.5941,-0.39101 -0.29912,-0.0885 -0.41836,-0.002 -0.59797,0.43112 -0.30178,0.72857 -0.009,1.40766 0.60625,1.40766 0.6896,0 1.04107,-0.86863 0.58582,-1.44777 z m -0.11917,-6.03688 c -0.46568,-0.42142 -0.9312,-0.28812 -1.09186,0.31268 -0.15816,0.59136 0.1342,1.35114 0.51988,1.35114 0.40659,0 0.91163,-0.53745 0.91163,-0.97014 0,-0.21246 -0.15285,-0.52461 -0.33965,-0.69368 z m -1.8349,3.0049 -0.4089,-0.51103 -0.47217,0.50922 c -0.57142,0.61626 -0.57939,0.72871 -0.0886,1.25109 0.48095,0.51197 0.73397,0.51462 1.08501,0.0114 0.37283,-0.53447 0.36084,-0.66562 -0.1153,-1.26066 z m -1.63668,2.99488 c -0.0638,-0.16622 -0.31514,-0.27902 -0.62174,-0.27902 -0.63781,0 -0.96023,0.64252 -0.6567,1.30868 0.55178,1.21103 1.76371,0.23494 1.27844,-1.02966 z m -0.1046,-6.06457 c -0.71269,-0.71269 -1.68278,0.44012 -1.10824,1.31699 0.31877,0.48651 0.87637,0.53735 1.12939,0.10293 0.24625,-0.42279 0.23522,-1.16355 -0.0212,-1.41992 z m -1.905,2.96333 c -0.47932,-0.47931 -0.61439,-0.44822 -1.01693,0.234 -0.3432,0.5817 -0.34323,0.59089 -0.003,1.05835 0.41837,0.57429 0.73519,0.59724 1.09783,0.0795 0.36956,-0.52763 0.34561,-0.94807 -0.0782,-1.37186 z m -2.24907,2.85514 c -0.48447,-0.0467 -0.60144,0.0185 -0.75434,0.42069 -0.23532,0.61891 0.18043,1.31028 0.78791,1.31028 0.49903,0 0.62058,-0.22407 0.57416,-1.05833 -0.0311,-0.55915 -0.0884,-0.62257 -0.60773,-0.67264 z m 0.26469,-5.92318 c -0.6442,-0.40351 -1.33309,0.55395 -0.95059,1.32119 0.2456,0.49262 0.72513,0.63265 1.10028,0.32131 0.35446,-0.29418 0.25465,-1.38923 -0.14969,-1.6425 z m -1.48909,3.41597 c -0.59686,-0.87217 -0.84951,-0.89458 -1.22431,-0.10862 -0.26157,0.54854 -0.25988,0.62642 0.0231,1.05835 0.37102,0.56624 0.56134,0.58067 1.09139,0.0827 0.48786,-0.45832 0.48986,-0.47706 0.10978,-1.03243 z m -1.92526,2.75331 c -0.0623,-0.16234 -0.31324,-0.27902 -0.60011,-0.27902 -0.39183,0 -0.53184,0.11126 -0.68198,0.54196 -0.16852,0.48346 -0.13904,0.58819 0.27309,0.97015 0.2541,0.23549 0.52586,0.42817 0.60389,0.42817 0.38051,0 0.63777,-1.05495 0.40511,-1.66126 z m 0,-5.99722 c -0.23788,-0.61988 -1.30405,-0.0427 -1.30405,0.70586 0,0.72718 1.05556,1.32655 1.29428,0.73492 0.1288,-0.31918 0.1342,-1.11651 0.01,-1.44078 z m -1.94546,3.00823 c -0.25577,-0.25576 -0.53252,-0.46503 -0.615,-0.46503 -0.0825,0 -0.26833,0.28329 -0.413,0.62955 -0.23581,0.56432 -0.23395,0.67395 0.0179,1.05832 0.34607,0.52818 0.54389,0.53657 1.06686,0.0453 0.52294,-0.49127 0.5137,-0.69764 -0.0568,-1.26812 z m 0.0625,-5.81745 c -0.51591,-0.60041 -0.7599,-0.59077 -1.08764,0.043 -0.23586,0.45613 -0.23495,0.57051 0.008,1.05833 0.15007,0.30081 0.32222,0.54693 0.38257,0.54693 0.14949,0 1.09916,-0.91921 1.09916,-1.0639 0,-0.0638 -0.18112,-0.32673 -0.40248,-0.58436 z m 9.64666,-4.34897 c -0.22514,0.43656 -0.43615,0.86381 -0.46894,0.94945 -0.0328,0.0856 -0.23749,0.0992 -0.45493,0.0302 -0.36816,-0.11685 -1.26474,-1.62816 -1.26474,-2.13187 0,-0.7578 2.09356,-1.13763 2.46324,-0.44689 0.24357,0.45511 0.20774,0.66372 -0.27463,1.59909 z m -1.66909,-4.71768 c -0.44599,1.82828 -1.65477,3.32949 -3.39303,4.21393 -0.9916,0.50453 -1.25382,0.5586 -2.77095,0.57136 -1.51486,0.0127 -1.7688,-0.0343 -2.64583,-0.4904 -1.82517,-0.94913 -2.97642,-2.43436 -3.46505,-4.47033 -0.2856,-1.19001 -0.28546,-1.32778 0.003,-2.52115 0.16758,-0.69428 0.5191,-1.59032 0.78115,-1.99118 0.50912,-0.77877 1.9379,-2.2362 2.19224,-2.2362 0.0844,0 0.48687,-0.16575 0.89449,-0.3683 0.40762,-0.20256 1.2367,-0.41183 1.84239,-0.46503 2.30497,-0.20247 5.0102,1.35897 6.06883,3.5029 0.52678,1.06683 0.76645,3.13425 0.49319,4.2544 z m -1.48495,-3.13161 c -0.61136,-1.38002 -1.68467,-2.30108 -3.07988,-2.64299 -1.03296,-0.25314 -1.271,-0.25654 -2.13868,-0.0305 -1.05244,0.27414 -2.12087,0.91262 -2.61467,1.5625 -0.46846,0.61654 -1.07913,2.17144 -1.07913,2.7477 0,0.92649 0.68563,2.56109 1.37183,3.27055 0.8984,0.92888 1.85872,1.3855 3.12806,1.4874 0.94084,0.0755 1.20094,0.0202 2.14462,-0.45619 1.27231,-0.64226 1.98206,-1.47783 2.49709,-2.93982 0.41335,-1.17339 0.37873,-1.62623 -0.22924,-2.99861 z m -1.52123,2.52025 c -0.32503,1.09127 -1.96988,1.62181 -3.14469,1.01429 -0.30818,-0.15937 -0.61357,-0.5453 -0.79981,-1.01076 -0.25828,-0.64548 -0.26936,-0.84968 -0.0776,-1.43059 0.27505,-0.83343 0.90987,-1.35866 1.63777,-1.35509 0.63582,0.003 1.21707,0.32091 0.85502,0.46746 -0.123,0.0498 -0.34403,0.21089 -0.49117,0.35803 -0.34857,0.34858 -0.0374,0.75931 0.57534,0.75931 0.32101,0 0.48693,-0.13838 0.63443,-0.52915 0.10985,-0.29106 0.25199,-0.52918 0.31586,-0.52918 0.45834,0 0.75881,1.36956 0.49488,2.25568 z m 0.47621,26.12798 c -0.19464,0.16154 -0.31725,0.11476 -0.58229,-0.22219 -0.30323,-0.38549 -0.36898,-0.40205 -0.67947,-0.17108 -0.24947,0.18558 -0.59313,0.22534 -1.25286,0.145 -0.56817,-0.0692 -0.95244,-0.0406 -1.02465,0.0762 -0.18669,0.30208 -0.39878,0.21598 -0.50932,-0.20673 -0.11349,-0.43402 0.63243,-2.25212 0.92399,-2.25212 0.0969,0 0.28611,0.15698 0.4205,0.34885 0.20984,0.29957 0.31718,0.32163 0.75967,0.1561 0.74083,-0.27714 1.93774,0.0674 2.08017,0.59882 0.17965,0.67033 0.12255,1.31273 -0.13574,1.52709 z m -7.79857,4.28525 c -0.23171,-0.22222 -0.42128,-0.51669 -0.42128,-0.65439 0,-0.35215 -1.35328,-0.74567 -1.6261,-0.47285 -0.15398,0.15395 -0.10732,0.30623 0.19118,0.62397 0.29473,0.31371 0.36517,0.53853 0.27782,0.88656 -0.0686,0.27337 -0.0296,0.57159 0.0942,0.72084 0.1162,0.14 0.16006,0.33742 0.0975,0.43868 -0.18306,0.29618 -0.80058,0.21171 -0.91054,-0.12456 -0.26666,-0.81545 -1.05425,-2.33278 -1.21194,-2.33485 -0.27607,-0.004 -0.96927,1.65531 -0.96766,2.31575 0.002,0.90164 0.83259,2.14032 2.02703,3.0237 1.86129,1.37657 2.09107,1.41988 2.2968,0.43296 0.0655,-0.31418 0.22611,-0.74058 0.35693,-0.94755 0.24219,-0.38316 0.39657,-2.01707 0.2811,-2.97508 -0.0351,-0.29104 -0.25336,-0.71097 -0.48507,-0.93318 z m -6.59657,1.41233 c -0.44238,-0.72559 -0.8013,-0.86988 -1.22036,-0.49064 -0.31108,0.28152 -0.34287,0.26138 -0.65489,-0.41503 -0.36079,-0.78211 -0.66023,-0.96298 -0.49332,-0.29796 0.0696,0.27722 -0.0503,0.71557 -0.34941,1.27741 -0.77706,1.45969 -0.53698,3.4416 0.43068,3.55539 0.53297,0.0627 1.66146,-0.94056 2.23705,-1.98873 0.4825,-0.87865 0.48404,-0.92896 0.0503,-1.64044 z m -0.36357,-23.06463 c -0.10387,-0.0642 -0.75304,0.0647 -1.4426,0.28641 -1.79568,0.5774 -2.95466,1.8133 -2.95466,3.15075 0,0.27286 0.1243,0.59926 0.27621,0.72532 0.15192,0.12609 0.39209,0.4533 0.5337,0.72716 0.31262,0.60453 0.74145,0.62584 1.82345,0.0906 1.18658,-0.58695 1.8836,-2.04273 1.93247,-4.03612 0.0111,-0.45509 -0.0647,-0.87996 -0.16857,-0.94416 z m -0.81178,20.58938 c -0.60749,0.0719 -0.76998,0.49679 -0.18999,0.49679 0.44703,0 0.66145,-0.12768 0.66145,-0.39389 0,-0.0873 -0.21216,-0.1336 -0.47146,-0.1029 z m -0.5671,-3.30613 c -0.17889,-0.39384 -0.66912,-0.98843 -1.08939,-1.3213 -0.74772,-0.5922 -0.8054,-0.60661 -2.68472,-0.67094 -1.1648,-0.0399 -1.99161,0.005 -2.10106,0.11473 -0.12304,0.12304 -0.022,0.64866 0.31756,1.65163 0.83096,2.45464 1.5858,3.28908 3.11241,3.44067 0.52122,0.0518 1.15748,0.002 1.45529,-0.11409 0.50865,-0.19808 0.51589,-0.21582 0.18678,-0.45748 -0.18832,-0.13828 -0.47892,-0.25141 -0.64578,-0.25141 -0.39221,0 -1.21669,-0.97934 -1.21669,-1.44521 0,-0.28707 0.0802,-0.33832 0.39687,-0.25346 0.21828,0.0585 0.49201,0.10744 0.60828,0.10877 0.11627,0.001 0.42551,0.20084 0.68721,0.44337 1.09841,1.01796 1.66939,0.28739 0.97324,-1.24528 z m -2.6656,-9.42625 c -0.097,0 -0.17639,0.11438 -0.17639,0.25417 0,0.1398 0.0794,0.30324 0.17639,0.36319 0.097,0.06 0.17639,-0.0544 0.17639,-0.25416 0,-0.19976 -0.0794,-0.3632 -0.17639,-0.3632 z m -5.44871,6.45673 c -0.55366,-0.53043 -0.89249,-0.3703 -0.51054,0.2413 0.20033,0.32079 0.16873,0.40829 -0.27522,0.7623 -0.27584,0.21994 -0.4758,0.51649 -0.44437,0.65901 0.0314,0.14253 -0.15953,0.4738 -0.42436,0.73618 l -0.48152,0.47706 v -0.44455 c 0,-0.24451 -0.0768,-0.58809 -0.17072,-0.76353 -0.12886,-0.24079 -0.085,-0.39652 0.17884,-0.63532 0.26647,-0.24116 0.32424,-0.45125 0.24307,-0.88395 -0.0626,-0.33353 -0.0272,-0.6166 0.0857,-0.6864 0.27888,-0.17236 0.23564,-0.62158 -0.0712,-0.7393 -0.24464,-0.0939 -0.49473,0.0719 -2.07653,1.37637 -0.55601,0.45853 -0.57167,0.51005 -0.61669,2.02847 -0.0535,1.80313 0.49156,3.80294 1.06536,3.90902 0.31999,0.0592 1.89684,-0.89957 2.6928,-1.63726 0.9964,-0.92342 1.28409,-1.53272 1.30001,-2.75333 0.0138,-1.05581 -0.0297,-1.20059 -0.49471,-1.64607 z m -4.38497,-1.86791 c -0.26679,10e-4 -0.60413,0.0796 -0.74966,0.17368 -0.19376,0.12522 -0.0639,0.17171 0.48507,0.1737 0.41231,10e-4 0.74966,-0.0767 0.74966,-0.1737 0,-0.097 -0.21828,-0.17517 -0.48507,-0.17368 z"
       style="fill:none;stroke:#000000;stroke-width:0.126;stroke-miterlimit:4;stroke-dasharray:none;stroke-opacity:1"
       id="path3983" />
    <path
       d="m 179.32491,108.66886 c 0.0765,-0.92163 0.11533,-2.23729 0.0863,-2.9237 -0.0499,-1.18167 -0.0934,-1.29656 -0.81774,-2.16172 -0.79062,-0.9443 -1.48253,-1.29034 -1.8459,-0.92318 -0.1594,0.16106 -0.13952,0.24815 0.0856,0.37524 0.16125,0.091 0.3469,0.48339 0.41254,0.87193 0.0703,0.41588 0.27074,0.81247 0.48742,0.96424 0.31735,0.22228 0.34002,0.31936 0.1645,0.70458 -0.22103,0.48512 -0.56391,0.60198 -0.56391,0.1922 0,-0.14002 -0.15314,-0.36185 -0.34033,-0.49296 -0.18718,-0.13111 -0.39474,-0.4552 -0.46127,-0.72021 -0.0665,-0.26501 -0.27054,-0.56191 -0.45341,-0.65978 -0.18287,-0.0979 -0.33249,-0.32741 -0.33249,-0.51009 0,-1.10423 -0.50909,-1.14986 -1.02318,-0.0917 -0.87366,1.79826 -0.22673,3.44665 2.27709,5.80207 1.95701,1.84103 2.1393,1.80755 2.32474,-0.42693 z m -12.12327,-1.39455 c -0.0543,-0.0879 -0.25745,-0.11834 -0.45139,-0.0676 -0.48534,0.12692 -0.44168,0.22745 0.0988,0.22745 0.24827,0 0.40694,-0.0719 0.35261,-0.15983 z m 3.08058,-0.41904 c 0.47269,-0.37816 1.53622,-1.78858 1.66474,-2.20772 0.20084,-0.65504 -0.17394,-0.9186 -1.29347,-0.90962 -1.10949,0.009 -1.66083,0.21128 -2.46997,0.9067 -0.64864,0.55747 -0.66715,0.71925 -0.19425,1.69804 0.34519,0.71447 0.38423,0.73851 1.19062,0.73308 0.45856,-0.003 0.9546,-0.1023 1.10233,-0.22048 z m -4.23734,-0.19601 c 0,-0.2707 -0.37098,-0.45984 -0.90191,-0.45984 -0.18914,0 -0.3893,-0.11834 -0.4448,-0.26297 -0.0555,-0.14464 -0.39035,-0.35233 -0.74412,-0.46153 -0.35376,-0.10921 -0.82877,-0.42857 -1.05558,-0.70969 l -0.41238,-0.51114 0.67696,-0.26277 c 0.37233,-0.14453 0.90168,-0.38152 1.17633,-0.52664 0.27465,-0.14513 0.63184,-0.26436 0.79375,-0.26496 0.16191,-5.3e-4 0.5235,-0.12058 0.80354,-0.26662 0.28003,-0.14604 0.95472,-0.37924 1.4993,-0.51822 0.54459,-0.13898 1.42672,-0.37735 1.96029,-0.52972 0.53358,-0.15236 1.4067,-0.32411 1.94028,-0.38167 0.53358,-0.0576 1.36276,-0.29452 1.84262,-0.52659 l 0.87248,-0.42193 h -1.07827 c -0.70036,0 -1.10378,0.0765 -1.15107,0.21841 -0.0578,0.17331 -0.17281,0.17285 -0.55708,-0.002 -0.26636,-0.12136 -0.56222,-0.17248 -0.65748,-0.11361 -0.0953,0.0589 -0.36712,0.0584 -0.60414,-0.001 -0.39241,-0.0986 -0.43095,-0.19598 -0.43095,-1.0897 0,-0.53981 -0.0727,-0.95501 -0.16147,-0.92267 -0.0888,0.0323 -0.43396,0.45567 -0.76699,0.94073 -0.62316,0.90764 -2.27753,2.20406 -2.81327,2.20457 -0.16618,1.6e-4 -0.7049,0.15904 -1.19716,0.35307 -0.94572,0.37277 -2.72323,0.47926 -2.91162,0.17444 -0.0606,-0.0981 0.13545,-0.42401 0.43571,-0.72428 0.30027,-0.30026 0.66889,-0.7837 0.81917,-1.0743 0.22047,-0.42634 0.35969,-0.51185 0.72094,-0.44279 0.6052,0.11569 1.11397,-0.41432 1.106,-1.15216 -0.0157,-1.4561 -0.84859,-3.81131 -1.66789,-4.71663 -0.27152,-0.30003 -0.19409,-0.89596 0.19503,-1.50108 0.40579,-0.63102 0.93961,-2.59964 0.78516,-2.89551 -0.0802,-0.15369 -0.23576,-0.70479 -0.3456,-1.22463 -0.10984,-0.51984 -0.35745,-1.1457 -0.55025,-1.3908 -0.2545,-0.32355 -0.35107,-0.71699 -0.35248,-1.43609 -0.003,-1.59283 -0.17882,-2.3081 -0.64143,-2.61121 -0.37783,-0.24757 -0.45386,-0.24629 -0.81276,0.0136 -1.2865,0.93154 -1.07737,0.89385 -2.47039,0.44513 -1.55937,-0.5023 -4.53836,-0.55662 -5.80241,-0.10582 -1.46881,0.52384 -1.66524,0.51917 -2.29339,-0.0546 -0.68423,-0.62494 -0.86751,-0.64929 -1.29895,-0.17255 -0.23763,0.26258 -0.35267,0.76597 -0.43459,1.90182 -0.0853,1.18309 -0.2007,1.66727 -0.49276,2.06824 -0.87815,1.20557 -0.90282,4.40415 -0.0424,5.49798 0.44162,0.56142 0.45356,1.11208 0.036,1.66044 -1.08943,1.43078 -1.69478,3.48468 -1.41425,4.79843 0.19517,0.91403 0.51289,1.18085 0.96214,0.808 0.2381,-0.19761 0.31921,-0.18188 0.52692,0.10218 0.13502,0.18465 0.24549,0.4231 0.24549,0.52988 0,0.23753 1.31178,1.50005 2.00476,1.92949 0.46179,0.28616 0.48124,0.33742 0.22527,0.59339 -0.2485,0.2485 -0.50751,0.25648 -2.29128,0.0705 -1.10611,-0.1153 -2.39811,-0.33971 -2.87111,-0.4987 -0.473,-0.15899 -1.30197,-0.44098 -1.84217,-0.62664 -1.11032,-0.38162 -2.90707,-0.46791 -3.46998,-0.16665 -0.20644,0.11049 -0.58428,0.20089 -0.83963,0.20089 -0.40243,0 -0.45685,-0.0646 -0.40847,-0.48507 0.0548,-0.47667 0.0808,-0.4866 1.49761,-0.57327 1.21973,-0.0746 1.51671,-0.15611 1.92812,-0.52917 0.80232,-0.72752 1.29763,-1.29539 1.57865,-1.80995 0.20917,-0.38298 0.35406,-0.46494 0.67817,-0.38359 0.31133,0.0781 0.50511,-0.0147 0.79203,-0.37947 0.20893,-0.26561 0.42221,-0.65164 0.47397,-0.85784 0.13523,-0.53883 -0.66543,-2.92233 -1.29507,-3.85528 -0.77244,-1.14453 -0.8313,-1.44945 -0.41575,-2.15376 0.44664,-0.75699 0.90352,-2.26583 0.90341,-2.98344 -1.1e-4,-0.64229 -0.62012,-2.35375 -1.00995,-2.78784 -0.18651,-0.20769 -0.27038,-0.63365 -0.26046,-1.32292 0.0192,-1.33673 -0.30891,-2.67555 -0.7081,-2.88919 -0.25153,-0.13461 -0.45107,-0.0402 -0.9604,0.45446 -0.72378,0.70293 -1.06364,0.76011 -1.87636,0.3157 -0.82454,-0.45087 -5.93545,-0.44766 -6.77345,0.004 -0.31048,0.16743 -0.68751,0.30442 -0.83785,0.30442 -0.26238,0 -0.40627,-0.0986 -1.28758,-0.88194 -0.21828,-0.19403 -0.47821,-0.35278 -0.57763,-0.35278 -0.30079,0 -0.54738,0.88596 -0.70437,2.53065 -0.11998,1.25704 -0.24138,1.69389 -0.62425,2.24638 -0.43586,0.62895 -0.47712,0.83614 -0.4972,2.49643 -0.0207,1.71418 0.004,1.8476 0.46968,2.50622 0.5488,0.77665 0.52694,1.42845 -0.0736,2.19446 -0.18139,0.23137 -0.32979,0.51832 -0.32979,0.63768 0,0.11935 -0.15058,0.40843 -0.33461,0.6424 -0.61984,0.788 -0.77337,3.52365 -0.22834,4.06867 0.1427,0.14271 0.2678,0.13499 0.46503,-0.0287 0.32243,-0.26758 0.80347,-0.12369 0.80347,0.24034 0,0.14272 0.52588,0.78021 1.16861,1.41665 l 1.16861,1.15717 h 1.29043 c 0.70973,0 1.34163,0.0828 1.40421,0.18411 0.17764,0.28742 -0.24538,0.6746 -0.94991,0.86945 -0.56397,0.15598 -0.67661,0.13235 -0.92298,-0.19361 -0.24166,-0.31974 -0.38856,-0.35364 -1.05833,-0.24419 -0.42775,0.0699 -1.02521,0.27745 -1.32771,0.46122 -0.30249,0.18377 -0.65273,0.33413 -0.7783,0.33413 -0.12558,0 -0.61618,0.24889 -1.09023,0.55308 -1.18069,0.75765 -2.05065,2.38701 -1.72784,3.23608 l 0.15366,0.40415 0.84982,-0.42502 c 0.46741,-0.23375 0.96889,-0.49771 1.11441,-0.58657 0.57623,-0.35186 2.28746,-1.06505 2.55547,-1.06505 0.15635,0 0.49861,-0.10895 0.76058,-0.24212 0.26197,-0.13316 0.95256,-0.29558 1.53464,-0.36093 0.58209,-0.0654 1.64025,-0.24362 2.35147,-0.39614 0.89277,-0.19146 1.76656,-0.24735 2.82222,-0.18054 2.02991,0.12849 7.25862,1.05394 9.46659,1.67553 1.52712,0.42992 6.20011,0.40822 8.02569,-0.0373 1.09611,-0.26747 1.50437,-0.29106 2.38125,-0.13754 1.49278,0.26134 2.90867,0.64736 3.52778,0.96178 2.02502,1.02843 3.08681,1.29143 3.08681,0.76458 z m -14.26228,-2.90997 c -0.28101,-0.17805 -0.13011,-0.82327 0.22435,-0.95929 0.12988,-0.0498 0.5613,-0.047 0.95871,0.006 0.71479,0.0959 1.08104,0.5116 0.82116,0.93209 -0.13368,0.21631 -1.67054,0.23234 -2.00422,0.0209 z m 6.14839,-0.19268 c 0,-0.73124 1.5937,-1.00338 1.95228,-0.33337 0.26389,0.49308 0.0339,0.63202 -1.08821,0.6573 -0.74528,0.0168 -0.86407,-0.0277 -0.86407,-0.32393 z m -3.97906,-1.49667 c -0.18836,-0.14246 -0.54233,-0.26155 -0.78659,-0.26464 -0.87599,-0.0111 -2.62519,-1.42458 -3.15877,-2.55258 -0.42145,-0.89096 -0.48414,-2.94348 -0.11347,-3.71483 0.13986,-0.29104 0.29655,-0.66807 0.34819,-0.83785 0.13732,-0.45141 1.22789,-0.41393 1.6669,0.0573 0.29319,0.31471 0.39158,0.33433 0.70255,0.14013 0.29952,-0.18706 0.41633,-0.18072 0.68017,0.0369 0.25092,0.20696 0.74922,0.25104 2.34702,0.2076 3.2558,-0.0885 4.02697,-0.15336 4.27544,-0.35957 0.42797,-0.35519 1.09887,-0.52446 1.49392,-0.37693 0.98631,0.36835 1.21958,3.82988 0.35571,5.27852 -0.42551,0.71355 -1.30504,1.41016 -1.78047,1.41016 -0.12814,0 -0.37664,0.15875 -0.55224,0.35278 -0.17559,0.19402 -0.46004,0.35277 -0.6321,0.35277 -0.17206,0 -0.41852,0.10569 -0.54769,0.23486 -0.35241,0.35241 -3.84146,0.38113 -4.29857,0.0354 z m -17.64032,-1.87675 c -0.075,-0.1213 -0.3809,-0.15379 -0.8068,-0.0857 -0.61354,0.0981 -0.70752,0.0626 -0.88926,-0.33631 -0.14857,-0.32607 -0.29359,-0.41733 -0.53926,-0.33936 -0.51215,0.16255 -1.15622,-0.0621 -1.27798,-0.44575 -0.0599,-0.18884 -0.26454,-0.39272 -0.45467,-0.45307 -0.39402,-0.12505 -0.86345,-0.94002 -0.74049,-1.28554 0.0452,-0.12689 -0.0407,-0.3664 -0.1908,-0.53225 -0.32251,-0.35636 -0.36258,-2.04731 -0.0613,-2.58822 0.10813,-0.19415 0.17866,-0.41575 0.15674,-0.49244 -0.0219,-0.0767 0.0489,-0.30525 0.15734,-0.5079 0.17531,-0.32759 0.31122,-0.35812 1.22512,-0.27525 0.56537,0.0513 1.13254,0.15831 1.2604,0.23787 0.12785,0.0796 0.40329,0.1226 0.61208,0.0957 0.23231,-0.03 0.48672,0.1039 0.65565,0.34508 0.24247,0.34618 0.33159,0.36879 0.7329,0.18594 0.33135,-0.15098 0.55425,-0.15603 0.81138,-0.0184 0.26946,0.14421 0.45283,0.12533 0.7642,-0.0787 0.37654,-0.24672 0.43593,-0.23941 0.73432,0.0903 l 0.32466,0.35874 0.39191,-0.45563 c 0.45102,-0.52434 0.72604,-0.57717 0.88246,-0.16954 0.0957,0.2493 0.14599,0.23835 0.39134,-0.0852 0.40391,-0.53256 2.07476,-0.83806 2.49643,-0.45644 0.16952,0.15341 0.26604,0.42263 0.21774,0.60733 -0.0477,0.18247 0.0344,0.50469 0.1824,0.71604 0.20316,0.29006 0.22468,0.4819 0.0877,0.78243 -0.12858,0.28218 -0.1211,0.51085 0.0257,0.78507 0.16697,0.31199 0.15126,0.4721 -0.0812,0.82682 -0.15853,0.24194 -0.25457,0.53428 -0.21341,0.64963 0.13265,0.37183 -0.5792,1.53598 -1.16214,1.90053 -0.40028,0.25032 -0.74824,0.32707 -1.18764,0.26197 -0.52053,-0.0771 -0.64979,-0.0283 -0.79576,0.30049 -0.13213,0.29762 -0.30178,0.3819 -0.70143,0.34844 -0.28994,-0.0243 -0.71065,0.0513 -0.93492,0.16792 -0.32134,0.16711 -0.48462,0.16405 -0.77044,-0.0144 -0.26014,-0.16246 -0.41666,-0.17254 -0.55356,-0.0356 -0.24619,0.24619 -0.59578,0.24408 -0.74942,-0.005 z m 2.74577,-3.34279 c 0,-0.0913 -0.11906,-0.16598 -0.26459,-0.16598 -0.27277,0 -0.35043,0.20813 -0.15178,0.40678 0.14092,0.14092 0.41637,-0.0184 0.41637,-0.2408 z m 1.45775,0.25774 c 0.14131,-0.1413 -0.0436,-0.60011 -0.2419,-0.60011 -0.0866,0 -0.15752,0.15875 -0.15752,0.35278 0,0.34381 0.18709,0.45967 0.39942,0.24733 z m -7.37431,-1.64625 c 0.0558,-0.0903 0.0201,-0.2145 -0.0794,-0.27597 -0.25146,-0.15542 -0.91096,0.0762 -0.78719,0.27648 0.13114,0.21219 0.73532,0.21184 0.86656,-5.3e-4 z m 4.32906,-0.0122 c 0,-0.097 -0.0794,-0.17639 -0.17639,-0.17639 -0.097,0 -0.17639,0.0794 -0.17639,0.17639 0,0.097 0.0794,0.17638 0.17639,0.17638 0.097,0 0.17639,-0.0794 0.17639,-0.17638 z m 1.5875,-0.0882 c 0,-0.14552 -0.11438,-0.26459 -0.25418,-0.26459 -0.29468,0 -0.4936,0.25176 -0.32899,0.41637 0.21081,0.21082 0.58317,0.1139 0.58317,-0.15178 z m 1.41111,0.0882 c 0,-0.097 -0.0794,-0.17639 -0.17639,-0.17639 -0.097,0 -0.17639,0.0794 -0.17639,0.17639 0,0.097 0.0794,0.17638 0.17639,0.17638 0.097,0 0.17639,-0.0794 0.17639,-0.17638 z m 1.4993,0 c 0.06,-0.097 -0.0194,-0.17639 -0.17638,-0.17639 -0.15698,0 -0.23635,0.0794 -0.17639,0.17639 0.0599,0.097 0.13933,0.17638 0.17639,0.17638 0.037,0 0.11643,-0.0794 0.17638,-0.17638 z m 13.57539,-2.65851 c -0.2186,-0.42274 -0.23424,-0.59721 -0.0711,-0.79375 0.52216,-0.62917 1.20671,0.0883 0.84392,0.88454 -0.26798,0.58815 -0.43164,0.56893 -0.7728,-0.0908 z m -4.66775,-0.2377 c -0.24253,-0.14565 -0.59972,-0.35391 -0.79375,-0.4628 -0.62836,-0.35262 -1.18235,-1.42965 -1.27801,-2.48462 -0.0736,-0.81116 -0.0134,-1.14823 0.32652,-1.82881 0.22919,-0.45889 0.59656,-0.90274 0.81639,-0.98632 0.21983,-0.0836 0.39969,-0.23024 0.39969,-0.32591 0,-0.30649 1.36698,-0.55832 2.33535,-0.43023 0.91698,0.1213 2.07435,0.80733 2.07436,1.22957 1e-5,0.10623 0.15876,0.33682 0.35278,0.51241 0.28764,0.2603 0.35278,0.54327 0.35278,1.53231 0,1.47705 -0.33881,2.3728 -0.99133,2.62089 -0.26357,0.10021 -0.57531,0.31361 -0.69276,0.47422 -0.2998,0.41002 -2.29682,0.51275 -2.90202,0.14929 z m 3.16409,-1.30759 0.78284,-0.67506 -0.0114,-1.21018 c -0.009,-0.98868 -0.0755,-1.26053 -0.36148,-1.48523 -0.19255,-0.15127 -0.57938,-0.45944 -0.85965,-0.68482 -1.06113,-0.85337 -2.84748,-0.10238 -3.48399,1.4647 -0.32242,0.7938 -0.32208,0.82407 0.0181,1.60988 0.42532,0.98254 1.39703,1.64341 2.4272,1.65075 0.56784,0.004 0.85837,-0.12675 1.48841,-0.67004 z m -2.09422,-1.06631 c -0.20833,-0.38928 -0.24529,-1.07792 -0.0809,-1.50644 0.11884,-0.30969 0.69291,-0.37795 0.86308,-0.10262 0.06,0.097 0.3371,0.17639 0.61588,0.17639 1.19499,0 0.65234,1.6246 -0.57777,1.72975 -0.48537,0.0415 -0.6761,-0.0276 -0.82033,-0.29708 z m 6.51485,2.36203 c -0.24253,-0.14137 -0.66659,-0.36631 -0.94235,-0.49985 -1.07378,-0.52002 -1.60141,-3.23347 -0.82154,-4.22493 0.19403,-0.24666 0.35278,-0.53714 0.35278,-0.64551 0,-0.10837 0.19844,-0.27248 0.44097,-0.36469 0.24254,-0.0922 0.44098,-0.24123 0.44098,-0.33116 0,-0.24104 1.00994,-0.55078 1.79587,-0.55078 0.94145,0 1.74403,0.37015 2.5966,1.19754 0.68584,0.66558 0.72303,0.75597 0.75043,1.82394 0.0336,1.31043 -0.096,1.7971 -0.68453,2.56998 -0.84776,1.11334 -2.87209,1.64166 -3.92921,1.02546 z m 2.47226,-1.19381 c 0.34109,-0.31483 0.72868,-0.90325 0.8613,-1.3076 0.21592,-0.6583 0.2064,-0.82036 -0.091,-1.54973 -0.42994,-1.0544 -1.23363,-1.56405 -2.43176,-1.54208 -0.75131,0.0138 -0.95401,0.10288 -1.5434,0.67841 -0.64157,0.62647 -0.67851,0.72154 -0.67851,1.74628 0,1.15527 0.1283,1.39472 1.14775,2.14215 0.35141,0.25765 0.79337,0.39008 1.3217,0.39604 0.65703,0.007 0.90057,-0.0897 1.41392,-0.56347 z m -2.74559,-1.26657 c -0.71208,-1.08677 0.27091,-2.1514 1.28792,-1.39489 0.91389,0.67978 0.66332,1.82446 -0.39936,1.82446 -0.44863,0 -0.68056,-0.11213 -0.88856,-0.42957 z m -21.14777,1.09103 c -0.33247,-1.09453 -0.1274,-1.43457 0.75835,-1.25741 0.47816,0.0956 0.80112,0.41748 0.42213,0.42068 -0.0728,5.2e-4 -0.26751,0.23873 -0.43277,0.52916 -0.31401,0.55183 -0.63358,0.68329 -0.74771,0.30757 z m 3.07666,-0.34213 c -1.16269,-0.53423 -1.76389,-1.00489 -1.76389,-1.38091 0,-0.1826 -0.1389,-0.40987 -0.30868,-0.50504 -0.44648,-0.25028 -0.44354,-2.43967 0.004,-2.68991 0.16779,-0.0939 0.30591,-0.266 0.30695,-0.38245 0.004,-0.49332 1.15558,-1.31856 2.14684,-1.53895 0.91839,-0.20418 1.08105,-0.19081 1.94517,0.1599 0.51863,0.2105 1.17629,0.62993 1.46145,0.93206 0.48614,0.51506 0.51885,0.64017 0.52428,2.0052 0.005,1.348 -0.0342,1.51112 -0.53347,2.20165 -0.37177,0.51414 -0.79136,0.84147 -1.35088,1.05386 -1.3546,0.5142 -1.59575,0.52854 -2.43138,0.14459 z m 2.11667,-1.19073 c 0.63843,-0.4453 1.23472,-1.39654 1.23472,-1.96972 0,-0.27274 -0.21828,-0.8583 -0.48507,-1.30125 -0.38295,-0.6358 -0.63205,-0.84507 -1.18321,-0.99401 -1.08771,-0.29391 -2.00425,-0.0656 -2.72791,0.67954 -0.56431,0.58106 -0.62485,0.73879 -0.62332,1.62415 0.001,0.85024 0.0714,1.05096 0.52623,1.50977 0.91173,0.91979 2.30951,1.11347 3.25856,0.45152 z m -2.22517,-1.1017 c -0.27987,-0.21208 -0.52225,-0.39084 -0.53862,-0.39724 -0.0164,-0.006 -0.0839,-0.22723 -0.15001,-0.49075 -0.10646,-0.42416 -0.0477,-0.51372 0.51262,-0.7809 l 0.63286,-0.30179 0.63258,0.63258 c 0.62627,0.62627 0.62977,0.63803 0.35046,1.17814 -0.33415,0.64619 -0.7389,0.69115 -1.43989,0.15996 z m -7.83318,2.10539 c -0.43147,-0.21828 -1.04361,-0.74039 -1.3603,-1.16024 -0.51778,-0.68645 -0.5758,-0.88324 -0.5758,-1.95317 0,-1.17882 0.008,-1.1979 0.83785,-2.06621 1.29877,-1.35854 2.11941,-1.56973 3.79899,-0.97763 0.59787,0.21077 1.02752,0.5287 1.47134,1.08876 0.61049,0.77039 0.62529,0.82562 0.56664,2.11398 -0.0745,1.63577 -0.47475,2.2797 -1.80961,2.91119 -1.1514,0.5447 -1.91571,0.55601 -2.92911,0.0433 z m 3.51118,-1.3191 c 0.51029,-0.51028 0.54995,-0.63845 0.54995,-1.7773 0,-1.18459 -0.0206,-1.24304 -0.59006,-1.67741 -0.4059,-0.30959 -0.91773,-0.48714 -1.6399,-0.56884 -0.96872,-0.1096 -1.09323,-0.0823 -1.61147,0.35381 -0.34058,0.28657 -0.63904,0.76006 -0.75831,1.20298 -0.51433,1.91007 0.54024,3.2061 2.50639,3.08028 0.83187,-0.0532 1.08291,-0.15303 1.5434,-0.61352 z M 133.6015,88.4192 c -0.57391,-0.47913 -0.58532,-0.51387 -0.37653,-1.14653 0.14897,-0.45139 0.31981,-0.65243 0.55442,-0.65243 0.18651,0 0.3391,0.11438 0.3391,0.25417 0,0.35609 0.36391,0.54239 0.53108,0.2719 0.23912,-0.3869 0.70364,-0.0476 0.70364,0.51393 0,0.35372 -0.14976,0.6397 -0.46476,0.88748 -0.58689,0.46165 -0.57908,0.46243 -1.28695,-0.12852 z m 52.42942,18.24646 c 0.0505,-0.13162 -0.0183,-0.42929 -0.15281,-0.66147 -0.13455,-0.23218 -0.36717,-0.68081 -0.51694,-0.99696 -0.30362,-0.64085 -1.71687,-1.62147 -2.3444,-1.62669 -0.53294,-0.004 -0.70258,0.47416 -0.28117,0.79326 0.2677,0.20271 0.27865,0.25158 0.0574,0.25612 -0.15036,0.003 -0.36174,-0.0827 -0.4697,-0.19069 -0.48214,-0.48214 -0.79153,0.52946 -0.39089,1.27806 0.10392,0.19416 0.55602,0.58581 1.00468,0.87034 0.6761,0.42878 1.00286,0.51734 1.90886,0.51734 0.75765,0 1.12132,-0.0734 1.18497,-0.23931 z m -3.21109,-4.92033 c 0.8957,-0.59349 1.47999,-1.89844 1.48071,-3.30703 l 5.3e-4,-1.14653 -0.54285,-0.053 c -0.75242,-0.0735 -2.34133,0.55967 -3.02903,1.20698 -0.49505,0.46598 -0.57326,0.65729 -0.57326,1.40219 0,0.47442 0.077,0.91021 0.17121,0.9684 0.30061,0.18579 1.1945,-0.40927 1.31079,-0.87258 0.12086,-0.48155 0.58506,-0.60526 0.74149,-0.19761 0.0527,0.13724 -0.0994,0.73256 -0.33781,1.32292 -0.39181,0.97003 -0.40408,1.07339 -0.12737,1.07339 0.1684,0 0.57589,-0.17871 0.90553,-0.39713 z m -5.26558,-0.42523 c -0.12127,-0.0489 -0.31971,-0.0489 -0.44097,0 -0.12127,0.0489 -0.0221,0.089 0.22048,0.089 0.24254,0 0.34176,-0.04 0.22049,-0.089 z m -2.44387,-3.82798 c 0.35612,-0.24167 0.72192,-0.46499 0.81288,-0.49627 0.091,-0.0313 0.18757,-0.25457 0.21468,-0.49622 0.0388,-0.34609 -0.0778,-0.50315 -0.5495,-0.7399 -0.32933,-0.1653 -0.68255,-0.38431 -0.78493,-0.48668 -0.10237,-0.10238 -0.57161,-0.18614 -1.04275,-0.18614 -0.73995,0 -0.92731,0.0774 -1.37583,0.56848 -0.75926,0.83128 -0.66686,1.98052 0.18633,2.31773 0.53571,0.21173 1.89884,-0.0465 2.53912,-0.481 z m -5.61904,-2.06356 c 0.0637,-0.10314 -0.22062,-0.49819 -0.63191,-0.8779 -0.59326,-0.54769 -0.70596,-0.74079 -0.54534,-0.93433 0.28888,-0.34807 1.01519,-0.15722 1.35077,0.35493 0.39363,0.60075 0.82162,0.26082 0.66398,-0.52737 -0.22328,-1.11641 -1.42145,-1.90825 -3.03853,-2.00808 -1.5856,-0.0979 -1.73363,0.0274 -1.43444,1.21446 0.33252,1.31929 0.83833,2.24761 1.32561,2.43287 0.22914,0.0871 0.46871,0.24267 0.53237,0.34567 0.15066,0.24378 1.62679,0.24358 1.77749,-1.8e-4 z"
       style="fill:none;stroke:#000000;stroke-width:0.126;stroke-miterlimit:4;stroke-dasharray:none;stroke-opacity:1"
       id="path4099" />
  </g>
</svg>
