<?xml version="1.0" encoding="UTF-8" standalone="no"?>
<!-- Created with Inkscape (http://www.inkscape.org/) -->

<svg
   width="210mm"
   height="297mm"
   viewBox="0 0 210 297"
   version="1.1"
   id="svg5"
   inkscape:version="1.1 (c68e22c387, 2021-05-23)"
   sodipodi:docname="Geist1.svg"
   xmlns:inkscape="http://www.inkscape.org/namespaces/inkscape"
   xmlns:sodipodi="http://sodipodi.sourceforge.net/DTD/sodipodi-0.dtd"
   xmlns="http://www.w3.org/2000/svg"
   xmlns:svg="http://www.w3.org/2000/svg">
  <sodipodi:namedview
     id="namedview7"
     pagecolor="#ffffff"
     bordercolor="#666666"
     borderopacity="1.0"
     inkscape:pageshadow="2"
     inkscape:pageopacity="0.0"
     inkscape:pagecheckerboard="0"
     inkscape:document-units="mm"
     showgrid="false"
     inkscape:zoom="0.69397447"
     inkscape:cx="334.30625"
     inkscape:cy="561.25984"
     inkscape:window-width="1920"
     inkscape:window-height="1017"
     inkscape:window-x="-8"
     inkscape:window-y="-8"
     inkscape:window-maximized="1"
     inkscape:current-layer="layer1" />
  <defs
     id="defs2" />
  <g
     inkscape:label="Ebene 1"
     inkscape:groupmode="layer"
     id="layer1">
    <path
       style="fill:#000000;stroke-width:1"
       d="m 89.949366,192.33709 c -0.38806,-0.0826 -0.94368,-0.22586 -1.23473,-0.31829 -0.46829,-0.14874 -0.40742,-0.17022 0.52917,-0.18678 2.9097,-0.0514 4.80455,-0.7454 6.61698,-2.42339 2.14854,-1.98917 3.19491,-4.21375 6.166744,-13.11044 1.33597,-3.99946 1.32158,-3.90638 1.3088,-8.46667 -0.0113,-4.04897 -0.0405,-4.37588 -0.76099,-8.53471 -0.56277,-3.24843 -2.651374,-9.4459 -3.484314,-10.33891 -0.32675,-0.35031 -0.46812,-0.12977 -0.96113,1.49931 -0.77772,2.56986 -1.03161,4.97863 -1.20851,11.46528 -0.0926,3.39549 -0.25585,6.80861 -0.36278,7.58472 -0.22504,1.63336 -0.80395,4.10457 -1.16266,4.96309 -0.39124,0.93636 -0.61726,0.73176 -0.46514,-0.42107 0.20456,-1.55022 0.13616,-7.33371 -0.10899,-9.21632 -0.12002,-0.92164 -0.34004,-2.50914 -0.48894,-3.52778 -0.9142,-6.2543 -1.25524,-8.9218 -1.39255,-10.89202 -0.11415,-1.63799 -0.24659,-2.07643 -0.50228,-1.66272 -0.0494,0.0799 -0.17534,0.85379 -0.27991,1.71979 -0.47067,3.89758 -1.0096,6.44283 -2.49797,11.79724 -0.87693,3.15476 -1.1743,3.99301 -1.223,3.44743 -0.0646,-0.72409 0.0523,-3.20934 0.19509,-4.14514 0.42603,-2.79294 0.87609,-6.81813 0.87611,-7.83556 5e-5,-2.43167 -0.94026,-5.7793 -2.49352,-8.87729 -0.37697,-0.75186 -0.76109,-1.36701 -0.85361,-1.36701 -0.45482,0 -0.62159,0.86383 -0.62147,3.21914 1.3e-4,2.49188 -0.10442,2.79579 -0.61749,1.79492 -0.20788,-0.40554 -0.26828,-1.29102 -0.28185,-4.13212 -0.0204,-4.27869 -0.45015,-8.68923 -1.3233,-13.58194 -0.39919,-2.23683 -1.49535,-7.03986 -1.63957,-7.18408 -0.26887,-0.26887 -0.61538,0.26108 -1.19416,1.82633 -0.86976,2.35217 -1.23834,4.15689 -1.36441,6.68066 -0.27756,5.55627 -1.2504,-0.65527 -1.25408,-8.00721 -0.002,-4.38074 -0.23486,-7.33327 -0.74322,-9.43136 -0.40923,-1.68901 -0.84711,-2.42715 -1.01583,-1.71242 -0.0513,0.2172 0.0101,2.27347 0.13645,4.56948 0.25402,4.61694 0.11222,7.45557 -0.49006,9.81044 -1.11988,4.37871 -3.63388,5.78648 -6.77552,3.79411 -1.05684,-0.67023 -0.93887,-0.88041 0.19501,-0.34743 0.55418,0.2605 1.21172,0.40441 1.91666,0.41949 0.9163,0.0196 1.16506,-0.0472 1.70278,-0.45731 1.46461,-1.11705 1.88614,-3.11109 1.89335,-8.95654 0.006,-4.53832 -0.1569,-6.06463 -1.03289,-9.70139 -0.75068,-3.1165 -0.89734,-4.20296 -0.89886,-6.65868 -10e-4,-2.17945 -0.1628,-2.66755 -0.55431,-1.67569 -0.46257,1.1719 -0.71398,2.80389 -0.85893,5.57562 -0.0855,1.63563 -0.19079,3.00914 -0.23388,3.05223 -0.0431,0.0431 -0.17963,-0.34266 -0.30341,-0.85722 -0.31188,-1.29641 -0.27161,-4.93108 0.0954,-8.60848 0.38483,-3.856254 0.29657,-7.460544 -0.22508,-9.191274 -0.61644,-2.04518 -0.91496,-2.34343 -1.33628,-1.33507 -0.14331,0.34299 -0.63823,0.87102 -1.19299,1.27282 -1.24517,0.90183 -1.64962,1.37694 -1.92471,2.26093 -0.29457,0.94663 -0.25522,3.44132 0.0894,5.669674 0.42889,2.77284 0.51681,4.63729 0.27451,5.82084 -0.25127,1.22732 -0.89395,2.50604 -1.59907,3.18158 -0.62169,0.59562 -0.96507,0.52791 -0.62669,-0.12358 0.77227,-1.48685 1.0353,-2.54812 1.04208,-4.20453 0.007,-1.63538 -0.27094,-3.175 -0.57255,-3.175 -0.0827,0 -0.27512,0.31161 -0.42751,0.69248 -0.26779,0.66927 -0.90842,1.42419 -1.20857,1.42419 -0.0803,0 0.0684,-0.41672 0.33049,-0.92605 0.44673,-0.86799 0.48449,-1.12506 0.60245,-4.10104 0.13555,-3.419524 0.24478,-4.098564 0.96476,-5.997224 1.26525,-3.33663 1.19516,-2.85482 1.32151,-9.08403 0.0915,-4.50958 0.17699,-5.93338 0.40081,-6.67355 0.5298,-1.75198 -0.22316,-3.4883 -2.61176,-6.02265 -0.77917,-0.82671 -1.67528,-1.82061 -1.99135,-2.20866 l -0.57469,-0.70556 -0.99019,0.52917 c -1.38229,0.73871 -3.12858,2.46678 -3.6716,3.6333 -0.78216,1.68024 -0.51107,3.32715 0.79194,4.81119 0.31887,0.36318 0.88177,0.81439 1.2509,1.00271 0.81838,0.41751 2.12817,0.4452 2.71986,0.0575 0.73192,-0.47958 0.54594,0.14337 -0.26025,0.87172 -1.3077,1.18143 -2.32522,1.44634 -3.56087,0.92708 -1.69302,-0.71146 -3.00225,-2.27177 -3.82477,-4.5583 -0.38168,-1.06105 -0.46067,-1.59056 -0.46681,-3.12925 -0.009,-2.16869 0.28998,-3.32584 1.22169,-4.73379 0.72065,-1.089012 0.75675,-1.263429 0.26146,-1.263429 -1.33777,0 -3.03718,2.066849 -3.95333,4.808119 -0.72646,2.17366 -1.04721,4.70482 -0.79891,6.30438 0.36062,2.32308 1.27403,3.33427 2.82405,3.12637 0.78662,-0.10551 0.91108,0.11365 0.39355,0.69296 -1.22325,1.36925 -2.40006,1.25382 -3.90922,-0.38343 -1.66343,-1.80461 -2.89118,-5.44795 -2.91135,-8.63937 -0.0126,-1.99112 0.18275,-2.93361 0.7866,-3.79553 0.17114,-0.24428 0.33872,-0.60147 0.37239,-0.79375 0.0926,-0.52865 -0.61673,-0.37645 -1.59608,0.34245 -0.98087,0.72002 -1.98777,2.33515 -2.53758,4.07044 -0.30768,0.97107 -0.39122,1.65846 -0.39122,3.21915 0,1.40452 -0.0607,1.98441 -0.20764,1.98437 -0.38769,-9e-5 -1.30258,-1.31883 -1.58532,-2.2851 -0.31639,-1.08128 -0.24438,-4.25648 0.12698,-5.59885 0.26278,-0.94988 1.16233,-1.99478 2.4984,-2.902081 1.34134,-0.910884 2.19364,-1.787424 3.60942,-3.712051 0.62041,-0.843397 1.36107,-1.729545 1.6459,-1.969217 0.70326,-0.591749 1.65877,-0.880387 2.47982,-0.749093 0.61644,0.09857 0.73522,0.05067 1.23433,-0.497816 1.10506,-1.214377 2.11328,-1.390126 3.60676,-0.62871 0.94143,0.47997 1.5088,0.442167 2.6709,-0.177964 0.5454,-0.291041 1.20685,-0.529167 1.46989,-0.529167 0.80317,0 1.62717,0.72344 2.73528,2.401481 0.92582,1.401992 3.67533,4.965053 4.61226,5.976993 1.20163,1.297825 4.20405,5.254895 4.51692,5.953125 0.13615,0.30385 0.35431,0.48507 0.58395,0.48507 0.79558,0 3.80355,-1.93103 4.84464,-3.11011 2.39511,-2.71259 3.61477,-6.641129 3.41538,-11.001003 -0.0881,-1.926738 -0.26366,-2.693 -1.35376,-5.909028 l -0.89682,-2.645834 0.002,-2.734028 c 0.002,-3.077868 0.21938,-4.313813 1.23353,-7.021494 3.92291,-10.473874 15.89358,-15.93309 26.874534,-12.256119 5.85651,1.961052 10.27556,6.838312 12.8318,14.162335 1.40217,4.017428 2.02344,7.668299 2.41783,14.208424 0.14071,2.333349 0.38078,5.083952 0.5335,6.112451 0.57413,3.866546 1.89578,6.409736 4.11356,7.915526 0.92262,0.62643 1.05291,0.63093 2.15127,0.0743 2.38238,-1.20724 3.2696,-2.73025 4.84899,-8.323744 0.92123,-3.262562 1.27069,-4.130099 2.26036,-5.611307 1.26583,-1.894519 5.75702,-5.909029 6.61067,-5.909029 0.22319,0 0.71697,0.15875 1.0973,0.352778 0.96556,0.492594 1.16485,0.454884 2.18584,-0.413628 1.58605,-1.349176 2.11372,-1.46004 3.38982,-0.712199 0.84071,0.49269 1.64479,0.566805 2.71345,0.250106 1.77652,-0.526477 2.4218,-0.09106 3.35364,2.262969 0.69754,1.762153 1.77784,3.430723 3.61278,5.580114 1.68217,1.970433 2.29432,3.175256 2.1313,4.194766 -0.26167,1.636369 -1.37872,2.941709 -2.96359,3.463135 -0.98486,0.324023 -1.1225,0.08559 -0.40746,-0.705867 0.45943,-0.508533 0.6245,-0.85122 0.6245,-1.296471 0,-0.642851 -0.68285,-2.39905 -1.3575,-3.491294 -0.22351,-0.361874 -0.40639,-0.704571 -0.40639,-0.761549 0,-0.303314 -1.74493,-2.208793 -2.61277,-2.853159 -1.05855,-0.785978 -1.35789,-0.893731 -1.48327,-0.533936 -0.0423,0.121267 0.0267,1.688924 0.15335,3.483681 0.31668,4.48939 0.31094,9.115474 -0.0134,10.810754 -0.28457,1.4873 -0.9262,2.75436 -1.62746,3.21384 -0.27195,0.17819 -0.79364,0.29383 -1.30762,0.28984 -1.3137,-0.0102 -2.09656,-0.56346 -1.13774,-0.80411 0.62934,-0.15796 1.64847,-1.10952 1.9815,-1.85014 0.37921,-0.84332 0.41489,-4.2774 0.0598,-5.751156 -0.43345,-1.798772 -1.33767,-4.227381 -2.04532,-5.493445 -0.84248,-1.507311 -2.9799,-3.760755 -3.28127,-3.459387 -0.15526,0.155268 -0.13534,0.430126 0.0826,1.139154 0.51281,1.668467 0.69617,3.347252 0.69932,6.402567 0.003,3.140987 -0.21081,4.493557 -0.93605,5.915147 -0.46935,0.92 -1.47782,1.75202 -2.16378,1.7852 -1.55961,0.0754 -2.10795,-0.23346 -1.1356,-0.63974 0.35229,-0.14719 0.84245,-0.48539 1.08925,-0.75155 0.52776,-0.56918 0.97948,-1.99112 0.97621,-3.07301 -0.004,-1.345483 -0.63704,-3.900323 -1.32603,-5.352245 -0.3672,-0.773786 -0.80745,-1.804816 -0.97834,-2.291177 -0.36506,-1.038938 -0.66336,-1.156452 -1.49946,-0.590697 -1.20782,0.817288 -1.55522,2.08836 -1.8273,6.685823 -0.10087,1.704376 -0.27451,3.371246 -0.38586,3.704166 -0.22589,0.67538 -1.04868,1.8234 -2.48466,3.46681 -1.21653,1.39226 -1.90298,2.76973 -1.90298,3.81864 0,1.22273 0.45657,3.13641 1.39413,5.84347 0.4704,1.35819 1.25498,3.62038 1.74351,5.02708 2.42189,6.97376 3.56258,12.266514 3.56433,16.538364 8.8e-4,2.07927 -0.35235,4.75126 -0.78667,5.95123 -0.24101,0.6659 -0.25586,0.537 -0.26415,-2.29306 -0.005,-1.72347 -0.12171,-3.74869 -0.27434,-4.7625 -0.25202,-1.67404 -0.9744,-4.904524 -1.3312,-5.953124 -0.4083,-1.19998 -0.57264,-1.5434 -0.73856,-1.5434 -0.25639,0 -0.0562,1.29089 0.56091,3.615974 0.6748,2.54263 1.13505,5.98949 0.70991,5.31658 -0.11393,-0.18032 -0.3172,-0.85501 -0.45172,-1.4993 -0.50503,-2.41889 -1.85197,-5.845754 -2.29768,-5.845754 -0.34274,0 -0.32724,-1.06641 -0.16024,11.024304 0.10907,7.89693 0.0863,9.75947 -0.1469,11.99445 -0.49318,4.72761 -1.18152,7.72068 -2.28934,9.95468 -0.51621,1.04097 -0.99571,1.74494 -3.58795,5.26753 -0.407,0.55306 -0.92293,1.35876 -1.14653,1.79044 -0.35062,0.67692 -0.4146,0.7291 -0.4652,0.37934 -0.1046,-0.72309 0.72631,-2.8463 1.90522,-4.86838 1.46231,-2.50819 2.65136,-5.57296 2.65136,-6.83389 0,-0.53806 -0.38898,-0.26813 -0.92273,0.64033 -0.27004,0.45962 -1.06587,1.59346 -1.7685,2.51965 -0.70263,0.92618 -1.39658,1.85854 -1.5421,2.07191 -1.418,2.07913 -1.57377,1.77118 -0.51939,-1.02682 0.79782,-2.11715 0.87944,-3.15504 0.25481,-3.23999 -0.40575,-0.0552 -0.93403,0.38652 -1.95632,1.63569 -0.63665,0.77794 -0.73612,1.02452 -0.84505,2.09476 -0.12275,1.20604 -0.49708,2.47542 -1.83031,6.20684 -1.11934,3.13279 -1.33724,4.4694 -1.72348,10.5718 -0.37444,5.91613 -0.47214,6.25983 -3.30897,11.64167 -0.51137,0.97014 -1.05641,2.08139 -1.2112,2.46944 -0.15479,0.38806 -0.69954,1.77712 -1.21055,3.08681 -1.61365,4.13568 -2.82862,6.43443 -4.11221,7.78039 -1.31941,1.38353 -3.06441,2.4337 -4.79135,2.88351 -1.25014,0.32562 -1.25867,0.33189 -1.51128,1.11252 -0.46482,1.43633 -2.20505,5.30141 -3.03042,6.73057 -1.66921,2.89031 -3.188774,4.64872 -5.168304,5.98067 -2.36379,1.59051 -5.2679,2.27344 -7.57696,1.7818 z m 20.389544,-18.40193 c 0.48146,-0.47982 0.95124,-1.14621 1.05696,-1.4993 0.22812,-0.76191 0.15401,-1.81656 -0.13429,-1.91111 -0.2413,-0.0791 -2.19635,2.4873 -2.79988,3.67548 -0.30131,0.59319 -0.36007,0.86507 -0.21774,1.0074 0.2664,0.26641 0.99471,-0.17596 2.09495,-1.27247 z m 5.12536,-8.4072 c 0.18163,-0.32937 1.56079,-3.35942 1.56079,-3.42908 0,-0.0292 0.31184,-0.72189 0.69298,-1.53921 1.19481,-2.56216 1.94913,-5.29455 1.95183,-7.07016 7.1e-4,-0.4173 -0.068,-0.62922 -0.18109,-0.55931 -0.10017,0.0619 -0.69119,1.12845 -1.31338,2.3701 -1.22761,2.44983 -2.60842,6.29418 -2.91706,8.12149 -0.41033,2.42938 -0.41667,2.52109 -0.16844,2.43835 0.12885,-0.0429 0.29731,-0.19243 0.37437,-0.33218 z m 3.55978,-14.54158 c 0.83708,-2.60465 1.28838,-5.5114 1.09545,-7.05556 -0.15593,-1.24798 -0.55516,-1.3215 -0.71836,-0.13229 -0.0632,0.46082 -0.38327,1.83003 -0.71116,3.04271 -0.87762,3.24572 -1.03908,4.63989 -0.67261,5.80805 0.14497,0.46215 0.52602,-0.16729 1.00668,-1.66291 z M 87.425536,134.74445 c 0.19255,-2.76127 -0.21198,-5.46156 -0.8492,-5.66858 -0.30637,-0.0995 -0.41462,0.58027 -0.41338,2.59592 0.003,4.39881 1.00074,6.82767 1.26258,3.07266 z M 112.16961,90.580876 c 0.0573,-0.0928 0.20093,-0.13231 0.31909,-0.0879 0.46773,0.176 1.38596,-0.63646 1.85831,-1.64428 0.42579,-0.90847 0.47238,-1.20397 0.46505,-2.94989 -0.007,-1.76953 -0.0664,-2.11083 -0.67062,-3.87849 -0.6253,-1.82938 -1.94652,-4.57801 -2.97932,-6.19806 -0.30947,-0.48542 -0.62951,-0.761 -0.96064,-0.82716 -0.27311,-0.0546 -0.70441,-0.15097 -0.95846,-0.21423 -0.39342,-0.098 -0.4789,-0.0473 -0.57662,0.34209 -0.18898,0.75295 -0.58332,0.54909 -0.7216,-0.37305 -0.47459,-3.16478 -2.2688,-6.70014 -3.32056,-6.54294 -0.25041,0.0374 -0.46256,0.34389 -0.72361,1.04528 -0.20312,0.54579 -0.44869,1.02204 -0.54571,1.05834 -0.097,0.0363 -0.45815,-0.47758 -0.80253,-1.14195 -0.34439,-0.66437 -0.75511,-1.280118 -0.91273,-1.368325 -0.5354,-0.299623 -2.395464,-0.386798 -3.525084,-0.165208 -3.39326,0.665633 -5.72882,3.172523 -6.84856,7.350953 -0.39045,1.45703 -0.65153,4.06134 -0.45776,4.5663 0.0844,0.22004 0.2878,-0.0445 0.76033,-0.989 0.49474,-0.98893 1.12202,-1.78473 2.69197,-3.41516 1.12581,-1.16918 2.18773,-2.42343 2.35982,-2.78723 0.1721,-0.36381 0.36871,-0.66096 0.43691,-0.66035 0.0682,5.3e-4 0.25533,0.23193 0.41581,0.51404 0.16049,0.2821 0.49843,0.64831 0.75098,0.81378 0.43632,0.28589 0.50083,0.28332 1.2957,-0.0516 0.46009,-0.19386 1.151294,-0.40862 1.535994,-0.47724 0.3847,-0.0686 0.92282,-0.24027 1.19581,-0.38144 0.27299,-0.14117 0.56308,-0.21543 0.64464,-0.16501 0.0816,0.0504 0.33047,0.58943 0.55313,1.19783 0.59587,1.62822 1.12465,2.60033 1.87924,3.45486 0.59807,0.67728 0.78507,0.77625 1.69644,0.89788 0.92512,0.12347 1.11848,0.22907 1.9975,1.0909 1.01481,0.99496 2.53273,3.14517 3.28852,4.65837 1.13044,2.26329 1.53785,4.97718 0.94664,6.3059 -0.2661,0.59806 -0.35909,0.66146 -0.97016,0.66146 -0.91958,0 -1.40472,-0.51154 -1.10629,-1.16651 0.15437,-0.3388 0.30343,-0.43492 0.56742,-0.36589 0.26624,0.0696 0.34365,0.018 0.30188,-0.20122 -0.0908,-0.47676 -0.78938,-0.45601 -1.28353,0.0381 -0.59145,0.59145 -0.56118,0.90876 0.155,1.62494 0.59665,0.59665 1.04871,0.75283 1.2476,0.43103 z M 91.954116,61.214078 c 2.91706,-1.954493 4.47996,-5.129315 4.48192,-9.104409 0.001,-2.429956 -0.2133,-3.095452 -1.07476,-3.334718 -0.9187,-0.255163 -1.42868,-0.221494 -2.23691,0.147687 -0.95086,0.434326 -2.03281,1.651906 -2.6936,3.031266 -0.79794,1.665656 -0.85179,1.935734 -0.40902,2.051519 0.20272,0.05302 0.36859,0.116823 0.36859,0.141796 0,0.02497 -0.19573,0.395598 -0.43495,0.823613 -1.06643,1.908057 -1.27128,4.817449 -0.44297,6.29124 0.54172,0.963865 0.94329,0.955971 2.4417,-0.04799 z m 17.831334,-0.53486 c 1.20553,-0.623405 2.12433,-2.389148 2.12433,-4.082515 0,-0.738064 -0.221,-1.12806 -0.43919,-0.775022 -0.0609,0.0986 -0.22517,0.179265 -0.36497,0.179265 -0.18113,0 -0.25472,-0.215416 -0.25608,-0.749653 -0.002,-0.886336 -0.24164,-1.670843 -1.30523,-4.277431 -0.90154,-2.209442 -1.25451,-2.555194 -2.61008,-2.556711 -0.72034,-8.82e-4 -0.92162,0.08676 -1.51829,0.660531 -1.29019,1.240672 -1.98185,4.215476 -1.63652,7.038637 0.16874,1.379469 0.5634,2.530461 0.86767,2.530461 0.0751,0 0.22081,-0.08423 0.32375,-0.187173 0.13198,-0.131971 0.29273,0.0371 0.54509,0.573264 0.84242,1.789871 2.64663,2.485579 4.26952,1.646347 z m -5.16946,-3.131826 c -0.0566,-0.216609 -0.0262,-0.470609 0.0676,-0.564445 0.10989,-0.10989 0.17061,0.03028 0.17061,0.393833 0,0.65961 -0.0929,0.726175 -0.23823,0.170612 z M 89.652406,51.550381 c 0.51312,-0.983598 0.68741,-1.475305 0.54029,-1.524344 -0.2707,-0.09023 -0.76941,0.514837 -1.32019,1.601736 -0.46964,0.926788 -0.53479,1.374562 -0.20001,1.374562 0.12235,0 0.5633,-0.65338 0.97991,-1.451954 z"
       id="path854" />
    <rect
       style="fill:#000000;stroke:#000000;stroke-width:0.499999;stroke-linecap:round;fill-opacity:0.11851852"
       id="rect1075"
       width="130.39024"
       height="174.99742"
       x="35.838257"
       y="21.731709" />
    <path
       id="path854-5"
       style="fill:#000000;stroke-width:3.77953"
       d="M 815.5918 84.296875 L 815.5918 745.70508 L 1308.4062 745.70508 L 1308.4062 84.296875 L 815.5918 84.296875 z M 1059.0234 109.96484 C 1068.1026 109.86324 1077.3607 111.251 1086.4395 114.29102 C 1108.5743 121.70287 1125.2761 140.13701 1134.9375 167.81836 C 1140.237 183.00234 1142.5856 196.80095 1144.0762 221.51953 C 1144.608 230.33849 1145.5146 240.73385 1146.0918 244.62109 C 1148.2617 259.23481 1153.2565 268.84789 1161.6387 274.53906 C 1165.1257 276.90667 1165.6182 276.92411 1169.7695 274.82031 C 1178.7738 270.25752 1182.1283 264.50014 1188.0977 243.35938 C 1191.5795 231.02843 1192.9001 227.75061 1196.6406 222.15234 C 1201.4249 214.99196 1218.3986 199.81836 1221.625 199.81836 C 1222.4686 199.81836 1224.336 200.41901 1225.7734 201.15234 C 1229.4228 203.01412 1230.1763 202.87046 1234.0352 199.58789 C 1240.0297 194.48864 1242.0226 194.07 1246.8457 196.89648 C 1250.0232 198.75862 1253.0625 199.03877 1257.1016 197.8418 C 1263.816 195.85196 1266.2554 197.49741 1269.7773 206.39453 C 1272.4137 213.05464 1276.4964 219.36069 1283.4316 227.48438 C 1289.7894 234.93168 1292.1025 239.48658 1291.4863 243.33984 C 1290.4973 249.52455 1286.2752 254.45699 1280.2852 256.42773 C 1276.5629 257.65239 1276.0436 256.7511 1278.7461 253.75977 C 1280.4825 251.83775 1281.1055 250.54417 1281.1055 248.86133 C 1281.1055 246.43166 1278.5245 239.79223 1275.9746 235.66406 C 1275.1298 234.29635 1274.4395 233.00246 1274.4395 232.78711 C 1274.4395 231.64073 1267.8445 224.43931 1264.5645 222.00391 C 1260.5636 219.03328 1259.4329 218.62452 1258.959 219.98438 C 1258.7991 220.44271 1259.0584 226.36901 1259.5371 233.15234 C 1260.734 250.12012 1260.7141 267.60436 1259.4883 274.01172 C 1258.4127 279.63301 1255.9864 284.42159 1253.3359 286.1582 C 1252.3081 286.83168 1250.3371 287.26899 1248.3945 287.25391 C 1243.4294 287.21536 1240.4699 285.12439 1244.0938 284.21484 C 1246.4724 283.61783 1250.3253 280.02185 1251.584 277.22266 C 1253.0172 274.03531 1253.1507 261.05448 1251.8086 255.48438 C 1250.1704 248.68587 1246.7527 239.50778 1244.0781 234.72266 C 1240.8939 229.02573 1232.8168 220.50941 1231.6777 221.64844 C 1231.0909 222.23528 1231.1665 223.27333 1231.9902 225.95312 C 1233.9284 232.25914 1234.6209 238.6047 1234.6328 250.15234 C 1234.6442 262.02379 1233.8348 267.13487 1231.0938 272.50781 C 1229.3198 275.98498 1225.5086 279.13045 1222.916 279.25586 C 1217.0214 279.54084 1214.95 278.37344 1218.625 276.83789 C 1219.9565 276.28158 1221.8094 275.00205 1222.7422 273.99609 C 1224.7369 271.84486 1226.444 266.47185 1226.4316 262.38281 C 1226.4165 257.29752 1224.024 247.64188 1221.4199 242.1543 C 1220.0321 239.22975 1218.3666 235.33236 1217.7207 233.49414 C 1216.3409 229.56745 1215.2148 229.12343 1212.0547 231.26172 C 1207.4897 234.35068 1206.1768 239.15501 1205.1484 256.53125 C 1204.7672 262.97299 1204.1103 269.27297 1203.6895 270.53125 C 1202.8357 273.08387 1199.7262 277.4215 1194.2988 283.63281 C 1189.7009 288.8949 1187.1074 294.10202 1187.1074 298.06641 C 1187.1074 302.68775 1188.8315 309.92094 1192.375 320.15234 C 1194.1529 325.28566 1197.1184 333.83568 1198.9648 339.15234 C 1208.1184 365.50986 1212.4309 385.51263 1212.4375 401.6582 C 1212.4408 409.51686 1211.1044 419.61702 1209.4629 424.15234 C 1208.552 426.66913 1208.4962 426.18066 1208.4648 415.48438 C 1208.4459 408.97047 1208.0046 401.3161 1207.4277 397.48438 C 1206.4752 391.15729 1203.745 378.9476 1202.3965 374.98438 C 1200.8533 370.44902 1200.2326 369.15234 1199.6055 369.15234 C 1198.6364 369.15234 1199.3922 374.03065 1201.7246 382.81836 C 1204.275 392.4283 1206.015 405.45539 1204.4082 402.91211 C 1203.9776 402.23058 1203.2096 399.68121 1202.7012 397.24609 C 1200.7924 388.10383 1195.7022 375.15234 1194.0176 375.15234 C 1192.7222 375.15234 1192.7809 371.12118 1193.4121 416.81836 C 1193.8243 446.66502 1193.7369 453.70518 1192.8555 462.15234 C 1190.9915 480.02048 1188.3902 491.33193 1184.2031 499.77539 C 1182.2521 503.70977 1180.44 506.36987 1170.6426 519.68359 C 1169.1043 521.7739 1167.1556 524.81963 1166.3105 526.45117 C 1164.9854 529.00961 1164.742 529.20669 1164.5508 527.88477 C 1164.1554 525.15183 1167.2962 517.12688 1171.752 509.48438 C 1177.2788 500.0046 1181.7734 488.42197 1181.7734 483.65625 C 1181.7734 481.62264 1180.3025 482.64262 1178.2852 486.07617 C 1177.2645 487.81332 1174.2572 492.09905 1171.6016 495.59961 C 1168.946 499.10013 1166.3234 502.62325 1165.7734 503.42969 C 1160.4141 511.28782 1159.8255 510.12395 1163.8105 499.54883 C 1166.8259 491.547 1167.1342 487.62576 1164.7734 487.30469 C 1163.2399 487.09606 1161.2427 488.76506 1157.3789 493.48633 C 1154.9727 496.42657 1154.5973 497.35734 1154.1855 501.40234 C 1153.7216 505.96061 1152.3066 510.75832 1147.2676 524.86133 C 1143.037 536.70179 1142.2137 541.75417 1140.7539 564.81836 C 1139.3387 587.17854 1138.9699 588.47755 1128.248 608.81836 C 1126.3153 612.48503 1124.255 616.6857 1123.6699 618.15234 C 1123.0849 619.61903 1121.0251 624.86835 1119.0938 629.81836 C 1112.9949 645.44928 1108.4041 654.13752 1103.5527 659.22461 C 1098.566 664.4537 1091.9704 668.42298 1085.4434 670.12305 C 1080.7184 671.35374 1080.6852 671.37771 1079.7305 674.32812 C 1077.9737 679.75677 1071.3969 694.36408 1068.2773 699.76562 C 1061.9685 710.68963 1056.2258 717.33695 1048.7441 722.37109 C 1039.8101 728.38247 1028.8346 730.96364 1020.1074 729.10547 L 1020.1055 729.10547 C 1018.6388 728.79328 1016.5395 728.25169 1015.4395 727.90234 C 1013.6695 727.34018 1013.8996 727.2579 1017.4395 727.19531 C 1028.4367 727.00104 1035.5991 724.37912 1042.4492 718.03711 C 1050.5697 710.51899 1054.5237 702.10966 1065.7559 668.48438 C 1070.8052 653.36831 1070.7514 653.72012 1070.7031 636.48438 C 1070.6604 621.18118 1070.5493 619.94693 1067.8262 604.22852 C 1065.6992 591.95098 1057.8063 568.5275 1054.6582 565.15234 C 1053.4232 563.82834 1052.8887 564.66121 1051.0254 570.81836 C 1048.086 580.53122 1047.1256 589.63587 1046.457 614.15234 C 1046.107 626.98569 1045.4901 639.88503 1045.0859 642.81836 C 1044.2354 648.99169 1042.0472 658.33137 1040.6914 661.57617 C 1039.2127 665.11517 1038.3587 664.34153 1038.9336 659.98438 C 1039.7067 654.12528 1039.448 632.26772 1038.5215 625.15234 C 1038.0679 621.66898 1037.2366 615.66834 1036.6738 611.81836 C 1033.2186 588.18006 1031.9291 578.09884 1031.4102 570.65234 C 1030.9787 564.46152 1030.4781 562.80356 1029.5117 564.36719 C 1029.325 564.66917 1028.8503 567.59412 1028.4551 570.86719 C 1026.6762 585.5982 1024.639 595.21794 1019.0137 615.45508 C 1015.6993 627.37858 1014.5747 630.54641 1014.3906 628.48438 C 1014.1465 625.74766 1014.5892 616.35524 1015.1289 612.81836 C 1016.7391 602.26237 1018.4394 587.04853 1018.4395 583.20312 C 1018.4396 574.01256 1014.8862 561.36128 1009.0156 549.65234 C 1007.5909 546.81067 1006.1387 544.48438 1005.7891 544.48438 C 1004.0701 544.48438 1003.439 547.75038 1003.4395 556.65234 C 1003.4399 566.07047 1003.0446 567.21836 1001.1055 563.43555 C 1000.3198 561.9028 1000.0923 558.55638 1000.041 547.81836 C 999.96391 531.64693 998.33916 514.97651 995.03906 496.48438 C 993.53031 488.03021 989.38883 469.87711 988.84375 469.33203 C 987.82755 468.31583 986.51759 470.32042 984.33008 476.23633 C 981.0428 485.12642 979.64836 491.94572 979.17188 501.48438 C 978.12283 522.48445 974.4475 499.00952 974.43359 471.22266 C 974.42603 454.66553 973.54441 443.50596 971.62305 435.57617 C 970.07635 429.19251 968.42284 426.40217 967.78516 429.10352 C 967.59127 429.92443 967.82324 437.69717 968.30078 446.375 C 969.26086 463.82485 968.7236 474.55283 966.44727 483.45312 C 962.21465 500.00258 952.71376 505.32319 940.83984 497.79297 C 936.84549 495.25982 937.29064 494.46606 941.57617 496.48047 C 943.67071 497.46504 946.15597 498.00746 948.82031 498.06445 C 952.28349 498.13853 953.22353 497.88596 955.25586 496.33594 C 960.79139 492.11402 962.38486 484.57741 962.41211 462.48438 C 962.43479 445.33167 961.81864 439.56359 958.50781 425.81836 C 955.6706 414.03946 955.11707 409.93381 955.11133 400.65234 C 955.10755 392.41505 954.49535 390.5696 953.01562 394.31836 C 951.26733 398.74759 950.31737 404.91675 949.76953 415.39258 C 949.44638 421.57449 949.04958 426.76487 948.88672 426.92773 C 948.72382 427.09063 948.20806 425.63229 947.74023 423.6875 C 946.56148 418.78768 946.71248 405.05118 948.09961 391.15234 C 949.55408 376.57753 949.22159 362.9554 947.25 356.41406 C 944.92015 348.68425 943.79161 347.55606 942.19922 351.36719 C 941.65757 352.66353 939.78618 354.65912 937.68945 356.17773 C 932.9833 359.58623 931.45573 361.38159 930.41602 364.72266 C 929.30268 368.30047 929.45141 377.73023 930.75391 386.15234 C 932.37491 396.63237 932.7068 403.67908 931.79102 408.15234 C 930.84133 412.79103 928.41111 417.62451 925.74609 420.17773 C 923.3964 422.4289 922.09999 422.17131 923.37891 419.70898 C 926.29772 414.08939 927.29078 410.07881 927.31641 403.81836 C 927.34286 397.6374 926.29229 391.81836 925.15234 391.81836 C 924.83978 391.81836 924.11307 392.99604 923.53711 394.43555 C 922.52499 396.96507 920.10318 399.81836 918.96875 399.81836 C 918.66525 399.81836 919.22817 398.24339 920.21875 396.31836 C 921.90718 393.03777 922.05026 392.06616 922.49609 380.81836 C 923.00841 367.89418 923.42139 365.32838 926.14258 358.15234 C 930.92463 345.54146 930.65918 347.36183 931.13672 323.81836 C 931.48255 306.77428 931.80446 301.3932 932.65039 298.5957 C 934.65278 291.97405 931.80708 285.41068 922.7793 275.83203 C 919.8344 272.70746 916.4485 268.95102 915.25391 267.48438 L 913.08203 264.81836 L 909.33984 266.81836 C 904.11544 269.61033 897.51525 276.14189 895.46289 280.55078 C 892.5067 286.90129 893.53032 293.1254 898.45508 298.73438 C 899.66026 300.10702 901.78846 301.81363 903.18359 302.52539 C 906.27668 304.10338 911.22658 304.20751 913.46289 302.74219 C 916.2292 300.9296 915.52553 303.28429 912.47852 306.03711 C 907.53603 310.50236 903.69166 311.50357 899.02148 309.54102 C 892.62267 306.85203 887.67319 300.9545 884.56445 292.3125 C 883.12188 288.30223 882.82399 286.2999 882.80078 280.48438 C 882.76677 272.28775 883.89655 267.91514 887.41797 262.59375 C 890.14169 258.4778 890.27821 257.81836 888.40625 257.81836 C 883.35011 257.81836 876.92746 265.62953 873.46484 275.99023 C 870.71917 284.20564 869.50686 293.77278 870.44531 299.81836 C 871.80829 308.5985 875.2608 312.42053 881.11914 311.63477 C 884.09219 311.23599 884.56149 312.06439 882.60547 314.25391 C 877.98216 319.42902 873.53594 318.99272 867.83203 312.80469 C 861.54505 305.98411 856.90436 292.2144 856.82812 280.15234 C 856.7805 272.62685 857.51851 269.06429 859.80078 265.80664 C 860.44761 264.88338 861.08173 263.53337 861.20898 262.80664 C 861.55897 260.80859 858.87726 261.38446 855.17578 264.10156 C 851.46856 266.8229 847.66201 272.9258 845.58398 279.48438 C 844.4211 283.15456 844.10547 285.75367 844.10547 291.65234 C 844.10547 296.96077 843.87763 299.15249 843.32227 299.15234 C 841.85698 299.152 838.3987 294.16767 837.33008 290.51562 C 836.13427 286.4289 836.40698 274.42704 837.81055 269.35352 C 838.80373 265.76342 842.20224 261.81589 847.25195 258.38672 C 852.32158 254.94401 855.54355 251.62965 860.89453 244.35547 C 863.23939 241.16783 866.03871 237.81991 867.11523 236.91406 C 869.77322 234.67753 873.3851 233.5858 876.48828 234.08203 C 878.81813 234.45458 879.26594 234.27419 881.15234 232.20117 C 885.32895 227.6114 889.14051 226.94643 894.78516 229.82422 C 898.34332 231.63828 900.48672 231.49615 904.87891 229.15234 C 906.94026 228.05235 909.44138 227.15234 910.43555 227.15234 C 913.47115 227.15234 916.58531 229.88631 920.77344 236.22852 C 924.2726 241.52738 934.66393 254.9937 938.20508 258.81836 C 942.74667 263.72352 954.09484 278.67938 955.27734 281.31836 C 955.79193 282.46677 956.61644 283.15234 957.48438 283.15234 C 960.49129 283.15234 971.86009 275.85285 975.79492 271.39648 C 984.84731 261.14418 989.45672 246.29662 988.70312 229.81836 C 988.37015 222.5362 987.706 219.63944 983.58594 207.48438 L 980.19727 197.48438 L 980.20508 187.15234 C 980.21264 175.51946 981.03418 170.84704 984.86719 160.61328 C 996.45058 129.68649 1026.5978 110.32771 1059.0234 109.96484 z M 1084.3008 185.15625 C 1081.5782 185.15292 1080.8176 185.48376 1078.5625 187.65234 C 1073.6862 192.3415 1071.0718 203.58369 1072.377 214.25391 C 1073.0147 219.46765 1074.5063 223.81836 1075.6562 223.81836 C 1075.9401 223.81836 1076.4918 223.5004 1076.8809 223.11133 C 1077.3797 222.61254 1077.9876 223.2509 1078.9414 225.27734 C 1082.1254 232.04221 1088.9444 234.6719 1095.0781 231.5 C 1099.6345 229.14382 1103.1055 222.47044 1103.1055 216.07031 C 1103.1055 213.28078 1102.2719 211.80631 1101.4473 213.14062 C 1101.2171 213.51329 1100.5948 213.81836 1100.0664 213.81836 C 1099.3818 213.81836 1099.1047 213.00354 1099.0996 210.98438 C 1099.0921 207.63444 1098.1859 204.67003 1094.166 194.81836 C 1090.7586 186.46771 1089.4242 185.16198 1084.3008 185.15625 z M 1037.166 185.89258 C 1035.4851 185.81705 1034.0147 186.19433 1032.1055 187.06641 C 1028.5117 188.70795 1024.4233 193.31011 1021.9258 198.52344 C 1018.9099 204.81883 1018.7074 205.83973 1020.3809 206.27734 C 1021.147 206.47773 1021.7734 206.71811 1021.7734 206.8125 C 1021.7734 206.90687 1021.033 208.30809 1020.1289 209.92578 C 1016.0983 217.13734 1015.3245 228.13289 1018.4551 233.70312 C 1020.5025 237.34608 1022.0203 237.31598 1027.6836 233.52148 C 1038.7087 226.13442 1044.6156 214.13531 1044.623 199.11133 C 1044.6268 189.92724 1043.8165 187.41212 1040.5605 186.50781 C 1039.2585 186.14616 1038.1746 185.9379 1037.166 185.89258 z M 1020.6035 191.23047 C 1019.5289 191.49589 1017.8586 193.69655 1016.0371 197.29102 C 1014.2621 200.79384 1014.0159 202.48438 1015.2812 202.48438 C 1015.7437 202.48438 1017.4098 200.01628 1018.9844 196.99805 C 1020.9237 193.28051 1021.5814 191.42167 1021.0254 191.23633 C 1020.8975 191.1937 1020.757 191.19255 1020.6035 191.23047 z M 1076.0703 217.39453 C 1076.3101 217.43272 1076.4395 217.98899 1076.4395 219.01953 C 1076.4395 221.51255 1076.0883 221.76383 1075.5391 219.66406 C 1075.3251 218.84538 1075.4404 217.88395 1075.7949 217.5293 C 1075.8988 217.42546 1075.9904 217.3818 1076.0703 217.39453 z M 1058.4707 257.36328 C 1055.9265 257.24405 1053.1015 257.37226 1050.9668 257.79102 C 1038.1419 260.30679 1029.3141 269.78173 1025.082 285.57422 C 1023.6063 291.0811 1022.6212 300.92352 1023.3535 302.83203 C 1023.6725 303.66368 1024.4406 302.66351 1026.2266 299.09375 C 1028.0964 295.35606 1030.4667 292.3478 1036.4004 286.18555 C 1040.6554 281.7666 1044.6699 277.02734 1045.3203 275.65234 C 1045.9708 274.27731 1046.7129 273.15394 1046.9707 273.15625 C 1047.2285 273.15825 1047.9364 274.03337 1048.543 275.09961 C 1049.1495 276.16581 1050.4263 277.54843 1051.3809 278.17383 C 1053.0299 279.25436 1053.2731 279.24435 1056.2773 277.97852 C 1058.0163 277.24582 1060.63 276.43513 1062.084 276.17578 C 1063.538 275.91651 1065.5717 275.26793 1066.6035 274.73438 C 1067.6353 274.20082 1068.7308 273.92076 1069.0391 274.11133 C 1069.3475 274.30182 1070.2893 276.33725 1071.1309 278.63672 C 1073.383 284.79062 1075.3804 288.46559 1078.2324 291.69531 C 1080.4928 294.25511 1081.2 294.63014 1084.6445 295.08984 C 1088.141 295.5565 1088.8711 295.95558 1092.1934 299.21289 C 1096.0289 302.97337 1101.7665 311.09918 1104.623 316.81836 C 1108.8956 325.37253 1110.4357 335.63041 1108.2012 340.65234 C 1107.1954 342.91273 1106.8428 343.15234 1104.5332 343.15234 C 1101.0576 343.15234 1099.2256 341.21766 1100.3535 338.74219 C 1100.937 337.46168 1101.5003 337.09847 1102.498 337.35938 C 1103.5043 337.62243 1103.7965 337.42816 1103.6387 336.59961 C 1103.2955 334.79768 1100.6548 334.87664 1098.7871 336.74414 C 1096.5517 338.97954 1096.6662 340.17794 1099.373 342.88477 C 1101.6281 345.13982 1103.3362 345.72992 1104.0879 344.51367 C 1104.3045 344.16293 1104.8483 344.01379 1105.2949 344.18164 C 1107.0627 344.84684 1110.5331 341.77588 1112.3184 337.9668 C 1113.9276 334.53321 1114.1039 333.41711 1114.0762 326.81836 C 1114.0497 320.13037 1113.8247 318.84108 1111.541 312.16016 C 1109.1777 305.24596 1104.1847 294.8574 1100.2812 288.73438 C 1099.1116 286.89972 1097.9019 285.85748 1096.6504 285.60742 C 1095.6182 285.40106 1093.9875 285.03597 1093.0273 284.79688 C 1091.5404 284.42648 1091.217 284.61813 1090.8477 286.08984 C 1090.1334 288.93564 1088.6437 288.16689 1088.1211 284.68164 C 1086.3274 272.72027 1079.5455 259.35703 1075.5703 259.95117 C 1074.6239 260.09253 1073.8226 261.25142 1072.8359 263.90234 C 1072.0682 265.96517 1071.1401 267.76515 1070.7734 267.90234 C 1070.4068 268.03954 1069.0418 266.09694 1067.7402 263.58594 C 1066.4386 261.07493 1064.8867 258.74744 1064.291 258.41406 C 1063.2792 257.84785 1061.0149 257.48252 1058.4707 257.36328 z M 1006.959 490.00781 C 1006.105 490.3518 1005.7908 493.15243 1005.7949 499.81836 C 1005.8063 516.44378 1009.5787 525.6238 1010.5684 511.43164 C 1011.2961 500.99534 1009.7658 490.79025 1007.3574 490.00781 C 1007.2127 489.9608 1007.081 489.95867 1006.959 490.00781 z M 1132.7871 542.44727 C 1132.2591 542.35003 1131.7283 543.40502 1131.4199 545.65234 C 1131.1811 547.39403 1129.9717 552.56899 1128.7324 557.15234 C 1125.4154 569.41963 1124.8044 574.68842 1126.1895 579.10352 C 1126.7374 580.85022 1128.1775 578.4711 1129.9941 572.81836 C 1133.1579 562.97401 1134.8639 551.98854 1134.1348 546.15234 C 1133.8401 543.79396 1133.3151 542.5445 1132.7871 542.44727 z M 1132.0391 580.16211 C 1131.9547 580.09953 1131.8588 580.09996 1131.752 580.16602 C 1131.3734 580.39997 1129.1387 584.4302 1126.7871 589.12305 C 1122.1473 598.38225 1116.9282 612.91199 1115.7617 619.81836 C 1114.2109 629.00027 1114.1868 629.34787 1115.125 629.03516 C 1115.612 628.87301 1116.2498 628.30749 1116.541 627.7793 C 1117.2275 626.53443 1122.4395 615.08164 1122.4395 614.81836 C 1122.4395 614.708 1123.6181 612.09104 1125.0586 609.00195 C 1129.5744 599.3182 1132.4253 588.99026 1132.4355 582.2793 C 1132.4376 581.0964 1132.2923 580.34984 1132.0391 580.16211 z M 1100.6562 646.66406 C 1099.7442 646.3651 1092.3553 656.06588 1090.0742 660.55664 C 1088.9354 662.79862 1088.714 663.82534 1089.252 664.36328 C 1090.2588 665.37019 1093.0115 663.69898 1097.1699 659.55469 C 1098.9896 657.74119 1100.7645 655.22123 1101.1641 653.88672 C 1102.0262 651.00706 1101.7459 647.02142 1100.6562 646.66406 z "
       transform="scale(0.26458333)" />
  </g>
</svg>
