<?xml version="1.0" encoding="UTF-8" standalone="no"?>
<!-- Created with Inkscape (http://www.inkscape.org/) -->

<svg
   width="210mm"
   height="297mm"
   viewBox="0 0 210 297"
   version="1.1"
   id="svg5"
   inkscape:version="1.1 (c68e22c387, 2021-05-23)"
   sodipodi:docname="Geko.svg"
   xmlns:inkscape="http://www.inkscape.org/namespaces/inkscape"
   xmlns:sodipodi="http://sodipodi.sourceforge.net/DTD/sodipodi-0.dtd"
   xmlns="http://www.w3.org/2000/svg"
   xmlns:svg="http://www.w3.org/2000/svg">
  <sodipodi:namedview
     id="namedview7"
     pagecolor="#ffffff"
     bordercolor="#666666"
     borderopacity="1.0"
     inkscape:pageshadow="2"
     inkscape:pageopacity="0.0"
     inkscape:pagecheckerboard="0"
     inkscape:document-units="mm"
     showgrid="false"
     inkscape:zoom="0.69397447"
     inkscape:cx="376.09453"
     inkscape:cy="561.25984"
     inkscape:window-width="1920"
     inkscape:window-height="1017"
     inkscape:window-x="-8"
     inkscape:window-y="-8"
     inkscape:window-maximized="1"
     inkscape:current-layer="layer1" />
  <defs
     id="defs2" />
  <g
     inkscape:label="Ebene 1"
     inkscape:groupmode="layer"
     id="layer1">
    <path
       style="fill:#000000;stroke-width:1"
       d="m 113.03822,192.07838 c -7.60441,-0.74531 -15.600042,-2.78827 -21.907502,-5.59759 -1.31355,-0.58505 -3.2385,-1.66643 -3.2385,-1.81928 0,-0.18766 0.19285,-0.14007 0.54046,0.13336 0.46764,0.36784 2.00417,0.95245 3.46004,1.31643 2.0468,0.51172 4.11442,0.78055 8.445502,1.09809 3.83713,0.28132 5.96002,0.55492 8.04132,1.03636 0.6159,0.14247 1.14821,0.23064 1.1829,0.19596 0.0997,-0.0997 -2.53274,-1.64135 -4.20772,-2.4642 -1.53905,-0.75609 -3.74426,-1.69251 -7.810502,-3.31667 -5.34935,-2.13668 -7.45565,-3.17695 -9.61392,-4.74813 -1.44154,-1.04942 -2.14759,-2.41498 -3.72549,-7.20546 -1.20778,-3.66678 -1.69849,-4.93072 -2.20193,-5.6716 l -0.31629,-0.46545 -0.19536,0.46755 c -0.79764,1.90903 -0.98942,6.37827 -0.39703,9.25239 0.21995,1.0671 1.03943,2.81168 1.53536,3.2686 l 0.34337,0.31636 -0.0822,-0.762 c -0.0807,-0.74824 0.0249,-1.92658 0.32268,-3.60043 l 0.15023,-0.84457 0.1673,1.13717 c 0.20361,1.38402 0.43187,2.19258 0.93646,3.31721 1.28707,2.86864 3.79665,5.13246 7.61579,6.86999 0.66357,0.30189 1.14467,0.54917 1.06911,0.54952 -0.0756,0 -1.10427,-0.31885 -2.286,-0.70929 -6.0704,-2.00562 -8.36715,-3.39063 -11.44856,-6.90383 -2.03771,-2.32325 -3.54468,-5.13467 -4.28626,-7.99652 -0.54727,-2.11196 -0.60842,-3.02505 -0.70246,-10.48825 -0.0844,-6.69464 -0.24596,-9.97369 -0.50578,-10.26283 -0.0508,-0.0565 -0.21197,0.20062 -0.35812,0.5715 -0.8537,2.16647 -0.91882,4.47121 -0.26665,9.43733 0.31414,2.39213 0.46052,5.32639 0.27154,5.44319 -0.15461,0.0956 -0.99603,-1.9689 -1.56962,-3.85112 -1.081257,-3.54813 -1.283477,-7.96705 -0.54991,-12.01662 0.22204,-1.22575 0.94129,-3.8847 1.33274,-4.92694 l 0.28037,-0.74649 0.34469,1.06399 c 0.18958,0.58519 0.49734,1.36267 0.68391,1.72772 0.41394,0.80992 1.48741,2.48369 1.5517,2.4194 0.0256,-0.0256 -0.0959,-0.55837 -0.27006,-1.18386 -0.76791,-2.75797 -1.02321,-6.3343 -0.6267,-8.77907 0.57022,-3.5158 2.38721,-7.11409 5.6228,-11.13512 1.82214,-2.26446 1.73948,-2.09943 1.71938,-3.43306 -0.01,-0.63691 -0.13949,-2.06174 -0.28865,-3.16629 -0.14915,-1.10454 -0.25404,-2.30469 -0.23308,-2.667 l 0.0381,-0.65873 0.485,0.029 c 1.21884,0.0728 2.91869,1.48636 3.79675,3.1573 1.1575,2.20272 1.3286,5.10997 0.37513,6.37385 -0.20265,0.26863 -0.21275,0.2242 -0.23185,-1.02013 -0.029,-1.88872 -0.60347,-3.88235 -1.58599,-5.50395 -0.52722,-0.87014 -1.5045,-2.12691 -1.58856,-2.04286 -0.0343,0.0343 0.16294,0.39634 0.43825,0.80457 0.66291,0.98298 1.16165,2.27815 1.2527,3.25314 0.18147,1.9434 -0.89493,4.12965 -3.64099,7.39511 -2.45985,2.92511 -3.6384,4.87089 -4.00003,6.604 -0.19886,0.95305 -0.25066,2.09776 -0.0947,2.09196 0.0524,-0.002 0.46643,-0.52284 0.92009,-1.15753 1.05522,-1.47629 2.18722,-2.53171 3.3358,-3.11012 1.14819,-0.57822 1.87186,-0.83768 1.87186,-0.67112 0,0.19526 -0.48727,1.1045 -0.64373,1.2012 -0.29275,0.18093 -1.03816,1.50959 -1.46065,2.60356 -0.45173,1.16968 -0.85395,3.18783 -0.9987,5.01105 l -0.0807,1.016 0.30034,-0.71216 c 0.59634,-1.41401 1.27509,-2.01834 2.26689,-2.01834 0.57008,0 0.90019,0.15942 1.55235,0.74972 0.31968,0.28936 0.35514,0.29865 0.28932,0.0758 -0.40222,-1.36198 -0.50077,-2.16046 -0.49375,-4.0005 0.008,-2.20931 0.22337,-3.31979 0.90322,-4.66655 0.49906,-0.98864 0.92684,-1.48366 1.64901,-1.90819 0.50343,-0.29595 0.72943,-0.34618 1.54237,-0.34281 0.80385,0.003 1.08133,0.0663 1.778,0.40363 0.45402,0.21982 1.00333,0.51869 1.22069,0.66415 l 0.39519,0.26448 0.0703,-1.81111 c 0.19143,-4.93347 1.93745,-9.54414 4.51958,-11.93474 0.81162,-0.75142 1.786,-1.35896 2.62076,-1.63409 0.76537,-0.25226 0.21441,-0.29845 -0.8021,-0.0673 -2.13164,0.48483 -3.14532,1.16957 -6.26513,4.23208 -1.37237,1.34717 -2.53038,2.4494 -2.57335,2.4494 -0.043,0 -0.21632,-0.31249 -0.38523,-0.69442 -1.1146,-2.52032 -2.92659,-4.30668 -5.62784,-5.54825 -0.61069,-0.28069 -1.52009,-0.70042 -2.0209,-0.93273 -1.32987,-0.61691 -1.37224,-0.71183 -1.39062,-3.11529 -0.0123,-1.60439 -0.0577,-2.07318 -0.23769,-2.45248 -0.12239,-0.25791 -0.27843,-0.50348 -0.34675,-0.5457 -0.0689,-0.0426 -0.062,0.0395 0.0154,0.18419 0.20613,0.38516 0.16759,1.13069 -0.10307,1.99378 -0.71665,2.28532 -0.43806,3.49141 1.64057,7.10261 1.73177,3.0086 1.6406,4.63162 -0.37275,6.6361 -0.96915,0.96489 -1.76807,1.51978 -1.61543,1.122 0.28631,-0.74609 0.36696,-1.47785 0.3009,-2.73002 -0.0586,-1.11108 -0.16018,-1.63233 -0.54205,-2.7819 -0.54064,-1.62751 -1.39342,-3.18084 -2.2165,-4.03735 l -0.5715,-0.59471 -0.0741,1.45083 c -0.13539,2.6505 -0.55299,3.13763 -4.238947,4.94486 -1.39972,0.68628 -2.65924,1.33635 -2.79894,1.4446 l -0.254,0.1968 0.254,0.003 c 0.88835,0.009 3.301757,-1.08208 4.807617,-2.1732 0.47885,-0.34696 0.89262,-0.60885 0.9195,-0.58197 0.0269,0.0269 -0.0932,0.33043 -0.2668,0.67454 -0.9447,1.87247 -3.183837,3.17088 -5.726567,3.32068 -1.20452,0.071 -1.92609,-0.0666 -2.22247,-0.42373 -0.0877,-0.10572 -0.22092,-0.5665 -0.29596,-1.02395 l -0.13642,-0.83172 -0.88895,-0.22976 c -2.28481,-0.59052 -3.06552,-1.18882 -2.3712,-1.81716 0.30012,-0.27161 0.40275,-0.26546 0.40275,0.0241 0,0.51585 0.87707,0.86981 1.2446,0.50228 0.22891,-0.2289 0.18402,-1.0504 -0.0749,-1.37011 -0.28038,-0.34625 -1.24722,-0.48642 -1.79373,-0.26005 -0.65204,0.27009 -0.92558,1.16215 -0.62842,2.04936 0.22354,0.66742 0.5666,0.95565 1.41987,1.19293 1.13667,0.3161 2.04973,0.7779 2.23964,1.13274 0.41051,0.76705 -0.16674,1.41873 -2.62784,2.96671 -0.91874,0.57787 -1.90215,1.28705 -2.18535,1.57596 -0.45043,0.45951 -0.515,0.5983 -0.51562,1.10832 -10e-4,1.06271 -0.19263,1.47014 -0.90514,1.92735 -1.927,1.23656 -3.34299,0.72013 -3.32481,-1.21259 0.0153,-1.62053 1.02765,-2.65446 2.19928,-2.24603 0.38175,0.13308 0.41295,0.11016 1.93994,-1.42554 0.87488,-0.87988 1.93525,-1.80551 2.43055,-2.12172 l 0.8786,-0.56092 -0.65269,-0.0939 c -0.35898,-0.0517 -1.16195,-0.32324 -1.78438,-0.6035 -0.62243,-0.28026 -1.30346,-0.50957 -1.51341,-0.50957 -0.20994,0 -0.74983,0.17226 -1.19975,0.3828 -0.44992,0.21055 -1.38502,0.53309 -2.07801,0.71677 -1.10145,0.29194 -1.52361,0.33565 -3.35547,0.34744 -2.08653,0.0134 -2.09793,0.0151 -2.66226,0.38138 -0.80672,0.52366 -1.49394,0.57736 -1.99484,0.15588 -1.22291,-1.02901 -0.46944,-3.46037 1.14751,-3.70285 0.75288,-0.1129 1.2296,0.0578 1.54109,0.55178 0.24704,0.39179 0.27312,0.40076 0.9525,0.32763 0.38417,-0.0413 1.4986,-0.24595 2.4765,-0.45466 1.10446,-0.23573 2.34329,-0.40591 3.27025,-0.44926 0.87549,-0.0409 1.49225,-0.12287 1.49225,-0.19824 0,-0.20977 -1.02628,-1.3947 -3.0172,-3.48362 -2.0292,-2.12907 -2.96155,-3.28873 -3.58594,-4.46021 l -0.40061,-0.75163 -0.50237,0.11288 c -1.23943,0.27848 -2.14588,-0.48874 -2.14588,-1.81626 0,-1.72299 1.69744,-2.54345 3.43762,-1.66158 0.37904,0.19209 0.76955,0.49608 0.8678,0.67555 0.23822,0.43515 0.0995,0.92684 -0.3148,1.11559 -0.46398,0.21141 -0.27765,0.39895 1.10687,1.11402 1.68667,0.87113 2.54814,1.85416 3.89391,4.44334 0.97675,1.87921 2.18827,3.73225 2.44015,3.73225 0.0596,0 0.14522,-0.11623 0.19031,-0.2583 0.0451,-0.14206 0.20041,-0.36863 0.34516,-0.50348 l 0.26318,-0.24519 -0.66041,-2.54805 c -0.7247,-2.79614 -1.52784,-5.40132 -1.98114,-6.42631 -0.27178,-0.61455 -0.32972,-0.66638 -0.84148,-0.75284 -0.68638,-0.11597 -1.38117,-0.75746 -1.38117,-1.27522 0,-0.8732 1.14685,-2.04416 2.13141,-2.17622 1.05723,-0.1418 1.55041,0.52405 1.55111,2.09421 8.9e-4,1.84288 0.33876,3.0797 1.54115,5.64064 0.78301,1.66771 0.97872,2.36851 1.0833,3.87901 0.0447,0.64611 0.11558,1.17293 0.15743,1.17071 0.0419,-0.002 0.18703,-0.088 0.32262,-0.1905 0.3662,-0.27698 0.91258,-0.23356 1.1396,0.0906 0.19218,0.27438 0.19661,0.27468 0.46598,0.0318 0.14958,-0.13489 0.58632,-0.90249 0.97053,-1.70576 0.38422,-0.80328 0.84228,-1.65199 1.01793,-1.88602 l 0.31935,-0.42553 -0.27021,-0.48077 c -0.79962,-1.42274 0.31066,-3.81168 1.77151,-3.81168 0.31,0 0.56835,0.0993 0.78806,0.30292 0.44495,0.41237 1.10723,1.75828 1.10723,2.25017 0,0.42817 -0.20749,0.66089 -1.95473,2.19237 -0.92006,0.80646 -1.22055,1.29888 -1.93493,3.17089 -0.24203,0.63421 -0.55823,1.34433 -0.70268,1.57806 -0.14445,0.23372 -0.22719,0.46039 -0.18387,0.50372 0.0433,0.0433 0.8433,0.10469 1.77773,0.13638 1.60647,0.0545 1.73669,0.0403 2.39197,-0.25965 1.12231,-0.5138 1.37804,-1.00252 1.81127,-3.46136 0.399917,-2.26975 0.649577,-2.85936 1.759137,-4.15444 0.51108,-0.59655 1.02034,-1.27744 1.13167,-1.51309 0.20664,-0.43737 0.86654,-3.18376 0.78571,-3.27002 -0.0892,-0.0953 -0.88988,0.66151 -1.23357,1.16599 -0.34135,0.50103 -0.57595,1.18283 -0.81688,2.37406 l -0.11559,0.5715 -0.15956,-0.635 c -0.23801,-0.94716 -0.32483,-3.31361 -0.15209,-4.14567 0.19537,-0.9411 0.83369,-1.97758 1.50966,-2.45132 0.46542,-0.32618 0.69002,-0.39107 1.49415,-0.43167 0.82374,-0.0416 1.03571,-0.004 1.63565,0.28943 1.43259,0.7009 2.82487,2.37468 3.54583,4.26273 0.83728,2.19267 1.2005,2.78768 2.54595,4.17063 0.70382,0.72344 1.3654,1.36124 1.47018,1.41734 0.11771,0.063 0.009,-0.2693 -0.28486,-0.86974 -0.26144,-0.53445 -0.56865,-1.25748 -0.68268,-1.60673 -0.33391,-1.02273 -1.27378,-2.75539 -1.77398,-3.27037 -0.25435,-0.26187 -0.42474,-0.47613 -0.37864,-0.47613 0.0461,0 0.60125,0.27146 1.23367,0.60325 1.97997,1.03876 2.77394,1.93772 3.71356,4.20464 0.60576,1.46143 1.07804,1.99408 1.87393,2.11343 1.01837,0.15271 2.78414,-0.45239 5.08984,-1.74421 0.46935,-0.26296 0.87949,-0.47811 0.91144,-0.47811 0.0319,0 0.0766,0.0945 0.0992,0.20996 0.0309,0.158 0.31601,-0.0167 1.15231,-0.70608 0.61119,-0.50381 1.11125,-0.94768 1.11125,-0.98637 0,-0.1318 -1.20337,0.10921 -2.71165,0.54309 -1.75643,0.50527 -3.51767,1.32624 -4.58372,2.13664 -0.41519,0.31561 -0.77932,0.5494 -0.80918,0.51954 -0.12697,-0.12697 0.65743,-1.22827 1.21393,-1.70437 0.76109,-0.65114 1.97467,-1.13154 4.48527,-1.77554 3.03691,-0.77901 4.22324,-1.28102 5.47614,-2.31732 0.326852,-0.27035 0.634892,-0.49155 0.684512,-0.49155 0.096,0 -0.007,1.13999 -0.14595,1.61925 -0.0726,0.25017 -0.0367,0.28575 0.28892,0.28575 0.66306,0 2.36594,-0.51618 3.27723,-0.9934 1.12895,-0.59119 2.39573,-1.83612 3.60913,-3.54685 0.50782,-0.71596 0.97508,-1.30175 1.03834,-1.30175 0.0633,0 0.11503,0.14628 0.11503,0.32506 0,0.31988 0.0104,0.31634 0.65184,-0.22225 0.75765,-0.63614 1.08772,-1.12069 1.54073,-2.26181 0.54948,-1.3841 0.75035,-2.753924 0.83806,-5.715004 l 0.0809,-2.7305 0.4037,0.54631 c 0.22203,0.30047 0.44652,0.55764 0.49886,0.5715 0.13816,0.0366 0.29382,-0.59357 0.43211,-1.749295 0.24767,-2.06988 -0.39314,-5.85662 -1.34171,-7.92858 -0.17276,-0.37737 -0.29529,-0.704944 -0.27229,-0.72795 0.023,-0.02301 0.26403,0.185721 0.5356,0.46384 0.27158,0.27812 0.56171,0.50567 0.64474,0.50567 0.3181,0 0.48307,-1.561834 0.28208,-2.670656 -0.1536,-0.847361 -0.69086,-1.937723 -1.78165,-3.615846 -1.0406,-1.600912 -1.55781,-2.604482 -1.34033,-2.600711 0.29985,0.0052 1.26555,0.503163 2.08025,1.072679 0.44613,0.311863 0.81114,0.511166 0.81114,0.442894 0,-0.30866 -0.57719,-1.298826 -1.19066,-2.042566 -0.59007,-0.715368 -2.21738,-2.262826 -3.49423,-3.322765 -0.54788,-0.454814 -0.45278,-0.541165 0.25966,-0.235773 0.76876,0.329527 2.59328,0.780742 3.15699,0.780742 h 0.46141 l 0.14396,0.774139 c 0.19725,1.060619 0.69521,1.790147 2.53052,3.70724 1.55192,1.621076 2.18762,2.511091 2.64999,3.710121 0.21467,0.556725 0.24416,0.963754 0.23921,3.302002 -0.006,2.80848 -0.0831,3.50196 -0.69581,6.25117 -0.64738,2.904965 -1.72709,5.947515 -3.24943,9.156655 -0.4414,0.930514 -0.76173,1.673134 -0.71183,1.650284 0.0499,-0.0229 0.39644,-0.20223 0.7701,-0.39862 0.37365,-0.19638 0.69926,-0.33717 0.72356,-0.31287 0.0738,0.0738 -0.51891,1.99664 -0.99169,3.21737 -0.86123,2.22368 -2.52261,5.31784 -4.15141,7.73162 -2.49773,3.70148 -5.37498,7.10522 -12.220152,14.45623 -5.49176,5.89759 -8.44262,9.29854 -8.97731,10.34663 -0.58794,1.15245 -0.76597,2.35448 -1.09833,7.41558 -0.10832,1.64947 -0.28099,3.56399 -0.38372,4.2545 -0.21138,1.42083 -0.55808,2.65116 -0.70443,2.4998 -0.28493,-0.29466 -1.79924,-4.74847 -2.29065,-6.73709 -0.15966,-0.64611 -0.32824,-1.17475 -0.37462,-1.17475 -0.0464,0 -0.12261,0.55721 -0.16941,1.23825 -0.25745,3.74683 -0.91953,6.13502 -2.0467,7.38267 -0.26325,0.29139 -0.50027,0.50816 -0.52672,0.48171 -0.0941,-0.0941 -0.78333,-3.08622 -0.92534,-4.0173 -0.0795,-0.52094 -0.16278,-0.96549 -0.18518,-0.98789 -0.12276,-0.12276 -0.38789,1.29184 -0.37458,1.99856 0.0176,0.93745 0.22815,1.81837 0.90267,3.77761 0.42437,1.23267 0.4705,1.49594 0.47293,2.69939 0.002,1.17791 -0.036,1.41499 -0.329,2.032 -0.39356,0.82877 -0.21416,1.09936 -1.55772,-2.3495 l -0.94003,-2.413 0.0634,2.0955 c 0.0349,1.15252 0.003,3.52425 -0.0713,5.2705 -0.0888,2.09118 -0.0934,3.75212 -0.0137,4.86567 0.11636,1.62467 0.42344,3.40313 0.62501,3.61987 0.22341,0.24022 0.78097,-1.69456 1.09237,-3.79063 0.11359,-0.76458 0.34694,-1.74089 0.51855,-2.16958 0.29195,-0.72927 1.34027,-2.14433 1.58858,-2.14433 0.0613,0 0.73756,0.50908 1.50276,1.13127 1.39642,1.13547 2.27915,2.05494 2.55586,2.66227 0.0817,0.1793 0.19733,0.29583 0.25696,0.25898 0.0596,-0.0369 0.10928,-1.04948 0.11032,-2.25027 0.003,-3.05864 0.49568,-9.72701 0.756,-10.22488 0.11835,-0.22635 0.93074,1.56909 1.32109,2.91974 0.6263,2.16698 0.73127,4.13591 0.54055,10.13839 -0.0949,2.98652 -0.0815,3.66059 0.0927,4.65273 0.40962,2.33308 1.25599,4.27412 2.44828,5.61485 l 0.49096,0.55208 v -1.31408 c 0,-0.72275 0.0755,-1.6427 0.16775,-2.04433 0.14812,-0.6448 0.20419,-0.73025 0.47909,-0.73025 0.53916,0 1.34103,0.88964 2.08384,2.31193 0.57303,1.0972 0.87823,1.50318 1.8971,2.52349 2.06459,2.06748 4.819752,4.20231 8.734452,6.76789 2.04779,1.34207 4.95219,3.12869 5.08611,3.12869 0.25,0 -0.78589,-0.82044 -2.33109,-1.84625 -1.93792,-1.28653 -3.15641,-2.20344 -3.05839,-2.30146 0.0339,-0.0339 1.50124,0.28722 3.26067,0.7137 4.92722,1.19435 5.70715,1.31152 8.82646,1.32607 2.80675,0.0131 3.61807,-0.0762 5.76934,-0.63504 2.82516,-0.73388 4.5765,-0.68168 7.80942,0.23276 1.80886,0.51163 2.00694,0.54172 3.56624,0.54172 1.57488,0 2.69623,-0.19171 2.54574,-0.43522 -0.0331,-0.0535 -0.77524,-0.13104 -1.64928,-0.17234 -0.87405,-0.0413 -1.679,-0.12536 -1.78879,-0.18679 -0.24753,-0.13853 -0.39185,-0.0707 3.62283,-1.70263 3.65757,-1.48676 5.47981,-2.36274 7.0485,-3.38833 2.05949,-1.34648 3.43609,-2.71249 4.88374,-4.84619 1.62467,-2.39459 3.47714,-4.0826 7.24476,-6.60153 5.42863,-3.62945 7.14182,-5.91929 7.53205,-10.06722 0.0606,-0.64391 -0.0286,-0.74904 -0.30931,-0.36473 -0.0958,0.13119 -0.57663,0.77412 -1.06844,1.42875 -0.49182,0.65463 -1.34812,1.81785 -1.9029,2.58494 -1.31245,1.81474 -2.88417,3.64834 -3.82141,4.45816 -0.98435,0.85052 -2.08099,1.63093 -2.08099,1.48092 0,-0.20431 1.2937,-2.19246 2.75609,-4.23559 2.39804,-3.35032 3.19369,-4.7262 3.74102,-6.46918 0.25097,-0.79919 0.29601,-1.20473 0.28855,-2.59802 -0.008,-1.44786 -0.0523,-1.78383 -0.36212,-2.7305 -0.45766,-1.39842 -1.20911,-2.85223 -1.38392,-2.67742 -0.0877,0.0877 -0.0811,0.63103 0.0205,1.68909 0.14996,1.56172 0.19872,3.36851 0.0879,3.25772 -0.0324,-0.0324 -0.2927,-0.93637 -0.57841,-2.00876 -1.15009,-4.31685 -3.96472,-12.09801 -4.30097,-11.8902 -0.0538,0.0332 -0.20186,0.40419 -0.32908,0.82435 -0.12721,0.42015 -0.27138,0.73913 -0.32038,0.70885 -0.049,-0.0303 -0.12571,-0.53155 -0.17047,-1.11394 -0.11226,-1.46046 -0.49385,-2.87981 -1.11752,-4.15669 -0.70081,-1.43484 -2.04924,-2.80335 -3.42068,-3.47161 -1.17124,-0.57072 -2.82212,-1.04417 -3.99104,-1.14459 l -0.889,-0.0764 0.9525,0.33559 c 0.97173,0.34236 2.24967,1.04834 1.905,1.05239 -0.10478,0.001 -0.67628,-0.0833 -1.27,-0.18776 -1.50885,-0.26557 -4.29237,-0.37122 -5.6515,-0.21452 -1.72522,0.19891 -2.8907,0.67867 -3.76613,1.5503 -0.78693,0.78351 -0.9806,1.23639 -1.05802,2.47407 -0.0262,0.4191 -0.0193,0.60484 0.0154,0.41275 0.0347,-0.19209 0.11201,-0.34925 0.17181,-0.34925 0.0598,0 0.37141,0.30004 0.69248,0.66675 0.83542,0.95417 1.08693,1.71653 1.08693,3.29468 v 1.2849 l 0.48999,0.46611 c 0.47006,0.44716 1.35331,0.84733 2.53009,1.14631 0.65781,0.16712 0.60837,0.29987 -0.1862,0.49995 -0.74461,0.18749 -0.58387,0.31644 0.65493,0.52539 1.70102,0.28691 4.14637,-0.0958 5.57276,-0.87211 1.52276,-0.82879 2.45345,-2.14544 2.34133,-3.31228 -0.11954,-1.24411 -1.0878,-2.51958 -2.73628,-3.60445 -0.69675,-0.45854 -0.7092,-0.47625 -0.33462,-0.47625 0.50864,0 1.87999,0.4485 2.54083,0.83098 0.6437,0.37256 1.28208,1.0847 1.58314,1.76607 1.05373,2.38487 -0.54369,5.84212 -3.3371,7.22236 -1.1447,0.56561 -2.09211,0.71572 -4.53854,0.71907 -2.21193,0.003 -3.12478,-0.20139 -3.767,-0.84362 -0.44669,-0.44669 -0.81333,-1.42343 -0.81333,-2.16677 0,-0.70863 -0.38424,-2.34274 -0.71577,-3.044 -0.34829,-0.73675 -1.3702,-1.94409 -1.6455,-1.94409 -0.28616,0 -0.22206,1.32 0.1477,3.04171 0.17954,0.83597 0.30704,1.67944 0.28333,1.87437 -0.0403,0.33142 -0.0667,0.30938 -0.40589,-0.33958 -2.32229,-4.44267 -1.58097,-9.11303 1.86142,-11.72694 1.05033,-0.79755 2.37019,-1.48921 3.46679,-1.81675 1.12616,-0.33636 0.49988,-0.3658 -1.08182,-0.0509 -0.75766,0.15087 -1.54029,0.25568 -1.73917,0.23293 -0.32773,-0.0375 -0.27811,-0.0852 0.52988,-0.50917 1.64217,-0.86171 3.85583,-1.23743 5.8528,-0.99339 4.32683,0.52878 8.5333,2.65529 11.93428,6.03318 1.26243,1.25386 2.31797,2.54081 2.18939,2.66939 -0.0264,0.0264 -0.38912,-0.24305 -0.80599,-0.59882 -1.15743,-0.98778 -2.36423,-1.64993 -2.52702,-1.38652 -0.17559,0.28411 0.48703,2.36803 1.41484,4.44964 0.38677,0.86773 0.7811,1.94997 0.8763,2.40498 0.0952,0.45501 0.23099,0.88519 0.30176,0.95596 0.17462,0.17461 0.16829,-0.15156 -0.013,-0.67166 -0.0779,-0.22354 -0.11204,-0.43608 -0.0758,-0.47231 0.14853,-0.14854 1.21496,0.54368 1.87186,1.21501 0.54228,0.5542 0.93045,1.16546 1.70198,2.68013 0.54972,1.07921 1.23386,2.30037 1.52032,2.71368 l 0.52083,0.75149 0.0414,-0.42395 0.0414,-0.42395 0.29645,0.37096 c 0.16305,0.20403 0.34165,0.32613 0.39689,0.27133 0.23794,-0.23605 -0.92957,-5.20959 -1.85294,-7.89341 -0.43644,-1.26855 -0.19966,-0.91601 0.48349,0.71987 1.0028,2.40128 1.59861,4.18181 2.16111,6.45827 1.54874,6.26779 1.17315,12.2572 -1.05458,16.81691 l -0.68253,1.397 -0.0233,-0.5715 c -0.0128,-0.31433 -0.0621,-0.71068 -0.10964,-0.88079 -0.081,-0.28994 -0.11718,-0.26286 -0.57922,0.43321 -0.27105,0.40837 -0.85531,1.54486 -1.29834,2.52551 -0.89275,1.9761 -1.23908,2.53722 -1.97817,3.20494 -0.50443,0.45572 -1.59307,1.19413 -1.76052,1.19413 -0.0496,0 0.21303,-0.59683 0.58367,-1.32628 0.47014,-0.92527 0.72001,-1.59974 0.82645,-2.23079 0.0839,-0.49748 0.11789,-0.9392 0.0755,-0.98158 -0.0424,-0.0424 -0.54824,0.37888 -1.12412,0.93614 -0.57588,0.55726 -1.93289,1.72423 -3.01556,2.59326 -1.08268,0.86904 -2.48338,2.09646 -3.11267,2.72761 -1.06438,1.06752 -2.72956,3.27674 -2.58146,3.42484 0.0359,0.0359 0.34593,-0.28575 0.68895,-0.71476 0.72441,-0.90601 1.7536,-1.781 2.59842,-2.20911 0.60532,-0.30674 2.22939,-0.66104 2.37278,-0.51765 0.0435,0.0436 -1.20768,1.35013 -2.7805,2.9035 -2.90227,2.86638 -3.89642,4.04326 -4.7531,5.6268 l -0.47636,0.88052 1.06986,-1.016 c 1.92667,-1.82968 2.68667,-2.50665 5.83413,-5.19686 1.70965,-1.46127 4.15153,-3.7023 5.4264,-4.98009 2.4575,-2.46308 2.5172,-2.47839 1.2062,-0.30906 -2.36557,3.9143 -5.82442,7.54361 -10.13288,10.63222 -4.51285,3.23514 -10.77653,6.25696 -17.73956,8.5582 -2.32429,0.76817 -6.32443,1.92051 -6.4831,1.86762 -0.21534,-0.0718 1.7778,-1.1184 4.74613,-2.49223 3.14103,-1.45378 4.0553,-1.92724 5.19376,-2.68961 0.99814,-0.6684 2.06345,-1.52758 1.98783,-1.60319 -0.0681,-0.0681 -1.46929,0.44038 -3.89283,1.41277 -2.21173,0.88741 -3.53113,1.22149 -5.14593,1.30296 -1.3321,0.0672 -3.23607,-0.12394 -3.23607,-0.3249 0,-0.0471 0.27227,-0.18242 0.60505,-0.30062 0.96649,-0.34325 1.73129,-0.92763 2.75132,-2.10224 0.52364,-0.603 0.93508,-1.11336 0.9143,-1.13414 -0.0208,-0.0208 -1.06161,0.35596 -2.31297,0.83719 -1.25136,0.48121 -4.04685,1.45657 -6.2122,2.16746 -5.27863,1.73297 -5.82542,1.91974 -5.94209,2.02962 -0.055,0.0518 0.63991,0.0675 1.54434,0.0349 1.73107,-0.0625 3.88472,0.10879 5.47355,0.43535 1.22683,0.25216 2.9247,0.78918 2.9247,0.92505 0,0.31176 -2.83683,1.18846 -4.5085,1.39331 -1.02956,0.12618 -5.81253,0.16527 -6.9215,0.0566 z M 94.907178,114.4994 c 0.61021,-0.33809 1.09428,-0.6299 1.07572,-0.64846 -0.0186,-0.0186 -0.53486,0.13464 -1.14732,0.34046 -0.61247,0.20581 -1.18481,0.3742 -1.27187,0.3742 -0.13736,0 -0.86546,0.86639 -1.16155,1.38217 -0.0555,0.0966 0.23584,-0.0514 0.64736,-0.32899 0.41151,-0.27757 1.24746,-0.78129 1.85766,-1.11938 z m 21.733142,55.19404 c -0.66064,-0.29999 -1.45265,-1.00903 -1.75572,-1.57179 -0.28679,-0.53254 -0.20233,-0.94365 0.31487,-1.53271 0.54441,-0.62006 0.75975,-1.22804 0.75975,-2.14508 0,-1.11597 -0.2773,-2.10434 -1.00727,-3.59019 -0.69009,-1.40466 -1.08646,-1.91197 -1.59327,-2.03918 -0.41073,-0.10308 -1.29295,0.26613 -1.52773,0.63936 -0.09,0.14314 -0.22866,0.83175 -0.30803,1.53025 -0.18704,1.64589 -0.30012,2.06254 -0.91613,3.37568 l -0.51119,1.08967 0.3265,0.48113 c 0.6535,0.96299 0.72983,1.75974 0.25909,2.7044 -0.25033,0.50234 -0.44928,0.7124 -0.8656,0.91393 -0.97022,0.46967 -2.27386,0.27681 -3.53652,-0.52322 -0.81879,-0.5188 -1.11485,-1.03269 -1.11485,-1.93514 0,-1.30134 0.67979,-2.09795 1.91456,-2.24355 1.33256,-0.15712 1.72434,-0.85365 1.8513,-3.2914 0.098,-1.88176 0.17721,-1.81441 -2.26144,-1.923 -2.68345,-0.11948 -3.92254,-0.39483 -5.05928,-1.12428 -1.16026,-0.74454 -1.843632,-1.78495 -1.991292,-3.03168 -0.11005,-0.92919 -0.1324,-0.92846 2.180652,-0.0712 1.34756,0.49941 2.69927,1.07371 4.43526,1.88437 1.76086,0.82228 2.47495,1.01134 3.81974,1.01134 2.47045,0 4.49595,-1.1216 5.07046,-2.8077 0.28014,-0.82216 0.26578,-0.87395 -0.33971,-1.22552 -1.16021,-0.67365 -2.26099,-0.5464 -3.20432,0.37042 -0.5546,0.539 -1.08193,1.40107 -1.08193,1.76871 0,0.34562 0.58696,0.21744 1.72135,-0.37594 0.60091,-0.31433 1.11666,-0.5715 1.1461,-0.5715 0.0294,0 0.0536,0.14488 0.0536,0.32197 0,0.70204 -0.74621,1.33956 -1.93996,1.65736 -0.79849,0.21257 -1.82195,0.23322 -1.94188,0.0392 -0.14992,-0.24256 -0.0732,-1.22141 0.13467,-1.71899 0.33825,-0.80956 1.20702,-1.80786 2.06075,-2.36804 0.46703,-0.30644 0.73421,-0.55173 0.62545,-0.57419 -0.38861,-0.0803 -1.25964,0.52408 -2.65092,1.83929 -1.54397,1.45953 -2.14782,1.81582 -3.11449,1.83759 -0.75839,0.0171 -1.37489,-0.24378 -2.88934,-1.22257 -1.45081,-0.93766 -2.73483,-1.55567 -3.45725,-1.664 l -0.565262,-0.0848 0.0855,-0.46016 c 0.15893,-0.85581 0.961932,-2.16534 1.917672,-3.1273 1.12296,-1.13027 2.32804,-1.99495 5.38511,-3.86397 3.86067,-2.36032 4.37645,-2.79445 3.32839,-2.80145 -0.65216,-0.004 -2.28752,-0.42519 -2.86146,-0.73635 -0.72391,-0.39246 -1.27428,-1.03478 -2.36328,-2.75809 -0.4414,-0.6985 -0.82129,-1.29116 -0.8442,-1.31702 -0.11981,-0.13525 -6.110842,2.17965 -7.990952,3.08767 -3.59455,1.73601 -5.69601,3.74427 -7.2283,6.90773 -1.09343,2.25739 -0.97819,2.20639 -0.90844,0.40212 0.0338,-0.87313 0.14866,-1.9155 0.25534,-2.31638 0.72383,-2.72008 2.77891,-4.71606 6.1348,-5.95839 0.40183,-0.14875 0.87347,-0.32348 1.0481,-0.38828 0.29688,-0.11016 0.30205,-0.12646 0.0797,-0.25091 -0.1308,-0.0732 -0.71566,-0.1629 -1.29968,-0.19934 -1.34593,-0.084 -1.97114,0.12993 -4.2494,1.4538 -1.50959,0.87722 -2.02272,1.07511 -1.67455,0.64582 0.0722,-0.089 0.85372,-1.60391 1.73675,-3.36646 0.88303,-1.76255 1.94757,-3.71602 2.36564,-4.34103 0.88364,-1.32107 2.35537,-2.86142 3.59326,-3.76081 l 0.86921,-0.63152 -0.45302,-0.0392 c -0.25792,-0.0223 -0.70063,0.0703 -1.02795,0.21511 -0.31622,0.13987 -0.57494,0.23838 -0.57494,0.21891 0,-0.0666 2.22137,-1.81399 2.81851,-2.21715 1.18011,-0.79676 3.718762,-1.92416 4.332752,-1.92416 0.0661,0 -0.60605,0.55089 -1.49364,1.2242 -0.887602,0.6733 -1.889832,1.55586 -2.227182,1.96123 -0.73258,0.88029 -1.36205,2.12295 -1.47434,2.91057 l -0.0815,0.5715 0.61844,-0.63593 c 0.34014,-0.34976 1.38997,-1.29813 2.33294,-2.10748 1.957722,-1.68029 3.188262,-2.94926 3.552722,-3.66365 0.15263,-0.29919 0.37654,-1.30941 0.56909,-2.5676 0.29961,-1.95783 0.54879,-3.01622 1.00413,-4.26509 0.10823,-0.29686 0.16529,-0.53975 0.12678,-0.53975 -0.11588,0 -0.82273,0.52679 -1.67633,1.2493 -0.96552,0.81724 -0.84789,0.54122 0.41703,-0.97857 1.42062,-1.70687 3.04586,-2.94644 5.83089,-4.44724 0.5488,-0.29574 1.02605,-0.50946 1.06057,-0.47494 0.10409,0.10409 -0.5537,0.86876 -1.26949,1.47578 -0.72403,0.614 -1.29726,1.24913 -1.20798,1.33841 0.17487,0.17487 5.68959,-3.58098 5.68959,-3.87494 0,-0.14629 -1.10975,-0.58963 -1.8795,-0.75085 -0.37015,-0.0775 -1.04166,-0.14095 -1.49225,-0.14095 -0.45059,0 -0.81925,-0.0453 -0.81925,-0.10066 0,-0.0554 0.40088,-0.5745 0.89084,-1.15363 5.083,-6.00813 6.99166,-11.492954 7.80579,-22.431219 0.31732,-4.263311 0.35283,-4.640573 0.44198,-4.695671 0.12728,-0.07867 0.96083,1.424271 1.38326,2.494121 0.82343,2.08543 1.03739,3.60398 1.03112,7.318285 l -0.004,2.37627 -0.28173,-0.33353 c -0.15496,-0.18344 -0.43889,-0.62635 -0.63095,-0.98425 -0.40359,-0.75204 -0.60329,-0.82793 -0.60329,-0.22927 0,0.79643 0.40122,1.8031 1.1987,3.00755 0.98627,1.4896 1.0873,1.78607 1.0873,3.190814 0,1.18492 -0.61989,6.41851 -0.93827,7.92169 -0.41361,1.95271 -1.33503,3.82678 -2.80852,5.71218 -0.65243,0.83481 -0.76705,0.93209 -0.79895,0.678 -0.0205,-0.16316 0.13642,-0.95333 0.34868,-1.75592 0.92831,-3.51014 1.18064,-4.75628 1.19557,-5.90426 0.0143,-1.0999 -0.005,-1.18392 -0.51955,-2.22808 -0.29393,-0.5968 -0.60044,-1.39292 -0.68113,-1.76918 -0.16248,-0.75759 -0.0852,-2.03952 0.19536,-3.24069 0.0978,-0.418534 0.16416,-0.774534 0.14758,-0.791124 -0.0513,-0.0513 -1.47407,3.269424 -1.88927,4.409574 -0.35791,0.98281 -0.39392,1.2217 -0.40206,2.667 -0.005,0.87313 0.0698,2.75151 0.16606,4.17419 0.19243,2.8442 0.13453,4.21976 -0.24593,5.84284 -0.47619,2.03144 -1.68432,3.73678 -3.71498,5.24386 -0.90491,0.67159 -2.96091,1.88411 -3.19478,1.88411 -0.0533,0 0.23887,-0.35898 0.6493,-0.79773 0.90259,-0.96487 1.61623,-2.27919 1.95344,-3.59767 0.33777,-1.32067 0.32516,-1.34584 -0.2416,-0.48204 -0.5579,0.85032 -1.18365,1.46425 -2.55595,2.50768 -2.04477,1.55475 -2.59615,2.25586 -3.117,3.96348 -0.53437,1.75193 -1.20478,2.50451 -4.63,5.19749 -2.207112,1.73527 -3.561572,3.15117 -4.146382,4.33444 -0.25601,0.51801 -0.43646,0.97084 -0.40101,1.00629 0.0354,0.0355 0.43018,-0.10578 0.87718,-0.31384 1.0604,-0.49361 2.07214,-0.75199 3.479712,-0.88866 1.73502,-0.16847 1.72762,0.0813 -0.0236,0.79634 -0.919722,0.37553 -1.014502,0.44968 -1.294132,1.0124 -0.16595,0.33396 -0.26895,0.63998 -0.22888,0.68005 0.14824,0.14823 1.193312,-0.48472 2.103792,-1.27416 1.30069,-1.12778 1.78816,-1.35007 2.94922,-1.34486 1.06698,0.005 2.4417,0.45955 3.96291,1.31094 1.18072,0.66083 2.9637,2.17475 3.57968,3.0395 0.2794,0.39224 0.54516,0.7159 0.59058,0.71925 0.19736,0.0146 0.39164,-1.35949 0.3293,-2.32897 -0.18431,-2.86593 -2.14567,-4.79507 -5.40796,-5.31914 l -0.97292,-0.15629 1.30175,-0.0362 c 0.71596,-0.0199 1.30175,-0.0773 1.30175,-0.12765 0,-0.13785 -1.36817,-0.63948 -2.14459,-0.7863 -1.00659,-0.19035 -1.6735,-0.15933 -2.56939,0.11951 -0.43979,0.13687 -0.82088,0.22761 -0.84686,0.20162 -0.0487,-0.0487 1.12969,-0.63292 3.32754,-1.64969 1.87822,-0.86891 2.69375,-1.64631 3.69712,-3.52425 l 0.40417,-0.75645 0.0847,0.8667 c 0.19182,1.96362 0.77401,2.90384 2.34534,3.7877 0.49672,0.2794 0.90228,0.53657 0.90125,0.5715 -10e-4,0.0349 -0.23517,0.225 -0.52029,0.42239 -0.50592,0.35023 -0.51699,0.37367 -0.45948,0.97226 0.1261,1.31236 1.12353,2.92018 3.86341,6.22773 3.26125,3.93693 3.93414,5.27417 3.23273,6.42442 -0.50082,0.8213 -1.54659,1.19928 -4.20133,1.51851 -2.10143,0.2527 -3.86381,0.68677 -4.95528,1.22046 -1.08392,0.53001 -2.24222,1.68831 -2.77223,2.77223 -0.44389,0.90781 -0.97249,2.83643 -1.10962,4.04852 -0.0859,0.75888 -0.0807,0.77746 0.21419,0.77677 1.02316,-0.002 1.84801,-0.57046 3.10524,-2.13851 0.46731,-0.58285 1.02791,-1.16843 1.24579,-1.30128 0.82686,-0.5042 1.85414,-0.19148 2.93685,0.89404 0.34885,0.34976 0.68165,0.63718 0.73956,0.6387 0.0579,0.002 0.42937,-0.27611 0.8255,-0.61696 0.39612,-0.34084 1.37744,-1.05399 2.18072,-1.58477 0.80327,-0.53079 1.65821,-1.13175 1.89985,-1.33548 0.38059,-0.32087 0.41659,-0.39783 0.26919,-0.57543 -0.37284,-0.44924 0.11339,-1.90654 0.79937,-2.39585 0.87379,-0.62329 2.92088,-0.13816 3.51269,0.83246 0.34485,0.56557 0.32047,1.35697 -0.0653,2.11817 -0.52737,1.0407 -1.12937,1.26069 -2.09784,0.76662 -0.27384,-0.1397 -0.57375,-0.254 -0.66647,-0.254 -0.0927,0 -0.45218,0.29023 -0.7988,0.64495 -0.34663,0.35473 -1.20131,1.14054 -1.8993,1.74625 -1.84339,1.59968 -1.90168,1.65588 -1.81142,1.74614 0.0453,0.0453 0.41398,0.15456 0.81938,0.2429 0.40541,0.0883 1.42291,0.33922 2.26111,0.55753 0.8382,0.2183 2.05923,0.46104 2.7134,0.53939 l 1.18941,0.14249 0.46159,-0.52335 c 0.84408,-0.957 1.87135,-1.1252 2.68593,-0.43977 0.59846,0.50357 0.91861,1.2417 0.9251,2.13286 0.006,0.8776 -0.21485,1.39831 -0.80511,1.89498 -0.53053,0.44641 -1.59439,0.46518 -2.34432,0.0413 -0.57516,-0.32504 -0.69199,-0.67678 -0.38195,-1.14996 0.1301,-0.19854 0.158,-0.34244 0.0762,-0.393 -0.071,-0.0439 -0.73747,-0.13321 -1.4811,-0.19854 -0.74363,-0.0653 -2.40948,-0.27215 -3.7019,-0.45959 -2.81496,-0.40824 -2.90363,-0.39265 -3.21525,0.56526 -0.15435,0.47449 -0.17705,0.68825 -0.076,0.71612 0.0792,0.0219 0.60121,0.16482 1.16001,0.31772 2.04822,0.56039 4.81149,2.12543 5.71005,3.23404 0.23035,0.2842 0.53758,0.75257 0.68273,1.04082 0.37357,0.74188 0.79689,0.84876 1.96177,0.49531 1.12236,-0.34055 1.6467,0.14815 1.6467,1.53477 0,0.69863 -0.0704,0.97372 -0.42863,1.67621 -0.67959,1.3325 -1.58414,1.77275 -2.82789,1.37641 -0.3568,-0.1137 -0.92019,-0.44036 -1.25198,-0.72589 -0.67871,-0.58411 -0.76426,-0.97205 -0.40431,-1.83351 0.2592,-0.62036 0.14686,-1.27775 -0.34534,-2.02084 -0.67839,-1.02418 -1.97328,-1.77165 -4.7431,-2.73795 -0.5588,-0.19496 -1.12736,-0.40017 -1.26346,-0.45605 -0.22553,-0.0926 -0.22121,-0.0647 0.0487,0.31434 0.47516,0.6673 0.75217,1.78234 0.84522,3.40227 0.0474,0.82435 0.13404,1.59219 0.19263,1.7063 0.0586,0.11411 0.32042,0.2476 0.58184,0.29665 2.00957,0.37699 2.56021,2.38888 1.06205,3.88047 -0.87053,0.86673 -1.78812,1.08052 -2.75437,0.64176 z M 91.296348,110.28253 c 0.45627,-0.64078 1.25012,-2.33464 1.62341,-3.46393 0.32756,-0.99093 0.35738,-1.24101 0.3634,-3.048 0.004,-1.15535 0.059,-2.00829 0.13356,-2.06483 0.0699,-0.053 0.61278,-0.24572 1.2065,-0.4283 2.8672,-0.88172 4.89108,-2.266004 5.692212,-3.893314 0.42304,-0.85932 0.85023,-2.4519 0.99068,-3.69327 l 0.0859,-0.759275 -0.87527,0.710795 c -0.48139,0.39093 -0.886772,0.69928 -0.900832,0.68521 -0.0141,-0.0141 0.1665,-0.53833 0.401262,-1.16504 0.904,-2.413415 1.09955,-4.474185 0.77092,-8.124485 -0.11948,-1.327152 -0.25943,-2.584452 -0.311,-2.794002 -0.0888,-0.360651 -0.10447,-0.340302 -0.29421,0.381 l -0.200452,0.762 -0.022,-0.889 c -0.0267,-1.078141 -0.18766,-2.104275 -0.28885,-1.8415 -0.0403,0.104775 -0.10767,0.387313 -0.1496,0.627864 -0.0419,0.24055 -0.52875,1.38355 -1.08182,2.539999 -1.00914,2.110089 -1.40392,3.268959 -1.40392,4.121219 0,0.52329 -0.0163,0.51792 0.81103,0.26692 0.63634,-0.19305 2.297862,-0.29844 2.441442,-0.15486 0.0868,0.0868 -0.17296,0.43449 -1.918932,2.56836 -1.38212,1.6892 -2.0523,2.684205 -2.43587,3.616465 -0.45736,1.1116 -0.45925,1.10896 0.75308,1.04668 0.57626,-0.0296 1.23922,-0.004 1.47324,0.0577 l 0.4255,0.1115 -0.95737,0.78576 c -0.52656,0.43217 -1.62196,1.57376 -2.43422,2.53685 -0.81227,0.9631 -1.53019,1.770144 -1.59537,1.793424 -0.0707,0.0252 -0.11853,-0.928864 -0.11853,-2.363914 0,-1.32344 -0.058,-2.71209 -0.12889,-3.0859 -0.31894,-1.68171 -0.99242,-2.304285 -2.22061,-2.052715 -0.34925,0.07151 -0.65132,0.115205 -0.67126,0.097 -0.0199,-0.0182 0.22851,-0.426295 0.55211,-0.906945 1.82874,-2.71624 2.71044,-5.49545 2.81701,-8.879533 0.12107,-3.844402 -0.67227,-6.739582 -2.6499,-9.670375 -0.84452,-1.251571 -0.97992,-1.274172 -0.238,-0.03973 1.09828,1.827363 1.71326,3.929509 1.8656,6.377035 0.35563,5.713683 -2.99402,11.615403 -7.52631,13.260538 -5.52624,2.00592 -13.65252,-0.761375 -13.64181,-4.645525 0.001,-0.38793 0.0565,-0.79104 0.12313,-0.89582 0.1488,-0.23393 0.0842,-0.27053 2.49342,1.41229 2.06951,1.44552 3.11842,1.97518 4.29893,2.17079 1.04807,0.17367 2.57179,0.002 4.19508,-0.47219 4.19889,-1.227 5.96839,-2.76036 6.60729,-5.72551 0.18128,-0.841349 0.49759,-6.134337 0.37397,-6.257955 -0.0329,-0.03287 -0.0598,0.06647 -0.0598,0.220759 0,0.645187 -0.41799,2.291992 -0.7633,3.007296 -0.20418,0.422941 -0.62988,1.023016 -0.94601,1.3335 -0.31613,0.310484 -0.57521,0.629336 -0.57573,0.70856 -5.1e-4,0.07922 -0.23631,0.61426 -0.52396,1.18898 -0.98711,1.97219 -2.5575,3.17434 -5.0015,3.8287 -1.44057,0.3857 -4.62747,0.38872 -6.05207,0.006 -2.28534,-0.61439 -3.53941,-1.74686 -4.17532,-3.77045 -0.10335,-0.32889 -0.19065,-1.851413 -0.247587,-4.31801 -0.0983,-4.256691 -0.17714,-4.708297 -0.98779,-5.655364 -0.55748,-0.651284 -1.18941,-0.972366 -2.27855,-1.157728 -1.73699,-0.295618 -3.24833,0.121675 -3.74708,1.034593 -0.36729,0.672295 -0.27547,1.991686 0.20721,2.977582 0.6865,1.402231 2.12018,2.48319 3.03171,2.285841 0.93193,-0.201767 1.58682,-1.071019 1.41588,-1.879329 -0.13357,-0.631576 -0.58325,-1.34272 -1.01955,-1.612369 -0.65333,-0.403778 -0.6921,-0.284894 -0.10014,0.307064 0.41587,0.415864 0.55479,0.653142 0.55479,0.947553 0,0.746654 -0.92396,1.213474 -1.81786,0.918458 -0.56244,-0.185621 -0.80476,-0.461776 -1.10993,-1.264911 -0.49695,-1.307868 -0.20586,-2.49787 0.70399,-2.878032 0.5996,-0.250527 1.07312,-0.229683 1.91195,0.08416 0.85939,0.321541 1.47302,0.836183 1.93595,1.623649 0.31252,0.531596 0.3444,0.703404 0.3444,1.855832 0,1.227877 -0.0174,1.306285 -0.52563,2.364014 -0.67995,1.415212 -1.14298,1.795851 -2.27202,1.867743 -1.5247,0.09709 -2.93401,-0.708836 -3.54874,-2.029367 l -0.27541,-0.591608 -0.5389,0.361928 c -0.29639,0.199061 -0.80673,0.460011 -1.1341,0.579892 -2.02481,0.741489 -2.5503,0.973711 -2.94047,1.299441 -0.40489,0.338014 -0.4334,0.410173 -0.40126,1.015624 0.0301,0.566564 -0.01,0.692811 -0.3043,0.965834 -0.64903,0.6015 -2.05469,0.58821 -2.62641,-0.0248 -0.75958,-0.814506 -0.83476,-1.669508 -0.20941,-2.381741 0.78337,-0.892201 1.65194,-1.095345 2.24675,-0.525477 l 0.35161,0.336864 0.50114,-0.366139 c 0.27564,-0.201376 1.10123,-0.695746 1.83465,-1.0986 0.73343,-0.402855 1.55403,-0.905006 1.82357,-1.115891 0.45369,-0.354959 0.48508,-0.420681 0.42277,-0.885185 -0.037,-0.275967 -0.1184,-0.552862 -0.18086,-0.615322 -0.17163,-0.171623 -1.70599,-0.461278 -3.27198,-0.617675 -0.76835,-0.07674 -1.79033,-0.22093 -2.27107,-0.320434 -0.83776,-0.1734 -0.88967,-0.169801 -1.24985,0.08667 -1.2595,0.896846 -2.9419,0.01865 -2.94114,-1.535241 5.1e-4,-1.037044 0.75479,-1.747158 1.99138,-1.874787 1.08068,-0.111536 1.86718,0.437861 1.86718,1.304293 v 0.397982 l 1.0193,0.08501 c 0.56061,0.04675 1.66075,0.197253 2.44475,0.334445 1.94441,0.340252 2.12395,0.334163 2.12395,-0.07202 0,-0.178249 0.12859,-0.554527 0.28575,-0.836173 l 0.28575,-0.512084 -0.3175,-0.210466 c -0.76991,-0.510363 -1.64363,-1.487932 -2.3471,-2.626088 -0.92193,-1.49158 -1.42244,-2.091918 -2.00616,-2.406275 -0.43922,-0.236532 -0.4461,-0.236217 -0.79253,0.03629 -0.86355,0.679272 -1.93208,0.01887 -2.15203,-1.330059 -0.17416,-1.068153 0.333,-1.961278 1.35649,-2.388815 1.49418,-0.624153 2.94077,0.299424 2.70011,1.723883 -0.0722,0.427145 -0.0515,0.49188 0.15719,0.49188 0.35026,0 1.30216,0.64065 1.80675,1.215983 0.24047,0.274184 0.86215,1.155741 1.3815,1.959016 1.03874,1.606588 1.85329,2.54 2.21657,2.54 0.70705,0 1.03834,-0.71016 0.85546,-1.833801 -0.0604,-0.370971 -0.35041,-1.523772 -0.64453,-2.561782 -0.29412,-1.03801 -0.56973,-2.17317 -0.61249,-2.522577 l -0.0777,-0.635289 -0.635,-0.09029 c -0.45541,-0.06476 -0.71581,-0.183922 -0.92075,-0.421357 -0.5698,-0.660162 -0.23975,-1.98359 0.66723,-2.675373 0.36948,-0.281813 0.54096,-0.330481 0.98542,-0.279663 0.74842,0.08557 1.76905,0.602827 1.99323,1.010171 0.1741,0.316352 0.16065,0.396587 -0.18936,1.129832 -0.33586,0.703594 -0.37386,0.904883 -0.34996,1.85376 0.0895,3.554525 1.53739,6.496075 3.31484,6.734482 l 0.49971,0.06702 0.45597,-0.911428 c 0.25078,-0.501287 0.66435,-1.579404 0.91904,-2.395817 0.254687,-0.816413 0.576207,-1.706452 0.714467,-1.977865 0.26544,-0.521038 0.18666,-0.706618 -0.30187,-0.711078 -0.270907,-0.0025 -0.739467,-0.590911 -0.739467,-0.928663 0,-0.483532 0.622167,-1.347572 1.172517,-1.628338 1.26033,-0.642973 3.14548,0.274922 3.14548,1.53156 0,0.384859 -0.43792,1.184416 -0.75297,1.374781 -0.14635,0.08843 -0.39858,0.127532 -0.56051,0.08689 -0.2799,-0.07025 -0.32101,0.0126 -0.83398,1.680716 -0.52209,1.697774 -1.05262,3.461806 -1.45186,4.827495 l -0.192907,0.659889 0.551947,0.323466 c 0.73198,0.428968 1.39499,1.22335 1.74702,2.09318 0.27673,0.683798 0.28685,0.850693 0.28927,4.772577 0.002,3.531098 0.031,4.135878 0.21958,4.612138 0.34564,0.87282 0.68585,1.25279 1.46373,1.63477 0.65862,0.32342 0.85292,0.35683 2.06068,0.35436 1.122,-0.002 1.50472,-0.0599 2.413,-0.36325 3.321,-1.10912 6.28773,-3.71804 7.57144,-6.658255 0.47217,-1.081447 0.51218,-1.030543 0.25402,0.323147 -0.20039,1.050739 -0.0833,1.099118 0.28406,0.117341 0.37426,-1.000291 0.57409,-2.618945 0.47786,-3.870769 -0.10065,-1.309494 -0.3403,-2.816982 -0.44783,-2.816982 -0.043,0 -0.18687,0.385763 -0.31966,0.85725 -1.86356,6.616636 -3.48036,9.030998 -7.34714,10.971438 -0.69153,0.34703 -1.31519,0.61166 -1.38593,0.58808 -0.0707,-0.0236 0.0855,-0.29811 0.3472,-0.61007 0.48009,-0.5723 0.89036,-1.36466 0.76929,-1.48573 -0.0361,-0.0361 -0.23855,0.08 -0.44996,0.25786 -1.06442,0.89565 -3.09324,1.1306 -4.33419,0.50192 -1.20936,-0.61267 -1.53323,-1.48771 -0.9835,-2.657213 l 0.27766,-0.590697 0.13509,0.559334 c 0.18425,0.762869 0.5574,0.932366 2.04009,0.926656 2.05278,-0.008 3.56135,-0.718183 5.334,-2.511425 2.34561,-2.372856 3.6195,-5.426865 3.6195,-8.677339 0,-1.517547 -0.41671,-3.43765 -1.01364,-4.670563 -0.54591,-1.127553 -1.6796,-2.580709 -2.35427,-3.017694 -0.57052,-0.369528 -0.55873,-0.507483 0.0342,-0.39989 0.9929,0.180182 1.85953,0.824319 2.97481,2.211084 l 0.45962,0.5715 -0.31064,-0.930444 c -0.20658,-0.618748 -0.2979,-1.143508 -0.27259,-1.566466 l 0.038,-0.636025 0.6985,1.16785 c 0.93828,1.568742 1.60762,2.155245 3.04745,2.670286 1.74389,0.623804 2.02404,0.981682 3.79752,4.851048 0.28013,0.611188 0.5671,1.11125 0.63771,1.11125 0.0706,0 0.19226,-0.119356 0.27033,-0.265235 0.17085,-0.319228 1.0067,-1.258714 1.12002,-1.258889 0.0443,-6.8e-5 0.0612,0.560119 0.0376,1.244859 -0.0262,0.760828 0.0658,2.156099 0.23659,3.587874 0.19468,1.632181 0.25724,2.689617 0.20623,3.485891 -0.068,1.06157 -0.0598,1.118232 0.11588,0.79534 0.2988,-0.54932 0.89813,-2.488067 1.07101,-3.46455 0.0893,-0.504228 0.13674,-1.505817 0.10933,-2.306633 -0.0267,-0.778484 -0.004,-1.388166 0.0496,-1.354849 0.0539,0.03332 0.42072,0.471226 0.81515,0.973134 1.00135,1.274221 1.03954,1.292128 0.45654,0.214058 -1.07869,-1.994676 -2.79797,-4.7625 -2.95831,-4.7625 -0.092,0 -0.38112,0.39516 -0.64254,0.878133 -0.67856,1.253692 -1.12407,1.403624 -1.12914,0.379999 -0.005,-0.979971 -0.79688,-2.617894 -2.23579,-4.623631 -0.52616,-0.733425 -1.16143,-1.668863 -1.41171,-2.07875 -0.51983,-0.851332 -0.60437,-0.805395 -0.70621,0.383776 -0.11344,1.324652 -0.26626,1.347705 -0.57747,0.08711 -0.38949,-1.577724 -0.82189,-2.383194 -1.81478,-3.380559 -0.86893,-0.872857 -1.64891,-1.323213 -3.13156,-1.808164 -0.36598,-0.119707 -0.66542,-0.268221 -0.66542,-0.330031 0,-0.169293 1.32013,-0.134199 2.56729,0.06825 0.69436,0.112715 1.34883,0.3114 1.75634,0.533195 0.78186,0.425543 1.79719,1.495332 2.74424,2.891424 l 0.69887,1.030253 -0.0877,-0.6985 -0.0877,-0.6985 0.52157,0.776894 c 0.68995,1.027689 2.18531,2.433041 3.28236,3.084787 1.09257,0.64908 2.99832,1.435603 4.52929,1.869275 5.426492,1.537152 7.059672,2.258842 8.319202,3.676186 0.98212,1.10517 1.41022,2.42158 1.41022,4.336455 0,1.112673 -0.20621,2.683203 -0.37661,2.868243 -0.0516,0.05601 -0.25187,-0.344037 -0.4451,-0.889 -0.40601,-1.145038 -1.1997,-2.769578 -1.75607,-3.594341 -0.43473,-0.644435 -2.00279,-2.446761 -2.07014,-2.379411 -0.0241,0.02413 0.18215,0.497937 0.45842,1.052895 0.56096,1.126842 0.76096,1.973946 0.75954,3.2171 -0.002,1.361284 -0.21796,2.335991 -1.15158,5.186842 -1.19867,3.660198 -1.4199,4.629048 -1.42888,6.257578 -0.008,1.4647 0.22162,2.58885 0.78803,3.856545 l 0.33289,0.74503 v -3.221535 c 0,-2.91671 0.0268,-3.32676 0.28354,-4.33352 0.43101,-1.69032 0.96777,-2.643394 1.8477,-3.280817 0.8898,-0.644565 0.90599,-0.616992 1.10685,1.884547 0.11645,1.45023 0.0159,3.96843 -0.20166,5.04825 l -0.0767,0.381 0.28125,-0.27237 c 0.1547,-0.14981 0.63794,-0.97186 1.07389,-1.82679 0.43595,-0.85493 0.82294,-1.50388 0.85998,-1.44213 0.037,0.0618 0.17204,0.56949 0.29998,1.12829 0.35185,1.53667 0.32199,4.21436 -0.0635,5.700405 -0.47562,1.83321 -0.7568,2.5933 -1.57926,4.2691 -0.42851,0.87313 -0.80321,1.64222 -0.83266,1.709089 -0.0294,0.0669 0.32665,-0.180929 0.79132,-0.550679 0.46468,-0.36975 0.84487,-0.60793 0.84487,-0.52929 0,0.21618 -0.48607,1.127609 -1.01907,1.910879 -0.98309,1.4447 -2.18812,2.59798 -4.18793,4.00809 -0.831,0.58596 -4.989132,3.11011 -5.039842,3.05939 -0.0194,-0.0194 0.14475,-0.46026 0.36482,-0.97964 0.31261,-0.73775 0.41215,-1.1805 0.45501,-2.02384 l 0.0549,-1.0795 -0.65117,1.06162 c -1.69075,2.75646 -3.152,4.08282 -5.68422,5.15954 -0.54613,0.23222 -1.13012,0.46279 -1.29775,0.51238 l -0.3048,0.0902 z M 106.61724,71.315083 c -0.23673,-0.189661 -0.23517,-0.192005 0.0392,-0.05903 0.15716,0.07616 0.28575,0.165038 0.28575,0.197505 0,0.09718 -0.0659,0.06912 -0.32498,-0.138474 z m 5.72248,0.08731 -0.381,-0.09611 0.4445,-0.100959 c 1.47701,-0.335474 3.33055,-2.188524 4.49807,-4.496875 0.94807,-1.874453 0.36203,-3.440402 -1.8826,-5.030537 -1.00594,-0.712626 -2.23447,-1.398077 -2.23447,-1.246709 0,0.06537 0.39916,0.628035 0.88702,1.250373 0.48786,0.622338 0.88791,1.174385 0.889,1.226773 0.004,0.206108 -0.48478,0.07718 -1.03792,-0.273609 -1.12411,-0.712889 -2.84147,-3.103003 -4.16073,-5.790641 -0.8686,-1.769548 -1.53037,-3.582965 -1.53037,-4.193623 0,-0.620776 -0.18354,-0.641771 -0.72579,-0.08302 l -0.48071,0.495338 -0.007,-0.903348 c -0.006,-0.746261 -0.12181,-1.236924 -0.66675,-2.821626 -0.36281,-1.055053 -0.65965,-2.12223 -0.65965,-2.371506 0,-0.558897 0.47456,-1.165437 1.05191,-1.344449 2.21158,-0.685731 3.85313,0.257129 3.07328,1.7652 -0.3087,0.596966 -0.98563,0.628438 -1.45119,0.06747 -0.13449,-0.162053 -0.1272,-0.20717 0.0422,-0.260934 0.69674,-0.22114 0.67033,-0.194373 0.3953,-0.400634 -0.30948,-0.232098 -1.00782,-0.149603 -1.34925,0.159386 -0.16191,0.146524 -0.23825,0.388813 -0.23825,0.756139 0,0.447673 0.0671,0.597009 0.39074,0.869318 0.53975,0.454163 1.58153,0.460276 2.47603,0.01453 1.0385,-0.517504 1.32792,-1.349742 0.8174,-2.350441 -0.49502,-0.970314 -1.54483,-1.49267 -3.23967,-1.611959 -2.7087,-0.190647 -3.25608,0.81481 -2.27086,4.171256 0.66157,2.253865 0.66693,2.31003 0.14948,1.565906 -0.72169,-1.037821 -1.40672,-1.309024 -3.65712,-1.447836 -2.509772,-0.154812 -3.324012,-0.493533 -4.724622,-1.965428 -0.66062,-0.694245 -0.76344,-0.758436 -0.98909,-0.61751 -0.31039,0.193841 -0.94719,0.203724 -1.29043,0.02003 -0.41001,-0.219431 -0.73693,-1.098352 -0.74007,-1.989638 -0.003,-0.728566 0.0332,-0.833161 0.43707,-1.280258 0.68205,-0.754943 1.91005,-1.00651 2.8156,-0.576802 0.86436,0.41017 1.04879,1.181481 0.48214,2.016476 -0.37827,0.557411 -0.41828,0.507186 0.92758,1.164217 0.86764,0.423567 0.97702,0.445778 1.968502,0.399758 2.63756,-0.12242 3.1252,-1.347055 1.78632,-4.486007 -0.35752,-0.8382 -0.80262,-2.064869 -0.9891,-2.725932 -0.44415,-1.574479 -0.49311,-1.655568 -0.99973,-1.655568 -0.723292,0 -1.351172,-0.94722 -1.351172,-2.038393 0,-0.569697 0.0537,-0.707686 0.41641,-1.070411 0.889722,-0.889724 2.821732,-0.883595 3.717112,0.01179 0.37702,0.377026 0.43848,0.523119 0.43848,1.042393 0,0.356931 -0.10542,0.809667 -0.25776,1.107016 -0.23907,0.466609 -0.24381,0.535347 -0.0654,0.947604 0.10577,0.244475 0.45094,1.339016 0.76704,2.432314 0.31611,1.093297 0.65777,2.186535 0.75925,2.429418 0.23664,0.566365 0.79781,1.234267 1.03701,1.234267 0.9314,0 2.28565,-2.078925 2.97239,-4.562924 0.25715,-0.930162 0.5927,-2.821565 0.65339,-3.683045 0.038,-0.539965 0.0231,-0.566796 -0.37385,-0.670569 -0.27789,-0.07265 -0.52567,-0.277645 -0.75565,-0.62516 -0.62768,-0.948499 -0.37055,-1.777839 0.73464,-2.369502 0.80305,-0.429908 1.92726,-0.358636 2.67448,0.169553 1.03578,0.732166 1.0702,1.904114 0.0853,2.904033 -0.60595,0.615179 -0.68763,0.801133 -1.00904,2.297115 -0.31259,1.454935 -0.46982,4.834967 -0.24449,5.255998 0.30202,0.564334 1.04335,0.148863 3.37326,-1.890499 1.12716,-0.986598 1.97927,-1.652435 2.72011,-2.125472 0.0292,-0.01865 -0.0215,-0.173265 -0.11263,-0.343588 -0.26362,-0.492571 -0.10087,-1.414984 0.33076,-1.874607 0.43235,-0.460404 1.23623,-0.85666 1.74577,-0.860543 0.50096,-0.0038 1.14974,0.423218 1.50084,0.987862 0.24667,0.396699 0.29215,0.642427 0.29215,1.578343 0,1.0826 -0.01,1.1182 -0.41526,1.524 -0.39273,0.392963 -0.46522,0.415505 -1.33619,0.415505 -0.89926,0 -0.94178,0.01476 -1.80724,0.627157 -0.48747,0.344937 -1.64711,1.388831 -2.57698,2.319765 -1.43208,1.433726 -1.67766,1.736005 -1.60562,1.976343 0.16695,0.556979 0.33346,0.617095 1.69589,0.612265 1.91785,-0.0068 3.99781,-0.541506 4.7119,-1.211318 0.89218,-0.836864 1.73674,-1.037015 2.34776,-0.556389 0.48449,0.381101 0.70024,0.97246 0.70024,1.919337 0,0.713349 -0.0401,0.844226 -0.34935,1.140517 -0.6369,0.610188 -1.95664,0.576409 -2.66395,-0.06819 -0.25789,-0.23502 -0.39366,-0.250967 -1.54139,-0.181045 -1.99586,0.121594 -3.43782,0.704455 -4.53464,1.832975 -0.58133,0.598141 -1.7078,2.727204 -2.16825,4.098078 -0.36209,1.078028 -0.32694,2.797997 0.074,3.619499 0.37207,0.762414 1.40253,1.812854 3.11911,3.179584 0.6985,0.55614 1.76754,1.488424 2.37564,2.071742 1.07617,1.032302 1.10785,1.051802 1.18825,0.731456 0.0454,-0.181016 0.0622,-0.77376 0.0374,-1.317208 -0.0587,-1.28064 -0.49871,-2.19129 -1.87143,-3.87265 -0.5564,-0.681494 -1.12919,-1.429293 -1.27287,-1.661776 -0.35726,-0.578061 -0.57468,-1.596266 -0.46532,-2.179183 l 0.0903,-0.481236 0.42587,0.979666 c 0.61476,1.414142 1.23336,2.243901 2.64811,3.552006 1.78449,1.649973 1.88377,1.87616 1.98497,4.522099 0.0877,2.294055 0.17825,2.618731 0.89911,3.225298 0.21868,0.184004 0.73499,0.433699 1.14737,0.554877 0.41237,0.121178 0.73254,0.272293 0.71147,0.335811 -0.0211,0.06352 -0.6694,0.320693 -1.44074,0.5715 -0.78406,0.254942 -1.61295,0.617352 -1.87986,0.821915 -0.61579,0.471946 -1.1344,1.297508 -1.47675,2.350811 -0.63596,1.956685 -1.23186,2.430482 -3.14402,2.499805 -0.60524,0.02194 -1.27189,-0.0034 -1.48144,-0.05622 z m -3.6995,-0.403084 c -1.74548,-0.308736 -4.73555,-1.68332 -6.19741,-2.84905 -1.24154,-0.990039 -1.30747,-0.948362 -0.74952,0.473773 0.43057,1.097454 0.30199,1.281236 -0.47914,0.684806 -1.07779,-0.822953 -1.622622,-2.023087 -1.466852,-3.231113 0.0712,-0.552 0.0624,-0.578386 -0.11455,-0.345575 -0.10539,0.138631 -0.31193,0.582037 -0.45899,0.985346 -0.31911,0.87519 -0.26478,0.900879 -1.57482,-0.744587 -0.66324,-0.833064 -1.08085,-1.23504 -1.48764,-1.431963 -0.58433,-0.282872 -2.25541,-0.519367 -2.24322,-0.317465 0.004,0.06249 0.40147,0.427939 0.88376,0.812114 0.93582,0.745429 1.39538,1.448717 1.39538,2.135385 v 0.404192 l -0.60325,-0.42838 c -0.33178,-0.235609 -1.12933,-0.751747 -1.77233,-1.146974 -2.24621,-1.380669 -2.33844,-2.046428 -0.84289,-6.084416 1.26574,-3.41749 1.35554,-3.777959 1.36686,-5.486544 0.01,-1.469661 -0.005,-1.556756 -0.39555,-2.3495 -0.22311,-0.452795 -0.64323,-1.051862 -0.93358,-1.331262 l -0.52792,-0.508 0.0902,0.8255 c 0.0496,0.454025 0.1696,1.2827 0.26666,1.841499 0.24407,1.40523 0.21632,3.256764 -0.0619,4.1275 l -0.22316,0.6985 -0.0931,-0.635 c -0.0512,-0.34925 -0.18166,-0.949283 -0.28984,-1.333407 l -0.19669,-0.698407 -0.24347,0.474576 c -0.31935,0.622487 -0.58031,1.683947 -0.74191,3.017738 -0.17222,1.421522 -0.43296,2.218119 -0.96648,2.95275 -0.63042,0.868072 -0.74231,0.798194 -0.64948,-0.405615 0.0936,-1.214295 0.40121,-2.469452 1.24657,-5.087135 0.94326,-2.920826 1.14942,-3.902174 1.14659,-5.458053 -0.002,-0.873517 -0.0713,-1.541399 -0.20086,-1.922871 -0.6013,-1.771061 -1.88458,-3.128076 -4.333,-4.58194 -1.54124,-0.915188 -3.23345,-2.243985 -3.23345,-2.539048 0,-0.19487 0.55144,-0.02699 1.8415,0.560634 3.7809,1.722203 7.78339,4.976951 9.33529,7.591279 0.8209,1.382887 0.97496,2.053717 1.05628,4.599353 0.10354,3.241347 0.49249,4.585573 1.63031,5.634315 0.68144,0.62809 1.49908,1.032547 2.500212,1.236759 0.42159,0.086 0.79755,0.187383 0.83547,0.225303 0.12909,0.129088 -2.370722,0.665602 -3.101272,0.665602 -0.92314,0 -1.3895,-0.31097 -1.82918,-1.219697 l -0.32134,-0.664136 -0.005,0.797829 c -0.005,0.874273 0.19584,1.485585 0.60934,1.853941 0.39757,0.354165 1.88518,0.224203 3.513522,-0.306951 1.05473,-0.344046 1.47817,-0.416432 2.49808,-0.427043 1.09995,-0.01144 1.26557,0.01748 1.5875,0.277222 0.71276,0.575088 1.71785,0.967965 2.61236,1.021137 0.47076,0.02798 0.82812,0.09587 0.79414,0.150861 -0.034,0.05499 -0.35562,0.170469 -0.71474,0.256621 -1.16157,0.278656 -0.37934,0.374513 1.03776,0.127172 0.7309,-0.127571 2.03922,-0.357128 2.90739,-0.510128 0.99128,-0.174696 1.77931,-0.248067 2.11831,-0.197231 1.41614,0.212363 1.61149,1.331054 0.36678,2.100329 -0.91372,0.564712 -3.70875,0.783799 -6.54008,0.512639 -0.66357,-0.06355 -1.97238,-0.156329 -2.90846,-0.206174 -1.37259,-0.07309 -1.68241,-0.059 -1.60095,0.07279 0.16205,0.262206 3.06499,1.591654 4.40442,2.017076 1.73514,0.551108 3.21897,0.729561 4.4001,0.529179 1.31026,-0.222287 2.52852,-0.862514 3.31029,-1.739633 0.74571,-0.836677 1.4116,-2.031496 1.4116,-2.532879 0,-0.332409 0.0153,-0.343431 0.20823,-0.150456 0.11465,0.114651 0.23616,0.498841 0.27037,0.854883 0.0527,0.548536 -0.002,0.776391 -0.35758,1.501733 -0.67731,1.379874 -3.1558,3.692695 -4.91486,4.586332 -0.65257,0.331516 -1.39886,0.418254 -2.27116,0.263963 z M 80.653218,63.939963 c -1.12245,-0.966908 -2.52369,-1.622461 -4.30706,-2.015004 -0.79727,-0.175488 -1.47727,-0.291371 -1.51112,-0.257518 -0.11624,0.11624 0.6647,1.109356 1.11062,1.412367 0.24538,0.166738 0.71916,0.393843 1.05285,0.504677 0.33369,0.110836 0.60671,0.234225 0.60671,0.2742 0,0.173742 -3.01746,-0.09238 -3.68911,-0.325359 -2.974957,-1.031944 -4.860507,-3.254055 -5.783837,-6.816236 -0.44813,-1.728895 -0.48273,-4.791095 -0.0759,-6.718431 0.14598,-0.691588 0.31458,-1.306585 0.37465,-1.366663 0.14085,-0.140846 1.21449,0.233235 2.50671,0.873393 1.230167,0.609419 1.736947,0.913239 4.190997,2.512534 3.2346,2.107978 4.96727,2.772379 7.239,2.775837 1.89112,0.0029 2.93032,-0.444864 3.24491,-1.398088 0.20651,-0.625726 0.0829,-2.192749 -0.24697,-3.13197 -0.92918,-2.6453 -3.89566,-7.260832 -6.3685,-9.908729 -0.50455,-0.540264 -0.89354,-1.006113 -0.86443,-1.035221 0.13123,-0.131233 2.03481,0.369834 2.83799,0.747024 1.60187,0.752276 1.99505,1.233536 3.11722,3.815508 0.4159,0.956953 0.92651,1.987466 1.13468,2.29003 0.43094,0.626352 1.48814,1.718277 1.66363,1.718277 0.21236,0 0.11609,-1.196147 -0.14208,-1.76516 -0.1394,-0.307263 -0.23501,-0.577115 -0.21245,-0.599673 0.10369,-0.103693 1.37524,0.884849 1.95715,1.521553 1.19422,1.306667 1.73119,2.631819 1.73119,4.27228 0,0.523875 -0.0934,1.269498 -0.20746,1.656941 -0.20687,0.702407 -1.1836,2.370172 -1.31257,2.241205 -0.0374,-0.03736 -0.11539,-0.450677 -0.17341,-0.918479 -0.058,-0.467802 -0.15695,-0.902014 -0.21985,-0.964913 -0.0678,-0.06782 -0.3089,0.416377 -0.59235,1.18969 -0.57007,1.555242 -0.92366,2.132872 -1.60994,2.630011 -0.52806,0.382527 -1.88925,0.769544 -2.70659,0.769544 -0.24402,0 -0.47537,0.05127 -0.51409,0.113933 -0.11186,0.18099 1.97397,0.437949 2.93125,0.361108 l 0.87057,-0.06988 -0.38095,0.311946 c -1.75522,1.437298 -4.07296,1.930171 -6.11432,1.300225 -1.71254,-0.528475 -3.20193,-1.432901 -6.27646,-3.811358 -2.04508,-1.582079 -3.421917,-2.446529 -3.605007,-2.263413 -0.0736,0.07363 -0.12723,0.598748 -0.11989,1.174556 0.015,1.176393 0.26722,1.969644 0.93474,2.939863 0.425907,0.619032 2.001047,2.22902 2.180777,2.22902 0.10938,0 0.26209,-0.524422 0.50847,-1.746242 0.17642,-0.874912 0.22104,-0.875782 0.53924,-0.01052 0.31468,0.855697 1.09724,1.67991 2.03184,2.140015 0.60418,0.297438 1.31824,0.483052 2.94606,0.765816 1.18173,0.205274 2.6058,0.519522 3.1646,0.698329 0.95415,0.305311 2.34674,1.102548 2.43852,1.396019 0.0233,0.07458 -0.46116,0.226902 -1.1145,0.350411 -0.6598,0.124732 -1.38739,0.354233 -1.69555,0.534826 -0.29688,0.173986 -0.56334,0.315548 -0.59213,0.31458 -0.0288,-10e-4 -0.42382,-0.321758 -0.87784,-0.712867 z m 0.72329,-9.940256 c -1.99929,-0.556156 -4.8776,-2.327633 -6.65799,-4.097707 -1.03486,-1.02887 -1.55618,-1.930731 -1.56252,-2.703094 l -0.004,-0.514815 -0.23957,0.28721 c -0.32383,0.388246 -0.54125,1.476244 -0.43567,2.180261 l 0.0864,0.575907 -0.43159,-0.326711 c -1.717927,-1.300481 -2.354307,-1.637167 -3.094497,-1.637167 -0.24672,0 -0.44858,-0.05651 -0.44858,-0.125583 0,-0.06907 0.11172,-0.540559 0.24826,-1.04775 0.13655,-0.507192 0.36863,-1.750842 0.51574,-2.763667 0.45581,-3.138146 0.97506,-4.285728 2.213287,-4.891535 0.65488,-0.320402 0.80633,-0.344928 1.75889,-0.284836 1.0092,0.06366 3.51882,0.77514 3.51882,0.997583 0,0.05085 -0.24289,0.132886 -0.53975,0.182293 -0.29686,0.04941 -0.85408,0.20793 -1.23825,0.352274 -0.63536,0.238721 -0.6698,0.270643 -0.381,0.353172 0.17462,0.0499 0.49722,0.09643 0.71687,0.10339 0.75304,0.02387 2.01011,0.502426 2.56307,0.975742 1.23469,1.056844 1.41276,2.212055 0.71292,4.624917 -0.0915,0.315543 -0.0896,0.315152 0.31835,-0.0635 0.53229,-0.494102 0.99717,-1.29128 1.28108,-2.196808 0.13284,-0.423695 0.25614,-0.645146 0.29714,-0.533692 0.60009,1.631169 0.80097,2.105791 1.22056,2.883817 0.2715,0.503425 0.78306,1.354306 1.13682,1.890847 0.35375,0.53654 0.64319,0.996185 0.64319,1.021433 0,0.02525 -0.32861,0.04632 -0.73025,0.04684 -0.40164,5.08e-4 -1.38748,0.170346 -2.19075,0.377402 -1.63776,0.422156 -2.771,0.487797 -3.22994,0.187091 -0.165,-0.108113 -0.43025,-0.493876 -0.58944,-0.85725 -0.25108,-0.573154 -0.2999,-0.955112 -0.36848,-2.88318 -0.0844,-2.372117 -0.16025,-2.679258 -0.81221,-3.288288 -0.31024,-0.289812 -1.60402,-0.817956 -1.71989,-0.702089 -0.0303,0.03034 0.0833,0.32623 0.25265,0.657524 0.34489,0.674922 0.38293,1.530058 0.18587,4.17921 -0.10386,1.396228 -0.10029,1.42668 0.23347,1.996199 0.44487,0.759109 1.18793,1.253176 2.63916,1.754781 l 1.18631,0.410038 2.38959,-0.02984 c 2.56611,-0.03204 3.26157,0.06822 3.57476,0.515362 0.40995,0.585291 0.13328,1.912141 -0.48291,2.315881 -0.4909,0.321655 -1.54401,0.354188 -2.53566,0.07833 z"
       id="path854" />
  </g>
</svg>
