<?xml version="1.0" encoding="UTF-8" standalone="no"?>
<!-- Created with Inkscape (http://www.inkscape.org/) -->

<svg
   width="210mm"
   height="297mm"
   viewBox="0 0 210 297"
   version="1.1"
   id="svg962"
   inkscape:version="1.1 (c68e22c387, 2021-05-23)"
   sodipodi:docname="Geko2.svg"
   xmlns:inkscape="http://www.inkscape.org/namespaces/inkscape"
   xmlns:sodipodi="http://sodipodi.sourceforge.net/DTD/sodipodi-0.dtd"
   xmlns="http://www.w3.org/2000/svg"
   xmlns:svg="http://www.w3.org/2000/svg">
  <sodipodi:namedview
     id="namedview964"
     pagecolor="#ffffff"
     bordercolor="#666666"
     borderopacity="1.0"
     inkscape:pageshadow="2"
     inkscape:pageopacity="0.0"
     inkscape:pagecheckerboard="0"
     inkscape:document-units="mm"
     showgrid="false"
     inkscape:zoom="0.69397447"
     inkscape:cx="376.09453"
     inkscape:cy="561.25984"
     inkscape:window-width="1920"
     inkscape:window-height="1017"
     inkscape:window-x="-8"
     inkscape:window-y="-8"
     inkscape:window-maximized="1"
     inkscape:current-layer="layer1" />
  <defs
     id="defs959" />
  <g
     inkscape:label="Ebene 1"
     inkscape:groupmode="layer"
     id="layer1">
    <path
       style="fill:#000000;stroke-width:1"
       d="m 67.412219,181.99806 c -7.45395,-0.61577 -14.98905,-5.30265 -19.379724,-12.05429 -1.813043,-2.78796 -2.956097,-5.63385 -3.596187,-8.9535 -0.109551,-0.56816 -0.171215,-1.82861 -0.170862,-3.4925 6.09e-4,-2.866 0.190148,-4.09296 0.97917,-6.33854 1.516937,-4.31724 4.628859,-8.41584 8.20434,-10.80563 3.070363,-2.05218 6.376468,-2.86086 9.032323,-2.20933 2.56273,0.62869 5.201195,2.60926 6.156649,4.6215 0.358083,0.75414 0.391636,0.93528 0.388154,2.0955 -0.0033,1.08393 -0.04766,1.35331 -0.303081,1.83866 -0.533857,1.01442 -0.886315,1.46451 -1.533054,1.95772 -1.973103,1.5047 -4.870231,1.18544 -6.537448,-0.72044 -0.312545,-0.35729 -0.541877,-0.676 -0.509624,-0.70826 0.03225,-0.0323 0.390224,0.25764 0.795492,0.6442 1.154121,1.10085 1.635717,1.30535 3.075026,1.30577 1.002389,2.5e-4 1.306673,-0.049 1.798618,-0.29134 2.434493,-1.19929 3.118609,-3.72244 1.612762,-5.94818 -0.631208,-0.93297 -1.775202,-1.94377 -2.714222,-2.39822 -4.254353,-2.05892 -10.82924,1.29341 -14.225552,7.25316 -0.312733,0.54878 -0.568028,0.88486 -0.567321,0.74685 7.12e-4,-0.13801 -0.125105,-0.61078 -0.279583,-1.05061 l -0.28087,-0.7997 -0.704666,0.0829 c -0.867022,0.10199 -1.243677,0.32822 -1.477274,0.8873 -0.289472,0.6928 -0.256091,0.7361 0.506802,0.65736 l 0.686693,-0.0709 0.302957,0.59285 c 0.166626,0.32607 0.429328,0.64936 0.583782,0.71843 0.154455,0.0691 0.257683,0.18336 0.229396,0.254 -0.02829,0.0706 -0.240283,0.69323 -0.471101,1.38355 -0.230818,0.69032 -0.44457,1.1761 -0.475004,1.0795 -0.0547,-0.1736 -1.294807,-1.76312 -1.375552,-1.76312 -0.02298,0 -0.255045,0.1143 -0.515695,0.254 -0.260649,0.1397 -0.542044,0.254 -0.625322,0.254 -0.310105,0 -0.677848,0.65869 -0.677848,1.21413 v 0.54488 l 0.671046,-0.19089 0.671046,-0.1909 0.675216,0.45439 c 0.371369,0.24991 0.76081,0.45439 0.865424,0.45439 0.158507,0 0.174813,0.13228 0.09784,0.79375 -0.186349,1.60134 -0.09889,4.52751 0.176695,5.91209 0.523381,2.6295 1.855073,5.91829 3.103377,7.66421 2.711323,3.79214 8.010224,6.63639 13.675027,7.34023 4.884388,0.60688 10.47368,-0.62985 14.732011,-3.25973 2.417201,-1.49283 5.23551,-3.9404 6.854249,-5.95261 3.165824,-3.93535 5.864745,-9.85442 7.435942,-16.30794 1.305452,-5.36201 2.059435,-11.6591 1.595597,-13.32604 -0.331502,-1.19135 -2.284663,-2.65398 -4.080819,-3.05594 -1.031321,-0.2308 -2.856565,-0.12673 -3.475949,0.19819 -1.497178,0.78541 -1.423637,1.90124 0.36353,5.51579 1.190635,2.40806 1.395853,2.96849 1.399773,3.82266 0.0027,0.58073 -0.0599,0.79398 -0.341151,1.16271 -1.037647,1.36043 -2.345827,1.33069 -4.214636,-0.0958 -0.911408,-0.6957 -1.562905,-0.99241 -2.316206,-1.05488 -1.916665,-0.15895 -3.406005,1.22859 -3.174153,2.95718 0.129116,0.96263 1.056337,1.35589 2.066576,0.8765 0.70213,-0.33318 0.763967,-1.12589 0.111514,-1.42952 -0.880395,-0.4097 -1.038736,-0.82861 -0.512219,-1.35512 0.826807,-0.82681 2.736272,0.0787 2.736272,1.29766 0,0.65519 -0.39457,1.10502 -1.496063,1.70559 -0.53924,0.29401 -1.370772,0.84615 -1.847847,1.22697 l -0.867409,0.69241 -0.619772,-0.643 c -1.697834,-1.76147 -2.442462,-3.84471 -1.769047,-4.94925 0.275627,-0.45209 0.661524,-0.6582 2.654107,-1.41757 1.346152,-0.51302 1.596818,-0.76454 0.761931,-0.76454 -0.511831,0 -0.528027,-0.0113 -0.32977,-0.23039 0.114672,-0.12671 0.652168,-0.47962 1.194432,-0.78423 1.792835,-1.00713 1.864187,-1.20335 1.067792,-2.93637 -1.261685,-2.74553 -1.598041,-5.24331 -0.895502,-6.65001 1.13871,-2.28004 5.588062,-3.61131 10.719648,-3.20737 l 1.651,0.12996 0.671309,-0.34075 c 0.369221,-0.18741 0.894294,-0.54219 1.166829,-0.78841 l 0.495519,-0.44767 0.184268,0.29337 c 0.372335,0.59279 0.496693,1.26683 0.437655,2.37217 -0.06483,1.21366 -0.472213,2.3333 -1.079973,2.96812 -0.183199,0.19136 -0.297339,0.38368 -0.253644,0.42738 0.04369,0.0437 0.630606,-0.0515 1.304247,-0.21159 0.947936,-0.22524 1.268167,-0.35721 1.41665,-0.58383 0.105518,-0.16104 0.496455,-1.17893 0.868749,-2.26197 0.779066,-2.26639 0.759796,-2.22641 1.073166,-2.22641 0.4059,0 0.76373,0.59875 0.76373,1.27794 0,0.96556 0.24894,2.49922 0.5012,3.08771 0.24436,0.57007 0.89734,1.21317 1.25479,1.23581 1.35085,0.0855 1.92988,-0.27905 4.84801,-3.05259 2.24122,-2.13017 2.85023,-2.6591 3.8196,-3.31739 1.24234,-0.84366 2.65719,-1.33285 2.54832,-0.88109 -0.43246,1.79437 -0.2951,2.82297 0.49718,3.72304 l 0.5014,0.56962 -1.2385,-0.0676 c -2.63576,-0.14396 -5.09143,1.03122 -6.40649,3.06587 -0.68859,1.06539 -0.87172,1.71392 -1.56293,5.53472 -0.0948,0.52387 -0.20762,1.1811 -0.25077,1.4605 -0.14254,0.92293 -1.19244,5.68869 -1.58078,7.1755 -0.65499,2.50776 -1.76008,5.99236 -2.40707,7.59001 -2.06268,5.09353 -3.412383,7.74634 -5.669084,11.14249 -5.231996,7.87371 -12.35701,13.42299 -20.762881,16.17106 -2.71894,0.88888 -5.25723,1.16036 -8.412174,0.89973 z m 5.724646,-0.96778 0.55097,-0.23496 -1.084594,-0.88552 c -0.596528,-0.48705 -1.108089,-0.94268 -1.136803,-1.01253 -0.05485,-0.13343 0.714771,-2.12308 1.090599,-2.81945 0.120647,-0.22354 0.219356,-0.44572 0.219356,-0.49373 0,-0.15245 -1.365273,0.0664 -2.078096,0.33307 -0.737631,0.27599 -0.850002,0.40516 -1.841153,2.11656 -0.291282,0.50294 -0.585886,0.94922 -0.654676,0.99174 -0.215956,0.13346 -0.136372,0.4226 0.14051,0.51049 0.146072,0.0464 0.607786,0.42122 1.026034,0.83302 0.418247,0.41181 0.941671,0.80482 1.163165,0.87338 0.572234,0.17711 1.95632,0.0644 2.604688,-0.21207 z m -5.154722,0.13498 c 0.328666,-0.0543 0.47625,-0.14441 0.47625,-0.29071 0,-0.22339 -0.95255,-1.60056 -1.312288,-1.89726 -0.192007,-0.15837 -0.168221,-0.21566 0.26492,-0.63804 0.261728,-0.25523 0.633188,-0.78802 0.825469,-1.18399 0.19228,-0.39597 0.406593,-0.75516 0.47625,-0.79821 0.270137,-0.16696 0.106165,-0.41986 -0.324615,-0.50067 -0.248195,-0.0466 -0.862227,-0.0442 -1.364517,0.005 -0.907453,0.0894 -0.917292,0.0945 -1.548986,0.79138 -0.349653,0.38576 -0.921483,0.98223 -1.270733,1.32548 l -0.635,0.62409 0.29629,0.20154 c 0.162959,0.11085 0.513198,0.52004 0.778308,0.90931 0.609689,0.89522 0.822645,1.07959 1.528902,1.32364 0.625547,0.21617 1.081635,0.24845 1.80975,0.12811 z m 8.651415,-0.81229 c 1.105166,-0.41349 1.102675,-0.47868 -0.05306,-1.38902 -0.559658,-0.44083 -1.042803,-0.84235 -1.073655,-0.89226 -0.03085,-0.0499 0.0016,-0.28463 0.07209,-0.52159 0.0705,-0.23696 0.179463,-0.86342 0.242142,-1.39214 0.06268,-0.52872 0.152413,-1.11451 0.199408,-1.30175 0.07332,-0.29214 0.04573,-0.34044 -0.194524,-0.34044 -0.442447,0 -1.56018,0.36445 -1.885742,0.61487 -0.17875,0.13749 -0.51223,0.772 -0.838961,1.59627 -0.298256,0.75244 -0.636238,1.4778 -0.751073,1.61191 -0.292049,0.34109 -0.266356,0.42045 0.209609,0.64742 0.230119,0.10974 0.730181,0.4831 1.11125,0.82971 0.381068,0.34659 0.778577,0.66294 0.883352,0.70297 0.417312,0.15947 1.424214,0.0791 2.079165,-0.16595 z m 19.510835,-21.2235 c 0.384175,-0.17818 0.970145,-0.35997 1.302156,-0.40396 1.51144,-0.20029 2.472463,-1.22066 2.966721,-3.14995 0.14782,-0.57699 0.16166,-0.80224 0.0534,-0.86915 -0.18553,-0.11466 -2.053534,0.32296 -2.770552,0.64906 -0.563661,0.25636 -0.789725,0.2298 -0.789725,-0.0928 0,-0.37311 -0.541045,-1.23587 -1.258997,-2.00761 -0.40278,-0.43296 -0.791104,-0.89223 -0.862942,-1.0206 -0.07184,-0.12836 -0.18831,-0.19774 -0.258826,-0.15415 -0.07052,0.0436 -0.343725,0.85439 -0.607134,1.8018 l -0.478922,1.72257 0.302573,0.66077 c 0.166414,0.36343 0.465244,0.94251 0.664068,1.28684 0.323852,0.56088 0.544568,1.06484 0.773329,1.76575 0.04179,0.12804 0.118818,0.21088 0.171168,0.18409 0.05235,-0.0268 0.409508,-0.19451 0.793683,-0.3727 z m 2.231172,-4.87024 c 0.320302,-0.24449 0.735135,-0.48275 0.921848,-0.52947 1.336527,-0.33443 2.237967,-1.12926 2.652177,-2.33851 0.33357,-0.9738 0.50918,-2.45802 0.30571,-2.58377 -0.0761,-0.047 -0.38204,0.0532 -0.67988,0.22281 -0.29784,0.16957 -0.94158,0.524 -1.43053,0.78762 -0.488947,0.26362 -0.985197,0.53917 -1.102775,0.61234 -0.177124,0.11022 -0.429858,-0.0801 -1.473982,-1.11022 -0.693113,-0.68379 -1.397013,-1.46514 -1.564222,-1.73634 -0.16721,-0.2712 -0.375456,-0.49463 -0.462768,-0.49651 -0.08731,-0.002 -0.15875,0.0179 -0.15875,0.044 0,0.0261 -0.113422,0.49756 -0.252051,1.04775 -0.138626,0.55018 -0.252926,1.34633 -0.254,1.76921 -0.0022,0.86536 0.155224,1.17498 1.448267,2.84851 0.403153,0.52179 0.843019,1.16435 0.977477,1.42791 0.134458,0.26356 0.299963,0.4792 0.367789,0.4792 0.06783,0 0.385387,-0.20004 0.70569,-0.44454 z m -49.614596,-3.13041 c 0.222526,-0.63834 0.165604,-1.03304 -0.241576,-1.6751 -0.20955,-0.33042 -0.381,-0.65257 -0.381,-0.71587 0,-0.21276 -0.275987,-0.28815 -0.55186,-0.15075 -0.150502,0.075 -0.486701,0.22113 -0.747109,0.32483 -0.525894,0.20943 -0.985811,0.84224 -0.986556,1.35742 -6.99e-4,0.47987 0.08082,0.50233 0.775347,0.2137 l 0.628861,-0.26134 0.324713,0.30428 c 0.178592,0.16735 0.417786,0.46144 0.531541,0.65353 0.271037,0.45767 0.476012,0.44163 0.647639,-0.0507 z m 51.204883,-2.13986 c 0.377868,-0.20944 1.070468,-0.49692 1.539108,-0.63883 0.96663,-0.29272 1.5284,-0.70723 1.87244,-1.38162 0.41887,-0.82104 0.6974,-3.05974 0.38069,-3.05974 -0.0733,0 -0.30826,0.0905 -0.5221,0.20105 -0.21383,0.11058 -0.91664,0.41347 -1.5618,0.67309 l -1.17301,0.47205 -0.622643,-0.56693 c -0.342454,-0.31181 -1.079844,-0.86304 -1.638644,-1.22494 -0.5588,-0.36191 -1.094435,-0.75258 -1.1903,-0.86817 -0.09587,-0.11558 -0.214016,-0.21015 -0.262557,-0.21015 -0.138793,0 -0.529374,1.35223 -0.606541,2.0999 -0.0868,0.84105 0.167356,1.31893 1.483663,2.7896 0.500146,0.5588 1.031417,1.25889 1.180603,1.55575 0.149184,0.29686 0.307877,0.53975 0.352649,0.53975 0.04477,0 0.39057,-0.17137 0.768442,-0.38081 z m 2.749358,-8.15255 c 0.71407,-0.33283 1.48586,-1.23123 1.81777,-2.11596 0.21515,-0.5735 0.26052,-0.93345 0.22648,-1.79668 -0.0641,-1.6252 -0.68002,-2.65409 -1.94757,-3.25332 -0.82009,-0.3877 -1.59356,-0.38754 -2.41299,5e-4 -1.099167,0.52052 -1.82224,1.49199 -2.097544,2.81813 -0.647598,3.11946 1.824464,5.55427 4.413854,4.34733 z m -18.981812,0.0887 c 0.613908,-0.0699 0.778283,-0.14402 1.008134,-0.45491 0.151045,-0.2043 0.35102,-0.37145 0.444388,-0.37145 0.384585,0 0.441795,-0.66508 0.351063,-4.08128 -0.09654,-3.63472 -0.05315,-4.02482 0.506093,-4.5502 0.365403,-0.34327 0.688593,-0.3195 2.481317,0.18252 1.221033,0.34193 3.556813,0.58593 3.555081,0.37137 -5.08e-4,-0.0626 -0.329118,-0.22064 -0.73025,-0.35109 -0.401133,-0.13046 -1.309442,-0.50956 -2.018465,-0.84247 -1.835956,-0.86202 -2.117964,-1.39388 -0.954957,-1.80103 0.630416,-0.22069 3.610297,-0.21834 4.244341,0.003 0.880636,0.30791 0.585997,0.48862 -0.994824,0.61013 -0.58791,0.0452 -1.068926,0.12797 -1.068926,0.18396 0,0.18459 0.813825,0.7251 1.495087,0.99297 1.597071,0.62798 3.333089,0.61456 3.577042,-0.0277 0.140752,-0.37054 -0.150969,-1.08352 -0.597834,-1.46115 -0.448265,-0.37882 -1.556671,-0.94194 -2.442295,-1.24081 -1.03261,-0.34847 -3.500995,-0.31774 -4.940515,0.0615 -1.827907,0.48157 -3.000511,1.19643 -3.435092,2.09415 -0.388486,0.80251 -0.339787,2.43334 0.184328,6.17271 0.275841,1.96802 0.415261,3.3368 0.356574,3.50072 -0.02663,0.0744 -0.460698,0.26749 -0.964603,0.42915 -1.504351,0.48263 -1.568726,0.51331 -1.356389,0.64652 0.102409,0.0642 0.271922,0.0942 0.376697,0.0666 0.104775,-0.0276 0.520577,-0.0877 0.924005,-0.13364 z m 11.521995,-8.70152 c 0.524311,-0.14951 0.846461,-0.33771 0.747483,-0.43669 -0.07859,-0.0786 -2.733094,0.16139 -3.033483,0.27425 -0.60126,0.22588 1.531921,0.37746 2.286,0.16244 z m -15.890852,21.1004 c -1.188227,-0.75355 -1.517052,-1.56948 -1.199396,-2.9761 0.110664,-0.49004 0.264915,-0.96774 0.342778,-1.06156 0.182288,-0.21964 0.547435,-0.2187 0.730507,0.002 0.184441,0.22224 0.473155,1.51888 0.626138,2.81203 0.06611,0.5588 0.162327,1.14459 0.213822,1.30175 0.123337,0.37643 -0.0224,0.3605 -0.713849,-0.078 z m -5.574736,-2.11841 c -0.234491,-0.61489 -0.292904,-1.51579 -0.130241,-2.00867 0.18918,-0.57322 0.951019,-1.33435 1.72001,-1.7184 1.452046,-0.72519 1.381063,0.42589 -0.136584,2.21488 -0.396009,0.46681 -0.852775,1.08247 -1.015034,1.36813 l -0.295017,0.51939 z m 50.675595,-2.18287 c 0,-0.0606 0.0592,-0.16935 0.13152,-0.24169 0.0724,-0.0723 0.29803,-0.76613 0.50152,-1.54175 0.20349,-0.77562 0.48477,-1.63522 0.62506,-1.91021 0.43054,-0.84392 0.90358,-0.80874 1.15201,0.0857 0.38569,1.38854 -0.15165,2.75499 -1.29231,3.28637 -0.74092,0.34517 -1.1178,0.4536 -1.1178,0.3216 z m 6.29223,-1.64768 c -0.0485,-0.19513 -0.42003,-0.89771 -0.82574,-1.56128 -0.91291,-1.49313 -1.13222,-2.10271 -0.8559,-2.37902 0.27787,-0.27788 0.70581,-0.12978 1.40605,0.48659 1.06865,0.94067 1.34103,1.95 0.85182,3.15657 -0.27595,0.68062 -0.45775,0.77437 -0.57623,0.29714 z m -59.378237,-1.26054 c 0,-0.0441 0.123544,-0.28703 0.274545,-0.53975 0.86957,-1.45536 2.017749,-1.86569 3.582415,-1.28027 1.258623,0.47091 1.009304,1.02132 -0.602299,1.32967 -0.545053,0.10428 -1.273563,0.18961 -1.618912,0.18961 -0.345349,0 -0.833076,0.0857 -1.083837,0.1905 -0.514372,0.21492 -0.551912,0.22241 -0.551912,0.11024 z m 52.641497,-2.12951 c -1.04647,-0.53426 -1.64874,-1.79284 -1.28012,-2.67509 0.17573,-0.42058 0.98646,-1.08414 1.32459,-1.08414 0.0968,0 0.37497,0.1747 0.61816,0.38821 0.57652,0.5062 1.0019,0.46566 1.40833,-0.13421 0.2504,-0.36958 0.29179,-0.56117 0.24555,-1.13663 -0.0492,-0.61281 -0.11115,-0.74013 -0.54025,-1.11106 -0.26655,-0.23042 -0.68953,-0.47585 -0.93995,-0.54542 -0.81122,-0.22534 -2.19035,-0.14717 -3.51877,0.19946 -3.49694,0.91247 -3.7834,0.94683 -3.88764,0.46631 -0.0265,-0.12219 0.147,-0.79149 0.38556,-1.48734 0.53389,-1.55726 0.64133,-2.7856 0.35952,-4.11051 -0.26032,-1.22391 -0.63382,-2.01178 -1.58095,-3.33492 -1.67828,-2.34456 -1.95181,-3.9293 -0.88746,-5.14154 0.79026,-0.90005 1.92235,-1.18756 2.73206,-0.69386 0.73682,0.44926 1.1743,1.77814 0.76712,2.3302 -0.375,0.50844 -1.50879,0.4565 -2.12056,-0.0971 -0.21241,-0.19223 -0.24663,-0.19246 -0.43609,-0.003 -0.43984,0.43984 -0.19866,1.04796 0.60165,1.51697 0.98075,0.57476 1.79915,0.34872 2.67347,-0.73841 0.33873,-0.42119 0.39166,-0.58722 0.38461,-1.2065 -0.006,-0.51752 -0.10128,-0.89548 -0.34151,-1.35311 -1.06361,-2.0261 -2.93254,-2.79633 -5.85388,-2.41251 -3.49341,0.45898 -5.40492,1.30279 -7.60439,3.35684 -1.99042,1.85884 -1.72308,2.56913 0.72695,1.93143 1.19767,-0.31173 1.96968,-0.66818 2.92748,-1.35165 1.05731,-0.75447 1.65695,-1.5876 1.14268,-1.5876 -0.10139,0 -0.64106,0.2008 -1.19925,0.44622 -0.55819,0.24543 -1.18961,0.48117 -1.40315,0.52388 -0.3376,0.0675 -0.38825,0.0417 -0.38825,-0.198 0,-0.41151 0.5313,-0.86633 1.55841,-1.33407 1.51073,-0.68797 2.31165,-0.87995 3.65383,-0.87582 1.1711,0.004 2.53475,0.24034 2.53475,0.44004 0,0.0535 -0.21431,0.13322 -0.47625,0.17719 -1.42286,0.23886 -2.24713,0.67829 -5.98401,3.19019 -3.0338,2.03929 -4.65918,2.96437 -5.20845,2.96437 -0.72644,0 -0.60966,-1.89743 0.25951,-4.21642 0.47594,-1.26984 0.54514,-1.75258 0.25123,-1.75258 -0.0643,0 -0.73763,0.41081 -1.49624,0.9129 -1.67144,1.10626 -2.33201,1.374 -3.3809,1.37031 -0.910917,-0.003 -1.590478,-0.26589 -2.300422,-0.88923 -1.464565,-1.2859 -1.283077,-3.14279 0.477904,-4.88964 1.050885,-1.04245 2.018728,-1.31772 3.359158,-0.95542 0.77098,0.20839 1.58267,1.04315 1.78128,1.8319 0.21065,0.83657 0.0779,1.39657 -0.43856,1.85002 -0.48582,0.42656 -1.07813,0.57571 -1.91272,0.48164 -0.80577,-0.0908 -0.93479,-0.26261 -0.52265,-0.69589 0.37904,-0.39848 0.53575,-0.90044 0.36366,-1.16484 -0.16332,-0.25094 -1.015981,-0.19672 -1.398592,0.0889 -0.442572,0.33043 -0.803925,1.09511 -0.795797,1.68403 0.01915,1.38736 1.546809,2.02486 3.358539,1.40154 1.26436,-0.43501 2.8481,-1.60134 3.41087,-2.51193 0.29882,-0.4835 0.29806,-0.73763 -0.0149,-4.99133 -0.14309,-1.94453 0.0123,-3.60426 0.47095,-5.0305 0.18218,-0.5665 0.29527,-1.12372 0.25132,-1.23825 -0.21642,-0.56398 -0.92987,-0.0294 -2.9051,2.17682 -0.38782,0.43317 -0.64947,0.57907 -1.53171,0.85414 -0.73782,0.23004 -1.27574,0.31971 -1.754782,0.29251 -0.619355,-0.0352 -0.695253,-0.0708 -0.7339,-0.34422 -0.03367,-0.23823 0.14813,-0.48845 0.830442,-1.143 0.89172,-0.85542 3.58756,-2.99585 4.49448,-3.5685 0.42863,-0.27064 2.50202,-1.79285 5.03687,-3.69788 1.20814,-0.90796 2.87637,-2.34188 3.6799,-3.16305 0.66887,-0.68356 0.84972,-0.97137 1.17475,-1.86964 0.21129,-0.583936 0.38417,-1.121897 0.38417,-1.195477 0,-0.20389 1.1182,-4.65549 1.35077,-5.37745 0.52481,-1.62917 1.15569,-2.6859 1.85982,-3.11523 0.4155,-0.25334 1.04089,-0.33364 1.1554,-0.14836 0.0346,0.056 -0.18561,0.64253 -0.48944,1.30328 -0.68005,1.47893 -0.88806,2.49586 -0.69482,3.39687 0.15593,0.72708 0.65887,1.49484 1.28633,1.96364 1.34009,1.00122 3.58148,0.7683 4.22812,-0.43938 0.22452,-0.41932 0.23312,-0.51871 0.0824,-0.9525 -0.39717,-1.14307 -1.23532,-1.90682 -1.90142,-1.73263 -0.34971,0.0915 -0.65359,0.65216 -0.6559,1.21025 -0.004,0.88901 -0.0883,0.99056 -0.82542,0.99056 -0.60653,0 -0.70755,-0.0422 -1.05842,-0.44178 -0.62902,-0.71642 -0.70324,-1.95124 -0.16289,-2.71009 0.36401,-0.51121 1.40927,-0.93796 2.29203,-0.93577 1.34718,0.003 1.92264,0.40215 3.08711,2.13944 0.9203,1.37301 1.13371,1.56628 2.52017,2.28224 0.87645,0.4526 1.02054,0.48734 2.02315,0.48786 1.32742,6.3e-4 1.86017,-0.24486 2.99232,-1.37917 1.03379,-1.03575 1.16966,-1.67306 0.67678,-3.1745 -0.44812,-1.36506 -1.25338,-2.12283 -1.96738,-1.85137 -0.74434,0.283 -1.03949,1.03347 -0.8394,2.13434 0.066,0.36333 0.073,0.68968 0.0155,0.72524 -0.15502,0.0958 -1.02033,-0.29503 -1.36436,-0.61625 -0.48596,-0.45374 -0.697,-0.98767 -0.6878,-1.74019 0.0106,-0.86709 0.18787,-1.34324 0.69633,-1.870399 1.08417,-1.124043 3.23506,-0.976962 5.08496,0.347717 1.19558,0.856142 2.12691,2.375202 2.65458,4.329842 0.23251,0.86126 0.28776,1.39608 0.28729,2.78084 -5.1e-4,1.60379 -0.0274,1.79241 -0.41502,2.921001 -0.56848,1.654966 -1.63416,3.721816 -2.72664,5.288176 -1.2213,1.75108 -1.60659,2.44636 -1.61015,2.90559 -0.004,0.54516 0.52971,1.25904 1.17548,1.57165 0.60705,0.29387 0.82369,0.32275 1.10169,0.1469 0.1587,-0.1004 0.15995,-0.16291 0.009,-0.44513 -0.24748,-0.46243 -0.0528,-0.59937 0.83915,-0.59023 1.83604,0.0188 4.59496,0.86132 4.16748,1.27262 -0.0661,0.0636 -0.62306,0.31721 -1.2377,0.5636 -1.7598,0.70545 -2.74334,1.30963 -3.64497,2.23909 -0.98248,1.01279 -1.88557,1.42598 -3.11151,1.4236 -1.32415,-0.003 -2.18264,-0.59359 -2.48881,-1.71339 -0.19553,-0.71513 -0.0554,-3.08442 0.24559,-4.15348 0.57401,-2.03852 1.0658,-2.82109 3.07997,-4.90105 1.57725,-1.62877 1.93195,-2.16098 2.11257,-3.169816 0.14052,-0.784861 0.0223,-1.379821 -0.35379,-1.780121 -1.11095,-1.18255 -4.31003,-0.3311 -4.31003,1.147141 0,0.53535 0.18851,0.956846 0.42792,0.956846 0.0907,0 0.49047,-0.228006 0.88829,-0.506676 1.33788,-0.937191 1.99335,-1.112311 2.59254,-0.692621 0.35884,0.251351 0.35483,0.593821 -0.0163,1.389797 -0.46909,1.00613 -1.48644,2.02231 -2.55175,2.54882 -0.87274,0.43133 -0.95174,0.44772 -1.48057,0.30716 -0.40339,-0.10721 -0.73858,-0.33619 -1.20612,-0.82392 -0.80867,-0.84359 -1.87768,-1.39189 -3.53613,-1.8137 -1.13053,-0.28754 -1.5256,-0.32419 -3.43639,-0.3188 -1.88865,0.005 -2.31124,0.0461 -3.37486,0.32602 -3.91615,1.03046 -6.69318,3.22539 -8.28203,6.54599 -0.66131,1.3821 -0.7688,1.64952 -1.09002,2.71184 -0.68925,2.27942 -0.93039,4.86317 -0.65677,7.03705 0.32538,2.58505 1.46586,4.39448 2.89024,4.58553 0.27287,0.0366 1.53621,-0.11048 2.86872,-0.33397 4.31258,-0.72333 6.18954,-0.53706 7.46766,0.74105 0.8614,0.8614 1.16034,1.73722 1.22859,3.59951 0.083,2.2651 -0.30509,4.13253 -1.73576,8.35192 -1.29168,3.80944 -1.29908,4.05268 -0.10025,3.29257 3.26214,-2.06834 4.38934,-2.3329 6.14433,-1.44211 1.17733,0.59758 2.05695,1.50999 2.44316,2.53425 0.23617,0.62633 0.27615,0.93615 0.22901,1.77479 -0.14374,2.5569 -1.41256,4.08163 -3.51096,4.21904 -0.71409,0.0468 -0.93198,0.007 -1.47306,-0.26931 z m 9.86319,-1.29524 c -0.15482,-0.10843 -0.94841,-0.36559 -1.76353,-0.57145 -1.75087,-0.44219 -2.25766,-0.69757 -2.25766,-1.13766 0,-0.26888 0.051,-0.30516 0.381,-0.27134 0.20955,0.0215 1.10196,0.26652 1.98313,0.54455 1.58056,0.4987 1.60519,0.51229 1.82962,1.01 0.26488,0.5874 0.21915,0.70027 -0.17256,0.4259 z m -59.774187,-1.2085 c -0.4191,-0.0608 -0.826503,-0.1351 -0.90534,-0.16511 -0.07884,-0.03 -0.3503,-0.008 -0.60325,0.0491 -0.252951,0.0571 -0.45991,0.0557 -0.45991,-0.003 0,-0.17076 1.124295,-1.18549 1.499255,-1.35314 0.731501,-0.32706 1.752139,-0.15265 2.727879,0.46614 0.647017,0.41033 0.778445,0.78834 0.353215,1.01592 -0.285944,0.15303 -1.520382,0.14828 -2.611849,-0.0101 z m 4.996768,-2.1336 c -0.325178,-0.12717 -1.076926,-0.49597 -1.670549,-0.81956 -0.593624,-0.32358 -1.199106,-0.58833 -1.345518,-0.58833 -0.423041,0 -0.311596,-0.18133 0.291537,-0.47436 1.345033,-0.65346 2.205807,-0.49417 3.284012,0.60772 0.748031,0.76447 0.938745,1.28346 0.529363,1.44055 -0.292318,0.11217 -0.431965,0.0909 -1.088845,-0.16602 z m 52.788229,-1.52844 c -1.87648,-0.074 -2.37146,-0.18454 -2.51633,-0.56208 -0.28198,-0.73483 2.29882,-1.44782 3.31639,-0.91621 0.59341,0.31001 1.66095,1.62627 1.2783,1.57612 -0.0953,-0.0125 -1.03061,-0.0565 -2.07836,-0.0978 z m -5.49275,-2.75092 c -0.6281,-0.27971 0.62451,-1.67893 1.81205,-2.02416 0.7962,-0.23146 1.16279,-0.16668 2.06145,0.36433 0.72803,0.43017 0.82924,0.5943 0.36648,0.5943 -0.16516,0 -0.91391,0.23049 -1.66389,0.5122 -1.32657,0.49827 -2.2529,0.69725 -2.57609,0.55333 z M 104.13269,120.5725 c -0.24489,-0.26194 -0.72163,-0.81915 -1.05944,-1.23825 -1.12379,-1.39425 -1.93243,-1.9939 -2.68882,-1.9939 -0.479142,0 -1.255216,0.43085 -1.45775,0.80929 -0.129117,0.24126 -0.146991,0.24278 -0.379394,0.0325 -0.511915,-0.46327 -0.158376,-2.23231 0.518522,-2.59457 0.268852,-0.14389 0.761585,0.0214 0.761585,0.25543 0,0.24396 0.760237,0.51863 1.204707,0.43525 0.58051,-0.10891 1.60161,-0.87356 2.57244,-1.92638 l 0.79263,-0.85958 0.008,1.5875 c 0.004,0.87313 0.0633,2.0447 0.13096,2.6035 0.20928,1.72854 0.28728,3.3655 0.16038,3.3655 -0.0652,0 -0.31889,-0.21431 -0.56378,-0.47625 z m 6.08168,-0.3891 c -1.00177,-1.10884 -1.75098,-3.83222 -1.75098,-6.36484 0,-3.34846 1.02642,-5.91433 3.34034,-8.35029 1.63143,-1.71746 3.26005,-2.75764 5.35916,-3.42282 1.06739,-0.33823 1.28164,-0.36199 3.2385,-0.35914 1.88355,0.003 2.22195,0.038 3.34561,0.34839 1.56135,0.43132 3.40526,1.36453 3.8511,1.94907 0.46979,0.61592 0.52886,1.38634 0.14876,1.94019 -0.89453,1.30343 -1.98095,1.57373 -3.72597,0.927 -1.63347,-0.6054 -2.87107,-0.83394 -4.06108,-0.74996 -2.35596,0.16626 -4.84501,1.65284 -6.27636,3.74854 -1.2985,1.9012 -1.96855,5.56003 -1.51791,8.2887 0.17506,1.06007 0.0249,1.72566 -0.49902,2.21144 -0.4983,0.46204 -0.92906,0.41272 -1.45215,-0.16628 z m 0.87678,-1.4524 c 0.0565,-0.0873 0.10582,-1.1303 0.10957,-2.31775 0.005,-1.63837 0.0603,-2.35806 0.22878,-2.9845 0.91553,-3.40501 2.11699,-5.21699 4.5269,-6.82725 1.25846,-0.84089 2.12023,-1.26354 3.07517,-1.50818 0.91942,-0.23555 1.48463,-0.18191 3.02037,0.28664 1.59028,0.48519 2.74211,0.28204 3.05414,-0.53867 0.27264,-0.71708 -0.66606,-1.51291 -2.54568,-2.15823 -1.09971,-0.37755 -3.55663,-0.3271 -4.84027,0.0994 -2.69146,0.89425 -5.46633,3.37818 -7.06951,6.32829 -1.40093,2.57794 -1.7652,5.91361 -0.9015,8.255 0.43441,1.17762 1.05492,1.80886 1.34203,1.36525 z m 2.53145,-3.87429 c -0.37261,-1.63824 -0.17125,-3.24031 0.57321,-4.56047 1.02331,-1.81464 3.97533,-3.46204 6.21715,-3.46954 1.83855,-0.006 3.29497,1.17936 2.90406,2.36385 -0.27607,0.83648 -1.24713,1.32112 -3.29308,1.64351 -2.33126,0.36735 -3.39985,0.80495 -4.37712,1.7925 -0.56318,0.56911 -1.46843,2.10366 -1.46843,2.48925 0,0.0932 -0.0786,0.27697 -0.17479,0.40844 -0.15838,0.21659 -0.19418,0.15387 -0.381,-0.66754 z m 32.75466,-1.85287 c 0.005,-1.9116 0.11615,-2.36909 0.57745,-2.36909 0.37902,0 0.87586,1.14209 0.87744,2.01701 0.002,0.9188 -0.37958,1.51252 -1.33226,2.07473 -0.0823,0.0486 -0.12546,-0.55781 -0.12263,-1.72265 z m 4.8411,-1.35434 c -0.12338,-0.20886 -0.27139,-0.37975 -0.32893,-0.37975 -0.0575,0 -0.54429,-0.42427 -1.08168,-0.94283 -0.82747,-0.79845 -0.9708,-0.99779 -0.93597,-1.30175 0.0323,-0.28153 0.11417,-0.36737 0.37993,-0.3981 0.43062,-0.0498 1.45327,0.46809 1.94327,0.9841 0.32983,0.34732 0.38343,0.50931 0.42768,1.29231 0.0587,1.03809 -0.0803,1.2945 -0.4043,0.74602 z m -51.390967,-0.1946 c 0,-0.40598 0.509727,-2.37106 0.970417,-3.74115 0.96117,-2.85848 2.28971,-5.28562 4.17093,-7.62 2.3476,-2.913097 4.16779,-4.224377 6.11644,-4.406347 0.79676,-0.0744 0.80721,-0.0713 0.80721,0.24261 0,0.43662 -0.90801,1.43829 -1.63533,1.804 -0.32294,0.16238 -0.93007,0.39334 -1.34916,0.51325 -2.01239,0.57578 -4.13937,2.376497 -3.12149,2.642677 0.64013,0.1674 2.76705,-0.49583 3.91592,-1.221076 0.29371,-0.18541 0.57201,-0.33711 0.61845,-0.33711 0.0464,0 -0.28466,0.35719 -0.73576,0.793746 -0.45111,0.43656 -1.04499,1.07402 -1.31975,1.41658 -0.67279,0.8388 -1.09921,1.0019 -2.3372,0.89391 -1.09304,-0.0953 -1.48726,0.0243 -2.30714,0.70009 -0.53407,0.44022 -1.59312,1.96468 -1.83419,2.64024 -0.0936,0.26231 -0.17271,0.86179 -0.17577,1.33218 -0.005,0.76304 0.0331,0.89851 0.35302,1.25658 0.31575,0.35339 0.4122,0.39129 0.80725,0.31718 1.10381,-0.20708 2.39016,-1.532 2.39016,-2.46184 0,-0.57341 -0.21193,-0.81288 -0.92075,-1.04046 -0.26194,-0.0841 -0.47626,-0.22575 -0.47626,-0.31478 0,-0.57853 1.45375,-1.74803 1.94064,-1.5612 0.309,0.11858 0.5111,1.05538 0.4136,1.9172 -0.19526,1.72582 -0.96181,2.89678 -2.29082,3.49938 -1.00485,0.45562 -2.06515,1.17839 -3.06789,2.09128 -0.73661,0.67061 -0.932527,0.80571 -0.932527,0.64306 z m 43.971977,-1.40423 c -0.46195,-0.23555 -0.63081,-0.65615 -0.4209,-1.04838 0.0763,-0.14251 0.37677,-0.5336 0.66778,-0.86908 0.89583,-1.03273 1.24714,-1.67778 1.24714,-2.2899 0,-1.19383 -0.68177,-2.06656 -1.61439,-2.06656 -0.92976,0 -1.55248,0.48504 -1.55778,1.21339 -0.003,0.42332 0.52677,1.33662 1.05878,1.825 0.18447,0.16934 0.3354,0.37369 0.3354,0.45411 0,0.26925 -0.59863,0.71241 -1.21148,0.89685 -1.07633,0.32393 -1.83791,0.24201 -3.20825,-0.34508 -1.47558,-0.63218 -2.78248,-0.99644 -3.57269,-0.99579 -0.63106,5e-4 -1.19933,0.28173 -1.81652,0.89892 -0.4521,0.4521 -0.81704,0.47478 -1.00491,0.0625 -0.20167,-0.44264 -0.0528,-0.8633 0.49349,-1.39419 1.39723,-1.35792 2.91609,-1.30295 5.38203,0.1948 1.7475,1.06138 2.23002,1.27158 2.82037,1.22862 0.77066,-0.0561 0.75108,-0.35545 -0.0974,-1.48958 -0.83886,-1.12125 -0.95023,-1.5485 -0.60632,-2.32597 0.29884,-0.67557 0.74695,-1.01941 1.68151,-1.29022 1.34324,-0.38922 3.02069,0.15004 4.20269,1.35108 1.04263,1.05942 1.65166,2.53752 1.46203,3.54832 -0.13198,0.70354 -0.73902,1.52674 -1.52504,2.06809 -0.6227,0.42887 -0.84227,0.50759 -1.51463,0.54303 -0.55082,0.029 -0.91052,-0.0219 -1.20088,-0.16993 z m 8.92352,-3.10445 c -0.1397,-0.0554 -0.91122,-0.0706 -1.7145,-0.0339 -1.68057,0.0768 -2.20074,-0.0451 -2.13605,-0.50052 0.0622,-0.43782 1.12749,-0.92055 2.03149,-0.92055 0.8037,0 1.15578,0.19383 1.80171,0.99189 0.40939,0.50582 0.41367,0.62012 0.0174,0.46308 z m -45.9105,-1.74379 c 0,-0.16999 1.0906,-2.02058 1.52802,-2.59286 0.65544,-0.85749 2.01998,-2.16078 2.85446,-2.726306 0.95734,-0.648801 1.8408,-1.101561 1.94539,-0.996981 0.14633,0.14633 -0.73707,1.665017 -1.48577,2.554227 -0.40554,0.48166 -0.98941,1.08376 -1.29747,1.33801 -0.30807,0.25425 -0.73157,0.61453 -0.94113,0.80062 -0.39773,0.35322 -2.41131,1.72161 -2.53333,1.72161 -0.0386,0 -0.0702,-0.0443 -0.0702,-0.0983 z m 40.79875,-1.69382 c -0.25952,-0.26755 -0.18714,-0.44976 0.36713,-0.92419 1.07594,-0.92097 2.09618,-1.00341 3.174,-0.25647 0.55726,0.38617 0.62095,0.55979 0.20537,0.55982 -0.15716,1e-5 -0.74295,0.14263 -1.30175,0.31694 -1.30658,0.40757 -2.23254,0.52267 -2.44475,0.3039 z m -3.30797,-1.28088 c -0.25796,-0.25797 -0.17382,-0.55647 0.35542,-1.26081 0.78982,-1.051156 1.59654,-1.334796 2.82556,-0.993486 0.45005,0.124986 0.66118,0.374056 0.31749,0.374546 -0.0873,1.2e-4 -0.61595,0.34617 -1.17475,0.769 -1.45532,1.1012 -2.04933,1.38514 -2.32372,1.11075 z m -32.22171,-4.454057 c 0.94768,-0.98345 2.17798,-2.5584 2.52306,-3.22986 0.26546,-0.51656 0.26757,-1.00436 0.005,-1.1052 -0.32343,-0.12412 -1.12269,0.14499 -2.59579,0.87397 -1.8999,0.9402 -2.112,0.96876 -1.01011,0.13603 1.65251,-1.24885 5.22008,-3.27412 5.41829,-3.0759 0.12489,0.12489 -0.23811,1.00494 -1.4273,3.46029 l -1.17954,2.43543 -1.24698,0.68241 c -0.68583,0.37533 -1.27619,0.69691 -1.3119,0.71464 -0.0357,0.0177 0.33576,-0.38359 0.8255,-0.89181 z m 25.71893,-0.86978 c -0.7526,-0.2925 -1.00613,-1.23551 -0.46806,-1.741 0.16166,-0.15188 0.38758,-0.27614 0.50202,-0.27614 0.35997,0 0.82099,0.27057 0.98584,0.57859 0.16025,0.29944 0.0997,1.1542 -0.0944,1.33293 -0.19512,0.17962 -0.6124,0.22725 -0.92537,0.10562 z m -10.2235,-1.43364 c -2.8009,-0.89053 -5.09747,-3.66728 -6.6273,-8.012998 -0.31993,-0.908801 -0.35736,-1.183496 -0.35477,-2.603499 0.003,-1.67208 0.21199,-2.872338 0.6969,-4.003595 0.2669,-0.622641 0.4874,-0.741266 0.25842,-0.139027 -0.53778,1.414471 -0.7422,3.422148 -0.46066,4.524168 0.51196,2.003897 1.70098,2.680759 4.18875,2.38448 0.56577,-0.06738 1.34299,-0.131512 1.72716,-0.142517 0.61727,-0.01768 0.70288,0.01055 0.73608,0.242795 0.0232,0.162343 -0.24807,0.647826 -0.70966,1.27 -0.86773,1.169613 -1.04774,1.483703 -1.17584,2.051683 -0.22429,0.99448 0.58741,2.47551 1.72076,3.1397 1.16653,0.68363 2.83855,0.28848 3.5911,-0.8487 0.32996,-0.4986 0.74059,-0.629 0.8753,-0.27796 0.11748,0.30616 -0.47374,1.44416 -0.9318,1.79353 -0.95334,0.72715 -2.40184,0.98203 -3.53444,0.62194 z m 12.45581,-0.51815 c -0.62135,-0.22139 -1.94307,-1.11959 -2.88336,-1.95945 -1.19997,-1.07181 -1.88811,-2.41301 -2.1373,-4.165668 -0.27826,-1.95711 0.76252,-4.106243 2.54135,-5.24772 0.85689,-0.549861 1.04932,-0.42621 0.41494,0.26662 -0.71857,0.784765 -1.265,1.821959 -1.44118,2.735524 -0.28135,1.458934 0.21974,2.751149 1.66663,4.297874 1.27581,1.36384 2.83475,2.22947 4.01514,2.22947 0.78283,0 1.13706,0.71276 0.65733,1.32264 -0.5373,0.68307 -1.75158,0.90621 -2.83355,0.52071 z m 5.66075,-2.07949 c -0.28371,-0.0797 -0.2735,-0.0978 0.20669,-0.36772 2.0513,-1.15289 3.13109,-4.213525 2.21621,-6.281765 -0.32983,-0.745631 -1.15566,-1.547639 -1.87744,-1.823291 -1.53903,-0.587761 -3.90726,0.310132 -4.64809,1.762289 -0.54466,1.06763 -0.0384,2.416962 0.90693,2.416962 0.57215,0 0.79663,-0.293455 0.82735,-1.08156 0.0145,-0.3714 0.0346,-0.801871 0.0448,-0.956603 0.0102,-0.154733 0.19587,-0.483345 0.41265,-0.73025 0.36406,-0.414638 0.44892,-0.448856 1.11125,-0.448083 0.84913,10e-4 1.2412,0.219925 1.83141,1.022677 0.40148,0.546058 0.40958,0.58398 0.40428,1.8941 -0.006,1.442294 -0.13887,1.870964 -0.80284,2.586764 -0.67506,0.72776 -1.21516,0.90964 -2.68425,0.90399 -1.24021,-0.005 -1.39284,-0.034 -2.18156,-0.4176 -1.17821,-0.57303 -2.14586,-1.62697 -2.43285,-2.649799 -0.26221,-0.934517 -0.26572,-1.428817 -0.0169,-2.384029 0.66109,-2.538068 2.70199,-4.100199 6.14337,-4.702198 1.9609,-0.343021 5.58883,-0.220636 7.63195,0.257458 0.38418,0.0899 0.72506,0.137162 0.75751,0.105034 0.28307,-0.280224 -1.36758,-1.185317 -2.90219,-1.591342 -1.25533,-0.332135 -3.6352,-0.446522 -4.93807,-0.237345 -1.99748,0.320694 -3.48667,0.817588 -5.40747,1.804286 -0.67406,0.346256 -1.03845,0.470295 -1.12559,0.383154 -0.0709,-0.07087 -0.0879,-0.195185 -0.0378,-0.276255 0.20372,-0.32964 2.89773,-1.906731 3.25709,-1.906731 0.0841,0 0.2432,-0.08041 0.35348,-0.178697 0.28969,-0.258191 2.47273,-0.948018 3.43899,-1.086704 0.45403,-0.06516 1.4167,-0.145888 2.13926,-0.179383 0.72257,-0.0335 1.3425,-0.08964 1.37762,-0.124757 0.0351,-0.03512 -0.1719,-0.134488 -0.46004,-0.220816 -0.65622,-0.19661 -0.60285,-0.426298 0.1047,-0.450564 0.29543,-0.01013 0.57495,-0.05623 0.62117,-0.102451 0.15478,-0.154783 -0.29081,-0.765844 -0.71325,-0.978114 -0.22984,-0.115491 -0.35844,-0.246725 -0.28579,-0.29163 0.38354,-0.237039 2.00714,0.690306 2.5912,1.480001 0.21047,0.284572 0.22606,0.377017 0.091,0.53975 -0.0896,0.108001 -0.28456,0.200552 -0.43316,0.20567 -0.14862,0.0051 0.24207,0.149778 0.86818,0.321464 2.22543,0.61024 4.3351,1.621383 5.82862,2.793592 0.90537,0.710595 0.98344,1.049458 0.54364,2.35962 -0.3763,1.120968 -0.9245,2.09085 -2.00735,3.551443 -1.7361,2.341703 -2.54342,2.950553 -3.92525,2.960223 -0.7293,0.005 -0.89575,-0.0405 -1.31542,-0.36029 -0.62101,-0.47324 -1.08564,-1.457965 -1.08564,-2.300858 0,-1.243145 0.9816,-2.617701 2.00669,-2.810009 0.94048,-0.176436 2.05483,0.5513 2.05483,1.341935 0,0.443497 -0.4999,0.960566 -1.1224,1.160955 -0.62243,0.200364 -0.78261,0.344387 -0.78261,0.703669 0,0.514706 0.42274,0.80995 1.15972,0.80995 0.59771,0 0.69626,-0.04472 1.18938,-0.53975 0.57268,-0.574896 1.01243,-1.699393 0.90222,-2.307134 -0.1804,-0.994864 -1.17939,-2.082255 -2.16702,-2.358772 -0.31309,-0.08766 -0.90687,-0.13496 -1.31951,-0.105113 -0.9366,0.06775 -2.0545,0.695931 -2.54315,1.429083 -0.29037,0.435652 -0.33147,0.623138 -0.32014,1.4605 0.0116,0.859866 0.0749,1.095541 0.60325,2.245676 0.70672,1.538538 0.7343,1.907618 0.18894,2.528748 -0.85334,0.97189 -2.99192,1.582 -4.27863,1.22062 z m -11.66326,-4.192338 c -0.18436,-0.295205 -1.37033,-0.877747 -1.97655,-0.970871 -0.26193,-0.04024 -0.47625,-0.117026 -0.47625,-0.170643 0,-0.319308 1.92334,-1.669006 2.37836,-1.669006 0.3198,0 0.33692,0.08667 0.16302,0.8255 -0.0764,0.32457 -0.0735,0.800441 0.008,1.3179 0.13882,0.881009 0.11964,1.013423 -0.0966,0.66712 z m -8.3583,-2.01011 c -1.31852,-0.174879 -3.22193,-1.008396 -3.67708,-1.610224 -0.86461,-1.143255 -0.60615,-3.095453 0.63338,-4.784041 0.68312,-0.930589 0.9482,-0.821844 0.9482,0.388975 0,0.729245 0.17914,1.267881 0.42168,1.267881 0.32371,0 0.60765,-0.476408 1.17473,-1.970993 1.43111,-3.771793 2.72209,-5.815905 4.664,-7.3849 0.97256,-0.785787 2.71181,-1.735786 3.42169,-1.86896 0.83973,-0.157535 1.66496,0.383116 1.38304,0.906103 -0.0659,0.122238 -0.26794,0.3608 -0.44897,0.530138 -0.41512,0.388291 -0.45439,1.12692 -0.078,1.467533 0.53746,0.4864 1.89997,-0.07511 2.36518,-0.974738 0.25787,-0.498669 0.26433,-1.725204 0.0117,-2.21382 -0.45454,-0.878974 -1.50114,-1.571362 -2.37524,-1.571362 -0.66656,0 -1.10185,0.230568 -1.72229,0.912263 -0.66112,0.726404 -1.37178,1.246736 -1.70276,1.246736 -0.4094,0 -0.89171,-0.555476 -0.89171,-1.026986 0,-0.543687 0.3827,-1.127015 1.24164,-1.892572 0.95051,-0.847176 1.82813,-1.179063 3.13986,-1.187386 1.21537,-0.0077 2.12162,0.345327 2.90987,1.13358 1.04903,1.049026 1.49476,2.881745 0.98251,4.039775 -0.57176,1.292561 -1.73389,2.294085 -3.11791,2.687025 -0.97449,0.276668 -1.6206,0.182424 -2.7286,-0.398003 l -0.87786,-0.45987 -0.6795,0.201269 c -2.00097,0.592686 -4.18165,3.320926 -4.75781,5.952459 -0.38353,1.75174 0.0803,3.665256 1.36586,5.634495 0.33932,0.519787 0.61694,0.971877 0.61694,1.004641 0,0.06828 -1.65146,0.04672 -2.2225,-0.02902 z m -1.28397,-6.717814 c 0.23497,-1.635937 0.24708,-2.329219 0.0421,-2.407888 -0.10931,-0.04195 -0.3275,-0.0074 -0.48486,0.07686 l -0.28611,0.153122 0.28866,-0.492593 c 0.61262,-1.045423 1.76703,-2.550638 2.75679,-3.594535 1.09831,-1.158383 2.20725,-2.045784 2.20401,-1.763698 -0.001,0.09165 -0.55827,0.909591 -1.23825,1.817641 -1.56864,2.094757 -2.44834,3.886586 -2.94626,6.001141 -0.21008,0.892153 -0.45611,1.045863 -0.33605,0.209954 z m 21.37344,-1.623733 c -0.0803,-0.209205 1.05393,-1.477113 1.31771,-1.473037 0.12627,0.0019 0.099,0.07069 -0.0881,0.22225 -0.24896,0.201663 -0.55462,0.669681 -0.55462,0.849219 0,0.04125 0.14288,0.129314 0.3175,0.195706 0.51348,0.195223 0.36529,0.381 -0.30391,0.381 -0.41098,0 -0.64417,-0.05931 -0.68862,-0.175138 z m -10.02402,-1.144097 c -0.47087,-0.255299 -0.94717,-0.815361 -1.11708,-1.313532 -0.24296,-0.71237 0.15994,-0.894201 0.84973,-0.383483 0.61645,0.456424 1.85978,1.624213 1.79656,1.687424 -0.17488,0.174889 -1.21233,0.181395 -1.52921,0.0096 z m 11.68565,-0.480158 c 0.0738,-0.0738 0.20914,-0.109193 0.30077,-0.07865 0.0951,0.03171 0.0375,0.08927 -0.13418,0.134181 -0.21125,0.05524 -0.26083,0.03871 -0.16659,-0.05553 z m -4.75902,-6.214831 c -0.0771,-0.07712 -0.66715,-0.24593 -1.31117,-0.375126 -1.52554,-0.306036 -2.34591,-0.703172 -2.34591,-1.135649 0,-0.391712 0.56047,-0.617158 1.56081,-0.627832 0.96283,-0.01028 1.58111,0.341388 2.05596,1.169375 0.48408,0.844074 0.50876,1.437685 0.0403,0.969232 z m -4.93898,-3.853277 c -0.35644,-0.260637 -0.13588,-0.518891 1.03265,-1.209085 l 1.09942,-0.649381 0.31496,0.31496 0.31496,0.314958 -0.87296,0.580483 c -1.04443,0.694497 -1.57609,0.876893 -1.88903,0.648065 z m -5.8936,-1.90278 c 0,-1.828178 7.7e-4,-1.832872 0.33463,-2.0955 0.44599,-0.350817 0.57418,-0.331852 0.42416,0.06275 -0.0717,0.188604 -0.0915,0.924477 -0.0468,1.74625 0.0855,1.57513 -0.0312,2.118782 -0.4548,2.118782 -0.24631,0 -0.25715,-0.0772 -0.25715,-1.832282 z m 3.27764,1.038532 c -0.0894,-0.159356 -0.16159,-0.716787 -0.16322,-1.260232 -0.002,-0.788996 0.0469,-1.041327 0.25893,-1.325653 0.32982,-0.442325 0.74779,-0.749784 1.36269,-1.002378 l 0.48153,-0.197812 -0.18002,0.353163 c -0.099,0.194239 -0.28173,0.896087 -0.40602,1.559662 -0.26562,1.418016 -0.59051,2.159 -0.94664,2.159 -0.13582,0 -0.31908,-0.128588 -0.40725,-0.28575 z m 5.48536,-0.924735 c 0,-0.388951 0.22216,-0.494622 0.6766,-0.321841 0.45064,0.171329 0.42799,0.306268 -0.0824,0.490813 -0.5706,0.206329 -0.59424,0.199607 -0.59424,-0.168972 z"
       id="path1053"
       sodipodi:nodetypes="sssssssscssssscsssssscssscssssssssscccssssssssssssscsssssssssscssssssssscsscsssscssssscsscsccsssssssssscssssssssssscsssssccsscsssccssssssssssssssscssssssssscssssccsssscsssscssssssssssscssscssssssscscsssssssssssssssscssssssssscssssssssssscsccsssscsscssccssssscsscsssssscsssscssssscscsscscsssssssssssssscsssssssssscssssssscsssssssscsssssssscsssssssssssssssccscscsscsssccsssssccscsscsssscscsscsssscssssccsssssssssssscccssssssscssssssccssssssscsssccsssssssssscssssccssssssssccsssssssssccssssssssssscsssscscscccssscsscssssssssssssscsscssssssssssscssscssssssccsssssssscssssssssscssssscsccsssssssssssscscsssscscccsssscsscscscsssssssssscssssssssssccsssscsssscscsscsscssscsssssssssscsccssssccsssssssssssccscccsssscccsssssssssscscsssssssssscsssssscsccsscssccccssssccssscsssscsssssssssscccssccscsccsccscccsscsscc" />
  </g>
</svg>
