<?xml version="1.0" encoding="UTF-8"?>
<svg xmlns="http://www.w3.org/2000/svg" width="164.673mm" height="252.179mm" viewBox="66.891838 9.996696 164.672821 252.178864">
    <path transform="translate(44.720093,-10.406471)" style="stroke:#000000;stroke-width:0.05mm;fill:none" d="M146.578873,121.570038L144.681198,120.563957C144.379349,122.747383,143.341995,124.823563,142.501984,126.627441C142.169235,127.34565,141.50325,128.340805,141.022018,128.838898C139.634354,130.275208,138.691849,131.473816,138.691849,131.802277C138.691849,131.968918,138.42009,132.50882,138.087936,133.002075C137.755783,133.495316,137.269684,134.464447,137.007721,135.155655C136.745758,135.846878,136.715439,136.071106,136.720474,136.221832L137.398254,139.139816"/>
    <path transform="translate(44.720093,-10.406471)" style="stroke:#000000;stroke-width:0.05mm;fill:none" d="M146.578873,121.569977C146.103439,124.745506,145.506104,125.186768,142.372559,130.027161C141.559189,131.283585,140.737686,132.609207,140.547012,132.973022C140.356339,133.336823,140.115082,133.694016,140.010895,133.766769C139.906708,133.839569,139.574341,134.386627,139.272308,134.982529L138.723145,136.06601L140.758118,137.150482C141.877365,137.746964,142.888474,138.241653,143.00502,138.249832C143.121597,138.257828,143.402863,137.818207,143.630066,137.272507C143.857269,136.726807,144.128159,136.220795,144.232025,136.148026C144.422501,136.014603,144.810883,135.07518,146.474411,130.724075C147.851517,127.122147,148.716644,125.279343,149.426697,124.435509C149.780029,124.015587,150.069138,123.443031,150.069138,123.163147C150.069138,122.883278,150.16864,122.654289,150.290344,122.654289C150.494171,122.654289,151.27504,120.227341,151.564651,118.693748C151.632446,118.334473,151.782944,117.917747,151.898987,117.767708C152.015015,117.617668,152.444229,116.601936,152.852783,115.510536C153.261337,114.419128,153.742966,113.288033,153.92308,112.996986C154.103195,112.705963,154.33107,112.081581,154.429489,111.609497C154.527893,111.137428,154.761871,110.661179,154.949402,110.55117C155.284164,110.354797,157.694778,105.79364,159.669647,101.619904C160.704117,99.433632,162.150818,97.456657,164.555084,94.943726C165.319077,94.145218,165.944153,93.289619,165.944153,93.042404C165.944153,92.795189,166.118958,92.361801,166.332611,92.07933C166.882034,91.352913,166.818665,89.65419,166.190048,88.258446C165.416092,86.539963,162.338577,83.495949,161.375153,83.495949C160.524567,83.495949,159.329559,84.536491,159.329559,85.27713C159.329559,85.542404,159.176453,85.994301,158.989319,86.281342C158.802185,86.568382,158.250122,87.731781,157.762512,88.866669C157.274902,90.001556,156.125519,92.253326,155.208328,93.87059C154.291138,95.487862,153.463501,97.267982,153.369171,97.826424C153.274872,98.384865,153.097565,98.841774,152.975266,98.841774C152.852982,98.841774,152.613419,99.526382,152.442947,100.363129C152.272461,101.199867,151.847214,103.219566,151.497925,104.851349C151.148651,106.483124,150.862885,108.184509,150.862885,108.632202C150.862885,109.079903,150.61734,109.927513,150.317215,110.515793C149.547668,112.024223,147.738129,116.810463,146.978821,118.019943C146.582916,117.612953,145.566696,116.833572,145.342987,116.153229C144.662964,114.085083,150.068939,104.341133,150.068939,103.093529C150.068939,101.85791,151.74881,97.548111,154.562302,91.565521C155.834076,88.861244,157.098038,85.928085,157.350357,85.095573C157.458557,84.738556,157.680191,84.305267,157.842911,84.132706C158.005615,83.960144,158.371185,83.498238,158.655273,83.106247C158.939377,82.714256,159.623108,82.163315,160.174667,81.881927C161.07193,81.424171,161.268219,81.408882,162.039352,81.736687C164.012955,82.57563,167.737686,86.979454,168.181061,88.998146C168.42012,90.086578,167.909592,92.93338,167.345596,93.656761C167.084,93.992294,166.155594,95.206841,165.282471,96.355759C164.409348,97.504677,163.544342,98.603828,163.360245,98.798325C162.296692,99.921936,161.383682,101.473282,159.423981,105.486771C158.220169,107.952171,157.051559,110.152992,156.827087,110.377472C156.6026,110.601952,156.418945,110.991417,156.418945,111.242973C156.418945,111.494507,156.319946,111.813423,156.198959,111.951668C155.972275,112.210693,154.443497,116.050552,152.991364,120.008217C152.537506,121.245163,151.997452,122.554848,151.791229,122.918648C151.585007,123.282448,151.057556,124.253479,150.61911,125.076477C150.180679,125.899483,149.723007,126.613853,149.602081,126.663979C149.48114,126.714081,149.048447,127.707611,148.640549,128.87178C148.232635,130.035934,147.606674,131.821869,147.249542,132.84053C146.892395,133.859161,146.117218,135.711533,145.526917,136.956894L144.453659,139.221176L145.430313,141.307251C146.567444,143.736053,146.76297,145.310684,145.984238,145.768326C144.910919,146.399094,143.718933,147.629745,143.718933,148.107132C143.718933,148.891068,142.71759,150.650375,142.006058,151.116577C141.649796,151.350006,141.280457,151.798233,141.185303,152.11264C140.928711,152.960403,140.000549,153.892853,138.981491,154.326614L138.080505,154.710098L138.783051,155.361542C140.180115,156.656982,139.241852,159.093979,137.170883,159.548828C136.459946,159.704971,136.316528,159.891022,136.049698,161.003281C135.677612,162.554276,134.696716,163.539627,133.316864,163.74855C132.680801,163.844849,132.115173,164.145874,131.787491,164.562454C131.501495,164.926041,130.85437,165.37291,130.349457,165.555496C129.794281,165.756256,129.431427,166.064423,129.431427,166.335159C129.431427,166.581406,129.267487,166.845779,129.067123,166.922668C128.365112,167.192047,126.580879,171.174088,126.481651,172.692902L126.388763,174.115524L129.299179,174.320328C130.899902,174.432968,135.424286,174.815582,139.353333,175.170593C143.282394,175.525604,147.330521,175.877914,148.349167,175.953506C153.256302,176.317703,166.454239,178.130112,171.764786,179.169083C176.593597,180.1138,176.465973,180.06218,177.051392,181.307587C178.226105,183.806671,177.437347,186.358154,174.632996,189.130615C173.63942,190.112885,172.70668,190.91655,172.560242,190.91655C171.676971,190.91655,172.956085,193.142319,175.221146,195.546753C176.254105,196.643265,178.598663,201.050568,179.419998,203.439728C179.678543,204.191818,180.072174,205.342941,180.294724,205.997803C180.517258,206.652649,180.91069,208.498108,181.169006,210.098846C181.427322,211.69957,181.798294,213.330765,181.993393,213.723724C182.563995,214.87294,182.424286,218.223633,181.675674,221.343628C181.309052,222.871597,180.899933,224.598007,180.76651,225.180084C180.427963,226.657135,179.182266,230.138199,178.846939,230.544296C178.330063,231.170258,178.820236,231.143433,179.50563,230.508194C179.879639,230.16156,180.402847,229.266464,180.668289,228.519073C181.174805,227.092926,181.890503,226.57048,182.470657,227.203369C182.731842,227.488297,182.726501,228.316772,182.444565,231.265457C181.754166,238.484344,179.632721,243.690842,175.90979,247.303192L174.378662,248.788849L175.783737,249.241562C176.556534,249.490555,177.892441,250.042404,178.752441,250.46788C180.140778,251.154755,180.590805,251.241486,182.767029,251.241486C185.017838,251.241486,185.2845,251.297379,186.032059,251.926453C186.80188,252.574219,186.846024,252.714386,186.844574,254.506149C186.842575,257.381714,186.44313,259.246765,185.361862,261.43454C184.137909,263.911041,182.359055,265.724701,180.024719,266.876099C177.432693,268.154602,176.143799,268.093292,164.885696,266.156067C162.151398,265.685547,161.607758,265.446808,158.330215,263.2771L156.140366,261.827423L155.882813,262.504791C155.74115,262.87738,155.625259,263.283905,155.625259,263.408234C155.625259,263.532532,155.029938,264.285645,154.302338,265.081757C153.574738,265.877869,152.979416,266.661377,152.979416,266.822876C152.979416,266.984344,152.872009,267.116486,152.740723,267.116486C152.609436,267.116486,152.378265,267.471497,152.227005,267.905396C151.79335,269.149353,149.557999,271.138519,147.79715,271.847351C146.519501,272.361694,145.650223,272.493256,143.057541,272.564758C141.311295,272.612946,139.525345,272.556763,139.088791,272.44046L139.088898,272.440704C137.630219,272.051361,134.915695,270.51767,133.718628,269.406555C132.195831,267.993103,131.561478,266.604767,131.554077,264.669312L131.54808,263.14798L130.555893,263.141968C129.445007,263.134979,127.636574,262.402374,127.0839,261.734497C126.788338,261.37735,126.209938,261.295715,123.975037,261.295715L121.229317,261.295715L121.229317,260.501953C121.229317,259.51947,121.05085,259.510956,118.079628,260.351898C116.828781,260.705933,114.674271,261.293182,113.291817,261.656921C111.909378,262.02063,109.858177,262.56665,108.73362,262.870239C105.351578,263.783295,100.606407,264.5336,98.078278,264.555023C95.120781,264.580139,93.30526,263.9133,93.038437,262.704041C92.777985,261.523682,90.848213,256.55603,90.403458,255.921051C90.011375,255.361282,89.876129,255.348419,85.308228,255.436584C82.727379,255.486389,80.580132,255.560959,80.536545,255.602295C80.492943,255.6436,80.760864,256.124756,81.131866,256.671417C82.653099,258.913086,82.301407,259.000092,72.378143,258.836639C62.574287,258.675171,59.532341,258.299835,58.59034,257.135406C58.26355,256.731445,57.743912,255.64502,57.435589,254.72113C56.954308,253.278931,56.74688,252.987793,55.969139,252.662827C54.907349,252.219193,52.437637,252.428513,52.437637,252.962158C52.437637,253.143402,52.616238,253.797867,52.834518,254.41655C53.596409,256.575989,53.653587,256.533508,49.99025,256.531128C47.56641,256.529114,45.949951,256.362762,43.57999,255.869659C41.836979,255.507004,40.381519,255.210297,40.345642,255.210297C40.023613,255.210297,39.473061,253.377029,39.473061,252.304718C39.473061,251.458557,39.350502,250.923569,39.14233,250.861084C38.96043,250.806488,37.56144,250.436356,36.033482,250.038559C33.400341,249.353043,32.376511,249.060043,27.037645,247.464096C25.800726,247.094345,24.348915,246.7173,23.811415,246.626236C22.677204,246.434067,22.324465,245.760559,22.853985,244.798157C24.023134,242.673203,24.360146,241.873093,24.987764,239.732162C25.954405,236.434784,26.206694,234.427948,26.384733,228.619659C26.469534,225.854767,26.648375,222.401947,26.782244,220.946747C26.916124,219.491531,27.088705,217.506989,27.165762,216.536652C27.418383,213.355515,29.239592,207.124557,31.111132,203.038177C31.490091,202.210754,31.800142,201.415588,31.800142,201.271133C31.800142,201.126678,31.965933,200.842697,32.168571,200.640076C32.371201,200.437439,32.849461,199.655029,33.231361,198.901382C33.613262,198.147736,34.042782,197.531113,34.185852,197.531113C34.328922,197.531113,34.445984,197.402115,34.445984,197.244446C34.445984,197.086792,35.041294,195.990433,35.768894,194.808121C36.496506,193.625793,37.091816,192.507706,37.091816,192.323456C37.091816,192.139206,37.431866,191.812607,37.847485,191.597687C38.590755,191.213333,38.605713,191.160034,38.759445,188.349747C39.004494,183.869858,40.500866,177.806351,41.717205,176.364441C41.901344,176.146164,42.194584,175.523376,42.368874,174.980469C42.804642,173.622986,45.047993,170.246414,46.436874,168.857544C48.861206,166.433212,48.880344,166.369171,49.767464,157.711319C50.295395,152.55899,50.943668,147.114456,52.828228,147.173157C54.649483,147.614487,57.719421,146.833771,60.085167,146.322235C61.549522,146.0056,62.522011,147.453751,63.905991,147.277786"/>
    <path transform="translate(44.720093,-10.406471)" style="stroke:#000000;stroke-width:0.05mm;fill:none" d="M65.223763,151.449265C64.145142,150.010223,63.490089,146.133606,63.58918,141.77565C63.629372,140.007828,63.467216,139.493668,63.068306,140.124008C62.64492,140.793015,60.375084,143.359985,59.291168,144.395599C56.807266,146.768845,55.058701,147.528809,53.344547,147.223557C52.09,147.000153,51.144577,145.844559,50.793121,143.932693C50.547348,142.595734,50.580997,142.234909,51.312855,138.360535L52.095352,134.217896L50.152534,135.887344C49.083988,136.805542,47.213272,138.548859,45.995396,139.761398C43.243938,142.500793,40.250851,144.629013,38.936367,144.78067C37.474365,144.949356,36.540634,144.435715,36.198517,143.274628C35.520592,140.973831,37.099392,135.479614,39.590458,131.470657C40.340431,130.263702,40.924446,129.226715,40.888271,129.166214C40.802002,129.021973,39.916023,129.710251,37.15134,132.06929C33.587543,135.110199,31.832811,136.043411,30.395704,135.66214C29.792395,135.50209,29.5777,135.314468,29.444529,134.830978C29.123472,133.665375,29.239893,131.652435,29.753008,129.497299C30.490358,126.400368,31.77128,123.837082,33.567978,121.863022C35.644665,119.581337,35.633808,119.60952,34.160671,120.324379C33.445377,120.671478,31.868235,121.486389,30.655905,122.135292C26.447592,124.387802,23.955473,125.2314,22.904303,124.759293C22.118168,124.406219,21.943743,122.642952,22.481762,120.487953C22.837461,119.063202,23.095236,118.53479,24.082289,117.207001C24.729374,116.336517,25.714174,115.192383,26.270716,114.66449C28.238161,112.798279,33.828243,108.046059,35.451885,106.859413C36.400532,106.166077,36.958649,105.632118,36.769852,105.598503C36.589729,105.566406,35.162476,105.510628,33.598183,105.474503C29.60874,105.382393,27.38917,104.959877,26.084669,104.044296C25.524576,103.651176,24.996708,103.116043,24.911625,102.855057C24.649822,102.052094,25.004774,100.751549,25.675791,100.055168C26.64237,99.05204,29.293207,97.83226,32.547298,96.893257C34.185276,96.420593,35.694218,95.981148,35.90049,95.916695C36.106762,95.852242,37.198414,95.601036,38.326393,95.358452C39.454369,95.115868,40.706699,94.831749,41.109341,94.727074C41.511993,94.622406,41.908859,94.548767,41.99128,94.563446C42.0737,94.578125,42.469772,94.508949,42.871456,94.409721C43.273132,94.310493,43.909801,94.179314,44.286278,94.118195C44.662758,94.057083,45.692291,93.874756,46.574146,93.713013C47.45599,93.551277,49.858334,93.167366,51.912678,92.859894C53.967022,92.552414,55.86451,92.255333,56.129303,92.199707C56.394108,92.144089,58.106483,91.906319,59.934586,91.671341C61.762695,91.436363,63.372032,91.143341,63.510887,91.020187C63.64975,90.897034,65.131676,88.777367,66.804062,86.309799C68.476448,83.842247,70.249435,81.239044,70.744019,80.524902C71.238609,79.81076,71.649971,79.188881,71.65815,79.142929C71.666351,79.096947,72.338226,78.123489,73.151245,76.979584C73.964272,75.835693,74.647797,74.796814,74.670204,74.670975C74.692612,74.54512,74.522453,73.890526,74.292076,73.216301C74.061707,72.542076,73.554291,70.986443,73.164505,69.759315C71.624847,64.91217,70.702744,62.046539,70.139259,60.357758C69.815048,59.38604,69.33387,57.849709,69.069984,56.943687C68.594048,55.309593,68.5942,55.288292,69.089081,54.288231C69.363472,53.733757,70.263664,51.805107,71.089523,50.002342C72.504814,46.912903,73.025383,45.787338,76.285713,38.767334L77.605148,35.926376L77.0989,34.183563C75.923309,30.136475,73.752914,26.108303,72.121201,24.945154C71.525558,24.520554,71.07209,24.385195,69.927803,24.290417C68.25602,24.151953,67.568268,23.751244,67.417397,22.827759C67.124496,21.035006,70.71917,19.932724,74.688522,20.59812C78.429253,21.225241,82.390831,23.321037,85.752708,26.45159C88.170654,28.703154,89.666275,32.299721,89.990738,36.642899C90.07029,37.707718,89.93251,38.846153,89.402237,41.505417L88.709908,44.977615L90.4645,45.700706C96.591599,48.225746,102.118179,52.752869,105.87516,58.324402C109.667641,63.94857,111.515739,69.588661,112.151016,77.477272C112.240623,78.590019,112.302727,79.947113,112.289001,80.493057C112.242996,82.322441,112.194801,82.254753,113.616707,82.35743C115.364967,82.483673,115.524384,82.872635,114.856087,85.381607C113.087334,92.022186,112.638718,93.836342,112.694153,94.124275C112.731354,94.31749,113.336906,94.665504,114.181587,94.979095C114.965187,95.270004,116.064857,95.732544,116.625328,96.006935C120.37204,97.841324,121.61953,98.493881,124.12487,99.929932C128.889114,102.660767,134.105591,106.341377,138.395737,109.999077C142.673981,113.646652,146.728973,117.572937,148.931702,120.200653C150.038269,121.520714,150.0979,122.293922,149.112656,122.54686C148.625473,122.671928,148.319504,122.579163,147.378281,122.021263C141.026474,118.255943,135.219055,114.922653,135.053131,114.946983C134.940659,114.963478,135.216507,115.391296,135.666122,115.897713C136.477875,116.811996,137.14772,118.25174,137.040787,118.852272C136.872833,119.795441,135.130768,119.870819,133.768616,118.993858C133.376129,118.74118,133.00351,118.525261,132.940582,118.514061C132.877686,118.502861,133.610275,119.655312,134.568619,121.075073C138.463257,126.844963,139.62709,129.981842,138.233795,130.953918C137.940155,131.158783,137.510254,131.292648,137.278442,131.251358C136.629196,131.135742,134.817795,130.002304,133.815384,129.084427C133.319153,128.630066,132.85849,128.248566,132.791687,128.236664C132.724884,128.224762,133.074203,128.853363,133.567963,129.633545C135.711395,133.020386,137.158051,137.263168,137.816391,142.093338C138.120514,144.324814,137.563156,147.599228,136.748444,148.367157C135.962524,149.107941,134.98497,148.995972,134.039978,148.056915C133.637939,147.65741,132.441513,145.817108,131.381226,143.967331C129.385559,140.485657,126.495003,136.260071,126.233681,136.442368C126.151573,136.499664,126.224678,136.900787,126.395844,137.333755C127.607803,140.397202,128.165527,147.540359,127.48925,151.338043C127.255531,152.650589,126.528137,154.570831,126.134773,154.913818C125.989677,155.040314,125.590157,155.093796,125.24691,155.032684C124.472473,154.894775,124.204063,154.49147,121.399193,149.251373C119.284737,145.301117,118.628166,144.298584,119.040154,145.649292C119.152603,146.017975,119.261627,146.846512,119.282463,147.490509C119.313766,148.459915,119.234962,148.798538,118.824127,149.458435C118.384567,150.16452,118.246407,150.240952,117.613571,150.12825C117.220673,150.058243,116.657799,149.856476,116.362762,149.679825C115.894402,149.399353,115.835983,149.408768,115.902451,149.754028C116.234093,151.476852,115.518593,153.413666,114.323418,154.028259C111.608147,155.424545,105.202507,156.224106,99.91169,155.827133C91.515305,155.197159,85.110542,152.482315,80.625343,147.652069L79.039406,145.944122L78.65667,148.02327C78.446129,149.166794,78.098335,150.420135,77.883743,150.808441C77.547806,151.416306,77.386185,151.504517,76.721207,151.442963C76.115303,151.386856,75.765839,151.172073,75.099701,150.446045C73.913345,149.153152,73.308357,147.528412,72.881599,144.489212C72.758743,143.614288,72.605072,142.813293,72.540108,142.709244C72.475151,142.605148,71.845116,144.188019,71.140053,146.226639C69.229385,151.751175,68.564926,152.694153,66.803787,152.380554C65.974487,152.23288,65.681862,152.060394,65.223816,151.44931L65.223763,151.449265z"/>
</svg>
