<?xml version="1.0" encoding="UTF-8" standalone="no"?>
<!-- Created with Inkscape (http://www.inkscape.org/) -->

<svg
   width="210mm"
   height="297mm"
   viewBox="0 0 210 297"
   version="1.1"
   id="svg6883"
   inkscape:version="1.1 (c68e22c387, 2021-05-23)"
   sodipodi:docname="Joda-Kopf.svg"
   xmlns:inkscape="http://www.inkscape.org/namespaces/inkscape"
   xmlns:sodipodi="http://sodipodi.sourceforge.net/DTD/sodipodi-0.dtd"
   xmlns="http://www.w3.org/2000/svg"
   xmlns:svg="http://www.w3.org/2000/svg">
  <sodipodi:namedview
     id="namedview6885"
     pagecolor="#ffffff"
     bordercolor="#666666"
     borderopacity="1.0"
     inkscape:pageshadow="2"
     inkscape:pageopacity="0.0"
     inkscape:pagecheckerboard="0"
     inkscape:document-units="mm"
     showgrid="false"
     inkscape:zoom="0.69397447"
     inkscape:cx="334.30625"
     inkscape:cy="561.25984"
     inkscape:window-width="1920"
     inkscape:window-height="1017"
     inkscape:window-x="-8"
     inkscape:window-y="-8"
     inkscape:window-maximized="1"
     inkscape:current-layer="layer1" />
  <defs
     id="defs6880" />
  <g
     inkscape:label="Ebene 1"
     inkscape:groupmode="layer"
     id="layer1">
    <path
       style="fill:none;stroke:#000000;stroke-width:0.1;stroke-miterlimit:4;stroke-dasharray:none;stroke-opacity:1"
       d="m 98.797144,138.45505 c -0.53358,-0.0744 -2.16076,-0.27329 -3.61597,-0.44187 l -2.64584,-0.30651 -3.84121,-1.96196 -3.8412,-1.96197 -3.83171,-3.68533 c -3.42197,-3.29124 -4.14293,-3.89248 -6.74212,-5.62264 -1.60073,-1.06553 -2.98444,-2.00528 -3.07491,-2.08834 -0.18858,-0.17312 0.4953,0.0195 1.70158,0.47926 0.45735,0.17432 0.87352,0.27496 0.92483,0.22365 0.0513,-0.0513 -0.0705,-0.43224 -0.27063,-0.84651 -0.20015,-0.41427 -0.33148,-0.78565 -0.29184,-0.82529 0.0396,-0.0396 1.45411,0.50326 3.14326,1.20645 l 3.07118,1.27853 3.81626,0.0329 3.81626,0.0329 3.50388,2.64566 c 1.92713,1.45512 3.742,2.8707 4.03304,3.14574 0.29104,0.27504 1.13196,1.07587 1.86871,1.77963 l 1.33954,1.27956 1.17454,-0.16634 c 1.112096,-0.15749 1.272796,-0.24439 3.023196,-1.63477 1.62323,-1.28936 1.80063,-1.48196 1.45468,-1.57937 -0.2167,-0.061 -1.4872,-0.37012 -2.82333,-0.68688 -1.336126,-0.31677 -2.397046,-0.60822 -2.357596,-0.64766 0.0395,-0.0395 1.01028,0.0514 2.157406,0.20181 2.75752,0.36163 4.99149,0.35323 6.18588,-0.0233 0.51785,-0.16324 0.94155,-0.35605 0.94155,-0.42847 0,-0.1674 -1.14802,-0.40134 -4.62577,-0.94264 -7.767016,-1.20891 -8.779476,-1.43739 -11.006396,-2.48375 -1.98055,-0.93061 -3.12797,-1.42421 -7.90476,-3.4005 -1.89241,-0.78294 -2.37126,-1.08086 -4.72771,-2.94141 -1.44212,-1.13862 -2.58861,-2.10365 -2.54776,-2.1445 0.0409,-0.0408 1.03839,0.52405 2.21677,1.25532 1.17837,0.73127 3.07398,1.77281 4.21247,2.31452 4.86495,2.31486 6.98552,3.27497 9.47562,4.29018 2.53206,1.03233 2.78041,1.09654 5.90903,1.52769 1.796226,0.24754 3.753596,0.49502 4.349696,0.54996 1.96646,0.18121 6.87147,-0.78339 6.39374,-1.25738 -0.0381,-0.0378 -0.68425,-0.1541 -1.43593,-0.25849 -1.82616,-0.25363 -8.329816,-1.87183 -9.216626,-2.29323 -0.38806,-0.1844 -1.06275,-0.49435 -1.49931,-0.68877 -0.43656,-0.19442 -1.23031,-0.54775 -1.76389,-0.78519 -0.53358,-0.23743 -2.53763,-1.52565 -4.45346,-2.86271 -2.80971,-1.9609 -3.58042,-2.5884 -3.98544,-3.24485 -0.27617,-0.44762 -0.80074,-1.27969 -1.16573,-1.84906 -0.36498,-0.56937 -0.58873,-1.00593 -0.49721,-0.97014 0.0915,0.0358 0.79452,0.77269 1.56224,1.63756 1.44815,1.6314 1.85699,1.93268 7.12861,5.25305 2.28656,1.44021 2.53722,1.55035 6.295356,2.76607 l 3.91398,1.26613 2.52408,-0.049 2.52409,-0.049 -1.5875,-0.5836 c -4.008,-1.47341 -6.28759,-2.56704 -7.39085,-3.54576 -0.591696,-0.52489 -1.102706,-1.02231 -1.135586,-1.10537 -0.0329,-0.0831 0.57642,0.27481 1.353976,0.79527 1.68701,1.12918 1.6007,1.09428 5.49677,2.22264 3.35213,0.97083 3.52778,1.00412 3.52778,0.66857 0,-0.12393 -0.53578,-0.45561 -1.19063,-0.73707 -2.0593,-0.88509 -7.31498,-3.65672 -8.510756,-4.48823 -0.63059,-0.43849 -1.58309,-1.10215 -2.11666,-1.4748 -0.89466,-0.62482 -3.12625,-2.89394 -2.97584,-3.02588 0.036,-0.0316 1.17667,0.76633 2.53486,1.7731 3.306976,2.45132 7.792666,4.74825 11.800806,6.0427 1.54274,0.49823 2.83427,0.87658 2.87008,0.84078 0.0358,-0.0358 -0.45178,-0.45366 -1.08351,-0.92858 -1.95746,-1.47158 -5.16158,-6.08053 -4.73713,-6.8141 0.0413,-0.0714 0.55555,0.58131 1.14278,1.45041 1.04154,1.54147 3.52058,4.03737 5.99336,6.03411 0.91095,0.73558 1.13771,0.82793 2.73403,1.11352 0.95738,0.17127 2.87541,0.53736 4.26229,0.81352 2.41693,0.48126 2.55787,0.53334 3.3954,1.2546 0.48059,0.41388 0.87384,0.7996 0.87389,0.85716 1.5e-4,0.18677 -3.2285,1.3858 -4.49783,1.67037 -0.6791,0.15225 -2.09056,0.4679 -3.13657,0.70144 -1.32251,0.29528 -2.08818,0.56676 -2.51354,0.8912 -0.33644,0.25661 -0.6117,0.52449 -0.6117,0.59529 0,0.13827 2.56512,0.53641 3.43958,0.53387 0.47391,-0.001 5.51067,-1.83767 6.32308,-2.30525 0.17922,-0.10315 0.37212,-0.14129 0.42867,-0.0847 0.2037,0.2037 -2.38046,3.73253 -4.16467,5.6871 -1.65409,1.81202 -5.68765,5.52342 -6.00287,5.52342 -0.071,0 -2.09787,0.39688 -4.50418,0.88195 -4.13807,0.83416 -4.5151,0.88078 -6.95882,0.86043 -1.42103,-0.0118 -3.020256,-0.0824 -3.553836,-0.15687 z m -29.92722,-19.53483 c -5.232604,-4.69459 -6.305603,-5.84273 -9.785829,-10.47109 -1.851163,-2.46186 -4.266474,-5.84534 -5.367357,-7.51883 L 51.71513,97.887602 h -0.688316 -0.688315 l -0.09895,1.19062 c -0.06949,0.8362 -0.02919,1.299268 0.135394,1.555588 0.128887,0.20073 1.361595,1.82791 2.739353,3.61597 1.58075,2.0515 2.79503,3.82726 3.291044,4.81281 0.432321,0.85898 0.754086,1.59374 0.715037,1.63279 -0.06286,0.0629 -2.47634,-2.61622 -6.011439,-6.67298 -0.798865,-0.91675 -1.789361,-1.77575 -3.031153,-2.62874 -1.014494,-0.69687 -1.844534,-1.31083 -1.844534,-1.36437 0,-0.0535 0.448296,-0.804508 0.996214,-1.668808 1.012845,-1.5977 2.740422,-5.22184 3.534827,-7.41541 l 0.43816,-1.20989 -0.464571,-2.67067 c -0.488472,-2.80806 -0.635219,-3.31861 -1.933709,-6.72761 l -0.806242,-2.11667 -3.53e-4,-3.22288 -3.53e-4,-3.22288 -0.485069,-0.19031 c -1.66407,-0.65287 -3.121122,-1.67679 -10.098264,-7.0964 -0.921632,-0.71589 -2.479689,-1.866908 -3.462348,-2.557808 -1.476366,-1.03803 -2.304751,-1.83094 -4.769888,-4.5656 -5.303343,-5.88308 -5.248973,-5.7967 -9.133098,-14.51009 -1.361741,-3.05485 -1.502878,-3.48845 -2.210482,-6.79098 -0.923493,-4.31013 -1.117278,-6.20065 -0.750202,-7.31875 0.409781,-1.24818 0.898589,-1.64779 2.014905,-1.64722 0.515198,3.5e-4 1.261149,0.0619 1.65767,0.13698 0.528407,0.10004 0.865031,0.062 1.260461,-0.1425 0.50846,-0.26294 0.579519,-0.25644 1.234451,0.11291 0.382214,0.21556 1.242866,0.98723 1.912561,1.71483 0.669695,0.72761 1.944294,1.95792 2.832443,2.73403 1.448012,1.26535 1.812618,1.4863 3.529753,2.13904 1.053217,0.40037 2.803626,0.9507 3.889799,1.22296 1.853879,0.4647 2.005155,0.53624 2.469444,1.16788 0.511383,0.69571 0.591654,0.73044 3.797236,1.64318 0.770322,0.21934 1.439187,0.63032 2.822223,1.73409 0.996944,0.79564 2.256991,1.74802 2.800103,2.11639 l 0.987477,0.66977 1.040995,-0.3449 c 0.623878,-0.2067 1.288367,-0.30887 1.658357,-0.25499 0.339548,0.0495 1.807986,0.59166 3.263194,1.20491 1.455208,0.61325 4.153958,1.64686 5.997222,2.29692 1.843264,0.65005 3.403812,1.23049 3.467885,1.28986 0.06407,0.0594 0.04617,0.54266 -0.03979,1.07397 -0.158655,0.98068 -0.05121,2.29717 0.18748,2.29717 0.072,0 0.172087,-0.36537 0.222421,-0.81193 0.129525,-1.14914 0.401675,-1.3755 1.286441,-1.07 0.61179,0.21125 0.71551,0.32946 0.85375,0.973 l 0.15735,0.73254 h 0.83801 c 0.88856,0 1.05215,0.15308 1.05215,0.98457 0,0.39499 0.0661,0.42655 0.89334,0.42655 0.89164,0 2.63443,0.59858 2.63443,0.90482 0,0.47196 -0.58146,3.91963 -0.80959,4.80038 -0.14687,0.56699 -0.23711,1.12065 -0.20054,1.23036 0.0712,0.21345 1.10797,-1.55158 1.70689,-2.90573 0.45384,-1.02613 1.43523,-1.6904 2.07004,-1.40117 0.22451,0.1023 0.4082,0.26865 0.4082,0.36967 0,0.34982 -0.86138,1.54613 -1.44363,2.00495 -0.7121,0.56114 -0.57383,0.57755 1.70822,0.2026 0.87312,-0.14346 1.64703,-0.26222 1.71979,-0.26392 0.2733,-0.006 0.11127,0.33002 -0.57279,1.18916 -0.46461,0.58353 -1.33348,1.28614 -2.54771,2.0602 l -1.84264,1.17467 -1.78552,2.895928 c -1.97849,3.2089 -1.67549,2.96828 -3.96697,3.15032 -0.63556,0.0505 -1.720619,0.34602 -2.716274,0.73982 l -1.657947,0.65575 -2.487192,-0.40076 -2.487195,-0.40075 -2.734027,-1.50946 c -3.742985,-2.0665 -5.476581,-3.352718 -8.466667,-6.281708 -4.064434,-3.98139 -4.223053,-4.09376 -6.649813,-4.71107 -2.635672,-0.67045 -4.545595,-1.66434 -6.831266,-3.55489 -1.566778,-1.29593 -1.899232,-1.6807 -3.156568,-3.65334 -0.839145,-1.31654 -2.030484,-3.57808 -2.956972,-5.61326 -1.336553,-2.93595 -2.505675,-5.11386 -3.47283,-6.46938 -0.224919,-0.31524 -0.239524,-0.23584 -0.137239,0.74613 0.06296,0.6044 0.27924,1.47752 0.480632,1.94028 0.201393,0.46275 0.505799,1.15887 0.676458,1.54692 0.17066,0.38806 0.568319,1.30087 0.883688,2.02847 0.315369,0.72761 1.273574,2.72375 2.129345,4.43587 l 1.555949,3.11295 1.816044,1.63566 c 2.176166,1.96001 5.748295,4.32847 7.479454,4.95916 1.128619,0.41118 1.410166,0.61994 2.822223,2.09262 1.599242,1.66791 7.696519,6.651888 10.961242,8.959848 1.768449,1.25018 1.990145,1.48161 1.631598,1.7032 -0.335564,0.20739 -0.162395,0.53147 0.578717,1.08304 0.747039,0.55598 1.552217,0.75408 4.183782,1.02937 1.640918,0.17166 5.019278,-0.217 7.471328,-0.85954 l 2.26785,-0.59427 1.23022,-1.21124 c 0.91042,-0.89637 1.43008,-1.60608 1.99901,-2.73007 0.67531,-1.33416 0.94395,-1.66375 2.20945,-2.710718 l 1.44066,-1.19189 1.43623,0.43175 1.43622,0.43176 -0.055,1.746548 c -0.0442,1.40464 -0.12782,1.86444 -0.42715,2.34877 -1.0613,1.71723 1.76376,-1.31301 3.10284,-3.328188 1.05149,-1.58237 1.22261,-1.53739 0.71096,0.186898 -0.16146,0.54415 -0.54249,1.24405 -0.88194,1.62003 -0.32872,0.36408 -0.59767,0.69526 -0.59767,0.73595 0,0.0407 0.71591,-0.28873 1.59091,-0.73206 0.875,-0.44332 1.62559,-0.77135 1.66798,-0.72896 0.0424,0.0424 -0.39595,0.62413 -0.9741,1.29275 -0.96572,1.11686 -1.39933,1.97969 -1.40186,2.78956 -0.002,0.54993 1.20867,-0.43404 1.79346,-1.45798 0.34444,-0.60309 0.79313,-1.07466 1.34554,-1.41415 0.45582,-0.28014 1.22186,-0.75652 1.7023,-1.05863 0.48044,-0.30211 1.39325,-0.66232 2.02847,-0.80048 0.63522,-0.13816 1.33354,-0.3017 1.55182,-0.36342 0.88755,-0.250968 0.29467,0.15993 -1.41111,0.97797 -1.36263,0.65348 -2.04441,1.10793 -2.76779,1.84492 -1.76234,1.79549 -0.71066,1.48138 2.68111,-0.8008 1.68774,-1.1356 2.53413,-1.56791 4.4166,-2.255858 2.18574,-0.79879 5.68892,-1.73941 5.85597,-1.57236 0.0414,0.0413 -1.48941,0.61825 -3.4017,1.28199 -4.11282,1.427508 -3.94867,1.350218 -6.696,3.152958 -2.29668,1.50703 -2.72572,2.06407 -1.5875,2.06112 0.41994,-0.001 0.97426,-0.29065 2.07257,-1.08268 1.43156,-1.03233 4.61979,-2.70078 4.94191,-2.58617 0.16906,0.0602 -4.01528,3.28414 -5.31524,4.09533 -0.61311,0.38259 -0.87225,0.67958 -1.01829,1.16699 -0.27415,0.91505 -0.2585,0.98523 0.3099,1.38997 l 0.50578,0.36015 0.86123,-0.41758 c 0.60636,-0.29399 1.08325,-0.72143 1.61141,-1.44432 0.41259,-0.56472 1.38221,-1.66954 2.1547,-2.45517 1.24636,-1.26755 1.59668,-1.51214 3.11079,-2.17189 2.44204,-1.06409 2.43845,-0.89258 -0.0119,0.56912 -1.36929,0.81682 -3.63039,3.30335 -3.49045,3.83845 0.0862,0.32952 0.19174,0.26265 0.94984,-0.60162 1.73252,-1.97515 6.43109,-4.98299 7.38474,-4.72742 l 0.44097,0.11818 -0.44097,0.27791 c -0.24254,0.15285 -0.9966,0.602 -1.6757,0.99811 -0.6791,0.39611 -1.80367,1.19601 -2.49906,1.77756 -1.00542,0.84083 -1.24465,1.13268 -1.16817,1.42515 0.0529,0.20228 0.1456,0.34469 0.20601,0.31647 0.0604,-0.0282 1.52177,-0.74584 3.24747,-1.59471 3.269496,-1.60826 3.481856,-1.66482 5.240836,-1.3959 l 0.79374,0.12135 -1.09871,0.20696 c -1.46915,0.27673 -4.249146,2.14713 -5.844336,3.93211 -0.61722,0.69065 -1.0809,1.29706 -1.0304,1.34756 0.31936,0.31936 2.07102,-0.33143 5.338616,-1.98343 3.38905,-1.71341 3.69096,-1.83178 4.67241,-1.83178 0.57708,0 1.04923,0.0624 1.04923,0.1387 0,0.0763 -0.57195,0.33426 -1.271,0.57327 -1.03983,0.35552 -4.57741,2.46351 -5.32006,3.17013 -0.0841,0.08 0.66998,0.14858 1.67569,0.1524 2.81694,0.0107 4.12601,0.23976 5.59346,0.97876 1.26027,0.63466 1.32953,0.64797 3.92509,0.75452 1.4532,0.0597 2.67222,0.15706 2.70892,0.21645 0.0367,0.0594 -0.66083,0.65046 -1.5501,1.31346 l -1.61686,1.20545 1.23473,-0.11753 c 0.67908,-0.0647 2.00788,-0.23697 2.95284,-0.38293 1.63479,-0.25253 1.81758,-0.32685 3.76862,-1.5323 1.89249,-1.16928 2.18368,-1.42571 3.77877,-3.32779 1.48903,-1.77563 1.75868,-2.19679 1.94799,-3.04271 0.21497,-0.9606 0.23293,-0.98182 0.83163,-0.98182 0.36515,0 1.00935,0.22738 1.59741,0.56385 1.14249,0.65366 2.42486,0.8815 4.10708,0.72971 1.11541,-0.10065 1.18218,-0.13295 1.45427,-0.70353 0.15784,-0.33101 0.49644,-0.67836 0.7583,-0.77792 0.40464,-0.15385 0.58073,-0.1026 1.21661,0.35406 0.88633,0.63652 2.41978,1.06855 3.79267,1.06855 0.54816,0 1.36936,0.0511 1.82488,0.11352 0.77476,0.1062 0.85622,0.16875 1.26164,0.96881 0.63602,1.25512 0.47625,1.95055 -0.95775,4.16879 -0.98113,1.51771 -1.2283,1.79398 -1.52386,1.7033 -0.19402,-0.0595 -0.57105,-0.14951 -0.83785,-0.19996 -0.48442,-0.0916 -0.48507,-0.0903 -0.48538,0.94254 -3.5e-4,1.02861 -0.004,1.0369 -0.76815,1.51932 -0.4223,0.26679 -0.86172,0.48507 -0.97647,0.48507 -0.75965,0 -3.5867,-1.37887 -5.59754,-2.73017 -1.97429,-1.32673 -2.4319,-1.7304 -3.50544,-3.09222 -0.6791,-0.86146 -1.28494,-1.57071 -1.3463,-1.57611 -0.0614,-0.005 -0.45808,0.52595 -0.88158,1.18079 -0.86031,1.33024 -4.05531,5.37745 -5.14366,6.51568 -0.38862,0.40641 -1.23436,1.10284 -1.87946,1.54762 l -1.17288,0.80868 -3.51931,0.008 c -1.93563,0.004 -5.464,-0.11717 -7.84084,-0.2696 -2.37684,-0.15244 -6.199406,-0.39426 -8.494596,-0.53739 -2.2952,-0.14313 -4.87488,-0.33602 -5.73264,-0.42863 -0.85776,-0.0926 -2.32934,-0.22241 -3.27019,-0.28843 l -1.71062,-0.12003 -1.42028,1.28869 c -0.78115,0.70877 -1.42028,1.3529 -1.42028,1.4314 0,0.0785 1.11603,0.14271 2.48007,0.14271 2.34974,0 2.78493,0.061 8.28169,1.16016 l 5.80164,1.16017 4.197816,-0.68698 c 2.30879,-0.37784 4.22203,-0.6288 4.25164,-0.55769 0.0296,0.0711 -0.75842,1.22739 -1.75116,2.56952 -0.99274,1.34213 -1.8197,2.46245 -1.83769,2.48961 -0.018,0.0272 -1.39769,0.56282 -3.066,1.19036 l -3.033276,1.14098 -4.20549,0.33124 -4.20549,0.33124 -2.08986,1.09288 c -3.02277,1.58074 -2.76837,1.23892 -2.52204,3.38861 0.11495,1.00316 0.22758,1.84521 0.25028,1.87122 0.0227,0.026 1.97793,-0.11744 4.34493,-0.31877 l 4.30363,-0.36606 1.94028,-1.02631 c 1.06716,-0.56448 2.29747,-1.22251 2.73403,-1.4623 0.43656,-0.2398 1.508126,-0.81693 2.381246,-1.28253 0.87313,-0.4656 2.1343,-1.15461 2.8026,-1.53114 0.66831,-0.37654 1.24802,-0.65169 1.28824,-0.61146 0.14568,0.14568 -4.83728,5.57969 -8.527506,9.2994 l -3.77629,3.806448 -2.18721,0.73556 -2.18722,0.73556 h -5.19837 -5.19837 l -2.35257,-1.72361 c -2.67114,-1.957 -2.21869,-1.32739 -5.55376,-7.728438 l -1.84597,-3.54302 -2.73358,-1.19708 c -1.503467,-0.6584 -2.763693,-1.16697 -2.800504,-1.13016 -0.06124,0.0613 1.139069,1.58112 4.911524,6.21912 0.76428,0.93965 1.3543,1.74376 1.31114,1.78692 -0.0432,0.0432 -1.29369,-0.79651 -2.77897,-1.86593 -1.48528,-1.06943 -2.742089,-1.90282 -2.792918,-1.852 -0.05083,0.0508 0.196551,0.73361 0.549731,1.51729 l 0.642147,1.42486 -0.450402,2.45144 -0.4504,2.451428 0.383661,1.37411 c 0.488761,1.75053 0.462431,1.70375 2.312361,4.10813 1.32581,1.72317 2.06338,2.45324 4.90046,4.85069 1.83685,1.55223 3.34476,2.87906 3.35089,2.94851 0.029,0.32878 -2.33117,-0.83101 -5.36871,-2.63816 l -3.35139,-1.99386 1.15008,1.10634 c 0.63254,0.60849 1.5595,1.48341 2.05992,1.94427 0.65089,0.59944 1.01563,1.12063 1.28148,1.83118 0.20439,0.54629 0.33704,1.02784 0.29476,1.07011 -0.0423,0.0423 -0.47898,-0.12691 -0.97047,-0.37597 -0.98363,-0.49844 -1.34616,-0.56863 -1.20012,-0.23235 0.73032,1.68173 1.86671,4.61637 1.8097,4.67338 -0.0408,0.0408 -0.77543,-0.55485 -1.63243,-1.32374 z m 43.460826,-5.7497 c -1.04989,-0.66718 -1.32299,-0.96412 -2.25103,-2.44751 -0.9348,-1.49421 -1.10667,-1.91651 -1.49556,-3.67476 -0.42949,-1.9418 -0.46432,-2.66338 -0.0794,-1.64449 1.50794,3.99141 2.65985,5.70896 4.30052,6.41223 0.93349,0.40014 1.18856,0.35933 0.78048,-0.12488 -0.14357,-0.17037 -0.67609,-0.79658 -1.18337,-1.39159 l -0.92232,-1.08182 0.0526,-1.21123 0.0526,-1.21123 0.83341,1.61923 c 0.82975,1.61212 1.32525,2.14865 2.56208,2.77419 0.67859,0.34321 0.77193,0.0664 0.12135,-0.35987 -0.44,-0.2883 -1.45262,-2.00509 -1.18266,-2.00508 0.0744,10e-6 0.35397,0.27409 0.62124,0.60908 0.57423,0.71966 1.46807,1.41718 2.03828,1.59059 l 0.40761,0.12396 -0.47898,-0.94133 c -0.26343,-0.51773 -0.62395,-1.49696 -0.80115,-2.17605 -0.27549,-1.05574 -0.29583,-1.45018 -0.14029,-2.72106 0.20625,-1.68519 0.1299,-1.50671 1.2642,-2.95554 0.70159,-0.89613 1.01284,-1.14332 1.74635,-1.38696 1.35771,-0.45095 2.64139,-0.29287 4.13047,0.50865 3.69968,1.99143 5.0683,2.30125 10.22115,2.31383 3.02547,0.007 3.24252,-0.0154 4.60859,-0.48461 4.2304,-1.4529 6.96916,-4.494038 8.60672,-9.556918 0.25015,-0.77342 0.45482,-1.49404 0.45482,-1.60137 0,-0.10733 0.28074,-1.06204 0.62385,-2.12156 0.60642,-1.87257 0.62058,-1.9794 0.50649,-3.82259 -0.0646,-1.0429 -0.0774,-1.89618 -0.0285,-1.89618 0.13329,0 2.47277,1.08063 4.34131,2.00531 0.90792,0.4493 1.7612,0.81691 1.89618,0.81691 0.16036,0 0.24359,-0.19867 0.24015,-0.57326 -0.005,-0.5184 -0.12243,-0.64443 -1.22958,-1.31686 -0.88946,-0.54022 -1.55136,-0.79685 -2.42008,-0.93829 -1.67888,-0.27337 -2.08392,-0.4639 -2.85962,-1.34513 -0.52161,-0.59258 -0.75418,-1.07348 -0.99078,-2.04867 -0.49154,-2.026 -0.69866,-2.50259 -2.54691,-5.86043 -1.94372,-3.53129 -2.0665,-3.79236 -1.78364,-3.79236 0.10798,0 0.88347,0.93266 1.72332,2.07257 2.08845,2.8346 4.80061,5.86626 5.92047,6.6179 0.63279,0.42473 1.21694,0.6581 1.8325,0.7321 0.81205,0.0976 1.01485,0.0458 2.00132,-0.51183 0.98091,-0.55444 1.23619,-0.62046 2.39915,-0.62046 1.26278,0 1.30944,0.0155 1.57056,0.52041 0.18172,0.35142 0.26911,1.0271 0.26911,2.08083 v 1.56043 l -2.75668,4.31326 c -3.38866,5.30209 -3.9073,6.11916 -4.83109,7.61092 -0.6839,1.10438 -1.69208,2.17325 -4.64517,4.924808 -1.93909,1.80674 -5.9245,4.48876 -8.40872,5.6587 -2.08223,0.98063 -2.23634,1.08897 -2.68533,1.88769 -0.43746,0.77821 -2.05065,2.48215 -3.43207,3.62514 -0.31093,0.25727 -1.3428,0.72914 -2.29307,1.04861 -1.62588,0.54663 -1.92527,0.58813 -5.07911,0.70417 -1.84326,0.0678 -4.30389,0.19738 -5.46806,0.28791 -1.16417,0.0905 -2.75166,0.16442 -3.52778,0.16419 -1.36,-3.5e-4 -1.45438,-0.0279 -2.60597,-0.7597 z m 32.50389,-22.537798 c -1.17876,-0.47303 -4.88815,-0.62049 -8.81944,-0.35061 -2.72308,0.18694 -4.59879,-0.13284 -7.01443,-1.19586 -2.81644,-1.2394 -10.10333,-2.31453 -14.10815,-2.08156 -0.89738,0.0522 -1.6316,0.0375 -1.6316,-0.0327 0,-0.0702 0.26113,-0.38074 0.58027,-0.69007 0.38658,-0.37468 1.09576,-0.73666 2.12467,-1.08445 0.84944,-0.28713 1.86002,-0.77201 2.24576,-1.07751 0.95017,-0.75256 1.71654,-1.91114 1.86077,-2.8131 0.13763,-0.86071 0.32014,-0.66312 0.48897,0.52939 0.0778,0.54926 0.007,1.16149 -0.23114,1.98767 -0.22386,0.7781 -0.27071,1.15253 -0.13452,1.07508 0.59706,-0.33956 1.75705,-1.39335 1.89281,-1.71953 0.0854,-0.2052 0.2921,-0.69059 0.45933,-1.07864 l 0.30404,-0.70556 0.10178,0.79375 c 0.0964,0.75204 -0.14194,2.54945 -0.42689,3.2191 -0.11061,0.25989 -0.0347,0.30868 0.48026,0.30868 1.11435,0 2.18032,-0.21176 2.57871,-0.51226 0.21622,-0.16309 0.58338,-0.80908 0.81594,-1.43553 0.34683,-0.93432 0.42447,-1.04265 0.43201,-0.60281 0.012,0.7 -0.46776,2.53156 -0.79353,3.02947 -0.43353,0.66257 -0.31891,0.87562 0.53398,0.99252 1.01222,0.13874 1.32707,0.01 1.32707,-0.54375 0,-0.9216 0.40037,-1.81023 0.97584,-2.16588 0.31081,-0.19209 0.61303,-0.34926 0.67162,-0.34926 0.0586,0 -0.0897,0.36901 -0.3295,0.82002 -0.54336,1.02191 -0.58438,2.16604 -0.0936,2.6102 0.28013,0.25352 0.51279,0.28682 1.27882,0.18305 1.11813,-0.15147 1.75255,-0.45146 2.22501,-1.05211 0.46187,-0.58716 0.65124,-0.56074 0.92297,0.12877 0.31036,0.78755 1.04098,1.5434 1.49186,1.5434 0.20584,0 0.52564,-0.11069 0.71067,-0.24598 0.31157,-0.22784 0.31917,-0.31323 0.10293,-1.15696 -0.12841,-0.50103 -0.19521,-0.94922 -0.14846,-0.99598 0.1846,-0.18461 1.22871,0.90417 1.63393,1.70386 0.52083,1.02781 0.76672,1.20463 1.07978,0.77649 0.33476,-0.45781 0.29574,-1.12796 -0.11229,-1.92828 -0.19255,-0.3777 -0.31842,-0.71841 -0.27968,-0.75714 0.20337,-0.20337 0.81822,0.40696 1.15427,1.1458 0.54866,1.2063 0.62777,1.3425 0.81612,1.40529 0.21588,0.072 0.79661,-0.90586 0.95652,-1.61056 0.10633,-0.46854 0.142,-0.4962 0.2651,-0.20552 0.0804,0.18984 0.0516,0.67464 -0.0661,1.11496 -0.23036,0.86127 -0.16176,1.1068 0.30921,1.1068 0.59432,0 1.4098,-1.36653 1.44394,-2.41968 0.0159,-0.49039 0.016,-0.49034 0.17921,0.0739 0.14572,0.50389 0.11065,0.85393 -0.21734,2.16935 -0.0928,0.37208 1.15994,0.31886 1.58677,-0.0674 0.3325,-0.3009 0.70907,-1.33399 0.75444,-2.06971 0.0143,-0.23128 0.0812,0.0557 0.14874,0.63783 0.10023,0.86369 0.063,1.15948 -0.20232,1.60832 -0.3568,0.60356 -0.42326,1.22062 -0.14969,1.3897 0.2409,0.14889 0.57525,0.79698 0.40403,0.78316 -0.0762,-0.006 -0.33693,-0.0908 -0.57947,-0.18814 z m 16.05138,-7.30133 c 0,-0.0584 0.79708,-0.99422 1.7713,-2.07953 1.711,-1.90612 1.81239,-2.06636 2.97869,-4.70732 0.66407,-1.50372 1.78009,-3.72622 2.48006,-4.93889 0.69996,-1.21268 1.53696,-2.7208 1.86,-3.35139 0.84763,-1.65463 4.11565,-4.86092 6.8049,-6.676378 1.76877,-1.19406 2.26845,-1.44025 3.66007,-1.80333 0.88641,-0.23126 1.61165,-0.47809 1.61165,-0.5485 0,-0.23991 -1.27348,-0.36771 -2.74761,-0.27574 -1.33005,0.083 -1.61964,0.17147 -3.02178,0.92336 -0.85291,0.45737 -2.32427,1.34801 -3.26968,1.97919 l -1.71894,1.14761 -0.8387,-0.53146 c -0.91246,-0.5782 -2.29736,-1.09588 -2.91744,-1.09057 -0.31314,0.003 -0.23313,0.10541 0.40304,0.5174 0.43656,0.28273 1.11125,0.79567 1.4993,1.139868 l 0.70556,0.62583 -1.68015,1.65108 c -1.23439,1.21304 -1.88954,1.72089 -2.46936,1.91416 -0.75522,0.25174 -0.79435,0.29897 -0.90842,1.09641 -0.18336,1.28183 -0.33442,1.37957 -1.50807,0.97578 -0.54363,-0.18704 -1.03022,-0.29826 -1.08131,-0.24717 -0.0511,0.0511 0.0821,0.57933 0.29604,1.17386 0.21392,0.59454 0.36623,1.10368 0.33847,1.13144 -0.0277,0.0278 -0.57665,-0.27624 -1.21978,-0.67554 -1.16587,-0.72388 -1.16989,-0.72916 -1.3693,-1.79714 -0.10999,-0.58912 -0.5123,-1.70613 -0.89402,-2.48224 -0.89759,-1.82495 -1.41541,-3.23925 -1.22832,-3.35487 0.0815,-0.0504 0.48842,-0.0151 0.90432,0.0783 0.84294,0.18939 1.05674,0.11914 0.63591,-0.208968 -0.15426,-0.12026 -0.68424,-0.53263 -1.17775,-0.91637 -0.49351,-0.38373 -0.89729,-0.84014 -0.89729,-1.01423 0,-0.28584 0.19393,-0.31653 2.00004,-0.31653 1.83879,0 2.17137,-0.0551 4.12481,-0.68283 1.74765,-0.56163 2.57007,-0.95797 4.63368,-2.23306 1.3799,-0.85263 3.26412,-2.14059 4.18716,-2.86214 2.71766,-2.12442 3.83806,-2.27377 7.98487,-1.06444 2.37539,0.69273 3.73092,1.57145 6.21771,4.03056 1.91351,1.89222 2.25246,2.48748 1.6757,2.94274 -0.12259,0.0968 -2.15767,0.22133 -4.5836,0.28055 l -4.3631,0.10652 -1.81193,1.21566 c -0.99655,0.668618 -2.80839,2.050498 -4.02629,3.070838 -1.97843,1.65749 -2.35584,2.06891 -3.542,3.86114 -1.00344,1.51616 -1.64044,2.7684 -2.6087,5.12827 -1.70695,4.16023 -2.9991,6.10574 -5.02917,7.57212 -0.78077,0.56398 -1.5188,1.11018 -1.64007,1.21378 -0.12127,0.1036 -0.22049,0.14056 -0.22049,0.0821 z m -10.94703,-7.13389 c -0.87187,-0.44591 -1.55185,-0.94686 -1.96331,-1.44639 -0.34621,-0.42032 -0.8815,-1.04202 -1.18953,-1.38157 -0.30804,-0.33955 -0.96564,-1.21268 -1.46133,-1.94028 -0.49569,-0.7276 -1.43706,-2.03729 -2.09194,-2.91042 -1.02475,-1.36629 -1.21916,-1.7453 -1.39517,-2.71996 -0.17674,-0.97878 -0.34459,-1.30391 -1.23687,-2.39588 -2.24005,-2.741368 -2.70327,-2.973748 -5.71719,-2.868128 l -2.30804,0.0809 -2.45023,1.17794 c -1.34763,0.64786 -2.48241,1.14576 -2.52174,1.10643 -0.0703,-0.0703 3.04761,-2.19108 3.73724,-2.54205 0.55969,-0.28483 2.75805,-0.57083 4.35532,-0.5666 1.07693,0.003 1.66939,0.0964 2.23443,0.35277 1.10426,0.50107 1.14538,0.47753 1.00791,-0.57713 -0.18959,-1.45446 -0.8288,-2.67137 -1.70732,-3.25034 -0.74971,-0.49408 -0.75179,-0.49837 -0.27037,-0.55469 0.26685,-0.0312 0.80416,0.1095 1.19404,0.31271 l 0.70885,0.36948 -0.12678,-0.40091 c -0.23416,-0.74044 -0.65411,-1.21264 -1.47004,-1.65295 l -0.81076,-0.43753 0.70556,0.10465 c 0.38805,0.0576 0.92383,0.26149 1.19062,0.45319 l 0.48507,0.34854 -7e-4,-0.49035 c -7.1e-4,-0.58961 -0.55377,-1.57203 -1.20239,-2.13615 l -0.47265,-0.41109 0.61736,0.0755 c 0.33955,0.0415 0.76886,0.14063 0.95401,0.2202 0.30457,0.13089 0.32555,0.0872 0.22016,-0.45819 -0.20401,-1.05577 -1.6577,-1.98191 -3.41252,-2.1741 -1.01345,-0.11099 -1.17878,-0.0758 -2.30321,0.49047 -0.66626,0.33552 -1.31575,0.7358 -1.44331,0.8895 -0.20377,0.24552 -0.15969,0.28009 0.36293,0.28464 1.31412,0.0114 3.60134,0.21287 3.72428,0.32798 0.0719,0.0674 -0.56305,0.22819 -1.41111,0.35739 -2.08576,0.31774 -4.4613,1.51243 -4.99673,2.51291 -0.11711,0.21882 -0.12435,0.32239 -0.0179,0.25662 0.28622,-0.17687 3.54572,-0.81425 4.16404,-0.81425 0.31033,0 0.71668,0.11147 0.90299,0.24771 0.31164,0.22787 0.26844,0.2571 -0.53955,0.36499 -1.47645,0.19714 -4.27273,1.47937 -4.24152,1.94494 0.007,0.10971 1.07249,0.17639 2.81741,0.17639 2.08665,0 2.82492,0.0565 2.88102,0.22049 0.0524,0.15318 -0.14892,0.22048 -0.65953,0.22048 -1.00091,0 -3.12976,0.56646 -4.93888,1.31416 -1.62976,0.67358 -2.80732,0.79362 -4.12468,0.42047 -0.85097,-0.24105 -1.7979,-1.06045 -1.95671,-1.69318 -0.15884,-0.63288 -0.3853,-0.30075 -0.60037,0.8805 -0.17818,0.97863 -0.61897,1.90027 -0.90882,1.90027 -0.0779,0 -0.269,0.0489 -0.42462,0.10858 -0.24588,0.0944 -0.26841,-0.0154 -0.17192,-0.83785 0.12876,-1.09764 -0.13405,-2.25937 -0.60818,-2.68846 -0.31888,-0.28858 -0.33437,-0.25573 -0.45459,0.96449 -0.0778,0.78899 -0.29557,1.61208 -0.5802,2.19242 -0.39733,0.81015 -0.53692,0.94262 -1.08955,1.03404 -1.39098,0.23009 -2.21658,0.12389 -3.02464,-0.38909 -1.45236,-0.922 -2.09275,-2.18047 -2.1028,-4.13239 l -0.004,-0.83785 h -1.46018 c -1.30147,0 -1.59384,0.0651 -2.68993,0.59926 -0.69257,0.33749 -1.73058,1.06217 -2.37628,1.65899 l -1.14653,1.05973 1.58751,0.73646 c 2.12726,0.98685 5.96562,2.2177 8.02569,2.57361 1.19565,0.20656 2.40727,0.27136 4.2294,0.22621 l 2.55371,-0.0633 0.10902,0.66495 c 0.12039,0.734208 0.008,0.937258 -0.83906,1.516208 -0.6354,0.43427 -3.93771,1.84508 -4.05179,1.731 -0.0409,-0.0409 0.3285,-0.33296 0.82095,-0.64896 0.49245,-0.316 0.85568,-0.61422 0.80721,-0.6627 -0.0485,-0.0485 -0.46077,0.006 -0.91621,0.12037 -0.71487,0.18 -1.22816,0.14299 -3.75502,-0.2708 l -2.92696,-0.4793 -1.9889,-1.199158 c -1.66071,-1.00129 -2.31558,-1.28481 -3.96875,-1.71817 -1.86053,-0.48772 -2.30938,-0.5311 -7.447896,-0.71987 -6.01354,-0.22091 -10.03859,-0.46826 -11.59841,-0.71276 -1.25654,-0.19696 -2.74839,-1.27415 -3.72154,-2.68712 -0.57668,-0.83731 -0.72169,-1.28551 -1.24558,-3.84969 -0.49124,-2.40442 -1.27787,-5.49962 -1.64531,-6.47393 -0.0457,-0.12126 -0.0151,-0.21988 0.068,-0.21915 0.33311,0.003 1.50413,2.85835 2.00311,4.88437 0.61513,2.49765 1.46614,4.42163 2.41613,5.46242 1.04637,1.14638 2.81184,1.7349 6.18011,2.06016 2.66477,0.25731 2.70505,0.25585 4.8507,-0.17543 1.28297,-0.25788 3.34821,-0.86952 5.074026,-1.50271 1.60073,-0.58729 3.34698,-1.22788 3.88055,-1.42352 0.53358,-0.19564 2.69495,-0.93628 4.80305,-1.64586 l 3.8329,-1.29014 3.04627,-0.0349 c 1.81886,-0.0208 3.52321,0.0529 4.23,0.18299 1.04937,0.19311 1.26462,0.30557 1.89618,0.99073 l 0.71243,0.7729 v -0.54209 c 0,-1.35731 -1.79431,-2.48719 -4.5652,-2.8747 -1.36685,-0.19115 -2.06156,-0.19098 -3.99251,10e-4 -2.1943,0.21818 -2.47695,0.29167 -4.60701,1.19789 -10.434676,4.43937 -12.861076,5.2072 -16.917626,5.35362 -2.15828,0.0779 -2.66964,0.0399 -3.96875,-0.29459 -1.44381,-0.37179 -2.1013,-0.72002 -3.29341,-1.7443 -0.46894,-0.40293 -0.68617,-0.86887 -1.2515,-2.68444 -0.61769,-1.98369 -1.26726,-5.51948 -1.05332,-5.73343 0.0468,-0.0468 0.26196,0.53131 0.47806,1.28474 0.8582,2.99196 1.63019,5.28474 2.0054,5.95598 0.47704,0.8534 2.11602,1.79277 3.73439,2.14033 3.81942,0.82024 10.776326,-0.90318 18.085196,-4.48022 4.25792,-2.08387 5.04897,-2.30986 8.13881,-2.32514 1.68517,-0.008 2.08094,0.0559 3.88056,0.63012 1.22462,0.39072 2.26125,0.84239 2.66545,1.16135 0.72261,0.5702 0.78906,0.54146 0.41143,-0.17791 -0.42986,-0.81882 -1.55802,-1.74949 -2.69385,-2.22226 -1.69779,-0.70672 -6.00911,-1.87007 -6.93022,-1.87007 -1.60932,0 -4.30866,1.08957 -7.86731,3.17559 -6.675946,3.91333 -7.653336,4.42599 -9.483656,4.97433 -1.66905,0.50003 -1.93205,0.53077 -3.86546,0.45179 l -2.07456,-0.0847 -1.50241,-0.99983 c -1.1371,-0.75673 -1.65267,-1.23473 -2.12038,-1.96588 -0.98349,-1.53743 -0.91205,-1.65897 0.2948,-0.50159 0.61991,0.59451 1.62947,1.40191 2.24346,1.79424 0.95375,0.60943 1.30867,0.73135 2.4367,0.83706 2.11885,0.19855 4.02568,-0.0356 5.35171,-0.65706 0.62901,-0.29481 3.335916,-1.79404 6.015356,-3.33161 2.67944,-1.53758 5.46946,-3.068 6.20003,-3.40093 1.73899,-0.79248 3.4522,-1.07391 5.69097,-0.93484 1.47852,0.0918 2.12059,0.23785 3.96875,0.90243 3.07756,1.10668 3.38657,1.06318 1.7009,-0.23947 -1.31201,-1.01389 -1.39203,-1.04783 -3.3306,-1.41273 -2.49545,-0.46972 -4.06925,-0.4701 -6.25875,-0.002 -1.52103,0.32552 -2.18311,0.61019 -5.60531,2.41011 -2.1343,1.12255 -4.91243,2.65327 -6.173606,3.40161 l -2.29305,1.36061 -1.72053,0.12053 c -2.88831,0.20234 -3.07444,0.13694 -5.07489,-1.78314 -1.63811,-1.5723 -1.74949,-1.72584 -2.10799,-2.90613 -0.20817,-0.68537 -0.34162,-1.283 -0.29656,-1.32806 0.0451,-0.0451 0.3261,0.27294 0.62452,0.70668 0.29842,0.43374 1.19547,1.38938 1.99345,2.12366 1.39231,1.28115 1.4644,1.32281 1.78571,1.03203 0.49899,-0.45158 0.32503,-1.45445 -0.79307,-4.57191 -0.52883,-1.47448 -0.87085,-2.62541 -0.76005,-2.55764 0.31902,0.19514 1.35413,1.42819 2.30256,2.74287 0.62077,0.86049 1.21443,1.43074 2.06145,1.98016 1.14727,0.74416 1.21309,0.76393 1.84967,0.55536 1.01007,-0.33095 0.93908,-0.71314 -0.25122,-1.35242 -0.90338,-0.48519 -2.18318,-1.82057 -1.95933,-2.04442 0.0401,-0.0401 0.36922,0.17141 0.73143,0.46997 0.75564,0.62286 2.52188,1.16857 2.81936,0.87109 0.1261,-0.12611 0.13141,-0.34565 0.0163,-0.67312 -0.12783,-0.36356 -0.41392,-0.5829 -1.13575,-0.87074 -0.88819,-0.35417 -2.08703,-1.37623 -1.86946,-1.59379 0.051,-0.051 0.44785,0.1153 0.88181,0.36962 1.07485,0.6299 1.48244,0.61009 1.55289,-0.0755 0.0383,-0.37288 0.21949,-0.64137 0.59062,-0.87526 0.53374,-0.33637 0.53819,-0.33608 1.47273,0.0969 0.918886,0.42573 2.666226,0.61266 2.666226,0.28524 0,-0.082 -0.16759,-0.30026 -0.37242,-0.48507 -0.57415,-0.51804 -1.866176,-2.10399 -1.56786,-1.92453 0.14552,0.0875 0.97214,0.62252 1.83693,1.18885 0.98075,0.64227 1.6347,0.96733 1.73807,0.86396 0.23242,-0.23242 0.0417,-0.51022 -1.37014,-1.9961 -0.6791,-0.7147 -1.35138,-1.45617 -1.49397,-1.64771 -0.24103,-0.3238 -0.22863,-0.32251 0.17639,0.0182 0.2396,0.20157 1.17783,0.904 2.08495,1.56096 1.19306,0.86403 1.70265,1.14113 1.8421,1.00168 0.24363,-0.24363 -0.2517,-0.7754 -2.60947,-2.80143 -3.015636,-2.59133 -3.018176,-2.58272 0.17639,-0.59979 2.78601,1.72933 4.13694,2.37416 4.44254,2.12053 0.39117,-0.32463 0.26404,-0.75008 -0.54882,-1.83667 -0.42932,-0.5739 -0.7577,-1.06632 -0.72975,-1.09428 0.028,-0.028 1.08507,0.5888 2.34914,1.37057 1.72428,1.06638 2.67684,1.53114 3.81387,1.86078 1.40016,0.40592 1.56279,0.41965 2.13561,0.1803 0.51911,-0.21689 0.62004,-0.34763 0.62004,-0.8031 0,-0.29922 -0.20377,-0.94616 -0.45283,-1.43765 -0.24905,-0.49149 -0.42005,-0.9264 -0.37998,-0.96646 0.0401,-0.0401 0.8193,0.25425 1.73165,0.65403 1.4527,0.63657 1.85057,0.91582 3.20221,2.24747 l 1.5434,1.52059 v -0.59942 c 0,-0.34292 -0.23139,-1.00942 -0.54074,-1.55755 -0.2974,-0.52698 -0.50353,-0.99534 -0.45806,-1.04081 0.24861,-0.24861 1.81765,0.93089 4.16012,3.12729 l 2.64291,2.47811 0.92545,-0.0536 c 0.81668,-0.0473 0.96149,-0.11581 1.23195,-0.58277 0.28066,-0.48458 0.28514,-0.6305 0.0532,-1.73184 -0.28478,-1.35206 -0.85819,-2.29803 -2.36105,-3.89514 l -0.97945,-1.04087 0.58204,0.11217 c 0.79112,0.15247 0.62858,-0.0374 -1.02216,-1.19412 -1.46627,-1.02744 -4.78025,-3.84147 -4.66396,-3.96036 0.19176,-0.19605 3.53313,1.66411 6.2455,3.47691 2.3267,1.55503 3.5151,2.48936 4.8507,3.81361 2.46976,2.44884 3.14694,2.92039 4.19378,2.92039 0.46113,0 0.83841,-0.0481 0.83841,-0.10691 0,-0.0588 -0.24769,-0.41964 -0.55043,-0.80188 -0.30274,-0.38223 -0.51629,-0.72912 -0.47456,-0.77085 0.12135,-0.12135 1.85432,0.58367 2.61493,1.06382 0.38286,0.24169 0.763,0.43944 0.84476,0.43944 0.0818,0 0.86668,-0.75407 1.74426,-1.6757 0.87759,-0.92163 1.70914,-1.67569 1.84791,-1.67569 0.1832,0 0.23804,0.18113 0.20022,0.66145 l -0.0521,0.66146 0.43799,-0.88194 c 0.2409,-0.48507 0.44023,-1.08038 0.44297,-1.32292 0.003,-0.24253 0.0744,-0.55068 0.15937,-0.68476 0.19058,-0.30091 0.19314,-0.2927 0.81815,2.61941 0.54407,2.53503 0.50263,4.47665 -0.12168,5.70039 -0.19125,0.37488 -0.32175,0.7595 -0.29001,0.85472 0.11002,0.33007 1.28754,-0.64709 1.6386,-1.35978 0.19402,-0.39391 0.52499,-0.94881 0.73548,-1.23312 l 0.38271,-0.51692 0.41104,0.36536 c 0.22607,0.20095 0.82795,0.65733 1.33749,1.0142 1.4889,1.04274 1.67931,0.84564 0.55147,-0.57086 -0.39981,-0.50215 -0.67717,-0.96276 -0.61635,-1.02358 0.0608,-0.0608 0.75376,-0.21293 1.53987,-0.33802 1.39753,-0.22238 1.44876,-0.21756 2.30602,0.21684 0.51795,0.26247 0.99734,0.66462 1.17145,0.98271 0.16209,0.29614 0.4224,0.70315 0.57847,0.90447 0.27486,0.35455 0.28766,0.3401 0.40769,-0.46029 0.0681,-0.45448 0.18569,-0.82632 0.26119,-0.82632 0.28135,0 1.77359,2.12474 2.55485,3.63777 0.46776,0.90589 0.91748,2.09211 1.06716,2.81485 0.2388,1.15304 0.23231,1.37695 -0.0844,2.91041 -0.58486,2.83166 -1.08223,4.04252 -1.66051,4.04252 -0.11132,0 -0.3424,-0.38933 -0.51351,-0.86518 -0.17112,-0.47585 -0.45926,-0.99925 -0.64031,-1.1631 -0.18106,-0.16386 -0.28763,-0.40624 -0.23683,-0.53863 0.0508,-0.13239 -0.2522,-0.64899 -0.67335,-1.14799 -0.56646,-0.67118 -1.13051,-1.0862 -2.1675,-1.5948 -1.63787,-0.80331 -2.70133,-0.89138 -4.23874,-0.35102 -1.20536,0.42365 -4.75641,2.55126 -5.12065,3.06803 -0.26235,0.37223 -0.25225,0.39003 0.25097,0.44236 0.65902,0.0685 2.79678,-0.55985 4.072,-1.19697 2.21938,-1.10882 5.39663,-1.00629 6.14899,0.19842 0.25233,0.40404 0.0583,0.41917 -0.79633,0.0621 -0.83182,-0.34755 -2.66718,-0.33669 -3.9144,0.0232 -1.51442,0.43695 -4.69655,2.09676 -5.95835,3.1079 -0.61839,0.49555 -1.12435,0.95651 -1.12435,1.02435 0,0.20718 2.67286,-0.6247 3.70416,-1.15285 1.43629,-0.73555 4.31315,-1.65992 5.56534,-1.78821 1.53923,-0.1577 2.78569,0.17416 3.87147,1.03074 0.85758,0.67656 1.10856,1.01602 1.13413,1.53393 0.009,0.18119 -0.0982,0.1502 -0.38448,-0.11117 -0.62563,-0.57128 -2.00287,-1.09324 -3.2113,-1.21705 -0.96095,-0.0984 -1.34223,-0.037 -2.85159,0.45937 -2.06328,0.67857 -6.18896,2.74986 -6.45044,3.23844 -0.15843,0.29603 -0.13846,0.32407 0.14559,0.20448 3.72631,-1.56895 6.22867,-2.20794 8.6465,-2.20794 1.74012,0 1.89451,0.0309 3.02009,0.60454 1.6778,0.85508 2.6018,2.08138 2.82415,3.748098 0.0883,0.66198 0.12553,1.75923 0.0827,2.43833 -0.0833,1.32158 -0.30498,1.67569 -1.04879,1.67569 -0.3744,0 -0.40726,-0.0757 -0.40726,-0.93871 0,-0.96214 -0.44592,-2.58906 -0.70963,-2.58906 -0.081,0 -0.23809,0.43735 -0.34907,0.9719 -0.11239,0.54138 -0.39834,1.20552 -0.64554,1.49931 -0.39679,0.47154 -0.54953,0.52729 -1.44234,0.52641 -1.38393,-0.001 -2.11085,-0.24957 -2.9765,-1.01636 -0.73553,-0.65155 -0.74646,-0.6788 -1.05833,-2.64044 -0.25209,-1.585628 -0.36805,-1.966998 -0.57971,-1.906678 -0.14552,0.0415 -0.59145,0.15975 -0.99095,0.26283 -0.86613,0.22348 -3.05782,1.658498 -3.60611,2.361118 -0.32902,0.42163 -0.35154,0.53366 -0.14515,0.7221 0.13436,0.12267 1.67796,0.83386 3.43021,1.58042 3.32216,1.41542 6.87406,2.39906 8.68186,2.40429 0.45772,10e-4 1.00689,0.0492 1.22036,0.10649 0.38043,0.102 0.38252,0.11857 0.10545,0.83544 -0.15547,0.40225 -0.42575,0.8914 -0.60062,1.08699 -0.18699,0.20916 -0.40225,0.89933 -0.52265,1.6757 -0.13553,0.87389 -0.43665,1.78144 -0.89093,2.68512 -0.56823,1.13035 -0.7959,1.41089 -1.32413,1.6316 -1.04699,0.43745 -1.94819,0.32355 -3.42798,-0.43328 z M 81.668604,42.104604 c -1.00212,-1.0914 -1.83773,-2.01078 -1.85693,-2.04305 -0.0192,-0.0323 -1.64025,-0.32993 -3.60235,-0.66146 l -3.56744,-0.60278 h -7.47168 c -4.109418,0 -7.46903,0.0595 -7.465802,0.13229 0.03236,0.72964 2.275372,1.57177 7.944832,2.98287 l 2.72083,0.6772 -1.14653,0.12004 c -1.5919,0.16668 -6.444475,-0.28915 -8.659774,-0.81346 -2.409536,-0.57027 -6.207275,-1.66765 -6.384452,-1.84483 -0.07694,-0.0769 0.266433,-0.81429 0.763051,-1.63856 0.670339,-1.1126 1.615076,-2.22687 3.667403,-4.32551 7.767643,-7.94293 16.919042,-15.5953 21.844022,-18.26591 1.34194,-0.72768 2.75254,-1.50811 3.13468,-1.73429 1.37544,-0.81411 0.38612,0.047 -1.79044,1.5583 -3.09088,2.14626 -9.22429,7.30891 -11.92229,10.03531 -2.13548,2.15796 -2.30087,2.37668 -3.04296,4.02425 -0.431606,0.95825 -0.755978,1.77103 -0.720825,1.80618 0.08031,0.0803 2.350155,-1.66526 3.650385,-2.80726 0.82199,-0.72196 3.37904,-2.07745 3.91898,-2.07745 0.0769,0 -0.93428,0.95595 -2.24714,2.12435 -1.31287,1.16839 -2.38703,2.15809 -2.38703,2.19932 0,0.107 0.43453,-0.0725 1.94028,-0.80134 0.7276,-0.35221 1.78126,-0.82798 2.34147,-1.05727 l 1.01855,-0.41689 1.2745,0.31702 1.27451,0.31703 2.54144,-0.4679 c 2.44585,-0.45029 3.19119,-0.67051 3.19119,-0.94287 0,-0.07 -0.078,-0.39929 -0.17337,-0.73177 -0.0954,-0.33248 -0.14227,-0.63562 -0.10425,-0.67363 0.038,-0.038 0.68004,0.33546 1.42674,0.82994 1.75266,1.16066 1.92743,1.25025 2.98173,1.52836 0.85849,0.22647 0.90693,0.21854 1.68383,-0.27577 0.4592,-0.29217 1.17555,-0.55781 1.68185,-0.62368 l 0.88195,-0.11474 -0.61736,0.5868 c -0.33955,0.32274 -0.85549,0.76232 -1.14653,0.97683 l -0.52917,0.39003 0.66538,0.006 c 0.43282,0.004 1.15363,-0.2399 2.06239,-0.69682 1.61493,-0.81197 3.21033,-1.44399 3.33368,-1.32063 0.11615,0.11615 -1.08742,1.17096 -1.92729,1.68909 -0.37636,0.23218 -0.66207,0.49575 -0.63491,0.58571 0.078,0.25831 2.29095,0.95234 4.79103,1.50254 2.73102,0.60103 5.925556,0.95518 6.790966,0.75285 0.5362,-0.12536 0.61628,-0.21269 0.60916,-0.66428 -0.005,-0.28598 -0.0751,-0.71839 -0.15682,-0.96092 -0.12456,-0.36956 -0.0311,-0.3203 0.57689,0.30417 0.85211,0.87516 0.9183,0.89342 3.55688,0.98141 1.92206,0.0641 4.05694,0.51139 4.05694,0.85 0,0.072 -1.30548,0.13182 -2.90107,0.13297 -1.5956,0.001 -3.04926,0.0814 -3.23038,0.17833 -0.18112,0.0969 -1.63667,0.18207 -3.23456,0.18918 -2.334466,0.0104 -3.144236,0.0813 -4.121716,0.36083 -0.66907,0.19133 -1.27269,0.4089 -1.3414,0.48348 -0.0687,0.0746 -0.30397,0.63413 -0.5228,1.24345 -0.21884,0.60931 -0.45645,1.14403 -0.52801,1.18826 -0.0716,0.0442 -0.18551,-0.58462 -0.25322,-1.39744 l -0.1231,-1.47786 -1.88194,-0.79322 c -2.60196,-1.09671 -4.86833,-1.78461 -7.30248,-2.21649 l -2.06916,-0.36711 -3.37868,0.43538 -3.37867,0.43539 -3.28342,1.43099 c -1.80588,0.78704 -3.3231,1.47211 -3.3716,1.52238 -0.0485,0.0503 1.53899,0.0443 3.52777,-0.0132 2.8951,-0.0838 3.86201,-0.17646 4.85014,-0.46484 1.38688,-0.40477 2.26355,-0.44165 4.26522,-0.17946 1.17988,0.15454 3.50701,0.68111 4.44989,1.00689 0.25007,0.0864 0.25192,0.0677 0.0167,-0.16833 -0.38757,-0.38894 -4.29432,-1.66959 -5.75772,-1.88741 -2.37293,-0.3532 -2.2603,-0.51986 0.3594,-0.53181 l 2.45098,-0.0112 2.31152,0.91247 c 1.27134,0.50186 2.40698,0.98471 2.52364,1.07299 0.23362,0.17679 2.207,3.32912 2.12935,3.40148 -0.0266,0.0248 -0.74151,-0.26784 -1.58862,-0.65036 -1.25999,-0.56894 -1.60587,-0.66033 -1.90112,-0.50231 -0.1985,0.10623 -0.31315,0.27043 -0.25478,0.36488 0.0584,0.0945 0.79482,0.63822 1.63654,1.20837 1.28712,0.87185 3.56824,3.08715 3.35768,3.2608 -0.0349,0.0288 -0.46027,0.27705 -0.94534,0.55177 -0.48506,0.27473 -1.22427,0.73015 -1.64268,1.01206 l -0.76074,0.51256 -0.69447,-0.45958 c -0.63503,-0.42025 -0.69447,-0.52658 -0.69447,-1.24253 0,-0.78417 -0.29066,-1.68149 -0.54467,-1.68149 -0.38513,0 -0.84916,0.98283 -0.96214,2.0378 -0.0673,0.62816 -0.19351,1.18611 -0.28054,1.2399 -0.087,0.0538 -0.79203,-0.55416 -1.56668,-1.35099 -0.77466,-0.79683 -1.40847,-1.4005 -1.40847,-1.34149 0,0.059 0.16767,0.52694 0.3726,1.03985 0.68715,1.71987 1.02069,2.78465 0.87228,2.78465 -0.081,0 -0.96714,-0.89297 -1.96925,-1.98437 z m 72.614316,0.40727 c -1.71391,-1.55213 -4.56518,-3.33506 -6.312,-3.94698 -1.4049,-0.49214 -1.64242,-0.63676 -1.92697,-1.1733 -0.1785,-0.33659 -0.85051,-1.2494 -1.49337,-2.02847 -0.87851,-1.06466 -1.51449,-1.62799 -2.56044,-2.26793 -1.2586,-0.77005 -2.45814,-1.93043 -2.2307,-2.15787 0.17214,-0.17214 3.39008,1.82198 4.58614,2.84198 0.8692,0.74125 1.4022,1.3819 1.90006,2.28379 l 0.69197,1.25354 1.54401,0.60059 c 1.98013,0.77024 4.42569,2.42597 5.68419,3.84839 1.61172,1.82164 1.66259,2.14586 0.11711,0.74626 z m -27.01824,-11.69258 -1.03906,-0.5697 -4.10855,0.0414 c -2.63147,0.0265 -4.70764,0.13783 -5.77499,0.30959 -1.60153,0.25771 -1.69327,0.25447 -2.35515,-0.0832 -0.47979,-0.24477 -0.79551,-0.58056 -1.04077,-1.10691 -0.38604,-0.82852 -0.63237,-1.90969 -0.43037,-1.88896 0.0703,0.007 0.44905,0.4229 0.84159,0.92373 0.61921,0.79004 0.83613,0.93779 1.63833,1.11593 1.15006,0.25539 2.40105,10e-4 3.92534,-0.79792 1.25776,-0.6593 1.5012,-0.67874 1.63871,-0.13084 0.11264,0.4488 0.6663,0.64008 1.85145,0.63962 0.62876,-1.7e-4 0.64454,-0.0177 0.94809,-1.05069 0.16977,-0.57775 0.30868,-1.17295 0.30868,-1.32267 0,-0.58144 0.94461,-0.29435 2.07355,0.63021 0.83271,0.68196 1.55721,1.0698 2.9655,1.5875 1.02499,0.37678 2.1393,0.68507 2.47625,0.68507 0.74758,0 1.90063,-0.55614 2.67116,-1.28834 0.62522,-0.59413 0.71459,-0.44973 0.31443,0.508 -0.28086,0.67221 -0.28038,0.6728 0.7042,0.84092 0.29347,0.0501 1.12691,0.37162 1.85209,0.71446 l 1.3185,0.62336 -2.99861,-0.0863 c -1.64924,-0.0474 -3.44998,-0.12222 -4.00165,-0.16616 -0.62983,-0.0502 -1.27798,0.0171 -1.74197,0.18082 -0.94894,0.33481 -0.8295,0.35292 -2.03676,-0.30898 z m 4.03231,-9.22097 c -2.50719,-2.89116 -3.24115,-3.52352 -5.30132,-4.56749 -0.59239,-0.30018 -1.25528,-0.90584 -2.1355,-1.95112 -1.17744,-1.39823 -1.41559,-1.58563 -3.07034,-2.41602 -2.3489,-1.17874 -4.49923,-1.96657 -10.17463,-3.7277902 -2.36083,-0.73262 -2.79517,-0.81006 -5.64445,-1.00632 -3.15066,-0.21701 -5.173426,-0.46429 -4.15082,-0.50742 0.28791,-0.0121 2.03416,0.0613 3.88055,0.16318 l 3.35708,0.18525 5.11528,1.67164 c 2.8134,0.9194002 6.06008,2.0862002 7.21485,2.5928702 l 2.09957,0.92124 1.47231,1.70857 c 1.37073,1.59069 1.58489,1.76258 3.10389,2.49125 1.92809,0.92491 2.64173,1.61131 5.13867,4.9426 1.53228,2.04429 1.79442,2.42575 1.65231,2.40444 -0.0243,-0.004 -1.17512,-1.31083 -2.55745,-2.90488 z m -31.441516,0.90501 c -2.59744,-0.90902 -2.91083,-1.07713 -3.45808,-1.85494 -0.54727,-0.77784 -1.28991,-1.10761 -3.23603,-1.43696 -0.52881,-0.0895 -1.29574,-0.38256 -1.70429,-0.65127 -1.63619,-1.07611 -3.40187,-2.34555 -3.51335,-2.52592 -0.23489,-0.38006 0.0693,-0.35007 1.08601,0.10705 1.34905,0.60655 2.87155,0.73985 4.16285,0.36446 1.33052,-0.38679 1.35137,-0.37631 0.66341,0.33348 l -0.60063,0.61969 0.36944,0.36944 c 0.62077,0.62078 1.79454,0.72833 3.53067,0.32352 0.83355,-0.19436 1.54613,-0.3228 1.58351,-0.28542 0.0374,0.0374 -0.37081,0.33388 -0.90708,0.6589 -1.49696,0.90725 -1.22946,1.56457 0.64496,1.58489 0.5157,0.006 1.24803,0.0653 1.627396,0.13272 0.617,0.10962 0.71039,0.19609 0.88538,0.8198 0.13616,0.4853 0.36789,0.79786 0.7623,1.02821 l 0.56667,0.33095 0.79039,-0.64767 c 1.15784,-0.94876 2.92963,-1.37805 4.59578,-1.11351 1.81174,0.28766 1.98237,0.48607 0.42337,0.49231 -1.20331,0.005 -1.56439,0.0977 -3.52778,0.90702 -1.20299,0.49592 -2.3857,0.93047 -2.62823,0.96568 -0.24253,0.0352 -1.19503,-0.19989 -2.116666,-0.52243 z"
       id="path6975-3"
       sodipodi:nodetypes="sscccsssssssscccssscssssccsssssscssssssssssssssssscccssssssssssssssssssssssssscscsssssscsscccsssssssssscsscccssscssscssssssssssscsssssssssscssssssssssscsscssscccsssssssssssscsssssssscssscccssssssssscssssssssscsscscssscsssssssscssssssscsssssssssscssccssssssssssssssssscssscsssccsssscsssccssssscccsssscsssssscccccsscscssssscccssssscssssssscccsssssscccsssssscssssssccssscssscssssssssscssscssssssssscccsssssssssccssscsssssssssssssssssssssssssssscssssssssscsscsssssssssscscsscsssssscsssscssssssssssscsssssscccssssssscsssccsssscsscssccscssssssscsssssscsssssssscsscsssccssscssscssssscscssssssscssssssscssscsscsscssssssscssscsssscsssssssssssscsscssssssssssssssssssssssssssssssssssssscsssssssscsssscsscscsssscssssssssscsccssssscsssssssscssssssssssssssssssssssccssscssscssssscsssssssccsssssccssscssscssssssssssssssssscccsssssssscssccssssssssssscssssssscsscccssssssssscsssssssssscssssssssssssssssssscsssccssssssssscssssssssscsssscsssssssscsscssscssssssssscsssssssscssssss" />
    <path
       style="fill:#000000;fill-opacity:1;stroke:#000000;stroke-width:0.1;stroke-miterlimit:4;stroke-dasharray:none;stroke-opacity:1"
       d="m 95.747517,283.51663 c -0.53358,-0.0744 -2.16076,-0.27329 -3.61597,-0.44187 l -2.64584,-0.30651 -3.841206,-1.96196 -3.8412,-1.96197 -3.83171,-3.68533 c -3.42197,-3.29124 -4.14293,-3.89248 -6.74212,-5.62264 -1.60073,-1.06553 -2.98444,-2.00528 -3.07491,-2.08834 -0.18858,-0.17312 0.4953,0.0195 1.70158,0.47926 0.45735,0.17432 0.87352,0.27496 0.92483,0.22365 0.0513,-0.0513 -0.0705,-0.43224 -0.27063,-0.84651 -0.20015,-0.41427 -0.33148,-0.78565 -0.29184,-0.82529 0.0396,-0.0396 1.45411,0.50326 3.14326,1.20645 l 3.07118,1.27853 3.81626,0.0329 3.81626,0.0329 3.503876,2.64566 c 1.92713,1.45512 3.742,2.8707 4.03304,3.14574 0.29104,0.27504 1.13196,1.07587 1.86871,1.77963 l 1.33954,1.27956 1.17454,-0.16634 c 1.1121,-0.15749 1.2728,-0.24439 3.023205,-1.63477 1.623228,-1.28936 1.800628,-1.48196 1.454678,-1.57937 -0.2167,-0.061 -1.487198,-0.37012 -2.823333,-0.68688 -1.33613,-0.31677 -2.39705,-0.60822 -2.3576,-0.64766 0.0395,-0.0395 1.01028,0.0514 2.15741,0.20181 2.757523,0.36163 4.991493,0.35323 6.185883,-0.0233 0.51785,-0.16324 0.94155,-0.35605 0.94155,-0.42847 0,-0.1674 -1.14802,-0.40134 -4.625768,-0.94264 -7.767025,-1.20891 -8.779485,-1.43739 -11.006405,-2.48375 -1.980546,-0.93061 -3.127966,-1.42421 -7.904756,-3.4005 -1.89241,-0.78294 -2.37126,-1.08086 -4.72771,-2.94141 -1.44212,-1.13862 -2.58861,-2.10365 -2.54776,-2.1445 0.0409,-0.0408 1.03839,0.52405 2.21677,1.25532 1.17837,0.73127 3.07398,1.77281 4.21247,2.31452 4.86495,2.31486 6.985516,3.27497 9.475616,4.29018 2.53206,1.03233 2.78041,1.09654 5.90903,1.52769 1.79623,0.24754 3.753605,0.49502 4.349705,0.54996 1.966458,0.18121 6.871468,-0.78339 6.393738,-1.25738 -0.0381,-0.0378 -0.68425,-0.1541 -1.43593,-0.25849 -1.82616,-0.25363 -8.329823,-1.87183 -9.216633,-2.29323 -0.38806,-0.1844 -1.06275,-0.49435 -1.49931,-0.68877 -0.43656,-0.19442 -1.23031,-0.54775 -1.76389,-0.78519 -0.53358,-0.23743 -2.53763,-1.52565 -4.45346,-2.86271 -2.809706,-1.9609 -3.580416,-2.5884 -3.985436,-3.24485 -0.27617,-0.44762 -0.80074,-1.27969 -1.16573,-1.84906 -0.36498,-0.56937 -0.58873,-1.00593 -0.49721,-0.97014 0.0915,0.0358 0.79452,0.77269 1.56224,1.63756 1.44815,1.6314 1.85699,1.93268 7.128606,5.25305 2.28656,1.44021 2.53722,1.55035 6.29536,2.76607 l 3.913983,1.26613 2.52408,-0.049 2.52409,-0.049 -1.5875,-0.5836 c -4.008,-1.47341 -6.287588,-2.56704 -7.390853,-3.54576 -0.5917,-0.52489 -1.10271,-1.02231 -1.13559,-1.10537 -0.0329,-0.0831 0.57642,0.27481 1.35398,0.79527 1.687015,1.12918 1.600705,1.09428 5.496773,2.22264 3.35213,0.97083 3.52778,1.00412 3.52778,0.66857 0,-0.12393 -0.53578,-0.45561 -1.19063,-0.73707 -2.0593,-0.88509 -7.314978,-3.65672 -8.510763,-4.48823 -0.63059,-0.43849 -1.58309,-1.10215 -2.11666,-1.4748 -0.89466,-0.62482 -3.12625,-2.89394 -2.97584,-3.02588 0.036,-0.0316 1.17667,0.76633 2.53486,1.7731 3.30698,2.45132 7.792673,4.74825 11.800813,6.0427 1.54274,0.49823 2.83427,0.87658 2.87008,0.84078 0.0358,-0.0358 -0.45178,-0.45366 -1.08351,-0.92858 -1.95746,-1.47158 -5.16158,-6.08053 -4.73713,-6.8141 0.0413,-0.0714 0.55555,0.58131 1.14278,1.45041 1.04154,1.54147 3.52058,4.03737 5.99336,6.03411 0.91095,0.73558 1.13771,0.82793 2.73403,1.11352 0.95738,0.17127 2.87541,0.53736 4.26229,0.81352 2.41693,0.48126 2.55787,0.53334 3.3954,1.2546 0.48059,0.41388 0.87384,0.7996 0.87389,0.85716 1.5e-4,0.18677 -3.2285,1.3858 -4.49783,1.67037 -0.6791,0.15225 -2.09056,0.4679 -3.13657,0.70144 -1.32251,0.29528 -2.08818,0.56676 -2.51354,0.8912 -0.33644,0.25661 -0.6117,0.52449 -0.6117,0.59529 0,0.13827 2.56512,0.53641 3.43958,0.53387 0.47391,-10e-4 5.51067,-1.83767 6.32308,-2.30525 0.17922,-0.10315 0.37212,-0.14129 0.42867,-0.0847 0.2037,0.2037 -2.38046,3.73253 -4.16467,5.6871 -1.65409,1.81202 -5.68765,5.52342 -6.00287,5.52342 -0.071,0 -2.09787,0.39688 -4.50418,0.88195 -4.13807,0.83416 -4.5151,0.88078 -6.958818,0.86043 -1.42103,-0.0118 -3.020265,-0.0824 -3.553845,-0.15687 z M 65.820301,263.9818 c -5.2326,-4.69459 -6.3056,-5.84273 -9.785825,-10.47109 -1.851163,-2.46186 -4.266474,-5.84534 -5.367357,-7.51883 l -2.001608,-3.0427 H 47.977195 47.28888 l -0.09895,1.19062 c -0.06949,0.8362 -0.02919,1.29927 0.135394,1.55559 0.128887,0.20073 1.361595,1.82791 2.739353,3.61597 1.58075,2.0515 2.79503,3.82726 3.291044,4.81281 0.432321,0.85898 0.754086,1.59374 0.715037,1.63279 -0.06286,0.0629 -2.47634,-2.61622 -6.011439,-6.67298 -0.798865,-0.91675 -1.789361,-1.77575 -3.031153,-2.62874 -1.014494,-0.69687 -1.844534,-1.31083 -1.844534,-1.36437 0,-0.0535 0.448296,-0.80451 0.996214,-1.66881 1.012845,-1.5977 2.740422,-5.22184 3.534827,-7.41541 l 0.43816,-1.20989 -0.464571,-2.67067 c -0.488472,-2.80806 -0.635219,-3.31861 -1.933709,-6.72761 l -0.806242,-2.11667 -3.53e-4,-3.22288 -3.53e-4,-3.22288 -0.485069,-0.19031 c -1.66407,-0.65287 -3.121122,-1.67679 -10.098264,-7.0964 -0.921632,-0.71589 -2.479689,-1.86691 -3.462348,-2.55781 -1.476366,-1.03803 -2.304751,-1.83094 -4.769888,-4.5656 -5.303343,-5.88308 -5.248973,-5.7967 -9.133098,-14.51009 -1.361741,-3.05485 -1.502878,-3.48845 -2.210482,-6.79098 -0.923493,-4.31013 -1.117278,-6.20065 -0.750202,-7.31875 0.409781,-1.24818 0.898589,-1.64779 2.014905,-1.64722 0.515198,3.5e-4 1.261149,0.0619 1.65767,0.13698 0.528407,0.10004 0.865031,0.062 1.260461,-0.1425 0.50846,-0.26294 0.579519,-0.25644 1.234451,0.11291 0.382214,0.21556 1.242866,0.98723 1.912561,1.71483 0.669695,0.72761 1.944294,1.95792 2.832443,2.73403 1.448012,1.26535 1.812618,1.4863 3.529753,2.13904 1.053217,0.40037 2.803626,0.9507 3.889799,1.22296 1.853879,0.4647 2.005155,0.53624 2.469444,1.16788 0.511383,0.69571 0.591654,0.73044 3.797236,1.64318 0.770322,0.21934 1.439187,0.63032 2.822223,1.73409 0.996944,0.79564 2.256991,1.74802 2.800103,2.11639 l 0.987477,0.66977 1.040995,-0.3449 c 0.623878,-0.2067 1.288367,-0.30887 1.658357,-0.25499 0.339548,0.0495 1.807986,0.59166 3.263194,1.20491 1.455208,0.61325 4.153958,1.64686 5.997222,2.29692 1.843263,0.65005 3.403813,1.23049 3.467883,1.28986 0.0641,0.0594 0.0462,0.54266 -0.0398,1.07397 -0.15865,0.98068 -0.0512,2.29717 0.18748,2.29717 0.072,0 0.17209,-0.36537 0.22242,-0.81193 0.12953,-1.14914 0.40168,-1.3755 1.28644,-1.07 0.61179,0.21125 0.71551,0.32946 0.85375,0.973 l 0.15735,0.73254 h 0.83801 c 0.88856,0 1.05215,0.15308 1.05215,0.98457 0,0.39499 0.0661,0.42655 0.89334,0.42655 0.89164,0 2.63443,0.59858 2.63443,0.90482 0,0.47196 -0.58146,3.91963 -0.80959,4.80038 -0.14687,0.56699 -0.23711,1.12065 -0.20054,1.23036 0.0712,0.21345 1.10797,-1.55158 1.70689,-2.90573 0.45384,-1.02613 1.43523,-1.6904 2.07004,-1.40117 0.22451,0.1023 0.4082,0.26865 0.4082,0.36967 0,0.34982 -0.86138,1.54613 -1.44363,2.00495 -0.7121,0.56114 -0.57383,0.57755 1.70822,0.2026 0.87312,-0.14346 1.64703,-0.26222 1.71979,-0.26392 0.2733,-0.006 0.11127,0.33002 -0.57279,1.18916 -0.46461,0.58353 -1.33348,1.28614 -2.54771,2.0602 l -1.84264,1.17467 -1.78552,2.89593 c -1.97849,3.2089 -1.67549,2.96828 -3.96697,3.15032 -0.63556,0.0505 -1.72062,0.34602 -2.71627,0.73982 l -1.65795,0.65575 -2.487189,-0.40076 -2.487195,-0.40075 -2.734027,-1.50946 c -3.742985,-2.0665 -5.476581,-3.35272 -8.466667,-6.28171 -4.064434,-3.98139 -4.223053,-4.09376 -6.649813,-4.71107 -2.635672,-0.67045 -4.545595,-1.66434 -6.831266,-3.55489 -1.566778,-1.29593 -1.899232,-1.6807 -3.156568,-3.65334 -0.839145,-1.31654 -2.030484,-3.57808 -2.956972,-5.61326 -1.336553,-2.93595 -2.505675,-5.11386 -3.47283,-6.46938 -0.224919,-0.31524 -0.239524,-0.23584 -0.137239,0.74613 0.06296,0.6044 0.27924,1.47752 0.480632,1.94028 0.201393,0.46275 0.505799,1.15887 0.676458,1.54692 0.17066,0.38806 0.568319,1.30087 0.883688,2.02847 0.315369,0.72761 1.273574,2.72375 2.129345,4.43587 l 1.555949,3.11295 1.816044,1.63566 c 2.176166,1.96001 5.748295,4.32847 7.479454,4.95916 1.128619,0.41118 1.410166,0.61994 2.822223,2.09262 1.599242,1.66791 7.696519,6.65189 10.961242,8.95985 1.768449,1.25018 1.990145,1.48161 1.631598,1.7032 -0.335564,0.20739 -0.162395,0.53147 0.578717,1.08304 0.747039,0.55598 1.552217,0.75408 4.183782,1.02937 1.640918,0.17166 5.019274,-0.217 7.471324,-0.85954 l 2.26785,-0.59427 1.23022,-1.21124 c 0.91042,-0.89637 1.43008,-1.60608 1.99901,-2.73007 0.67531,-1.33416 0.94395,-1.66375 2.20945,-2.71072 l 1.44066,-1.19189 1.43623,0.43175 1.43622,0.43176 -0.055,1.74655 c -0.0442,1.40464 -0.12782,1.86444 -0.42715,2.34877 -1.0613,1.71723 1.76376,-1.31301 3.10284,-3.32819 1.05149,-1.58237 1.22261,-1.53739 0.71096,0.1869 -0.16146,0.54415 -0.54249,1.24405 -0.88194,1.62003 -0.32872,0.36408 -0.59767,0.69526 -0.59767,0.73595 0,0.0407 0.71591,-0.28873 1.59091,-0.73206 0.875,-0.44332 1.62559,-0.77135 1.66798,-0.72896 0.0424,0.0424 -0.39595,0.62413 -0.9741,1.29275 -0.96572,1.11686 -1.39933,1.97969 -1.40186,2.78956 -0.002,0.54993 1.20867,-0.43404 1.79346,-1.45798 0.34444,-0.60309 0.79313,-1.07466 1.34554,-1.41415 0.45582,-0.28014 1.22186,-0.75652 1.7023,-1.05863 0.48044,-0.30211 1.39325,-0.66232 2.02847,-0.80048 0.63522,-0.13816 1.33354,-0.3017 1.55182,-0.36342 0.88755,-0.25097 0.29467,0.15993 -1.41111,0.97797 -1.36263,0.65348 -2.04441,1.10793 -2.76779,1.84492 -1.76234,1.79549 -0.71066,1.48138 2.68111,-0.8008 1.68774,-1.1356 2.53413,-1.56791 4.416596,-2.25586 2.18574,-0.79879 5.68892,-1.73941 5.85597,-1.57236 0.0414,0.0413 -1.48941,0.61825 -3.4017,1.28199 -4.112816,1.42751 -3.948666,1.35022 -6.695996,3.15296 -2.29668,1.50703 -2.72572,2.06407 -1.5875,2.06112 0.41994,-0.001 0.97426,-0.29065 2.07257,-1.08268 1.43156,-1.03233 4.619786,-2.70078 4.941906,-2.58617 0.16906,0.0602 -4.015276,3.28414 -5.315236,4.09533 -0.61311,0.38259 -0.87225,0.67958 -1.01829,1.16699 -0.27415,0.91505 -0.2585,0.98523 0.3099,1.38997 l 0.50578,0.36015 0.86123,-0.41758 c 0.60636,-0.29399 1.08325,-0.72143 1.61141,-1.44432 0.41259,-0.56472 1.382206,-1.66954 2.154696,-2.45517 1.24636,-1.26755 1.59668,-1.51214 3.11079,-2.17189 2.44204,-1.06409 2.43845,-0.89258 -0.0119,0.56912 -1.36929,0.81682 -3.63039,3.30335 -3.49045,3.83845 0.0862,0.32952 0.19174,0.26265 0.94984,-0.60162 1.73252,-1.97515 6.43109,-4.98299 7.38474,-4.72742 l 0.44097,0.11818 -0.44097,0.27791 c -0.24254,0.15285 -0.9966,0.602 -1.6757,0.99811 -0.6791,0.39611 -1.80367,1.19601 -2.49906,1.77756 -1.00542,0.84083 -1.24465,1.13268 -1.16817,1.42515 0.0529,0.20228 0.1456,0.34469 0.20601,0.31647 0.0604,-0.0282 1.52177,-0.74584 3.24747,-1.59471 3.269505,-1.60826 3.481865,-1.66482 5.240845,-1.3959 l 0.793738,0.12135 -1.098708,0.20696 c -1.46915,0.27673 -4.249155,2.14713 -5.844345,3.93211 -0.61722,0.69065 -1.0809,1.29706 -1.0304,1.34756 0.31936,0.31936 2.07102,-0.33143 5.338625,-1.98343 3.389048,-1.71341 3.690958,-1.83178 4.672408,-1.83178 0.57708,0 1.04923,0.0624 1.04923,0.1387 0,0.0763 -0.57195,0.33426 -1.271,0.57327 -1.03983,0.35552 -4.577408,2.46351 -5.320063,3.17013 -0.0841,0.08 0.669985,0.14858 1.675695,0.1524 2.816938,0.0107 4.126008,0.23976 5.593458,0.97876 1.26027,0.63466 1.32953,0.64797 3.92509,0.75452 1.4532,0.0597 2.67222,0.15706 2.70892,0.21645 0.0367,0.0594 -0.66083,0.65046 -1.5501,1.31346 l -1.61686,1.20545 1.23473,-0.11753 c 0.67908,-0.0647 2.00788,-0.23697 2.95284,-0.38293 1.63479,-0.25253 1.81758,-0.32685 3.76862,-1.5323 1.89249,-1.16928 2.18368,-1.42571 3.77877,-3.32779 1.48903,-1.77563 1.75868,-2.19679 1.94799,-3.04271 0.21497,-0.9606 0.23293,-0.98182 0.83163,-0.98182 0.36515,0 1.00935,0.22738 1.59741,0.56385 1.14249,0.65366 2.42486,0.8815 4.10708,0.72971 1.11541,-0.10065 1.18218,-0.13295 1.45427,-0.70353 0.15784,-0.33101 0.49644,-0.67836 0.7583,-0.77792 0.40464,-0.15385 0.58073,-0.1026 1.21661,0.35406 0.88633,0.63652 2.41978,1.06855 3.79267,1.06855 0.54816,0 1.36936,0.0511 1.82488,0.11352 0.77476,0.1062 0.85622,0.16875 1.26164,0.96881 0.63602,1.25512 0.47625,1.95055 -0.95775,4.16879 -0.98113,1.51771 -1.2283,1.79398 -1.52386,1.7033 -0.19402,-0.0595 -0.57105,-0.14951 -0.83785,-0.19996 -0.48442,-0.0916 -0.48507,-0.0903 -0.48538,0.94254 -3.5e-4,1.02861 -0.004,1.0369 -0.76815,1.51932 -0.4223,0.26679 -0.86172,0.48507 -0.97647,0.48507 -0.75965,0 -3.5867,-1.37887 -5.59754,-2.73017 -1.97429,-1.32673 -2.4319,-1.7304 -3.50544,-3.09222 -0.6791,-0.86146 -1.28494,-1.57071 -1.3463,-1.57611 -0.0614,-0.005 -0.45808,0.52595 -0.88158,1.18079 -0.86031,1.33024 -4.05531,5.37745 -5.14366,6.51568 -0.38862,0.40641 -1.23436,1.10284 -1.87946,1.54762 l -1.17288,0.80868 -3.51931,0.008 c -1.93563,0.004 -5.464,-0.11717 -7.84084,-0.2696 -2.376838,-0.15244 -6.199413,-0.39426 -8.494603,-0.53739 -2.2952,-0.14313 -4.87488,-0.33602 -5.73264,-0.42863 -0.857756,-0.0926 -2.329336,-0.22241 -3.270186,-0.28843 l -1.71062,-0.12003 -1.42028,1.28869 c -0.78115,0.70877 -1.42028,1.3529 -1.42028,1.4314 0,0.0785 1.11603,0.14271 2.48007,0.14271 2.34974,0 2.78493,0.061 8.281686,1.16016 l 5.80164,1.16017 4.197823,-0.68698 c 2.30879,-0.37784 4.22203,-0.6288 4.25164,-0.55769 0.0296,0.0711 -0.75842,1.22739 -1.75116,2.56952 -0.99274,1.34213 -1.8197,2.46245 -1.83769,2.48961 -0.018,0.0272 -1.397688,0.56282 -3.065998,1.19036 l -3.033285,1.14098 -4.20549,0.33124 -4.205486,0.33124 -2.08986,1.09288 c -3.02277,1.58074 -2.76837,1.23892 -2.52204,3.38861 0.11495,1.00316 0.22758,1.84521 0.25028,1.87122 0.0227,0.026 1.97793,-0.11744 4.34493,-0.31877 l 4.303626,-0.36606 1.94028,-1.02631 c 1.06716,-0.56448 2.29747,-1.22251 2.73403,-1.4623 0.43656,-0.2398 1.50813,-0.81693 2.381255,-1.28253 0.87313,-0.4656 2.134298,-1.15461 2.802598,-1.53114 0.66831,-0.37654 1.24802,-0.65169 1.28824,-0.61146 0.14568,0.14568 -4.837283,5.57969 -8.527513,9.2994 l -3.77629,3.80645 -2.18721,0.73556 -2.187216,0.73556 h -5.19837 -5.19837 l -2.35257,-1.72361 c -2.67114,-1.957 -2.21869,-1.32739 -5.55376,-7.72844 l -1.84597,-3.54302 -2.73358,-1.19708 c -1.50346,-0.6584 -2.76369,-1.16697 -2.8005,-1.13016 -0.0612,0.0613 1.13907,1.58112 4.91152,6.21912 0.76428,0.93965 1.3543,1.74376 1.31114,1.78692 -0.0432,0.0432 -1.29369,-0.79651 -2.77897,-1.86593 -1.48528,-1.06943 -2.74209,-1.90282 -2.79291,-1.852 -0.0508,0.0508 0.19655,0.73361 0.54973,1.51729 l 0.64214,1.42486 -0.4504,2.45144 -0.4504,2.45143 0.38366,1.37411 c 0.48876,1.75053 0.46243,1.70375 2.31236,4.10813 1.32581,1.72317 2.06338,2.45324 4.90046,4.85069 1.83685,1.55223 3.34476,2.87906 3.35089,2.94851 0.029,0.32878 -2.33117,-0.83101 -5.36871,-2.63816 l -3.35139,-1.99386 1.15008,1.10634 c 0.63254,0.60849 1.5595,1.48341 2.05992,1.94427 0.65089,0.59944 1.01563,1.12063 1.28148,1.83118 0.20439,0.54629 0.33704,1.02784 0.29476,1.07011 -0.0423,0.0423 -0.47898,-0.12691 -0.97047,-0.37597 -0.98363,-0.49844 -1.34616,-0.56863 -1.20012,-0.23235 0.73032,1.68173 1.86671,4.61637 1.8097,4.67338 -0.0408,0.0408 -0.77543,-0.55485 -1.63243,-1.32374 z m 43.460829,-5.7497 c -1.04989,-0.66718 -1.32299,-0.96412 -2.25103,-2.44751 -0.9348,-1.49421 -1.10667,-1.91651 -1.49556,-3.67476 -0.42949,-1.9418 -0.46432,-2.66338 -0.0794,-1.64449 1.50794,3.99141 2.65985,5.70896 4.30052,6.41223 0.93349,0.40014 1.18856,0.35933 0.78048,-0.12488 -0.14357,-0.17037 -0.67609,-0.79658 -1.18337,-1.39159 l -0.92232,-1.08182 0.0526,-1.21123 0.0526,-1.21123 0.83341,1.61923 c 0.82975,1.61212 1.32525,2.14865 2.56208,2.77419 0.67859,0.34321 0.77193,0.0664 0.12135,-0.35987 -0.44,-0.2883 -1.45262,-2.00509 -1.18266,-2.00508 0.0744,1e-5 0.35397,0.27409 0.62124,0.60908 0.57423,0.71966 1.46807,1.41718 2.03828,1.59059 l 0.40761,0.12396 -0.47898,-0.94133 c -0.26343,-0.51773 -0.62395,-1.49696 -0.80115,-2.17605 -0.27549,-1.05574 -0.29583,-1.45018 -0.14029,-2.72106 0.20625,-1.68519 0.1299,-1.50671 1.2642,-2.95554 0.70159,-0.89613 1.01284,-1.14332 1.74635,-1.38696 1.35771,-0.45095 2.64139,-0.29287 4.13047,0.50865 3.69968,1.99143 5.0683,2.30125 10.22115,2.31383 3.02547,0.007 3.24252,-0.0154 4.60859,-0.48461 4.2304,-1.4529 6.96916,-4.49404 8.60672,-9.55692 0.25015,-0.77342 0.45482,-1.49404 0.45482,-1.60137 0,-0.10733 0.28074,-1.06204 0.62385,-2.12156 0.60642,-1.87257 0.62058,-1.9794 0.50649,-3.82259 -0.0646,-1.0429 -0.0774,-1.89618 -0.0285,-1.89618 0.13329,0 2.47277,1.08063 4.34131,2.00531 0.90792,0.4493 1.7612,0.81691 1.89618,0.81691 0.16036,0 0.24359,-0.19867 0.24015,-0.57326 -0.005,-0.5184 -0.12243,-0.64443 -1.22958,-1.31686 -0.88946,-0.54022 -1.55136,-0.79685 -2.42008,-0.93829 -1.67888,-0.27337 -2.08392,-0.4639 -2.85962,-1.34513 -0.52161,-0.59258 -0.75418,-1.07348 -0.99078,-2.04867 -0.49154,-2.026 -0.69866,-2.50259 -2.54691,-5.86043 -1.94372,-3.53129 -2.0665,-3.79236 -1.78364,-3.79236 0.10798,0 0.88347,0.93266 1.72332,2.07257 2.08845,2.8346 4.80061,5.86626 5.92047,6.6179 0.63279,0.42473 1.21694,0.6581 1.8325,0.7321 0.81205,0.0976 1.01485,0.0458 2.00132,-0.51183 0.98091,-0.55444 1.23619,-0.62046 2.39915,-0.62046 1.26278,0 1.30944,0.0155 1.57056,0.52041 0.18172,0.35142 0.26911,1.0271 0.26911,2.08083 v 1.56043 l -2.75668,4.31326 c -3.38866,5.30209 -3.9073,6.11916 -4.83109,7.61092 -0.6839,1.10438 -1.69208,2.17325 -4.64517,4.92481 -1.93909,1.80674 -5.9245,4.48876 -8.40872,5.6587 -2.08223,0.98063 -2.23634,1.08897 -2.68533,1.88769 -0.43746,0.77821 -2.05065,2.48215 -3.43207,3.62514 -0.31093,0.25727 -1.3428,0.72914 -2.29307,1.04861 -1.62588,0.54663 -1.92527,0.58813 -5.07911,0.70417 -1.84326,0.0678 -4.30389,0.19738 -5.46806,0.28791 -1.16417,0.0905 -2.75166,0.16442 -3.52778,0.16419 -1.36,-3.5e-4 -1.45438,-0.0279 -2.60597,-0.7597 z m 32.50389,-22.5378 c -1.17876,-0.47303 -4.88815,-0.62049 -8.81944,-0.35061 -2.72308,0.18694 -4.59879,-0.13284 -7.01443,-1.19586 -2.81644,-1.2394 -10.10333,-2.31453 -14.10815,-2.08156 -0.89738,0.0522 -1.6316,0.0375 -1.6316,-0.0327 0,-0.0702 0.26113,-0.38074 0.58027,-0.69007 0.38658,-0.37468 1.09576,-0.73666 2.12467,-1.08445 0.84944,-0.28713 1.86002,-0.77201 2.24576,-1.07751 0.95017,-0.75256 1.71654,-1.91114 1.86077,-2.8131 0.13763,-0.86071 0.32014,-0.66312 0.48897,0.52939 0.0778,0.54926 0.007,1.16149 -0.23114,1.98767 -0.22386,0.7781 -0.27071,1.15253 -0.13452,1.07508 0.59706,-0.33956 1.75705,-1.39335 1.89281,-1.71953 0.0854,-0.2052 0.2921,-0.69059 0.45933,-1.07864 l 0.30404,-0.70556 0.10178,0.79375 c 0.0964,0.75204 -0.14194,2.54945 -0.42689,3.2191 -0.11061,0.25989 -0.0347,0.30868 0.48026,0.30868 1.11435,0 2.18032,-0.21176 2.57871,-0.51226 0.21622,-0.16309 0.58338,-0.80908 0.81594,-1.43553 0.34683,-0.93432 0.42447,-1.04265 0.43201,-0.60281 0.012,0.7 -0.46776,2.53156 -0.79353,3.02947 -0.43353,0.66257 -0.31891,0.87562 0.53398,0.99252 1.01222,0.13874 1.32707,0.01 1.32707,-0.54375 0,-0.9216 0.40037,-1.81023 0.97584,-2.16588 0.31081,-0.19209 0.61303,-0.34926 0.67162,-0.34926 0.0586,0 -0.0897,0.36901 -0.3295,0.82002 -0.54336,1.02191 -0.58438,2.16604 -0.0936,2.6102 0.28013,0.25352 0.51279,0.28682 1.27882,0.18305 1.11813,-0.15147 1.75255,-0.45146 2.22501,-1.05211 0.46187,-0.58716 0.65124,-0.56074 0.92297,0.12877 0.31036,0.78755 1.04098,1.5434 1.49186,1.5434 0.20584,0 0.52564,-0.11069 0.71067,-0.24598 0.31157,-0.22784 0.31917,-0.31323 0.10293,-1.15696 -0.12841,-0.50103 -0.19521,-0.94922 -0.14846,-0.99598 0.1846,-0.18461 1.22871,0.90417 1.63393,1.70386 0.52083,1.02781 0.76672,1.20463 1.07978,0.77649 0.33476,-0.45781 0.29574,-1.12796 -0.11229,-1.92828 -0.19255,-0.3777 -0.31842,-0.71841 -0.27968,-0.75714 0.20337,-0.20337 0.81822,0.40696 1.15427,1.1458 0.54866,1.2063 0.62777,1.3425 0.81612,1.40529 0.21588,0.072 0.79661,-0.90586 0.95652,-1.61056 0.10633,-0.46854 0.142,-0.4962 0.2651,-0.20552 0.0804,0.18984 0.0516,0.67464 -0.0661,1.11496 -0.23036,0.86127 -0.16176,1.1068 0.30921,1.1068 0.59432,0 1.4098,-1.36653 1.44394,-2.41968 0.0159,-0.49039 0.016,-0.49034 0.17921,0.0739 0.14572,0.50389 0.11065,0.85393 -0.21734,2.16935 -0.0928,0.37208 1.15994,0.31886 1.58677,-0.0674 0.3325,-0.3009 0.70907,-1.33399 0.75444,-2.06971 0.0143,-0.23128 0.0812,0.0557 0.14874,0.63783 0.10023,0.86369 0.063,1.15948 -0.20232,1.60832 -0.3568,0.60356 -0.42326,1.22062 -0.14969,1.3897 0.2409,0.14889 0.57525,0.79698 0.40403,0.78316 -0.0762,-0.006 -0.33693,-0.0908 -0.57947,-0.18814 z m 16.05138,-7.30133 c 0,-0.0584 0.79708,-0.99422 1.7713,-2.07953 1.711,-1.90612 1.81239,-2.06636 2.97869,-4.70732 0.66407,-1.50372 1.78009,-3.72622 2.48006,-4.93889 0.69996,-1.21268 1.53696,-2.7208 1.86,-3.35139 0.84763,-1.65463 4.11565,-4.86092 6.8049,-6.67638 1.76877,-1.19406 2.26845,-1.44025 3.66007,-1.80333 0.88641,-0.23126 1.61165,-0.47809 1.61165,-0.5485 0,-0.23991 -1.27348,-0.36771 -2.74761,-0.27574 -1.33005,0.083 -1.61964,0.17147 -3.02178,0.92336 -0.85291,0.45737 -2.32427,1.34801 -3.26968,1.97919 l -1.71894,1.14761 -0.8387,-0.53146 c -0.91246,-0.5782 -2.29736,-1.09588 -2.91744,-1.09057 -0.31314,0.003 -0.23313,0.10541 0.40304,0.5174 0.43656,0.28273 1.11125,0.79567 1.4993,1.13987 l 0.70556,0.62583 -1.68015,1.65108 c -1.23439,1.21304 -1.88954,1.72089 -2.46936,1.91416 -0.75522,0.25174 -0.79435,0.29897 -0.90842,1.09641 -0.18336,1.28183 -0.33442,1.37957 -1.50807,0.97578 -0.54363,-0.18704 -1.03022,-0.29826 -1.08131,-0.24717 -0.0511,0.0511 0.0821,0.57933 0.29604,1.17386 0.21392,0.59454 0.36623,1.10368 0.33847,1.13144 -0.0277,0.0278 -0.57665,-0.27624 -1.21978,-0.67554 -1.16587,-0.72388 -1.16989,-0.72916 -1.3693,-1.79714 -0.10999,-0.58912 -0.5123,-1.70613 -0.89402,-2.48224 -0.89759,-1.82495 -1.41541,-3.23925 -1.22832,-3.35487 0.0815,-0.0504 0.48842,-0.0151 0.90432,0.0783 0.84294,0.18939 1.05674,0.11914 0.63591,-0.20897 -0.15426,-0.12026 -0.68424,-0.53263 -1.17775,-0.91637 -0.49351,-0.38373 -0.89729,-0.84014 -0.89729,-1.01423 0,-0.28584 0.19393,-0.31653 2.00004,-0.31653 1.83879,0 2.17137,-0.0551 4.12481,-0.68283 1.74765,-0.56163 2.57007,-0.95797 4.63368,-2.23306 1.3799,-0.85263 3.26412,-2.14059 4.18716,-2.86214 2.71766,-2.12442 3.83806,-2.27377 7.98487,-1.06444 2.37539,0.69273 3.73092,1.57145 6.21771,4.03056 1.91351,1.89222 2.25246,2.48748 1.6757,2.94274 -0.12259,0.0968 -2.15767,0.22133 -4.5836,0.28055 l -4.3631,0.10652 -1.81193,1.21566 c -0.99655,0.66862 -2.80839,2.0505 -4.02629,3.07084 -1.97843,1.65749 -2.35584,2.06891 -3.542,3.86114 -1.00344,1.51616 -1.64044,2.7684 -2.6087,5.12827 -1.70695,4.16023 -2.9991,6.10574 -5.02917,7.57212 -0.78077,0.56398 -1.5188,1.11018 -1.64007,1.21378 -0.12127,0.1036 -0.22049,0.14056 -0.22049,0.0821 z m -10.94703,-7.13389 c -0.87187,-0.44591 -1.55185,-0.94686 -1.96331,-1.44639 -0.34621,-0.42032 -0.8815,-1.04202 -1.18953,-1.38157 -0.30804,-0.33955 -0.96564,-1.21268 -1.46133,-1.94028 -0.49569,-0.7276 -1.43706,-2.03729 -2.09194,-2.91042 -1.02475,-1.36629 -1.21916,-1.7453 -1.39517,-2.71996 -0.17674,-0.97878 -0.34459,-1.30391 -1.23687,-2.39588 -2.24005,-2.74137 -2.70327,-2.97375 -5.71719,-2.86813 l -2.30804,0.0809 -2.45023,1.17794 c -1.34763,0.64786 -2.48241,1.14576 -2.52174,1.10643 -0.0703,-0.0703 3.04761,-2.19108 3.73724,-2.54205 0.55969,-0.28483 2.75805,-0.57083 4.35532,-0.5666 1.07693,0.003 1.66939,0.0964 2.23443,0.35277 1.10426,0.50107 1.14538,0.47753 1.00791,-0.57713 -0.18959,-1.45446 -0.8288,-2.67137 -1.70732,-3.25034 -0.74971,-0.49408 -0.75179,-0.49837 -0.27037,-0.55469 0.26685,-0.0312 0.80416,0.1095 1.19404,0.31271 l 0.70885,0.36948 -0.12678,-0.40091 c -0.23416,-0.74044 -0.65411,-1.21264 -1.47004,-1.65295 l -0.81076,-0.43753 0.70556,0.10465 c 0.38805,0.0576 0.92383,0.26149 1.19062,0.45319 l 0.48507,0.34854 -7e-4,-0.49035 c -7.1e-4,-0.58961 -0.55377,-1.57203 -1.20239,-2.13615 l -0.47265,-0.41109 0.61736,0.0755 c 0.33955,0.0415 0.76886,0.14063 0.95401,0.2202 0.30457,0.13089 0.32555,0.0872 0.22016,-0.45819 -0.20401,-1.05577 -1.6577,-1.98191 -3.41252,-2.1741 -1.01345,-0.11099 -1.17878,-0.0758 -2.30321,0.49047 -0.66626,0.33552 -1.31575,0.7358 -1.44331,0.8895 -0.20377,0.24552 -0.15969,0.28009 0.36293,0.28464 1.31412,0.0114 3.60134,0.21287 3.72428,0.32798 0.0719,0.0674 -0.56305,0.22819 -1.41111,0.35739 -2.08576,0.31774 -4.4613,1.51243 -4.99673,2.51291 -0.11711,0.21882 -0.12435,0.32239 -0.0179,0.25662 0.28622,-0.17687 3.54572,-0.81425 4.16404,-0.81425 0.31033,0 0.71668,0.11147 0.90299,0.24771 0.31164,0.22787 0.26844,0.2571 -0.53955,0.36499 -1.47645,0.19714 -4.27273,1.47937 -4.24152,1.94494 0.007,0.10971 1.07249,0.17639 2.81741,0.17639 2.08665,0 2.82492,0.0565 2.88102,0.22049 0.0524,0.15318 -0.14892,0.22048 -0.65953,0.22048 -1.00091,0 -3.12976,0.56646 -4.93888,1.31416 -1.62976,0.67358 -2.80732,0.79362 -4.12468,0.42047 -0.85097,-0.24105 -1.7979,-1.06045 -1.95671,-1.69318 -0.15884,-0.63288 -0.3853,-0.30075 -0.60037,0.8805 -0.17818,0.97863 -0.61897,1.90027 -0.90882,1.90027 -0.0779,0 -0.269,0.0489 -0.42462,0.10858 -0.24588,0.0944 -0.26841,-0.0154 -0.17192,-0.83785 0.12876,-1.09764 -0.13405,-2.25937 -0.60818,-2.68846 -0.31888,-0.28858 -0.33437,-0.25573 -0.45459,0.96449 -0.0778,0.78899 -0.29557,1.61208 -0.5802,2.19242 -0.39733,0.81015 -0.53692,0.94262 -1.08955,1.03404 -1.39098,0.23009 -2.21658,0.12389 -3.02464,-0.38909 -1.45236,-0.922 -2.09275,-2.18047 -2.1028,-4.13239 l -0.004,-0.83785 h -1.46018 c -1.30147,0 -1.59384,0.0651 -2.68993,0.59926 -0.69257,0.33749 -1.73058,1.06217 -2.37628,1.65899 l -1.14653,1.05973 1.58751,0.73646 c 2.12726,0.98685 5.96562,2.2177 8.02569,2.57361 1.19565,0.20656 2.40727,0.27136 4.2294,0.22621 l 2.55371,-0.0633 0.10902,0.66495 c 0.12039,0.73421 0.008,0.93726 -0.83906,1.51621 -0.6354,0.43427 -3.93771,1.84508 -4.05179,1.731 -0.0409,-0.0409 0.3285,-0.33296 0.82095,-0.64896 0.49245,-0.316 0.85568,-0.61422 0.80721,-0.6627 -0.0485,-0.0485 -0.46077,0.006 -0.91621,0.12037 -0.71487,0.18 -1.22816,0.14299 -3.75502,-0.2708 l -2.92696,-0.4793 -1.9889,-1.19916 c -1.66071,-1.00129 -2.31558,-1.28481 -3.96875,-1.71817 -1.86053,-0.48772 -2.30938,-0.5311 -7.447903,-0.71987 -6.01354,-0.22091 -10.038586,-0.46826 -11.598406,-0.71276 -1.25654,-0.19696 -2.74839,-1.27415 -3.72154,-2.68712 -0.57668,-0.83731 -0.72169,-1.28551 -1.24558,-3.84969 -0.49124,-2.40442 -1.27787,-5.49962 -1.64531,-6.47393 -0.0457,-0.12126 -0.0151,-0.21988 0.068,-0.21915 0.33311,0.003 1.50413,2.85835 2.00311,4.88437 0.61513,2.49765 1.46614,4.42163 2.41613,5.46242 1.04637,1.14638 2.81184,1.7349 6.180106,2.06016 2.66477,0.25731 2.70505,0.25585 4.8507,-0.17543 1.28297,-0.25788 3.34821,-0.86952 5.07403,-1.50271 1.600735,-0.58729 3.346983,-1.22788 3.880553,-1.42352 0.53358,-0.19564 2.69495,-0.93628 4.80305,-1.64586 l 3.8329,-1.29014 3.04627,-0.0349 c 1.81886,-0.0208 3.52321,0.0529 4.23,0.18299 1.04937,0.19311 1.26462,0.30557 1.89618,0.99073 l 0.71243,0.7729 v -0.54209 c 0,-1.35731 -1.79431,-2.48719 -4.5652,-2.8747 -1.36685,-0.19115 -2.06156,-0.19098 -3.99251,0.001 -2.1943,0.21818 -2.47695,0.29167 -4.60701,1.19789 -10.434683,4.43937 -12.861083,5.2072 -16.917633,5.35362 -2.15828,0.0779 -2.66964,0.0399 -3.968746,-0.29459 -1.44381,-0.37179 -2.1013,-0.72002 -3.29341,-1.7443 -0.46894,-0.40293 -0.68617,-0.86887 -1.2515,-2.68444 -0.61769,-1.98369 -1.26726,-5.51948 -1.05332,-5.73343 0.0468,-0.0468 0.26196,0.53131 0.47806,1.28474 0.8582,2.99196 1.63019,5.28474 2.0054,5.95598 0.47704,0.8534 2.11602,1.79277 3.73439,2.14033 3.819416,0.82024 10.776326,-0.90318 18.085199,-4.48022 4.25792,-2.08387 5.04897,-2.30986 8.13881,-2.32514 1.68517,-0.008 2.08094,0.0559 3.88056,0.63012 1.22462,0.39072 2.26125,0.84239 2.66545,1.16135 0.72261,0.5702 0.78906,0.54146 0.41143,-0.17791 -0.42986,-0.81882 -1.55802,-1.74949 -2.69385,-2.22226 -1.69779,-0.70672 -6.00911,-1.87007 -6.93022,-1.87007 -1.60932,0 -4.30866,1.08957 -7.86731,3.17559 -6.675953,3.91333 -7.653343,4.42599 -9.483663,4.97433 -1.66905,0.50003 -1.93205,0.53077 -3.86546,0.45179 l -2.074556,-0.0847 -1.50241,-0.99983 c -1.1371,-0.75673 -1.65267,-1.23473 -2.12038,-1.96588 -0.98349,-1.53743 -0.91205,-1.65897 0.2948,-0.50159 0.61991,0.59451 1.62947,1.40191 2.24346,1.79424 0.95375,0.60943 1.308666,0.73135 2.436696,0.83706 2.11885,0.19855 4.02568,-0.0356 5.35171,-0.65706 0.62901,-0.29481 3.33592,-1.79404 6.015365,-3.33161 2.679438,-1.53758 5.469458,-3.068 6.200028,-3.40093 1.73899,-0.79248 3.4522,-1.07391 5.69097,-0.93484 1.47852,0.0918 2.12059,0.23785 3.96875,0.90243 3.07756,1.10668 3.38657,1.06318 1.7009,-0.23947 -1.31201,-1.01389 -1.39203,-1.04783 -3.3306,-1.41273 -2.49545,-0.46972 -4.06925,-0.4701 -6.25875,-0.002 -1.52103,0.32552 -2.18311,0.61019 -5.60531,2.41011 -2.134298,1.12255 -4.912433,2.65327 -6.173613,3.40161 l -2.29305,1.36061 -1.72053,0.12053 c -2.88831,0.20234 -3.07444,0.13694 -5.074886,-1.78314 -1.63811,-1.5723 -1.74949,-1.72584 -2.10799,-2.90613 -0.20817,-0.68537 -0.34162,-1.283 -0.29656,-1.32806 0.0451,-0.0451 0.3261,0.27294 0.62452,0.70668 0.29842,0.43374 1.19547,1.38938 1.99345,2.12366 1.392306,1.28115 1.464396,1.32281 1.785706,1.03203 0.49899,-0.45158 0.32503,-1.45445 -0.79307,-4.57191 -0.52883,-1.47448 -0.87085,-2.62541 -0.76005,-2.55764 0.31902,0.19514 1.35413,1.42819 2.30256,2.74287 0.62077,0.86049 1.21443,1.43074 2.06145,1.98016 1.14727,0.74416 1.21309,0.76393 1.84967,0.55536 1.01007,-0.33095 0.93908,-0.71314 -0.25122,-1.35242 -0.90338,-0.48519 -2.18318,-1.82057 -1.95933,-2.04442 0.0401,-0.0401 0.36922,0.17141 0.73143,0.46997 0.75564,0.62286 2.52188,1.16857 2.81936,0.87109 0.1261,-0.12611 0.13141,-0.34565 0.0163,-0.67312 -0.12783,-0.36356 -0.41392,-0.5829 -1.13575,-0.87074 -0.88819,-0.35417 -2.08703,-1.37623 -1.86946,-1.59379 0.051,-0.051 0.44785,0.1153 0.88181,0.36962 1.07485,0.6299 1.48244,0.61009 1.55289,-0.0755 0.0383,-0.37288 0.21949,-0.64137 0.59062,-0.87526 0.53374,-0.33637 0.53819,-0.33608 1.47273,0.0969 0.91889,0.42573 2.666235,0.61266 2.666235,0.28524 0,-0.082 -0.16759,-0.30026 -0.37242,-0.48507 -0.57415,-0.51804 -1.866185,-2.10399 -1.567865,-1.92453 0.14552,0.0875 0.972145,0.62252 1.836935,1.18885 0.98075,0.64227 1.634698,0.96733 1.738068,0.86396 0.23242,-0.23242 0.0417,-0.51022 -1.370138,-1.9961 -0.6791,-0.7147 -1.35138,-1.45617 -1.493975,-1.64771 -0.24103,-0.3238 -0.22863,-0.32251 0.176395,0.0182 0.2396,0.20157 1.17783,0.904 2.08495,1.56096 1.193058,0.86403 1.702648,1.14113 1.842098,1.00168 0.24363,-0.24363 -0.2517,-0.7754 -2.609468,-2.80143 -3.015645,-2.59133 -3.018185,-2.58272 0.17639,-0.59979 2.786008,1.72933 4.136938,2.37416 4.442538,2.12053 0.39117,-0.32463 0.26404,-0.75008 -0.54882,-1.83667 -0.42932,-0.5739 -0.7577,-1.06632 -0.72975,-1.09428 0.028,-0.028 1.08507,0.5888 2.34914,1.37057 1.72428,1.06638 2.67684,1.53114 3.81387,1.86078 1.40016,0.40592 1.56279,0.41965 2.13561,0.1803 0.51911,-0.21689 0.62004,-0.34763 0.62004,-0.8031 0,-0.29922 -0.20377,-0.94616 -0.45283,-1.43765 -0.24905,-0.49149 -0.42005,-0.9264 -0.37998,-0.96646 0.0401,-0.0401 0.8193,0.25425 1.73165,0.65403 1.4527,0.63657 1.85057,0.91582 3.20221,2.24747 l 1.5434,1.52059 v -0.59942 c 0,-0.34292 -0.23139,-1.00942 -0.54074,-1.55755 -0.2974,-0.52698 -0.50353,-0.99534 -0.45806,-1.04081 0.24861,-0.24861 1.81765,0.93089 4.16012,3.12729 l 2.64291,2.47811 0.92545,-0.0536 c 0.81668,-0.0473 0.96149,-0.11581 1.23195,-0.58277 0.28066,-0.48458 0.28514,-0.6305 0.0532,-1.73184 -0.28478,-1.35206 -0.85819,-2.29803 -2.36105,-3.89514 l -0.97945,-1.04087 0.58204,0.11217 c 0.79112,0.15247 0.62858,-0.0374 -1.02216,-1.19412 -1.46627,-1.02744 -4.78025,-3.84147 -4.66396,-3.96036 0.19176,-0.19605 3.53313,1.66411 6.2455,3.47691 2.3267,1.55503 3.5151,2.48936 4.8507,3.81361 2.46976,2.44884 3.14694,2.92039 4.19378,2.92039 0.46113,0 0.83841,-0.0481 0.83841,-0.10691 0,-0.0588 -0.24769,-0.41964 -0.55043,-0.80188 -0.30274,-0.38223 -0.51629,-0.72912 -0.47456,-0.77085 0.12135,-0.12135 1.85432,0.58367 2.61493,1.06382 0.38286,0.24169 0.763,0.43944 0.84476,0.43944 0.0818,0 0.86668,-0.75407 1.74426,-1.6757 0.87759,-0.92163 1.70914,-1.67569 1.84791,-1.67569 0.1832,0 0.23804,0.18113 0.20022,0.66145 l -0.0521,0.66146 0.43799,-0.88194 c 0.2409,-0.48507 0.44023,-1.08038 0.44297,-1.32292 0.003,-0.24253 0.0744,-0.55068 0.15937,-0.68476 0.19058,-0.30091 0.19314,-0.2927 0.81815,2.61941 0.54407,2.53503 0.50263,4.47665 -0.12168,5.70039 -0.19125,0.37488 -0.32175,0.7595 -0.29001,0.85472 0.11002,0.33007 1.28754,-0.64709 1.6386,-1.35978 0.19402,-0.39391 0.52499,-0.94881 0.73548,-1.23312 l 0.38271,-0.51692 0.41104,0.36536 c 0.22607,0.20095 0.82795,0.65733 1.33749,1.0142 1.4889,1.04274 1.67931,0.84564 0.55147,-0.57086 -0.39981,-0.50215 -0.67717,-0.96276 -0.61635,-1.02358 0.0608,-0.0608 0.75376,-0.21293 1.53987,-0.33802 1.39753,-0.22238 1.44876,-0.21756 2.30602,0.21684 0.51795,0.26247 0.99734,0.66462 1.17145,0.98271 0.16209,0.29614 0.4224,0.70315 0.57847,0.90447 0.27486,0.35455 0.28766,0.3401 0.40769,-0.46029 0.0681,-0.45448 0.18569,-0.82632 0.26119,-0.82632 0.28135,0 1.77359,2.12474 2.55485,3.63777 0.46776,0.90589 0.91748,2.09211 1.06716,2.81485 0.2388,1.15304 0.23231,1.37695 -0.0844,2.91041 -0.58486,2.83166 -1.08223,4.04252 -1.66051,4.04252 -0.11132,0 -0.3424,-0.38933 -0.51351,-0.86518 -0.17112,-0.47585 -0.45926,-0.99925 -0.64031,-1.1631 -0.18106,-0.16386 -0.28763,-0.40624 -0.23683,-0.53863 0.0508,-0.13239 -0.2522,-0.64899 -0.67335,-1.14799 -0.56646,-0.67118 -1.13051,-1.0862 -2.1675,-1.5948 -1.63787,-0.80331 -2.70133,-0.89138 -4.23874,-0.35102 -1.20536,0.42365 -4.75641,2.55126 -5.12065,3.06803 -0.26235,0.37223 -0.25225,0.39003 0.25097,0.44236 0.65902,0.0685 2.79678,-0.55985 4.072,-1.19697 2.21938,-1.10882 5.39663,-1.00629 6.14899,0.19842 0.25233,0.40404 0.0583,0.41917 -0.79633,0.0621 -0.83182,-0.34755 -2.66718,-0.33669 -3.9144,0.0232 -1.51442,0.43695 -4.69655,2.09676 -5.95835,3.1079 -0.61839,0.49555 -1.12435,0.95651 -1.12435,1.02435 0,0.20718 2.67286,-0.6247 3.70416,-1.15285 1.43629,-0.73555 4.31315,-1.65992 5.56534,-1.78821 1.53923,-0.1577 2.78569,0.17416 3.87147,1.03074 0.85758,0.67656 1.10856,1.01602 1.13413,1.53393 0.009,0.18119 -0.0982,0.1502 -0.38448,-0.11117 -0.62563,-0.57128 -2.00287,-1.09324 -3.2113,-1.21705 -0.96095,-0.0984 -1.34223,-0.037 -2.85159,0.45937 -2.06328,0.67857 -6.18896,2.74986 -6.45044,3.23844 -0.15843,0.29603 -0.13846,0.32407 0.14559,0.20448 3.72631,-1.56895 6.22867,-2.20794 8.6465,-2.20794 1.74012,0 1.89451,0.0309 3.02009,0.60454 1.6778,0.85508 2.6018,2.08138 2.82415,3.7481 0.0883,0.66198 0.12553,1.75923 0.0827,2.43833 -0.0833,1.32158 -0.30498,1.67569 -1.04879,1.67569 -0.3744,0 -0.40726,-0.0757 -0.40726,-0.93871 0,-0.96214 -0.44592,-2.58906 -0.70963,-2.58906 -0.081,0 -0.23809,0.43735 -0.34907,0.9719 -0.11239,0.54138 -0.39834,1.20552 -0.64554,1.49931 -0.39679,0.47154 -0.54953,0.52729 -1.44234,0.52641 -1.38393,-10e-4 -2.11085,-0.24957 -2.9765,-1.01636 -0.73553,-0.65155 -0.74646,-0.6788 -1.05833,-2.64044 -0.25209,-1.58563 -0.36805,-1.967 -0.57971,-1.90668 -0.14552,0.0415 -0.59145,0.15975 -0.99095,0.26283 -0.86613,0.22348 -3.05782,1.6585 -3.60611,2.36112 -0.32902,0.42163 -0.35154,0.53366 -0.14515,0.7221 0.13436,0.12267 1.67796,0.83386 3.43021,1.58042 3.32216,1.41542 6.87406,2.39906 8.68186,2.40429 0.45772,0.001 1.00689,0.0492 1.22036,0.10649 0.38043,0.102 0.38252,0.11857 0.10545,0.83544 -0.15547,0.40225 -0.42575,0.8914 -0.60062,1.08699 -0.18699,0.20916 -0.40225,0.89933 -0.52265,1.6757 -0.13553,0.87389 -0.43665,1.78144 -0.89093,2.68512 -0.56823,1.13035 -0.7959,1.41089 -1.32413,1.6316 -1.04699,0.43745 -1.94819,0.32355 -3.42798,-0.43328 z m -68.270389,-34.0929 c -1.00212,-1.0914 -1.83773,-2.01078 -1.85693,-2.04305 -0.0192,-0.0323 -1.64025,-0.32993 -3.60235,-0.66146 l -3.56744,-0.60278 h -7.47168 c -4.10941,0 -7.469026,0.0595 -7.465798,0.13229 0.03236,0.72964 2.275372,1.57177 7.944828,2.98287 l 2.72083,0.6772 -1.14653,0.12004 c -1.5919,0.16668 -6.44447,-0.28915 -8.65977,-0.81346 -2.409536,-0.57027 -6.207275,-1.66765 -6.384452,-1.84483 -0.07694,-0.0769 0.266433,-0.81429 0.763051,-1.63856 0.670339,-1.1126 1.615076,-2.22687 3.667403,-4.32551 7.767638,-7.94293 16.919038,-15.5953 21.844018,-18.26591 1.34194,-0.72768 2.75254,-1.50811 3.13468,-1.73429 1.37544,-0.81411 0.38612,0.047 -1.79044,1.5583 -3.09088,2.14626 -9.22429,7.30891 -11.92229,10.03531 -2.13548,2.15796 -2.30087,2.37668 -3.04296,4.02425 -0.4316,0.95825 -0.75597,1.77103 -0.72082,1.80618 0.0803,0.0803 2.35015,-1.66526 3.65038,-2.80726 0.82199,-0.72196 3.37904,-2.07745 3.91898,-2.07745 0.0769,0 -0.93428,0.95595 -2.24714,2.12435 -1.31287,1.16839 -2.38703,2.15809 -2.38703,2.19932 0,0.107 0.43453,-0.0725 1.94028,-0.80134 0.7276,-0.35221 1.78126,-0.82798 2.34147,-1.05727 l 1.01855,-0.41689 1.2745,0.31702 1.27451,0.31703 2.54144,-0.4679 c 2.44585,-0.45029 3.19119,-0.67051 3.19119,-0.94287 0,-0.07 -0.078,-0.39929 -0.17337,-0.73177 -0.0954,-0.33248 -0.14227,-0.63562 -0.10425,-0.67363 0.038,-0.038 0.68004,0.33546 1.42674,0.82994 1.75266,1.16066 1.92743,1.25025 2.98173,1.52836 0.85849,0.22647 0.90693,0.21854 1.68383,-0.27577 0.4592,-0.29217 1.17555,-0.55781 1.68185,-0.62368 l 0.88195,-0.11474 -0.61736,0.5868 c -0.33955,0.32274 -0.85549,0.76232 -1.14653,0.97683 l -0.52917,0.39003 0.66538,0.006 c 0.43282,0.004 1.15363,-0.2399 2.06239,-0.69682 1.614926,-0.81197 3.210326,-1.44399 3.333676,-1.32063 0.11615,0.11615 -1.08742,1.17096 -1.92729,1.68909 -0.37636,0.23218 -0.66207,0.49575 -0.63491,0.58571 0.078,0.25831 2.29095,0.95234 4.79103,1.50254 2.73102,0.60103 5.925565,0.95518 6.790975,0.75285 0.5362,-0.12536 0.61628,-0.21269 0.60916,-0.66428 -0.005,-0.28598 -0.0751,-0.71839 -0.15682,-0.96092 -0.12456,-0.36956 -0.0311,-0.3203 0.57689,0.30417 0.852108,0.87516 0.918298,0.89342 3.556878,0.98141 1.92206,0.0641 4.05694,0.51139 4.05694,0.85 0,0.072 -1.30548,0.13182 -2.90107,0.13297 -1.5956,0.001 -3.04926,0.0814 -3.23038,0.17833 -0.18112,0.0969 -1.636668,0.18207 -3.234558,0.18918 -2.334475,0.0104 -3.144245,0.0813 -4.121725,0.36083 -0.66907,0.19133 -1.27269,0.4089 -1.3414,0.48348 -0.0687,0.0746 -0.30397,0.63413 -0.5228,1.24345 -0.21884,0.60931 -0.45645,1.14403 -0.52801,1.18826 -0.0716,0.0442 -0.18551,-0.58462 -0.25322,-1.39744 l -0.1231,-1.47786 -1.88194,-0.79322 c -2.601956,-1.09671 -4.868326,-1.78461 -7.302476,-2.21649 l -2.06916,-0.36711 -3.37868,0.43538 -3.37867,0.43539 -3.28342,1.43099 c -1.80588,0.78704 -3.3231,1.47211 -3.3716,1.52238 -0.0485,0.0503 1.53899,0.0443 3.52777,-0.0132 2.8951,-0.0838 3.86201,-0.17646 4.85014,-0.46484 1.38688,-0.40477 2.26355,-0.44165 4.26522,-0.17946 1.17988,0.15454 3.50701,0.68111 4.44989,1.00689 0.25007,0.0864 0.25192,0.0677 0.0167,-0.16833 -0.38757,-0.38894 -4.29432,-1.66959 -5.75772,-1.88741 -2.37293,-0.3532 -2.2603,-0.51986 0.3594,-0.53181 l 2.45098,-0.0112 2.31152,0.91247 c 1.27134,0.50186 2.40698,0.98471 2.52364,1.07299 0.23362,0.17679 2.206996,3.32912 2.129346,3.40148 -0.0266,0.0248 -0.741506,-0.26784 -1.588616,-0.65036 -1.25999,-0.56894 -1.60587,-0.66033 -1.90112,-0.50231 -0.1985,0.10623 -0.31315,0.27043 -0.25478,0.36488 0.0584,0.0945 0.79482,0.63822 1.63654,1.20837 1.28712,0.87185 3.568236,3.08715 3.357676,3.2608 -0.0349,0.0288 -0.46027,0.27705 -0.94534,0.55177 -0.48506,0.27473 -1.224266,0.73015 -1.642676,1.01206 l -0.76074,0.51256 -0.69447,-0.45958 c -0.63503,-0.42025 -0.69447,-0.52658 -0.69447,-1.24253 0,-0.78417 -0.29066,-1.68149 -0.54467,-1.68149 -0.38513,0 -0.84916,0.98283 -0.96214,2.0378 -0.0673,0.62816 -0.19351,1.18611 -0.28054,1.2399 -0.087,0.0538 -0.79203,-0.55416 -1.56668,-1.35099 -0.77466,-0.79683 -1.40847,-1.4005 -1.40847,-1.34149 0,0.059 0.16767,0.52694 0.3726,1.03985 0.68715,1.71987 1.02069,2.78465 0.87228,2.78465 -0.081,0 -0.96714,-0.89297 -1.96925,-1.98437 z m 72.614319,0.40727 c -1.71391,-1.55213 -4.56518,-3.33506 -6.312,-3.94698 -1.4049,-0.49214 -1.64242,-0.63676 -1.92697,-1.1733 -0.1785,-0.33659 -0.85051,-1.2494 -1.49337,-2.02847 -0.87851,-1.06466 -1.51449,-1.62799 -2.56044,-2.26793 -1.2586,-0.77005 -2.45814,-1.93043 -2.2307,-2.15787 0.17214,-0.17214 3.39008,1.82198 4.58614,2.84198 0.8692,0.74125 1.4022,1.3819 1.90006,2.28379 l 0.69197,1.25354 1.54401,0.60059 c 1.98013,0.77024 4.42569,2.42597 5.68419,3.84839 1.61172,1.82164 1.66259,2.14586 0.11711,0.74626 z m -27.01824,-11.69258 -1.03906,-0.5697 -4.10855,0.0414 c -2.63147,0.0265 -4.70764,0.13783 -5.77499,0.30959 -1.60153,0.25771 -1.69327,0.25447 -2.35515,-0.0832 -0.47979,-0.24477 -0.79551,-0.58056 -1.04077,-1.10691 -0.38604,-0.82852 -0.63237,-1.90969 -0.43037,-1.88896 0.0703,0.007 0.44905,0.4229 0.84159,0.92373 0.61921,0.79004 0.83613,0.93779 1.63833,1.11593 1.15006,0.25539 2.40105,0.001 3.92534,-0.79792 1.25776,-0.6593 1.5012,-0.67874 1.63871,-0.13084 0.11264,0.4488 0.6663,0.64008 1.85145,0.63962 0.62876,-1.7e-4 0.64454,-0.0177 0.94809,-1.05069 0.16977,-0.57775 0.30868,-1.17295 0.30868,-1.32267 0,-0.58144 0.94461,-0.29435 2.07355,0.63021 0.83271,0.68196 1.55721,1.0698 2.9655,1.5875 1.02499,0.37678 2.1393,0.68507 2.47625,0.68507 0.74758,0 1.90063,-0.55614 2.67116,-1.28834 0.62522,-0.59413 0.71459,-0.44973 0.31443,0.508 -0.28086,0.67221 -0.28038,0.6728 0.7042,0.84092 0.29347,0.0501 1.12691,0.37162 1.85209,0.71446 l 1.3185,0.62336 -2.99861,-0.0863 c -1.64924,-0.0474 -3.44998,-0.12222 -4.00165,-0.16616 -0.62983,-0.0502 -1.27798,0.0171 -1.74197,0.18082 -0.94894,0.33481 -0.8295,0.35292 -2.03676,-0.30898 z m 4.03231,-9.22097 c -2.50719,-2.89116 -3.24115,-3.52352 -5.30132,-4.56749 -0.59239,-0.30018 -1.25528,-0.90584 -2.1355,-1.95112 -1.17744,-1.39823 -1.41559,-1.58563 -3.07034,-2.41602 -2.3489,-1.17874 -4.49923,-1.96657 -10.17463,-3.72779 -2.36083,-0.73262 -2.79517,-0.81006 -5.64445,-1.00632 -3.150658,-0.21701 -5.173433,-0.46429 -4.150818,-0.50742 0.28791,-0.0121 2.03416,0.0613 3.880548,0.16318 l 3.35708,0.18525 5.11528,1.67164 c 2.8134,0.9194 6.06008,2.0862 7.21485,2.59287 l 2.09957,0.92124 1.47231,1.70857 c 1.37073,1.59069 1.58489,1.76258 3.10389,2.49125 1.92809,0.92491 2.64173,1.61131 5.13867,4.9426 1.53228,2.04429 1.79442,2.42575 1.65231,2.40444 -0.0243,-0.004 -1.17512,-1.31083 -2.55745,-2.90488 z m -31.441523,0.90501 c -2.59744,-0.90902 -2.91083,-1.07713 -3.45808,-1.85494 -0.54727,-0.77784 -1.28991,-1.10761 -3.23603,-1.43696 -0.52881,-0.0895 -1.29574,-0.38256 -1.70429,-0.65127 -1.636186,-1.07611 -3.401866,-2.34555 -3.513346,-2.52592 -0.23489,-0.38006 0.0693,-0.35007 1.08601,0.10705 1.349046,0.60655 2.871546,0.73985 4.162846,0.36446 1.33052,-0.38679 1.35137,-0.37631 0.66341,0.33348 l -0.60063,0.61969 0.36944,0.36944 c 0.62077,0.62078 1.79454,0.72833 3.53067,0.32352 0.83355,-0.19436 1.54613,-0.3228 1.58351,-0.28542 0.0374,0.0374 -0.37081,0.33388 -0.90708,0.6589 -1.49696,0.90725 -1.22946,1.56457 0.64496,1.58489 0.5157,0.006 1.24803,0.0653 1.6274,0.13272 0.617,0.10962 0.710395,0.19609 0.885385,0.8198 0.13616,0.4853 0.36789,0.79786 0.7623,1.02821 l 0.56667,0.33095 0.790388,-0.64767 c 1.15784,-0.94876 2.92963,-1.37805 4.59578,-1.11351 1.81174,0.28766 1.98237,0.48607 0.42337,0.49231 -1.20331,0.005 -1.56439,0.0977 -3.52778,0.90702 -1.20299,0.49592 -2.385698,0.93047 -2.628228,0.96568 -0.24253,0.0352 -1.19503,-0.19989 -2.116675,-0.52243 z"
       id="path6975-3-6"
       sodipodi:nodetypes="sscccsssssssscccssscssssccsssssscssssssssssssssssscccssssssssssssssssssssssssscscsssssscsscccsssssssssscsscccssscssscssssssssssscsssssssssscssssssssssscsscssscccsssssssssssscsssssssscssscccssssssssscssssssssscsscscssscsssssssscssssssscsssssssssscssccssssssssssssssssscssscsssccsssscsssccssssscccsssscsssssscccccsscscssssscccssssscssssssscccsssssscccsssssscssssssccssscssscssssssssscssscssssssssscccsssssssssccssscsssssssssssssssssssssssssssscssssssssscsscsssssssssscscsscsssssscsssscssssssssssscsssssscccssssssscsssccsssscsscssccscssssssscsssssscsssssssscsscsssccssscssscssssscscssssssscssssssscssscsscsscssssssscssscsssscsssssssssssscsscssssssssssssssssssssssssssssssssssssscsssssssscsssscsscscsssscssssssssscsccssssscsssssssscssssssssssssssssssssssccssscssscssssscsssssssccsssssccssscssscssssssssssssssssscccsssssssscssccssssssssssscssssssscsscccssssssssscsssssssssscssssssssssssssssssscsssccssssssssscssssssssscsssscsssssssscsscssscssssssssscsssssssscssssss" />
  </g>
</svg>
