<?xml version="1.0" encoding="UTF-8" standalone="no"?>
<!-- Created with Inkscape (http://www.inkscape.org/) -->

<svg
   width="210mm"
   height="297mm"
   viewBox="0 0 210 297"
   version="1.1"
   id="svg5"
   inkscape:version="1.1 (c68e22c387, 2021-05-23)"
   sodipodi:docname="Kajak1.svg"
   xmlns:inkscape="http://www.inkscape.org/namespaces/inkscape"
   xmlns:sodipodi="http://sodipodi.sourceforge.net/DTD/sodipodi-0.dtd"
   xmlns="http://www.w3.org/2000/svg"
   xmlns:svg="http://www.w3.org/2000/svg">
  <sodipodi:namedview
     id="namedview7"
     pagecolor="#ffffff"
     bordercolor="#666666"
     borderopacity="1.0"
     inkscape:pageshadow="2"
     inkscape:pageopacity="0.0"
     inkscape:pagecheckerboard="0"
     inkscape:document-units="mm"
     showgrid="false"
     inkscape:zoom="0.47433592"
     inkscape:cx="965.56044"
     inkscape:cy="663.03223"
     inkscape:window-width="1920"
     inkscape:window-height="1017"
     inkscape:window-x="-8"
     inkscape:window-y="-8"
     inkscape:window-maximized="1"
     inkscape:current-layer="layer1" />
  <defs
     id="defs2" />
  <g
     inkscape:label="Ebene 1"
     inkscape:groupmode="layer"
     id="layer1">
    <path
       style="fill:#000000;stroke-width:0.264583"
       d="m 206.94494,220.49375 c -4.87587,-0.73099 -7.60828,-1.70216 -13.89063,-4.93708 -2.76489,-1.42371 -5.80098,-2.84793 -6.74687,-3.16494 -2.04079,-0.68394 -5.67055,-1.3116 -7.59322,-1.31301 -2.59859,-0.002 -7.41663,0.79175 -12.14536,2.00063 -7.22955,1.84821 -9.54393,2.23173 -13.4661,2.23148 -3.84491,-2.4e-4 -5.9377,-0.35415 -10.01635,-1.69384 -2.38408,-0.78309 -3.11311,-0.89797 -6.52064,-1.0275 -3.10511,-0.11804 -4.43066,-0.30077 -6.95353,-0.9586 -4.17452,-1.0885 -7.27168,-2.15371 -11.38569,-3.9159 -5.96869,-2.55661 -18.17676,-8.97377 -20.111806,-10.57173 -0.411345,-0.3397 -0.841923,-0.61763 -0.956837,-0.61763 -0.260501,0 -6.502376,-3.8829 -7.566758,-4.70708 -2.773492,-2.14757 -6.527554,-4.40904 -12.027458,-7.24538 -1.964531,-1.01313 -4.226718,-2.1978 -5.027083,-2.63259 -0.800365,-0.43479 -3.32563,-1.55376 -5.611699,-2.4866 -4.109574,-1.67693 -7.445311,-3.64048 -10.527884,-6.19713 -0.654844,-0.54311 -1.488281,-1.14359 -1.852083,-1.33439 -1.396281,-0.73229 -4.15389,-2.63528 -5.346214,-3.68934 -1.160586,-1.02601 -3.438548,-3.75186 -4.972536,-5.95022 -0.363802,-0.52136 -1.19724,-1.2975 -1.852084,-1.72474 -1.314016,-0.8573 -5.356682,-2.92561 -5.721868,-2.92742 -0.127191,-5.3e-4 -1.171281,-0.47688 -2.3202,-1.05834 -1.148916,-0.58145 -2.24686,-1.05718 -2.439874,-1.05718 -1.028914,0 -11.276131,-4.55753 -12.272224,-5.45816 -0.363802,-0.32894 -1.018646,-0.75347 -1.455208,-0.9434 -1.681306,-0.73146 -4.928111,-3.15249 -4.83485,-3.60519 0.119687,-0.58096 0.865694,-0.44015 1.917197,0.36187 1.588555,1.21165 6.537518,4.05709 7.369463,4.23713 0.46192,0.1 1.500926,0.51399 2.308897,0.92006 0.807971,0.40608 2.17719,0.94017 3.042708,1.18686 0.865518,0.2467 1.930855,0.60298 2.367418,0.79174 0.436562,0.18876 2.2225,0.70215 3.96875,1.14087 5.166362,1.29796 13.206084,4.45011 14.287052,5.60155 1.447904,1.54229 2.479982,2.83705 2.95266,3.70417 1.044284,1.9157 1.924606,3.11195 3.164552,4.30021 0.703114,0.67381 1.317006,1.1865 1.364202,1.1393 0.109064,-0.10906 -0.790493,-1.43129 -2.353974,-3.46003 -1.115015,-1.44682 -3.127372,-5.24085 -3.531536,-6.65824 -0.250362,-0.87801 -3.599191,-2.927 -6.688686,-4.0925 -0.327421,-0.12352 -0.863203,-0.33577 -1.190625,-0.47167 -0.327421,-0.1359 -1.012031,-0.36933 -1.521354,-0.51873 -7.367709,-2.16118 -15.098879,-4.61227 -18.256249,-5.78798 -4.424175,-1.64742 -9.960213,-4.49857 -14.1914266,-7.3088 -3.5299591,-2.34448 -9.25204857,-7.4973 -9.0308741,-8.13242 0.24193394,-0.69473 1.14504389,-0.16204 3.384546,1.99637 1.8634665,1.79599 4.0963577,3.54707 6.6085878,5.1826 0.6012222,0.39141 2.8375669,1.56856 4.7624999,2.50685 4.96108,2.41821 11.632134,4.20935 18.780458,5.04243 12.777676,1.48914 20.290729,3.23373 20.735459,4.81494 0.07231,0.2571 0.141362,1.77714 0.153445,3.37787 0.01857,2.46032 0.147828,3.3196 0.835814,5.55625 1.357802,4.41425 4.438951,9.47237 7.381832,12.11828 1.198349,1.07741 6.257769,3.80743 6.537582,3.52762 0.06856,-0.0686 -0.784834,-1.03709 -1.896425,-2.15229 -1.111591,-1.11521 -2.680401,-2.91919 -3.486242,-4.00885 -1.750545,-2.36709 -3.787588,-6.07474 -3.793752,-6.90507 -0.0024,-0.32742 -0.105699,-0.59531 -0.229484,-0.59531 -0.410316,0 -1.18242,-4.03107 -1.229622,-6.41972 -0.05819,-2.94472 0.200731,-4.61435 1.156803,-7.45948 0.869061,-2.5862 0.863389,-2.60032 -1.42191,-3.53966 -2.460533,-1.01136 -6.234634,-1.32691 -17.859375,-1.49322 -5.216289,-0.0746 -8.315404,-0.2379 -10.054167,-0.52972 -1.382447,-0.23202 -3.168385,-0.52872 -3.968749,-0.65933 -1.824527,-0.29775 -5.392301,-1.22321 -6.614584,-1.71578 -0.509323,-0.20525 -2.354791,-0.93426 -4.101041,-1.62003 -1.74625,-0.68577 -3.306931,-1.34902 -3.468179,-1.4739 -0.161249,-0.12487 -1.113749,-0.65965 -2.1166669,-1.18839 -1.0029182,-0.52873 -2.1395237,-1.18303 -2.5257897,-1.45397 -0.3862663,-0.27095 -0.7661942,-0.49264 -0.8442844,-0.49264 -0.312752,0 -7.8356787,-5.19413 -9.6953365,-6.69405 -2.6393396,-2.12878 -4.5007852,-3.91632 -4.5007852,-4.3221 0,-0.46513 0.4587322,-0.69285 0.8892117,-0.44139 0.2003298,0.11701 1.2498384,1.01194 2.3322419,1.98872 2.6115399,2.35671 7.2362091,5.76466 7.8227766,5.76466 0.087392,0 0.3468632,0.16661 0.5766028,0.37025 0.4101036,0.36351 5.0871434,2.75958 7.4291667,3.806 3.673886,1.6415 9.895006,3.31003 15.610417,4.18677 3.887094,0.59628 11.483112,0.51867 16.007291,-0.16355 6.186194,-0.93284 11.189488,-1.36771 13.727202,-1.19311 6.612895,0.45497 11.661714,2.15089 15.713734,5.27833 1.938062,1.49583 1.811927,1.82028 -1.025136,2.63686 -2.618031,0.75353 -5.759043,3.15504 -7.17768,5.4878 -0.277532,0.45636 -0.735463,1.43853 -1.017622,2.1826 -0.282162,0.74406 -0.619673,1.54114 -0.750022,1.77129 -0.422688,0.74631 -0.155681,7.11509 0.354057,8.44509 1.392449,3.63317 2.756784,5.98101 5.395381,9.28472 1.478579,1.85129 4.8304,5.26737 5.168291,5.26737 0.143986,0 0.449763,0.16813 0.679503,0.37364 0.584152,0.52252 6.336847,3.59624 6.718842,3.58993 0.172397,-0.003 -0.313415,-0.59815 -1.079582,-1.32291 -0.766167,-0.72476 -1.49661,-1.31775 -1.623205,-1.31775 -0.396343,0 -5.745012,-5.50738 -7.489685,-7.71193 -4.010498,-5.06761 -5.827691,-10.25991 -4.994828,-14.2718 0.375447,-1.80851 2.029111,-4.40751 3.415816,-5.36849 0.781037,-0.54126 1.359561,-0.71433 2.452502,-0.73367 2.663846,-0.0472 4.208473,1.11236 4.208473,3.1592 0,1.08208 -0.117297,1.30014 -1.295688,2.40876 -0.712629,0.67044 -1.927844,1.69779 -2.700478,2.28301 -2.006946,1.52012 -2.407578,2.32973 -2.382044,4.81369 0.01839,1.78962 0.140619,2.28557 0.994252,4.03449 0.535302,1.09672 1.19988,2.32146 1.47684,2.72164 0.808665,1.16844 1.093296,0.83676 0.340577,-0.39688 -1.27581,-2.09093 -1.799254,-3.48407 -1.814258,-4.82864 -0.01836,-1.64537 0.485754,-2.71239 1.652569,-3.49784 1.693989,-1.14034 4.660042,-0.40775 7.474135,1.84604 0.532278,0.4263 1.027147,1.00212 1.099709,1.27959 0.202385,0.77392 0.485568,0.59977 1.679159,-1.03266 1.326492,-1.8142 1.18372,-2.16701 -0.876932,-2.16701 -1.788287,0 -1.953051,-0.33086 -1.010653,-2.02949 2.120614,-3.82233 3.069431,-4.60452 6.210729,-5.12003 4.136228,-0.67878 5.449554,-1.14245 8.24022,-2.90921 3.242919,-2.05307 4.107577,-2.36868 6.576442,-2.40047 2.89752,-0.0373 3.57188,-0.2251 3.57188,-0.99463 0,-0.50843 -0.29633,-0.69673 -1.98438,-1.261 -1.0914,-0.36483 -2.21148,-0.88647 -2.48905,-1.15919 -0.490823,-0.48226 -0.491368,-0.51632 -0.01987,-1.24061 0.68003,-1.04465 1.09115,-1.31199 2.96113,-1.92553 1.07,-0.35106 2.34457,-0.539 3.65541,-0.539 2.06107,0 3.03613,-0.28543 3.03613,-0.88877 0,-0.45791 1.54293,-3.98559 3.0251,-6.91644 1.41556,-2.79914 1.45901,-2.87013 3.25127,-5.31175 l 1.38158,-1.88214 -1.4722,-3.28222 c -2.5706,-5.73106 -3.433,-7.06387 -5.48073,-8.4703 -1.79362,-1.23191 -2.09676,-1.95372 -2.27441,-5.41578 -0.13562,-2.6429 -0.22413,-3.04224 -0.90072,-4.06355 -1.0469,-1.58031 -1.08262,-2.15551 -0.25142,-4.04885 0.65447,-1.49078 0.72958,-1.97459 0.75012,-4.831664 0.0294,-4.087942 0.75963,-7.660505 2.1811,-10.67049 0.50198,-1.06295 1.19319,-1.85062 2.8078,-3.199646 2.56244,-2.14095 2.75538,-2.360353 2.95548,-3.360841 0.13942,-0.697095 -0.0115,-0.921446 -1.47802,-2.196967 -0.8983,-0.781328 -2.30692,-1.917748 -3.13026,-2.52538 -1.31471,-0.970269 -2.9489,-2.301795 -4.67198,-3.806703 -0.29104,-0.25419 -1.06495,-0.872482 -1.71979,-1.373984 -0.65484,-0.501504 -1.25715,-1.001067 -1.33846,-1.110141 -0.23542,-0.315825 -4.340193,-1.191488 -7.697875,-1.642174 -1.695767,-0.227616 -3.587292,-0.591695 -4.203387,-0.809067 -0.916898,-0.3235 -4.992008,-2.653971 -8.655238,-4.949754 -0.399804,-0.25056 -1.194792,-0.71038 -1.766647,-1.021821 -1.780326,-0.969598 -6.322999,-3.981765 -7.305394,-4.844079 -0.515237,-0.452258 -1.348674,-1.113898 -1.852084,-1.470312 -2.046443,-1.448882 -4.544763,-4.313131 -5.48019,-6.282873 -0.801399,-1.687522 -0.907412,-2.139713 -0.801383,-3.418278 0.06721,-0.810418 0.232973,-1.551825 0.368374,-1.647572 0.135401,-0.09575 0.381997,-0.483873 0.547997,-0.862502 0.24257,-0.553277 0.543049,-0.72148 1.530691,-0.856852 2.295414,-0.314621 5.984534,0.423988 9.633739,1.9288 2.160992,0.891122 7.614123,3.970269 9.746644,5.503508 0.758949,0.54567 2.128168,1.521723 3.042708,2.169006 2.200651,1.557554 7.612941,6.998725 9.700555,9.752319 1.1879,1.566852 2.36235,2.719043 4.09034,4.012794 3.84303,2.877294 5.135,3.896935 8.37711,6.611351 4.48742,3.757035 4.27954,3.645191 7.36342,3.961656 l 2.69223,0.276275 2.23507,1.629805 c 1.22929,0.896392 2.30167,1.803373 2.38307,2.015508 0.0814,0.212138 0.0233,0.848709 -0.12904,1.4146 -0.36558,1.357681 -0.15145,1.714453 2.19512,3.657349 1.05229,0.87127 2.38951,1.984962 2.97159,2.47487 0.58208,0.489908 1.53458,1.237163 2.11667,1.660568 0.58208,0.423402 1.77943,1.367186 2.66079,2.097299 0.88135,0.730112 2.07197,1.70348 2.64583,2.163035 12.37778,9.912407 21.56554,17.368857 27.74085,22.513507 2.34364,1.95248 3.10627,2.45548 3.42461,2.25873 0.58434,-0.36114 2.39542,-0.0296 3.8504,0.70488 1.65458,0.83524 3.39093,2.60914 3.63189,3.71044 0.55848,2.55254 0.71968,2.74013 5.76643,6.71034 4.48572,3.52886 4.45364,3.50301 8.75211,7.05145 4.38644,3.62106 6.66028,5.38668 7.47138,5.80149 1.05815,0.54115 3.85074,1.29468 6.34791,1.71287 3.82486,0.64052 5.01336,1.0848 8.68171,3.24532 1.88549,1.11049 3.96395,2.31845 4.61879,2.68437 5.98438,3.34395 12.17084,7.95448 12.17084,9.07047 0,0.61397 -0.5809,1.03576 -1.66983,1.21247 -1.35249,0.21948 -4.28741,-0.81724 -4.9851,-1.76092 -0.30152,-0.40782 -0.87657,-0.80717 -1.27788,-0.88743 -0.41974,-0.084 -0.78653,-0.36337 -0.86354,-0.65784 -0.0801,-0.30625 -0.81141,-0.83829 -1.82032,-1.32428 -1.64271,-0.79129 -1.6993,-0.79964 -2.18159,-0.32202 -0.65556,0.64923 -0.40951,0.96637 0.91392,1.17799 1.39438,0.22298 2.33062,0.71215 3.53257,1.84574 1.04032,0.98114 2.87918,1.93141 5.17677,2.67518 3.14669,1.01865 2.61813,1.62587 -2.38125,2.73564 -0.65485,0.14537 -3.54501,0.53156 -6.4226,0.8582 -6.03107,0.68462 -6.22646,0.64825 -7.17989,-1.33633 -0.55082,-1.14655 -0.61656,-1.19201 -1.62174,-1.12139 -1.48413,0.10427 -4.49457,1.64957 -6.2226,3.19415 -1.35478,1.21095 -4.21776,5.03842 -4.21776,5.63864 0,0.14184 0.60265,-0.31579 1.33921,-1.01696 2.36233,-2.24879 4.91042,-3.22858 6.99517,-2.68977 1.83699,0.47477 2.85258,1.87455 2.21899,3.05842 -0.44607,0.83349 -1.86627,0.83945 -2.41878,0.0102 l -0.39662,-0.59531 -1.18904,0.5753 c -1.1418,0.55243 -3.10934,2.59143 -3.10934,3.22225 0,0.35672 0.57866,0.40285 0.93927,0.0749 0.44067,-0.4008 2.68135,-0.82972 4.33443,-0.82972 4.45694,0 8.36302,3.61095 6.88782,6.36739 -0.59662,1.11479 -2.37194,0.26878 -2.37194,-1.13031 0,-0.3709 -0.17037,-0.81577 -0.3786,-0.98859 -0.40307,-0.33451 -3.32557,-0.73226 -3.32557,-0.4526 0,0.0912 0.43428,0.34721 0.96507,0.56899 1.19727,0.50025 1.66148,1.09002 1.67235,2.12468 0.0166,1.57695 -1.80477,3.09205 -2.97054,2.47108 -0.3261,-0.1737 -0.73477,-0.50474 -0.90815,-0.73563 -0.40985,-0.54581 -0.9905,-0.20742 -2.08154,1.21307 -1.25905,1.63923 -1.83851,3.76716 -1.82491,6.7015 0.01,2.12583 0.11177,2.71311 0.66071,3.80736 0.92489,1.84364 2.49244,3.51985 4.01156,4.28965 1.01908,0.51641 1.24571,0.74062 1.02156,1.0107 -0.61689,0.74331 0.4436,1.07894 3.39716,1.07515 2.4301,-0.003 3.13847,-0.11458 5.31715,-0.83666 5.62798,-1.86528 9.45639,-2.74048 11.90625,-2.72183 2.48017,0.0189 8.73125,2.03655 8.73125,2.81819 0,0.48415 -0.21877,0.44002 -3.57188,-0.72054 -2.24046,-0.77546 -2.56114,-0.81792 -5.42395,-0.71805 -2.46833,0.0861 -3.41731,0.24188 -5.02709,0.82516 -7.53623,2.73067 -10.51582,3.37898 -13.91754,3.02822 -3.6063,-0.37186 -6.01939,-1.70416 -7.42221,-4.09789 -0.55538,-0.94767 -0.71319,-1.64111 -0.84979,-3.73402 -0.15666,-2.40039 -0.20387,-2.56531 -0.71445,-2.49569 -0.74281,0.10128 -1.34012,-0.62825 -1.74072,-2.12605 -0.44287,-1.65586 0.0202,-4.94683 0.96704,-6.87297 2.0825,-4.23624 4.92142,-6.28906 8.69736,-6.28906 1.02798,0 1.25658,-0.0712 1.01235,-0.31547 -0.20689,-0.20689 -1.34115,-0.31547 -3.2955,-0.31547 -3.53062,0 -4.44333,0.34917 -7.39832,2.83028 -1.40027,1.17572 -1.91519,1.47115 -2.18044,1.25101 -0.27059,-0.22456 -0.44947,-0.0385 -0.81015,0.8427 -0.74517,1.82057 -0.61794,6.37073 0.252,9.01218 1.26782,3.84953 2.58456,6.01111 5.27237,8.65518 1.65234,1.62545 2.11815,2.38125 1.4676,2.38125 -0.4923,0 -3.68868,-3.21588 -5.15784,-5.18931 -1.90091,-2.55337 -2.77722,-4.27348 -3.69151,-7.2461 -0.69584,-2.26241 -0.77368,-2.88364 -0.77906,-6.21771 -0.006,-3.78944 0.17801,-4.85022 1.48205,-8.53842 1.16576,-3.2971 3.08728,-6.18093 5.51398,-8.27544 0.75054,-0.64779 1.53455,-1.33373 1.74224,-1.52431 0.20769,-0.19057 1.29594,-0.77079 2.41834,-1.28937 1.65081,-0.76272 2.45919,-0.96898 4.23097,-1.07951 2.60062,-0.16225 3.12386,0.0934 2.87764,1.40582 -0.1127,0.60078 -0.0184,1.01318 0.33013,1.44359 0.45806,0.56568 0.56762,0.58389 1.7912,0.29773 0.97867,-0.22889 7.20556,-0.80636 8.91008,-0.82631 0.55554,-0.007 0.0694,-0.79842 -0.92605,-1.5085 -4.79619,-3.42128 -12.52861,-4.24894 -19.11614,-2.04615 -5.62254,1.88011 -10.26459,6.06554 -13.47694,12.15128 -0.95524,1.80969 -3.05941,8.19104 -3.05949,9.27854 -7e-5,1.13408 -0.80838,3.28917 -1.23367,3.28917 -0.34795,0 -0.39469,-0.2366 -0.27438,-1.38906 0.88655,-8.49279 5.36401,-16.67907 11.73973,-21.46412 4.01419,-3.0127 5.83952,-3.69075 11.861,-4.40597 3.47574,-0.41285 3.39955,-0.38286 3.18168,-1.25217 -0.38647,-1.54197 -1.25738,-3.19267 -1.75281,-3.32223 -0.31551,-0.0825 -1.01545,0.21244 -1.82395,0.76858 -1.53621,1.05673 -1.66133,1.06986 -3.4976,0.36695 -1.12536,-0.43079 -1.58011,-0.80168 -2.32503,-1.89627 -0.69271,-1.01789 -1.19271,-1.44944 -1.98438,-1.71273 -3.11473,-1.03591 -3.30806,-1.16203 -4.92508,-3.21281 -0.87126,-1.10496 -2.26266,-2.61738 -3.09201,-3.36093 -3.28984,-2.94947 -16.38744,-13.28848 -16.54761,-13.0624 -0.13473,0.19016 -0.703,3.30808 -0.703,3.85709 0,1.15413 -1.40062,5.34764 -2.63357,7.88503 -2.0806,4.28184 -3.04516,4.91377 -8.72076,5.71341 -4.53461,0.63888 -6.02313,0.63439 -7.69148,-0.0232 -2.04518,-0.80613 -3.9963,-0.95904 -5.06976,-0.3973 -2.7153,1.42089 -3.62298,1.82069 -4.45943,1.96422 -0.916,0.15718 -0.9277,0.17618 -1.079,1.75173 -0.0841,0.87605 -0.45291,2.24354 -0.81952,3.03886 -0.80802,1.75291 -2.82572,4.27217 -4.14511,5.1755 -2.64816,1.81307 -3.63598,2.57227 -3.86971,2.9741 -0.14082,0.24211 -0.21998,1.11064 -0.1759,1.93007 0.0541,1.00493 -0.0349,1.58411 -0.27313,1.77937 -0.19429,0.15922 -0.69871,0.5697 -1.12093,0.91218 -1.04925,0.85109 -0.83213,1.51909 1.15326,3.54806 1.85344,1.89412 1.99248,1.92761 6.46264,1.55641 2.60766,-0.21654 3.11966,-0.18058 5.42395,0.38095 1.39947,0.34104 3.41527,0.95465 4.47957,1.36359 1.7418,0.66926 2.25894,0.74353 5.1775,0.74353 3.46208,0 5.07642,0.32604 7.37336,1.48917 0.69122,0.35003 1.25677,0.79454 1.25677,0.98782 0,0.88419 -2.85204,2.29124 -5.91528,2.9183 -3.11764,0.63819 -3.23854,0.61518 -3.67168,-0.69894 -0.41536,-1.26016 -0.73665,-1.46752 -4.43596,-2.86296 l -2.24896,-0.84835 -2.36387,0.32997 c -3.25954,0.455 -4.81428,0.9462 -6.40729,2.0243 -1.21895,0.82495 -1.5613,1.29306 -2.02921,2.77463 -0.14678,0.46473 -1.26409,0.76522 -2.84528,0.76522 -0.8315,0 -1.12786,0.15323 -1.66318,0.8599 -0.35826,0.47294 -0.84979,1.54717 -1.09229,2.38718 -0.40788,1.41283 -0.53852,1.57674 -1.74333,2.18727 -0.71633,0.36299 -1.30242,0.81765 -1.30242,1.01035 0,0.1927 0.1773,0.93484 0.39401,1.64919 0.2167,0.71435 0.3953,1.49689 0.39687,1.73897 0.002,0.26885 -0.72701,0.86095 -1.87246,1.52136 -1.03143,0.59466 -1.91088,1.0812 -1.95434,1.0812 -0.0435,0 -1.19385,0.51998 -2.55644,1.1555 -3.10247,1.44703 -5.36973,2.3377 -7.86412,3.08935 -1.61134,0.48555 -2.36417,0.56359 -4.36563,0.45254 -7.82026,-0.43394 -21.139804,-8.40756 -29.273726,-17.52447 -3.90549,-4.37747 -5.286591,-6.77917 -5.29019,-9.19949 -0.0016,-1.08409 -0.138297,-1.17205 -0.911942,-0.5869 -0.282474,0.21365 -0.742847,0.38846 -1.023046,0.38846 -0.40954,0 -0.471326,-0.11675 -0.315044,-0.59531 0.539009,-1.65051 -0.03671,-2.93459 -1.909887,-4.25979 -1.360321,-0.96238 -2.750796,-1.01219 -3.692885,-0.13229 -0.998574,0.93265 -0.78736,2.9488 0.589746,5.62939 1.008012,1.96214 3.277195,5.05277 4.079054,5.55568 0.773991,0.48543 4.771623,4.73476 5.882587,6.25296 0.62502,0.85413 1.374524,1.66247 1.665566,1.7963 0.291041,0.13384 1.362604,0.57789 2.38125,0.98679 2.68062,1.07603 4.117379,2.03082 5.545743,3.68541 3.080184,3.56802 9.495474,7.11189 20.515714,11.33308 14.5201,5.56176 23.87511,8.14723 33.73438,9.32324 6.49279,0.77446 11.46647,0.24212 16.06146,-1.71908 9.01555,-3.84796 16.70159,-5.65421 21.36618,-5.02114 3.46898,0.4708 4.16873,0.97149 9.5359,6.82314 3.47811,3.79207 8.47886,6.89704 13.22745,8.21295 6.29032,1.74313 10.79246,1.5894 18.78713,-0.64153 3.7948,-1.05895 4.28309,-1.12866 3.67975,-0.52532 -0.65988,0.65988 -5.33401,2.2006 -8.92416,2.94164 -4.00947,0.82759 -10.18632,1.05835 -13.80559,0.51575 z m 0.91371,-24.38647 c -1.52744,-1.24411 -2.07602,-1.38792 -1.35214,-0.35444 0.52363,0.74759 1.75636,1.56255 2.36695,1.5648 0.30581,10e-4 -0.0533,-0.42723 -1.01481,-1.21036 z m -3.41045,-12.2454 c 0.80718,-2.14011 2.10512,-3.90824 3.44563,-4.69383 1.19893,-0.70262 1.27578,-0.71406 2.00104,-0.29781 0.90658,0.5203 1.06673,0.0285 0.23565,-0.72357 -1.04632,-0.94691 -3.54543,0.15493 -5.65992,2.49541 -0.54387,0.602 -1.11527,1.41575 -1.26978,1.80832 -0.43935,1.11633 -0.39722,5.47833 0.0582,6.02915 0.33797,0.40873 0.39726,0.25135 0.55251,-1.46647 0.0957,-1.05839 0.38214,-2.47643 0.63664,-3.1512 z m -3.68077,-7.77531 c 0.50636,-0.47294 1.30891,-1.69333 1.78343,-2.71198 0.83481,-1.79203 2.112,-3.34524 3.74093,-4.54936 1.31083,-0.96899 0.2833,-0.67766 -1.23539,0.35027 -2.14098,1.44912 -2.84688,2.19448 -3.72622,3.93451 -0.44125,0.87312 -1.00593,1.88515 -1.25486,2.24896 -1.15765,1.69185 -0.77311,2.09611 0.69211,0.7276 z m -33.97918,-44.78073 c 0.39679,-0.7276 0.91707,-1.91823 1.15618,-2.64583 0.23911,-0.72761 0.61645,-1.71791 0.83854,-2.20067 l 0.40379,-0.87774 -1.19556,-1.23892 c -1.51874,-1.57382 -1.82376,-2.14058 -1.48883,-2.7664 0.17127,-0.32002 0.16156,-0.77621 -0.0288,-1.35296 -0.29182,-0.88421 -0.50639,-1.0617 -18.24102,-15.08931 -2.56044,-2.02523 -5.13159,-4.08504 -5.71367,-4.57734 -0.58208,-0.49231 -1.1774,-0.980463 -1.32292,-1.084799 -0.14552,-0.104333 -1.73693,-1.378281 -3.53647,-2.830991 -1.79955,-1.452708 -3.88447,-3.117541 -4.63317,-3.699624 -0.7487,-0.582083 -1.67142,-1.35599 -2.05051,-1.719792 -1.02028,-0.979154 -2.56546,-2.154724 -4.14313,-3.152074 -1.24241,-0.785405 -1.66093,-0.899162 -3.74528,-1.018008 l -2.34658,-0.133794 -0.42191,0.815882 c -0.60316,1.166392 -0.52315,2.996062 0.20785,4.752737 0.88603,2.129245 1.02753,4.329319 0.58234,9.054003 l -0.38643,4.10105 1.30696,1.33123 c 0.71883,0.73218 1.30696,1.45787 1.30696,1.61264 0,0.15477 0.22584,0.48578 0.50186,0.73558 0.27602,0.2498 0.63387,0.97844 0.79521,1.61921 0.28667,1.13844 0.34921,1.19156 2.73929,2.32659 1.38956,0.65988 3.03731,1.69525 3.81521,2.39728 0.75311,0.67965 1.42255,1.1434 1.48764,1.03056 0.0651,-0.11285 0.19829,-0.75694 0.29599,-1.43133 0.47552,-3.28255 2.08011,-5.71592 4.6845,-7.10404 3.09287,-1.64848 7.03429,-1.34923 10.52589,0.79918 1.43281,0.88161 2.24115,1.83053 3.52368,4.13644 0.81537,1.46599 0.86177,1.69996 0.93564,4.71749 0.0831,3.3965 0.03,3.57448 -1.32523,4.44151 -0.40018,0.25601 -0.7276,0.68853 -0.7276,0.96114 0,0.57754 1.37741,1.8508 3.24602,3.00056 0.85013,0.52309 1.44529,1.12313 1.68643,1.70027 0.42157,1.00896 2.25359,2.29507 5.06789,3.55777 2.11152,0.94737 3.30574,1.26249 4.55174,1.20107 0.82148,-0.0405 1.00751,-0.19504 1.64748,-1.36857 z m 40.04424,74.72898 c -3.3524,-0.56124 -6.71041,-2.12758 -10.47821,-4.88757 -5.75818,-4.21797 -9.39279,-5.30773 -13.96121,-4.18598 -0.9758,0.2396 -3.81532,1.2493 -6.31005,2.24377 -5.04126,2.00959 -10.03992,3.18863 -15.70475,3.70426 -4.59405,0.41818 -11.10632,-0.15813 -15.61041,-1.38146 -4.59692,-1.24853 -11.39532,-3.8663 -11.59477,-4.46463 -0.16049,-0.48148 0.69625,-0.59585 1.46075,-0.195 0.40772,0.21378 1.57475,0.67063 2.59339,1.01524 1.68402,0.5697 2.29626,0.62656 6.74688,0.62656 4.07502,0 5.31575,-0.0962 7.40833,-0.5744 1.38245,-0.31592 3.10885,-0.69809 3.83646,-0.84927 6.20023,-1.28825 8.61824,-1.97537 10.84792,-3.08264 3.31423,-1.64587 4.6287,-2.50611 7.2491,-4.74413 4.74913,-4.05609 7.34887,-7.32085 10.22637,-12.84227 3.62751,-6.96057 9.07539,-14.11908 12.61624,-16.57773 0.54315,-0.37715 0.92536,-0.78635 0.84935,-0.90934 -0.076,-0.12298 -0.99665,0.38614 -2.04588,1.13137 -3.71482,2.63853 -7.47611,5.93219 -13.3875,11.72309 -7.445,7.29324 -10.36899,10.01175 -12.95368,12.04339 -1.11366,0.87537 -2.20343,1.75294 -2.42171,1.95016 -0.76018,0.68683 -5.3105,3.38078 -7.01868,4.15531 -0.94607,0.42897 -2.40303,0.97064 -3.2377,1.20372 -0.83467,0.23308 -2.35102,0.65649 -3.36966,0.94092 -2.37575,0.66335 -10.89557,0.83332 -11.62033,0.23182 -0.93788,-0.77837 -0.29705,-0.94335 3.70483,-0.95379 3.61807,-0.009 4.12302,-0.0716 6.06341,-0.74635 5.63611,-1.95989 9.74262,-4.4899 16.13959,-9.94353 3.07064,-2.61784 9.80457,-9.29238 13.22926,-13.11258 5.54828,-6.18905 9.74514,-9.85521 13.62594,-11.9029 l 2.51354,-1.32627 0.33342,-1.45521 c 0.59745,-2.60757 0.94385,-3.46933 1.60299,-3.9878 1.78281,-1.40236 3.50894,0.2451 2.1949,2.09487 -0.42862,0.60337 -1.35318,2.55151 -1.35318,2.85128 0,0.43578 0.88082,-0.18631 2.53529,-1.79056 2.13618,-2.07133 2.32465,-2.05674 2.17755,0.16862 l -0.0826,1.25009 3.30729,0.0587 c 3.07948,0.0546 5.29167,0.44126 5.29167,0.92483 0,0.11334 -1.22039,0.2704 -2.71198,0.34902 -2.28802,0.1206 -6.6569,0.96472 -7.41362,1.4324 -0.12037,0.0744 -0.077,0.30613 0.0963,0.51497 0.38512,0.46404 0.52238,0.35512 -1.8984,1.50648 -2.35244,1.11887 -4.91583,3.37552 -7.3619,6.48095 -2.1782,2.76537 -3.02197,4.20022 -6.17632,10.50291 -2.33209,4.65973 -3.78703,7.11924 -6.17297,10.43512 -0.90041,1.25136 -3.18848,3.62269 -5.18829,5.37712 -2.92189,2.56335 -8.41198,5.19551 -15.16343,7.26993 -2.18281,0.67069 -4.07869,1.3147 -4.21307,1.43114 -0.78358,0.679 7.07189,-0.9537 9.33216,-1.93961 0.677,-0.29531 1.83378,-0.74828 2.57062,-1.00662 0.73683,-0.25833 2.90059,-1.37703 4.80834,-2.486 1.90775,-1.10897 3.98379,-2.2396 4.61342,-2.5125 0.62963,-0.27291 1.79963,-0.79702 2.59999,-1.1647 2.99695,-1.37674 5.24874,-1.90959 8.06979,-1.90959 2.23435,0 2.81836,0.0922 3.75519,0.59298 1.2635,0.67537 2.533,2.10906 3.97811,4.49265 1.52575,2.5166 3.90801,5.25363 6.06355,6.96656 3.47309,2.75994 6.81622,3.96746 11.01605,3.97893 3.5504,0.01 6.18066,-0.63484 9.8878,-2.42299 2.36302,-1.13982 2.80068,-1.24745 2.56395,-0.63054 -0.35423,0.92312 -6.75571,3.51437 -10.37252,4.19868 -2.33514,0.44181 -5.90834,0.50285 -8.08687,0.13813 z M 9.7807494,157.18656 c 0.1909961,-0.0764 0.4191996,-0.067 0.5071186,0.0209 0.08792,0.0879 -0.06835,0.15046 -0.3472661,0.13897 -0.3082245,-0.0127 -0.3709194,-0.0754 -0.1598525,-0.15985 z"
       id="path944" />
  </g>
</svg>
