<?xml version="1.0" encoding="UTF-8" standalone="no"?>
<svg
   xmlns:dc="http://purl.org/dc/elements/1.1/"
   xmlns:cc="http://creativecommons.org/ns#"
   xmlns:rdf="http://www.w3.org/1999/02/22-rdf-syntax-ns#"
   xmlns:svg="http://www.w3.org/2000/svg"
   xmlns="http://www.w3.org/2000/svg"
   xmlns:sodipodi="http://sodipodi.sourceforge.net/DTD/sodipodi-0.dtd"
   xmlns:inkscape="http://www.inkscape.org/namespaces/inkscape"
   width="210mm"
   height="297mm"
   viewBox="0 0 210 297"
   version="1.1"
   id="svg1181"
   inkscape:version="1.0.1 (3bc2e813f5, 2020-09-07)"
   sodipodi:docname="Katze JWS.svg">
  <defs
     id="defs1175" />
  <sodipodi:namedview
     id="base"
     pagecolor="#ffffff"
     bordercolor="#666666"
     borderopacity="1.0"
     inkscape:pageopacity="0.0"
     inkscape:pageshadow="2"
     inkscape:zoom="2.5105053"
     inkscape:cx="571.27794"
     inkscape:cy="206.30129"
     inkscape:document-units="mm"
     inkscape:current-layer="layer1"
     showgrid="false"
     inkscape:window-width="1920"
     inkscape:window-height="998"
     inkscape:window-x="-11"
     inkscape:window-y="-11"
     inkscape:window-maximized="1"
     showborder="true"
     inkscape:document-rotation="0" />
  <metadata
     id="metadata1178">
    <rdf:RDF>
      <cc:Work
         rdf:about="">
        <dc:format>image/svg+xml</dc:format>
        <dc:type
           rdf:resource="http://purl.org/dc/dcmitype/StillImage" />
        <dc:title></dc:title>
      </cc:Work>
    </rdf:RDF>
  </metadata>
  <g
     inkscape:label="Ebene 1"
     inkscape:groupmode="layer"
     id="layer1">
    <path
       style="fill:#000000;stroke-width:0.3131431"
       d="m 44.145497,282.90275 c -0.430484,-0.18156 -1.085447,-0.61453 -1.455473,-0.96215 -0.632176,-0.5939 -0.730466,-0.60222 -1.628613,-0.13777 -1.268672,0.65606 -3.467068,0.62523 -4.326802,-0.0607 -0.372985,-0.29757 -0.90524,-1.09583 -1.182792,-1.77392 -0.412534,-1.00786 -0.430775,-1.30675 -0.09994,-1.63758 0.330832,-0.33083 0.661017,-0.23465 1.809077,0.52697 0.772409,0.51242 1.594303,0.93227 1.826429,0.93301 0.232124,6.3e-4 1.093894,-0.72558 1.915037,-1.61404 1.538644,-1.66477 2.516634,-1.8984 2.516634,-0.60118 0,2.46188 2.692836,3.50658 4.332651,1.68087 0.824637,-0.91812 0.815452,-1.49414 -0.103807,-6.51003 -0.65585,-3.57862 -0.778483,-7.52643 -0.27442,-8.83431 0.213188,-0.55316 0.487611,-1.68047 0.60983,-2.50515 0.12222,-0.82467 0.478298,-1.97998 0.791285,-2.56734 0.312986,-0.58737 0.494979,-1.18781 0.404427,-1.33432 -0.09055,-0.14652 0.273712,-0.70474 0.809469,-1.2405 0.535756,-0.53575 1.313529,-1.64393 1.728381,-2.4626 0.414855,-0.81867 0.936962,-1.56212 1.160236,-1.6521 0.223274,-0.09 0.733641,-0.84736 1.134144,-1.68307 0.400504,-0.83572 0.99939,-2.0406 1.330859,-2.67753 0.331468,-0.63692 0.602669,-1.38168 0.602669,-1.65501 0,-0.27334 0.240093,-0.86341 0.533539,-1.31126 0.685301,-1.04591 0.758649,-6.34872 0.123635,-8.9385 -0.347351,-1.4166 -0.358896,-1.88597 -0.05539,-2.25167 0.606943,-0.73133 1.148139,-0.28282 2.030072,1.68239 0.697955,1.55525 0.831107,2.33283 0.894643,5.2245 0.0515,2.34414 -0.09222,4.11166 -0.463611,5.70165 -0.516076,2.2094 -2.631107,7.01791 -4.135261,9.4015 -0.393246,0.62316 -0.819768,1.46343 -0.947825,1.86725 -0.12806,0.40383 -0.782761,1.51927 -1.454891,2.47877 -0.672134,0.9595 -1.22206,2.02715 -1.22206,2.37255 0,0.3454 -0.235787,0.88854 -0.523973,1.20698 -0.787749,0.87046 -0.912145,6.92859 -0.191023,9.30297 0.697905,2.29796 0.705993,6.12515 0.01569,7.41728 -1.167911,2.18608 -4.418913,3.49292 -6.502811,2.61402 z M 31.363968,268.35637 c -0.571177,-0.2481 -1.400439,-0.73578 -1.842803,-1.08375 -0.83613,-0.6577 -2.426241,-0.8519 -2.745512,-0.3353 -0.268638,0.43466 -3.33634,0.003 -4.13501,-0.58179 -0.83487,-0.61134 -1.501708,-2.81679 -1.242917,-4.11074 0.105278,-0.52639 0.548821,-1.42566 0.985651,-1.99838 1.339595,-1.7563 2.978629,-5.9361 3.182081,-8.11482 0.277498,-2.97166 -1.146716,-7.41579 -3.027508,-9.44708 -0.478405,-0.51668 -0.972497,-1.29171 -1.097982,-1.72228 -0.125485,-0.43058 -0.405694,-0.99423 -0.622688,-1.25258 -0.407591,-0.48526 -0.53823,-1.05906 -1.129437,-4.96085 -0.25486,-1.682 -0.255249,-2.39226 -0.0014,-2.64606 0.190801,-0.19081 0.346916,-0.64773 0.346916,-1.01539 0,-0.98919 2.056547,-5.03701 2.680828,-5.27657 0.778457,-0.29872 1.703782,0.0768 1.699459,0.68968 -0.002,0.28979 -0.225875,1.30193 -0.497402,2.24919 -0.943856,3.29277 -1.017076,4.3847 -0.452829,6.75301 0.522038,2.19114 1.210254,3.61406 2.775098,5.73764 0.429984,0.58351 1.088083,1.64037 1.462443,2.34857 1.248797,2.83298 1.354819,2.48078 1.616076,3.75894 0.436963,1.61685 0.239864,5.89961 -0.355862,7.73253 -0.303106,0.93259 -1.308546,2.97609 -2.234312,4.54113 -1.759113,2.97382 -1.999218,3.78545 -1.209507,4.08849 0.654422,0.25113 1.25665,-0.32321 2.043709,-1.94906 0.767115,-1.58465 1.419743,-1.76418 1.899975,-0.52266 0.741345,1.91656 1.629821,3.50528 2.326114,4.15941 0.707084,0.66427 0.816038,0.67523 2.797322,0.28142 1.816082,-0.36098 2.120195,-0.35117 2.55381,0.0824 0.688821,0.68882 0.124841,1.64187 -1.445763,2.44313 -1.436458,0.73283 -2.874593,0.78324 -4.32851,0.15172 z M 68.727071,226.2445 c -0.344457,-0.14802 -1.077628,-0.27903 -1.629268,-0.29113 -0.551639,-0.0121 -1.326668,-0.15033 -1.722287,-0.30717 -0.395618,-0.15683 -1.84662,-0.51162 -3.22445,-0.78842 -1.37783,-0.2768 -3.421088,-0.72583 -4.540575,-0.99785 -1.119486,-0.27202 -2.398545,-0.54156 -2.842347,-0.59898 -1.239558,-0.16038 -4.455378,-1.53018 -4.598196,-1.95864 -0.197916,-0.59374 2.981063,-0.47509 5.293841,0.1976 1.094573,0.31836 3.117446,0.8263 4.495275,1.12874 6.646482,1.45898 8.308244,1.8742 10.412009,2.60161 1.248658,0.43174 2.270287,0.90703 2.270287,1.05619 0,0.34663 -3.086993,0.31355 -3.914289,-0.042 z m -29.82688,-6.91594 c -1.373233,-1.59176 -1.644001,-2.10569 -1.644001,-3.12039 0,-1.5642 0.630065,-1.94225 2.434327,-1.46067 0.980874,0.26181 1.578583,0.26011 2.338265,-0.007 1.059403,-0.37202 2.612656,-0.22529 3.290842,0.31088 0.56388,0.44581 0.468851,2.15467 -0.163535,2.94072 -0.962023,1.19579 -3.538915,3.24178 -4.082942,3.24176 -0.290925,-1e-5 -1.268755,-0.85755 -2.172956,-1.90563 z m -22.937732,0.67527 c -0.405036,-0.27138 -0.376892,-0.40776 0.204386,-0.99043 0.576457,-0.57783 1.120765,-0.69503 3.757717,-0.80907 1.695989,-0.0734 4.422303,-0.27805 6.058476,-0.45488 5.692442,-0.61523 5.844681,-0.61497 6.618108,0.0113 0.636902,0.51573 0.668646,0.64579 0.273753,1.12161 -0.245679,0.29603 -0.734309,0.64756 -1.085845,0.78119 -1.038414,0.39473 -15.28807,0.70111 -15.826595,0.34028 z m 38.673173,-1.93062 c -2.411202,-0.10238 -4.912433,-0.2942 -5.55829,-0.42628 -1.234874,-0.25253 -1.553723,-0.89337 -0.626287,-1.25876 0.495001,-0.19501 10.141368,-0.20795 14.013154,-0.0188 11.772603,0.57517 11.742867,0.57203 11.742867,1.24027 0,0.28156 -0.523231,0.50418 -1.48743,0.63285 -1.618743,0.21602 -11.099649,0.12726 -18.084014,-0.16929 z M 28.17504,214.93597 c -0.602801,-0.15609 -2.857431,-0.49954 -5.01029,-0.76324 -6.347482,-0.77746 -6.995919,-0.89646 -8.063435,-1.47971 -1.100549,-0.6013 -1.292383,-1.0805 -0.547042,-1.36652 0.511549,-0.1963 8.396281,0.6795 10.176192,1.13032 1.736298,0.43977 5.137171,0.94881 6.33901,0.94881 1.205484,0 3.368427,0.7855 3.368427,1.22328 0,0.15149 -0.222897,0.36097 -0.495326,0.46551 -0.719827,0.27622 -4.488728,0.17268 -5.767536,-0.15845 z m 24.839121,-4.33652 c -1.580239,-0.37622 -3.491796,-2.0697 -3.722132,-3.29749 -0.309241,-1.6484 0.03684,-1.80519 1.710898,-0.77514 2.536475,1.56071 5.646901,1.24508 7.523292,-0.76344 1.242486,-1.32997 1.695303,-1.08531 1.512493,0.81721 -0.135888,1.41421 -0.31391,1.76189 -1.345676,2.62811 -1.785235,1.4988 -3.480852,1.91405 -5.678875,1.39075 z m -24.68255,-1.25715 c -2.440426,-0.6274 -5.166861,-2.63865 -5.166861,-3.81151 0,-1.17956 1.477942,-1.07178 5.686041,0.41466 l 1.771753,0.62584 1.359678,-0.64589 c 0.747823,-0.35524 1.587126,-0.81274 1.865116,-1.01667 0.703871,-0.51634 1.530225,-0.1181 1.528822,0.73679 -0.0019,1.20724 -1.179094,2.74754 -2.588729,3.38744 -1.372897,0.62322 -2.83898,0.725 -4.45582,0.30934 z m 43.530182,-5.95192 c -0.234998,-0.38024 0.133118,-2.53814 0.515572,-3.02229 0.154348,-0.19539 0.475141,-1.04087 0.712873,-1.87886 0.237735,-0.83798 0.670831,-2.15772 0.962436,-2.93275 1.163408,-3.09211 0.80562,-11.85065 -0.620408,-15.18744 -0.220813,-0.51669 -0.629496,-1.57355 -0.908184,-2.34858 -1.135971,-3.15912 -3.817907,-6.77966 -8.22715,-11.10644 -5.105438,-5.00996 -11.753478,-6.89398 -18.349183,-5.20007 -2.034159,0.52241 -4.543954,1.6604 -7.908702,3.58596 -1.360259,0.77844 -5.405578,3.62719 -6.846776,4.82156 -1.635205,1.35515 -3.267064,1.85234 -3.561481,1.0851 -0.111761,-0.29124 1.146771,-1.71381 3.551866,-4.0148 2.048728,-1.96005 4.021619,-3.84829 4.384202,-4.1961 0.362582,-0.3478 0.808253,-0.63236 0.990384,-0.63236 0.182127,0 1.080027,-0.4932 1.995332,-1.096 0.915308,-0.6028 1.80832,-1.09687 1.984478,-1.09793 0.176156,-9.4e-4 0.743026,-0.22818 1.259712,-0.50471 1.275329,-0.68255 5.119408,-1.61191 7.732255,-1.86937 1.180108,-0.11629 2.214611,-0.32301 2.298896,-0.45939 0.08429,-0.13637 -0.128949,-0.72624 -0.473857,-1.31081 -0.981021,-1.66271 -1.826542,-4.41081 -2.202968,-7.16007 -0.389115,-2.84195 -0.04963,-6.81509 0.947035,-11.08345 0.321724,-1.37783 0.681506,-2.99835 0.799514,-3.60115 0.571912,-2.92133 3.48708,-7.35337 7.814919,-11.8813 1.718952,-1.79843 3.75948,-3.93267 4.534509,-4.74276 3.884737,-4.06046 5.043577,-6.08561 5.333341,-9.32036 0.267903,-2.99074 -0.26656,-5.33594 -1.548888,-6.79643 -0.531391,-0.60522 -0.966165,-1.21268 -0.966165,-1.3499 0,-0.335234 -2.73999,-2.051026 -3.914289,-2.451148 -1.515625,-0.516423 -3.895666,-0.493219 -4.718622,0.046 -0.406641,0.266441 -0.892696,0.484438 -1.080121,0.484438 -0.756726,0 -2.647281,1.619141 -3.755375,3.21625 -2.877262,4.14701 -2.535197,8.36602 0.791313,9.76002 2.540934,1.0648 6.48783,0.71908 7.741761,-0.67812 0.781449,-0.87074 0.996816,-2.68275 0.442966,-3.72696 -1.693644,-3.19311 -4.106439,-3.50195 -5.185524,-0.66375 -0.353382,0.92947 -0.773702,1.03837 -2.084365,0.54006 -0.757158,-0.28788 -0.824315,-0.43579 -0.659358,-1.4523 0.228091,-1.40556 1.538604,-3.3425 2.583672,-3.81866 2.113275,-0.96288 6.149063,0.40293 7.590689,2.56886 1.142346,1.71628 1.641531,3.75072 1.329769,5.4195 -0.319184,1.7085 -1.053633,2.77429 -2.728391,3.95926 -1.454922,1.02943 -5.434035,2.13512 -6.817304,1.89435 -1.289141,-0.22438 -4.193988,-1.19808 -5.305693,-1.77846 -0.951548,-0.49676 -2.447549,-3.24963 -2.818579,-5.1866 -0.48959,-2.55591 1.207974,-7.6368 3.24213,-9.703863 0.443442,-0.450616 1.127941,-1.277273 1.521108,-1.837016 0.395027,-0.562393 0.991089,-1.017715 1.332286,-1.017715 0.339592,0 1.208204,-0.301385 1.930252,-0.669748 0.922667,-0.47071 2.10931,-0.715159 3.992972,-0.822561 2.556407,-0.145762 2.789542,-0.102279 5.049051,0.941678 1.473113,0.680619 2.770787,1.548405 3.431701,2.29486 0.584547,0.660199 1.391955,1.542724 1.794247,1.961168 0.995407,1.035377 2.243423,5.103977 2.243423,7.313697 0,1.96912 -0.534548,4.93908 -0.972867,5.40526 -0.153838,0.16362 -0.279706,0.50528 -0.279706,0.75924 0,0.87068 -3.916058,5.6906 -8.242227,10.1446 -4.666593,4.8045 -5.931826,6.4637 -7.337851,9.62269 -3.444492,7.73896 -4.070149,16.54521 -1.500948,21.12617 1.407419,2.50947 2.524485,3.48196 9.15281,7.96817 2.874866,1.94578 6.590078,5.45281 8.02189,7.57237 0.417968,0.61873 1.300956,2.09833 1.962199,3.288 0.661242,1.18967 1.370192,2.30396 1.575444,2.47618 0.205253,0.17223 0.443715,0.73589 0.529914,1.25258 0.0862,0.51668 0.536467,1.92583 1.000592,3.13143 1.151145,2.99017 1.496502,5.80919 1.323524,10.80343 -0.153211,4.42349 -0.474396,5.82204 -2.262126,9.85012 -1.371646,3.09056 -2.511818,4.29763 -3.123929,3.30722 z m -8.7724,-0.74591 c -0.361805,-0.5522 -0.408213,-0.94322 -0.182421,-1.5371 0.488393,-1.28457 0.764044,-7.4635 0.377099,-8.45308 -0.749182,-1.91599 -2.638284,-1.73538 -7.720014,0.73806 -1.383883,0.67359 -2.677843,1.2247 -2.875471,1.2247 -0.760308,0 -0.770388,-1.25289 -0.01707,-2.11953 1.97199,-2.26857 4.122122,-4.45648 4.379541,-4.45648 0.15753,0 1.087646,-0.37655 2.066926,-0.83678 2.565509,-1.20571 5.380725,-1.33929 7.260511,-0.34451 1.95493,1.03454 2.588037,2.334 2.330035,4.78244 -0.290164,2.75366 -2.832984,10.16863 -3.785371,11.03829 -0.972381,0.88793 -1.231714,0.88283 -1.833769,-0.036 z m -45.992812,-2.22273 c -0.393158,-0.42423 -0.966144,-1.65723 -1.273302,-2.74 -0.307157,-1.08278 -0.753784,-2.59268 -0.992502,-3.35533 -0.238719,-0.76266 -0.434034,-1.71087 -0.434034,-2.10714 0,-0.39628 -0.298764,-1.6306 -0.663919,-2.74294 l -0.66392,-2.02244 0.691907,-1.11953 c 0.888887,-1.43825 1.45319,-1.72081 3.891357,-1.94849 1.865939,-0.17424 2.155254,-0.10863 4.334535,0.98301 3.014677,1.5101 4.946197,3.18115 6.15715,5.32684 0.864066,1.53104 1.307562,3.60819 0.770392,3.60819 -0.311106,0 -3.303563,-1.88149 -4.244189,-2.6685 -0.89484,-0.74871 -4.490226,-1.5591 -5.388251,-1.21449 -0.712622,0.27346 -0.921545,1.40095 -0.67811,3.65954 0.115344,1.07015 0.258521,2.43893 0.318173,3.04173 0.05965,0.6028 0.206622,1.6123 0.326602,2.24333 0.182878,0.96183 0.115403,1.20231 -0.417345,1.48743 -0.864,0.4624 -0.919059,0.44871 -1.734544,-0.43121 z m 52.900818,-55.66412 c -0.665404,-0.95 -0.610056,-2.38714 0.139267,-3.61614 1.266351,-2.077 3.061481,-2.02358 3.766307,0.11207 0.312266,0.94617 0.285993,1.31969 -0.162822,2.31499 -0.834169,1.84985 -2.834744,2.48544 -3.742752,1.18908 z m -4.401759,-1.87023 c -0.923875,-0.52389 -1.085908,-0.88682 -1.091197,-2.4441 -0.0042,-1.23362 0.129641,-1.5164 1.074475,-2.27029 1.306693,-1.04261 2.167333,-1.09307 2.817255,-0.16517 0.822317,1.17402 0.62229,2.8864 -0.484398,4.14685 -1.043803,1.18883 -1.344204,1.28386 -2.316135,0.73271 z m 9.725192,-0.94806 c -0.883521,-1.26141 -0.320258,-3.63165 1.104036,-4.64583 0.826732,-0.58869 1.057935,-0.62414 1.87185,-0.287 1.131746,0.46878 1.444839,1.49753 0.954179,3.13522 -0.657181,2.19347 -2.925941,3.2312 -3.930065,1.79761 z m -4.819266,-3.91245 c -0.5154,-0.0981 -0.952704,-0.61603 -1.484374,-1.75793 -0.414545,-0.89034 -0.755166,-1.90063 -0.756936,-2.24509 -0.0019,-0.34446 -0.289886,-1.38053 -0.640261,-2.30238 -0.350373,-0.92185 -0.554934,-1.9348 -0.454575,-2.251 0.267043,-0.84138 2.262187,-2.49234 3.011927,-2.49234 0.355091,0 1.282126,0.56027 2.060074,1.24505 1.461179,1.28618 2.954847,1.78684 4.313534,1.44583 0.432297,-0.10851 1.268806,0.007 1.869771,0.25804 1.196391,0.49988 1.63348,1.49297 1.278901,2.90572 -0.276627,1.10217 -2.100279,2.80631 -3.280518,3.06554 -0.511529,0.11235 -1.253725,0.45194 -1.649328,0.75463 -0.632439,0.48392 -3.273585,1.66952 -3.465617,1.5557 -0.03957,-0.0235 -0.400742,-0.10525 -0.802598,-0.18177 z m -7.706458,-1.09784 c -1.146731,-1.63719 -0.175238,-4.68784 1.600991,-5.02739 1.209114,-0.23114 1.631278,0.016 2.150638,1.259 0.673136,1.61105 0.581927,2.02428 -0.729442,3.3048 -1.35388,1.32203 -2.31739,1.46983 -3.022187,0.46359 z M 84.94758,120.87088 c -0.369596,-0.25888 -0.83508,-0.96483 -1.034402,-1.56879 -0.350241,-1.06124 -0.317418,-1.1453 0.977667,-2.50417 2.045491,-2.14624 3.688556,-1.76399 3.710855,0.86331 0.0078,0.91629 -0.238164,1.44803 -1.12248,2.42686 -1.249488,1.38303 -1.544456,1.47424 -2.53164,0.78279 z m 5.408733,-2.52654 c -1.092437,-1.09244 -0.362388,-3.83901 1.251436,-4.70812 1.234914,-0.66504 1.91213,-0.43492 2.552429,0.86733 1.133024,2.30436 -2.088,5.55665 -3.803865,3.84079 z m -9.965297,-0.19303 c -0.935355,-0.33314 -1.362313,-1.35859 -1.017721,-2.4443 0.36261,-1.14248 2.045391,-2.82031 2.82864,-2.82031 1.022015,0 2.129542,1.47716 1.873047,2.49817 -0.109134,0.43441 -0.277977,1.18854 -0.375208,1.67584 -0.09723,0.48731 -0.335295,0.93351 -0.529024,0.99156 -1.130058,0.33863 -2.018214,0.37028 -2.779734,0.099 z m 4.707577,-5.29028 c -0.639688,-0.86523 -1.245464,-3.11765 -1.677441,-6.23719 -0.191907,-1.38585 0.367335,-2.46157 1.677529,-3.22676 0.874224,-0.51058 1.161698,-0.54321 1.941177,-0.22034 0.50324,0.20845 1.135188,0.71507 1.404325,1.12583 0.770573,1.17604 1.743618,1.65051 3.768621,1.8376 1.493382,0.13798 2.023412,0.33748 2.58343,0.97238 0.903866,1.02473 0.890708,1.91027 -0.04893,3.29308 -0.519777,0.76492 -1.175427,1.24208 -2.113716,1.53831 -0.748115,0.23618 -2.024868,0.7563 -2.83723,1.15581 -0.812359,0.39951 -2.041142,0.72638 -2.730627,0.72638 -1.037199,0 -1.376781,-0.1666 -1.967134,-0.9651 z m -6.638846,-0.69953 c -0.451521,-0.33052 -0.587751,-0.77931 -0.5476,-1.80399 0.07455,-1.90251 0.237056,-2.27002 1.274846,-2.88306 1.945098,-1.149 3.191132,-0.43708 3.256257,1.86044 0.05457,1.92522 -2.621171,3.82387 -3.983503,2.82661 z m 5.65987,-19.575473 c -1.150628,-1.271429 -0.197959,-3.975486 1.673744,-4.750772 1.250236,-0.517863 1.91772,-0.172169 2.310248,1.196498 0.372947,1.300389 -0.253474,2.774899 -1.502427,3.53651 -1.212377,0.739309 -1.824612,0.74369 -2.481565,0.01775 z M 108.1879,90.861376 c -1.01575,-1.550227 0.19757,-3.65241 2.10806,-3.65241 1.72094,0 1.80691,2.74722 0.12288,3.926761 -0.93724,0.65647 -1.68097,0.56501 -2.23094,-0.274351 z M 89.77408,90.611231 c -0.255681,-0.407302 -0.472395,-1.230593 -0.481586,-1.829538 -0.02142,-1.395028 1.472092,-2.793515 3.003662,-2.812573 0.865077,-0.01077 1.103,0.155494 1.543032,1.078252 0.426175,0.893697 0.45102,1.219294 0.137394,1.800572 -0.83461,1.546874 -1.500851,2.140856 -2.601668,2.319492 -0.962755,0.156233 -1.206841,0.07143 -1.600834,-0.556205 z M 79.765366,90.009743 c -0.399474,-0.238192 -0.548001,-0.731017 -0.548001,-1.818322 0,-1.222946 0.155087,-1.636771 0.861144,-2.297831 1.883117,-1.763112 3.52286,-1.395297 3.52286,0.790222 0,2.23831 -2.306362,4.237995 -3.836003,3.325931 z m 32.887314,-1.109256 c -0.7238,-1.588582 1.4327,-4.076165 3.00922,-3.471201 0.37248,0.142937 0.50635,0.606167 0.50635,1.752095 0,1.25479 -0.13537,1.652603 -0.69596,2.04526 -1.10814,0.776169 -2.38463,0.628512 -2.81961,-0.326154 z m -8.58902,0.0171 c -0.53116,-1.38418 0.7566,-4.189682 1.92744,-4.199114 1.06007,-0.0085 1.47088,0.476873 1.63487,1.931761 0.14026,1.244374 0.0632,1.471738 -0.70261,2.07416 -1.00576,0.791124 -2.5892,0.8981 -2.8597,0.193193 z M 86.217501,86.052826 c -1.289812,-0.252293 -1.715636,-1.170623 -2.231633,-4.81274 L 83.489041,77.7333 84.215007,76.364842 c 0.662354,-1.248551 0.830271,-1.368457 1.916382,-1.368457 1.041474,0 1.353308,0.193181 2.492331,1.543996 1.497,1.775349 1.732255,1.901721 4.042089,2.171262 1.502746,0.17536 1.776586,0.32079 2.302695,1.22288 0.753466,1.291935 0.52091,2.338246 -0.817012,3.675884 -0.711662,0.711508 -1.416926,1.061646 -2.450448,1.216551 -0.798155,0.119634 -2.205311,0.493151 -3.127013,0.830046 -0.921699,0.336892 -1.677808,0.593343 -1.680238,0.569889 -0.0025,-0.02345 -0.306765,-0.101784 -0.676292,-0.174067 z m 22.374029,-1.270719 c -0.57003,-0.609968 -0.86682,-1.363494 -1.01754,-2.583431 -0.11703,-0.947257 -0.28797,-2.237203 -0.37987,-2.866546 -0.20811,-1.425327 0.67253,-2.456886 2.09746,-2.456886 1.05943,0 3.45105,1.098305 3.83909,1.76303 0.14509,0.248545 0.77071,0.428971 1.48743,0.428971 1.59429,0 2.48958,0.849705 2.48958,2.362806 0,1.156037 -1.10822,2.647484 -1.96721,2.647484 -0.23647,0 -1.29694,0.352286 -2.35658,0.782858 -2.45786,0.99872 -3.19882,0.984882 -4.19236,-0.07829 z m -5.34043,-0.415413 c -0.9007,-0.526412 -0.73473,-2.651157 0.28058,-3.592114 1.423,-1.31879 2.92914,-0.868365 2.92914,0.87599 0,1.128417 -0.81851,2.740108 -1.39158,2.740108 -0.23983,0 -0.62373,0.06667 -0.8531,0.148148 -0.22937,0.08148 -0.66364,0.004 -0.96504,-0.172132 z M 78.660756,83.903208 c -1.40397,-0.983379 -0.653911,-4.197138 1.138629,-4.87866 0.947371,-0.360192 2.459213,0.170685 2.669887,0.937519 0.157955,0.57495 0.05073,2.495137 -0.148537,2.660013 -0.456515,0.377726 -2.653195,1.768598 -2.793242,1.768598 -0.09393,0 -0.48396,-0.219363 -0.866737,-0.48747 z M 107.7244,68.440966 c -0.57816,-1.080318 -0.36629,-2.218634 0.59119,-3.176104 1.0989,-1.0989 1.76612,-1.149479 2.78057,-0.21077 0.73109,0.676508 0.77555,0.681393 1.11618,0.122649 1.0281,-1.686395 1.51539,-2.079794 2.57621,-2.079794 0.83675,0 1.15727,0.16963 1.42315,0.753157 0.28189,0.618683 0.21349,0.983861 -0.38309,2.045331 -0.78812,1.402274 -1.8841,1.911905 -2.8348,1.318182 -0.85442,-0.533592 -1.45583,-0.436684 -1.68037,0.270769 -0.22356,0.704375 -1.67001,1.56228 -2.63406,1.56228 -0.34695,0 -0.77669,-0.272566 -0.95498,-0.6057 z m -3.75771,-2.505145 c -0.52059,-0.972732 -0.38024,-1.784749 0.48653,-2.814846 0.86831,-1.031929 1.84288,-1.225345 2.7675,-0.549247 0.8092,0.5917 0.4176,2.80234 -0.61643,3.479862 -1.02891,0.674169 -2.24337,0.620866 -2.6376,-0.115769 z m 27.72451,-2.391527 c -0.77921,-0.779206 -0.59357,-1.871991 0.47004,-2.766957 0.75101,-0.631935 1.0899,-0.741179 1.54451,-0.497885 0.84626,0.452905 1.03831,1.401938 0.49595,2.450755 -0.6896,1.333529 -1.67237,1.652215 -2.5105,0.814087 z m -22.78799,-0.840333 c -0.71551,-0.594853 -0.90161,-1.099689 -1.20955,-3.281216 -0.40329,-2.856993 -0.26499,-3.869657 0.65398,-4.788628 0.95206,-0.952062 2.10531,-0.782983 3.26033,0.478 0.67753,0.739688 1.55712,1.258569 2.70395,1.595082 3.0311,0.889414 4.09075,2.674417 2.53325,4.267332 -0.45842,0.468845 -1.04486,0.85816 -1.30321,0.865143 -0.25834,0.007 -1.56716,0.363183 -2.9085,0.791557 -1.34133,0.42837 -2.5391,0.778157 -2.66172,0.777302 -0.1226,-9.39e-4 -0.60345,-0.317912 -1.06853,-0.704572 z m 26.70383,-0.814895 c -0.41997,-0.784727 0.14074,-2.761481 0.89831,-3.16692 0.51978,-0.278174 2.52235,0.106732 2.52235,0.484809 0,0.06578 -0.22832,0.69022 -0.50737,1.387646 -0.72586,1.814082 -2.26839,2.499477 -2.91329,1.294465 z m -6.99135,-0.07974 c -0.36889,-0.208149 -0.548,-0.691464 -0.548,-1.478712 0,-0.959301 0.16377,-1.266238 0.91117,-1.707741 1.07936,-0.637591 1.8433,-0.429817 2.09412,0.569557 0.29137,1.160897 0.0316,1.797952 -0.97088,2.380642 -0.67833,0.394291 -1.09029,0.459769 -1.48641,0.236254 z m -25.32964,-0.28362 c -0.77817,-0.454452 -0.97645,-1.749054 -0.42978,-2.806182 0.54448,-1.052912 1.34565,-1.572297 2.42533,-1.572297 1.79066,0 2.02278,1.898135 0.43767,3.578849 -1.09151,1.157334 -1.55813,1.310683 -2.43322,0.79963 z m 28.7056,-3.110255 c -0.24244,-0.392284 -1.41882,-5.00278 -1.41882,-5.560698 0,-0.591546 1.53196,-1.970387 2.1892,-1.970387 0.29261,0 0.80013,0.296255 1.12782,0.658345 0.77964,0.861498 1.87106,1.397179 3.41556,1.6764 1.68152,0.303989 2.03543,0.660302 2.03543,2.049258 0,1.422049 -0.24749,1.646478 -2.92841,2.655576 -2.14294,0.8066 -4.09211,1.023311 -4.42078,0.491506 z m -4.7851,-0.849326 c -0.70082,-0.282787 -0.46015,-2.257511 0.37719,-3.094846 0.95248,-0.952481 1.55815,-0.972591 2.18848,-0.07266 0.66455,0.948783 0.61852,1.292248 -0.32322,2.41144 -0.76888,0.913764 -1.35876,1.112648 -2.24245,0.756068 z m 0.5979,-8.467376 c -0.54827,-1.024454 -0.0603,-2.290401 1.09518,-2.841426 1.01476,-0.483907 1.09226,-0.477077 1.721,0.151661 0.65268,0.652678 0.65329,0.668833 0.0704,1.862312 -0.4742,0.97101 -0.78082,1.222611 -1.58486,1.300499 -0.71082,0.06886 -1.0844,-0.06689 -1.30176,-0.473046 z m 4.2011,-1.319764 c -0.45244,-0.499942 -0.47999,-0.722318 -0.16487,-1.330858 0.96173,-1.857202 1.97149,-2.29217 2.91105,-1.253966 0.68698,0.759106 0.65353,1.362905 -0.13076,2.359972 -0.7657,0.973433 -1.85334,1.066938 -2.61542,0.224852 z m -7.25316,-0.806625 c -0.68042,-1.038445 -0.35701,-2.217006 0.768,-2.798773 0.78345,-0.405135 0.96759,-0.40371 1.56118,0.01206 1.00701,0.705333 0.89277,2.115563 -0.23651,2.919681 -1.17224,0.834707 -1.47107,0.815718 -2.09267,-0.132968 z m 29.05675,-2.668045 c -0.44353,-0.784464 -0.6749,-0.913019 -1.3728,-0.76276 -1.13203,0.243728 -1.68427,-0.698353 -1.12671,-1.922079 0.3441,-0.755198 0.3107,-0.895404 -0.3117,-1.308663 -0.75758,-0.503014 -0.88732,-1.324736 -0.36365,-2.303217 0.24657,-0.460728 0.59324,-0.598113 1.33086,-0.527414 0.85803,0.08224 1.01256,-0.01381 1.10572,-0.687256 0.24093,-1.741749 1.6828,-2.090478 3.23682,-0.782857 0.5117,0.430571 1.27184,0.782857 1.6892,0.782857 0.82013,0 2.01141,0.991299 2.01141,1.673753 0,0.612806 -0.91077,1.341696 -2.6227,2.098967 -2.00015,0.884761 -2.88038,0.644467 -3.52307,-0.961772 -0.27403,-0.684878 -0.59776,-1.245232 -0.71939,-1.245232 -0.12162,0 -0.45007,0.480067 -0.72987,1.066819 -0.49854,1.045444 -0.49423,1.070458 0.21519,1.248508 0.47369,0.118891 0.78433,0.483749 0.89869,1.055549 0.16144,0.807198 0.28289,0.871821 1.59217,0.847211 1.12203,-0.0211 1.58269,-0.204996 2.21059,-0.882506 0.65865,-0.7107 0.89995,-0.798728 1.42264,-0.518991 1.43249,0.766647 0.20484,3.095683 -1.41718,2.688584 -0.6463,-0.162214 -0.9513,-0.03781 -1.44448,0.58917 -0.82348,1.046875 -1.43028,1.003539 -2.08174,-0.148671 z m -25.2232,-0.255469 c -0.2991,-0.330503 -0.51825,-1.098515 -0.51825,-1.816229 0,-1.902959 -0.61207,-2.251042 -1.29115,-0.734277 -0.72061,1.609546 -1.89456,2.201931 -2.77844,1.402029 -0.90167,-0.816001 -0.78111,-1.851706 0.32377,-2.781396 0.71215,-0.59924 1.17431,-0.75589 1.83828,-0.623096 0.7931,0.15862 0.96622,0.03328 1.63603,-1.184495 0.60061,-1.091952 0.94075,-1.380641 1.71608,-1.456519 0.78353,-0.07668 1.15997,0.125166 1.98423,1.063938 0.77019,0.877198 1.37095,1.223951 2.47365,1.42777 3.61414,0.668015 2.78514,3.520934 -1.35685,4.669474 -2.71121,0.751797 -3.3718,0.757177 -4.02735,0.0328 z m 24.42882,-9.969827 c -0.38392,-0.383916 -0.21458,-1.280393 0.38074,-2.015573 0.53621,-0.662191 0.67005,-0.691298 1.48063,-0.321976 0.82109,0.374114 0.94181,0.342464 1.53597,-0.402689 1.18755,-1.489326 2.74156,-0.772143 1.97455,0.911262 -0.39787,0.873207 -1.21309,1.234685 -2.12895,0.944 -0.40068,-0.12717 -0.86351,0.03113 -1.31162,0.448613 -0.68974,0.642587 -1.53428,0.833404 -1.93132,0.436363 z m -2.35279,-1.747385 c -0.5161,-0.51609 -0.43002,-1.224288 0.24749,-2.036431 0.85659,-1.026794 1.89785,-0.940613 1.89174,0.156572 -0.006,1.029083 -0.24592,1.43505 -1.12152,1.895609 -0.48395,0.254553 -0.75155,0.250412 -1.01771,-0.01575 z m 2.5198,-2.490484 c -0.20668,-0.206675 -0.37578,-0.699875 -0.37578,-1.096001 0,-0.890846 -0.23353,-0.904183 -1.12746,-0.06439 -0.94583,0.888566 -2.00397,0.564195 -2.00397,-0.614317 0,-1.124977 0.5263,-1.607242 1.75399,-1.607242 0.81371,0 1.12418,-0.206343 1.6491,-1.096001 0.77614,-1.31546 1.24223,-1.36267 2.55421,-0.258711 0.54729,0.46051 1.48332,0.918482 2.08007,1.017715 0.72638,0.120789 1.25424,0.459815 1.59701,1.025696 0.47649,0.786651 0.47452,0.886679 -0.0284,1.442364 -1.10129,1.216917 -5.27644,2.073251 -6.0988,1.250883 z m 23.94501,0.167009 c -0.11482,-0.114819 -0.20877,-0.534877 -0.20877,-0.933463 0,-0.849561 1.30692,-1.341242 2.01129,-0.756673 0.34457,0.285968 0.54037,0.21608 0.9223,-0.329207 0.60947,-0.87014 0.404,-1.216469 -0.72172,-1.216469 -0.95661,0 -1.45217,-0.427244 -1.63446,-1.409144 -0.14274,-0.768855 -0.85923,-0.815948 -1.31922,-0.08671 -0.26722,0.423638 -0.21417,0.631846 0.2469,0.968993 0.74301,0.543302 0.46672,1.945014 -0.42958,2.179402 -0.91527,0.239348 -1.49614,-0.588246 -0.98611,-1.404943 0.33598,-0.537981 0.3078,-0.814195 -0.17541,-1.718997 -0.56446,-1.05698 -0.56348,-1.087116 0.0506,-1.54389 0.34446,-0.256227 0.93832,-0.407681 1.31969,-0.336564 0.47304,0.08821 0.94651,-0.154769 1.48985,-0.764567 0.9845,-1.104932 1.17106,-1.107582 2.3039,-0.03273 0.49919,0.473629 1.34953,1.10119 1.88966,1.39458 1.21324,0.659013 1.30638,1.680792 0.19919,2.185258 -0.88541,0.403424 -0.9452,0.630985 -0.39659,1.509454 0.32734,0.524161 0.2816,0.723165 -0.29987,1.304636 -0.57987,0.579867 -0.80478,0.632073 -1.4522,0.337086 -0.63811,-0.29074 -0.85766,-0.247839 -1.31438,0.256831 -0.56068,0.619542 -1.12321,0.76896 -1.49505,0.397113 z M 175.845,20.018025 c -0.6765,-0.676497 -0.11207,-1.70054 0.93729,-1.70054 1.00729,0 1.30588,0.791736 0.59488,1.577378 -0.67237,0.742962 -0.89451,0.760819 -1.53217,0.123162 z m 2.76168,-0.57924 c -0.0938,-0.244429 0.052,-0.784107 0.32407,-1.199284 0.58061,-0.88613 0.39053,-1.174588 -0.77401,-1.174588 -0.4669,0 -0.99393,-0.176143 -1.17118,-0.391429 -0.30629,-0.372006 -0.48159,-1.764866 -0.41242,-3.276984 0.0643,-1.406247 2.28184,-1.699317 2.7076,-0.357842 0.11152,0.35137 0.68852,0.841815 1.28222,1.089878 1.39849,0.584327 1.6069,1.20324 0.78123,2.320016 -0.36765,0.497279 -0.66846,1.304411 -0.66846,1.793625 0,0.489214 -0.1691,1.058578 -0.37577,1.265252 -0.51302,0.513021 -1.4852,0.47361 -1.69328,-0.06864 z m -4.61133,-1.016918 c -0.40707,-0.40706 -0.19987,-1.267944 0.4458,-1.852264 0.64233,-0.581297 0.66282,-0.581085 1.096,0.01132 0.55979,0.765555 0.55368,0.953293 -0.0506,1.557626 -0.51687,0.516872 -1.13934,0.635141 -1.49115,0.28332 z m 0.14028,-2.893854 c -0.55,-0.348321 -0.21728,-1.857732 0.46742,-2.120476 0.26657,-0.10229 0.70686,0.03621 0.97842,0.307771 0.44958,0.449576 0.44676,0.565478 -0.0315,1.295393 -0.56922,0.868735 -0.75319,0.936025 -1.41434,0.517312 z"
       id="path2324"
       inkscape:connector-curvature="0"
       sodipodi:nodetypes="cccccccccssscccccccccscscscccscscccccccccscscccscsccsscccsccsscccccccscsscccccscccscccccccccccccccccccsccccccccssccscccscscsscscccccscsccscsscscsccccccsscccsssscscsccccsccscccsscscssccscsccsscscccsscccccscsccsccccccsscsccssccccccccscccccccscccccccccccscccsccccsccssccccscccsccsscccccccccccccccsccccsscccsccccsscscccscscscscccsccccccccscsscscccccccccscsssscccsssccsccsssccccsccccsccssccccccccssssccsccccscccsccccscscscssccsscccccccccsccccccssccccsccscccsccssccsccsccccccsscscscsccssccccccccccccccscssccscccccsccscccsccccccscccccccsscsccscccccsccccsccccscccs" />
    <path
       style="fill:#000000;stroke-width:0.3131431"
       d="m 341.09497,136.36398 c -0.6654,-0.95 -0.61006,-2.38714 0.13926,-3.61614 1.26636,-2.077 3.06149,-2.02358 3.76631,0.11207 0.31227,0.94617 0.28599,1.31969 -0.16282,2.31499 -0.83417,1.84985 -2.83474,2.48544 -3.74275,1.18908 z m -4.40176,-1.87023 c -0.92388,-0.52389 -1.08591,-0.88682 -1.0912,-2.4441 -0.004,-1.23362 0.12964,-1.5164 1.07448,-2.27029 1.30669,-1.04261 2.16733,-1.09307 2.81725,-0.16517 0.82232,1.17402 0.62229,2.8864 -0.4844,4.14685 -1.0438,1.18883 -1.3442,1.28386 -2.31613,0.73271 z m 9.72519,-0.94806 c -0.88352,-1.26141 -0.32026,-3.63165 1.10404,-4.64583 0.82673,-0.58869 1.05793,-0.62414 1.87185,-0.287 1.13174,0.46878 1.44484,1.49753 0.95418,3.13522 -0.65718,2.19347 -2.92595,3.2312 -3.93007,1.79761 z m -4.81927,-3.91245 c -0.5154,-0.0981 -0.9527,-0.61603 -1.48437,-1.75793 -0.41455,-0.89034 -0.75516,-1.90063 -0.75693,-2.24509 -0.002,-0.34446 -0.28989,-1.38053 -0.64027,-2.30238 -0.35037,-0.92185 -0.55493,-1.9348 -0.45457,-2.251 0.26704,-0.84138 2.26219,-2.49234 3.01193,-2.49234 0.35509,0 1.28212,0.56027 2.06007,1.24505 1.46118,1.28618 2.95485,1.78684 4.31353,1.44583 0.4323,-0.10851 1.26881,0.007 1.86977,0.25804 1.1964,0.49988 1.63349,1.49297 1.27891,2.90572 -0.27663,1.10217 -2.10028,2.80631 -3.28052,3.06554 -0.51153,0.11235 -1.25373,0.45194 -1.64933,0.75463 -0.63244,0.48392 -3.27359,1.66952 -3.46562,1.5557 -0.0396,-0.0235 -0.40074,-0.10525 -0.8026,-0.18177 z m -7.70645,-1.09784 c -1.14673,-1.63719 -0.17524,-4.68784 1.60099,-5.02739 1.20911,-0.23114 1.63128,0.016 2.15064,1.259 0.67313,1.61105 0.58192,2.02428 -0.72945,3.3048 -1.35388,1.32203 -2.31739,1.46983 -3.02218,0.46359 z"
       id="path2324-7"
       inkscape:connector-curvature="0"
       sodipodi:nodetypes="ccccccccscccccccscccscccsccccsccssc" />
    <path
       style="fill:none;stroke:#000000;stroke-width:0.3131431;stroke-opacity:1"
       d="m 382.16678,131.3159 c -0.6654,-0.95 -0.61006,-2.38714 0.13926,-3.61614 1.26636,-2.077 3.06149,-2.02358 3.76631,0.11207 0.31227,0.94617 0.28599,1.31969 -0.16282,2.31499 -0.83417,1.84985 -2.83474,2.48544 -3.74275,1.18908 z m -4.40176,-1.87023 c -0.92388,-0.52389 -1.08591,-0.88682 -1.0912,-2.4441 -0.004,-1.23362 0.12964,-1.5164 1.07448,-2.27029 1.30669,-1.04261 2.16733,-1.09307 2.81725,-0.16517 0.82232,1.17402 0.62229,2.8864 -0.4844,4.14685 -1.0438,1.18883 -1.3442,1.28386 -2.31613,0.73271 z m 9.72519,-0.94806 c -0.88352,-1.26141 -0.32026,-3.63165 1.10404,-4.64583 0.82673,-0.58869 1.05793,-0.62414 1.87185,-0.287 1.13174,0.46878 1.44484,1.49753 0.95418,3.13522 -0.65718,2.19347 -2.92595,3.2312 -3.93007,1.79761 z m -4.81927,-3.91245 c -0.5154,-0.0981 -0.9527,-0.61603 -1.48437,-1.75793 -0.41455,-0.89034 -0.75516,-1.90063 -0.75693,-2.24509 -0.002,-0.34446 -0.28989,-1.38053 -0.64027,-2.30238 -0.35037,-0.92185 -0.55493,-1.9348 -0.45457,-2.251 0.26704,-0.84138 2.26219,-2.49234 3.01193,-2.49234 0.35509,0 1.28212,0.56027 2.06007,1.24505 1.46118,1.28618 2.95485,1.78684 4.31353,1.44583 0.4323,-0.10851 1.26881,0.007 1.86977,0.25804 1.1964,0.49988 1.63349,1.49297 1.27891,2.90572 -0.27663,1.10217 -2.10028,2.80631 -3.28052,3.06554 -0.51153,0.11235 -1.25373,0.45194 -1.64933,0.75463 -0.63244,0.48392 -3.27359,1.66952 -3.46562,1.5557 -0.0396,-0.0235 -0.40074,-0.10525 -0.8026,-0.18177 z m -7.70645,-1.09784 c -1.14673,-1.63719 -0.17524,-4.68784 1.60099,-5.02739 1.20911,-0.23114 1.63128,0.016 2.15064,1.259 0.67313,1.61105 0.58192,2.02428 -0.72945,3.3048 -1.35388,1.32203 -2.31739,1.46983 -3.02218,0.46359 z"
       id="path2324-7-1"
       inkscape:connector-curvature="0"
       sodipodi:nodetypes="ccccccccscccccccscccscccsccccsccssc" />
    <path
       style="fill:none;stroke:#000000;stroke-width:0.3131431;stroke-opacity:1"
       d="m 311.56548,115.32846 c -0.6654,-0.95 -0.61006,-2.38714 0.13926,-3.61614 1.26636,-2.077 3.06149,-2.02358 3.76631,0.11207 0.31227,0.94617 0.28599,1.31969 -0.16282,2.31499 -0.83417,1.84985 -2.83474,2.48544 -3.74275,1.18908 z m -4.40176,-1.87023 c -0.92388,-0.52389 -1.08591,-0.88682 -1.0912,-2.4441 -0.004,-1.23362 0.12964,-1.5164 1.07448,-2.27029 1.30669,-1.04261 2.16733,-1.09307 2.81725,-0.16517 0.82232,1.17402 0.62229,2.8864 -0.4844,4.14685 -1.0438,1.18883 -1.3442,1.28386 -2.31613,0.73271 z m 9.72519,-0.94806 c -0.88352,-1.26141 -0.32026,-3.63165 1.10404,-4.64583 0.82673,-0.58869 1.05793,-0.62414 1.87185,-0.287 1.13174,0.46878 1.44484,1.49753 0.95418,3.13522 -0.65718,2.19347 -2.92595,3.2312 -3.93007,1.79761 z m -4.81927,-3.91245 c -0.5154,-0.0981 -0.9527,-0.61603 -1.48437,-1.75793 -0.41455,-0.89034 -0.75516,-1.90063 -0.75693,-2.24509 -0.002,-0.34446 -0.28989,-1.38053 -0.64027,-2.30238 -0.35037,-0.92185 -0.55493,-1.9348 -0.45457,-2.251 0.26704,-0.841379 2.26219,-2.49234 3.01193,-2.49234 0.35509,0 1.28212,0.56027 2.06007,1.245051 1.46118,1.286179 2.95485,1.786839 4.31353,1.445829 0.4323,-0.10851 1.26881,0.007 1.86977,0.25804 1.1964,0.49988 1.63349,1.49297 1.27891,2.90572 -0.27663,1.10217 -2.10028,2.80631 -3.28052,3.06554 -0.51153,0.11235 -1.25373,0.45194 -1.64933,0.75463 -0.63244,0.48392 -3.27359,1.66952 -3.46562,1.5557 -0.0396,-0.0235 -0.40074,-0.10525 -0.8026,-0.18177 z m -7.70645,-1.09784 c -1.14673,-1.63719 -0.17524,-4.68784 1.60099,-5.02739 1.20911,-0.23114 1.63128,0.016 2.15064,1.259 0.67313,1.61105 0.58192,2.02428 -0.72945,3.3048 -1.35388,1.32203 -2.31739,1.46983 -3.02218,0.46359 z"
       id="path2324-7-1-9"
       inkscape:connector-curvature="0"
       sodipodi:nodetypes="ccccccccscccccccscccscccsccccsccssc" />
    <path
       style="fill:none;stroke:#000000;stroke-width:0.30000001;stroke-miterlimit:4;stroke-dasharray:none;stroke-opacity:1"
       d="m 495.64276,235.22844 c -0.43049,-0.18156 -1.08545,-0.61452 -1.45547,-0.96216 -0.63218,-0.59388 -0.73047,-0.60221 -1.62862,-0.13776 -1.26867,0.65606 -3.46706,0.62523 -4.3268,-0.0607 -0.37298,-0.29758 -0.90524,-1.09582 -1.18279,-1.77393 -0.41253,-1.00785 -0.43078,-1.30675 -0.0999,-1.63758 0.33083,-0.33081 0.66102,-0.23463 1.80908,0.52697 0.77241,0.51242 1.5943,0.93229 1.82643,0.93303 0.23212,0 1.09389,-0.7256 1.91503,-1.61404 1.53865,-1.66478 2.51664,-1.89841 2.51664,-0.60119 0,2.46187 2.69283,3.50658 4.33265,1.68087 0.82463,-0.91813 0.81545,-1.49415 -0.10381,-6.51003 -0.65585,-3.57862 -0.77848,-7.52643 -0.27442,-8.83431 0.21319,-0.55316 0.48761,-1.68047 0.60983,-2.50515 0.12222,-0.82467 0.4783,-1.97998 0.79129,-2.56734 0.31298,-0.58737 0.49498,-1.18781 0.40442,-1.33432 -0.0906,-0.14652 0.27371,-0.70474 0.80947,-1.2405 0.53576,-0.53575 1.31353,-1.64393 1.72838,-2.4626 0.41486,-0.81867 0.93696,-1.56212 1.16024,-1.6521 0.22327,-0.09 0.73364,-0.84736 1.13414,-1.68307 0.40051,-0.83572 0.99939,-2.0406 1.33086,-2.67753 0.33147,-0.63692 0.60267,-1.38168 0.60267,-1.65501 0,-0.27334 0.24009,-0.86341 0.53354,-1.31126 0.6853,-1.04591 0.75865,-6.34872 0.12364,-8.9385 -0.34736,-1.4166 -0.3589,-1.88597 -0.0554,-2.25167 0.60694,-0.73133 1.14813,-0.28282 2.03007,1.68239 0.69795,1.55525 0.83111,2.33283 0.89464,5.2245 0.0515,2.34414 -0.0922,4.11166 -0.46361,5.70165 -0.51608,2.2094 -2.63111,7.01791 -4.13526,9.4015 -0.39325,0.62316 -0.81977,1.46343 -0.94783,1.86725 -0.12806,0.40383 -0.78276,1.51927 -1.45489,2.47877 -0.67213,0.9595 -1.22206,2.02715 -1.22206,2.37255 0,0.3454 -0.23579,0.88854 -0.52397,1.20698 -0.78775,0.87046 -0.91215,6.92859 -0.19102,9.30297 0.6979,2.29796 0.70599,6.12515 0.0157,7.41729 -1.16791,2.18607 -4.41892,3.4929 -6.50281,2.61401 z m -12.78153,-14.54638 c -0.57118,-0.2481 -1.40044,-0.73578 -1.8428,-1.08375 -0.83613,-0.6577 -2.42624,-0.8519 -2.74551,-0.3353 -0.26864,0.43466 -3.33634,0.003 -4.13501,-0.58179 -0.83487,-0.61134 -1.50171,-2.81679 -1.24292,-4.11074 0.10528,-0.52639 0.54882,-1.42566 0.98565,-1.99838 1.33959,-1.7563 2.97863,-5.9361 3.18208,-8.11482 0.2775,-2.97166 -1.14672,-7.41579 -3.02751,-9.44708 -0.4784,-0.51668 -0.97249,-1.29171 -1.09798,-1.72228 -0.12548,-0.43058 -0.40569,-0.99423 -0.62269,-1.25258 -0.40759,-0.48526 -0.53823,-1.05906 -1.12943,-4.96085 -0.25486,-1.682 -0.25525,-2.39226 -0.001,-2.64606 0.1908,-0.19081 0.34691,-0.64773 0.34691,-1.01539 0,-0.98919 2.05655,-5.03701 2.68083,-5.27657 0.77846,-0.29872 1.70378,0.0768 1.69946,0.68968 -0.002,0.28979 -0.22588,1.30193 -0.4974,2.24919 -0.94386,3.29277 -1.01708,4.3847 -0.45283,6.75301 0.52204,2.19114 1.21025,3.61406 2.7751,5.73764 0.42998,0.58351 1.08808,1.64037 1.46244,2.34857 1.2488,2.83298 1.35482,2.48078 1.61607,3.75894 0.43697,1.61685 0.23987,5.89961 -0.35586,7.73253 -0.3031,0.93259 -1.30854,2.97609 -2.23431,4.54113 -1.75911,2.97382 -1.99922,3.78545 -1.20951,4.08849 0.65443,0.25113 1.25665,-0.32321 2.04371,-1.94906 0.76712,-1.58465 1.41975,-1.76418 1.89998,-0.52266 0.74134,1.91656 1.62982,3.50528 2.32611,4.15941 0.70709,0.66427 0.81604,0.67523 2.79732,0.28142 1.81609,-0.36098 2.1202,-0.35117 2.55381,0.0824 0.68882,0.68882 0.12484,1.64187 -1.44576,2.44313 -1.43646,0.73283 -2.87459,0.78324 -4.32851,0.15172 z m 37.3631,-42.11187 c -0.34445,-0.14802 -1.07762,-0.27903 -1.62927,-0.29113 -0.55163,-0.0121 -1.32666,-0.15033 -1.72228,-0.30717 -0.39562,-0.15683 -1.84662,-0.51162 -3.22445,-0.78842 -1.37783,-0.2768 -3.42109,-0.72583 -4.54058,-0.99785 -1.11948,-0.27202 -2.39854,-0.54156 -2.84234,-0.59898 -1.23956,-0.16038 -4.45538,-1.53018 -4.5982,-1.95864 -0.19792,-0.59374 2.98106,-0.47509 5.29384,0.1976 1.09458,0.31836 3.11745,0.8263 4.49528,1.12874 6.64648,1.45898 8.30824,1.8742 10.41201,2.60161 1.24866,0.43174 2.27028,0.90703 2.27028,1.05619 0,0.34663 -3.08699,0.31355 -3.91429,-0.042 z m -29.82688,-6.91594 c -1.37323,-1.59176 -1.644,-2.10569 -1.644,-3.12039 0,-1.5642 0.63007,-1.94225 2.43433,-1.46067 0.98087,0.26181 1.57858,0.26011 2.33827,-0.007 1.0594,-0.37202 2.61265,-0.22529 3.29084,0.31088 0.56388,0.44581 0.46885,2.15467 -0.16354,2.94072 -0.96202,1.19579 -3.53891,3.24178 -4.08294,3.24176 -0.29093,-1e-5 -1.26876,-0.85755 -2.17296,-1.90563 z m -22.93773,0.67527 c -0.40503,-0.27138 -0.37689,-0.40776 0.20439,-0.99043 0.57646,-0.57783 1.12076,-0.69503 3.75772,-0.80907 1.69598,-0.0734 4.4223,-0.27805 6.05847,-0.45488 5.69244,-0.61523 5.84468,-0.61497 6.61811,0.0113 0.6369,0.51574 0.66864,0.64579 0.27375,1.12162 -0.24568,0.29602 -0.73431,0.64756 -1.08584,0.78119 -1.03842,0.39473 -15.28807,0.7011 -15.8266,0.34028 z m 38.67318,-1.93062 c -2.41121,-0.10238 -4.91244,-0.2942 -5.55829,-0.42628 -1.23488,-0.25253 -1.55373,-0.89337 -0.62629,-1.25876 0.495,-0.19501 10.14137,-0.20795 14.01315,-0.0188 11.77261,0.57517 11.74287,0.57203 11.74287,1.24027 0,0.28156 -0.52323,0.50418 -1.48743,0.63285 -1.61874,0.21602 -11.09965,0.12726 -18.08401,-0.16929 z m -26.4606,-3.13724 c -0.6028,-0.15609 -2.85743,-0.49954 -5.01029,-0.76324 -6.34748,-0.77745 -6.99592,-0.89645 -8.06343,-1.4797 -1.10055,-0.6013 -1.29238,-1.0805 -0.54704,-1.36652 0.51154,-0.1963 8.39628,0.6795 10.17619,1.13032 1.7363,0.43977 5.13717,0.94881 6.33901,0.94881 1.20548,0 3.36842,0.78549 3.36842,1.22327 0,0.15149 -0.22289,0.36097 -0.49532,0.46551 -0.71983,0.27622 -4.48873,0.17268 -5.76754,-0.15845 z m 24.83912,-4.33651 c -1.58024,-0.37622 -3.49179,-2.0697 -3.72213,-3.29749 -0.30924,-1.6484 0.0368,-1.80519 1.7109,-0.77514 2.53647,1.56071 5.6469,1.24508 7.52329,-0.76344 1.24249,-1.32997 1.6953,-1.08531 1.5125,0.81721 -0.13589,1.41421 -0.31392,1.76189 -1.34568,2.62811 -1.78524,1.4988 -3.48085,1.91405 -5.67888,1.39075 z M 479.82887,161.668 c -2.44042,-0.6274 -5.16686,-2.63865 -5.16686,-3.81151 0,-1.17956 1.47794,-1.07178 5.68604,0.41466 l 1.77176,0.62584 1.35967,-0.64589 c 0.74783,-0.35524 1.58713,-0.81274 1.86512,-1.01667 0.70387,-0.51634 1.53023,-0.1181 1.52882,0.73679 -0.002,1.20724 -1.17909,2.74754 -2.58873,3.38744 -1.37289,0.62322 -2.83898,0.725 -4.45582,0.30934 z m 43.53019,-5.95192 c -0.235,-0.38024 0.13311,-2.53814 0.51557,-3.02229 0.15435,-0.19539 0.47514,-1.04087 0.71287,-1.87886 0.23773,-0.83798 0.67083,-2.15772 0.96244,-2.93275 1.1634,-3.09211 0.80562,-11.85065 -0.62041,-15.18744 -0.22081,-0.51669 -0.6295,-1.57355 -0.90818,-2.34858 -1.13598,-3.15912 -3.81791,-6.77966 -8.22715,-11.10644 -5.10544,-5.00996 -11.75348,-6.89398 -18.34919,-5.20007 -2.03416,0.52241 -4.54395,1.6604 -7.9087,3.58596 -1.36026,0.77844 -5.40558,3.62719 -6.84678,4.82156 -1.6352,1.35515 -3.26706,1.85234 -3.56148,1.0851 -0.11176,-0.29124 1.14677,-1.71381 3.55187,-4.0148 2.04873,-1.96005 4.02162,-3.84829 4.3842,-4.1961 0.36258,-0.3478 0.80825,-0.63236 0.99038,-0.63236 0.18213,0 1.08003,-0.4932 1.99534,-1.096 0.9153,-0.6028 1.80832,-1.09687 1.98447,-1.09793 0.17616,-0.001 0.74303,-0.22818 1.25972,-0.50471 1.27533,-0.68255 5.1194,-1.61191 7.73225,-1.86937 1.18011,-0.11629 2.21461,-0.32301 2.2989,-0.45939 0.0843,-0.13637 -0.12895,-0.72624 -0.47386,-1.31081 -0.98102,-1.66271 -1.82654,-4.41081 -2.20297,-7.16007 -0.38911,-2.841954 -0.0496,-6.815094 0.94704,-11.083454 0.32172,-1.37783 0.6815,-2.99835 0.79951,-3.60115 0.57192,-2.92133 3.48708,-7.35337 7.81492,-11.8813 1.71895,-1.79843 3.75948,-3.93267 4.53451,-4.74276 3.88474,-4.06046 5.04358,-6.085613 5.33334,-9.320362 0.2679,-2.990741 -0.26656,-5.335942 -1.54889,-6.796431 -0.53139,-0.605221 -0.96616,-1.212681 -0.96616,-1.349899 0,-0.335235 -2.73999,-2.051026 -3.91429,-2.45115 -1.51563,-0.516422 -3.89567,-0.493218 -4.71862,0.046 -0.40664,0.266441 -0.8927,0.484439 -1.08012,0.484439 -0.75673,0 -2.64728,1.619142 -3.75538,3.216251 -2.87726,4.147008 -2.5352,8.366019 0.79131,9.760019 2.54094,1.064803 6.48784,0.719079 7.74176,-0.678119 0.78145,-0.870741 0.99682,-2.682751 0.44297,-3.726961 -1.69364,-3.19311 -4.10644,-3.501951 -5.18552,-0.663749 -0.35338,0.92947 -0.7737,1.03837 -2.08437,0.540059 -0.75716,-0.28788 -0.82431,-0.43579 -0.65936,-1.4523 0.22809,-1.40556 1.53861,-3.3425 2.58368,-3.81866 2.11327,-0.96288 6.14906,0.402931 7.59068,2.568861 1.14235,1.71628 1.64154,3.75072 1.32977,5.4195 -0.31918,1.708499 -1.05363,2.774288 -2.72839,3.959262 -1.45492,1.02943 -5.43403,2.13512 -6.8173,1.89435 -1.28914,-0.22438 -4.19399,-1.19808 -5.30569,-1.77846 -0.95155,-0.49676 -2.44755,-3.249634 -2.81858,-5.186603 -0.48959,-2.55591 1.20797,-7.636799 3.24213,-9.703864 0.44344,-0.450614 1.12794,-1.277273 1.5211,-1.837015 0.39503,-0.562393 0.99109,-1.017715 1.33229,-1.017715 0.33959,0 1.20821,-0.301384 1.93025,-0.669747 0.92267,-0.47071 2.10931,-0.715161 3.99297,-0.822561 2.55641,-0.145764 2.78955,-0.10228 5.04906,0.941676 1.47311,0.680619 2.77078,1.548405 3.4317,2.294861 0.58454,0.660199 1.39195,1.542724 1.79424,1.961168 0.99541,1.035378 2.24343,5.103977 2.24343,7.313697 0,1.96912 -0.53455,4.939081 -0.97287,5.405261 -0.15384,0.163622 -0.27971,0.505282 -0.27971,0.759242 0,0.87068 -3.91605,5.6906 -8.24222,10.1446 -4.6666,4.8045 -5.93183,6.4637 -7.33785,9.62269 -3.4445,7.73896 -4.07015,16.545214 -1.50095,21.126174 1.40742,2.50947 2.52448,3.48196 9.15281,7.96817 2.87487,1.94578 6.59008,5.45281 8.02189,7.57237 0.41797,0.61873 1.30095,2.09833 1.9622,3.288 0.66124,1.18967 1.37019,2.30396 1.57544,2.47618 0.20525,0.17223 0.44372,0.73589 0.52992,1.25258 0.0862,0.51668 0.53646,1.92583 1.00059,3.13143 1.15114,2.99017 1.4965,5.80919 1.32352,10.80343 -0.15321,4.42349 -0.47439,5.82204 -2.26213,9.85012 -1.37164,3.09056 -2.51181,4.29763 -3.12392,3.30722 z m -8.7724,-0.74591 c -0.36181,-0.5522 -0.40822,-0.94322 -0.18243,-1.5371 0.4884,-1.28457 0.76405,-7.4635 0.3771,-8.45308 -0.74918,-1.91599 -2.63828,-1.73538 -7.72001,0.73806 -1.38388,0.67359 -2.67784,1.2247 -2.87547,1.2247 -0.76031,0 -0.77039,-1.25289 -0.0171,-2.11953 1.97199,-2.26857 4.12212,-4.45648 4.37954,-4.45648 0.15753,0 1.08764,-0.37655 2.06693,-0.83678 2.5655,-1.20571 5.38072,-1.33929 7.26051,-0.34451 1.95493,1.03454 2.58803,2.334 2.33003,4.78244 -0.29016,2.75366 -2.83298,10.16863 -3.78537,11.03829 -0.97238,0.88793 -1.23171,0.88283 -1.83377,-0.036 z m -45.99282,-2.22273 c -0.39315,-0.42423 -0.96614,-1.65723 -1.2733,-2.74 -0.30716,-1.08278 -0.75378,-2.59268 -0.9925,-3.35533 -0.23872,-0.76266 -0.43403,-1.71087 -0.43403,-2.10714 0,-0.39628 -0.29877,-1.6306 -0.66392,-2.74294 l -0.66392,-2.02244 0.6919,-1.11953 c 0.88889,-1.43825 1.45319,-1.72081 3.89136,-1.94849 1.86594,-0.17424 2.15526,-0.10863 4.33454,0.98301 3.01467,1.5101 4.94619,3.18115 6.15715,5.32684 0.86406,1.53104 1.30756,3.60819 0.77039,3.60819 -0.31111,0 -3.30357,-1.88149 -4.24419,-2.6685 -0.89484,-0.74871 -4.49023,-1.5591 -5.38825,-1.21449 -0.71262,0.27346 -0.92155,1.40095 -0.67811,3.65954 0.11534,1.07015 0.25852,2.43893 0.31817,3.04173 0.0596,0.6028 0.20662,1.6123 0.3266,2.24333 0.18288,0.96183 0.11541,1.20231 -0.41734,1.48743 -0.864,0.4624 -0.91906,0.44871 -1.73455,-0.43121 z"
       id="path2324-6"
       inkscape:connector-curvature="0"
       sodipodi:nodetypes="cccccccccssscccccccccscscscccscscccccccccscscccscsccsscccsccsscccccccscsscccccscccscccccccccccccccccccsccccscccssccscccscsccscscccccccsccscsscscsccccccsscccsssscscsccccsccscccsscscssccscsccsscscccsscccccscsccsccccccsscsccsscccccccc" />
    <path
       style="fill:#000000;fill-opacity:1;stroke:#000000;stroke-width:0.30000001;stroke-miterlimit:4;stroke-dasharray:none;stroke-opacity:1"
       d="m 591.54661,232.52167 c -0.43049,-0.18156 -1.08545,-0.61452 -1.45547,-0.96216 -0.63218,-0.59388 -0.73047,-0.60221 -1.62862,-0.13776 -1.26867,0.65606 -3.46706,0.62523 -4.3268,-0.0607 -0.37298,-0.29758 -0.90524,-1.09582 -1.18279,-1.77393 -0.41253,-1.00785 -0.43078,-1.30675 -0.0999,-1.63758 0.33083,-0.33081 0.66103,-0.23463 1.80909,0.52697 0.77241,0.51242 1.5943,0.93229 1.82643,0.93303 0.23212,0 1.09389,-0.7256 1.91502,-1.61404 1.53865,-1.66478 2.51664,-1.89841 2.51664,-0.60119 0,2.46187 2.69284,3.50658 4.33265,1.68087 0.82463,-0.91813 0.81546,-1.49415 -0.1038,-6.51003 -0.65585,-3.57862 -0.77849,-7.52643 -0.27443,-8.83431 0.2132,-0.55316 0.48762,-1.68047 0.60984,-2.50515 0.12221,-0.82467 0.4783,-1.97998 0.79128,-2.56734 0.31299,-0.58737 0.49498,-1.18781 0.40443,-1.33432 -0.0906,-0.14652 0.2737,-0.70474 0.80946,-1.2405 0.53576,-0.53575 1.31354,-1.64393 1.72838,-2.4626 0.41487,-0.81867 0.93697,-1.56212 1.16024,-1.6521 0.22328,-0.09 0.73365,-0.84736 1.13415,-1.68307 0.4005,-0.83572 0.99939,-2.0406 1.33086,-2.67753 0.33147,-0.63692 0.60267,-1.38168 0.60267,-1.65501 0,-0.27334 0.24008,-0.86341 0.53354,-1.31126 0.6853,-1.04591 0.75864,-6.34872 0.12364,-8.93851 -0.34736,-1.41659 -0.35891,-1.88596 -0.0554,-2.25166 0.60694,-0.73133 1.14813,-0.28282 2.03007,1.68239 0.69795,1.55525 0.83111,2.33283 0.89464,5.2245 0.0515,2.34414 -0.0922,4.11166 -0.46361,5.70165 -0.51608,2.2094 -2.63111,7.01791 -4.13526,9.4015 -0.39325,0.62316 -0.81977,1.46343 -0.94783,1.86725 -0.12806,0.40383 -0.78276,1.51927 -1.45489,2.47877 -0.67213,0.9595 -1.22206,2.02715 -1.22206,2.37255 0,0.3454 -0.23579,0.88854 -0.52397,1.20698 -0.78775,0.87046 -0.91215,6.92859 -0.19102,9.30297 0.6979,2.29796 0.70599,6.12515 0.0157,7.41729 -1.16791,2.18607 -4.41892,3.4929 -6.50281,2.61401 z m -12.78153,-14.54638 c -0.57118,-0.2481 -1.40044,-0.73578 -1.8428,-1.08375 -0.83613,-0.6577 -2.42624,-0.8519 -2.74551,-0.3353 -0.26864,0.43466 -3.33634,0.003 -4.13501,-0.58179 -0.83487,-0.61134 -1.50171,-2.81679 -1.24292,-4.11074 0.10528,-0.52639 0.54882,-1.42566 0.98565,-1.99838 1.33959,-1.7563 2.97863,-5.9361 3.18208,-8.11482 0.2775,-2.97166 -1.14672,-7.41579 -3.02751,-9.44708 -0.4784,-0.51668 -0.97249,-1.29171 -1.09798,-1.72228 -0.12548,-0.43058 -0.40569,-0.99423 -0.62269,-1.25258 -0.40759,-0.48526 -0.53823,-1.05906 -1.12943,-4.96085 -0.25486,-1.682 -0.25525,-2.39226 -0.001,-2.64606 0.1908,-0.19081 0.34691,-0.64773 0.34691,-1.01539 0,-0.98919 2.05655,-5.03702 2.68083,-5.27657 0.77846,-0.29872 1.70378,0.0768 1.69946,0.68968 -0.002,0.28978 -0.22588,1.30193 -0.4974,2.24919 -0.94386,3.29277 -1.01708,4.3847 -0.45283,6.75301 0.52204,2.19114 1.21025,3.61406 2.7751,5.73764 0.42998,0.58351 1.08808,1.64037 1.46244,2.34857 1.2488,2.83298 1.35482,2.48078 1.61607,3.75894 0.43697,1.61685 0.23987,5.89961 -0.35586,7.73253 -0.3031,0.93259 -1.30854,2.97609 -2.23431,4.54113 -1.75911,2.97382 -1.99922,3.78545 -1.20951,4.08849 0.65443,0.25113 1.25665,-0.32321 2.04371,-1.94906 0.76712,-1.58465 1.41975,-1.76418 1.89998,-0.52266 0.74134,1.91656 1.62982,3.50528 2.32611,4.15941 0.70709,0.66427 0.81604,0.67523 2.79732,0.28142 1.81609,-0.36098 2.1202,-0.35117 2.55381,0.0824 0.68882,0.68882 0.12484,1.64187 -1.44576,2.44313 -1.43646,0.73283 -2.87459,0.78324 -4.32851,0.15172 z m 37.3631,-42.11187 c -0.34445,-0.14802 -1.07761,-0.27903 -1.62927,-0.29113 -0.55163,-0.0121 -1.32666,-0.15033 -1.72228,-0.30717 -0.39562,-0.15683 -1.84662,-0.51163 -3.22444,-0.78842 -1.37784,-0.2768 -3.4211,-0.72583 -4.54059,-0.99785 -1.11948,-0.27202 -2.39854,-0.54156 -2.84233,-0.59898 -1.23956,-0.16038 -4.45539,-1.53018 -4.59821,-1.95865 -0.19792,-0.59373 2.98106,-0.47508 5.29384,0.19761 1.09458,0.31836 3.11746,0.8263 4.49528,1.12874 6.64649,1.45898 8.30824,1.8742 10.41201,2.60161 1.24867,0.43174 2.27029,0.90702 2.27029,1.05619 0,0.34663 -3.087,0.31355 -3.9143,-0.042 z m -29.82688,-6.91594 c -1.37323,-1.59176 -1.644,-2.10569 -1.644,-3.12039 0,-1.56421 0.63007,-1.94226 2.43433,-1.46067 0.98087,0.26181 1.57858,0.26011 2.33827,-0.007 1.05941,-0.37202 2.61266,-0.22529 3.29084,0.31088 0.56388,0.44581 0.46886,2.15468 -0.16354,2.94072 -0.96202,1.1958 -3.53891,3.24179 -4.08293,3.24177 -0.29094,-1e-5 -1.26877,-0.85755 -2.17297,-1.90564 z m -22.93773,0.67527 c -0.40503,-0.27138 -0.37689,-0.40776 0.20439,-0.99043 0.57646,-0.57783 1.12076,-0.69503 3.75772,-0.80907 1.69598,-0.0734 4.4223,-0.27805 6.05847,-0.45488 5.69244,-0.61523 5.84468,-0.61497 6.61811,0.0113 0.6369,0.51574 0.66864,0.64579 0.27375,1.12162 -0.24568,0.29602 -0.73431,0.64756 -1.08584,0.78119 -1.03842,0.39473 -15.28807,0.7011 -15.8266,0.34028 z m 38.67318,-1.93062 c -2.4112,-0.10238 -4.91244,-0.29421 -5.55829,-0.42629 -1.23488,-0.25252 -1.55372,-0.89336 -0.62629,-1.25875 0.49501,-0.19501 10.14137,-0.20795 14.01315,-0.0188 11.77261,0.57516 11.74287,0.57202 11.74287,1.24027 0,0.28156 -0.52322,0.50418 -1.48742,0.63285 -1.61875,0.21601 -11.09966,0.12725 -18.08402,-0.1693 z m -26.4606,-3.13724 c -0.6028,-0.15609 -2.85743,-0.49954 -5.01029,-0.76324 -6.34748,-0.77746 -6.99592,-0.89646 -8.06343,-1.47971 -1.10055,-0.6013 -1.29238,-1.0805 -0.54704,-1.36652 0.51154,-0.1963 8.39628,0.6795 10.17619,1.13032 1.7363,0.43977 5.13717,0.94881 6.33901,0.94881 1.20548,0 3.36842,0.7855 3.36842,1.22327 0,0.1515 -0.22289,0.36098 -0.49532,0.46552 -0.71983,0.27622 -4.48873,0.17268 -5.76754,-0.15845 z m 24.83912,-4.33652 c -1.58024,-0.37622 -3.49178,-2.0697 -3.72213,-3.29749 -0.30924,-1.6484 0.0368,-1.80519 1.7109,-0.77514 2.53647,1.56071 5.6469,1.24508 7.5233,-0.76344 1.24248,-1.32997 1.69529,-1.08531 1.51249,0.81721 -0.13589,1.41421 -0.31392,1.76189 -1.34567,2.62811 -1.78525,1.4988 -3.48086,1.91405 -5.67889,1.39075 z m -24.68255,-1.25715 c -2.44042,-0.6274 -5.16686,-2.63865 -5.16686,-3.81151 0,-1.17956 1.47794,-1.07178 5.68604,0.41466 l 1.77176,0.62584 1.35967,-0.64589 c 0.74783,-0.35524 1.58713,-0.81274 1.86512,-1.01667 0.70387,-0.51634 1.53023,-0.1181 1.52882,0.73679 -0.002,1.20724 -1.17909,2.74754 -2.58873,3.38744 -1.37289,0.62322 -2.83898,0.725 -4.45582,0.30934 z m 43.53019,-5.95192 c -0.235,-0.38024 0.13311,-2.53814 0.51557,-3.02229 0.15435,-0.19539 0.47514,-1.04087 0.71287,-1.87886 0.23773,-0.83798 0.67083,-2.15772 0.96244,-2.93275 1.1634,-3.09211 0.80562,-11.85065 -0.62041,-15.18744 -0.2208,-0.51669 -0.6295,-1.57355 -0.90818,-2.34858 -1.13598,-3.15912 -3.8179,-6.77966 -8.22715,-11.10644 -5.10544,-5.00996 -11.75348,-6.89398 -18.34919,-5.20007 -2.03416,0.52241 -4.54395,1.6604 -7.9087,3.58596 -1.36026,0.77844 -5.40558,3.62719 -6.84678,4.82156 -1.6352,1.35515 -3.26706,1.85234 -3.56148,1.0851 -0.11176,-0.29124 1.14677,-1.71381 3.55187,-4.0148 2.04873,-1.96005 4.02162,-3.84829 4.3842,-4.1961 0.36258,-0.3478 0.80825,-0.63236 0.99038,-0.63236 0.18213,0 1.08003,-0.4932 1.99534,-1.096 0.9153,-0.6028 1.80832,-1.09687 1.98447,-1.09793 0.17616,-0.001 0.74303,-0.22818 1.25972,-0.50471 1.27533,-0.68255 5.1194,-1.61191 7.73225,-1.86937 1.18011,-0.11629 2.21461,-0.32301 2.29891,-0.45939 0.0843,-0.13637 -0.12895,-0.72624 -0.47387,-1.31081 -0.98102,-1.66271 -1.82654,-4.41081 -2.20297,-7.160071 -0.38911,-2.84195 -0.0496,-6.81509 0.94704,-11.083449 0.32173,-1.37783 0.68151,-2.99835 0.79951,-3.601151 0.57192,-2.92133 3.48708,-7.353371 7.81492,-11.881299 1.71895,-1.798432 3.75948,-3.932671 4.53451,-4.742761 3.88474,-4.06046 5.04358,-6.085613 5.33334,-9.320362 0.2679,-2.990741 -0.26656,-5.335943 -1.54889,-6.796432 -0.53139,-0.605221 -0.96616,-1.212681 -0.96616,-1.349899 0,-0.335235 -2.73998,-2.051026 -3.91428,-2.45115 -1.51564,-0.516422 -3.89568,-0.493218 -4.71863,0.046 -0.40664,0.266442 -0.8927,0.484439 -1.08012,0.484439 -0.75672,0 -2.64728,1.619142 -3.75537,3.216251 -2.87727,4.147009 -2.53521,8.36602 0.7913,9.76002 2.54095,1.064803 6.48784,0.719079 7.74176,-0.678119 0.78145,-0.870741 0.99682,-2.682751 0.44298,-3.726961 -1.69365,-3.19311 -4.10645,-3.501951 -5.18553,-0.663749 -0.35338,0.92947 -0.7737,1.03837 -2.08437,0.540059 -0.75716,-0.28788 -0.82431,-0.43579 -0.65936,-1.4523 0.22809,-1.40556 1.53862,-3.342501 2.58368,-3.81866 2.11327,-0.962881 6.14906,0.40293 7.59068,2.568861 1.14236,1.71628 1.64154,3.75072 1.32977,5.4195 -0.31917,1.708499 -1.05363,2.774288 -2.72839,3.959262 -1.45492,1.02943 -5.43403,2.13512 -6.81729,1.89435 -1.28914,-0.22438 -4.19399,-1.19808 -5.3057,-1.77846 -0.95155,-0.49676 -2.44755,-3.249634 -2.81858,-5.186603 -0.48959,-2.55591 1.20797,-7.6368 3.24213,-9.703865 0.44345,-0.450614 1.12794,-1.277273 1.5211,-1.837015 0.39503,-0.562393 0.99109,-1.017715 1.33229,-1.017715 0.33959,0 1.20821,-0.301384 1.93025,-0.669747 0.92267,-0.47071 2.10931,-0.715161 3.99297,-0.822561 2.55642,-0.145764 2.78955,-0.10228 5.04906,0.941676 1.47311,0.680619 2.77078,1.548405 3.4317,2.294861 0.58454,0.660199 1.39195,1.542724 1.79424,1.961168 0.99541,1.035378 2.24343,5.103978 2.24343,7.313698 0,1.96912 -0.53455,4.939081 -0.97286,5.405261 -0.15385,0.163622 -0.27972,0.505282 -0.27972,0.759242 0,0.87068 -3.91605,5.6906 -8.24221,10.144599 -4.66661,4.804502 -5.93184,6.463702 -7.33786,9.622692 -3.44449,7.738959 -4.07014,16.545211 -1.50095,21.12617 1.40742,2.50947 2.52448,3.48196 9.15282,7.96817 2.87487,1.94578 6.59007,5.45281 8.02188,7.57237 0.41797,0.61873 1.30096,2.09833 1.9622,3.288 0.66124,1.18967 1.37019,2.30396 1.57544,2.47618 0.20526,0.17223 0.44372,0.73589 0.52993,1.25258 0.0862,0.51668 0.53645,1.92583 1.00058,3.13143 1.15114,2.99017 1.49651,5.80919 1.32352,10.80343 -0.15321,4.42349 -0.47439,5.82204 -2.26213,9.85012 -1.37164,3.09056 -2.5118,4.29763 -3.12392,3.30722 z m -8.7724,-0.74591 c -0.36181,-0.5522 -0.40822,-0.94322 -0.18243,-1.5371 0.4884,-1.28457 0.76405,-7.4635 0.3771,-8.45308 -0.74918,-1.91599 -2.63828,-1.73538 -7.72001,0.73806 -1.38388,0.67359 -2.67784,1.2247 -2.87547,1.2247 -0.76031,0 -0.77039,-1.25289 -0.0171,-2.11953 1.97199,-2.26857 4.12212,-4.45648 4.37954,-4.45648 0.15753,0 1.08764,-0.37655 2.06693,-0.83678 2.5655,-1.20571 5.38072,-1.33929 7.26051,-0.34451 1.95493,1.03454 2.58803,2.334 2.33003,4.78244 -0.29015,2.75366 -2.83298,10.16863 -3.78537,11.03829 -0.97237,0.88793 -1.23171,0.88283 -1.83377,-0.036 z m -45.99282,-2.22273 c -0.39315,-0.42423 -0.96614,-1.65723 -1.2733,-2.74 -0.30716,-1.08278 -0.75378,-2.59268 -0.9925,-3.35533 -0.23872,-0.76266 -0.43403,-1.71087 -0.43403,-2.10714 0,-0.39628 -0.29877,-1.6306 -0.66392,-2.74294 l -0.66392,-2.02244 0.6919,-1.11953 c 0.88889,-1.43825 1.45319,-1.72081 3.89136,-1.94849 1.86594,-0.17424 2.15526,-0.10863 4.33454,0.98301 3.01467,1.5101 4.94619,3.18115 6.15715,5.32684 0.86406,1.53104 1.30756,3.60819 0.77039,3.60819 -0.31111,0 -3.30357,-1.88149 -4.24419,-2.6685 -0.89484,-0.74871 -4.49023,-1.5591 -5.38825,-1.21449 -0.71262,0.27346 -0.92155,1.40095 -0.67811,3.65954 0.11534,1.07015 0.25852,2.43893 0.31817,3.04173 0.0596,0.6028 0.20662,1.6123 0.3266,2.24333 0.18288,0.96183 0.11541,1.20231 -0.41734,1.48743 -0.864,0.4624 -0.91906,0.44871 -1.73455,-0.43121 z"
       id="path2324-6-0"
       inkscape:connector-curvature="0"
       sodipodi:nodetypes="cccccccccssscccccccccscscscccscscccccccccscscccscsccsscccsccsscccccccscsscccccscccscccccccccccccccccccsccccscccssccscccscsccscscccccccsccscsscscsccccccsscccsssscscsccccsccscccsscscssccscsccsscscccsscccccscsccsccccccsscsccsscccccccc" />
  </g>
</svg>
