<?xml version="1.0" encoding="UTF-8" standalone="no"?>
<svg
   xmlns:dc="http://purl.org/dc/elements/1.1/"
   xmlns:cc="http://creativecommons.org/ns#"
   xmlns:rdf="http://www.w3.org/1999/02/22-rdf-syntax-ns#"
   xmlns:svg="http://www.w3.org/2000/svg"
   xmlns="http://www.w3.org/2000/svg"
   xmlns:sodipodi="http://sodipodi.sourceforge.net/DTD/sodipodi-0.dtd"
   xmlns:inkscape="http://www.inkscape.org/namespaces/inkscape"
   width="210mm"
   height="297mm"
   viewBox="0 0 210 297"
   version="1.1"
   id="svg1181"
   inkscape:version="1.0.1 (3bc2e813f5, 2020-09-07)"
   sodipodi:docname="Katze solo.svg">
  <defs
     id="defs1175" />
  <sodipodi:namedview
     id="base"
     pagecolor="#ffffff"
     bordercolor="#666666"
     borderopacity="1.0"
     inkscape:pageopacity="0.0"
     inkscape:pageshadow="2"
     inkscape:zoom="0.62762632"
     inkscape:cx="90.655928"
     inkscape:cy="532.84597"
     inkscape:document-units="mm"
     inkscape:current-layer="layer1"
     showgrid="false"
     inkscape:window-width="1920"
     inkscape:window-height="998"
     inkscape:window-x="-11"
     inkscape:window-y="-11"
     inkscape:window-maximized="1"
     showborder="true"
     inkscape:document-rotation="0" />
  <metadata
     id="metadata1178">
    <rdf:RDF>
      <cc:Work
         rdf:about="">
        <dc:format>image/svg+xml</dc:format>
        <dc:type
           rdf:resource="http://purl.org/dc/dcmitype/StillImage" />
        <dc:title></dc:title>
      </cc:Work>
    </rdf:RDF>
  </metadata>
  <g
     inkscape:label="Ebene 1"
     inkscape:groupmode="layer"
     id="layer1">
    <path
       style="fill:#000000;stroke-width:0.313143"
       d="m 103.58572,242.85438 c -0.43048,-0.18156 -1.08544,-0.61453 -1.45547,-0.96215 -0.63218,-0.5939 -0.73047,-0.60222 -1.62861,-0.13777 -1.268676,0.65606 -3.467072,0.62523 -4.326806,-0.0607 -0.372985,-0.29757 -0.90524,-1.09583 -1.182792,-1.77392 -0.412534,-1.00786 -0.430775,-1.30675 -0.09994,-1.63758 0.330832,-0.33083 0.661017,-0.23465 1.809077,0.52697 0.772409,0.51242 1.594303,0.93227 1.826429,0.93301 0.232124,6.3e-4 1.093894,-0.72558 1.915042,-1.61404 1.53864,-1.66477 2.51663,-1.8984 2.51663,-0.60118 0,2.46188 2.69284,3.50658 4.33265,1.68087 0.82464,-0.91812 0.81545,-1.49414 -0.10381,-6.51003 -0.65585,-3.57862 -0.77848,-7.52643 -0.27442,-8.83431 0.21319,-0.55316 0.48761,-1.68047 0.60983,-2.50515 0.12222,-0.82467 0.4783,-1.97998 0.79129,-2.56734 0.31298,-0.58737 0.49498,-1.18781 0.40443,-1.33432 -0.0906,-0.14652 0.27371,-0.70474 0.80946,-1.2405 0.53576,-0.53575 1.31353,-1.64393 1.72839,-2.4626 0.41485,-0.81867 0.93696,-1.56212 1.16023,-1.6521 0.22328,-0.09 0.73364,-0.84736 1.13415,-1.68307 0.4005,-0.83572 0.99939,-2.0406 1.33085,-2.67753 0.33147,-0.63692 0.60267,-1.38168 0.60267,-1.65501 0,-0.27334 0.2401,-0.86341 0.53354,-1.31126 0.6853,-1.04591 0.75865,-6.34872 0.12364,-8.9385 -0.34735,-1.4166 -0.3589,-1.88597 -0.0554,-2.25167 0.60694,-0.73133 1.14814,-0.28282 2.03007,1.68239 0.69795,1.55525 0.83111,2.33283 0.89464,5.2245 0.0515,2.34414 -0.0922,4.11166 -0.46361,5.70165 -0.51607,2.2094 -2.63111,7.01791 -4.13526,9.4015 -0.39325,0.62316 -0.81977,1.46343 -0.94782,1.86725 -0.12806,0.40383 -0.78277,1.51927 -1.4549,2.47877 -0.67213,0.9595 -1.22206,2.02715 -1.22206,2.37255 0,0.3454 -0.23578,0.88854 -0.52397,1.20698 -0.78775,0.87046 -0.91214,6.92859 -0.19102,9.30297 0.6979,2.29796 0.70599,6.12515 0.0157,7.41728 -1.16791,2.18608 -4.41891,3.49292 -6.50281,2.61402 z M 90.804193,228.308 c -0.571177,-0.2481 -1.400439,-0.73578 -1.842803,-1.08375 -0.83613,-0.6577 -2.426241,-0.8519 -2.745512,-0.3353 -0.268638,0.43466 -3.33634,0.003 -4.13501,-0.58179 -0.83487,-0.61134 -1.501708,-2.81679 -1.242917,-4.11074 0.105278,-0.52639 0.548821,-1.42566 0.985651,-1.99838 1.339595,-1.7563 2.978629,-5.9361 3.182081,-8.11482 0.277498,-2.97166 -1.146716,-7.41579 -3.027508,-9.44708 -0.478405,-0.51668 -0.972497,-1.29171 -1.097982,-1.72228 -0.125485,-0.43058 -0.405694,-0.99423 -0.622688,-1.25258 -0.407591,-0.48526 -0.53823,-1.05906 -1.129437,-4.96085 -0.25486,-1.682 -0.255249,-2.39226 -0.0014,-2.64606 0.190801,-0.19081 0.346916,-0.64773 0.346916,-1.01539 0,-0.98919 2.056547,-5.03701 2.680828,-5.27657 0.778457,-0.29872 1.703782,0.0768 1.699459,0.68968 -0.002,0.28979 -0.225875,1.30193 -0.497402,2.24919 -0.943856,3.29277 -1.017076,4.3847 -0.452829,6.75301 0.522038,2.19114 1.210254,3.61406 2.775098,5.73764 0.429984,0.58351 1.088083,1.64037 1.462443,2.34857 1.248797,2.83298 1.354819,2.48078 1.616076,3.75894 0.436963,1.61685 0.239864,5.89961 -0.355862,7.73253 -0.303106,0.93259 -1.308546,2.97609 -2.234312,4.54113 -1.759113,2.97382 -1.999218,3.78545 -1.209507,4.08849 0.654422,0.25113 1.25665,-0.32321 2.043709,-1.94906 0.767115,-1.58465 1.419743,-1.76418 1.899975,-0.52266 0.741345,1.91656 1.629821,3.50528 2.326114,4.15941 0.707084,0.66427 0.816038,0.67523 2.797322,0.28142 1.816082,-0.36098 2.120195,-0.35117 2.55381,0.0824 0.688821,0.68882 0.124841,1.64187 -1.445763,2.44313 -1.436458,0.73283 -2.874593,0.78324 -4.32851,0.15172 z M 128.1673,186.19613 c -0.34446,-0.14802 -1.07763,-0.27903 -1.62927,-0.29113 -0.55164,-0.0121 -1.32667,-0.15033 -1.72229,-0.30717 -0.39562,-0.15683 -1.84662,-0.51162 -3.22445,-0.78842 -1.37783,-0.2768 -3.42109,-0.72583 -4.54057,-0.99785 -1.11949,-0.27202 -2.39855,-0.54156 -2.84235,-0.59898 -1.23956,-0.16038 -4.45538,-1.53018 -4.5982,-1.95864 -0.19791,-0.59374 2.98107,-0.47509 5.29384,0.1976 1.09458,0.31836 3.11745,0.8263 4.49528,1.12874 6.64648,1.45898 8.30824,1.8742 10.41201,2.60161 1.24866,0.43174 2.27029,0.90703 2.27029,1.05619 0,0.34663 -3.087,0.31355 -3.91429,-0.042 z m -29.826884,-6.91594 c -1.373233,-1.59176 -1.644001,-2.10569 -1.644001,-3.12039 0,-1.5642 0.630065,-1.94225 2.434327,-1.46067 0.980878,0.26181 1.578588,0.26011 2.338268,-0.007 1.0594,-0.37202 2.61265,-0.22529 3.29084,0.31088 0.56388,0.44581 0.46885,2.15467 -0.16354,2.94072 -0.96202,1.19579 -3.53891,3.24178 -4.08294,3.24176 -0.29092,-10e-6 -1.268753,-0.85755 -2.172954,-1.90563 z m -22.937732,0.67527 c -0.405036,-0.27138 -0.376892,-0.40776 0.204386,-0.99043 0.576457,-0.57783 1.120765,-0.69503 3.757717,-0.80907 1.695989,-0.0734 4.422303,-0.27805 6.058476,-0.45488 5.692442,-0.61523 5.844681,-0.61497 6.618108,0.0113 0.636902,0.51573 0.668646,0.64579 0.273753,1.12161 -0.245679,0.29603 -0.734309,0.64756 -1.085845,0.78119 -1.038414,0.39473 -15.28807,0.70111 -15.826595,0.34028 z m 38.673176,-1.93062 c -2.4112,-0.10238 -4.91244,-0.2942 -5.55829,-0.42628 -1.23488,-0.25253 -1.55373,-0.89337 -0.62629,-1.25876 0.495,-0.19501 10.14137,-0.20795 14.01315,-0.0188 11.77261,0.57517 11.74287,0.57203 11.74287,1.24027 0,0.28156 -0.52323,0.50418 -1.48743,0.63285 -1.61874,0.21602 -11.09965,0.12726 -18.08401,-0.16929 z M 87.615265,174.8876 c -0.602801,-0.15609 -2.857431,-0.49954 -5.01029,-0.76324 -6.347482,-0.77746 -6.995919,-0.89646 -8.063435,-1.47971 -1.100549,-0.6013 -1.292383,-1.0805 -0.547042,-1.36652 0.511549,-0.1963 8.396281,0.6795 10.176192,1.13032 1.736298,0.43977 5.137171,0.94881 6.33901,0.94881 1.205484,0 3.368427,0.7855 3.368427,1.22328 0,0.15149 -0.222897,0.36097 -0.495326,0.46551 -0.719827,0.27622 -4.488728,0.17268 -5.767536,-0.15845 z m 24.839125,-4.33652 c -1.58024,-0.37622 -3.4918,-2.0697 -3.72214,-3.29749 -0.30924,-1.6484 0.0368,-1.80519 1.7109,-0.77514 2.53648,1.56071 5.6469,1.24508 7.52329,-0.76344 1.24249,-1.32997 1.69531,-1.08531 1.5125,0.81721 -0.13589,1.41421 -0.31391,1.76189 -1.34568,2.62811 -1.78523,1.4988 -3.48085,1.91405 -5.67887,1.39075 z m -24.682554,-1.25715 c -2.440426,-0.6274 -5.166861,-2.63865 -5.166861,-3.81151 0,-1.17956 1.477942,-1.07178 5.686041,0.41466 l 1.771753,0.62584 1.359678,-0.64589 c 0.747823,-0.35524 1.587126,-0.81274 1.865116,-1.01667 0.703871,-0.51634 1.530225,-0.1181 1.528822,0.73679 -0.0019,1.20724 -1.179094,2.74754 -2.588729,3.38744 -1.372897,0.62322 -2.83898,0.725 -4.45582,0.30934 z m 43.530184,-5.95192 c -0.235,-0.38024 0.13312,-2.53814 0.51557,-3.02229 0.15435,-0.19539 0.47514,-1.04087 0.71287,-1.87886 0.23774,-0.83798 0.67083,-2.15772 0.96244,-2.93275 1.16341,-3.09211 0.80562,-11.85065 -0.62041,-15.18744 -0.22081,-0.51669 -0.62949,-1.57355 -0.90818,-2.34858 -1.13597,-3.15912 -3.81791,-6.77966 -8.22715,-11.10644 -5.10544,-5.00996 -11.75348,-6.89398 -18.34919,-5.20007 -2.03415,0.52241 -4.54395,1.6604 -7.908698,3.58596 -1.360259,0.77844 -5.405578,3.62719 -6.846776,4.82156 -1.635205,1.35515 -3.267064,1.85234 -3.561481,1.0851 -0.111761,-0.29124 1.146771,-1.71381 3.551866,-4.0148 2.048728,-1.96005 4.021619,-3.84829 4.384202,-4.1961 0.362582,-0.3478 0.808253,-0.63236 0.990384,-0.63236 0.182127,0 1.080027,-0.4932 1.995332,-1.096 0.915308,-0.6028 1.80832,-1.09687 1.984478,-1.09793 0.176153,-9.4e-4 0.743023,-0.22818 1.259713,-0.50471 1.27533,-0.68255 5.11941,-1.61191 7.73225,-1.86937 1.18011,-0.11629 2.21462,-0.32301 2.2989,-0.45939 0.0843,-0.13637 -0.12895,-0.72624 -0.47386,-1.31081 -0.98102,-1.66271 -1.82654,-4.41081 -2.20296,-7.16007 -0.38912,-2.84195 -0.0496,-6.81509 0.94703,-11.083451 0.32172,-1.37783 0.68151,-2.99835 0.79951,-3.60115 0.57192,-2.92133 3.48708,-7.35337 7.81492,-11.8813 1.71896,-1.79843 3.75948,-3.93267 4.53451,-4.74276 3.88474,-4.06046 5.04358,-6.08561 5.33334,-9.32036 0.26791,-2.99074 -0.26656,-5.33594 -1.54888,-6.79643 -0.5314,-0.60522 -0.96617,-1.21268 -0.96617,-1.3499 0,-0.33524 -2.73999,-2.05103 -3.91429,-2.45115 -1.51562,-0.51643 -3.89566,-0.49322 -4.71862,0.046 -0.40664,0.26644 -0.8927,0.48444 -1.08012,0.48444 -0.75673,0 -2.64728,1.61914 -3.75538,3.21625 -2.87726,4.14701 -2.53519,8.36602 0.79132,9.76002 2.54093,1.0648 6.48783,0.71908 7.74176,-0.67812 0.78145,-0.87074 0.99681,-2.68275 0.44296,-3.72696 -1.69364,-3.19311 -4.10644,-3.50195 -5.18552,-0.66375 -0.35338,0.92947 -0.7737,1.03837 -2.08437,0.54006 -0.75715,-0.28788 -0.82431,-0.43579 -0.65935,-1.4523 0.22809,-1.40556 1.5386,-3.3425 2.58367,-3.81866 2.11327,-0.96288 6.14906,0.40293 7.59069,2.56886 1.14234,1.71628 1.64153,3.75072 1.32977,5.4195 -0.31919,1.7085 -1.05364,2.77429 -2.72839,3.95926 -1.45493,1.02943 -5.43404,2.13512 -6.81731,1.89435 -1.28914,-0.22438 -4.19399,-1.19808 -5.30569,-1.77846 -0.95155,-0.49676 -2.44755,-3.24963 -2.81858,-5.1866 -0.48959,-2.55591 1.20797,-7.6368 3.24213,-9.70387 0.44344,-0.45061 1.12794,-1.27727 1.52111,-1.83701 0.39502,-0.5624 0.99109,-1.01772 1.33228,-1.01772 0.3396,0 1.20821,-0.30138 1.93026,-0.66975 0.92266,-0.470713 2.10931,-0.715163 3.99297,-0.822563 2.5564,-0.14576 2.78954,-0.10228 5.04905,0.941683 1.47311,0.68062 2.77079,1.54841 3.4317,2.29486 0.58455,0.6602 1.39195,1.54272 1.79425,1.96117 0.9954,1.03538 2.24342,5.10398 2.24342,7.3137 0,1.96912 -0.53455,4.93908 -0.97287,5.40526 -0.15384,0.16362 -0.2797,0.50528 -0.2797,0.75924 0,0.87068 -3.91606,5.6906 -8.24223,10.1446 -4.66659,4.8045 -5.93183,6.4637 -7.33785,9.62269 -3.44449,7.738961 -4.07015,16.545211 -1.50095,21.126171 1.40742,2.50947 2.52449,3.48196 9.15281,7.96817 2.87487,1.94578 6.59008,5.45281 8.02189,7.57237 0.41797,0.61873 1.30096,2.09833 1.9622,3.288 0.66124,1.18967 1.37019,2.30396 1.57544,2.47618 0.20526,0.17223 0.44372,0.73589 0.52992,1.25258 0.0862,0.51668 0.53646,1.92583 1.00059,3.13143 1.15114,2.99017 1.4965,5.80919 1.32352,10.80343 -0.15321,4.42349 -0.47439,5.82204 -2.26212,9.85012 -1.37165,3.09056 -2.51182,4.29763 -3.12393,3.30722 z m -8.7724,-0.74591 c -0.36181,-0.5522 -0.40821,-0.94322 -0.18242,-1.5371 0.48839,-1.28457 0.76404,-7.4635 0.3771,-8.45308 -0.74919,-1.91599 -2.63829,-1.73538 -7.72002,0.73806 -1.38388,0.67359 -2.67784,1.2247 -2.87547,1.2247 -0.76031,0 -0.77039,-1.25289 -0.0171,-2.11953 1.97199,-2.26857 4.12212,-4.45648 4.37954,-4.45648 0.15753,0 1.08765,-0.37655 2.06693,-0.83678 2.56551,-1.20571 5.38072,-1.33929 7.26051,-0.34451 1.95493,1.03454 2.58804,2.334 2.33003,4.78244 -0.29016,2.75366 -2.83298,10.16863 -3.78537,11.03829 -0.97238,0.88793 -1.23171,0.88283 -1.83377,-0.036 z m -45.992814,-2.22273 c -0.393158,-0.42423 -0.966144,-1.65723 -1.273302,-2.74 -0.307157,-1.08278 -0.753784,-2.59268 -0.992502,-3.35533 -0.238719,-0.76266 -0.434034,-1.71087 -0.434034,-2.10714 0,-0.39628 -0.298764,-1.6306 -0.663919,-2.74294 l -0.66392,-2.02244 0.691907,-1.11953 c 0.888887,-1.43825 1.45319,-1.72081 3.891357,-1.94849 1.865939,-0.17424 2.155254,-0.10863 4.334535,0.98301 3.014677,1.5101 4.946197,3.18115 6.15715,5.32684 0.864066,1.53104 1.307562,3.60819 0.770392,3.60819 -0.311106,0 -3.303563,-1.88149 -4.244189,-2.6685 -0.89484,-0.74871 -4.490226,-1.5591 -5.388251,-1.21449 -0.712622,0.27346 -0.921545,1.40095 -0.67811,3.65954 0.115344,1.07015 0.258521,2.43893 0.318173,3.04173 0.05965,0.6028 0.206622,1.6123 0.326602,2.24333 0.182878,0.96183 0.115403,1.20231 -0.417345,1.48743 -0.864,0.4624 -0.919059,0.44871 -1.734544,-0.43121 z"
       id="path2324"
       inkscape:connector-curvature="0"
       sodipodi:nodetypes="cccccccccssscccccccccscscscccscscccccccccscscccscsccsscccsccsscccccccscsscccccscccscccccccccccccccccccsccccccccssccscccscscsscscccccscsccscsscscsccccccsscccsssscscsccccsccscccsscscssccscsccsscscccsscccccscsccsccccccsscsccssccccccc" />
    <circle
       id="path836"
       style="fill:#000000;stroke:#000000;stroke-width:0.264583"
       cx="98.223923"
       cy="152.18384"
       r="0.01368706" />
  </g>
</svg>
