<?xml version="1.0" encoding="UTF-8" standalone="no"?>
<svg
   xmlns:dc="http://purl.org/dc/elements/1.1/"
   xmlns:cc="http://creativecommons.org/ns#"
   xmlns:rdf="http://www.w3.org/1999/02/22-rdf-syntax-ns#"
   xmlns:svg="http://www.w3.org/2000/svg"
   xmlns="http://www.w3.org/2000/svg"
   xmlns:sodipodi="http://sodipodi.sourceforge.net/DTD/sodipodi-0.dtd"
   xmlns:inkscape="http://www.inkscape.org/namespaces/inkscape"
   width="210mm"
   height="297mm"
   viewBox="0 0 210 297"
   version="1.1"
   id="svg1181"
   inkscape:version="1.0.1 (3bc2e813f5, 2020-09-07)"
   sodipodi:docname="Katze Pfoten.svg">
  <defs
     id="defs1175" />
  <sodipodi:namedview
     id="base"
     pagecolor="#ffffff"
     bordercolor="#666666"
     borderopacity="1.0"
     inkscape:pageopacity="0.0"
     inkscape:pageshadow="2"
     inkscape:zoom="0.15690658"
     inkscape:cx="390.9258"
     inkscape:cy="1296.7742"
     inkscape:document-units="mm"
     inkscape:current-layer="layer1"
     showgrid="false"
     inkscape:window-width="1920"
     inkscape:window-height="998"
     inkscape:window-x="-11"
     inkscape:window-y="-11"
     inkscape:window-maximized="1"
     showborder="true"
     inkscape:document-rotation="0" />
  <metadata
     id="metadata1178">
    <rdf:RDF>
      <cc:Work
         rdf:about="">
        <dc:format>image/svg+xml</dc:format>
        <dc:type
           rdf:resource="http://purl.org/dc/dcmitype/StillImage" />
        <dc:title></dc:title>
      </cc:Work>
    </rdf:RDF>
  </metadata>
  <g
     inkscape:label="Ebene 1"
     inkscape:groupmode="layer"
     id="layer1">
    <path
       style="fill:#000000;stroke-width:0.313143"
       d="m 59.879914,217.26626 c -0.665404,-0.95 -0.610056,-2.38714 0.139267,-3.61614 1.266351,-2.077 3.061481,-2.02358 3.766307,0.11207 0.312266,0.94617 0.285993,1.31969 -0.162822,2.31499 -0.834169,1.84985 -2.834744,2.48544 -3.742752,1.18908 z m -4.401759,-1.87023 c -0.923875,-0.52389 -1.085908,-0.88682 -1.091197,-2.4441 -0.0042,-1.23362 0.129641,-1.5164 1.074475,-2.27029 1.306693,-1.04261 2.167333,-1.09307 2.817255,-0.16517 0.822317,1.17402 0.62229,2.8864 -0.484398,4.14685 -1.043803,1.18883 -1.344204,1.28386 -2.316135,0.73271 z m 9.725192,-0.94806 c -0.883521,-1.26141 -0.320258,-3.63165 1.104036,-4.64583 0.826732,-0.58869 1.057935,-0.62414 1.87185,-0.287 1.131746,0.46878 1.444839,1.49753 0.954179,3.13522 -0.657181,2.19347 -2.925941,3.2312 -3.930065,1.79761 z m -4.819266,-3.91245 c -0.5154,-0.0981 -0.952704,-0.61603 -1.484374,-1.75793 -0.414545,-0.89034 -0.755166,-1.90063 -0.756936,-2.24509 -0.0019,-0.34446 -0.289886,-1.38053 -0.640261,-2.30238 -0.350373,-0.92185 -0.554934,-1.9348 -0.454575,-2.251 0.267043,-0.84138 2.262187,-2.49234 3.011927,-2.49234 0.355091,0 1.282126,0.56027 2.060074,1.24505 1.461179,1.28618 2.954847,1.78684 4.313534,1.44583 0.432297,-0.10851 1.268806,0.007 1.869771,0.25804 1.196391,0.49988 1.63348,1.49297 1.278901,2.90572 -0.276627,1.10217 -2.100279,2.80631 -3.280518,3.06554 -0.511529,0.11235 -1.253725,0.45194 -1.649328,0.75463 -0.632439,0.48392 -3.273585,1.66952 -3.465617,1.5557 -0.03957,-0.0235 -0.400742,-0.10525 -0.802598,-0.18177 z m -7.706458,-1.09784 c -1.146731,-1.63719 -0.175238,-4.68784 1.600991,-5.02739 1.209114,-0.23114 1.631278,0.016 2.150638,1.259 0.673136,1.61105 0.581927,2.02428 -0.729442,3.3048 -1.35388,1.32203 -2.31739,1.46983 -3.022187,0.46359 z m 22.152472,-16.05816 c -0.369596,-0.25888 -0.83508,-0.96483 -1.034402,-1.56879 -0.350241,-1.06124 -0.317418,-1.1453 0.977667,-2.50417 2.045491,-2.14624 3.688556,-1.76399 3.710855,0.86331 0.0078,0.91629 -0.238164,1.44803 -1.12248,2.42686 -1.249488,1.38303 -1.544456,1.47424 -2.53164,0.78279 z m 5.408733,-2.52654 c -1.092437,-1.09244 -0.362388,-3.83901 1.251436,-4.70812 1.234914,-0.66504 1.91213,-0.43492 2.552429,0.86733 1.133024,2.30436 -2.088,5.55665 -3.803865,3.84079 z m -9.965297,-0.19303 c -0.935355,-0.33314 -1.362313,-1.35859 -1.017721,-2.4443 0.36261,-1.14248 2.045391,-2.82031 2.82864,-2.82031 1.022015,0 2.129542,1.47716 1.873047,2.49817 -0.109134,0.43441 -0.277977,1.18854 -0.375208,1.67584 -0.09723,0.48731 -0.335295,0.93351 -0.529024,0.99156 -1.130058,0.33863 -2.018214,0.37028 -2.779734,0.099 z m 4.707577,-5.29028 c -0.639688,-0.86523 -1.245464,-3.11765 -1.677441,-6.23719 -0.191907,-1.38585 0.367335,-2.46157 1.677529,-3.22676 0.874224,-0.51058 1.161698,-0.54321 1.941177,-0.22034 0.50324,0.20845 1.135188,0.71507 1.404325,1.12583 0.770573,1.17604 1.743618,1.65051 3.768621,1.8376 1.493382,0.13798 2.023412,0.33748 2.58343,0.97238 0.903866,1.02473 0.890708,1.91027 -0.04893,3.29308 -0.519777,0.76492 -1.175427,1.24208 -2.113716,1.53831 -0.748115,0.23618 -2.024868,0.7563 -2.83723,1.15581 -0.812359,0.39951 -2.041142,0.72638 -2.730627,0.72638 -1.037199,0 -1.376781,-0.1666 -1.967134,-0.9651 z m -6.638846,-0.69953 c -0.451521,-0.33052 -0.587751,-0.77931 -0.5476,-1.80399 0.07455,-1.90251 0.237056,-2.27002 1.274846,-2.88306 1.945098,-1.149 3.191132,-0.43708 3.256257,1.86044 0.05457,1.92522 -2.621171,3.82387 -3.983503,2.82661 z m 5.65987,-19.57547 c -1.150628,-1.27143 -0.197959,-3.97549 1.673744,-4.75077 1.250236,-0.51786 1.91772,-0.17217 2.310248,1.1965 0.372947,1.30039 -0.253474,2.7749 -1.502427,3.53651 -1.212377,0.73931 -1.824612,0.74369 -2.481565,0.0178 z m 24.068283,-1.72465 c -1.01575,-1.55023 0.19757,-3.65241 2.108055,-3.65241 1.72094,0 1.80691,2.74722 0.12288,3.92676 -0.937235,0.65647 -1.680965,0.56501 -2.230935,-0.27435 z m -18.41382,-0.25015 c -0.255681,-0.4073 -0.472395,-1.23059 -0.481586,-1.82953 -0.02142,-1.39503 1.472092,-2.79352 3.003662,-2.81258 0.865077,-0.0108 1.103,0.1555 1.543032,1.07826 0.426175,0.89369 0.45102,1.21929 0.137394,1.80057 -0.83461,1.54687 -1.500851,2.14085 -2.601668,2.31949 -0.962755,0.15623 -1.206841,0.0714 -1.600834,-0.55621 z m -10.008714,-0.60148 c -0.399474,-0.2382 -0.548001,-0.73102 -0.548001,-1.81833 0,-1.22294 0.155087,-1.63677 0.861144,-2.29783 1.883117,-1.76311 3.52286,-1.39529 3.52286,0.79023 0,2.23831 -2.306362,4.23799 -3.836003,3.32593 z m 32.887309,-1.10926 c -0.7238,-1.58858 1.4327,-4.07616 3.00922,-3.4712 0.37248,0.14294 0.50635,0.60617 0.50635,1.75209 0,1.25479 -0.13537,1.65261 -0.69596,2.04526 -1.10814,0.77617 -2.38463,0.62852 -2.81961,-0.32615 z m -8.589015,0.0171 c -0.53116,-1.38418 0.7566,-4.18968 1.92744,-4.19911 1.06007,-0.009 1.47088,0.47687 1.63487,1.93176 0.14026,1.24437 0.0632,1.47174 -0.70261,2.07416 -1.00576,0.79112 -2.5892,0.8981 -2.8597,0.19319 z m -17.846159,-2.86476 c -1.289812,-0.25229 -1.715636,-1.17062 -2.231633,-4.81274 l -0.496827,-3.50679 0.725966,-1.36845 c 0.662354,-1.24856 0.830271,-1.36846 1.916382,-1.36846 1.041474,0 1.353308,0.19318 2.492331,1.54399 1.497,1.77535 1.732255,1.90173 4.042089,2.17127 1.502746,0.17536 1.776586,0.32079 2.302695,1.22288 0.753466,1.29193 0.52091,2.33824 -0.817012,3.67588 -0.711662,0.71151 -1.416926,1.06165 -2.450448,1.21655 -0.798155,0.11964 -2.205311,0.49315 -3.127013,0.83005 -0.921699,0.33689 -1.677808,0.59334 -1.680238,0.56989 -0.0025,-0.0234 -0.306765,-0.10179 -0.676292,-0.17407 z m 22.374029,-1.27072 c -0.57003,-0.60997 -0.86682,-1.36349 -1.01754,-2.58343 -0.11703,-0.94726 -0.28797,-2.2372 -0.37987,-2.86655 -0.20811,-1.42532 0.67253,-2.45688 2.09746,-2.45688 1.059425,0 3.451045,1.0983 3.839085,1.76303 0.14509,0.24854 0.77071,0.42897 1.48743,0.42897 1.59429,0 2.48958,0.8497 2.48958,2.3628 0,1.15604 -1.10822,2.64749 -1.96721,2.64749 -0.23647,0 -1.29694,0.35228 -2.35658,0.78286 -2.45786,0.99872 -3.198815,0.98488 -4.192355,-0.0783 z m -5.34043,-0.41541 c -0.9007,-0.52641 -0.73473,-2.65116 0.28058,-3.59212 1.423,-1.31879 2.92914,-0.86836 2.92914,0.87599 0,1.12842 -0.81851,2.74011 -1.39158,2.74011 -0.23983,0 -0.62373,0.0667 -0.8531,0.14815 -0.22937,0.0815 -0.66364,0.004 -0.96504,-0.17213 z m -24.590344,-0.46349 c -1.40397,-0.98338 -0.653911,-4.19714 1.138629,-4.87866 0.947371,-0.36019 2.459213,0.17069 2.669887,0.93752 0.157955,0.57495 0.05073,2.49514 -0.148537,2.66001 -0.456515,0.37773 -2.653195,1.7686 -2.793242,1.7686 -0.09393,0 -0.48396,-0.21936 -0.866737,-0.48747 z m 29.063644,-15.46224 c -0.57816,-1.08032 -0.36629,-2.21863 0.59119,-3.1761 1.0989,-1.0989 1.76612,-1.14948 2.780565,-0.21077 0.73109,0.6765 0.77555,0.68139 1.11618,0.12264 1.0281,-1.68639 1.51539,-2.07979 2.57621,-2.07979 0.83675,0 1.15727,0.16963 1.42315,0.75316 0.28189,0.61868 0.21349,0.98386 -0.38309,2.04533 -0.78812,1.40227 -1.8841,1.9119 -2.8348,1.31818 -0.85442,-0.53359 -1.45583,-0.43668 -1.68037,0.27077 -0.22356,0.70437 -1.670005,1.56228 -2.634055,1.56228 -0.34695,0 -0.77669,-0.27257 -0.95498,-0.6057 z m -3.75771,-2.50515 c -0.52059,-0.97273 -0.38024,-1.78474 0.48653,-2.81484 0.86831,-1.03193 1.84288,-1.22535 2.7675,-0.54925 0.8092,0.5917 0.4176,2.80234 -0.61643,3.47986 -1.02891,0.67417 -2.24337,0.62087 -2.6376,-0.11577 z m 27.724505,-2.39152 c -0.77921,-0.77921 -0.59357,-1.87199 0.47004,-2.76696 0.75101,-0.63193 1.0899,-0.74118 1.54451,-0.49788 0.84626,0.4529 1.03831,1.40193 0.49595,2.45075 -0.6896,1.33353 -1.67237,1.65222 -2.5105,0.81409 z M 98.785725,135.2126 c -0.71551,-0.59485 -0.90161,-1.09968 -1.20955,-3.28121 -0.40329,-2.85699 -0.26499,-3.86966 0.65398,-4.78863 0.95206,-0.95206 2.105305,-0.78298 3.260325,0.478 0.67753,0.73969 1.55712,1.25857 2.70395,1.59508 3.0311,0.88942 4.09075,2.67442 2.53325,4.26733 -0.45842,0.46885 -1.04486,0.85816 -1.30321,0.86515 -0.25834,0.007 -1.56716,0.36318 -2.9085,0.79155 -1.34133,0.42837 -2.539095,0.77816 -2.661715,0.77731 -0.1226,-9.4e-4 -0.60345,-0.31792 -1.06853,-0.70458 z m 26.703825,-0.81489 c -0.41997,-0.78473 0.14074,-2.76148 0.89831,-3.16692 0.51978,-0.27817 2.52235,0.10673 2.52235,0.48481 0,0.0658 -0.22832,0.69022 -0.50737,1.38764 -0.72586,1.81409 -2.26839,2.49948 -2.91329,1.29447 z m -6.99135,-0.0797 c -0.36889,-0.20815 -0.548,-0.69146 -0.548,-1.47871 0,-0.9593 0.16377,-1.26624 0.91117,-1.70774 1.07936,-0.63759 1.8433,-0.42982 2.09412,0.56955 0.29137,1.1609 0.0316,1.79796 -0.97088,2.38065 -0.67833,0.39429 -1.09029,0.45976 -1.48641,0.23625 z m -25.329635,-0.28362 c -0.77817,-0.45445 -0.97645,-1.74905 -0.42978,-2.80618 0.54448,-1.05291 1.34565,-1.5723 2.42533,-1.5723 1.79066,0 2.02278,1.89814 0.43767,3.57885 -1.09151,1.15733 -1.55813,1.31068 -2.43322,0.79963 z m 28.705595,-3.11026 c -0.24244,-0.39228 -1.41882,-5.00278 -1.41882,-5.56069 0,-0.59155 1.53196,-1.97039 2.1892,-1.97039 0.29261,0 0.80013,0.29625 1.12782,0.65834 0.77964,0.8615 1.87106,1.39718 3.41556,1.6764 1.68152,0.30399 2.03543,0.66031 2.03543,2.04926 0,1.42205 -0.24749,1.64648 -2.92841,2.65558 -2.14294,0.8066 -4.09211,1.02331 -4.42078,0.4915 z m -4.7851,-0.84932 c -0.70082,-0.28279 -0.46015,-2.25751 0.37719,-3.09485 0.95248,-0.95248 1.55815,-0.97259 2.18848,-0.0727 0.66455,0.94879 0.61852,1.29225 -0.32322,2.41144 -0.76888,0.91377 -1.35876,1.11265 -2.24245,0.75607 z m 0.5979,-8.46738 c -0.54827,-1.02445 -0.0603,-2.2904 1.09518,-2.84142 1.01476,-0.48391 1.09226,-0.47708 1.721,0.15166 0.65268,0.65268 0.65329,0.66883 0.0704,1.86231 -0.4742,0.97101 -0.78082,1.22261 -1.58486,1.3005 -0.71082,0.0689 -1.0844,-0.0669 -1.30176,-0.47305 z m 4.2011,-1.31976 c -0.45244,-0.49994 -0.47999,-0.72232 -0.16487,-1.33086 0.96173,-1.8572 1.97149,-2.29217 2.91105,-1.25397 0.68698,0.75911 0.65353,1.36291 -0.13076,2.35998 -0.7657,0.97343 -1.85334,1.06693 -2.61542,0.22485 z M 114.6349,119.481 c -0.68042,-1.03844 -0.35701,-2.217 0.768,-2.79877 0.78345,-0.40513 0.96759,-0.40371 1.56118,0.0121 1.00701,0.70533 0.89277,2.11556 -0.23651,2.91968 -1.17224,0.83471 -1.47107,0.81572 -2.09267,-0.13297 z m 29.05675,-2.66804 c -0.44353,-0.78447 -0.6749,-0.91302 -1.3728,-0.76276 -1.13203,0.24373 -1.68427,-0.69835 -1.12671,-1.92208 0.3441,-0.7552 0.3107,-0.8954 -0.3117,-1.30866 -0.75758,-0.50302 -0.88732,-1.32474 -0.36365,-2.30322 0.24657,-0.46073 0.59324,-0.59811 1.33086,-0.52741 0.85803,0.0822 1.01256,-0.0138 1.10572,-0.68726 0.24093,-1.74175 1.6828,-2.09048 3.23682,-0.78286 0.5117,0.43057 1.27184,0.78286 1.6892,0.78286 0.82013,0 2.01141,0.9913 2.01141,1.67375 0,0.61281 -0.91077,1.3417 -2.6227,2.09897 -2.00015,0.88476 -2.88038,0.64447 -3.52307,-0.96177 -0.27403,-0.68488 -0.59776,-1.24523 -0.71939,-1.24523 -0.12162,0 -0.45007,0.48006 -0.72987,1.06681 -0.49854,1.04545 -0.49423,1.07046 0.21519,1.24851 0.47369,0.11889 0.78433,0.48375 0.89869,1.05555 0.16144,0.8072 0.28289,0.87182 1.59217,0.84721 1.12203,-0.0211 1.58269,-0.20499 2.21059,-0.8825 0.65865,-0.7107 0.89995,-0.79873 1.42264,-0.51899 1.43249,0.76664 0.20484,3.09568 -1.41718,2.68858 -0.6463,-0.16221 -0.9513,-0.0378 -1.44448,0.58917 -0.82348,1.04687 -1.43028,1.00354 -2.08174,-0.14867 z m -25.2232,-0.25547 c -0.2991,-0.3305 -0.51825,-1.09852 -0.51825,-1.81623 0,-1.90296 -0.61207,-2.25104 -1.29115,-0.73428 -0.72061,1.60955 -1.89456,2.20193 -2.77844,1.40203 -0.90167,-0.816 -0.78111,-1.8517 0.32377,-2.78139 0.71215,-0.59924 1.17431,-0.75589 1.83828,-0.6231 0.7931,0.15862 0.96622,0.0333 1.63603,-1.18449 0.60061,-1.09196 0.94075,-1.38065 1.71608,-1.45652 0.78353,-0.0767 1.15997,0.12516 1.98423,1.06393 0.77019,0.8772 1.37095,1.22396 2.47365,1.42777 3.61414,0.66802 2.78514,3.52094 -1.35685,4.66948 -2.71121,0.7518 -3.3718,0.75718 -4.02735,0.0328 z m 24.42882,-9.96983 c -0.38392,-0.38391 -0.21458,-1.28039 0.38074,-2.01557 0.53621,-0.66219 0.67005,-0.6913 1.48063,-0.32198 0.82109,0.37412 0.94181,0.34247 1.53597,-0.40269 1.18755,-1.48932 2.74156,-0.77214 1.97455,0.91127 -0.39787,0.8732 -1.21309,1.23468 -2.12895,0.944 -0.40068,-0.12717 -0.86351,0.0311 -1.31162,0.44861 -0.68974,0.64259 -1.53428,0.8334 -1.93132,0.43636 z m -2.35279,-1.74738 c -0.5161,-0.51609 -0.43002,-1.22429 0.24749,-2.03643 0.85659,-1.0268 1.89785,-0.94062 1.89174,0.15657 -0.006,1.02908 -0.24592,1.43505 -1.12152,1.89561 -0.48395,0.25455 -0.75155,0.25041 -1.01771,-0.0157 z m 2.5198,-2.49049 c -0.20668,-0.20667 -0.37578,-0.69987 -0.37578,-1.096 0,-0.89084 -0.23353,-0.90418 -1.12746,-0.0644 -0.94583,0.88857 -2.00397,0.5642 -2.00397,-0.61431 0,-1.124981 0.5263,-1.607246 1.75399,-1.607246 0.81371,0 1.12418,-0.206343 1.6491,-1.096001 0.77614,-1.31546 1.24223,-1.36267 2.55421,-0.258711 0.54729,0.46051 1.48332,0.918482 2.08007,1.017715 0.72638,0.120789 1.25424,0.459815 1.59701,1.025696 0.47649,0.786647 0.47452,0.886677 -0.0284,1.442367 -1.10129,1.21691 -5.27644,2.07325 -6.0988,1.25088 z m 23.94501,0.16701 c -0.11482,-0.11482 -0.20877,-0.53487 -0.20877,-0.93346 0,-0.84956 1.30692,-1.34124 2.01129,-0.75667 0.34457,0.28596 0.54037,0.21608 0.9223,-0.32921 0.60947,-0.87014 0.404,-1.216469 -0.72172,-1.216469 -0.95661,0 -1.45217,-0.427244 -1.63446,-1.409144 -0.14274,-0.768855 -0.85923,-0.815948 -1.31922,-0.08671 -0.26722,0.423638 -0.21417,0.631846 0.2469,0.968993 0.74301,0.543302 0.46672,1.94501 -0.42958,2.1794 -0.91527,0.23935 -1.49614,-0.58824 -0.98611,-1.404941 0.33598,-0.537981 0.3078,-0.814195 -0.17541,-1.718997 -0.56446,-1.05698 -0.56348,-1.087116 0.0506,-1.54389 0.34446,-0.256227 0.93832,-0.407681 1.31969,-0.336564 0.47304,0.08821 0.94651,-0.154769 1.48985,-0.764567 0.9845,-1.104932 1.17106,-1.107582 2.3039,-0.03273 0.49919,0.473629 1.34953,1.10119 1.88966,1.39458 1.21324,0.659013 1.30638,1.680792 0.19919,2.185258 -0.88541,0.403424 -0.9452,0.630985 -0.39659,1.509451 0.32734,0.52416 0.2816,0.72317 -0.29987,1.30464 -0.57987,0.57987 -0.80478,0.63207 -1.4522,0.33708 -0.63811,-0.29074 -0.85766,-0.24783 -1.31438,0.25684 -0.56068,0.61954 -1.12321,0.76896 -1.49505,0.39711 z m -1.28178,-9.990131 c -0.6765,-0.676497 -0.11207,-1.70054 0.93729,-1.70054 1.00729,0 1.30588,0.791736 0.59488,1.577378 -0.67237,0.742962 -0.89451,0.760819 -1.53217,0.123162 z m 2.76168,-0.57924 c -0.0938,-0.244429 0.052,-0.784107 0.32407,-1.199284 0.58061,-0.88613 0.39053,-1.174588 -0.77401,-1.174588 -0.4669,0 -0.99393,-0.176143 -1.17118,-0.391429 -0.30629,-0.372006 -0.48159,-1.764866 -0.41242,-3.276984 0.0643,-1.406247 2.28184,-1.699317 2.7076,-0.357842 0.11152,0.35137 0.68852,0.841815 1.28222,1.089878 1.39849,0.584327 1.6069,1.20324 0.78123,2.320016 -0.36765,0.497279 -0.66846,1.304411 -0.66846,1.793625 0,0.489214 -0.1691,1.058578 -0.37577,1.265252 -0.51302,0.513021 -1.4852,0.47361 -1.69328,-0.06864 z m -4.61133,-1.016918 c -0.40707,-0.40706 -0.19987,-1.267944 0.4458,-1.852264 0.64233,-0.581297 0.66282,-0.581085 1.096,0.01132 0.55979,0.765555 0.55368,0.953293 -0.0506,1.557626 -0.51687,0.516872 -1.13934,0.635141 -1.49115,0.28332 z m 0.14028,-2.893854 c -0.55,-0.348321 -0.21728,-1.857732 0.46742,-2.120476 0.26657,-0.10229 0.70686,0.03621 0.97842,0.307771 0.44958,0.449576 0.44676,0.565478 -0.0315,1.295393 -0.56922,0.868735 -0.75319,0.936025 -1.41434,0.517312 z"
       id="path2324"
       inkscape:connector-curvature="0"
       sodipodi:nodetypes="cscccccccscccccccccccscccsccccsccssccccscccsccsscccccccccccccccsccccsscccsccccsscscccscscscscccsccccccccscsscscccccccccscsssscccsssccsccsssccccsccccsccssccccccccssssccsccccscccsccccscscscssccsscccccccccsccccccssccccsccscccsccssccsccsccccccsscscscsccssccccccccccccccscssccscccccsccscccsccccccscccccccsscsccscccccsccccsccccscccs" />
  </g>
</svg>
