<?xml version="1.0" encoding="UTF-8" standalone="no"?>
<!-- Created with Inkscape (http://www.inkscape.org/) -->

<svg
   width="210mm"
   height="297mm"
   viewBox="0 0 210 297"
   version="1.1"
   id="svg4621"
   inkscape:version="1.1 (c68e22c387, 2021-05-23)"
   sodipodi:docname="Kitchen Pirate.svg"
   xmlns:inkscape="http://www.inkscape.org/namespaces/inkscape"
   xmlns:sodipodi="http://sodipodi.sourceforge.net/DTD/sodipodi-0.dtd"
   xmlns="http://www.w3.org/2000/svg"
   xmlns:svg="http://www.w3.org/2000/svg">
  <sodipodi:namedview
     id="namedview4623"
     pagecolor="#ffffff"
     bordercolor="#666666"
     borderopacity="1.0"
     inkscape:pageshadow="2"
     inkscape:pageopacity="0.0"
     inkscape:pagecheckerboard="0"
     inkscape:document-units="mm"
     showgrid="false"
     inkscape:snap-global="false"
     inkscape:zoom="0.49071406"
     inkscape:cx="417.75856"
     inkscape:cy="305.677"
     inkscape:window-width="1920"
     inkscape:window-height="1000"
     inkscape:window-x="-11"
     inkscape:window-y="-11"
     inkscape:window-maximized="1"
     inkscape:current-layer="layer1" />
  <defs
     id="defs4618" />
  <g
     inkscape:label="Ebene 1"
     inkscape:groupmode="layer"
     id="layer1">
    <path
       d="m 179.49708,136.7109 m -92.087679,76.62884 c 0.42959,-0.13885 0.94553,-0.25251 1.14653,-0.25259 0.69854,-2.6e-4 2.54324,-1.03103 3.39405,-1.89651 1.14026,-1.15991 1.26704,-1.33701 1.56822,-2.19066 0.14223,-0.40311 0.34332,-0.83501 0.44687,-0.95978 0.42211,-0.50861 0.0472,-3.00054 -0.91802,-6.1023 -0.31426,-1.00987 -0.35924,-1.53101 -0.30669,-3.55359 0.0527,-2.02933 0.1099,-2.42354 0.39759,-2.74124 0.18481,-0.20408 0.46263,-0.37178 0.61736,-0.37267 0.15474,-7.9e-4 0.67822,-0.19684 1.16329,-0.43545 0.48507,-0.23862 0.97576,-0.43633 1.09042,-0.43936 0.11466,-0.003 0.85718,-0.32922 1.65004,-0.72486 l 1.44157,-0.71934 0.907599,0.37708 c 0.49918,0.20739 1.14572,0.48938 1.43676,0.62665 0.29104,0.13727 1.12884,0.49069 1.86179,0.78538 l 1.33261,0.5358 0.17329,0.84594 c 0.0953,0.46526 0.16806,1.87321 0.16166,3.12876 -0.009,1.82779 -0.0883,2.52893 -0.39642,3.51754 -0.69945,2.24436 -1.06191,4.1865 -0.88881,4.7625 0.0875,0.29104 0.25717,0.88636 0.37712,1.32292 0.36969,1.34545 1.82401,3.04036 3.22927,3.7635 0.30736,0.15817 1.17077,0.48734 1.91869,0.73149 1.24529,0.4065 1.62353,0.4439 4.4895,0.4439 2.26269,0 3.68566,-0.0933 5.13685,-0.33698 1.10398,-0.18534 2.60254,-0.38864 3.33014,-0.45178 0.72761,-0.0631 1.71058,-0.22788 2.18439,-0.36609 0.47381,-0.1382 1.38662,-0.30321 2.02847,-0.36668 0.64185,-0.0635 1.54697,-0.26303 2.01138,-0.44346 0.46441,-0.18044 0.98928,-0.32807 1.16637,-0.32807 0.51933,0 1.65032,-1.01679 2.21078,-1.98753 0.48749,-0.84438 0.51941,-1.01761 0.52538,-2.85122 0.007,-2.08065 -0.22282,-2.86874 -1.17283,-4.02576 -0.57054,-0.69488 -2.81779,-1.24339 -4.67959,-1.14219 -2.41191,0.1311 -6.63125,0.63656 -7.78849,0.93303 -0.83926,0.21501 -2.00001,0.29172 -4.58168,0.30277 l -3.45765,0.0148 -1.19062,-0.57747 c -0.65485,-0.31761 -1.19063,-0.65695 -1.19063,-0.7541 0,-0.0971 -0.16875,-0.41362 -0.375,-0.70327 -0.30525,-0.42868 -0.39565,-0.88689 -0.48601,-2.46343 -0.061,-1.06523 -0.0471,-2.05097 0.031,-2.19052 0.0803,-0.14347 0.40379,-0.25373 0.74443,-0.25373 0.33133,0 0.94255,-0.11036 1.35825,-0.24523 0.4157,-0.13488 0.96891,-0.29384 1.22936,-0.35325 1.10546,-0.25215 3.17665,-1.97757 3.7834,-3.15179 0.16235,-0.31419 0.42189,-0.66795 0.57676,-0.78614 0.41746,-0.31858 1.19926,-0.27056 1.4622,0.0898 0.3255,0.44613 1.28987,1.09521 1.6272,1.09521 1.01407,0 2.10927,-1.58166 2.50385,-3.61597 0.35115,-1.81047 0.71524,-2.85669 1.23814,-3.55787 0.27705,-0.37151 0.58356,-0.73378 0.68112,-0.80506 0.32798,-0.2396 1.40594,-0.13004 2.18103,0.22166 0.92718,0.42072 1.40524,0.43898 1.92687,0.0736 0.64687,-0.45308 0.88872,-1.15329 1.09816,-3.17927 0.23985,-2.32028 0.6543,-3.91478 1.07624,-4.1406 0.4635,-0.24805 1.11435,-0.20194 2.05119,0.14531 1.09067,0.40428 1.50157,0.32653 2.14456,-0.40579 1.29493,-1.47485 1.40079,-4.67056 0.2728,-8.23514 -0.28649,-0.90534 -0.43109,-1.77669 -0.43109,-2.59767 0,-1.11285 0.0424,-1.26316 0.42768,-1.5156 0.29443,-0.19292 0.74779,-0.26566 1.4552,-0.23348 1.32179,0.0601 1.74942,-0.1873 2.27514,-1.31644 0.339,-0.72808 0.42499,-1.20319 0.42636,-2.35574 8e-4,-0.79405 -0.0834,-1.66717 -0.18739,-1.94028 -0.10401,-0.2731 -0.31115,-1.09186 -0.46031,-1.81946 -0.14916,-0.72761 -0.33153,-1.4023 -0.40526,-1.49931 -0.0737,-0.097 -0.23475,-0.49389 -0.35782,-0.88194 -0.12306,-0.38806 -0.53458,-1.28576 -0.91449,-1.9949 -0.75582,-1.41085 -1.06251,-2.87879 -0.65418,-3.13116 0.13053,-0.0807 0.51734,-0.12693 0.85959,-0.10281 1.16786,0.0823 1.32024,-0.20032 1.3859,-2.57054 0.049,-1.76974 10e-4,-2.25829 -0.30868,-3.13936 -0.20171,-0.5739 -0.36674,-1.17911 -0.36674,-1.34492 0,-0.59808 -2.26595,-5.68075 -2.66267,-5.97256 -0.0659,-0.0485 -0.24813,-0.36601 -0.40485,-0.70556 -0.15671,-0.33955 -0.52153,-0.97455 -0.81071,-1.41111 -0.28918,-0.43656 -0.57994,-0.91281 -0.64613,-1.05833 -0.0662,-0.14552 -0.33502,-0.58209 -0.59739,-0.97014 -1.07329,-1.58742 -2.21935,-3.31871 -2.55117,-3.85394 -0.19403,-0.31297 -0.63059,-0.93923 -0.97014,-1.39169 -0.33955,-0.45246 -0.85549,-1.15786 -1.14653,-1.56755 -1.29227,-1.81911 -5.93414,-6.72875 -7.84969,-8.30252 -1.0229,-0.84039 -1.97283,-1.57227 -2.47365,-1.90583 -0.2185,-0.14552 -0.6045,-0.4282 -0.85779,-0.62818 -0.25329,-0.19998 -0.85741,-0.58997 -1.34248,-0.86667 -1.04004,-0.59326 -1.14097,-0.71711 -0.99341,-1.21895 0.31195,-1.06099 0.9366,-1.45429 2.38894,-1.50416 0.57352,-0.0197 1.24821,-0.13913 1.49931,-0.26542 0.2511,-0.12628 0.67277,-0.28143 0.93705,-0.34477 0.46436,-0.11129 1.20802,-0.54606 2.36849,-1.38468 1.34358,-0.97094 2.59077,-3.6732 2.58701,-5.60521 -0.002,-0.99468 -0.58827,-3.31226 -1.0445,-4.128536 -0.78105,-1.39746 -3.51492,-3.807465 -4.32156,-3.809624 -0.13548,-2.65e-4 -0.52414,-0.17857 -0.86369,-0.396018 -0.56186,-0.359809 -0.83144,-0.395197 -2.99861,-0.393626 -2.24295,0.0016 -2.44272,0.03064 -3.43958,0.499473 -2.35159,1.105969 -3.68494,2.551358 -4.41407,4.784981 -0.44413,1.36056 -0.60974,3.66832 -0.27796,3.87337 0.0873,0.0539 0.25783,0.51145 0.37904,1.0167 0.2544,1.06045 1.05089,2.27297 2.4348,3.70659 0.95042,0.98456 0.96931,1.02383 0.80618,1.6757 -0.16147,0.64525 -0.19015,0.66564 -0.86006,0.61157 -0.38116,-0.0308 -0.85434,-0.14228 -1.0515,-0.2478 -1.49863,-0.80204 -9.966099,-1.35793 -11.697589,-0.76795 -0.44865,0.15286 -1.07693,0.27794 -1.3962,0.27794 -0.31927,0 -1.18838,0.19843 -1.93137,0.44097 -0.74299,0.24253 -1.46376,0.44097 -1.6017,0.44097 -0.13797,0 -0.47602,0.11645 -0.75125,0.25878 l -0.50043,0.25878 -0.28457,-1.13288 c -0.37478,-1.49198 -0.36758,-1.56842 0.21109,-2.24485 1.21871,-1.42459 2.14699,-3.81743 2.14894,-5.53941 0.003,-2.61308 -1.70747,-5.502788 -3.87932,-6.553878 -0.24254,-0.117379 -0.56004,-0.286744 -0.70556,-0.376369 -1.24193,-0.76489 -4.36916,-1.147003 -5.32135,-0.650209 -0.25885,0.135057 -0.81448,0.301959 -1.23471,0.370893 -0.42024,0.06894 -0.88314,0.225632 -1.02866,0.348211 -0.14551,0.122581 -0.5788,0.368969 -0.96285,0.547531 -1.20821,0.561747 -2.81245,2.307362 -3.55159,3.864591 -0.64095,1.35033 -0.65922,1.44434 -0.66611,3.42869 -0.007,1.96377 0.0153,2.08659 0.58923,3.275 0.41018,0.84935 0.9497,1.57879 1.72864,2.33714 0.62278,0.60633 1.22706,1.10243 1.34285,1.10243 0.11579,0 0.52496,0.16116 0.90928,0.35813 0.91727,0.47014 2.878,0.74066 4.33265,0.59777 1.24474,-0.12227 1.92234,0.0774 1.92234,0.56649 0,0.15139 0.13429,0.50257 0.29839,0.78039 0.28402,0.4808 0.2819,0.52339 -0.0441,0.88384 -0.18837,0.20828 -0.65091,0.54884 -1.02787,0.75679 -0.96266,0.53108 -1.23086,0.69884 -1.52596,0.95452 -0.14196,0.12299 -1.01217,0.82588 -1.9338,1.56197 -2.81967,2.25202 -7.48336,7.17513 -9.1696,9.67967 -0.3919,0.58209 -1.0056,1.45521 -1.36379,1.94028 -2.04936,2.77529 -5.08356,7.69289 -6.20349,10.05417 -1.21191,2.55521 -1.48732,3.2602 -1.99833,5.11528 -0.28917,1.04981 -0.28323,5.36866 0.008,5.87987 0.20666,0.36262 0.34362,0.40476 1.14652,0.35278 l 0.91185,-0.059 0.0551,0.76768 c 0.0366,0.5103 -0.0366,0.86898 -0.21828,1.06978 -0.15037,0.16616 -0.36591,0.57477 -0.47898,0.90802 -0.11306,0.33326 -0.35218,0.8166 -0.53137,1.07411 -0.17919,0.25751 -0.32849,0.53532 -0.33178,0.61736 -0.003,0.082 -0.15935,0.46666 -0.34679,0.85471 -0.18745,0.38806 -0.34351,0.82737 -0.3468,0.97626 -0.003,0.14888 -0.15713,0.7045 -0.34188,1.23472 -0.40945,1.17513 -0.6296,3.62939 -0.4581,5.10704 0.099,0.85333 0.2421,1.22318 0.65502,1.69347 0.50957,0.58037 0.57347,0.60171 1.8022,0.60171 1.14177,0 1.31825,0.0472 1.70152,0.4556 0.35309,0.37621 0.4266,0.634 0.42178,1.47924 -0.003,0.563 -0.1006,1.1378 -0.21641,1.27734 -0.1158,0.13954 -0.32658,0.80526 -0.46839,1.47939 -0.1418,0.67412 -0.34957,1.46195 -0.46171,1.75073 -0.32426,0.83509 -0.25875,4.08372 0.10131,5.02332 0.42131,1.09945 1.2087,1.75276 2.11976,1.7588 0.39376,0.003 0.87001,-0.11179 1.05833,-0.25423 0.57378,-0.43398 1.36339,-0.33233 1.91838,0.24696 0.58572,0.61136 0.78694,1.48771 0.79758,3.47375 0.006,1.12229 0.1006,1.64335 0.43593,2.40159 0.23553,0.53258 0.55952,1.01871 0.71998,1.08028 0.51528,0.19773 1.92481,0.10732 2.37955,-0.15263 0.62042,-0.35466 1.36876,-0.32351 1.87951,0.0782 0.68085,0.53556 1.4647,1.80813 1.47288,2.39119 0.008,0.56803 0.12089,1.06743 0.6779,2.99776 0.64521,2.23597 2.10618,3.03191 3.28022,1.78707 0.30865,-0.32727 0.74047,-0.65193 0.95959,-0.72148 0.47663,-0.15128 1.2549,0.0156 1.2549,0.26907 0,0.26008 1.30488,1.98861 1.97159,2.61171 0.31196,0.29155 0.88894,0.66273 1.28218,0.82485 0.39324,0.16211 0.91342,0.39639 1.15595,0.52061 0.24254,0.12422 0.92239,0.2805 1.5108,0.34729 1.63551,0.18565 1.58756,0.0921 1.27066,2.48063 -0.31393,2.36621 -0.44706,2.57516 -2.0759,3.25806 -0.96872,0.40614 -0.98174,0.40668 -8.86599,0.37243 l -7.89585,-0.0343 -1.42336,0.47212 c -2.20839,0.7325 -2.97841,1.57013 -3.33714,3.6301 -0.16868,0.96862 -0.1568,1.40973 0.0671,2.4924 0.47715,2.30725 1.6223,3.45682 3.72816,3.74253 0.48506,0.0658 1.27881,0.22781 1.76388,0.35999 0.48507,0.13218 2.19164,0.32615 3.79237,0.43105 1.60072,0.1049 3.06916,0.23934 3.26319,0.29876 0.5377,0.16468 4.04646,0.32471 5.73264,0.26147 0.82462,-0.0309 1.85079,-0.16984 2.28038,-0.30869 z m 8.56753,-47.70346 c -1.92689,-0.34674 -4.28991,-1.06663 -4.89703,-1.49187 -0.21171,-0.14829 -0.50618,-0.27148 -0.65437,-0.27377 -0.23012,-0.004 -1.84269,-1.00144 -3.34612,-2.07067 -0.41192,-0.29296 -3.22237,-3.06807 -3.995,-3.94477 -0.74424,-0.84449 -0.66537,-1.83625 0.0895,-1.12582 1.83986,1.73145 4.51015,3.60908 5.14118,3.61504 0.3254,0.003 0.96706,-0.673 1.62978,-1.7172 1.12625,-1.77451 1.41868,-2.16076 1.63589,-2.16076 0.40175,0 0.48503,0.36696 0.53573,2.36063 0.0669,2.63044 0.18921,3.27203 0.65881,3.45567 0.20867,0.0816 1.13344,0.33045 2.05508,0.55301 1.37931,0.33308 2.14367,0.40292 4.32153,0.39487 1.938249,-0.007 2.811709,-0.0804 3.266129,-0.27398 0.34115,-0.1453 0.98951,-0.31955 1.44077,-0.38723 0.45127,-0.0677 0.90177,-0.22096 1.00109,-0.34064 0.10129,-0.12205 0.20444,-1.46728 0.23491,-3.06353 0.0299,-1.56526 0.1086,-2.90018 0.17495,-2.96649 0.22093,-0.22081 1.47895,1.21721 1.90355,2.17592 0.1986,0.44842 1.04459,1.62626 1.3262,1.84643 0.30801,0.2408 1.31559,-0.0132 1.90394,-0.47992 0.31158,-0.24717 0.75585,-0.58901 0.98727,-0.75964 0.77019,-0.56789 3.45636,-2.94026 3.69028,-3.25919 0.26448,-0.36059 0.74121,-0.42128 0.73644,-0.0938 -0.003,0.22185 -0.79051,1.4834 -1.36402,2.18573 -0.16966,0.20776 -0.5069,0.63867 -0.74943,0.95757 -1.70107,2.23669 -6.09404,5.40354 -8.20209,5.9128 -0.29104,0.0703 -0.68791,0.22639 -0.88194,0.34684 -0.48906,0.30362 -4.59236,0.96399 -5.847209,0.94103 -0.56757,-0.0104 -1.8257,-0.16172 -2.79584,-0.3363 z m -13.92009,-9.49892 c -0.076,-0.12295 -0.0905,-0.27117 -0.0323,-0.32939 0.15786,-0.15787 0.32998,0.0743 0.24472,0.3301 -0.0598,0.17924 -0.1013,0.1791 -0.21243,-7.9e-4 z m 33.940229,-1.0716 c 0,-0.0913 0.0794,-0.21504 0.17639,-0.27499 0.097,-0.06 0.17639,0.0147 0.17639,0.16597 0,0.15125 -0.0794,0.275 -0.17639,0.275 -0.097,0 -0.17639,-0.0747 -0.17639,-0.16598 z m -10.58608,-11.45097 c -0.62601,-0.33416 -2.02591,-2.15295 -2.6664,-3.4643 -0.18954,-0.38806 -0.5514,-1.10243 -0.80414,-1.5875 -0.45608,-0.87534 -1.13825,-2.6075 -1.49354,-3.79236 -0.24917,-0.83094 -0.38255,-0.96694 -1.183759,-1.20699 -0.3777,-0.11316 -0.78524,-0.32444 -0.90564,-0.46952 -0.1204,-0.14507 -0.33844,-0.26377 -0.48452,-0.26377 -0.14609,0 -0.69879,-0.25797 -1.22822,-0.57326 -0.52944,-0.3153 -1.09585,-0.65264 -1.25869,-0.74966 -1.78502,-1.06344 -4.03531,-2.54091 -5.22998,-3.43384 -0.38805,-0.29004 -0.87644,-0.60353 -1.08529,-0.69664 -0.20886,-0.0931 -0.43064,-0.25163 -0.49284,-0.35228 -0.0622,-0.10065 -0.56455,-0.48258 -1.11632,-0.84873 -1.51456,-1.00506 -4.22407,-3.69554 -3.97376,-3.94585 0.15048,-0.15048 0.25974,-0.10708 0.43435,0.17252 0.12832,0.20547 0.32355,0.37357 0.43386,0.37357 0.11031,0 0.30833,0.12986 0.44005,0.28858 0.13172,0.15871 0.51847,0.47615 0.85945,0.70541 0.34097,0.22927 1.05651,0.73783 1.59008,1.13015 1.40231,1.03106 1.86568,1.35289 3.90339,2.71107 3.12481,2.08274 3.62399,2.39674 3.81029,2.39674 0.0993,0 0.26316,0.0994 0.36403,0.22099 0.10088,0.12154 0.72575,0.4931 1.38862,0.82569 0.66286,0.33258 1.32426,0.69819 1.46979,0.81246 0.40708,0.31967 1.02738,0.42001 1.20682,0.19522 0.0888,-0.11126 0.1984,-0.86977 0.24353,-1.68559 0.0806,-1.45685 0.0943,-1.49473 0.771059,-2.12395 0.40931,-0.38058 1.08672,-0.76525 1.66875,-0.94761 0.94599,-0.29638 1.0309,-0.29474 2.46456,0.0477 0.81665,0.19505 1.80451,0.51052 2.19525,0.70106 1.35692,0.66165 3.1272,1.04769 5.20836,1.13576 1.5665,0.0663 2.22933,0.17395 2.91041,0.47272 0.93569,0.41044 1.85209,1.15437 1.85209,1.5035 0,0.11549 0.11906,0.3088 0.26458,0.42957 0.19025,0.15789 0.26458,0.57555 0.26458,1.48663 0,1.03432 -0.0729,1.36752 -0.39687,1.81402 -0.21828,0.30083 -0.51594,0.72417 -0.66146,0.94075 -0.14552,0.21658 -0.45157,0.62246 -0.68012,0.90195 -0.34642,0.42365 -0.37789,0.55353 -0.18923,0.78085 0.35861,0.4321 1.14901,0.7771 2.24076,0.97806 0.55541,0.10224 1.09817,0.25861 1.20613,0.34749 0.10796,0.0889 0.66358,0.24464 1.23472,0.34611 0.57114,0.10147 1.49516,0.33891 2.05337,0.52765 0.55822,0.18873 1.21146,0.34315 1.45164,0.34315 0.24019,0 0.76718,0.13224 1.17111,0.29385 0.40392,0.16162 1.25269,0.3799 1.88615,0.48507 0.699,0.11606 1.18391,0.28903 1.23358,0.44004 0.0686,0.20846 -0.23318,0.23079 -1.86053,0.13768 -1.06831,-0.0611 -2.30144,-0.23304 -2.74029,-0.38203 -0.43885,-0.14899 -1.18299,-0.31732 -1.65364,-0.37405 -0.47065,-0.0567 -1.2414,-0.22432 -1.71277,-0.3724 -0.47137,-0.14809 -1.30481,-0.37117 -1.85209,-0.49574 -0.54727,-0.12456 -1.34158,-0.35622 -1.76514,-0.51479 -0.42356,-0.15857 -1.10108,-0.33368 -1.50561,-0.38913 -0.73151,-0.10026 -0.7441,-0.0923 -2.3167,1.46921 -3.21509,3.19237 -5.27609,4.15565 -6.96381,3.25479 z m 22.75692,-1.78861 c -0.18369,-0.11871 0.13988,-0.17098 1.05833,-0.17098 0.7276,0 1.44198,0.0769 1.5875,0.17098 0.18369,0.11871 -0.13988,0.17099 -1.05833,0.17099 -0.72761,0 -1.44198,-0.0769 -1.5875,-0.17099 z m -39.757049,-2.09547 c -0.67715,-0.14509 -1.18581,-0.86231 -1.28298,-1.80903 -0.098,-0.95504 0.42625,-1.68943 1.35253,-1.8946 1.90036,-0.42093 3.14811,1.33828 2.07257,2.92213 -0.49366,0.72697 -1.19775,0.98384 -2.14212,0.7815 z m -5.63197,-17.90716 c -0.0571,-0.14893 -0.0335,-0.31432 0.0526,-0.36751 0.23064,-0.14254 0.4262,0.26343 0.2242,0.46542 -0.11291,0.11291 -0.20892,0.079 -0.27679,-0.0979 z m -0.72205,-0.78758 c -0.076,-0.12295 -0.0905,-0.27117 -0.0323,-0.32939 0.15786,-0.15786 0.32998,0.0743 0.24472,0.3301 -0.0598,0.17924 -0.1013,0.1791 -0.21243,-7.9e-4 z m 59.630579,91.63293 c 0.37922,-0.32619 0.48229,-0.56345 0.46774,-1.07667 -0.0236,-0.83257 -0.19123,-0.99359 -1.14656,-1.10127 -0.59522,-0.0671 -0.83091,-0.0159 -1.02958,0.22344 -0.32544,0.39214 -0.33519,1.69607 -0.0156,2.0812 0.34767,0.41891 1.15897,0.35929 1.72396,-0.1267 z m -6.19136,-0.19095 c 0.56062,-0.56062 0.54569,-0.82017 -0.0861,-1.49649 -0.44823,-0.47983 -0.56575,-0.52647 -0.8614,-0.34183 -0.18829,0.11759 -0.47118,0.4319 -0.62864,0.69846 -0.27473,0.46507 -0.2678,0.50663 0.17152,1.02873 0.55308,0.6573 0.83605,0.67969 1.40461,0.11113 z m 10.59627,-0.19163 c 0.23651,-0.36096 0.25477,-0.53359 0.0938,-0.8869 -0.26846,-0.5892 -0.64449,-0.70316 -1.17443,-0.35593 -0.50569,0.33134 -0.58187,0.9944 -0.16243,1.41384 0.40736,0.40736 0.90936,0.3383 1.24308,-0.17101 z m 9.15495,0.17857 c 1.80164,-0.28991 2.45263,-0.48205 2.63543,-0.77783 0.0637,-0.103 0.2979,-0.18727 0.52054,-0.18727 0.22264,0 0.61894,-0.19844 0.88063,-0.44097 0.2617,-0.24253 0.55253,-0.44097 0.64629,-0.44097 0.24814,0 2.19036,-1.92316 2.67205,-2.64584 0.61744,-0.92633 1.30174,-2.41282 1.73251,-3.76347 0.31893,-1.00001 0.37311,-1.51548 0.31742,-3.01995 -0.0369,-0.99777 -0.1544,-1.92358 -0.26103,-2.05736 -0.10663,-0.13378 -0.24989,-0.55361 -0.31836,-0.93294 -0.3158,-1.74968 -2.58622,-4.89974 -4.15486,-5.76459 -0.33953,-0.18721 -0.73641,-0.41389 -0.88193,-0.50374 -0.70886,-0.43765 -1.64317,-0.78234 -3.14105,-1.1588 -1.28548,-0.32308 -1.75436,-0.37335 -2.16076,-0.23168 -0.50068,0.17454 -0.51903,0.22039 -0.51903,1.29667 0,0.9285 -0.0729,1.20244 -0.43472,1.63238 -0.2391,0.28415 -0.49046,0.86521 -0.55859,1.29124 -0.15509,0.9699 -0.80341,1.64785 -1.74395,1.82365 -0.8866,0.16572 -1.09302,0.33944 -1.23332,1.03794 -0.20796,1.03528 -0.27858,1.15944 -0.86595,1.52245 -0.37142,0.22955 -0.88617,0.36154 -1.41002,0.36154 -0.64079,0 -0.92173,0.0967 -1.258,0.43295 -0.23812,0.23813 -0.43295,0.54333 -0.43295,0.67822 0,0.5011 -0.67839,0.88733 -1.50372,0.85611 -0.69142,-0.0262 -0.82174,0.0275 -0.99609,0.41018 -0.34877,0.76544 0.0567,2.81927 0.89219,4.51907 1.53406,3.12112 4.30754,5.30288 7.60484,5.98235 1.9323,0.39819 1.99166,0.39939 3.97243,0.0807 z m -3.62682,-3.36519 c -0.13997,-0.36815 -0.12626,-0.54069 0.0576,-0.72451 0.18383,-0.18382 0.35637,-0.19753 0.72452,-0.0576 0.38967,0.14815 0.47242,0.27762 0.42742,0.66871 -0.0438,0.38088 -0.15991,0.49696 -0.54079,0.54079 -0.39108,0.045 -0.52055,-0.0378 -0.6687,-0.42743 z m 5.8721,-3.42624 c -0.5435,-0.21845 -0.51839,-0.83898 0.0426,-1.05225 0.45291,-0.1722 0.97167,-0.0744 0.97167,0.18319 0,0.29678 -0.3485,1.05058 -0.48071,1.03977 -0.0752,-0.006 -0.31525,-0.083 -0.53353,-0.17071 z m -9.34861,-1.52243 c -0.32082,-0.12945 -0.27499,-1.05925 0.0585,-1.18723 0.49298,-0.18917 0.75285,-0.11557 0.86751,0.24571 0.24501,0.77194 -0.20711,1.23161 -0.92604,0.94152 z m 11.10369,-3.26985 c -0.5517,-0.55168 0.0407,-1.29559 0.80257,-1.0079 0.65389,0.24692 0.4077,1.21957 -0.30868,1.21957 -0.15523,0 -0.37748,-0.0952 -0.49389,-0.21167 z m -3.88057,-2.82222 c -0.51451,-0.51451 0.0532,-1.52972 0.67058,-1.19928 0.5007,0.26796 0.63543,0.89679 0.25219,1.17702 -0.39634,0.28981 -0.64912,0.29591 -0.92277,0.0223 z m -15.28449,10.50466 c 0.2379,-0.2567 0.43255,-0.57111 0.43255,-0.69869 0,-0.28743 -0.69323,-0.95125 -0.9934,-0.95125 -0.27209,0 -0.77049,0.6846 -0.77049,1.05833 0,0.34277 0.4895,1.05834 0.72398,1.05834 0.0961,0 0.36946,-0.21003 0.60736,-0.46673 z m 7.65383,-14.2504 0.40362,-0.42963 -0.38488,-0.54051 c -0.46967,-0.65958 -0.58769,-0.66807 -1.05361,-0.0758 -0.46679,0.59343 -0.46093,0.85956 0.0265,1.20093 0.50779,0.35567 0.53216,0.35192 1.00843,-0.15504 z m -6.24043,-0.45894 c 0.6354,-0.3927 0.88425,-1.07127 0.70019,-1.90929 -0.12358,-0.56267 -0.69821,-0.90631 -1.51555,-0.90631 -0.96158,0 -1.56091,1.55692 -0.94037,2.44286 0.23088,0.32963 0.7376,0.65969 1.10684,0.72096 0.037,0.006 0.32905,-0.15055 0.64889,-0.34822 z m 4.4872,-3.52115 c 0.13414,-0.25065 0.13414,-0.45491 0,-0.70556 -0.24195,-0.4521 -0.56501,-0.44766 -0.98235,0.0135 -0.32597,0.36019 -0.32422,0.37186 0.10495,0.70164 0.55222,0.42432 0.64573,0.4233 0.8774,-0.01 z m -7.8619,-0.80635 c 0.32723,-0.32724 0.36743,-1.32591 0.0655,-1.62782 -0.32586,-0.32586 -1.10907,-0.25112 -1.46265,0.13958 -0.48035,0.53078 -0.17227,1.46022 0.53421,1.61164 0.28751,0.0616 0.53692,0.12143 0.55424,0.13291 0.0173,0.0115 0.15623,-0.10386 0.30868,-0.25631 z m 4.41633,-3.67095 c 0.4733,-0.37869 0.5033,-0.46223 0.31468,-0.8762 -0.27581,-0.60534 -1.06896,-0.8166 -1.39447,-0.37144 -0.2838,0.38812 -0.30328,0.86204 -0.0546,1.32681 0.23946,0.44742 0.49881,0.42932 1.13433,-0.0792 z m 9.1716,-0.92115 c 0.18167,-0.18167 0.24089,-0.41877 0.16521,-0.66146 -0.24256,-0.7779 -0.87817,-0.81986 -1.29053,-0.0852 -0.2185,0.38929 -0.22326,0.51382 -0.0286,0.7484 0.29904,0.36032 0.79256,0.35957 1.15388,-0.002 z m -5.55037,-1.74442 c 0.17636,-0.21251 0.16264,-0.34948 -0.0707,-0.70556 -0.36707,-0.56021 -0.59763,-0.56061 -0.73802,-0.001 -0.21151,0.84273 0.31441,1.3024 0.80868,0.70684 z m -11.11879,-2.10909 c 0.26453,-0.31873 0.075,-0.9786 -0.28104,-0.9786 -0.41974,0 -0.94666,0.3422 -0.94666,0.6148 0,0.25653 0.46288,0.60503 0.81625,0.61456 0.10939,0.003 0.29454,-0.10989 0.41145,-0.25076 z m 6.07474,-2.27202 0.37048,-0.49967 -0.41642,-0.33817 c -0.87239,-0.70849 -1.67791,-0.11414 -1.24893,0.92152 0.27046,0.65295 0.77277,0.62049 1.29487,-0.0837 z m 7.76735,-5.53358 c -0.2036,-0.57894 -0.99687,-0.93078 -1.45306,-0.64448 -0.16465,0.10334 -0.37679,0.40523 -0.47141,0.67088 -0.15391,0.4321 -0.10743,0.53618 0.44097,0.98753 l 0.61302,0.50452 0.52085,-0.5158 c 0.45221,-0.44783 0.49828,-0.57996 0.34963,-1.00265 z m -11.36562,-3.15016 c 0,-0.49432 -0.23599,-0.66701 -0.70714,-0.51748 -0.4416,0.14016 -0.47102,0.88505 -0.0444,1.12381 0.39825,0.22287 0.75152,-0.0622 0.75152,-0.60633 z M 156.4613,99.512758 c 0.42912,-0.16832 1.11652,-2.223575 1.42233,-4.252675 0.25678,-1.703692 0.22108,-1.902211 -0.36872,-2.050243 -0.47911,-0.120248 -0.94913,0.18556 -0.94691,0.616082 8e-4,0.157896 -0.11767,0.803021 -0.2633,1.433611 -0.14563,0.630589 -0.30874,1.373494 -0.36246,1.650894 -0.0973,0.502102 -0.10221,0.503843 -1.10372,0.386958 -2.15909,-0.251983 -2.5317,-0.616651 -2.02357,-1.980483 0.13826,-0.371102 0.31834,-0.952545 0.40018,-1.292092 0.0818,-0.339548 0.27058,-0.934861 0.41943,-1.322917 0.14885,-0.388054 0.27412,-0.865481 0.27838,-1.060945 0.004,-0.195463 0.15623,-0.632441 0.33772,-0.97106 0.18149,-0.338617 0.38683,-0.952183 0.45632,-1.363478 0.0695,-0.411292 0.19084,-0.787667 0.26966,-0.836382 0.0788,-0.04872 0.23859,-0.485693 0.35502,-0.971063 0.18264,-0.761309 0.27105,-0.882489 0.64385,-0.882489 0.23767,0 0.64752,0.111382 0.91077,0.24751 0.26325,0.136134 0.83781,0.301374 1.2768,0.367207 0.64587,0.09685 0.87886,0.05436 1.22102,-0.22271 l 0.42285,-0.3424 -0.74273,-0.538033 c -0.47087,-0.341087 -1.06499,-0.58235 -1.62309,-0.659109 -0.58687,-0.08072 -0.93819,-0.229166 -1.05387,-0.445314 -0.27098,-0.506336 -0.20488,-1.385068 0.15701,-2.087301 0.18179,-0.352756 0.46498,-1.276377 0.62931,-2.052487 0.41725,-1.970591 0.65247,-3.111469 0.73213,-3.550952 0.0906,-0.499928 0.67981,-0.593797 1.84902,-0.294579 1.02289,0.261778 1.21552,0.433276 1.12788,1.004154 -0.20534,1.337376 -0.42505,2.204795 -0.67505,2.664987 -0.37878,0.697244 -0.37936,1.652339 -0.001,1.797495 0.4732,0.181586 0.82077,-0.167008 1.54245,-1.546984 0.63663,-1.217331 0.68596,-1.418295 0.70556,-2.874236 0.0165,-1.226563 -0.0362,-1.596006 -0.24351,-1.706835 -0.33949,-0.181486 -1.82452,-0.672089 -2.73403,-0.903229 -0.38805,-0.09862 -0.99169,-0.326319 -1.34141,-0.505995 -0.96833,-0.497512 -2.31784,-0.629944 -2.68435,-0.263427 -0.40303,0.403027 -0.38616,0.460468 0.33508,1.140764 0.46503,0.438621 0.60384,0.692251 0.52808,0.964854 -0.0565,0.203398 -0.18229,0.911968 -0.27945,1.574599 -0.0972,0.66263 -0.25998,1.360447 -0.36181,1.550709 -0.10182,0.19026 -0.30258,1.03717 -0.44612,1.882022 -0.14354,0.844854 -0.37712,1.835359 -0.51905,2.201124 -0.14193,0.365766 -0.25855,0.842016 -0.25915,1.058334 -5.3e-4,0.216318 -0.1244,0.629806 -0.27513,0.918863 -0.15072,0.289058 -0.35794,0.924058 -0.46049,1.41111 -0.10254,0.487056 -0.26724,0.985949 -0.36599,1.10865 -0.0987,0.122703 -0.28313,0.63864 -0.40974,1.146527 -0.23209,0.931089 -0.55878,1.948706 -1.14583,3.569266 -0.17572,0.485068 -0.40584,1.216382 -0.51137,1.625139 -0.23284,0.901888 -0.75213,1.327939 -1.34419,1.102839 -0.3324,-0.126381 -0.46737,-0.08137 -0.68416,0.228137 -0.14854,0.212066 -0.27007,0.486476 -0.27007,0.609804 0,0.421733 1.36598,1.233339 2.27981,1.354563 0.48438,0.06426 0.92503,0.188561 0.97921,0.276236 0.0542,0.08768 0.52401,0.24774 1.04405,0.355698 0.52004,0.10796 1.24981,0.351427 1.62172,0.541036 0.71624,0.365157 1.01231,0.401008 1.55472,0.188246 z m -10.47383,-3.993814 c 0.1859,-0.223983 0.15215,-0.346538 -0.19888,-0.722316 -0.23252,-0.248906 -0.65052,-0.571015 -0.92888,-0.715793 -0.49699,-0.25849 -0.50391,-0.282644 -0.38426,-1.340257 0.067,-0.592363 0.2436,-1.399024 0.39239,-1.792579 0.1488,-0.393552 0.36946,-1.231487 0.49036,-1.862079 0.1209,-0.630589 0.36247,-1.583089 0.53681,-2.116667 0.83712,-2.561992 0.95348,-2.957809 1.0612,-3.609874 0.0635,-0.384704 0.21816,-0.900642 0.34356,-1.146527 0.12541,-0.245888 0.31229,-0.845569 0.4153,-1.332622 0.10302,-0.487055 0.31062,-1.122056 0.46134,-1.411113 0.15073,-0.289058 0.27802,-0.763683 0.28287,-1.054725 0.005,-0.291041 0.12884,-0.846666 0.27552,-1.234723 0.14667,-0.388054 0.36147,-1.062741 0.47732,-1.499304 0.19651,-0.740465 0.25387,-0.797356 0.85452,-0.847447 1.68772,-0.140748 2.34285,0.553818 1.74748,1.852663 -0.99048,2.160818 -1.24583,3.204276 -0.91275,3.729821 0.26684,0.421045 1.19093,-0.210174 1.44011,-0.983705 0.11774,-0.365488 0.27415,-0.743903 0.34758,-0.840915 0.0734,-0.09701 0.35141,-0.724815 0.61772,-1.395113 0.83567,-2.103335 0.59885,-3.136051 -0.77733,-3.389784 -0.35048,-0.06462 -0.91388,-0.264612 -1.25199,-0.444423 -0.33811,-0.179811 -0.7183,-0.32693 -0.84487,-0.32693 -0.12657,0 -0.52462,-0.148018 -0.88456,-0.32893 -0.35994,-0.180911 -0.94868,-0.382307 -1.30833,-0.447545 -0.35964,-0.06524 -0.99464,-0.264904 -1.41111,-0.443696 -1.04957,-0.450585 -2.08195,-0.577493 -2.58585,-0.317868 -0.51744,0.266602 -0.97377,1.428557 -1.42875,3.63804 -0.37627,1.827249 -0.28107,2.374508 0.39598,2.276326 0.28003,-0.04061 0.4357,-0.2604 0.60096,-0.84855 0.12267,-0.436563 0.33683,-0.992188 0.47591,-1.234721 0.13907,-0.242535 0.30974,-0.744362 0.37926,-1.115168 0.15048,-0.802637 0.74284,-1.140415 1.37273,-0.782757 0.21193,0.120338 0.66314,0.303327 1.00269,0.406641 0.61491,0.1871 0.61719,0.191648 0.57515,1.148244 -0.0232,0.528222 -0.16704,1.396963 -0.31962,1.93054 -0.15259,0.533575 -0.39216,1.518344 -0.53238,2.188375 -0.14023,0.670028 -0.32517,1.305028 -0.41099,1.411111 -0.0858,0.106082 -0.2783,0.7485 -0.42774,1.427596 -0.14943,0.679098 -0.48169,1.909411 -0.73834,2.734029 -0.25666,0.824619 -0.60565,2.015244 -0.77552,2.645834 -0.16988,0.630589 -0.35796,1.265589 -0.41796,1.41111 -0.06,0.145521 -0.36069,1.058333 -0.66821,2.028473 -0.86065,2.715149 -0.76382,2.557637 -1.57228,2.557637 -0.70839,0 -1.41489,0.45547 -1.41489,0.912154 0,0.376031 0.57662,0.85162 1.04157,0.859073 0.25175,0.004 0.85461,0.155882 1.33968,0.337442 1.11834,0.418589 2.95321,0.469701 3.26748,0.09102 z m -9.24904,-2.640267 c 0.15768,-0.62825 -0.0256,-0.971635 -0.64295,-1.204661 -0.41999,-0.158528 -0.516,-0.281107 -0.4369,-0.557789 0.0558,-0.195035 0.22267,-0.989611 0.3709,-1.765724 0.14822,-0.77611 0.3847,-1.661231 0.52549,-1.966933 0.1408,-0.305703 0.25599,-0.74344 0.25599,-0.972752 0,-0.229309 0.14817,-0.693562 0.32926,-1.031676 0.1811,-0.338111 0.38852,-0.892561 0.46095,-1.232109 0.0724,-0.339548 0.28144,-0.950349 0.46449,-1.357339 0.18304,-0.406985 0.33628,-0.922922 0.34054,-1.146527 0.004,-0.223602 0.12933,-0.724051 0.27794,-1.112107 0.14861,-0.388054 0.37724,-1.142117 0.50807,-1.675695 0.13083,-0.533577 0.35946,-1.287639 0.50807,-1.675696 0.14861,-0.388054 0.27417,-0.903991 0.27903,-1.146527 0.005,-0.242533 0.14063,-0.679098 0.30173,-0.970137 0.20331,-0.367316 0.31691,-1.111022 0.37141,-2.431505 0.0758,-1.837002 0.0623,-1.925754 -0.39407,-2.58427 -0.49067,-0.708038 -0.8527,-0.886767 -1.8045,-0.890847 -0.41398,-0.0019 -0.77334,0.18999 -1.36488,0.728332 -0.82021,0.746466 -2.74748,3.751789 -2.74748,4.284345 0,0.162187 -0.15073,0.588425 -0.33496,0.947193 -0.48572,0.94589 -1.08386,2.485596 -1.27856,3.291197 -0.0929,0.384235 -0.2363,0.78111 -0.31875,0.881943 -0.0824,0.100833 -0.24322,0.532241 -0.35726,0.958684 -0.11405,0.426442 -0.35632,0.982067 -0.53839,1.234723 -0.18206,0.252654 -0.49854,1.09437 -0.70329,1.870483 -0.20474,0.77611 -0.49274,1.768298 -0.64,2.20486 -0.14725,0.436563 -0.33365,1.157486 -0.41421,1.602052 -0.23364,1.289249 -0.72251,2.153028 -1.39943,2.472656 -0.67048,0.316587 -0.99857,0.910849 -0.65864,1.192974 0.23841,0.197861 2.85735,1.082318 3.20482,1.082318 0.52463,0 0.64724,-0.482502 0.29914,-1.177184 -0.51794,-1.033611 -0.58206,-1.514279 -0.27916,-2.09282 0.15042,-0.287295 0.34575,-0.958919 0.43407,-1.492496 0.20453,-1.235546 0.92452,-3.00573 1.31036,-3.221657 0.18905,-0.105796 0.56301,-0.09794 1.02966,0.02164 0.40304,0.103283 0.98269,0.235069 1.28812,0.29286 0.64565,0.122166 0.88208,0.675121 0.52485,1.227497 -0.12689,0.196204 -0.28231,0.740309 -0.34538,1.209125 -0.0631,0.468815 -0.2264,1.064127 -0.36295,1.322916 -0.13655,0.258789 -0.35546,0.97939 -0.48645,1.601341 -0.22291,1.058325 -0.27775,1.144066 -0.85554,1.337545 -0.47652,0.15957 -0.63033,0.316484 -0.6742,0.687837 -0.0774,0.654852 0.20597,0.938874 1.08123,1.083853 0.40673,0.06737 0.93794,0.229145 1.18047,0.359505 0.24254,0.130358 0.69743,0.240192 1.01088,0.244076 0.46346,0.0057 0.59055,-0.07523 0.68048,-0.433515 z M 134.20488,82.25809 c -0.55803,-0.107111 -1.0431,-0.874765 -0.79936,-1.265052 0.10207,-0.163444 0.24492,-0.572376 0.31745,-0.908738 0.0725,-0.336365 0.24832,-0.839357 0.39066,-1.117757 0.14233,-0.278402 0.36448,-0.873715 0.49367,-1.322916 0.39874,-1.386499 0.80651,-2.548716 1.15976,-3.305498 0.18609,-0.398682 0.33835,-0.772189 0.33835,-0.830014 0,-0.144582 0.74533,-1.230442 1.28392,-1.870522 0.24416,-0.290163 0.65088,-0.579514 0.90383,-0.643001 0.40724,-0.102211 0.49177,-0.03919 0.73807,0.550312 0.23923,0.572553 0.24755,0.828328 0.0594,1.827337 -0.12032,0.638876 -0.32666,1.420312 -0.45853,1.736519 -0.13186,0.316206 -0.35241,1.070268 -0.49011,1.675693 -0.1377,0.605425 -0.37653,1.497648 -0.53075,1.982716 -0.78064,2.455437 -1.04157,3.193972 -1.19966,3.395489 -0.16622,0.211886 -1.33634,0.26249 -2.20669,0.09543 z m -8.64466,8.231312 c 0.87062,-0.241797 1.19657,-0.599588 1.19657,-1.313458 0,-1.124934 -0.40141,-1.499489 -0.84528,-0.788736 -0.12352,0.197792 -0.30137,0.312174 -0.39521,0.254175 -0.2771,-0.171262 -0.19606,-1.17098 0.18216,-2.247101 0.19403,-0.55204 0.35278,-1.168387 0.35278,-1.369658 0,-0.201269 0.1269,-0.611336 0.28199,-0.911259 0.1551,-0.299924 0.39005,-1.188951 0.52212,-1.975615 0.13207,-0.786667 0.27834,-1.608405 0.32503,-1.826091 0.11241,-0.524008 -0.3772,-1.970001 -0.83966,-2.479821 -0.31418,-0.346363 -0.33016,-0.430371 -0.10847,-0.570563 0.14298,-0.09042 0.33934,-0.167759 0.43635,-0.171868 0.3182,-0.01349 1.42367,-1.160601 1.88331,-1.954253 0.24772,-0.427738 0.50759,-1.092462 0.57749,-1.477166 0.0699,-0.384704 0.24334,-0.924269 0.38542,-1.199036 0.33922,-0.655968 0.63717,-3.333033 0.48448,-4.353015 -0.16041,-1.07157 -0.99848,-1.864966 -2.15282,-2.038069 -0.45125,-0.06767 -1.01994,-0.22511 -1.26375,-0.349867 -0.56891,-0.291102 -2.16726,-0.509016 -2.6379,-0.35964 -0.65903,0.209166 -0.42649,1.193083 0.38061,1.61045 0.48323,0.249888 0.51729,0.329189 0.43287,1.007713 -0.13894,1.116677 -0.62888,3.14035 -0.90428,3.735091 -0.13477,0.291042 -0.29903,0.7458 -0.36503,1.010576 -0.066,0.264777 -0.303,0.93168 -0.52668,1.482014 -0.31157,0.766617 -0.53418,1.054213 -0.95193,1.229865 -0.62346,0.262144 -0.71273,0.766593 -0.28194,1.593146 0.28137,0.539869 0.21277,1.394251 -0.17513,2.180926 -0.11959,0.242536 -0.27153,0.758473 -0.33765,1.146528 -0.11074,0.649928 -0.43482,1.765731 -1.1015,3.792363 -0.14361,0.436562 -0.35963,1.150937 -0.48004,1.5875 l -0.21894,0.79375 -0.91733,0.05339 c -0.75967,0.04421 -0.96851,0.131509 -1.21516,0.507934 -0.28933,0.441568 -0.28415,0.46632 0.18122,0.866614 0.26348,0.226636 0.81513,0.497125 1.2259,0.601085 0.41076,0.103963 1.11894,0.30512 1.57373,0.447016 1.10354,0.344308 1.30934,0.327412 1.63255,-0.134035 0.36883,-0.526582 0.35844,-0.570053 -0.27855,-1.165373 l -0.55313,-0.516946 0.21628,-1.211786 c 0.11896,-0.666483 0.32461,-1.529284 0.457,-1.91734 0.13239,-0.388057 0.33226,-1.181807 0.44416,-1.76389 0.11189,-0.582081 0.264,-1.137706 0.338,-1.23472 0.074,-0.09701 0.27028,-0.796184 0.43618,-1.553714 0.24795,-1.132242 0.37754,-1.411912 0.72827,-1.571715 0.69895,-0.31846 1.19052,0.0354 1.55744,1.121132 0.3124,0.92442 0.31118,0.995784 -0.0536,3.133758 -0.20531,1.203288 -0.45004,2.280264 -0.54383,2.393281 -0.0938,0.113016 -0.25755,0.636635 -0.36389,1.163592 -0.10634,0.52696 -0.30704,1.257372 -0.44599,1.623139 -0.13895,0.365763 -0.25264,1.101149 -0.25264,1.634186 0,0.904124 0.0385,0.992622 0.57327,1.318689 0.67084,0.409022 0.57435,0.397565 1.40516,0.166825 z m -0.97889,-14.573854 c -0.22609,-0.226092 -0.11477,-1.390433 0.23329,-2.440043 0.54437,-1.64157 1.20366,-3.990602 1.31638,-4.690195 0.0561,-0.348286 0.28811,-0.808063 0.51555,-1.02173 0.36443,-0.342366 0.47042,-0.362559 0.89281,-0.170104 0.79927,0.36417 0.95647,1.041887 0.66696,2.87528 -0.13757,0.871197 -0.40093,1.966582 -0.58524,2.434191 -0.18432,0.467609 -0.33512,0.999746 -0.33512,1.182523 0,0.531225 -1.52809,1.947672 -2.10119,1.947672 -0.26722,0 -0.53876,-0.05292 -0.60344,-0.117594 z m -8.89369,11.348403 c 0.2845,-0.434972 0.0481,-0.899366 -0.544,-1.068448 -0.79946,-0.228311 -1.20491,-0.8553 -0.93548,-1.446636 0.11078,-0.243125 0.20141,-0.737142 0.20141,-1.097817 0,-0.360672 0.14763,-0.932405 0.32807,-1.270518 0.18043,-0.338111 0.38443,-1.069904 0.45331,-1.626206 0.0689,-0.5563 0.19369,-1.053747 0.27732,-1.105438 0.0836,-0.05169 0.2499,-0.549034 0.36947,-1.10521 0.11956,-0.556178 0.31691,-1.213038 0.43854,-1.459693 0.12164,-0.246658 0.31398,-0.961033 0.42742,-1.5875 0.11344,-0.62647 0.27641,-1.223825 0.36216,-1.327454 0.0858,-0.103632 0.24456,-0.61957 0.35291,-1.14653 0.10836,-0.52696 0.34874,-1.280826 0.53419,-1.675257 0.18544,-0.39443 0.33717,-0.848714 0.33717,-1.009517 0,-0.160803 0.15112,-0.631836 0.33582,-1.04674 0.18471,-0.414906 0.55685,-1.349684 0.827,-2.077288 0.62657,-1.687619 0.69017,-1.763887 1.4709,-1.763887 0.35763,0 0.79034,-0.102447 0.96158,-0.227659 0.26607,-0.194558 0.28017,-0.296076 0.0969,-0.698235 -0.17609,-0.386469 -0.39123,-0.5032 -1.20367,-0.653092 -0.54409,-0.10038 -1.30676,-0.266068 -1.69481,-0.368189 -0.38806,-0.102122 -0.98337,-0.258961 -1.32292,-0.348528 -0.91604,-0.241641 -1.23472,-0.08124 -1.23472,0.621483 0,0.652663 0.14063,0.793922 0.95474,0.958974 0.47127,0.09554 0.5517,0.194752 0.59761,0.737108 0.0292,0.344686 -0.0766,0.976868 -0.23505,1.40485 -0.15845,0.427982 -0.39582,1.175023 -0.52748,1.660091 -0.13166,0.485069 -0.36117,1.239131 -0.51002,1.675694 -0.50346,1.476568 -0.83066,2.55383 -1.07151,3.527779 -0.13195,0.533575 -0.3615,1.287638 -0.51011,1.675694 -0.14861,0.388056 -0.27368,0.944856 -0.27794,1.237335 -0.004,0.292475 -0.15721,0.810651 -0.33989,1.151495 -0.18268,0.340847 -0.42615,1.072505 -0.54103,1.625913 -0.11489,0.553402 -0.27602,1.047676 -0.35806,1.098384 -0.082,0.05071 -0.20581,0.427389 -0.27502,0.83707 -0.0692,0.409683 -0.22841,0.905359 -0.35377,1.101508 -0.12536,0.196146 -0.32197,0.713817 -0.43692,1.150379 -0.11495,0.436563 -0.30001,0.852067 -0.41124,0.92334 -0.11122,0.07127 -0.70354,0.130808 -1.31625,0.132292 -1.76332,0.0043 -2.23319,0.463881 -1.36344,1.333635 0.33649,0.336489 0.61712,0.432956 1.2595,0.432956 0.4546,0 1.15274,0.153379 1.55142,0.340844 1.74575,0.82087 2.98696,1.001134 3.32586,0.483018 z m -9.20812,-3.036652 c 0.51153,-0.544494 0.34772,-0.929042 -0.52022,-1.221274 -0.31755,-0.106918 -0.65889,-0.340085 -0.75854,-0.518144 -0.25625,-0.457896 -0.0136,-2.602173 0.39676,-3.506114 0.1857,-0.409072 0.33973,-0.942199 0.34228,-1.184735 0.003,-0.242536 0.19874,-0.996598 0.43598,-1.675694 l 0.43133,-1.234723 1.02311,-0.09682 c 1.07748,-0.101965 2.21948,-0.615002 2.8352,-1.273688 0.57468,-0.614794 1.38214,-2.272609 1.51668,-3.113929 0.0672,-0.420068 0.23864,-0.930105 0.38105,-1.133422 0.14241,-0.203316 0.25892,-0.626877 0.25892,-0.94125 0,-0.31437 0.15875,-0.974333 0.35278,-1.466585 0.74277,-1.884431 0.23411,-4.239358 -1.08321,-5.014881 -0.6116,-0.360059 -2.82833,-0.85825 -3.8388,-0.862743 -0.41437,-0.0019 -0.70139,0.121941 -0.92604,0.399378 -0.45462,0.561427 -0.41384,0.69686 0.29956,0.994939 0.71682,0.299503 0.99258,0.845288 0.75016,1.484697 -0.0919,0.242533 -0.24666,0.877533 -0.34379,1.41111 -0.0971,0.533574 -0.2922,1.149942 -0.43349,1.369705 -0.14129,0.219763 -0.3299,0.735701 -0.41914,1.14653 -0.4041,1.860407 -1.39945,4.298982 -1.87122,4.584467 -0.31395,0.189982 -0.46747,1.052851 -0.27681,1.555808 0.0992,0.261705 0.097,0.837991 -0.006,1.48585 -0.18705,1.180867 -1.67335,6.047016 -1.95483,6.400134 -0.11172,0.140145 -0.48624,0.207407 -0.98217,0.176387 -0.70052,-0.04381 -0.82959,0.0049 -1.02349,0.386051 -0.32681,0.642411 0.0247,0.92406 1.74271,1.39646 0.80218,0.22057 1.73632,0.5059 2.07587,0.634069 0.90438,0.341373 1.12752,0.315968 1.59495,-0.181584 z m 0.95495,-11.381679 c -0.1813,-0.293347 0.0928,-1.759204 0.46551,-2.489851 0.18479,-0.362215 0.33598,-0.921885 0.33598,-1.243711 0,-0.321829 0.12755,-0.767236 0.28343,-0.989793 0.15589,-0.22256 0.38895,-0.81569 0.51792,-1.318067 0.36852,-1.435563 0.87975,-2.734437 1.2275,-3.118689 0.37438,-0.413692 1.01369,-0.459931 1.31638,-0.09521 0.29394,0.354185 0.295,3.010789 10e-4,3.36464 -0.12346,0.14876 -0.33089,0.88242 -0.46096,1.630355 -0.47786,2.747547 -1.62212,4.449239 -2.99187,4.449239 -0.3182,0 -0.63108,-0.08501 -0.6953,-0.188913 z M 76.392331,70.726222 c 0.13268,-0.137131 0.26755,-0.447767 0.29972,-0.6903 0.0465,-0.350391 -0.0272,-0.453099 -0.35872,-0.500004 -0.22947,-0.03247 -0.50332,0.02706 -0.60854,0.132291 -0.10523,0.105228 -0.36417,0.191323 -0.57542,0.191323 -0.79846,0 -0.86483,-0.328769 -0.92233,-4.568703 -0.0612,-4.51444 -0.0489,-4.564137 1.17659,-4.728504 0.59941,-0.0804 0.79262,-0.19431 0.9264,-0.54619 0.21856,-0.574855 0.0304,-0.751565 -0.8952,-0.840719 -1.04608,-0.100761 -1.11712,-0.182211 -1.02204,-1.171784 0.0751,-0.781672 0.0412,-0.893448 -0.32129,-1.058603 -0.71754,-0.326935 -0.95693,-0.0761 -0.95693,1.002718 0,0.736301 -0.0855,1.061124 -0.34829,1.323964 -0.5862,0.586206 -0.6253,1.138584 -0.10473,1.47968 l 0.45302,0.29683 0.008,4.00878 c 0.008,4.176299 0.11756,4.945848 0.81305,5.714362 0.27034,0.298715 0.4829,0.346228 1.26045,0.281749 0.5144,-0.04266 1.04383,-0.189759 1.17651,-0.32689 z m 17.14668,-0.710186 c 0.58002,-0.798084 0.76473,-1.789015 0.37801,-2.028016 -0.12116,-0.07488 -0.32343,0.03703 -0.48506,0.268383 -0.15249,0.218258 -0.48302,0.641699 -0.73453,0.94098 l -0.45729,0.544148 -0.45642,-0.337873 c -0.57364,-0.424643 -0.65209,-0.714703 -0.65507,-2.422041 -0.003,-1.8937 0.0844,-2.0134 1.58269,-2.161043 0.69172,-0.06816 1.31931,-0.227396 1.43217,-0.363381 0.13027,-0.156967 0.17454,-0.784614 0.12594,-1.785483 -0.063,-1.297329 -0.15478,-1.679226 -0.5756,-2.395093 -0.52994,-0.901467 -0.98526,-1.176806 -1.94605,-1.176806 -0.95914,0 -1.43332,0.725107 -1.57786,2.41286 -0.065,0.758724 -0.20314,1.995387 -0.30701,2.748143 -0.13245,0.959829 -0.13359,1.592077 -0.004,2.116666 0.10177,0.411412 0.24185,1.343338 0.31129,2.070942 0.1527,1.600221 0.65396,2.415056 1.54227,2.507078 0.85476,0.08855 1.21322,-0.09585 1.82634,-0.939464 z m -2.29518,-6.447709 c -0.15975,-0.159755 -0.14471,-2.743448 0.0174,-2.989535 0.0713,-0.108193 0.29942,-0.249668 0.507,-0.314391 0.30393,-0.09476 0.48695,0.02943 0.93977,0.637686 0.4933,0.662622 0.55279,0.860536 0.48451,1.612011 -0.0428,0.471154 -0.18789,0.926346 -0.3224,1.011536 -0.28756,0.182108 -1.45619,0.212789 -1.62628,0.04269 z m -29.49172,7.143513 c 0.44592,-0.203177 0.44756,-0.211103 0.11938,-0.573265 -0.50965,-0.562388 -0.66704,-3.240918 -0.25738,-4.380135 0.21294,-0.592151 0.42493,-0.879602 0.6995,-0.948515 0.61055,-0.153236 0.71234,0.01212 0.80504,1.307623 0.0507,0.707999 0.21063,1.395561 0.38749,1.6655 0.34644,0.528724 0.24846,1.795457 -0.17533,2.266762 -0.58717,0.652999 -0.21398,0.868055 1.50632,0.868055 0.88815,0 1.25994,-0.07379 1.43506,-0.2848 0.25046,-0.301784 0.22761,-0.329528 -0.95745,-1.162658 -0.29351,-0.206344 -0.46389,-0.539851 -0.54205,-1.06104 -0.0627,-0.418063 -0.27014,-0.997019 -0.461,-1.286571 -0.23569,-0.357563 -0.34939,-0.837692 -0.35443,-1.496597 -0.004,-0.533578 -0.12084,-1.168578 -0.25949,-1.411111 -0.359,-0.628004 -0.32216,-1.368618 0.0951,-1.912456 0.98839,-1.288182 1.72298,-2.021837 2.24202,-2.239198 1.21891,-0.510447 0.39401,-1.140013 -1.49371,-1.140013 -0.83971,0 -1.25918,0.08213 -1.491,0.291923 -0.44268,0.400614 -0.40772,0.525828 0.2066,0.739979 0.29419,0.102555 0.52915,0.311314 0.52915,0.470125 0,0.157109 -0.35718,0.724141 -0.79375,1.260065 -0.43656,0.535929 -0.79375,1.046511 -0.79375,1.134634 0,0.08812 -0.11755,0.160218 -0.26121,0.160218 -0.44152,0 -0.50239,-0.794721 -0.37869,-4.944388 0.13866,-4.650782 0.16841,-4.554942 -1.33392,-4.296203 -0.49999,0.08611 -0.94323,0.260336 -0.985,0.38717 -0.0418,0.126833 0.24239,0.533418 0.63146,0.903525 l 0.70739,0.67292 -0.16321,1.918695 c -0.0898,1.055286 -0.1557,2.871198 -0.14654,4.035364 0.0212,2.687485 -0.1455,7.181827 -0.2873,7.746815 -0.0669,0.266502 -0.30501,0.500579 -0.6214,0.610878 -0.28212,0.09835 -0.51297,0.26488 -0.51297,0.370065 0,0.483928 2.05314,0.714777 2.90503,0.326634 z m 10.16358,-0.07764 c 0.20003,-0.241019 0.18495,-0.320585 -0.10031,-0.529166 -0.18465,-0.135025 -0.43779,-0.245497 -0.56254,-0.245497 -0.12474,0 -0.36754,-0.215056 -0.53955,-0.477895 -0.27953,-0.42716 -0.31274,-0.974919 -0.31274,-5.159375 0,-2.574817 -0.0642,-4.780699 -0.1427,-4.901968 -0.16431,-0.253862 -1.84208,-0.298598 -2.22016,-0.0592 -0.32646,0.206719 -0.11599,0.720654 0.29514,0.720654 0.17854,0 0.46371,0.101727 0.63376,0.22606 0.28118,0.205613 0.30775,0.628115 0.29373,4.671743 -0.008,2.445125 -0.0615,4.565901 -0.11792,4.712832 -0.0564,0.146929 -0.28679,0.267145 -0.512,0.267145 -0.57581,0 -1.04044,0.488971 -0.77198,0.812437 0.31482,0.379325 3.73756,0.347459 4.05727,-0.03778 z m 8.60372,-0.201401 c 0.54997,-0.557471 1.16488,-2.042686 1.01136,-2.442752 -0.0667,-0.173908 -0.27607,-0.250798 -0.58506,-0.214895 -0.40785,0.04739 -0.51705,0.183553 -0.71681,0.89376 -0.2607,0.926854 -0.35313,0.980136 -0.91338,0.526479 -0.42461,-0.343829 -1.06387,-2.371421 -1.06848,-3.388982 -0.002,-0.513702 0.34326,-2.980936 0.63379,-4.524756 0.0828,-0.440164 0.74305,-0.668314 1.09315,-0.377756 0.17845,0.148105 0.21565,0.463007 0.13977,1.183243 -0.0785,0.74486 -0.0365,1.066458 0.17407,1.334201 0.27405,0.348422 0.28278,0.346665 0.70725,-0.142126 0.49114,-0.565561 0.51693,-0.8753 0.18893,-2.2689 -0.24453,-1.038956 -0.94485,-1.893576 -1.561,-1.904926 -0.53664,-0.0099 -1.53152,1.032811 -1.73535,1.818769 -0.1046,0.403313 -0.32345,1.130168 -0.48634,1.615239 -0.41654,1.240396 -0.42338,5.099043 -0.0102,5.73264 0.15817,0.242533 0.33695,0.639408 0.3973,0.881944 0.11626,0.467328 0.95761,1.477806 1.36522,1.639655 0.52066,0.206742 0.90636,0.104841 1.36576,-0.360837 z m 4.43452,0.218917 c 0.18169,-0.218924 0.13858,-0.384932 -0.24298,-0.935522 -0.46057,-0.664602 -0.46388,-0.692909 -0.46388,-3.973044 0,-3.151855 0.0198,-3.342672 0.43003,-4.1523 0.23652,-0.466746 0.64766,-0.991216 0.91364,-1.165492 0.48214,-0.315915 0.48509,-0.315193 0.98108,0.239911 l 0.49748,0.556776 v 3.234539 c 0,1.778995 -0.0494,3.70668 -0.10967,4.283745 -0.0981,0.938114 -0.16782,1.082587 -0.65892,1.36444 l -0.54926,0.31523 0.43844,0.242686 c 0.54314,0.300641 2.32122,0.330311 2.60802,0.04352 0.29829,-0.298294 0.26852,-0.424857 -0.20786,-0.883624 -0.41411,-0.398793 -0.42085,-0.461568 -0.52188,-4.85581 -0.1018,-4.427615 -0.16041,-4.843045 -0.7843,-5.558275 -0.36378,-0.417057 -1.39331,-0.395269 -2.11502,0.04476 -0.31764,0.193667 -0.65847,0.352118 -0.7574,0.352118 -0.11596,0 -0.16944,-1.002688 -0.15052,-2.822209 0.0211,-2.02982 -0.0323,-2.896497 -0.19023,-3.086804 -0.26988,-0.325186 -1.17564,-0.333706 -1.74822,-0.01646 l -0.42529,0.235648 0.51348,0.32729 c 0.28242,0.180009 0.5718,0.408498 0.64308,0.507754 0.17043,0.237331 0.16872,14.406446 -0.002,14.674463 -0.0722,0.113575 -0.3431,0.259646 -0.60189,0.324599 -0.62847,0.157737 -0.77635,0.584819 -0.27265,0.787405 0.67563,0.271733 2.52739,0.214808 2.7765,-0.08535 z m 13.29947,0.06523 0.44097,-0.200922 -0.60906,-0.743286 -0.60907,-0.743286 V 65.98803 c 0,-2.306265 0.0611,-3.154593 0.25298,-3.509611 0.13914,-0.257506 0.29688,-0.676421 0.35053,-0.930929 0.12812,-0.607703 0.99073,-0.994098 1.59978,-0.716595 0.588609,0.268187 0.649849,0.781833 0.585849,4.913395 -0.0532,3.434379 -0.0698,3.577461 -0.477709,4.128696 -0.40548,0.547891 -0.40948,0.58062 -0.0986,0.807953 0.452429,0.330824 2.440889,0.315928 2.719999,-0.02037 0.17421,-0.209915 0.099,-0.375237 -0.40832,-0.89762 l -0.62187,-0.640316 -0.0551,-4.384579 -0.0551,-4.38458 -0.60787,-0.626827 c -0.812149,-0.837491 -1.451429,-0.83983 -2.356459,-0.0086 -0.3692,0.339084 -0.69691,0.616518 -0.72825,0.616518 -0.0313,0 -0.15249,-0.230565 -0.26921,-0.51237 -0.29163,-0.704051 -1.36726,-0.968156 -2.01476,-0.494695 -0.25931,0.189609 -0.27776,0.301369 -0.11039,0.668687 0.11052,0.242568 0.37051,0.517152 0.57777,0.61019 0.5835,0.26194 0.68231,1.056672 0.62413,5.019924 -0.0469,3.197955 -0.0934,3.71157 -0.36253,4.008578 -0.35875,0.395917 -0.40727,1.037452 -0.0882,1.166201 0.41907,0.169101 1.88113,0.116113 2.32056,-0.0841 z m -27.38185,-14.17025 c 0.27698,-0.607899 0.0428,-1.280713 -0.55299,-1.588813 -0.67438,-0.348734 -0.65874,-0.352798 -0.97182,0.252617 -0.34033,0.658153 -0.3401,1.123704 8e-4,1.783133 0.26532,0.513066 0.27924,0.517361 0.8014,0.247337 0.29227,-0.151135 0.6174,-0.463557 0.72252,-0.694274 z"
       style="fill:none;fill-opacity:1;stroke:#000000;stroke-width:0.1;stroke-miterlimit:4;stroke-dasharray:none;stroke-opacity:1"
       id="path885" />
  </g>
</svg>
