<?xml version="1.0" encoding="UTF-8" standalone="no"?>
<!-- Sure Cuts A Lot -->

<svg
   version="1.1"
   scal:dpi="300"
   x="0px"
   y="0px"
   width="6022px"
   height="5905px"
   viewBox="0 0 6022.2 5905.5"
   xml:space="preserve"
   id="svg4"
   sodipodi:docname="Löwe.svg"
   inkscape:version="1.1 (c68e22c387, 2021-05-23)"
   xmlns:inkscape="http://www.inkscape.org/namespaces/inkscape"
   xmlns:sodipodi="http://sodipodi.sourceforge.net/DTD/sodipodi-0.dtd"
   xmlns="http://www.w3.org/2000/svg"
   xmlns:svg="http://www.w3.org/2000/svg"
   xmlns:scal="http://www.craftedge.com/namespaces/surecutsalot"><defs
   id="defs8" /><sodipodi:namedview
   id="namedview6"
   pagecolor="#ffffff"
   bordercolor="#666666"
   borderopacity="1.0"
   inkscape:pageshadow="2"
   inkscape:pageopacity="0.0"
   inkscape:pagecheckerboard="0"
   showgrid="false"
   inkscape:zoom="0.12751905"
   inkscape:cx="3007.3938"
   inkscape:cy="2952.5"
   inkscape:window-width="1920"
   inkscape:window-height="1017"
   inkscape:window-x="-8"
   inkscape:window-y="-8"
   inkscape:window-maximized="1"
   inkscape:current-layer="svg4" />
<g
   id="tobi.svg">
<path
   id="path4298"
   style="fill-rule:evenodd;fill:#000000;stroke:none;"
   d="M 1311.45 5765.19 C 1294.93 5724.05 1247.48 5644.3 1207.9 5591.13 C 1188.81 5565.49 1172.65 5545.02 1171.96 5545.62 C 1171.28 5546.23 1176.82 5561.91 1184.26 5580.49 C 1197.86 5614.38 1212.85 5674.44 1211.88 5691.04 C 1211.6 5695.91 1208.32 5688.79 1204.62 5675.21 C 1195.66 5642.5 1167.62 5590.37 1138.53 5552.41 C 1118.79 5526.63 1000.89 5394.07 985.858 5380.74 C 977.501 5373.32 997.012 5404.98 1016.38 5430.26 L 1035.26 5454.9 L 1016.17 5441.55 C 983.645 5418.82 933.345 5368.48 917.641 5342.93 C 909.408 5329.53 902.538 5321.37 902.397 5324.78 C 901.759 5339.29 838.11 5233.73 819.909 5188 C 804.878 5150.25 805.869 5170.39 821.998 5230.71 C 846.715 5323.17 847.795 5322.54 791.882 5248.1 C 723.417 5156.95 704.349 5122.17 701.64 5083.47 C 700.277 5063.98 702.224 5043.17 707.128 5024.7 C 711.307 5008.98 713.909 4995.37 712.882 4994.48 C 709.66 4991.64 667.522 5035.33 638.221 5071.87 C 622.658 5091.29 611.574 5103.44 613.628 5098.89 C 615.664 5094.33 618.887 5067.28 620.781 5038.78 C 625.579 4966.58 642.771 4927.45 698.665 4861.58 C 712.688 4845.05 722.496 4831.53 720.443 4831.53 C 713.467 4831.53 679.349 4853.33 656.333 4872.5 C 633.139 4891.81 632.502 4890.72 652.119 4865.14 C 676.038 4833.94 689.919 4774.91 697.373 4672.63 L 699.444 4644.29 L 689.955 4658.11 C 684.732 4665.72 670.479 4682.21 658.263 4694.75 C 646.064 4707.29 633.299 4722.21 629.899 4727.89 C 626.34 4733.86 622.923 4736.1 621.808 4733.16 C 618.302 4723.85 635.211 4680.85 663.291 4627.76 C 678.552 4598.88 698.683 4555.05 708.031 4530.35 C 717.362 4505.65 726.94 4482.16 729.33 4478.18 C 735.757 4467.41 730.871 4469.16 703.57 4487.35 C 652.579 4521.34 599.907 4532.13 548.952 4519.05 C 470.359 4498.9 437.109 4435.65 460.923 4351.62 L 471.51 4314.2 L 454.62 4299.29 C 432.117 4279.43 417.315 4236.14 403.151 4148.73 C 392.511 4082.97 392.475 4081.61 401.469 4088.62 C 406.533 4092.58 417.811 4108.86 426.504 4124.81 C 440.951 4151.29 442.262 4152.56 441.553 4139.33 C 439.535 4102.2 441.854 4094.01 459.17 4077.11 C 468.536 4067.95 490.826 4053.69 508.691 4045.41 C 544.242 4028.91 559.557 4015.14 559.557 3999.62 C 559.557 3991.08 557.946 3989.98 548.987 3992.42 C 543.162 3994.02 529.777 3999.73 519.207 4005.14 C 494.474 4017.81 488.011 4017.56 446.298 4002.22 C 417.05 3991.45 407.719 3989.83 386.863 3991.89 C 345.291 3996 329.498 3980.69 346.106 3952.34 C 361.527 3926.03 392.652 3903.13 531.371 3815.97 C 691.406 3715.43 723.93 3693.61 723.93 3686.79 C 723.93 3684.21 718.442 3675.72 711.714 3667.94 C 700.223 3654.65 699.816 3652.66 704.986 3634.4 C 713.396 3604.63 731.42 3580.54 769.893 3547.63 L 805.019 3517.6 L 767.998 3520.26 C 747.637 3521.73 720.938 3525.18 708.669 3527.94 C 696.399 3530.69 686.36 3532.3 686.36 3531.51 C 686.36 3530.73 712.263 3518.66 743.902 3504.71 C 799.903 3480.01 860.153 3446.02 860.153 3439.13 C 860.153 3437.26 852.15 3439.21 842.395 3443.48 C 832.621 3447.74 800.628 3454.02 771.274 3457.43 C 732.464 3461.96 712.121 3466.49 696.718 3474.1 C 685.068 3479.84 674.799 3483.88 673.878 3483.09 C 670.054 3479.71 709.979 3431.26 729.755 3415.29 C 762.563 3388.78 816.474 3368.37 853.673 3368.37 C 877.592 3368.37 875.946 3362.54 848.662 3350.73 C 815.43 3336.35 790.165 3316.25 779.666 3295.85 C 766.971 3271.2 768.6 3266.92 786.163 3278.71 C 817.413 3299.68 897.864 3319.15 897.616 3305.68 C 897.422 3295.23 878.654 3263.09 859.976 3241.26 C 838.694 3216.39 840.589 3214.78 884.816 3220 C 917.818 3223.89 958.256 3241.4 988.372 3264.84 C 1010.89 3282.37 1010.93 3282.37 1007.6 3270.46 C 1005.78 3263.89 1000.27 3248.26 995.348 3235.73 C 979.183 3194.42 979.679 3167.17 998.252 3078.48 C 1007.55 3034.17 1015.35 2992.2 1015.64 2985.22 C 1016.05 2974.27 1017.05 2975.36 1022.88 2993.25 C 1042.97 3054.91 1051.83 3074.26 1072.24 3101.19 C 1085.18 3118.28 1108.16 3140.7 1126.58 3154.25 C 1158.38 3177.62 1168.02 3187.51 1177.25 3206.2 C 1181.62 3215.09 1182.67 3213.61 1187.98 3190.92 C 1194.19 3164.37 1230.2 3099.23 1275.48 3032.62 C 1293.73 3005.78 1301.43 2997.2 1299.7 3005.67 C 1284.9 3077.53 1283.62 3123.05 1295.78 3144.53 C 1307.72 3165.61 1315.54 3162.78 1325.63 3133.76 C 1336.77 3101.75 1364.28 3073.53 1399.78 3057.7 C 1414.34 3051.22 1453.7 3038.02 1487.25 3028.37 C 1550.03 3010.31 1579.7 2999.08 1594.02 2987.97 C 1598.54 2984.47 1602.24 2983.59 1602.24 2986.05 C 1602.24 2988.5 1588.89 2999.17 1572.55 3009.75 C 1556.22 3020.33 1539.19 3034.47 1534.71 3041.16 C 1525.03 3055.64 1524.83 3055.58 1548.22 3045.06 C 1563.24 3038.3 1575.93 3036.77 1616.67 3036.77 C 1662.6 3036.77 1668.14 3035.91 1684.43 3026.14 L 1702.17 3015.52 L 1699.12 3028.98 C 1695.55 3044.7 1678.81 3076.78 1660.7 3102.58 L 1647.95 3120.73 L 1661.5 3111.9 C 1674.8 3103.23 1728.51 3090.86 1753.48 3090.72 C 1777.48 3090.59 1813.39 3081.7 1829.91 3071.8 C 1839.03 3066.34 1846.48 3062.61 1846.48 3063.48 C 1846.48 3064.37 1842.25 3073.8 1837.08 3084.44 C 1831.91 3095.08 1827.7 3104.23 1827.7 3104.78 C 1827.7 3105.34 1838.14 3103.9 1850.92 3101.59 C 1875.94 3097.08 1896.85 3100.2 1987.38 3121.95 C 2035.5 3133.51 2059.99 3133.62 2086.58 3122.39 L 2102.46 3115.69 L 2085.2 3129.23 C 2075.72 3136.69 2053.17 3149.94 2035.09 3158.69 C 2017.03 3167.42 1994.25 3181.81 1984.47 3190.64 L 1966.68 3206.72 L 2002.98 3206.72 C 2047.2 3206.72 2078.31 3215.61 2126.31 3242.01 C 2169.37 3265.7 2172.68 3269.86 2146.3 3267.04 C 2135.09 3265.84 2114.3 3266.28 2100.1 3268.01 L 2074.27 3271.17 L 2099.89 3278.68 C 2134.12 3288.71 2157.58 3299.48 2229.65 3338.28 C 2302.6 3377.53 2325.54 3387.2 2357.96 3392.4 C 2383.15 3396.45 2403.59 3394.28 2424.3 3385.38 C 2443.02 3377.34 2406.35 3404.78 2385.79 3414.2 C 2376.3 3418.54 2349.89 3424.96 2327.08 3428.46 C 2264.6 3438.04 2263.29 3438.79 2294.2 3447.23 C 2337.78 3459.13 2363.22 3478.99 2421.84 3546.85 C 2440.66 3568.65 2467.39 3595.49 2481.22 3606.51 C 2512.12 3631.07 2503.81 3629.68 2432.41 3598.33 C 2404.63 3586.13 2381.92 3576.8 2381.92 3577.58 C 2381.92 3586.01 2454.75 3710.36 2466.76 3722.43 C 2475.52 3731.24 2506.24 3755.75 2535.03 3776.89 C 2589.81 3817.14 2612.06 3844.27 2612.06 3870.83 C 2612.06 3882.33 2611.81 3882.44 2598.93 3876.56 C 2583.22 3869.39 2538.46 3859.28 2507.55 3855.91 C 2486.55 3853.63 2485.24 3854.05 2485.24 3863.11 C 2485.24 3885.72 2506.26 3908.77 2565.18 3950.74 C 2612.29 3984.3 2625.96 3996.52 2636.97 4014.97 C 2649.88 4036.64 2650.45 4039.73 2648.22 4077.15 C 2646.57 4104.56 2642.13 4125.98 2633.61 4147.61 C 2619.43 4183.58 2583.29 4260.43 2581.4 4258.65 C 2580.69 4258 2577.56 4236.01 2574.44 4209.79 C 2567.98 4155.29 2557.89 4122.97 2540.2 4099.98 C 2529.66 4086.3 2527.38 4085.06 2524.58 4091.5 C 2519.02 4104.28 2531.31 4168.61 2548.41 4216.28 C 2572.92 4284.59 2579.02 4311.82 2579.1 4352.79 C 2579.22 4420.79 2557.8 4494.48 2524.6 4540.35 C 2515.92 4552.32 2508.2 4562.12 2507.43 4562.12 C 2506.66 4562.12 2506.88 4537.98 2507.9 4508.48 C 2511.13 4417.04 2492.75 4370.21 2428.96 4307.23 C 2409.62 4288.14 2393.12 4273.14 2392.27 4273.87 C 2391.42 4274.62 2401.16 4295.48 2413.91 4320.23 C 2454.51 4399.02 2460.49 4442.68 2443.14 4533.43 C 2431.45 4594.47 2418.56 4625.74 2368.07 4715.47 C 2345.62 4755.36 2324.71 4792.67 2321.61 4798.38 C 2316.02 4808.66 2316 4808.64 2318.32 4796.3 C 2324.48 4763.71 2326.57 4717.69 2321.72 4721.69 C 2318.94 4723.97 2306.16 4747.82 2293.28 4774.67 C 2270.37 4822.53 2247.94 4860.55 2242.63 4860.55 C 2241.16 4860.55 2241.57 4835.83 2243.53 4805.63 C 2248.15 4734.35 2247.27 4698.22 2240.38 4677.97 C 2237.34 4668.96 2234.04 4661.58 2233.07 4661.58 C 2232.11 4661.58 2224.52 4668.55 2216.21 4677.05 C 2185.57 4708.41 2063.23 4825.64 2050.69 4835.67 L 2037.73 4846.03 L 2041.8 4790.08 C 2046.51 4725.13 2046.65 4678.4 2042.16 4668.07 C 2039.62 4662.25 2033.62 4666.91 2012.25 4691.24 C 1948.62 4763.68 1854.16 4856.28 1848.78 4851.53 C 1847.54 4850.44 1855.07 4826.49 1865.48 4798.3 C 1889.93 4732.11 1904.06 4674.02 1895.7 4674.02 C 1890.73 4674.02 1875.46 4708.49 1858.27 4758.53 C 1828.72 4844.56 1809.71 4868.17 1741.31 4903.7 C 1634.02 4959.42 1584.38 5008.66 1542.79 5100.56 L 1538.27 5110.54 L 1528.85 5096.42 C 1507.18 5063.98 1501.57 5019.59 1515.41 4990.34 C 1519.33 4982.09 1521.97 4974.89 1521.28 4974.34 C 1520.6 4973.8 1490.5 5000.91 1454.39 5034.59 C 1374.62 5108.98 1356.72 5135.23 1354.07 5181.76 C 1352.51 5209.01 1357.2 5231.84 1370.69 5262.6 C 1372.18 5266.03 1363.28 5256.76 1350.86 5242.01 C 1306.58 5189.32 1278.66 5132.28 1277.87 5092.83 C 1277.58 5078.78 1277.37 5078.59 1272.79 5088.51 C 1270.15 5094.22 1257.65 5133.18 1245.02 5175.11 C 1232.4 5217.03 1221.19 5252.09 1220.13 5253.03 C 1216.25 5256.45 1173.97 5161.97 1168.22 5137.06 L 1162.31 5111.5 L 1151.65 5142.5 C 1101.01 5289.57 1108.59 5338.57 1201.7 5466.37 C 1271.07 5561.57 1295.01 5607.8 1310.83 5677.1 C 1319.24 5713.89 1328.59 5793.16 1324.52 5793.16 C 1323.51 5793.16 1317.63 5780.57 1311.45 5765.19 zM 1001.35 5256.14 C 993.879 5245.73 985.185 5227.76 982.052 5216.21 C 969.906 5171.54 990.178 5094.53 1027.13 5045 L 1045.67 5020.12 L 1048.02 5044.31 L 1050.38 5068.5 L 1068.36 5040.81 C 1090.87 5006.17 1144.57 4956.02 1204.28 4913.86 C 1265.67 4870.53 1274.13 4866.66 1255.88 4890.2 C 1248.19 4900.11 1238.44 4914.19 1234.21 4921.49 C 1225.69 4936.13 1223.83 4960.03 1231.2 4960.03 C 1233.78 4960.03 1235.89 4957.98 1235.89 4955.48 C 1235.89 4947.8 1296.46 4894.75 1353.31 4852.66 C 1416.67 4805.74 1447.98 4783.96 1525.61 4732.77 C 1608.22 4678.3 1647.16 4633.36 1665.31 4571.54 C 1675.26 4537.66 1674.25 4525.43 1663.84 4553.82 C 1659.25 4566.37 1650.95 4584.4 1645.39 4593.91 C 1632.66 4615.76 1588.29 4658.24 1557.62 4677.97 C 1532.25 4694.3 1489.51 4716.94 1489.51 4714.04 C 1489.51 4713.07 1501.13 4694.8 1515.31 4673.46 C 1539.87 4636.47 1552.28 4610.38 1530.8 4640.86 C 1500.15 4684.38 1456.63 4717.89 1372.13 4763.13 C 1293.23 4805.35 1249.57 4832.6 1220.8 4857.6 L 1192.67 4882.05 L 1210.36 4853.67 C 1220.08 4838.08 1230.29 4822.52 1233.06 4819.1 C 1241.31 4808.88 1217.26 4826.99 1178.35 4860.28 C 1138.83 4894.11 1135.15 4893.24 1150.62 4853.72 L 1158.98 4832.38 L 1116.68 4866.16 C 1028.44 4936.63 1006.59 4961.97 984.884 5019 C 961.018 5081.78 957.194 5191.84 977.501 5232.36 C 985.646 5248.64 1007.97 5275.04 1013.57 5275.04 C 1014.31 5275.04 1008.82 5266.53 1001.35 5256.14 zM 882.178 5238.78 C 880.991 5234.79 880.018 5238.04 880.018 5246.03 C 880.018 5254.01 880.991 5257.28 882.178 5253.28 C 883.346 5249.29 883.346 5242.76 882.178 5238.78 zM 877.344 5215.98 C 876.052 5213.12 874.972 5215.46 874.972 5221.15 C 874.972 5226.86 876.052 5229.18 877.344 5226.34 C 878.654 5223.5 878.654 5218.82 877.344 5215.98 zM 858.701 4756.19 C 872.918 4733.14 900.609 4709.75 939.985 4687.49 C 976.563 4666.83 992.055 4654.83 1007.49 4635.21 L 1020.97 4618.07 L 1018.65 4637.68 C 1017.36 4648.47 1018.17 4656.29 1020.42 4655.05 C 1022.68 4653.82 1024.53 4649.91 1024.53 4646.38 C 1024.53 4633.49 1054.09 4592.05 1097.95 4543.46 C 1142.53 4494.09 1173.97 4446.15 1196.64 4393.07 C 1207.63 4367.29 1223.9 4291.96 1220.41 4282.89 C 1217.32 4274.76 1204.09 4302.17 1194.19 4337.21 C 1176.31 4400.67 1149.9 4431.31 1092.71 4454.91 C 1060.89 4468.05 1011.25 4474.98 948.448 4475.04 C 928.547 4475.07 901.919 4477.02 889.277 4479.41 C 865.287 4483.96 858.524 4491.23 841.244 4531.02 C 833.577 4548.71 827.93 4582.83 832.675 4582.83 C 834.87 4582.83 836.658 4581.12 836.658 4579.02 C 836.658 4576.93 844.466 4570.96 854.027 4565.76 C 863.57 4560.54 878.371 4550.87 886.905 4544.26 L 902.415 4532.24 L 902.415 4545.27 C 902.415 4562.43 889.454 4583.88 862.189 4611.85 C 829.399 4645.49 819.095 4660.9 811.039 4688.36 C 799.46 4727.79 802.434 4764.78 821.361 4817.02 L 828.868 4837.75 L 837.349 4807.41 C 842.023 4790.72 851.619 4767.68 858.701 4756.19 zM 1971.11 4624.94 C 1965.71 4603.27 1977.21 4557.52 1997.1 4521.65 C 2013.76 4491.59 2025.39 4478.9 2092.42 4417.73 C 2134.43 4379.42 2174.71 4341.21 2181.94 4332.85 C 2189.16 4324.48 2196.7 4318.51 2198.67 4319.59 C 2200.63 4320.67 2204.74 4339.78 2207.79 4362.04 C 2213.88 4406.51 2223.19 4440.01 2232.57 4451.26 C 2237.74 4457.45 2238.86 4453.1 2239.94 4422.31 C 2241 4391.99 2257.61 4303.14 2267.59 4274.31 C 2270.05 4267.18 2271.15 4267.65 2277.4 4278.45 C 2281.28 4285.14 2301.09 4305.78 2321.43 4324.31 C 2341.78 4342.84 2358.42 4360.4 2358.42 4363.34 C 2358.42 4366.28 2359.55 4367.68 2360.93 4366.46 C 2362.32 4365.24 2356.83 4343.95 2348.75 4319.14 C 2334.89 4276.62 2333.83 4268.35 2330.23 4174.56 C 2328.06 4117.75 2324.02 4068.86 2320.82 4060.58 C 2317.73 4052.59 2305.48 4024.61 2293.6 3998.39 C 2276.96 3961.7 2271.95 3945.3 2271.84 3927.17 C 2271.75 3914.22 2270.6 3904.58 2269.26 3905.75 C 2267.93 3906.92 2265.72 3943.64 2264.35 3987.33 L 2261.88 4066.78 L 2246.26 4092.4 C 2202.83 4163.68 2101.52 4235.5 2021.42 4251.79 C 2007.86 4254.54 1996.78 4258.18 1996.78 4259.87 C 1996.78 4261.56 2007.12 4267.48 2019.78 4273.04 L 2042.78 4283.17 L 2022.86 4291.7 C 2002.21 4300.54 1976.65 4329.76 1963.92 4359.01 C 1960.45 4366.99 1952.64 4382.37 1946.58 4393.2 C 1940.51 4404.02 1936.56 4412.88 1937.8 4412.88 C 1939.04 4412.88 1952 4404.29 1966.63 4393.79 C 1981.23 4383.27 1992.41 4376.29 1991.43 4378.24 C 1990.46 4380.2 1983.11 4392.99 1975.09 4406.68 C 1936.6 4472.34 1931.98 4531.04 1959.17 4608.74 C 1968.98 4636.74 1976.63 4647.13 1971.11 4624.94 zM 1539.09 4428.66 C 1650.1 4329.26 1668.07 4314.07 1726.71 4270.28 C 1799.37 4216 1870.58 4149.59 1886.05 4121.65 C 1896.78 4102.31 1898.71 4093.47 1898.64 4064.14 C 1898.59 4045.08 1894.23 4009.91 1888.95 3985.97 C 1878.88 3940.34 1876.14 3880.44 1883.91 3876.19 C 1890.25 3872.74 1934.42 3951.84 1943.36 3982.64 C 1948.11 3998.95 1950.13 4020.23 1949.08 4042.55 C 1948.2 4061.58 1948.51 4077.09 1949.81 4077.01 C 1952.44 4076.87 1983.66 4036.16 2005.33 4004.61 C 2013.17 3993.22 2025.25 3968.97 2032.19 3950.74 C 2049.2 3906.02 2046.81 3880.72 2021.9 3842 C 1996.18 3801.99 1992.05 3792.36 1992.32 3773.05 L 1992.56 3755.91 L 2002 3777.57 C 2009.65 3795.14 2020.54 3806.66 2060.02 3838.97 C 2115.58 3884.44 2126.25 3900.94 2131.34 3949.22 L 2134.54 3979.66 L 2157.36 3919.59 C 2184.26 3848.81 2190.91 3814.83 2184.61 3780.41 C 2175.49 3730.57 2133.87 3675.01 2072.56 3630.83 C 2042.78 3609.37 2045.02 3609.54 2115.53 3634.02 C 2203.32 3664.52 2248.47 3670.43 2279.99 3655.57 L 2295.02 3648.47 L 2266.83 3645.55 C 2209.45 3639.6 2169.51 3620.44 2061.01 3546.8 C 2030.47 3526.07 1994.99 3503.84 1982.19 3497.37 L 1958.89 3485.63 L 2000.67 3482.85 C 2039.98 3480.23 2102.3 3467.87 2118.61 3459.45 C 2123.81 3456.76 2119.7 3455.62 2104.48 3455.54 C 2060.66 3455.27 2019.28 3440.02 1936.9 3393.74 C 1851.1 3345.56 1817.57 3334.56 1782.49 3343.1 C 1772.77 3345.48 1763.96 3346.65 1762.9 3345.73 C 1758.81 3342.12 1772.15 3315.25 1782.03 3307.23 C 1787.77 3302.57 1808.84 3292.81 1828.86 3285.51 C 1861.94 3273.46 1884.05 3258.06 1884.05 3247.04 C 1884.05 3244.76 1879.82 3247.65 1874.63 3253.45 C 1860.01 3269.87 1828.63 3281.32 1798.25 3281.32 C 1772.69 3281.32 1750.2 3275.64 1660.95 3246.59 C 1620.44 3233.42 1587.24 3232.37 1574.23 3243.87 C 1565.7 3251.4 1563.78 3251.56 1548.54 3245.93 C 1527.84 3238.31 1508.26 3238.32 1475.42 3246.03 C 1409.26 3261.54 1337.28 3305.1 1314.36 3343.51 C 1302.19 3363.87 1300.97 3369.37 1302.81 3395.31 C 1305.22 3429.18 1319.86 3458.04 1345.78 3480.01 C 1361.12 3492.99 1361.97 3494.85 1355.36 3501.29 C 1348.74 3507.74 1349.41 3508.73 1363.33 3513.01 C 1371.69 3515.59 1382.36 3520.74 1387.05 3524.49 C 1396.17 3531.77 1398.65 3552.73 1390.88 3556.96 C 1381.33 3562.18 1386.65 3565.6 1401.85 3564.04 C 1423.14 3561.85 1437.94 3577.87 1454.01 3620.46 C 1460.79 3638.44 1469.58 3656.69 1473.52 3661.02 C 1480.11 3668.21 1480.48 3666.74 1477.93 3643.66 C 1476.39 3629.8 1476.89 3614.32 1479.01 3609.24 L 1482.87 3600.01 L 1491.62 3608.54 C 1501.75 3618.4 1508.3 3619.51 1508.3 3611.35 C 1508.3 3603.07 1517.72 3597.46 1536.96 3594.29 C 1552.79 3591.68 1554.54 3592.48 1564.07 3606.72 C 1578.41 3628.18 1592.82 3667.83 1593 3686.36 L 1593.16 3702.04 L 1601.97 3692.71 C 1613.55 3680.46 1614.74 3680.82 1618.32 3697.65 C 1620.85 3709.55 1627.33 3715.61 1657.59 3734.39 C 1684.25 3750.94 1698.17 3763.13 1710.26 3780.47 C 1739.26 3822.05 1738.13 3821.92 1738.3 3783.55 C 1738.46 3744.99 1741.21 3743.1 1762.82 3766.68 C 1807.92 3815.85 1810.88 3928.14 1769.15 4005.72 C 1752.24 4037.11 1746.32 4040.25 1741.7 4020.25 C 1740.23 4013.92 1735.93 4005.06 1732.14 4000.55 C 1724.42 3991.36 1725.34 3987.69 1715.61 4066.97 C 1710.56 4108.12 1692.59 4180.78 1687.45 4180.78 C 1676.42 4180.78 1647.8 4151.73 1631.44 4123.92 C 1604.95 4078.9 1596.15 4046.2 1598.5 4001.59 C 1600.31 3967.75 1599.9 3965.81 1592.45 3971.77 C 1588.08 3975.27 1577.38 3989.69 1568.71 4003.81 C 1554.33 4027.19 1552.97 4032.45 1553.41 4062.64 C 1553.8 4089.37 1557.68 4106.26 1573.43 4149.68 C 1584.18 4179.33 1594.93 4218.68 1597.32 4237.15 C 1601.99 4273.37 1596.8 4321.89 1585.76 4345.23 C 1577.82 4361.98 1499.96 4453.26 1470.87 4479.88 C 1458.83 4490.91 1451.34 4499.93 1454.24 4499.93 C 1457.13 4499.93 1495.32 4467.87 1539.09 4428.66 zM 1597.74 3649.16 C 1594.47 3639.47 1586.39 3622.24 1579.79 3610.85 C 1573.2 3599.44 1567.34 3586.38 1566.79 3581.83 C 1566.25 3577.27 1564.19 3562.04 1562.26 3547.98 C 1559 3524.57 1559.94 3520.1 1573.43 3494.66 C 1590.47 3462.54 1591.12 3455.37 1579.17 3432.12 C 1568.51 3411.42 1553.62 3401.53 1533.1 3401.53 C 1519.42 3401.53 1517.7 3400.24 1517.75 3390.12 C 1517.77 3383.85 1522.97 3368.88 1529.33 3356.87 L 1540.86 3335.01 L 1502.28 3363.4 C 1481.05 3379.01 1459.47 3397.63 1454.3 3404.81 C 1449.13 3411.96 1442.36 3417.04 1439.25 3416.09 C 1436.13 3415.13 1430.96 3420.79 1427.74 3428.67 C 1424.52 3436.54 1420.27 3442.98 1418.29 3442.98 C 1410.03 3442.98 1404.05 3423.93 1406.17 3404.45 L 1408.42 3383.7 L 1399.8 3393.65 C 1389.11 3405.96 1376.8 3436.68 1376.8 3451.02 C 1376.8 3456.91 1381.02 3468.71 1386.19 3477.21 C 1397.41 3495.68 1397.55 3496.85 1388.75 3496.85 C 1378.66 3496.85 1337.48 3458.9 1327.49 3440.38 C 1314.25 3415.82 1310.57 3391.45 1316.45 3367.23 C 1325.78 3328.84 1388.75 3283.34 1464.3 3260.4 C 1503.38 3248.54 1533.67 3249.76 1562.32 3264.34 C 1614.51 3290.9 1634.6 3328.99 1642.32 3416.02 C 1643.94 3434.27 1648.27 3470.27 1651.94 3496.04 C 1663.36 3576.24 1660.33 3600.88 1635.65 3628.91 C 1628.9 3636.58 1618.95 3648.22 1613.54 3654.8 L 1603.71 3666.74 L 1597.74 3649.16 zM 879.788 4354.31 C 897.068 4351.04 909.266 4345.51 919.942 4336.07 C 936.762 4321.23 941.454 4302.14 927.078 4307.04 C 873.909 4325.18 748.275 4335.26 688.556 4326.18 C 640.522 4318.85 577.067 4299.03 546.473 4281.75 C 515.259 4264.12 515.755 4264.62 479.407 4216.12 C 450.972 4178.2 441.73 4171.95 463.915 4205.64 C 477.034 4225.54 479.973 4247.54 473.883 4280.25 L 470.43 4298.9 L 479.637 4282.32 C 484.7 4273.21 488.914 4261.15 488.967 4255.53 C 489.091 4246.03 490.844 4246.81 513.754 4266.51 C 560.885 4307.04 629.439 4336.18 712.192 4350.82 C 760.952 4359.46 843.545 4361.17 879.788 4354.31 zM 1202.35 4046.67 C 1206.34 4008.19 1209.9 3993.84 1219.25 3978.48 C 1233.07 3955.73 1245.29 3926 1245.29 3915.06 C 1245.29 3909.35 1240.33 3912.13 1225.92 3925.92 C 1196.16 3954.44 1181.32 3960.67 1129.84 3966.38 C 1104.62 3969.17 1083.36 3973.31 1082.6 3975.59 C 1081.84 3977.88 1094.9 3987.89 1111.62 3997.83 C 1157.61 4025.2 1188.21 4064.69 1189.11 4097.87 C 1189.87 4125.5 1197.08 4097.67 1202.35 4046.67 zM 2297.37 3871.97 C 2303.43 3866.27 2307.34 3861.61 2306.05 3861.61 C 2304.76 3861.61 2298.74 3866.27 2292.66 3871.97 C 2286.61 3877.67 2282.7 3882.33 2283.99 3882.33 C 2285.28 3882.33 2291.3 3877.67 2297.37 3871.97 zM 986.513 3744.83 C 979.325 3732.97 985.221 3717.05 998.836 3711.58 C 1010.17 3707.04 1014.66 3699.96 1006.22 3699.96 C 1003.9 3699.96 990.975 3693.43 977.519 3685.43 C 960.452 3675.29 954.113 3673.1 956.574 3678.18 C 967.764 3701.24 962.47 3719.44 937.948 3742.27 C 931.327 3748.44 925.891 3754.04 925.891 3754.69 C 925.891 3755.36 940.657 3755.3 958.734 3754.54 C 989.983 3753.24 991.329 3752.77 986.513 3744.83 zM 1073.85 3716.32 C 1058.34 3714.94 1045.13 3714.13 1044.48 3714.5 C 1043.82 3714.88 1045.59 3721.04 1048.41 3728.19 L 1053.54 3741.18 L 1077.78 3729.99 L 1102.04 3718.8 L 1073.85 3716.32 zM 1005.6 3723.55 C 1005.46 3714.77 1005.23 3714.72 998.694 3722.33 C 994.994 3726.66 993.1 3731.82 994.481 3733.8 C 998.659 3739.77 1005.76 3733.24 1005.6 3723.55 zM 939.4 3693.75 C 932.017 3670.18 939.701 3666.8 1000.77 3666.77 C 1028.05 3666.74 1065.05 3665.52 1082.99 3664.02 L 1115.6 3661.3 L 1087.68 3654.29 C 1072.33 3650.43 1034.41 3640.37 1003.4 3631.9 C 932.141 3612.46 891.915 3610.18 878.513 3624.79 C 865.358 3639.13 865.429 3693.58 878.601 3699.8 C 885.4 3703 889.437 3702.52 894.713 3697.88 C 904.061 3689.61 906.912 3689.96 926.033 3701.6 C 935.009 3707.05 942.817 3711.15 943.384 3710.69 C 943.968 3710.22 942.162 3702.61 939.4 3693.75 zM 863.676 3530.37 C 917.464 3506.63 1017 3500.73 1099.95 3516.37 L 1140.12 3523.93 L 1115.94 3503.1 C 1086.72 3477.93 1082.92 3464.85 1092.96 3424.32 C 1113.37 3341.95 1119.32 3307.25 1116.77 3285.46 C 1113.48 3257.43 1102.53 3228.76 1089.89 3215 L 1080.37 3204.64 L 1089.49 3221.22 C 1120.72 3278.04 1110.13 3348.73 1063.88 3392.07 C 1051.83 3403.38 1041.75 3409.84 1040.44 3407.1 C 1028.62 3382.54 989.7 3336.45 964.258 3316.87 L 953.883 3308.9 L 964.17 3329.31 C 974.651 3350.1 982.707 3413.96 974.828 3413.96 C 972.668 3413.96 943.331 3410.96 909.656 3407.31 C 844.466 3400.23 797.141 3401.46 786.889 3410.51 C 781.684 3415.1 789.032 3416.02 830.957 3416.02 C 876.14 3416.02 883.913 3417.17 907.159 3427.24 C 932.283 3438.13 953.139 3459.13 947.226 3467.59 C 945.721 3469.71 932.389 3475.43 917.588 3480.29 C 852.451 3501.66 803.78 3538.27 803.78 3565.9 C 803.78 3571.33 808.879 3568.85 823.751 3556.18 C 834.728 3546.82 852.699 3535.21 863.676 3530.37 zM 425.902 4110.62 C 423.866 4105.09 413.349 4092.05 402.532 4081.61 C 391.714 4071.17 375.018 4053.01 365.422 4041.23 C 338.67 4008.41 329.817 3977.89 352.232 3995.8 C 359.774 4001.81 363.935 4002.14 381.604 3998.09 C 397.397 3994.47 405.488 3994.55 416.288 3998.45 C 426.061 4001.97 428.221 4004.17 423.335 4005.64 C 412.216 4009 399.15 4020.36 394.741 4030.52 C 389.129 4043.48 395.503 4055.75 418.342 4075.9 C 436.366 4091.81 437.552 4094.2 433.745 4106.9 C 429.709 4120.31 429.514 4120.4 425.902 4110.62 zM 429.089 4066.55 C 415.686 4058.26 415.739 4045.8 429.213 4038.28 C 439.836 4032.34 481.797 4023.27 498.581 4023.27 C 512.798 4023.27 504.725 4034.55 482.186 4046.2 C 471.245 4051.87 458.497 4060.22 453.841 4064.75 C 443.643 4074.69 442.385 4074.78 429.089 4066.55 z" />
</g>

</svg>
