<?xml version="1.0" encoding="UTF-8" standalone="no"?>
<svg
   xmlns:dc="http://purl.org/dc/elements/1.1/"
   xmlns:cc="http://creativecommons.org/ns#"
   xmlns:rdf="http://www.w3.org/1999/02/22-rdf-syntax-ns#"
   xmlns:svg="http://www.w3.org/2000/svg"
   xmlns="http://www.w3.org/2000/svg"
   xmlns:sodipodi="http://sodipodi.sourceforge.net/DTD/sodipodi-0.dtd"
   xmlns:inkscape="http://www.inkscape.org/namespaces/inkscape"
   width="300mm"
   height="300mm"
   viewBox="0 0 300 300"
   version="1.1"
   id="svg859"
   inkscape:version="1.0.1 (3bc2e813f5, 2020-09-07)"
   sodipodi:docname="MathLOGOquer.svg">
  <defs
     id="defs853">
    <clipPath
       clipPathUnits="userSpaceOnUse"
       id="clipPath1438">
      <path
         d="M 0,86.333 H 147.245 V 0 H 0 Z"
         id="path1436" />
    </clipPath>
  </defs>
  <sodipodi:namedview
     id="base"
     pagecolor="#ffffff"
     bordercolor="#666666"
     borderopacity="1.0"
     inkscape:pageopacity="0.0"
     inkscape:pageshadow="2"
     inkscape:zoom="0.45722543"
     inkscape:cx="651.89872"
     inkscape:cy="387.1363"
     inkscape:document-units="mm"
     inkscape:current-layer="layer1"
     inkscape:document-rotation="0"
     showgrid="false"
     inkscape:window-width="1920"
     inkscape:window-height="998"
     inkscape:window-x="-11"
     inkscape:window-y="-11"
     inkscape:window-maximized="1" />
  <metadata
     id="metadata856">
    <rdf:RDF>
      <cc:Work
         rdf:about="">
        <dc:format>image/svg+xml</dc:format>
        <dc:type
           rdf:resource="http://purl.org/dc/dcmitype/StillImage" />
        <dc:title></dc:title>
      </cc:Work>
    </rdf:RDF>
  </metadata>
  <g
     inkscape:label="Ebene 1"
     inkscape:groupmode="layer"
     id="layer1">
    <g
       id="g1434"
       clip-path="url(#clipPath1438)"
       transform="matrix(-1.9718111,0,0,-2.2998522,294.88272,206.22069)">
      <g
         id="g1440"
         transform="translate(37.3916,11.6113)">
        <path
           d="m 0,0 c -5.478,0.26 -4.807,8.747 -4.139,12.423 0.509,2.804 1.515,5.661 2.688,8.256 -0.193,-0.427 -1.262,-0.265 -0.051,-0.265 h 2.004 12.508 3.36 c -0.697,0 -0.355,-3.264 -0.355,-4.225 0,-0.576 1.303,-0.309 1.303,0.149 v 4.541 c 0,0.225 -0.195,0.316 -0.405,0.316 H -1.766 c -0.267,0 -0.723,-0.085 -0.855,-0.363 C -4.815,16.166 -9.946,-0.334 -0.493,-0.781 0.029,-0.807 0.88,-0.041 0,0"
           style="fill:#264a90;fill-opacity:1;fill-rule:nonzero;stroke:none"
           id="path1442" />
      </g>
      <g
         id="g1444"
         transform="translate(58.3286,32.0166)">
        <path
           d="m 0,0 h 45.624 9.222 1.746 c -0.744,0 -0.384,-1.797 -0.384,-2.945 v -13.633 -3.978 c 0.884,0.365 0.94,0.501 0.166,0.411 h -1.608 -2.339 c -0.526,0 -1.367,-0.798 -0.488,-0.798 h 4.677 c 0.24,0 0.896,0.117 0.896,0.471 V 0.472 c 0,0.225 -0.194,0.327 -0.408,0.327 H 0.488 C -0.038,0.799 -0.879,0 0,0"
           style="fill:#264a90;fill-opacity:1;fill-rule:nonzero;stroke:none"
           id="path1446" />
      </g>
      <g
         id="g1448"
         transform="translate(59.23,11.5254)">
        <path
           d="M 0,0 V 3.983 C 0,5.46 0.334,5.18 -0.644,5.18 h 1.523 8.622 c 0.248,0 0.719,0.213 0.719,0.515 v 8.696 c 0,0.391 -1.193,-0.17 -0.053,-0.17 h 2.386 5.748 c 1.479,0 0.539,0.708 0.539,-0.407 V 8.831 -0.105 c 0,-0.67 1.315,-0.462 1.315,0.105 v 14.736 c 0,0.338 -0.316,0.41 -0.597,0.41 H 9.624 c -0.248,0 -0.719,-0.212 -0.719,-0.515 V 9.712 6.855 c 0,-1.48 0.116,-0.75 0.432,-0.75 h -9.933 c -0.248,0 -0.718,-0.212 -0.718,-0.515 V -0.105 C -1.314,-0.775 0,-0.567 0,0"
           style="fill:#264a90;fill-opacity:1;fill-rule:nonzero;stroke:none"
           id="path1450" />
      </g>
      <g
         id="g1452"
         transform="translate(85.1953,11.6465)">
        <path
           d="M 0,0 V 6.012 C -0.307,5.852 -0.612,5.691 -0.919,5.532 h 14.865 6.419 c -0.398,0 -0.208,-4.818 -0.208,-5.88 0,-0.294 1.299,-0.082 1.299,0.348 v 6.012 c 0,0.138 -0.31,0.132 -0.38,0.132 H -0.38 c -0.251,0 -0.919,-0.138 -0.919,-0.48 V -0.348 C -1.299,-0.642 0,-0.43 0,0"
           style="fill:#264a90;fill-opacity:1;fill-rule:nonzero;stroke:none"
           id="path1454" />
      </g>
      <g
         id="g1456"
         transform="translate(48.1909,14.1533)">
        <path
           d="m 0,0 c -1.149,0.238 -2.543,0.097 -3.581,-0.461 -1.986,-1.065 -2.552,-3.875 -1.331,-5.749 1.494,-2.295 7.079,-1.573 7.674,1.22 0.086,0.4 -1.209,0.183 -1.29,-0.196 -0.482,-2.264 -4.059,-2.251 -5.219,-0.471 -0.888,1.362 -0.623,3.788 0.694,4.777 0.59,0.443 1.543,0.404 2.235,0.261 C -0.476,-0.69 0.7,-0.146 0,0"
           style="fill:#264a90;fill-opacity:1;fill-rule:nonzero;stroke:none"
           id="path1458" />
      </g>
      <g
         id="g1460"
         transform="translate(65.1094,14.3223)">
        <path
           d="m 0,0 c -1.184,0.245 -2.6,0.086 -3.628,-0.567 -1.9,-1.207 -2.231,-4.107 -1.044,-5.926 1.591,-2.442 7.019,-1.591 7.631,1.284 0.139,0.648 -1.191,0.49 -1.316,-0.096 -0.206,-0.965 -1.583,-1.511 -2.305,-1.59 -1.159,-0.125 -2.293,0.166 -2.956,1.183 -0.911,1.397 -0.476,3.934 1.091,4.64 0.612,0.276 1.432,0.25 2.081,0.115 C 0.2,-1.091 0.862,-0.18 0,0"
           style="fill:#264a90;fill-opacity:1;fill-rule:nonzero;stroke:none"
           id="path1462" />
      </g>
      <g
         id="g1464"
         transform="translate(74.7559,14.333)">
        <path
           d="M 0,0 C -1.187,0.247 -2.598,0.088 -3.628,-0.566 -5.531,-1.775 -5.854,-4.688 -4.668,-6.508 -3.07,-8.96 2.35,-8.111 2.963,-5.224 3.104,-4.56 1.772,-4.71 1.645,-5.312 1.44,-6.271 0.054,-6.815 -0.663,-6.893 c -1.154,-0.125 -2.291,0.158 -2.953,1.173 -0.911,1.399 -0.469,3.919 1.095,4.624 0.612,0.276 1.433,0.252 2.082,0.117 C 0.222,-1.116 0.862,-0.179 0,0"
           style="fill:#264a90;fill-opacity:1;fill-rule:nonzero;stroke:none"
           id="path1466" />
      </g>
      <g
         id="g1468"
         transform="translate(91.6836,14.0811)">
        <path
           d="m 0,0 c -1.221,0.254 -2.564,0.041 -3.689,-0.467 -2.065,-0.93 -2.528,-3.87 -1.353,-5.671 1.453,-2.229 7.097,-1.437 7.666,1.244 0.051,0.241 -1.215,0.052 -1.277,-0.244 -0.18,-0.847 -0.875,-1.293 -1.627,-1.633 -0.771,-0.346 0.107,-0.056 -0.341,-0.115 -1.157,-0.149 -2.377,0.155 -3.122,1.096 -1.007,1.271 -0.792,3.686 0.292,4.827 0.606,0.64 1.566,0.656 2.377,0.488 C -0.786,-0.535 0.325,-0.067 0,0"
           style="fill:#264a90;fill-opacity:1;fill-rule:nonzero;stroke:none"
           id="path1470" />
      </g>
      <g
         id="g1472"
         transform="translate(102.2441,14.2002)">
        <path
           d="m 0,0 c -1.167,0.242 -2.53,0.116 -3.586,-0.45 -1.888,-1.012 -2.588,-3.866 -1.403,-5.684 0.92,-1.411 2.684,-1.659 4.241,-1.458 1.364,0.176 3.219,1.102 3.522,2.537 0.106,0.499 -1.204,0.288 -1.298,-0.16 -0.473,-2.232 -3.955,-2.093 -5.126,-0.613 -1.032,1.303 -0.733,3.983 0.684,4.884 0.597,0.379 1.498,0.372 2.173,0.231 C -0.375,-0.8 0.741,-0.154 0,0"
           style="fill:#264a90;fill-opacity:1;fill-rule:nonzero;stroke:none"
           id="path1474" />
      </g>
      <g
         id="g1476"
         transform="translate(92.5684,17.7715)">
        <path
           d="M 0,0 C 0.932,1.156 1.863,2.312 2.795,3.468 3.688,4.575 2.205,3.75 2.854,3.762 l 2.935,0.052 2.818,0.05 C 8.889,3.869 9.17,3.875 9.451,3.88 9.782,3.886 9.194,4.15 9.404,3.791 c 0.788,-1.344 1.575,-2.689 2.364,-4.034 0.215,-0.368 1.48,0.04 1.205,0.51 C 12.146,1.68 11.317,3.093 10.49,4.507 10.436,4.6 10.228,4.623 10.139,4.621 7.746,4.578 5.354,4.536 2.96,4.493 1.365,4.465 -0.322,1.13 -1.209,0.029 -1.573,-0.423 -0.264,-0.327 0,0"
           style="fill:#264a90;fill-opacity:1;fill-rule:nonzero;stroke:none"
           id="path1478" />
      </g>
      <g
         id="g1480"
         transform="translate(9.3301,86.3335)">
        <path
           d="M 0,0 H 10.208 L 6.68,-12.48 20.898,0 H 34.472 L 18.895,-12.468 25.682,-33.029 H 13.111 l -3.125,13.582 -6.834,-5.522 -2.276,-8.06 H -9.33 Z"
           style="fill:#7b7979;fill-opacity:1;fill-rule:nonzero;stroke:none"
           id="path1482" />
      </g>
      <g
         id="g1484"
         transform="translate(67.4336,67.4858)">
        <path
           d="M 0,0 -0.296,10.288 -7.26,0 Z m 0.092,-7.847 h -11.058 l -3.678,-6.335 h -10.418 l 21.749,33.03 H 6.58 l 2.377,-33.03 H 0.214 Z"
           style="fill:#7b7979;fill-opacity:1;fill-rule:nonzero;stroke:none"
           id="path1486" />
      </g>
      <g
         id="g1488"
         transform="translate(100.8535,56.7583)">
        <path
           d="m 0,0 0.577,-3.569 c -1.131,-0.24 -2.151,-0.36 -3.047,-0.36 -1.467,0 -2.604,0.231 -3.412,0.697 -0.807,0.464 -1.37,1.074 -1.702,1.83 -0.331,0.755 -0.492,2.342 -0.492,4.765 V 17.07 h -2.962 v 3.138 h 2.962 v 5.901 l 4.016,2.422 V 20.208 H 0 V 17.07 H -4.236 V 3.14 c 0.176,-1.151 0.245,-1.895 0.386,-2.221 0.145,-0.33 0.375,-0.591 0.696,-0.785 0.32,-0.194 0.778,-0.293 1.381,-0.293 0.449,0 1.037,0.055 1.773,0.159"
           style="fill:#7b7979;fill-opacity:1;fill-rule:nonzero;stroke:none"
           id="path1490" />
      </g>
      <g
         id="g1492"
         transform="translate(106.2627,67.3423)">
        <path
           d="M 0,0 H 13.302 C 13.122,2.005 12.615,3.509 11.78,4.508 10.494,6.063 8.825,6.843 6.777,6.843 4.921,6.843 3.362,6.224 2.101,4.981 0.834,3.739 0.137,2.079 0,0 m 13.259,-6.526 4.173,-0.515 c -0.658,-2.437 -1.875,-4.334 -3.66,-5.674 -1.777,-1.346 -4.049,-2.02 -6.815,-2.02 -3.489,0 -6.248,1.072 -8.291,3.219 -2.042,2.143 -3.061,5.156 -3.061,9.028 0,4.009 1.03,7.118 3.093,9.331 2.065,2.213 4.743,3.321 8.034,3.321 3.183,0 5.783,-1.083 7.807,-3.253 2.019,-2.169 3.029,-5.219 3.029,-9.151 0,-0.242 -0.009,-0.598 -0.025,-1.075 h -17.77 c 0.155,-2.619 0.894,-4.623 2.226,-6.014 1.329,-1.393 2.988,-2.087 4.978,-2.087 1.478,0 2.746,0.388 3.79,1.167 1.051,0.78 1.879,2.022 2.492,3.723"
           style="fill:#7b7979;fill-opacity:1;fill-rule:nonzero;stroke:none"
           id="path1494" />
      </g>
      <g
         id="g1496"
         transform="translate(143.2607,61.8735)">
        <path
           d="m 0,0 3.984,-0.521 c -0.44,-2.736 -1.549,-4.876 -3.337,-6.424 -1.795,-1.55 -3.992,-2.322 -6.6,-2.322 -3.262,0 -5.883,1.067 -7.862,3.198 -1.986,2.131 -2.974,5.184 -2.974,9.164 0,2.569 0.422,4.822 1.277,6.75 0.855,1.929 2.153,3.377 3.897,4.341 1.738,0.964 3.635,1.447 5.684,1.447 2.59,0 4.715,-0.653 6.362,-1.96 1.645,-1.313 2.707,-3.168 3.17,-5.578 L -0.327,7.491 c -0.385,1.598 -1.046,2.802 -1.995,3.611 -0.95,0.806 -2.1,1.21 -3.449,1.21 -2.038,0 -3.689,-0.731 -4.958,-2.189 -1.277,-1.457 -1.909,-3.764 -1.909,-6.918 0,-3.2 0.614,-5.525 1.838,-6.974 1.226,-1.451 2.828,-2.178 4.806,-2.178 1.582,0 2.913,0.487 3.975,1.459 C -0.953,-3.517 -0.281,-2.021 0,0"
           style="fill:#7b7979;fill-opacity:1;fill-rule:nonzero;stroke:none"
           id="path1498" />
      </g>
      <path
         d="M 45.116,63.972 H 35.42 v 3.378 h 9.696 z"
         style="fill:#264a90;fill-opacity:1;fill-rule:nonzero;stroke:none"
         id="path1500" />
      <path
         d="M 88.748,63.972 H 79.05 v 3.378 h 9.698 z"
         style="fill:#264a90;fill-opacity:1;fill-rule:nonzero;stroke:none"
         id="path1502" />
      <g
         id="g1504"
         transform="translate(1.1704,0.4727)">
        <path
           d="m 0,0 c 0,0 2.259,0.064 6.212,0.178 1.976,0.049 4.376,0.108 7.13,0.176 1.376,0.035 2.841,0.071 4.385,0.11 1.544,0 3.168,0.001 4.862,0.002 h 49.696 49.695 c 1.694,-0.008 3.317,0.024 4.862,-0.009 1.544,-0.038 3.009,-0.074 4.385,-0.107 2.753,-0.069 5.153,-0.127 7.13,-0.176 C 142.31,0.063 144.569,0 144.569,0 c 0,0 -2.259,-0.063 -6.212,-0.174 -1.977,-0.049 -4.377,-0.107 -7.13,-0.176 -1.376,-0.033 -2.841,-0.069 -4.385,-0.107 -1.545,-0.033 -3.168,-0.001 -4.862,-0.009 H 72.285 22.589 c -1.694,0.001 -3.318,0.002 -4.862,0.002 -1.544,0.039 -3.009,0.075 -4.385,0.11 -2.754,0.068 -5.154,0.127 -7.13,0.176 C 2.259,-0.064 0,0 0,0"
           style="fill:#264a90;fill-opacity:1;fill-rule:nonzero;stroke:none"
           id="path1506" />
      </g>
    </g>
  </g>
</svg>
