<?xml version="1.0" encoding="UTF-8" standalone="no"?>
<!-- Created with Inkscape (http://www.inkscape.org/) -->

<svg
   width="210mm"
   height="297mm"
   viewBox="0 0 210 297"
   version="1.1"
   id="svg12410"
   inkscape:version="1.1 (c68e22c387, 2021-05-23)"
   sodipodi:docname="Rakete.svg"
   xmlns:inkscape="http://www.inkscape.org/namespaces/inkscape"
   xmlns:sodipodi="http://sodipodi.sourceforge.net/DTD/sodipodi-0.dtd"
   xmlns="http://www.w3.org/2000/svg"
   xmlns:svg="http://www.w3.org/2000/svg">
  <sodipodi:namedview
     id="namedview12412"
     pagecolor="#ffffff"
     bordercolor="#666666"
     borderopacity="1.0"
     inkscape:pageshadow="2"
     inkscape:pageopacity="0.0"
     inkscape:pagecheckerboard="0"
     inkscape:document-units="mm"
     showgrid="false"
     inkscape:zoom="0.49071405"
     inkscape:cx="301.60131"
     inkscape:cy="554.29429"
     inkscape:window-width="1920"
     inkscape:window-height="1000"
     inkscape:window-x="-11"
     inkscape:window-y="-11"
     inkscape:window-maximized="1"
     inkscape:current-layer="layer1" />
  <defs
     id="defs12407" />
  <g
     inkscape:label="Ebene 1"
     inkscape:groupmode="layer"
     id="layer1">
    <path
       style="fill:none;stroke:#000000;stroke-width:0.5;stroke-miterlimit:4;stroke-dasharray:none;stroke-opacity:1"
       d="m 52.708212,224.17779 c 0.0167,-0.93947 0.0515,-1.01318 0.67904,-1.43757 0.3638,-0.24601 0.84005,-0.5003 1.05833,-0.56503 0.26406,-0.0783 0.39688,-0.25502 0.39688,-0.52795 0,-0.50424 -0.28874,-0.62435 -1.50093,-0.62435 -1.06041,0 -1.3213,-0.21821 -2.04287,-1.70878 -0.38557,-0.7965 -0.39355,-0.8016 -0.604,-0.38703 -0.11729,0.23107 -0.26144,0.84772 -0.32034,1.37034 -0.1292,1.1465 -0.39563,1.46945 -1.6366,1.9838 -0.52295,0.21674 -0.95082,0.45607 -0.95082,0.53181 0,0.24717 0.63052,0.48316 1.7811,0.66664 1.13408,0.18084 1.74668,0.59773 1.74668,1.18869 0,0.14023 0.25797,0.49084 0.57326,0.77911 l 0.57327,0.52412 0.11471,-0.40178 c 0.0631,-0.22098 0.12262,-0.84739 0.13229,-1.39202 z m 68.143108,1.33281 c 1.3435,-0.34814 2.67923,-1.09931 3.56157,-2.0029 0.58213,-0.59616 0.65364,-0.74732 0.4625,-0.97763 -0.30918,-0.37255 -0.83857,-0.34252 -1.05387,0.0598 -0.10078,0.18832 -0.46647,0.38578 -0.84406,0.45579 -0.36643,0.0679 -0.90436,0.26538 -1.1954,0.43875 -0.29104,0.17337 -0.90757,0.36382 -1.37006,0.42321 -0.46248,0.0594 -1.0737,0.22837 -1.35825,0.37552 -0.28455,0.14716 -0.85865,0.26862 -1.27578,0.26996 -0.97119,0.003 -1.58354,0.16804 -1.50445,0.4053 0.10002,0.30006 1.73064,0.79848 2.66086,0.81333 0.47106,0.008 1.33368,-0.10997 1.91694,-0.26112 z m -8.38605,-0.96113 c 1.08465,-0.096 2.18159,-0.25423 2.43764,-0.35158 0.25604,-0.0973 1.03547,-0.26382 1.73206,-0.36994 0.69659,-0.10611 1.72043,-0.34411 2.2752,-0.52886 0.55477,-0.18475 1.19283,-0.33592 1.41792,-0.33592 0.22508,0 0.72062,-0.15875 1.10119,-0.35278 0.38057,-0.19402 0.79674,-0.35277 0.92481,-0.35277 0.98498,0 6.14555,-2.38311 8.41488,-3.88592 0.73772,-0.48855 1.80256,-1.36111 2.36632,-1.93904 0.83381,-0.85479 1.06769,-1.22864 1.25374,-2.00421 0.30918,-1.2888 0.15571,-1.75147 -0.79882,-2.4082 -0.6464,-0.44473 -1.11341,-0.59399 -2.42385,-0.77461 -1.86955,-0.25769 -5.78164,-0.20022 -6.32948,0.093 -0.36524,0.19546 -0.36194,0.20793 0.19191,0.72554 0.30994,0.28967 0.76877,0.83681 1.01963,1.21589 0.36349,0.54927 0.55388,0.68176 0.93763,0.65253 0.5971,-0.0455 1.41059,0.46521 1.41059,0.88554 0,0.17244 -0.39337,0.75486 -0.87416,1.29429 -0.72493,0.81337 -1.24438,1.16397 -3.04271,2.05373 -1.1927,0.59011 -2.9623,1.3195 -3.93243,1.62084 -0.97014,0.30136 -2.00008,0.6232 -2.28876,0.71522 -0.28868,0.092 -1.93414,0.38157 -3.65659,0.64343 -2.7811,0.42281 -3.3003,0.45523 -4.63743,0.28958 -1.67291,-0.20727 -2.20542,-0.52132 -2.20542,-1.30067 0,-0.53817 0.84192,-1.29941 1.66583,-1.50619 0.56468,-0.14173 0.568,-0.15016 0.70017,-1.77602 0.12855,-1.58143 -0.0618,-1.70193 -1.45929,-0.92338 -1.76915,0.98564 -4.35444,2.68619 -5.155,3.39085 -0.80956,0.71257 -1.39616,1.73919 -1.39616,2.44344 0,0.82949 0.79601,1.79379 1.72861,2.09409 0.35896,0.11557 0.75164,0.28871 0.87264,0.38474 0.5135,0.40751 4.72921,0.57474 7.74933,0.30739 z m 27.31409,-1.4981 0.61936,-1.32292 0.74584,-0.0176 c 0.9039,-0.0213 1.582,-0.19651 1.65751,-0.42825 0.0307,-0.0943 -0.49915,-0.47384 -1.17754,-0.84332 -0.85573,-0.46602 -1.23344,-0.77396 -1.23344,-1.0055 0,-0.63742 -0.38295,-2.11501 -0.54815,-2.11501 -0.0914,0 -0.24565,0.21828 -0.34284,0.48507 -0.32537,0.89318 -0.78197,1.66042 -1.08652,1.82566 -0.16599,0.0901 -0.75641,0.26701 -1.31204,0.3932 -0.55563,0.12619 -1.03703,0.30981 -1.06977,0.40806 -0.0685,0.20564 0.6944,0.59217 1.16883,0.59217 0.56393,0 1.22994,0.67892 1.34854,1.37466 0.16649,0.97677 0.43341,1.97673 0.52764,1.97673 0.0458,0 0.36192,-0.59531 0.70258,-1.32291 z m -71.531338,-3.47469 c 0,-0.0792 0.40126,-0.8498 0.89169,-1.71238 1.02103,-1.79578 1.10652,-1.8391 3.31503,-1.67977 1.33591,0.0964 2.14328,-0.16157 2.14328,-0.68476 0,-0.12282 -0.60342,-0.5377 -1.34093,-0.92197 -0.73751,-0.38426 -1.53568,-0.80433 -1.7737,-0.93346 -0.58933,-0.31976 -0.70011,-0.69715 -0.84786,-2.88814 -0.18104,-2.68491 -0.33426,-2.71438 -1.67842,-0.32294 -0.60134,1.06987 -1.15666,1.98434 -1.23405,2.03216 -0.0774,0.0478 -1.06399,0.1397 -2.19244,0.20415 -1.12845,0.0645 -2.17959,0.21068 -2.33586,0.32497 -0.24328,0.17788 -0.135,0.28901 0.75296,0.77279 0.5704,0.31076 1.15616,0.64047 1.30168,0.73267 0.14552,0.0922 0.51728,0.28162 0.82614,0.42095 0.86064,0.38825 1.11414,1.06336 1.11414,2.96713 0,1.24654 0.0709,1.74637 0.29243,2.0627 0.27921,0.39863 0.30312,0.40286 0.52916,0.0937 0.13021,-0.17808 0.23675,-0.3886 0.23675,-0.46784 z m 47.536808,0.19777 c 0.29105,-0.0878 1.12448,-0.27208 1.85209,-0.40956 1.37303,-0.25941 2.58233,-0.63117 3.79236,-1.16584 2.04187,-0.90221 2.74845,-1.26801 3.2268,-1.67051 l 0.52654,-0.44305 -0.27478,-1.10317 c -0.51079,-2.05067 -1.68264,-3.40369 -4.02791,-4.65069 -1.14476,-0.60868 -3.58207,-0.60482 -5.08664,0.008 -1.45065,0.59091 -3.161,2.15011 -3.76094,3.4286 -0.41864,0.89214 -0.4661,1.19898 -0.46804,3.0263 -0.002,1.96721 0.0143,2.05509 0.50242,2.69505 l 0.50457,0.66153 1.34218,-0.10855 c 0.7382,-0.0597 1.58031,-0.18038 1.87135,-0.26817 z M 56.315052,207.83782 c 0.0469,-0.16977 0.1355,-0.67922 0.19692,-1.13209 0.12215,-0.90077 0.2908,-1.11482 1.02307,-1.29861 0.26716,-0.0671 0.53152,-0.19597 0.58747,-0.2865 0.1756,-0.28412 -0.30317,-0.67828 -0.8239,-0.67828 -0.86345,0 -1.38433,-0.35502 -1.60589,-1.09453 -0.27527,-0.91877 -0.7094,-0.83248 -0.88143,0.17521 -0.18467,1.08177 -0.72683,1.75429 -1.60485,1.99072 -0.68831,0.18533 -0.71429,0.21439 -0.39839,0.44538 0.18587,0.13591 0.71398,0.24711 1.17358,0.24711 0.95632,0 1.27693,0.23946 1.68452,1.25811 0.29477,0.7367 0.51377,0.86275 0.6489,0.37348 z m 97.939848,-4.87639 c 0.78779,-0.34045 2.02038,-0.40494 2.71674,-0.14217 0.54182,0.20447 1.71385,-0.11349 2.39586,-0.64996 0.26067,-0.20503 0.56416,-0.37279 0.67443,-0.37279 0.45942,0 2.92694,-3.004 2.92694,-3.56329 0,-0.1031 0.16666,-0.45709 0.37036,-0.78669 0.33668,-0.54476 0.36417,-0.80329 0.30231,-2.84304 -0.0637,-2.09984 -0.10332,-2.31202 -0.61781,-3.30724 -0.30804,-0.59588 -0.75118,-1.17125 -1.00787,-1.30863 -0.25195,-0.13484 -0.4581,-0.30362 -0.4581,-0.37507 0,-0.25678 -1.2479,-1.61673 -1.87244,-2.04055 -0.3507,-0.238 -0.88647,-0.48005 -1.19059,-0.5379 -0.30412,-0.0579 -0.83501,-0.24614 -1.17975,-0.41841 -1.43525,-0.71721 -5.39056,-0.57311 -6.91785,0.25202 -1.95357,1.05544 -2.99195,1.83302 -3.84831,2.88178 -0.15426,0.18891 -0.33274,0.72489 -0.39664,1.19106 -0.0639,0.46617 -0.27503,1.10461 -0.46919,1.41877 -0.19416,0.31415 -0.35571,0.76025 -0.359,0.99134 -0.003,0.23108 -0.15935,0.73765 -0.34679,1.12571 -0.46114,0.95467 -0.43695,1.76284 0.0951,3.17632 0.65267,1.73397 2.21134,3.78703 3.25631,4.28914 0.24253,0.11654 0.79816,0.42078 1.23472,0.67607 1.03436,0.60485 3.33361,1.13617 3.70417,0.85598 0.14552,-0.11004 0.58986,-0.34065 0.98742,-0.51245 z m 1.15578,-3.69432 c -0.50927,-0.54208 -0.7592,-1.43329 -0.55361,-1.97402 0.22152,-0.58265 1.82256,-1.39171 2.27495,-1.1496 0.41503,0.22212 1.25074,1.628 1.25074,2.10407 0,0.46789 -1.39623,1.43228 -2.07361,1.43228 -0.3074,0 -0.6651,-0.16433 -0.89847,-0.41273 z m -5.57019,-6.21445 c -0.32802,-0.32803 -0.3652,-1.15174 -0.0655,-1.45143 0.29969,-0.29969 1.1234,-0.26251 1.45143,0.0655 0.15245,0.15245 0.27718,0.46428 0.27718,0.69296 0,0.22868 -0.12473,0.54051 -0.27718,0.69296 -0.15245,0.15245 -0.46428,0.27718 -0.69296,0.27718 -0.22868,0 -0.54051,-0.12473 -0.69296,-0.27718 z m 7.80628,-0.19456 c -0.16226,-0.0429 -0.37573,-0.30955 -0.47437,-0.59251 -0.15791,-0.45299 -0.12507,-0.55718 0.27471,-0.87165 0.54818,-0.4312 0.64941,-0.43726 1.20643,-0.0723 0.54424,0.3566 0.55301,0.77728 0.0265,1.27189 -0.41096,0.38607 -0.49377,0.40728 -1.0333,0.26456 z m -46.64239,1.46524 c 0.74102,-0.57698 1.53862,-0.65833 2.0387,-0.20792 0.14977,0.1349 0.48985,0.29956 0.75574,0.36591 0.71517,0.17849 0.81168,-0.30077 0.22967,-1.14061 -0.41139,-0.59363 -0.45872,-0.79253 -0.3543,-1.48887 0.0663,-0.44203 0.23096,-0.89535 0.36593,-1.00737 0.13498,-0.11202 0.24541,-0.40099 0.24541,-0.64217 0,-0.38995 -0.0537,-0.42517 -0.48507,-0.3181 -0.26679,0.0662 -0.64382,0.26737 -0.83785,0.44702 -0.50326,0.46596 -1.2414,0.60573 -1.8555,0.35136 -0.28916,-0.11978 -0.52575,-0.27827 -0.52575,-0.3522 0,-0.0739 -0.19793,-0.17226 -0.43985,-0.21851 -0.56625,-0.10824 -0.90424,0.26117 -0.55682,0.60859 0.13763,0.13763 0.42365,0.59015 0.63559,1.0056 0.41472,0.81291 0.39037,0.95439 -0.43807,2.54543 -0.5018,0.96373 0.0225,0.98597 1.22217,0.0518 z m -20.960313,-0.36979 c 0.41784,-0.17458 0.70078,-0.45624 0.87344,-0.86949 0.32875,-0.78681 1.16202,-3.56537 1.27518,-4.25214 0.15003,-0.91046 0.53559,-1.19171 1.45127,-1.05861 0.4388,0.0638 0.97362,0.22884 1.18849,0.3668 0.21487,0.13796 0.51118,0.25084 0.65848,0.25084 0.36698,0 1.13145,-1.56789 1.35555,-2.78014 0.10142,-0.54863 0.29638,-1.15738 0.43325,-1.35279 0.13687,-0.19541 0.24885,-0.58088 0.24885,-0.8566 0,-0.27573 0.15218,-0.87322 0.33817,-1.32777 0.18599,-0.45455 0.38372,-1.02489 0.43941,-1.26742 0.20865,-0.90875 0.28273,-0.92918 1.883963,-0.51953 0.81598,0.20876 1.55901,0.45074 1.65117,0.53774 0.0922,0.087 0.42844,0.15818 0.74729,0.15818 0.48141,0 0.62521,-0.0972 0.84802,-0.57327 0.31998,-0.68369 0.83411,-1.54197 1.52037,-2.53812 0.27666,-0.40158 0.58015,-0.93305 0.67444,-1.18104 0.0943,-0.24799 0.43482,-0.83224 0.75675,-1.29833 0.32192,-0.46609 0.68655,-1.04588 0.81028,-1.28841 0.12373,-0.24253 0.4166,-0.75847 0.65083,-1.14653 0.23422,-0.38805 0.58098,-0.98337 0.77056,-1.32291 0.62072,-1.11173 0.9337,-1.17075 2.28273,-0.43046 0.64796,0.35557 1.2178,0.70394 1.2663,0.77415 0.0485,0.0702 0.60413,0.42403 1.23472,0.78629 1.81764,1.04417 3.28164,1.93808 3.5672,2.17812 0.15152,0.12737 0.3118,0.68558 0.3776,1.31507 0.0629,0.60157 0.27258,1.3974 0.46601,1.76851 0.19343,0.3711 0.35171,0.77151 0.35172,0.88979 2e-5,0.18624 0.87343,1.58242 2.2494,3.59576 0.94084,1.37665 4.51522,4.64499 5.07995,4.64499 0.11668,0 0.31835,0.12796 0.44815,0.28436 0.33182,0.39981 2.11209,1.18649 2.28356,1.00908 0.21919,-0.2268 0.32971,-3.82595 0.38417,-12.51093 l 0.0499,-7.9543 -0.81655,-0.95334 c -0.4491,-0.52434 -1.10718,-1.26009 -1.4624,-1.63499 -0.35523,-0.37491 -1.29464,-1.40678 -2.08759,-2.29306 -0.79296,-0.88627 -1.68269,-1.85096 -1.97718,-2.14375 -0.2945,-0.29278 -0.89264,-0.93193 -1.3292,-1.42033 -0.43656,-0.48839 -1.54781,-1.70852 -2.46945,-2.7114 -2.1821,-2.37446 -2.16022,-2.341 -1.93052,-2.95145 0.16163,-0.42955 0.92242,-1.70704 1.91549,-3.21641 0.93481,-1.42084 4.77143,-8.7173 4.78305,-9.09638 0.003,-0.099 0.20075,-0.57689 0.43936,-1.06196 0.23861,-0.48507 0.43457,-0.97473 0.43546,-1.08814 8.8e-4,-0.1134 0.11318,-0.4309 0.24954,-0.70555 0.52912,-1.06573 2.58242,-7.3255 2.57724,-7.85707 -0.002,-0.16619 0.1558,-0.70491 0.34983,-1.19716 0.19403,-0.49225 0.35278,-1.11985 0.35278,-1.39466 0,-0.27481 0.14762,-0.96641 0.32804,-1.53688 0.18042,-0.57046 0.38364,-1.54071 0.45159,-2.15609 0.0679,-0.61538 0.19488,-1.30648 0.28205,-1.53578 0.0872,-0.22929 0.27911,-1.56503 0.42651,-2.96831 0.1474,-1.40329 0.3641,-2.93468 0.48157,-3.40312 0.1486,-0.59257 0.21173,-2.83728 0.2075,-7.37808 -0.005,-5.44453 -0.0555,-6.75674 -0.30414,-7.91604 -0.16393,-0.76431 -0.3448,-2.153365 -0.40194,-3.086805 -0.0571,-0.93343 -0.20911,-1.93527 -0.33772,-2.22631 -0.1286,-0.29104 -0.31396,-1.12693 -0.41191,-1.85752 -0.0979,-0.7306 -0.30036,-1.62102 -0.44982,-1.97871 -0.14945,-0.3577 -0.27173,-0.84618 -0.27173,-1.08551 0,-0.23934 -0.0921,-0.65861 -0.20475,-0.93171 -0.11261,-0.2731 -0.34246,-0.9728 -0.51078,-1.55489 -0.78867,-2.72739 -2.09799,-6.0262 -3.38508,-8.52867 -0.26703,-0.519174 -0.48551,-1.01443 -0.48551,-1.10057 0,-0.08614 -0.31739,-0.613861 -0.70532,-1.172714 -0.38793,-0.558853 -0.70543,-1.074566 -0.70556,-1.14603 -1.7e-4,-0.125136 -1.54387,-2.436 -2.41704,-3.618329 -0.57006,-0.771901 -1.11455,-0.747764 -2.98424,0.132292 -0.82444,0.388055 -1.55267,0.705555 -1.6183,0.705555 -0.0656,0 -0.51735,0.191423 -1.00381,0.425385 -0.48646,0.23396 -1.00354,0.475872 -1.14906,0.53758 -0.14552,0.06171 -0.58208,0.303887 -0.97014,0.53817 -0.38805,0.234283 -1.01397,0.607527 -1.39093,0.829432 -0.69631,0.409894 -0.84488,0.50111 -1.78407,1.095307 -1.60822,1.017475 -2.16013,1.41931 -4.49792,3.274817 -2.85296,2.264405 -6.849313,6.143465 -8.815673,8.556945 -0.71138,0.87313 -1.38633,1.66688 -1.4999,1.76389 -0.18117,0.15475 -2.26201,2.85817 -2.87442,3.73442 -0.53221,0.76149 -2.55882,3.87333 -2.78979,4.28368 -0.28943,0.5142 -0.56545,0.96402 -0.97872,1.594975 -0.24269,0.37053 -0.95145,1.68645 -2.18515,4.05706 -0.12622,0.24253 -0.51439,1.03628 -0.86259,1.76389 -0.3482,0.7276 -0.70463,1.44198 -0.79208,1.5875 -0.0874,0.14552 -0.37176,0.78052 -0.63183,1.41111 -0.26008,0.63059 -0.57617,1.38465 -0.70243,1.67569 -0.12626,0.29104 -0.2878,0.72761 -0.35897,0.97014 -0.07121,0.24254 -0.187975,0.52035 -0.259565,0.61736 -0.15925,0.21581 -1.56008,4.38391 -2.16378,6.4382 -0.88388,3.00769 -0.99981,3.46159 -1.19392,4.6743 -0.10871,0.6791 -0.27591,1.44041 -0.37158,1.6918 -0.0957,0.2514 -0.28595,1.24358 -0.42284,2.20486 -0.13689,0.96128 -0.32313,2.14466 -0.41387,2.62973 -0.1792,0.95806 -0.55754,6.71889 -0.64334,9.79594 -0.0294,1.05373 -0.10123,1.99324 -0.15967,2.0878 -0.1363,0.22053 -1.65325,0.72533 -3.01253,1.00248 -0.58208,0.11869 -1.29646,0.29754 -1.5875,0.39744 -0.54824,0.1882 -0.71471,0.23126 -4.23333,1.09504 -1.16417,0.2858 -2.43417,0.60629 -2.82222,0.7122 -0.93418,0.25498 -2.3297,0.62325 -4.05695,1.0706 -0.77611,0.20101 -1.59955,0.45575 -1.82987,0.56608 -0.35621,0.17064 -1.41567,1.55526 -1.84936,2.41697 -0.22431,0.4457 -0.87618,1.485 -1.73871,2.77209 -0.4575,0.6827 -0.9683,1.52747 -1.1351,1.87725 -0.1668,0.34978 -0.36212,0.63597 -0.43404,0.63597 -0.0719,0 -0.39057,0.45641 -0.7081,1.01424 -0.31752,0.55783 -0.99804,1.6378 -1.51225,2.39994 -0.51421,0.76213 -0.93493,1.42227 -0.93493,1.46697 0,0.0447 -0.19081,0.33395 -0.42402,0.64277 -0.23322,0.30883 -0.86345,1.28551 -1.40053,2.17042 -1.12419,1.85225 -1.14847,2.25947 -0.14464,2.42547 1.20465,0.1992 4.37911,0.11624 5.25623,-0.13736 0.47195,-0.13646 1.25497,-0.3277 1.74004,-0.42499 1.00367,-0.2013 2.5696,-0.74308 3.35139,-1.15952 0.29104,-0.15503 0.64157,-0.28236 0.77895,-0.28296 0.47454,-0.002 2.78026,-1.57951 3.61831,-2.47545 0.46245,-0.49441 1.01163,-0.96232 1.2204,-1.03981 0.44115,-0.16375 7.25884,0.0155 7.43871,0.19562 0.0665,0.0666 0.3103,0.049 0.54182,-0.039 0.81633,-0.31037 0.90052,0.28167 0.74082,5.20964 -0.18395,5.67579 -0.13694,7.33 0.21308,7.49822 0.14552,0.0699 0.85989,0.30479 1.5875,0.52189 2.26528,0.67591 2.15548,0.59156 2.01753,1.55006 -0.0662,0.46023 -0.23576,1.15428 -0.37671,1.54233 -0.14096,0.38806 -0.33885,1.06275 -0.43976,1.49931 -0.1009,0.43656 -0.2604,0.88936 -0.35443,1.00622 -0.094,0.11686 -0.27385,0.67248 -0.39959,1.23472 -0.12575,0.56224 -0.33728,1.28664 -0.47008,1.60977 -0.22058,0.53672 -0.21142,0.60948 0.10583,0.84146 0.191,0.13966 0.66723,0.3344 1.05828,0.43274 1.4263,0.35868 1.50514,0.42979 1.50089,1.3536 -0.002,0.4629 -0.16088,1.18764 -0.35278,1.61054 -0.1919,0.42291 -0.34891,0.94002 -0.34891,1.14914 0,0.20913 -0.15875,0.67642 -0.35277,1.03843 -0.47993,0.89545 -0.46165,1.92953 0.0441,2.49351 0.98272,1.0959 3.286,1.78468 4.56073,1.36385 0.69351,-0.22894 1.294825,-1.227 1.487315,-2.46865 0.0657,-0.42354 0.26305,-1.09823 0.43863,-1.4993 0.17559,-0.40107 0.37352,-1.09966 0.43985,-1.55242 0.0985,-0.67258 0.19803,-0.84264 0.54375,-0.92941 0.46979,-0.11791 1.27395,0.0316 1.61485,0.30012 0.12186,0.096 0.47905,0.2268 0.79375,0.29063 0.45941,0.0932 0.58339,0.21268 0.62909,0.60627 0.0313,0.2696 -0.0621,0.6719 -0.20766,0.89398 -0.14551,0.22208 -0.32004,0.71304 -0.38785,1.09103 -0.0678,0.37798 -0.27415,1.02491 -0.45854,1.43762 -0.18506,0.4142 -0.35289,1.23256 -0.37462,1.82666 -0.0375,1.02587 -0.0116,1.09948 0.55317,1.5716 1.24454,1.04037 3.16891,1.46998 4.35838,0.97299 z m 9.72446,-18.9716 c -0.22922,-0.32725 -0.36927,-0.36051 -1.07336,-0.25493 -0.67704,0.10153 -0.82909,0.071 -0.92781,-0.18624 -0.0649,-0.16922 -0.0262,-0.45483 0.0862,-0.63469 0.28205,-0.45163 0.25544,-0.97161 -0.0756,-1.47678 -0.36781,-0.56136 -0.23668,-0.7269 0.67236,-0.84881 0.54716,-0.0734 0.89045,-0.25385 1.25159,-0.658 0.27369,-0.30629 0.530823,-0.52369 0.571403,-0.48312 0.0406,0.0406 0.2575,0.42519 0.48205,0.85469 0.25887,0.49514 0.61456,0.87324 0.972,1.03323 0.69877,0.31276 0.71037,0.60245 0.0486,1.21283 -0.28334,0.26132 -0.58558,0.75294 -0.67166,1.09249 -0.19443,0.76698 -0.91181,0.9546 -1.335753,0.34933 z m -9.86055,-2.67268 c -0.52476,-0.27609 -0.72696,-0.30424 -1.02802,-0.14312 -0.60806,0.32542 -0.92474,0.0921 -0.78186,-0.5761 0.0674,-0.31537 0.20377,-0.67411 0.30297,-0.7972 0.12776,-0.15852 0.0922,-0.32117 -0.12178,-0.55766 -0.17782,-0.19649 -0.27857,-0.53989 -0.24483,-0.83454 0.0483,-0.4219 0.14057,-0.503 0.58648,-0.51546 0.81786,-0.0229 1.26487,-0.22311 1.58352,-0.70945 0.36274,-0.55361 0.73363,-0.32601 0.89819,0.55119 0.0805,0.42926 0.24812,0.64254 0.62877,0.80021 0.28544,0.11824 0.60537,0.3764 0.71096,0.57369 0.19352,0.36159 0.0603,0.54667 -0.71445,0.99238 -0.13442,0.0773 -0.29424,0.44894 -0.35515,0.82577 -0.13196,0.81634 -0.47919,0.90886 -1.4648,0.39029 z m -9.868955,-2.93456 c -0.32754,-0.46763 -1.00396,-0.72934 -1.59371,-0.6166 -0.251,0.048 -0.62587,-0.003 -0.83303,-0.11434 -0.34766,-0.18606 -0.35597,-0.23111 -0.10796,-0.5852 0.34946,-0.49892 0.34208,-1.16639 -0.0173,-1.56348 -0.44311,-0.48964 -0.18434,-0.85831 0.60248,-0.85831 0.50088,0 0.79161,-0.11844 1.10215,-0.44899 0.63414,-0.67501 1.25319,-0.53404 1.49746,0.341 0.15535,0.55652 0.30582,0.72272 0.798435,0.88194 0.74771,0.24167 0.77957,0.63904 0.0778,0.9707 -0.662085,0.31291 -0.787675,0.49963 -0.791055,1.17615 -0.001,0.29676 -0.10924,0.68525 -0.23944,0.86332 -0.22766,0.31134 -0.24669,0.30956 -0.49587,-0.0462 z m 21.450008,-36.55862 c -0.74276,-0.76477 -0.90633,-0.79039 -2.681633,-0.41998 -0.52984,0.11054 -0.57326,0.085 -0.57326,-0.33667 0,-0.25095 0.16878,-0.80369 0.37508,-1.2283 0.40533,-0.83431 0.42877,-0.71233 -0.42639,-2.219 -0.17374,-0.3061 -0.26827,-0.63359 -0.21007,-0.72776 0.0582,-0.0942 0.64373,-0.17121 1.30119,-0.17121 1.171443,0 1.208053,-0.0141 1.828763,-0.70555 0.77768,-0.86628 1.25774,-0.91355 1.5239,-0.15007 0.1065,0.30552 0.19364,0.72978 0.19364,0.9428 0,0.48863 0.40985,0.85892 1.377,1.24409 0.52654,0.2097 0.72952,0.38104 0.66146,0.55839 -0.054,0.14073 -0.0982,0.32939 -0.0982,0.41925 0,0.0899 -0.29922,0.28312 -0.66494,0.42945 -0.8086,0.32354 -1.07337,0.71729 -1.21542,1.80751 -0.10391,0.79754 -0.31918,1.27497 -0.57489,1.27497 -0.0654,0 -0.43275,-0.32307 -0.81625,-0.71792 z m 2.56594,-12.92347 c -3.59072,-1.30805 -5.663553,-3.9762 -6.261433,-8.05975 -0.1452,-0.99172 0.44785,-3.59875 1.08634,-4.77552 2.014293,-3.71249 5.875883,-5.41432 10.202183,-4.49618 2.9536,0.62683 5.44169,2.88464 6.45428,5.85692 0.33955,0.99667 0.41108,1.55565 0.39779,3.10811 -0.0115,1.34267 -0.0915,2.00921 -0.27534,2.29306 -0.14252,0.22009 -0.31404,0.62306 -0.38115,0.89548 -0.30995,1.25806 -2.44041,3.68132 -3.8587,4.389 -2.06428,1.03002 -2.28056,1.08808 -4.27716,1.14816 -1.69083,0.0509 -2.08768,0.005 -3.08681,-0.35928 z m 42.25837,33.41155 c -0.37024,-0.40911 -0.35014,-0.75702 0.075,-1.29746 0.58133,-0.73904 0.46845,-0.87365 -0.61869,-0.73782 -0.66884,0.0836 -1.05279,0.0539 -1.23248,-0.0952 -0.51574,-0.42803 -0.78834,-0.0877 -0.67775,0.84604 0.0888,0.74938 0.0483,0.91378 -0.30621,1.24404 -0.60183,0.56069 -0.24062,0.86319 0.69575,0.58264 0.61796,-0.18514 0.77832,-0.16367 1.46087,0.19559 l 0.7667,0.40356 0.0573,-0.41719 c 0.0315,-0.22945 -0.0677,-0.55533 -0.22048,-0.72416 z m 14.96028,-1.74686 c 0.0492,-0.0796 -0.0652,-0.39904 -0.25417,-0.70982 -0.46268,-0.76082 -0.43249,-1.4259 0.0973,-2.14404 0.24254,-0.32874 0.44098,-0.70134 0.44098,-0.82802 0,-0.30245 -0.67865,-0.28361 -1.23473,0.0343 -0.60982,0.3486 -1.11066,0.32474 -1.62173,-0.0773 -0.23902,-0.18801 -0.6466,-0.39506 -0.90573,-0.46009 -0.40085,-0.10061 -0.47115,-0.0618 -0.47115,0.25985 0,0.20796 0.12796,0.5734 0.28436,0.81209 0.35232,0.53771 0.21147,1.48614 -0.28781,1.93798 -0.38144,0.3452 -0.42658,0.5719 -0.18868,0.94758 0.12873,0.20329 0.29352,0.17821 0.965,-0.14685 l 0.80977,-0.392 0.75208,0.43789 c 0.76874,0.44758 1.45461,0.5871 1.61448,0.32842 z m -12.92745,-9.10528 c 0.01,-0.68481 0.0718,-1.4396 0.13817,-1.6773 0.11136,-0.39912 0.82051,-0.91339 1.96091,-1.42204 0.24254,-0.10817 0.65945,-0.40511 0.92648,-0.65985 0.64146,-0.61195 0.41518,-0.73837 -1.36745,-0.76399 -2.22187,-0.0319 -2.25239,-0.0526 -3.18927,-2.16087 -0.27814,-0.62588 -0.8638,-1.06397 -1.17635,-0.87994 -0.0728,0.0428 -0.13229,0.82678 -0.13229,1.74207 v 1.66418 l -0.71577,0.5185 c -0.39368,0.28518 -0.93815,0.56735 -1.20994,0.62704 -0.27179,0.0597 -0.71121,0.33509 -0.9765,0.61199 -0.47799,0.49891 -0.47891,0.50453 -0.1023,0.62407 0.20902,0.0663 1.04486,0.11876 1.85743,0.1165 l 1.4774,-0.004 0.49978,0.82668 c 0.27488,0.45468 0.59792,0.98544 0.71787,1.17947 0.11995,0.19403 0.35381,0.61588 0.5197,0.93746 0.27602,0.53508 0.32082,0.55841 0.52808,0.27497 0.12872,-0.17604 0.23406,-0.84713 0.24405,-1.55482 z M 53.804432,125.09545 c 1.13347,-0.87481 2.10153,-1.30113 2.69971,-1.1889 0.32776,0.0615 0.68876,0.22365 0.80223,0.36037 0.11346,0.13672 0.43345,0.29847 0.71109,0.35945 0.27763,0.061 0.59937,0.22483 0.71496,0.36411 0.31499,0.37954 0.51976,0.30632 0.51976,-0.18586 0,-0.24152 -0.31739,-0.89636 -0.70532,-1.45521 -0.75824,-1.09233 -0.87804,-1.76305 -0.44929,-2.5154 0.79184,-1.38946 0.92842,-1.74314 0.74427,-1.92729 -0.23413,-0.23413 -0.76776,-0.2473 -0.90677,-0.0224 -0.22566,0.36513 -1.79176,1.30318 -2.13528,1.27899 -0.44228,-0.0311 -2.32077,-0.87338 -2.46368,-1.1046 -0.12443,-0.20134 -0.27418,-0.20499 -0.57525,-0.014 -0.28814,0.18276 -0.0399,0.7994 0.7998,1.98675 0.31694,0.44815 0.57513,0.96409 0.57376,1.14653 -10e-4,0.18244 -0.31154,0.89863 -0.68928,1.59152 -0.50241,0.92157 -0.63434,1.31228 -0.49141,1.45521 0.26366,0.26366 0.3607,0.24891 0.8507,-0.12927 z m 5.73347,-25.185235 c 0.91501,-0.53623 1.75249,-0.49763 2.58687,0.119255 0.72377,0.5351 1.37025,0.20174 0.77095,-0.397545 -0.13035,-0.13036 -0.45229,-0.57805 -0.71542,-0.99487 l -0.47841,-0.75785 0.37528,-0.82572 c 0.20641,-0.45415 0.44897,-0.96355 0.53904,-1.13201 0.23029,-0.43075 0.20933,-0.48746 -0.18019,-0.48746 -0.18916,0 -0.69677,0.23812 -1.12801,0.52916 -0.94775,0.63963 -1.09506,0.64651 -2.17039,0.10141 -0.46411,-0.23526 -0.90601,-0.38933 -0.982,-0.34236 -0.26396,0.16313 -0.13565,0.75815 0.30281,1.40426 0.53165,0.78344 0.55183,1.22343 0.0882,1.9235 -0.42586,0.64301 -0.46466,1.322915 -0.0755,1.322915 0.1525,0 0.63255,-0.20821 1.06678,-0.462685 z m 20.23833,-5.99173 c -0.0139,-0.37914 -0.12629,-1.28626 -0.24977,-2.01584 -0.28379,-1.67668 -0.17549,-2.087 0.72213,-2.73594 3.323325,-2.40262 3.436595,-2.87512 0.61123,-2.54967 -0.77611,0.0894 -1.69406,0.21175 -2.03989,0.27191 -0.61053,0.10619 -0.65916,0.0718 -1.67569,-1.18494 -0.57581,-0.71186 -1.14666,-1.39971 -1.26856,-1.52854 -0.1219,-0.12883 -0.30824,-0.39606 -0.41409,-0.59384 -0.17189,-0.32118 -0.221,-0.33106 -0.4596,-0.0925 -0.22785,0.22785 -0.24222,0.55687 -0.0977,2.2373 0.0932,1.08359 0.13353,2.158 0.0896,2.38758 -0.0725,0.37901 -1.38276,1.51804 -2.32867,2.02428 -0.63516,0.33992 -1.28193,1.09323 -1.09721,1.27795 0.19914,0.19914 0.3114,0.20047 3.05444,0.0362 l 2.05295,-0.12291 0.32423,0.5088 c 0.17832,0.27985 0.36595,0.5485 0.41694,0.59701 0.051,0.0485 0.43598,0.54002 0.85553,1.09226 1.08479,1.42788 1.54648,1.54785 1.50409,0.39082 z m 67.405828,-9.33699 c 0.55699,-0.34306 0.94406,-0.43475 1.83819,-0.43547 0.8146,-7e-4 1.22508,-0.0845 1.46182,-0.29881 0.20647,-0.18684 0.73677,-0.32738 1.42252,-0.37698 0.97251,-0.0704 1.19712,-0.16363 2.03236,-0.844 0.95321,-0.77649 2.47156,-2.605823 3.17615,-3.826697 0.50381,-0.872984 1.26966,-4.280888 1.26966,-5.649807 0,-2.050055 -1.27512,-6.290717 -1.89155,-6.290717 -1.25172,0 -3.92929,-2.958023 -3.92929,-4.340844 0,-0.224261 -0.0992,-0.49137 -0.22048,-0.593575 -0.96978,-0.817334 -3.28572,-1.944748 -3.99492,-1.944748 -0.25773,0 -0.63325,-0.115323 -0.83448,-0.256272 -0.48498,-0.339688 -3.2123,-0.521959 -4.56331,-0.304974 -1.06731,0.17142 -1.85064,0.405346 -2.82223,0.842803 -0.29104,0.131041 -0.75654,0.321227 -1.03443,0.422637 -0.81253,0.296504 -2.94165,2.014957 -3.57061,2.881909 -0.95255,1.312989 -1.29427,2.036064 -1.46476,3.099449 -0.0996,0.621114 -0.43229,1.650213 -0.73935,2.286885 -0.52976,1.09843 -0.55323,1.234514 -0.4593,2.66306 0.0631,0.958901 0.23033,1.793652 0.46075,2.299225 0.19897,0.436563 0.36423,1.071563 0.36725,1.411111 0.003,0.339549 0.20071,1.014236 0.43933,1.499306 0.23861,0.485069 0.43632,0.947095 0.43936,1.026726 0.0134,0.350363 1.69794,2.470559 2.73022,3.436209 1.13681,1.063424 2.8887,2.328034 3.22508,2.328034 0.0994,0 0.27255,0.11076 0.3849,0.24613 0.11235,0.13538 0.4991,0.30123 0.85945,0.36857 0.36034,0.0673 0.74982,0.20062 0.8655,0.2962 0.27498,0.22718 1.65632,0.45479 2.87648,0.47396 0.74071,0.0116 1.13699,-0.0875 1.67569,-0.41932 z m -1.19511,-2.86204 c -0.38635,-0.426913 -0.65697,-1.194557 -0.65697,-1.863547 0,-0.481397 0.10761,-0.619081 0.74965,-0.959145 0.41231,-0.218385 0.97181,-0.396843 1.24335,-0.396573 0.40965,3.53e-4 0.55161,0.128095 0.83397,0.750143 0.18715,0.412309 0.34202,0.991039 0.34415,1.286067 0.003,0.472611 -0.10837,0.593251 -0.93979,1.014237 -1.11268,0.563398 -1.20801,0.573618 -1.57436,0.168818 z M 138.68283,71.62971 c -0.56517,-0.241538 -0.7395,-0.69814 -0.63169,-1.654543 0.0801,-0.710967 0.17139,-0.879592 0.55644,-1.028159 0.54405,-0.209915 1.68968,-0.0924 2.05501,0.210803 0.28548,0.236927 0.35736,1.856856 0.10039,2.262425 -0.18724,0.295512 -1.55626,0.433375 -2.08015,0.209474 z m 9.29298,-1.309779 c -2.41912,-1.009214 -2.65299,-1.281728 -2.18326,-2.544016 0.5164,-1.387706 1.28703,-2.63591 1.69291,-2.74205 0.22458,-0.05873 0.86375,0.113421 1.56683,0.422003 0.65313,0.28666 1.27343,0.521201 1.37843,0.521201 0.33537,0 0.89648,0.691658 0.89648,1.105043 0,0.219717 -0.14708,0.676123 -0.32683,1.014236 -0.17976,0.338111 -0.42363,0.911163 -0.54194,1.273449 -0.2095,0.641561 -0.92013,1.377313 -1.31578,1.362316 -0.10819,-0.0041 -0.63326,-0.189583 -1.16684,-0.412182 z M 50.924732,83.476005 c 1.58284,-1.55151 2.13968,-1.74664 3.12398,-1.09477 0.50176,0.3323 1.66568,0.48038 1.90384,0.24222 0.19003,-0.19003 -0.35254,-1.014438 -1.00192,-1.522383 -0.84203,-0.658632 -0.97721,-1.419175 -0.48217,-2.712785 0.37742,-0.986275 0.47124,-1.671847 0.25797,-1.885119 -0.12718,-0.127175 -1.55804,0.957592 -2.03486,1.542672 -0.37425,0.45922 -1.71874,0.482283 -2.55876,0.04389 -0.62571,-0.326554 -1.64035,-0.396254 -1.64035,-0.112684 0,0.10006 0.11906,0.227614 0.26458,0.283455 0.14552,0.05584 0.26633,0.192257 0.26847,0.303145 0.002,0.110887 0.35933,0.59075 0.79375,1.066359 0.87564,0.95866 0.93596,1.277463 0.43709,2.31026 -0.42851,0.88711 -0.46791,2.20486 -0.0659,2.20486 0.0284,0 0.35886,-0.30111 0.73431,-0.66912 z m 13.56469,-20.530276 c 0.32607,-0.316039 0.68481,-0.894371 0.7972,-1.285182 0.11238,-0.390809 0.30874,-0.867129 0.43634,-1.05849 0.1276,-0.191359 0.23321,-0.627921 0.2347,-0.970139 0.001,-0.342215 0.061,-0.71103 0.13229,-0.819587 0.0713,-0.108557 0.7573,-0.255411 1.52449,-0.326343 0.7672,-0.07093 1.71187,-0.240799 2.09928,-0.377484 0.3874,-0.136686 1.14876,-0.298027 1.6919,-0.358537 0.54315,-0.06051 1.1066,-0.212355 1.25212,-0.337437 0.14552,-0.125081 0.48086,-0.281395 0.74521,-0.347365 0.51936,-0.129608 0.71899,0.03411 2.14413,1.758391 1.40444,1.699228 2.79228,2.130092 3.72507,1.156471 0.64741,-0.675748 0.81488,-2.185031 0.36257,-3.267557 -0.16049,-0.384113 -0.36894,-1.042576 -0.46322,-1.463249 l -0.1714,-0.764863 0.91576,-0.82413 c 0.60962,-0.548622 1.33324,-0.978065 2.164585,-1.284598 1.17501,-0.43325 2.50434,-1.036794 3.10091,-1.407876 0.14552,-0.09052 0.60012,-0.318731 1.01022,-0.507141 1.03432,-0.475195 2.48012,-1.442295 3.26721,-2.18546 0.52206,-0.492924 0.66146,-0.756077 0.66146,-1.248683 0,-0.541816 -0.0982,-0.686156 -0.74476,-1.094285 -0.41637,-0.262844 -1.29133,-0.573419 -1.98437,-0.704369 -0.68179,-0.128823 -1.59681,-0.311672 -2.03337,-0.406331 -0.43656,-0.09466 -2.47334,-0.175565 -4.526185,-0.179789 l -3.73242,-0.0077 -0.85369,-0.671206 c -1.15753,-0.910099 -2.15214,-1.354201 -4.00363,-1.787659 l -1.56245,-0.365788 -2.47663,0.361823 c -1.78583,0.2609 -2.59894,0.458036 -2.91516,0.706769 -0.24119,0.189722 -0.58036,0.34495 -0.75372,0.34495 -0.33223,0 -2.24175,1.216594 -2.98927,1.904531 -1.21179,1.115197 -1.41384,1.364278 -2.36607,2.9168 -0.16861,0.274889 -0.59804,0.614904 -0.95429,0.755583 -0.35626,0.140679 -1.00493,0.404036 -1.44149,0.585239 -0.43657,0.181202 -1.30969,0.54178 -1.94028,0.801283 -3.02108,1.243251 -6.42192,3.494269 -7.0488,4.665611 -0.55773,1.042113 0.54644,1.87367 2.99185,2.253197 2.2176,0.344169 5.60254,0.578136 6.65813,0.460208 0.99455,-0.111109 2.93962,0.218874 3.19481,0.542002 0.0855,0.108238 0.19562,0.875313 0.24477,1.704612 0.0961,1.621264 0.4267,2.492669 1.29224,3.406029 0.40352,0.42582 0.57429,0.488452 1.09941,0.403237 0.36436,-0.05913 0.8671,-0.338742 1.21455,-0.675506 z m -2.50617,-10.958156 c -1.22718,-0.242605 -2.20818,-0.797085 -2.55424,-1.443708 -0.21017,-0.392701 -0.20487,-0.489347 0.0402,-0.734453 0.31618,-0.316181 1.00586,-0.223116 1.42068,0.191708 0.13822,0.138213 0.73669,0.455595 1.32994,0.705291 1.02117,0.429803 1.24573,0.454136 4.21485,0.456692 3.04171,0.0026 3.98579,0.143805 3.41572,0.510815 -0.63318,0.40764 -6.2575,0.631877 -7.86718,0.313655 z m 8.74019,-0.996133 c -0.20651,-0.130609 -0.1574,-0.202041 0.24378,-0.354568 0.50979,-0.193822 1.16135,-0.101941 1.16135,0.163768 0,0.336615 -0.96698,0.467919 -1.40513,0.1908 z m -7.82121,-2.071222 c -0.33282,-0.08626 -0.65144,-0.718656 -0.65144,-1.292994 0,-0.488618 1.92939,-2.287655 2.45342,-2.287655 0.10114,0 0.44378,-0.158453 0.76142,-0.352118 0.31764,-0.193666 0.74117,-0.352416 0.94118,-0.352777 0.20001,-3.53e-4 0.99376,-0.16694 1.76389,-0.37017 1.44255,-0.380679 2.08643,-0.37709 3.91892,0.02184 1.8679,0.40664 2.53766,1.611268 1.43975,2.589511 -0.69471,0.618989 -1.71329,1.016956 -4.22302,1.64995 -1.69277,0.426942 -2.36418,0.50875 -4.05695,0.494311 -1.11566,-0.0095 -2.17188,-0.05447 -2.34717,-0.0999 z m 52.994148,12.779421 c 0.11765,-0.412309 0.3062,-0.868716 0.419,-1.014236 0.11281,-0.145521 0.30355,-0.513772 0.42386,-0.818335 l 0.21876,-0.55375 1.82813,-0.06767 c 1.00547,-0.03722 1.87894,-0.118489 1.94105,-0.180599 0.23856,-0.238554 -0.48095,-0.98058 -1.14322,-1.179 -0.3816,-0.114331 -1.00616,-0.412367 -1.3879,-0.662301 l -0.69408,-0.454424 -0.0731,-1.528595 c -0.0826,-1.727078 -0.17228,-1.96956 -0.67959,-1.836896 -0.23787,0.06221 -0.59479,0.589585 -1.06317,1.570941 l -0.70509,1.477297 h -1.47986 c -1.7544,0 -2.03788,0.08487 -2.03788,0.610121 0,0.318567 0.23278,0.500341 1.19062,0.929723 0.65485,0.293555 1.31779,0.576117 1.4732,0.627919 0.29895,0.09964 0.51118,1.144512 0.51118,2.516735 0,1.022681 0.13901,1.312724 0.62915,1.312724 0.33711,0 0.45517,-0.140723 0.62892,-0.749652 z m 12.3932,-11.523802 c 0.0589,-0.153455 0.10706,-0.786015 0.10706,-1.405691 v -1.12668 l 0.97014,-0.620591 c 1.00875,-0.645285 1.06729,-0.727581 0.80846,-1.136373 -0.1193,-0.188427 -0.39305,-0.21899 -1.15713,-0.129187 -1.14602,0.134692 -1.40456,-0.04756 -2.06045,-1.452464 -0.32031,-0.686117 -0.38853,-0.74114 -0.62532,-0.504349 -0.14619,0.146184 -0.28809,0.619954 -0.31533,1.052825 -0.0718,1.140947 -0.2322,1.517747 -0.76377,1.794334 -0.6504,0.338421 -1.32804,1.095173 -1.1862,1.324684 0.0644,0.104196 0.50411,0.189447 0.97714,0.189447 1.14541,0 1.73602,0.247763 1.99403,0.836505 0.29002,0.661775 0.83953,1.45655 1.00707,1.45655 0.0755,0 0.18541,-0.125553 0.2443,-0.27901 z"
       id="path12593"
       sodipodi:nodetypes="ssssssssssssscsssssssssscscsssssssssssssssssssssssssssssssssssccsssssssssssssccsssssssscssssssscccssscsscscscsccsscsssssssssssssssssssscssssscsssssssssssssssssssssssssssscssssssssssssssccssssssssssssssssssssssssssssssssscsssssssssssscssscssscscscsscsssscsssssssssssssssscsscssssssssssssssssssssssssssscssscssssssssssscsssssssssssscsssssssssccssssssssssssssscssssssscscssssssscsccsssssssssssssssssscssssssssscsssccssscsssscsssssssssscsssscsssscscssscccsssssssssssssssscssscssssssscssssssssssscssssssscssssccsssccscccssssscsssssssscssssssscscsssscscssscsssssssssssssscssssssssscssscccsscsssssssssscsssssssssccsscssssssssssssssscccscsscsccssssssssssssscssssscsssscssscsssssssssscssssssssssss" />
  </g>
</svg>
