<?xml version="1.0" encoding="UTF-8" standalone="no"?>
<!-- Sure Cuts A Lot -->

<svg
   version="1.1"
   scal:dpi="300"
   x="0px"
   y="0px"
   width="3543px"
   height="4134px"
   viewBox="0 0 3543.3 4133.7"
   xml:space="preserve"
   id="svg935"
   sodipodi:docname="Robi.svg"
   inkscape:version="1.1 (c68e22c387, 2021-05-23)"
   xmlns:inkscape="http://www.inkscape.org/namespaces/inkscape"
   xmlns:sodipodi="http://sodipodi.sourceforge.net/DTD/sodipodi-0.dtd"
   xmlns="http://www.w3.org/2000/svg"
   xmlns:svg="http://www.w3.org/2000/svg"
   xmlns:scal="http://www.craftedge.com/namespaces/surecutsalot"><defs
   id="defs939" /><sodipodi:namedview
   id="namedview937"
   pagecolor="#ffffff"
   bordercolor="#666666"
   borderopacity="1.0"
   inkscape:pageshadow="2"
   inkscape:pageopacity="0.0"
   inkscape:pagecheckerboard="0"
   showgrid="false"
   inkscape:zoom="0.18214804"
   inkscape:cx="1817.2032"
   inkscape:cy="2176.8008"
   inkscape:window-width="1920"
   inkscape:window-height="991"
   inkscape:window-x="-9"
   inkscape:window-y="-9"
   inkscape:window-maximized="1"
   inkscape:current-layer="svg935" />
<path
   id="Robi1.svg"
   style="fill-rule:evenodd;fill:none;stroke:#000000;stroke-width:4.40352244;stroke-miterlimit:4;stroke-dasharray:none"
   d="M 2083.15 3942.91 C 2106.09 3939.87 2114.62 3939.87 2120.91 3943.32 C 2127.61 3946.97 2132.69 3946.57 2148.33 3941.49 C 2183.05 3930.32 2255.74 3893.57 2295.54 3867.17 C 2329.66 3844.63 2337.78 3837.12 2360.32 3807.68 C 2374.53 3789.2 2393.01 3765.04 2401.54 3753.87 C 2410.07 3742.9 2425.7 3719.14 2436.06 3701.48 C 2457.58 3665.13 2501.85 3571.93 2506.72 3552.84 C 2514.64 3522.38 2516.27 3513.25 2520.33 3478.93 L 2524.59 3442.78 L 2534.95 3446.64 C 2543.48 3449.89 2546.52 3449.49 2551.39 3444.61 C 2556.88 3439.13 2556.67 3437.3 2549.16 3419.84 C 2544.69 3409.28 2535.56 3392.83 2528.86 3382.88 C 2522.15 3372.93 2516.67 3360.95 2516.67 3355.88 C 2516.67 3341.26 2503.88 3323.59 2493.32 3323.59 C 2486.42 3323.59 2476.47 3315.87 2454.74 3293.74 C 2426.31 3264.91 2390.57 3240.13 2370.67 3235.46 C 2354.63 3231.81 2344.89 3223.89 2344.89 3214.55 C 2344.89 3204.8 2334.94 3199.93 2322.14 3203.18 C 2316.46 3204.6 2310.37 3201.96 2301.84 3194.65 C 2290.67 3185.11 2287.62 3184.29 2271.38 3186.12 C 2256.56 3187.74 2250.67 3186.53 2236.25 3178.81 C 2215.13 3167.44 2203.15 3166.83 2200.51 3176.98 C 2198.68 3183.48 2196.25 3184.29 2177.77 3183.28 L 2156.85 3182.26 L 2124.57 3118.91 C 2106.9 3084.19 2087 3047.43 2080.51 3037.08 C 2068.93 3018.6 2067.71 3008.85 2077.05 3008.24 C 2079.49 3008.04 2084.97 3007.43 2088.83 3007.02 C 2092.89 3006.62 2122.54 2990.37 2154.82 2970.88 C 2186.91 2951.59 2241.73 2920.32 2276.46 2901.23 C 2325.39 2874.63 2339.4 2865.29 2339.4 2859.81 C 2339.4 2853.92 2337.17 2852.7 2327.83 2853.11 C 2321.53 2853.51 2309.76 2857.17 2301.84 2861.23 C 2293.72 2865.29 2286.61 2868.74 2285.59 2868.74 C 2282.14 2868.74 2284.17 2860.21 2288.84 2854.73 C 2292.7 2850.06 2293.11 2837.27 2290.87 2786.3 C 2287.01 2701.42 2286.2 2560.3 2289.45 2513.19 C 2291.68 2480.7 2293.11 2474 2298.79 2470.95 C 2306.3 2466.89 2307.93 2453.29 2301.03 2453.09 C 2297.98 2453.09 2298.39 2452.07 2301.84 2450.04 C 2309.55 2445.78 2384.48 2438.06 2414.94 2438.67 C 2434.23 2438.87 2441.34 2437.65 2442.76 2433.79 C 2443.77 2430.95 2452.1 2427.7 2461.85 2426.28 C 2504.49 2420.39 2558.1 2404.35 2583.27 2389.93 C 2597.29 2382.02 2600.33 2381.81 2641.55 2384.05 L 2685.01 2386.28 L 2694.55 2399.28 C 2711.2 2421.81 2736.58 2446.18 2743.49 2446.18 C 2755.87 2446.18 2787.75 2428.31 2804 2412.27 C 2838.52 2378.16 2858.62 2316.83 2838.72 2306.28 C 2834.66 2304.04 2827.55 2303.23 2822.88 2304.45 C 2817.2 2305.87 2808.87 2303.03 2796.28 2295.11 C 2781.46 2285.77 2778.41 2282.52 2780.24 2276.22 C 2783.89 2264.65 2789.17 2261.4 2813.95 2256.73 C 2871.62 2245.56 2871.21 2245.76 2882.38 2230.33 C 2896.59 2210.64 2907.96 2171.04 2908.17 2139.97 C 2908.57 2092.05 2880.35 2055.7 2853.75 2069.92 C 2850.09 2071.74 2838.52 2074.99 2827.96 2076.82 C 2817.4 2078.65 2805.01 2081.29 2800.55 2082.71 C 2786.13 2087.18 2791.41 2074.59 2808.26 2064.64 C 2819.84 2057.94 2827.96 2055.7 2839.53 2056.52 C 2853.95 2057.53 2855.37 2056.72 2861.26 2044.94 C 2869.18 2028.9 2869.79 1983.62 2862.27 1962.5 C 2854.36 1939.76 2834.66 1917.83 2812.53 1907.07 C 2801.76 1901.79 2792.22 1895.29 2791.2 1892.45 C 2788.56 1885.95 2769.68 1885.74 2764.2 1892.24 C 2761.96 1895.08 2753.64 1898.13 2745.72 1899.15 C 2725.41 1901.79 2713.84 1910.31 2713.84 1922.5 C 2713.84 1929.81 2708.15 1937.93 2691.3 1954.17 C 2671.81 1973.26 2666.73 1976.51 2651.1 1978.74 C 2641.15 1980.17 2632.62 1981.38 2631.8 1981.79 C 2630.99 1981.99 2627.54 1972.45 2624.29 1960.47 C 2612.72 1918.03 2596.27 1895.69 2567.23 1882.7 C 2549.97 1875.19 2523.98 1875.59 2490.48 1884.12 C 2466.72 1890.01 2431.79 1927.17 2430.98 1947.27 C 2430.78 1949.5 2435.45 1956 2441.34 1961.48 C 2451.29 1971.03 2465.1 1993.97 2483.78 2031.74 L 2492.3 2049.21 L 2476.06 2073.37 C 2467.13 2086.77 2457.18 2099.77 2454.13 2102.41 C 2450.88 2104.84 2435.25 2109.92 2419 2113.17 C 2394.43 2118.45 2389.15 2118.65 2386.11 2114.39 C 2382.25 2109.11 2378.19 2110.73 2357.27 2125.35 C 2350.17 2130.43 2341.23 2132.46 2325.6 2132.66 L 2303.67 2132.66 L 2303.67 2109.51 C 2303.67 2096.72 2302.04 2083.52 2300.01 2080.27 C 2291.89 2066.67 2272.6 2048.6 2266.1 2048.6 C 2262.44 2048.6 2258.38 2046.97 2257.17 2044.94 C 2254.12 2040.07 2221.63 2040.47 2204.57 2045.55 C 2193.81 2048.8 2180.61 2048.8 2148.53 2045.55 C 2125.58 2043.32 2080.91 2039.66 2049.44 2037.63 C 2017.76 2035.6 1962.53 2030.73 1926.39 2026.87 C 1890.24 2023.01 1849.83 2019.96 1836.63 2019.96 C 1823.23 2019.96 1811.46 2019.15 1810.64 2018.14 C 1807.8 2015.29 1816.13 1970.42 1820.19 1966.36 C 1822.62 1964.12 1831.96 1964.53 1848.82 1968.19 C 1862.63 1971.03 1881.1 1973.26 1890.04 1973.26 C 1912.98 1973.26 1999.69 1951.94 2142.44 1911.13 C 2152.39 1908.49 2172.49 1901.79 2187.31 1896.3 C 2215.13 1886.35 2224.07 1885.14 2243.76 1889.4 C 2254.32 1891.63 2256.96 1890.41 2268.94 1877.42 C 2276.25 1869.5 2285.39 1856.71 2289.25 1849.19 C 2293.11 1841.68 2301.43 1826.65 2307.52 1815.69 C 2313.61 1804.93 2326.61 1777.11 2336.15 1753.96 C 2347.53 1726.34 2355.85 1711.12 2360.11 1709.69 C 2365.39 1708.07 2366.21 1705.43 2364.58 1697.51 C 2363.16 1691.01 2365.6 1677.81 2371.08 1661.16 C 2388.54 1608.98 2398.29 1553.95 2398.49 1506.84 C 2398.49 1491.41 2400.12 1479.02 2401.94 1479.02 C 2403.98 1479.02 2407.22 1475.77 2409.46 1471.71 C 2412.5 1465.82 2411.49 1461.15 2403.77 1447.55 C 2398.7 1438.21 2390.57 1418.51 2385.7 1403.48 C 2375.34 1370.39 2363.77 1352.52 2351.59 1350.08 C 2337.98 1347.44 2245.39 1258.3 2242.54 1245.1 C 2240.72 1236.57 2236.25 1232.92 2217.98 1224.59 C 2205.79 1219.11 2186.91 1207.33 2176.15 1198.8 C 2149.14 1176.67 2142.44 1173.42 2137.16 1179.92 C 2134.72 1182.76 2134.11 1187.03 2135.53 1189.26 C 2138.78 1194.54 2133.1 1193.32 2087.61 1179.11 C 2069.34 1173.42 2054.51 1167.33 2054.92 1165.5 C 2055.33 1163.67 2061.01 1158.8 2067.51 1154.94 C 2114.62 1126.51 2130.46 1117.58 2137.77 1115.35 C 2142.23 1113.93 2150.97 1109.05 2156.85 1104.58 C 2174.32 1091.59 2244.37 1056.66 2271.38 1047.73 C 2285.19 1043.26 2307.73 1037.37 2321.53 1034.94 C 2335.34 1032.5 2349.15 1029.05 2352.4 1027.42 C 2360.32 1023.36 2369.86 1002.24 2369.86 988.639 C 2369.86 976.049 2371.28 975.643 2403.98 981.532 C 2415.75 983.563 2442.35 987.421 2463.06 990.263 C 2505.3 995.746 2540.23 1003.26 2552 1009.55 C 2557.89 1012.8 2559.72 1016.86 2559.72 1028.03 C 2559.72 1049.76 2572.72 1091.99 2585.1 1110.07 C 2591.19 1119 2603.58 1131.79 2612.51 1138.7 C 2628.35 1150.68 2629.98 1151.29 2665.51 1152.51 C 2706.94 1154.13 2728.66 1149.05 2757.09 1131.18 C 2777.8 1118.19 2809.68 1084.89 2822.27 1063.36 C 2861.06 996.761 2841.97 920.615 2778.21 887.517 C 2763.99 880.207 2757.09 879.191 2720.54 879.191 C 2679.32 879.191 2678.91 879.191 2651.3 893.202 C 2630.38 903.761 2618 913.305 2601.75 931.174 L 2580.23 955.135 L 2560.13 945.185 C 2532.51 931.377 2480.32 917.366 2446.62 914.523 C 2430.98 913.305 2414.33 911.883 2409.25 911.274 C 2404.38 910.868 2395.04 910.259 2388.75 910.056 C 2378.19 909.65 2376.16 907.416 2366 887.111 C 2359.91 874.927 2352.4 862.135 2349.35 858.683 C 2341.64 849.748 2345.9 842.844 2360.93 840.001 C 2371.69 837.971 2373.72 836.143 2372.91 829.645 C 2368.85 801.827 2262.85 836.143 2178.38 892.796 C 2095.13 948.231 1988.52 1050.98 1943.24 1119.2 L 1927.6 1142.76 L 1900.8 1140.73 C 1885.98 1139.71 1858.56 1137.28 1839.88 1135.25 C 1723.33 1123.47 1529.61 1138.7 1385.04 1171.19 C 1324.73 1184.79 1329.6 1185.6 1324.32 1162.05 C 1321.89 1150.68 1311.94 1117.17 1302.39 1087.32 C 1287.16 1040.01 1269.09 972.597 1261.37 935.438 C 1259.95 928.331 1260.36 923.864 1262.8 923.864 C 1264.83 923.864 1268.28 920.615 1270.31 916.757 C 1273.56 910.665 1272.75 908.838 1265.23 905.386 C 1258.33 902.34 1255.28 896.857 1252.03 882.034 C 1248.58 867.414 1248.58 861.728 1251.83 858.683 C 1257.52 852.794 1257.11 841.423 1251.02 841.423 C 1248.38 841.423 1242.9 833.503 1238.83 823.554 C 1234.77 813.807 1229.09 805.685 1226.25 805.685 C 1217.51 805.685 1212.23 815.431 1214.67 827.006 C 1216.9 836.955 1216.09 838.174 1199.04 846.296 L 1181.17 855.028 L 1162.28 829.645 C 1151.93 815.838 1126.54 785.785 1105.63 763.043 L 1067.86 721.619 L 1074.16 703.547 C 1082.28 679.789 1082.07 663.139 1073.14 639.381 C 1059.13 602.019 1022.78 580.089 974.861 580.089 C 945.418 580.089 924.503 587.805 902.979 606.689 C 876.784 629.431 864.195 654.61 864.195 683.851 C 864.398 717.355 875.769 743.955 901.354 770.759 L 921.863 792.08 L 958.007 790.862 C 992.121 789.643 994.963 789.034 1010.8 777.663 L 1027.66 765.682 L 1043.49 781.318 C 1079.03 816.041 1126.54 891.578 1112.94 891.578 C 1111.32 891.578 1104.21 899.7 1097.1 909.244 C 1081.67 930.768 1078.01 953.307 1089.38 955.541 C 1093.45 956.353 1097.91 959.196 1099.54 961.835 C 1103.4 968.739 1112.53 968.13 1120.86 960.617 C 1127.36 954.728 1127.97 954.728 1132.84 961.429 C 1137.1 967.318 1136.9 969.145 1131.01 975.643 C 1122.08 985.593 1118.22 1003.06 1124.11 1006.71 C 1131.62 1011.58 1133.65 1010.57 1139.74 998.995 C 1142.79 993.106 1146.85 989.248 1148.88 990.466 C 1162.49 998.792 1234.98 1172.81 1235.79 1199.21 C 1236.2 1210.99 1235.38 1211.8 1214.87 1219.31 C 1184.62 1230.28 1119.23 1259.11 1100.15 1269.87 L 1084.11 1278.81 L 1084.11 1270.08 C 1084.11 1265.41 1086.54 1259.52 1089.38 1257.08 C 1096.49 1251.19 1096.29 1239.41 1089.38 1236.77 C 1081.87 1233.93 1074.56 1240.84 1066.64 1258.3 C 1040.25 1316.37 1037.81 1320.43 1017.91 1335.66 C 1006.94 1344.19 998.212 1351.5 998.212 1352.11 C 998.212 1362.67 1016.08 1369.57 1021.36 1360.84 C 1022.58 1358.81 1025.63 1357.19 1027.86 1357.19 C 1030.9 1357.19 1032.12 1366.53 1031.92 1388.66 C 1031.11 1453.03 1037.81 1521.87 1055.88 1634.97 C 1072.73 1741.37 1102.38 1828.89 1126.54 1843.71 C 1132.64 1847.16 1140.96 1854.68 1145.02 1859.96 C 1155.78 1873.56 1165.53 1878.23 1172.03 1872.95 C 1179.34 1866.86 1178.53 1863.2 1167.76 1853.26 C 1157.21 1843.51 1161.47 1841.68 1176.5 1849.4 C 1209.39 1866.45 1367.17 1912.75 1433.36 1924.73 C 1451.03 1927.98 1467.88 1931.43 1470.93 1932.24 C 1474.99 1933.46 1476.21 1939.76 1476.21 1959.86 C 1476.21 1981.99 1475.4 1985.85 1469.71 1987.07 C 1466.06 1987.68 1460.17 1985.45 1456.31 1981.99 C 1448.19 1974.68 1422.8 1976.51 1383.21 1987.27 C 1312.95 2006.56 1285.94 2014.69 1242.08 2029.31 C 1198.22 2043.93 1193.55 2044.74 1186.65 2039.86 C 1182.38 2036.82 1167.76 2026.26 1153.96 2016.51 C 1140.15 2006.56 1125.33 1998.44 1121.26 1998.44 C 1113.35 1998.44 1088.37 1984.02 1060.96 1963.92 C 1049.79 1955.6 1044.31 1953.57 1039.84 1956 C 1035.37 1958.44 1033.34 1957.83 1031.51 1953.36 C 1028.67 1945.85 1042.88 1877.62 1052.23 1853.86 C 1060.55 1832.14 1061.16 1798.02 1053.24 1781.37 C 1045.12 1764.11 1020.55 1741.37 1002.48 1734.67 C 984.405 1727.77 956.586 1729.8 939.529 1739.54 C 928.97 1745.63 909.07 1779.55 890.592 1823 C 881.049 1845.54 874.348 1841.27 863.992 1806.15 C 845.108 1742.39 837.594 1728.78 814.649 1717 C 794.343 1706.24 744.391 1713.15 723.476 1729.59 C 698.297 1749.29 689.972 1784.01 704.389 1807.77 C 708.45 1814.27 711.496 1820.36 711.496 1821.17 C 711.496 1822.19 705.607 1821.98 698.094 1820.77 C 686.926 1818.94 681.85 1820.56 666.824 1830.72 C 645.909 1844.52 634.334 1864.42 630.883 1892.65 C 628.04 1914.78 630.07 1923.11 641.848 1936.91 L 650.376 1947.27 L 642.457 1951.53 C 624.385 1961.08 609.562 1994.38 613.623 2016.31 C 617.887 2039.86 624.588 2047.78 651.594 2061.39 C 665.808 2068.29 692.815 2084.94 711.496 2098.14 C 745.407 2122.1 745.61 2122.51 754.544 2147.69 C 769.57 2190.13 783.581 2203.93 816.273 2208.4 C 835.158 2210.84 846.935 2218.35 867.241 2241.3 C 878.409 2253.68 882.876 2256.32 889.577 2254.7 C 895.466 2253.07 907.649 2257.74 931.001 2270.13 C 949.276 2279.88 973.033 2289.83 983.795 2292.26 C 994.557 2294.7 1005.52 2297.14 1007.96 2297.75 C 1011.21 2298.76 1012.43 2312.57 1012.43 2351.35 C 1012.43 2401.71 1023.19 2560.71 1030.09 2612.69 C 1032.12 2626.5 1034.56 2649.04 1035.78 2662.84 C 1038.82 2696.96 1049.79 2745.08 1056.9 2755.84 C 1059.94 2760.72 1062.58 2767.62 1062.58 2771.48 C 1062.58 2775.34 1065.02 2784.88 1067.86 2793 C 1074.36 2811.48 1071.92 2811.68 1041.46 2795.44 C 1028.87 2788.54 1017.1 2783.86 1015.47 2784.88 C 1009.79 2788.54 1012.43 2800.52 1019.94 2804.58 C 1025.42 2807.42 1026.44 2809.65 1023.59 2812.5 C 1017.71 2818.38 1018.72 2827.52 1025.83 2833.61 C 1029.28 2836.46 1043.7 2843.16 1057.71 2848.64 C 1081.87 2857.78 1083.5 2859.2 1085.73 2871.59 C 1091.62 2902.65 1108.27 2915.04 1117.2 2894.73 C 1119.44 2889.25 1121.67 2884.38 1122.08 2883.77 C 1122.48 2882.96 1138.32 2890.88 1157.21 2901.03 C 1176.09 2911.18 1190.71 2920.93 1189.49 2922.76 C 1185.43 2929.46 1127.56 2972.71 1122.89 2972.5 C 1120.25 2972.3 1113.55 2966.41 1108.07 2959.1 C 1034.56 2861.03 989.075 2815.95 937.701 2790.16 C 899.121 2770.67 846.529 2763.36 817.086 2773.31 C 795.359 2780.82 787.236 2780.82 779.114 2773.31 C 767.54 2762.95 745 2764.37 706.217 2778.18 C 686.52 2785.08 664.793 2794.22 657.889 2798.48 C 651.188 2802.55 634.131 2811.68 620.324 2818.59 C 593.317 2831.99 587.428 2841.74 598.393 2854.12 C 602.658 2858.79 604.688 2870.77 605.907 2899.61 C 606.922 2921.13 609.358 2944.48 611.389 2951.18 C 616.262 2968.85 616.262 2969.05 602.658 2969.05 C 585.804 2969.05 579.103 2972.3 579.103 2980.02 C 579.103 2988.55 582.961 2990.58 603.47 2993.62 C 621.745 2996.26 626.415 3001.95 631.086 3027.33 C 633.522 3039.92 633.116 3040.73 624.182 3040.73 C 616.669 3040.73 614.841 3042.36 614.841 3049.67 C 614.841 3056.37 617.278 3059.01 624.791 3060.63 C 630.07 3061.85 636.568 3063.27 638.802 3064.08 C 641.238 3064.69 647.127 3078.09 652 3093.93 C 680.022 3182.47 712.308 3243.38 770.586 3318.31 C 848.153 3417.81 907.243 3474.46 948.87 3488.88 C 959.429 3492.53 961.865 3494.77 960.241 3500.05 C 959.022 3503.7 959.835 3508.78 961.865 3511.21 C 964.708 3514.46 962.881 3518.93 955.164 3528.07 C 943.387 3541.88 942.169 3546.55 949.276 3552.44 C 952.931 3555.48 958.007 3554.26 970.597 3547.97 C 990.09 3538.22 994.557 3540.66 994.557 3561.57 C 994.557 3580.86 998.009 3592.23 1003.49 3592.23 C 1012.02 3592.23 1016.08 3582.28 1019.94 3552.44 C 1021.97 3535.99 1025.83 3520.15 1028.47 3517.1 C 1031.31 3514.06 1042.88 3506.95 1054.26 3501.47 C 1065.83 3495.78 1082.89 3487.25 1092.23 3482.58 L 1109.08 3474.06 L 1109.08 3483.19 C 1109.08 3488.27 1106.64 3497.2 1103.6 3503.09 C 1096.9 3516.09 1099.33 3520.56 1112.94 3520.56 C 1126.34 3520.56 1129.59 3513.04 1132.84 3474.06 C 1135.07 3447.86 1136.29 3444.41 1147.46 3432.83 C 1157.41 3422.68 1159.44 3418.21 1157.82 3410.5 C 1155.99 3402.17 1158.02 3399.13 1170.4 3389.99 C 1192.94 3373.34 1227.46 3335.16 1234.57 3318.72 C 1238.23 3310.59 1242.29 3295.57 1243.71 3285.42 C 1245.33 3272.62 1248.18 3266.12 1252.85 3264.09 C 1256.5 3262.27 1294.47 3226.12 1337.52 3183.68 C 1380.37 3141.24 1432.96 3090.48 1454.28 3071.19 L 1493.27 3036.06 L 1531.24 3038.5 C 1552.35 3039.72 1578.35 3042.36 1589.11 3044.18 C 1599.87 3046.01 1624.03 3050.07 1642.92 3053.32 C 1661.6 3056.37 1685.36 3060.63 1695.71 3062.86 C 1711.75 3066.32 1715.41 3066.11 1721.09 3061.04 C 1738.56 3045.2 1765.97 3061.44 1777.14 3094.34 C 1789.53 3130.69 1810.03 3174.55 1818.77 3183.48 C 1823.84 3188.76 1838.26 3212.31 1850.65 3235.87 C 1863.03 3259.63 1877.85 3287.45 1883.34 3297.8 C 1889.02 3308.16 1893.49 3319.93 1893.49 3323.79 C 1893.49 3327.85 1895.93 3331.92 1898.97 3333.13 C 1906.89 3336.18 1905.47 3340.85 1896.33 3342.27 C 1888.21 3343.29 1873.18 3366.43 1865.47 3389.99 C 1863.44 3395.88 1857.75 3411.92 1852.68 3425.73 C 1838.66 3463.29 1829.12 3524.82 1829.12 3575.58 C 1829.12 3626.35 1837.65 3672.24 1854.1 3711.43 C 1865.67 3738.84 1866.89 3746.35 1861.41 3751.84 C 1854.71 3758.54 1847.4 3799.76 1850.85 3811.74 C 1852.68 3818.03 1854.1 3829.81 1854.1 3838.14 C 1854.1 3846.26 1856.33 3854.58 1858.97 3857.02 C 1865.06 3861.89 1875.62 3858.44 1875.62 3851.54 C 1875.62 3848.9 1878.06 3846.66 1881.1 3846.66 C 1883.95 3846.66 1886.38 3847.88 1886.38 3849.51 C 1886.38 3851.13 1895.11 3862.3 1905.88 3874.08 C 1942.22 3914.28 1998.88 3945.55 2037.05 3946.37 C 2046.19 3946.57 2066.9 3945.15 2083.15 3942.91 zM 2071.16 3901.69 C 2069.74 3897.83 2071.37 3895.42 2076.44 3894.12 C 2082.33 3892.56 2083.35 3890.32 2081.52 3881.92 C 2079.29 3871.95 2083.96 3867.58 2088.83 3875.21 C 2093.1 3882.14 2101.42 3878.69 2108.53 3867.17 C 2112.39 3860.76 2115.63 3854.38 2115.63 3852.76 C 2115.63 3847.48 2097.97 3850.36 2094.31 3856.41 C 2090.86 3862.14 2089.85 3861.81 2081.52 3852.57 C 2076.65 3847.01 2073.2 3841.24 2074.21 3839.76 C 2075.23 3838.26 2084.57 3835.09 2095.13 3832.71 C 2115.43 3828.17 2177.57 3798.13 2196.86 3783.55 C 2203.15 3778.84 2210.67 3774.99 2213.71 3774.99 C 2218.79 3774.99 2255.34 3831.58 2255.34 3839.33 C 2255.34 3849.77 2154.62 3894.4 2113.2 3902.3 C 2079.08 3908.84 2073.8 3908.76 2071.16 3901.69 zM 2236.05 3837.73 C 2238.89 3830.42 2225.49 3791.84 2219.6 3789.81 C 2215.74 3788.59 2215.34 3792.04 2216.96 3805.85 C 2220.41 3836.11 2230.36 3852.55 2236.05 3837.73 zM 1975.93 3821.28 C 1955.63 3817.22 1916.44 3798.13 1913.8 3791.03 C 1910.95 3784.12 1914.41 3784.33 1927.6 3792.04 C 1980.8 3823.92 2046.8 3819.05 2128.02 3777.22 C 2182.85 3748.99 2246.4 3690.92 2284.37 3634.06 C 2309.15 3597.11 2337.17 3542.49 2346.51 3513.45 C 2354.84 3487.46 2357.48 3485.43 2364.38 3498.83 C 2370.06 3509.79 2369.86 3510.61 2357.48 3535.78 C 2350.57 3549.8 2344.89 3563.4 2344.89 3565.63 C 2344.89 3568.07 2342.45 3571.93 2339.61 3574.37 C 2336.76 3576.6 2330.47 3586.95 2325.8 3597.11 C 2315.24 3619.85 2280.92 3666.35 2254.93 3692.54 C 2184.67 3764.22 2136.55 3793.87 2061.22 3812.14 C 2014.11 3823.72 1996.64 3825.55 1975.93 3821.28 zM 1959.28 3772.14 C 1910.75 3754.68 1886.99 3719.55 1870.34 3640.56 C 1861 3596.3 1863.03 3571.32 1882.53 3497.41 C 1890.24 3467.15 1914.2 3399.13 1918.87 3394.05 C 1920.29 3392.22 1923.34 3394.25 1925.57 3398.31 C 1931.26 3409.08 1966.59 3424.92 1984.46 3424.71 C 1992.58 3424.71 2012.48 3422.28 2028.52 3419.23 C 2061.42 3412.93 2101.62 3392.02 2129.85 3366.64 L 2146.09 3352.22 L 2163.96 3371.11 C 2173.71 3381.46 2191.98 3402.38 2204.37 3417.61 C 2225.29 3443.8 2237.47 3451.92 2237.47 3440.35 C 2237.47 3433.65 2210.67 3398.52 2181.63 3367.04 C 2155.84 3339.43 2152.59 3328.46 2176.35 3349.99 C 2184.27 3357.09 2192.19 3362.98 2194.01 3362.98 C 2195.64 3362.98 2213.91 3382.68 2234.22 3406.84 C 2254.73 3430.8 2276.66 3455.98 2282.95 3462.68 C 2289.45 3469.38 2294.73 3475.88 2294.73 3477.3 C 2294.73 3478.73 2299.6 3484.61 2305.49 3490.1 C 2311.38 3495.78 2316.25 3502.08 2316.25 3504.11 C 2316.25 3509.79 2283.77 3574.37 2270.16 3595.89 C 2228.53 3661.27 2165.18 3719.96 2102.03 3751.43 C 2052.69 3776 1993.8 3784.53 1959.28 3772.14 zM 2307.93 3475.07 C 2302.45 3469.59 2283.56 3445.83 2265.9 3422.07 C 2248.23 3398.52 2221.63 3365.83 2206.6 3349.58 C 2191.78 3333.34 2180.21 3318.11 2181.02 3315.67 C 2183.46 3307.95 2268.54 3401.36 2303.67 3450.7 C 2322.35 3476.69 2324.99 3491.72 2307.93 3475.07 zM 2308.13 3414.15 C 2295.34 3398.72 2281.13 3382.27 2276.46 3377.2 C 2271.79 3372.12 2256.76 3354.86 2243.36 3338.82 C 2229.96 3322.57 2214.93 3306.13 2209.85 3302.27 C 2204.98 3298.41 2201.53 3293.33 2202.34 3290.9 C 2205.39 3281.76 2327.63 3411.31 2335.14 3431.82 C 2340.62 3447.05 2329.25 3439.54 2308.13 3414.15 zM 1963.67 3394.86 C 1955.95 3393.04 1947.48 3389.79 1944.86 3387.55 C 1934 3378.62 1940.34 3374.96 1973.25 3371.11 C 2041.56 3363.39 2086.8 3338.41 2129.04 3285.01 L 2143.09 3267.14 L 2149.63 3279.32 C 2155.96 3291.1 2155.94 3291.71 2149.3 3304.3 C 2141.34 3319.12 2104.34 3356.49 2083.98 3370.29 C 2076.22 3375.37 2059.31 3383.09 2046.39 3387.35 C 2024.85 3394.46 2021.86 3394.66 2010.29 3389.79 C 1992.36 3382.27 1985.41 3382.88 1987.71 3391.61 C 1989.82 3399.74 1986.43 3400.14 1963.67 3394.86 zM 2311.18 3372.93 C 2288.84 3347.14 2256.76 3311 2249.85 3303.69 C 2230.77 3283.18 2226.3 3276.48 2240.51 3289.68 C 2269.96 3316.48 2328.64 3384.51 2322.55 3384.51 C 2321.94 3384.51 2316.86 3379.23 2311.18 3372.93 zM 947.448 3368.47 C 946.636 3367.65 927.549 3366.64 905.009 3366.43 C 863.789 3365.83 847.747 3361.36 847.747 3350.6 C 847.747 3347.35 854.042 3346.54 871.911 3347.55 C 890.389 3348.77 898.918 3347.75 908.664 3342.68 C 923.691 3334.76 925.112 3325.82 911.304 3324.2 C 905.618 3323.59 901.354 3320.95 901.354 3318.11 C 901.354 3314.25 906.431 3312.83 920.848 3312.83 C 951.712 3312.83 956.383 3316.08 963.49 3341.05 C 966.739 3353.03 969.378 3364.61 969.378 3366.64 C 969.378 3370.09 950.697 3371.71 947.448 3368.47 zM 1933.9 3346.33 C 1931.46 3345.32 1929.43 3341.46 1929.43 3337.6 C 1929.43 3332.12 1931.87 3330.7 1942.83 3330.7 C 1955.83 3330.7 1998.67 3318.72 2020.6 3308.97 C 2031.57 3304.3 2063.25 3282.98 2072.18 3274.25 C 2078.47 3268.16 2081.11 3271 2078.07 3280.74 C 2076.44 3285.21 2073.6 3287.65 2070.56 3286.43 C 2067.51 3285.21 2063.45 3288.26 2060.4 3294.15 C 2052.89 3308.36 2017.96 3340.04 2004.36 3344.71 C 1992.99 3348.57 1942.63 3349.78 1933.9 3346.33 zM 995.816 3310.19 C 994.476 3304.71 988.811 3290.09 983.207 3277.7 C 977.622 3265.11 973.054 3253.33 973.054 3251.1 C 973.054 3246.63 932.442 3163.38 919.325 3141.04 C 914.127 3132.11 903.649 3112.82 896.034 3097.99 C 862.164 3032.2 813.756 2956.46 774.626 2908.14 C 745.61 2872.4 702.541 2829.35 695.637 2829.35 C 692.592 2829.35 690.094 2827.12 690.094 2824.48 C 690.094 2819.6 707.293 2815.14 726.38 2815.14 C 731.558 2815.14 737.792 2812.7 740.249 2809.65 C 757.509 2788.94 810.892 2826.3 883.181 2909.76 C 948.667 2985.5 991.369 3048.85 1030.46 3128.45 C 1057.26 3183.07 1087.46 3264.09 1082.72 3268.97 C 1081.51 3270.19 1080.51 3269.17 1080.51 3266.94 C 1080.51 3260.64 1065.91 3261.86 1058.4 3268.76 C 1052.33 3274.25 1051.37 3274.25 1045.34 3268.76 C 1041.77 3265.52 1033.71 3261.86 1027.43 3260.64 C 1017.85 3258.61 1016.04 3259.42 1016.08 3264.91 C 1016.1 3268.76 1017.6 3274.04 1019.39 3276.89 C 1021.6 3280.34 1020.47 3284.81 1015.82 3290.69 C 1012.04 3295.57 1009.83 3300.85 1010.88 3302.47 C 1013.3 3306.33 1006.13 3320.14 1001.64 3320.14 C 999.776 3320.14 997.157 3315.67 995.816 3310.19 zM 1938.37 3299.63 C 1916.03 3294.76 1907.3 3290.09 1902.22 3280.34 C 1899.38 3274.45 1897.55 3268.36 1898.57 3266.73 C 1899.58 3265.31 1909.73 3265.11 1920.9 3266.73 C 1932.27 3268.16 1946.28 3268.56 1952.38 3267.34 C 1966.18 3264.7 2002.53 3246.63 2018.37 3234.65 C 2028.12 3227.14 2030.76 3226.53 2033.4 3230.79 C 2035.63 3234.24 2034.61 3237.49 2029.94 3241.35 C 2026.29 3244.19 2022.03 3251.91 2020.81 3258.21 C 2019.39 3264.7 2016.95 3269.98 2015.32 3269.98 C 2013.7 3269.98 2010.86 3274.65 2008.83 3280.34 C 2005.78 3289.07 2001.52 3291.91 1986.29 3296.58 C 1968.01 3302.07 1952.99 3303.08 1938.37 3299.63 zM 876.378 3290.9 C 861.555 3289.27 836.782 3286.84 821.147 3285.21 C 800.435 3283.18 791.907 3280.74 789.064 3276.28 C 783.175 3267.14 790.688 3260.64 800.435 3266.73 C 806.324 3270.39 808.76 3270.39 813.431 3266.53 C 818.101 3262.67 819.116 3262.88 819.116 3267.75 C 819.116 3275.67 830.081 3275.06 849.372 3265.72 C 865.21 3258 865.616 3258 870.49 3264.5 C 874.957 3270.59 876.987 3270.8 889.374 3267.14 C 896.887 3264.7 905.415 3261.25 908.055 3259.63 C 914.35 3255.57 910.289 3248.46 901.557 3248.46 C 897.496 3248.46 894.45 3245.21 893.435 3239.93 C 892.014 3231.81 892.623 3231.4 906.431 3233.23 C 914.553 3234.24 922.269 3236.07 923.691 3237.29 C 927.955 3241.15 947.245 3291.1 945.215 3293.13 C 942.575 3295.57 909.273 3294.76 876.378 3290.9 zM 1069.69 3289.68 C 1069.69 3286.63 1081.87 3273.43 1084.92 3273.43 C 1090.6 3273.43 1087.35 3280.14 1078.62 3285.62 C 1073.75 3288.87 1069.69 3290.69 1069.69 3289.68 zM 1892.68 3242.37 C 1887.6 3241.15 1871.97 3217.8 1871.97 3211.5 C 1871.97 3210.69 1881.31 3209.07 1892.68 3207.85 C 1919.89 3205 1944.86 3196.27 1968.01 3181.45 C 1978.57 3174.95 1988.52 3170.49 1990.55 3171.5 C 1992.38 3172.72 1993.8 3178.2 1993.8 3183.89 C 1993.8 3193.02 1992.58 3194.24 1984.05 3193.63 C 1974.71 3193.02 1974.1 3193.84 1972.28 3211.5 C 1971.26 3221.66 1969.23 3231.2 1968.01 3232.62 C 1960.3 3240.13 1909.53 3246.83 1892.68 3242.37 zM 853.027 3210.28 C 809.979 3208.25 746.625 3200.33 741.142 3196.27 C 730.99 3188.96 738.3 3180.64 754.341 3181.25 C 762.26 3181.65 768.961 3183.07 768.961 3184.29 C 768.961 3189.98 780.738 3190.79 790.282 3185.71 C 799.217 3181.25 800.841 3181.25 804.699 3185.92 C 810.588 3193.02 818.507 3192.42 850.184 3183.28 C 875.769 3175.76 884.704 3169.06 877.8 3162.57 C 874.754 3159.93 851.199 3164.8 835.767 3171.5 C 829.269 3174.14 829.269 3173.73 834.955 3162.77 C 840.843 3151.6 841.249 3151.4 863.18 3152.41 L 885.313 3153.43 L 896.481 3174.95 C 902.573 3186.73 908.664 3200.13 910.086 3204.6 C 912.929 3213.33 915.365 3213.13 853.027 3210.28 zM 1109.14 3206.22 C 1109.14 3204.6 1115.84 3196.88 1124.01 3189.17 L 1138.87 3174.95 L 1127.42 3192.01 C 1117.02 3207.44 1109.14 3213.53 1109.14 3206.22 zM 1868.51 3181.04 C 1859.38 3178.2 1847.19 3161.14 1851.25 3157.08 C 1852.47 3155.66 1867.09 3151.8 1883.74 3148.15 C 1900.19 3144.49 1924.35 3136.57 1937.15 3130.48 C 1949.94 3124.39 1961.51 3119.52 1962.94 3119.52 C 1966.59 3119.52 1965.58 3136.78 1961.51 3139.21 C 1959.48 3140.43 1958.27 3145.92 1958.87 3151.19 C 1959.69 3159.52 1957.25 3161.96 1938.37 3171.09 C 1916.03 3182.06 1886.18 3186.12 1868.51 3181.04 zM 1101.99 3173.73 C 1101.99 3172.11 1106.16 3167.03 1111.27 3162.16 L 1120.55 3153.43 L 1113.95 3165.21 C 1107.7 3176.17 1101.99 3180.23 1101.99 3173.73 zM 1088.98 3139.21 C 1087.35 3134.75 1093.85 3126.02 1112.53 3107.54 C 1139.95 3080.53 1140.35 3084.8 1113.75 3120.94 C 1095.88 3145.31 1092.23 3147.95 1088.98 3139.21 zM 1234.57 3132.51 C 1234.57 3126.83 1209.39 3108.35 1205.33 3110.99 C 1203.71 3112 1202.28 3115.46 1202.28 3118.71 C 1202.28 3122.16 1194.37 3107.74 1184.82 3086.62 C 1175.28 3065.71 1161.47 3038.9 1154.36 3027.13 C 1139.54 3002.76 1138.93 2999.31 1147.87 2994.43 C 1158.42 2988.95 1184.21 3008.45 1208.38 3040.73 C 1220.97 3057.38 1252.44 3117.69 1252.44 3125.2 C 1252.44 3128.05 1241.07 3137.18 1237.21 3137.18 C 1235.79 3137.39 1234.57 3135.15 1234.57 3132.51 zM 817.289 3126.42 C 805.511 3125 775.053 3122.56 749.874 3121.14 C 714.339 3119.11 703.374 3117.28 701.749 3113.22 C 699.11 3106.12 707.841 3101.45 715.151 3106.12 C 719.415 3108.76 724.695 3108.55 732.614 3105.91 C 738.909 3103.68 746.422 3102.87 749.468 3103.88 C 752.311 3105.1 762.26 3103.27 771.195 3099.82 C 785.206 3094.54 788.658 3094.34 796.374 3098.4 C 804.496 3102.66 805.918 3102.46 810.385 3096.37 C 813.228 3092.51 815.461 3087.43 815.461 3084.8 C 815.461 3082.16 817.898 3079.92 820.741 3079.72 C 846.123 3078.09 845.311 3077.49 859.322 3103.27 C 866.632 3116.67 872.723 3128.25 872.723 3129.06 C 872.723 3130.89 840.64 3129.47 817.289 3126.42 zM 1830.89 3113.63 C 1827.82 3106.32 1820.57 3092.51 1814.79 3083.17 C 1804.49 3066.52 1805.57 3056.57 1816.69 3065.91 C 1820.78 3069.36 1824.23 3069.16 1832.59 3065.71 C 1847.8 3059.41 1874.3 3063.88 1876.72 3073.02 C 1878.1 3078.5 1881.65 3080.12 1891.48 3080.12 C 1902.71 3080.12 1905.19 3081.75 1910.36 3092.51 C 1913.63 3099.42 1915.34 3106.12 1914.14 3107.33 C 1911.7 3109.77 1870.34 3120.74 1849.77 3124.59 C 1836.98 3126.83 1836.23 3126.42 1830.89 3113.63 zM 1069.69 3095.15 C 1069.69 3089.06 1101.77 3054.95 1107.46 3054.95 C 1111.11 3054.95 1078.62 3099.21 1073.95 3100.84 C 1071.52 3101.65 1069.69 3099.01 1069.69 3095.15 zM 1260.97 3088.04 C 1243.71 3044.59 1218.73 3011.09 1181.37 2980.83 L 1172.84 2974.13 L 1189.49 2960.52 C 1205.33 2947.53 1206.35 2947.12 1219.34 2951.39 C 1234.77 2956.46 1268.48 2978.6 1279.85 2990.98 C 1283.91 2995.65 1296.3 3012.3 1307.26 3027.94 C 1326.96 3055.96 1327.16 3056.37 1319.45 3060.43 C 1312.95 3063.68 1310.72 3063.27 1306.86 3057.99 C 1304.22 3054.34 1299.95 3051.49 1297.32 3051.49 C 1289.19 3051.49 1280.66 3062.26 1282.9 3069.77 C 1284.93 3075.86 1272.75 3101.65 1268.07 3101.65 C 1267.06 3101.65 1264.01 3095.56 1260.97 3088.04 zM 1052.63 3061.44 C 1049.38 3057.38 1052.63 3052.31 1069.89 3035.25 C 1100.15 3005.2 1098.32 3011.29 1062.38 3059.21 C 1057.71 3065.3 1056.29 3065.71 1052.63 3061.44 zM 756.372 3056.16 C 726.725 3054.54 711.496 3051.7 711.496 3047.64 C 711.496 3045.81 717.385 3044.18 724.695 3044.18 C 732.614 3044.18 739.315 3041.95 741.955 3038.5 C 745.407 3033.83 747.64 3033.42 753.732 3036.67 C 764.088 3042.15 780.535 3041.95 778.708 3036.26 C 777.896 3033.83 769.976 3028.14 761.042 3023.88 C 752.107 3019.61 743.782 3013.73 742.767 3010.68 C 740.939 3006.21 744.391 3005.6 766.321 3007.02 C 806.121 3009.87 806.527 3010.07 820.538 3033.02 C 827.645 3044.59 833.33 3055.15 833.33 3056.37 C 833.33 3058.6 800.841 3058.4 756.372 3056.16 zM 1033.95 3027.13 C 1033.95 3023.47 1040.45 3014.33 1048.16 3006.62 C 1065.63 2989.76 1066.44 2992.61 1051.21 3015.96 C 1039.23 3034.44 1033.95 3037.89 1033.95 3027.13 zM 1913.8 3023.88 C 1891.26 2947.12 1877.65 2900.01 1875.01 2888.64 C 1871.15 2872.19 1866.28 2865.09 1858.56 2865.09 C 1853.69 2865.09 1853.28 2871.18 1855.52 2910.78 C 1856.74 2935.95 1858.77 2962.15 1859.99 2969.05 C 1861.41 2977.17 1861 2980.22 1858.77 2977.99 C 1855.52 2974.74 1847.19 2937.58 1839.48 2892.3 C 1836.23 2873.21 1828.92 2862.65 1821.81 2867.12 C 1818.16 2869.15 1817.75 2886.61 1819.78 2944.48 C 1822.22 3020.22 1819.37 3038.9 1811.66 2996.87 C 1795.01 2904.48 1788.71 2875.85 1785.26 2873.62 C 1783.64 2872.6 1779.58 2873.82 1776.53 2876.46 C 1770.64 2881.33 1770.64 2881.74 1777.34 2988.75 L 1778.97 3017.38 L 1773.89 3001.34 C 1768.61 2985.5 1756.83 2918.9 1751.96 2878.69 C 1749.12 2855.34 1742.82 2847.22 1733.68 2854.93 C 1728.4 2859.2 1728 2867.73 1730.03 2935.95 C 1731.45 2977.78 1731.25 3012.1 1729.62 3012.1 C 1728.2 3012.1 1722.31 2983.47 1716.63 2948.54 C 1704.44 2872.8 1700.18 2856.76 1692.06 2855.14 C 1682.51 2853.31 1681.09 2868.13 1685.36 2917.27 C 1687.59 2941.84 1689.21 2968.04 1689.01 2975.35 L 1688.61 2988.75 L 1685.56 2976.16 C 1683.73 2969.26 1680.69 2952.4 1678.66 2938.59 C 1665.66 2852.7 1660.18 2835.64 1648.4 2847.42 C 1643.73 2852.09 1643.32 2910.98 1647.59 2969.05 C 1649.62 2997.07 1649.42 3009.05 1646.98 3006.62 C 1643.32 3003.17 1627.89 2919.91 1623.02 2877.68 C 1620.38 2854.93 1613.47 2840.11 1605.56 2840.11 C 1597.84 2840.11 1596.42 2856.76 1599.87 2904.68 C 1601.7 2929.25 1603.12 2960.73 1602.92 2974.33 L 1602.71 2999.51 L 1597.84 2976.16 C 1595.2 2963.37 1590.53 2936.77 1587.48 2917.07 C 1576.92 2849.25 1575.1 2843.16 1566.37 2844.38 C 1559.06 2845.39 1558.65 2847.02 1559.46 2881.33 C 1560.48 2923.16 1556.21 2918.49 1549.92 2870.57 C 1545.86 2839.1 1539.97 2826.1 1532.05 2830.97 C 1529.61 2832.4 1528.19 2848.03 1527.99 2871.59 C 1527.58 2916.46 1527.38 2916.05 1519.05 2860.42 C 1513.98 2827.32 1511.34 2817.37 1506.06 2814.73 C 1494.69 2808.64 1491.23 2825.49 1495.7 2864.07 C 1497.73 2882.14 1499.36 2899.81 1499.36 2903.47 C 1498.95 2913.82 1489.41 2876.26 1486.77 2853.51 C 1483.92 2829.55 1478.24 2820.01 1469.1 2823.46 C 1463.42 2825.69 1463.01 2830.36 1464.84 2876.86 L 1467.07 2927.83 L 1461.79 2897.37 C 1456.92 2867.93 1450.62 2832.8 1447.17 2815.74 C 1445.95 2809.45 1443.52 2807.62 1437.63 2808.64 C 1429.71 2809.65 1429.71 2810.26 1430.32 2870.57 C 1430.93 2930.47 1427.68 2940.22 1422.8 2893.11 C 1418.74 2854.93 1411.03 2814.53 1406.97 2810.67 C 1404.94 2808.64 1400.67 2808.03 1397.42 2809.25 C 1392.55 2811.07 1391.74 2816.96 1392.35 2845.59 C 1392.75 2864.28 1392.14 2880.52 1391.13 2881.74 C 1390.11 2882.75 1388.08 2870.98 1386.66 2855.54 C 1385.24 2840.11 1382.4 2817.98 1380.16 2806 C 1376.71 2788.54 1374.68 2784.47 1368.39 2783.46 C 1361.89 2782.65 1360.47 2784.47 1359.04 2795.85 C 1358.23 2803.16 1358.84 2823.05 1360.26 2839.91 C 1361.68 2856.76 1362.9 2878.69 1362.7 2888.44 L 1362.5 2906.31 L 1359.86 2888.44 C 1358.23 2878.69 1354.37 2853.31 1351.33 2832.19 C 1344.42 2786.71 1342.8 2782.04 1335.29 2783.66 C 1330.21 2784.68 1329.4 2791.17 1329.8 2834.02 C 1330.01 2861.03 1329.2 2882.14 1327.98 2881.13 C 1325.95 2879.1 1323.92 2868.74 1312.14 2799.3 C 1307.67 2772.9 1298.94 2761.33 1291.43 2772.09 C 1287.97 2777.16 1288.18 2784.88 1293.46 2852.7 C 1296.1 2887.42 1290.21 2868.13 1282.9 2818.79 C 1275.18 2766.2 1272.75 2756.05 1266.25 2754.83 C 1258.13 2753.41 1256.5 2763.15 1259.75 2797.47 C 1262.8 2829.55 1263.4 2859.81 1260.56 2843.77 C 1253.86 2804.58 1244.93 2766.81 1241.68 2763.56 C 1238.63 2760.51 1236.4 2761.33 1232.95 2765.79 C 1226.04 2775.13 1224.82 2773.71 1223 2754.02 C 1220.76 2730.66 1214.87 2724.37 1205.94 2735.13 L 1199.64 2743.05 L 1197.61 2728.43 C 1196.6 2720.51 1193.76 2711.98 1191.52 2709.75 C 1185.43 2703.66 1176.29 2717.67 1178.73 2729.85 C 1179.75 2735.13 1179.14 2740.41 1177.51 2741.43 C 1176.09 2742.44 1173.04 2730.87 1170.81 2716.04 C 1164.52 2670.36 1148.88 2665.48 1148.07 2708.73 L 1147.66 2734.52 L 1141.98 2707.52 C 1135.28 2677.87 1132.64 2671.78 1125.33 2671.78 C 1121.87 2671.78 1119.84 2677.26 1119.03 2688.83 C 1117.81 2706.5 1116.59 2704.47 1110.91 2677.06 C 1109.69 2671.17 1106.64 2668.12 1101.77 2668.12 C 1084.92 2668.12 1078.22 2632.38 1068.67 2492.68 C 1063.8 2422.42 1063.19 2203.33 1067.45 2155 L 1070.5 2123.32 L 1090.6 2125.55 C 1101.77 2126.98 1121.47 2131.24 1134.26 2135.3 C 1147.05 2139.57 1177.31 2148.09 1201.47 2154.19 C 1225.84 2160.48 1247.36 2167.59 1249.8 2169.82 C 1252.03 2172.05 1264.01 2173.88 1276.6 2173.88 C 1290.21 2173.88 1303.61 2176.12 1310.31 2179.57 C 1316.2 2182.61 1323.1 2184.44 1325.54 2183.43 C 1328.18 2182.41 1337.11 2183.02 1345.85 2184.85 C 1354.58 2186.47 1395.39 2193.58 1436.82 2200.69 C 1478.24 2207.59 1519.26 2215.1 1528.19 2216.93 C 1558.85 2223.63 1612.46 2231.75 1655.3 2236.63 C 1679.06 2239.27 1714.39 2243.73 1734.09 2246.78 C 1753.79 2249.62 1789.12 2252.87 1812.27 2253.89 C 1835.62 2254.9 1855.52 2256.53 1856.74 2257.74 C 1857.96 2258.76 1856.74 2270.74 1854.5 2283.94 C 1845.97 2330.84 1843.74 2362.72 1843.54 2437.45 C 1843.34 2552.38 1854.71 2673.6 1875.22 2772.09 C 1877.25 2781.02 1882.12 2816.35 1886.38 2850.87 C 1890.65 2885.39 1896.54 2917.07 1899.18 2921.33 C 1901.82 2925.6 1906.49 2941.84 1909.53 2957.07 C 1912.58 2972.5 1916.64 2993.62 1918.87 3003.98 C 1923.54 3026.92 1923.54 3027.74 1919.08 3029.16 C 1917.25 3029.77 1914.81 3027.33 1913.8 3023.88 zM 1784.04 2834.43 C 1788.31 2832.8 1789.73 2827.03 1789.73 2811.28 C 1789.73 2799.78 1791.35 2789.39 1793.18 2788.17 C 1798.46 2784.96 1797.65 2771.72 1791.76 2765.18 C 1786.07 2758.79 1783.23 2717.59 1787.49 2704.73 C 1789.32 2699.03 1788.31 2693.5 1783.64 2686.8 C 1777.54 2677.87 1777.14 2668.12 1777.75 2555.43 C 1777.95 2488.42 1778.97 2430.36 1779.98 2426.42 C 1781.2 2422.48 1782.01 2413.98 1782.21 2407.54 C 1782.42 2398.32 1784.45 2395.05 1791.76 2392.25 C 1799.68 2389.24 1800.9 2387.29 1798.66 2378.91 C 1797.44 2373.49 1793.99 2366.58 1791.15 2363.54 C 1788.31 2360.29 1786.07 2350.58 1786.07 2341.63 C 1786.07 2315.19 1767.59 2305.26 1757.85 2326.5 C 1755.61 2331.41 1753.79 2338.78 1753.79 2342.89 C 1753.79 2349.67 1752.37 2350.16 1736.93 2348.31 C 1631.34 2335.76 1434.38 2300.18 1314.78 2272.16 C 1303 2269.32 1290.41 2267.04 1287.16 2267.09 C 1283.91 2267.04 1278.63 2263 1275.39 2258.09 C 1268.89 2248.22 1259.14 2246.45 1252.85 2254.03 C 1249.39 2258.11 1243.3 2257.48 1215.69 2250.11 C 1197.41 2245.28 1181.78 2240.69 1180.96 2239.67 C 1179.95 2238.86 1179.54 2231.35 1179.95 2223.02 C 1180.76 2202.11 1178.12 2195.41 1168.78 2195.41 C 1160.45 2195.41 1159.24 2198.41 1150.51 2239.23 C 1149.08 2245.64 1146.24 2248.85 1142.18 2248.51 C 1123.09 2246.92 1116.39 2249.22 1116.39 2257.2 C 1116.39 2268.91 1120.25 2272.97 1133.25 2275.82 L 1144.82 2278.31 L 1142.79 2329.1 C 1141.57 2357.02 1138.32 2388.39 1135.28 2398.83 C 1131.82 2411.46 1131.21 2419.24 1133.65 2422.12 C 1135.48 2424.49 1138.12 2440.92 1139.54 2458.67 C 1140.76 2476.4 1145.02 2519.69 1148.88 2554.82 C 1152.54 2589.95 1154.57 2622.84 1153.35 2627.92 C 1152.13 2632.99 1147.05 2640.73 1141.98 2644.99 C 1130.81 2654.64 1133.45 2664.61 1147.26 2664.61 C 1152.74 2664.61 1160.66 2667.98 1164.92 2672.1 L 1173.04 2679.57 L 1180.76 2671.78 C 1188.07 2664.51 1189.09 2664.47 1205.13 2669.54 C 1230.1 2677.46 1365.75 2713.04 1452.86 2734.52 C 1473.37 2739.54 1491.84 2745.08 1494.08 2746.79 C 1497.94 2749.97 1595.61 2774.56 1642.92 2784.21 C 1697.13 2795.3 1747.7 2804.29 1755.82 2804.29 C 1762.11 2804.29 1764.55 2806.81 1766.58 2815.95 C 1768.61 2826.1 1774.09 2836.46 1777.34 2836.46 C 1777.95 2836.46 1780.79 2835.54 1784.04 2834.43 zM 1699.16 2663.66 C 1662.41 2654.11 1658.15 2652.28 1665.25 2648.83 C 1673.78 2644.36 1673.78 2644.16 1682.31 2572.48 C 1686.58 2535.53 1690.03 2529.23 1694.29 2550.55 C 1697.34 2565.98 1702.82 2571.47 1714.6 2571.47 C 1722.31 2571.47 1725.36 2569.23 1728.2 2560.71 C 1732.26 2549.33 1734.7 2548.12 1743.03 2553.4 C 1750.34 2558.07 1753.18 2675.64 1746.07 2675.03 C 1743.43 2674.82 1722.31 2669.75 1699.16 2663.66 zM 1617.76 2642.74 C 1604.95 2639.09 1561.43 2627.9 1521.04 2617.85 C 1423.6 2593.58 1375.07 2580.18 1338.98 2567.59 C 1322.58 2561.84 1305.32 2557.15 1300.63 2557.15 C 1290.86 2557.15 1286.51 2545.52 1282.59 2508.8 C 1280.4 2488.15 1280.54 2487.6 1286.27 2495.38 C 1299.02 2512.58 1313.32 2501.86 1313.32 2475.02 C 1313.32 2456.74 1319.35 2455.99 1322.58 2473.88 C 1329.13 2510.08 1354.88 2527 1369.5 2504.7 L 1375.72 2495.22 L 1384.81 2523.44 C 1391.9 2545.44 1396.04 2552.85 1403.66 2557.05 C 1418.54 2565.31 1423.09 2557.86 1427.84 2517.25 C 1434.22 2462.83 1437.99 2456.17 1438.36 2498.57 C 1438.66 2534.94 1447.01 2587.24 1453.83 2595.65 C 1458.87 2601.89 1472.68 2601.26 1478.22 2594.58 C 1480.76 2591.51 1484.47 2574.01 1486.46 2555.65 L 1490.08 2522.31 L 1504.66 2522.94 C 1512.7 2523.32 1522.95 2525.58 1527.46 2528.01 C 1531.97 2530.45 1538.85 2531.99 1542.77 2531.38 C 1547.38 2530.67 1551.44 2533.33 1554.26 2538.9 C 1556.68 2543.65 1563.04 2550.78 1568.4 2554.76 C 1576.5 2560.77 1579.65 2561.29 1587.02 2557.94 C 1596.19 2553.76 1597.98 2548.93 1607.36 2504.26 C 1609.94 2492.07 1613.35 2481.94 1614.92 2481.94 C 1616.48 2481.94 1617.76 2496.28 1617.76 2513.78 C 1617.76 2531.81 1620.83 2560.18 1624.83 2579.14 C 1634.55 2625.16 1635.79 2629.2 1643.61 2640.43 C 1651.71 2652.06 1650.35 2652.28 1617.76 2642.74 zM 1230.31 2635.43 C 1221.37 2632.18 1222.79 2630.96 1258.73 2612.28 C 1289.6 2596.04 1298.33 2592.99 1307.47 2595.02 C 1328.99 2599.49 1330.01 2602.33 1312.95 2610.86 C 1304.42 2615.33 1294.47 2621.22 1291.02 2624.26 C 1287.37 2627.51 1281.68 2628.73 1277.01 2627.71 C 1272.14 2626.29 1265.44 2628.32 1259.34 2632.59 C 1248.58 2640.3 1244.52 2640.71 1230.31 2635.43 zM 1186.65 2611.88 C 1185.63 2608.42 1183.81 2591.57 1182.38 2574.72 C 1180.15 2544.46 1180.15 2543.85 1188.48 2541.62 C 1201.47 2538.17 1202.69 2538.78 1198.22 2545.88 C 1191.32 2556.64 1196.8 2564.36 1211.22 2564.36 C 1219.95 2564.36 1224.82 2562.33 1226.25 2558.27 C 1227.67 2554.82 1226.85 2551.57 1224.42 2550.76 C 1222.18 2549.94 1220.15 2548.12 1220.15 2546.49 C 1220.15 2541.82 1249.6 2524.16 1252.24 2527.2 C 1254.88 2530.45 1264.22 2578.98 1262.39 2580.2 C 1247.36 2590.35 1195.58 2617.97 1191.93 2617.97 C 1189.9 2617.97 1187.66 2615.12 1186.65 2611.88 zM 1648.81 2535.73 C 1647.59 2518.88 1646.37 2479.89 1646.37 2448.82 C 1646.37 2392.57 1646.37 2392.57 1637.44 2386.69 C 1628.91 2381 1627.89 2381.2 1621.39 2386.89 C 1612.66 2395.01 1595.81 2435.62 1584.84 2474.81 L 1576.52 2505.27 L 1575.5 2488.01 C 1574.49 2473.8 1572.86 2470.14 1565.55 2466.89 C 1558.85 2463.85 1555.6 2463.85 1552.56 2466.89 C 1545.86 2473.59 1543.01 2471.97 1539.77 2459.58 C 1536.52 2447.6 1534.69 2446.59 1497.33 2440.29 C 1487.17 2438.47 1485.75 2439.28 1480.47 2453.09 C 1477.22 2461.21 1474.58 2469.74 1474.58 2472.38 C 1474.58 2474.81 1472.15 2480.09 1469.3 2483.95 C 1464.84 2490.04 1464.43 2482.93 1466.26 2427.5 C 1468.49 2358.26 1467.48 2352.98 1449.81 2352.98 C 1442.3 2352.98 1439.25 2355.62 1435.6 2364.55 C 1426.46 2388.11 1414.07 2430.55 1409.81 2452.27 C 1407.37 2464.66 1404.33 2473.8 1402.9 2472.98 C 1401.48 2472.17 1399.05 2461.41 1397.63 2449.02 C 1394.78 2422.83 1391.33 2415.52 1381.18 2412.88 C 1371.84 2410.44 1359.86 2421.41 1359.86 2432.78 C 1359.86 2437.04 1357.62 2448.01 1354.78 2456.94 L 1349.91 2472.98 L 1347.47 2455.12 C 1346.25 2445.17 1342.8 2426.48 1339.75 2413.49 C 1335.29 2394.4 1332.44 2388.92 1325.34 2385.67 C 1312.14 2379.78 1304.22 2385.87 1299.14 2405.77 C 1293.66 2427.5 1290.01 2421.21 1287.16 2385.87 C 1285.94 2371.46 1283.1 2357.04 1280.66 2354.2 C 1276.2 2348.92 1274.78 2308.1 1278.63 2304.04 C 1279.65 2303.03 1299.55 2306.48 1322.9 2311.76 C 1346.25 2317.04 1387.07 2325.97 1413.67 2331.66 C 1459.76 2341.4 1487.58 2347.5 1561.29 2363.94 C 1579.56 2368 1604.95 2372.88 1617.74 2374.91 C 1630.53 2376.94 1653.88 2381 1669.72 2384.05 C 1685.36 2387.29 1710.33 2390.75 1724.95 2391.97 L 1751.55 2394.2 L 1750.74 2456.74 C 1750.13 2491.26 1749.32 2519.89 1748.91 2520.3 C 1748.3 2520.91 1740.79 2517.66 1732.06 2512.99 C 1717.24 2505.07 1716.22 2503.65 1714.39 2486.59 C 1712.16 2464.86 1705.87 2456.13 1693.28 2457.55 C 1685.97 2458.36 1682.11 2462.83 1674.8 2478.06 C 1666.47 2495.73 1662.82 2508.32 1654.09 2551.77 C 1651.65 2564.97 1651.04 2563.55 1648.81 2535.73 zM 1332.32 3019.61 C 1330.01 3015.96 1320.75 3003.78 1311.75 2992.81 C 1302.76 2981.85 1295.41 2971.9 1295.41 2970.88 C 1295.41 2969.86 1301.44 2971.29 1308.83 2974.13 C 1316.22 2976.77 1327.9 2980.42 1334.8 2982.25 C 1345.95 2985.09 1347.45 2986.92 1348.44 2998.5 C 1349.5 3011.29 1344.44 3026.31 1339.1 3026.31 C 1337.68 3026.31 1334.64 3023.27 1332.32 3019.61 zM 1960.09 3008.85 C 1956.64 3003.17 1941.41 2947.73 1933.49 2911.79 C 1918.87 2844.38 1906.89 2752.8 1900.6 2657.36 C 1896.94 2602.74 1890.44 2389.73 1890.24 2310.74 L 1890.04 2270.33 L 1902.42 2265.05 C 1909.13 2262.21 1919.08 2259.98 1924.35 2259.98 C 1929.43 2259.98 1944.46 2252.87 1957.45 2244.14 C 1970.65 2235.41 2000.3 2219.16 2023.65 2208.2 C 2067.31 2187.28 2079.69 2185.46 2079.69 2199.47 C 2079.69 2203.73 2082.74 2207.59 2086.6 2208.6 C 2092.08 2210.03 2089.85 2213.68 2072.38 2230.53 C 2045.38 2257.14 2039.08 2276.83 2038.88 2335.11 C 2038.68 2373.89 2039.29 2377.55 2049.23 2397.45 C 2058.98 2416.53 2066.09 2424.25 2094.11 2445.78 L 2103.04 2452.68 L 2094.92 2461.41 C 2087.61 2469.13 2087 2471.97 2090.05 2485.17 C 2091.88 2493.29 2092.49 2503.24 2091.67 2506.9 C 2090.66 2510.75 2092.28 2516.44 2095.53 2519.69 C 2103.86 2528.01 2102.64 2535.12 2092.28 2539.99 C 2081.52 2544.87 2080.1 2561.92 2089.24 2572.08 C 2094.72 2577.97 2094.72 2578.57 2089.44 2578.57 C 2086.39 2578.57 2079.29 2582.43 2073.8 2587.31 C 2064.26 2595.43 2064.06 2596.24 2069.95 2602.74 C 2073.4 2606.6 2076.24 2612.48 2076.24 2615.94 C 2076.24 2621.01 2078.07 2621.83 2084.57 2620.4 C 2092.08 2618.37 2092.69 2619.19 2091.27 2628.73 C 2090.46 2634.41 2086.8 2641.93 2082.94 2645.18 C 2074.82 2652.49 2074.21 2660.41 2081.32 2663.25 C 2085.58 2664.87 2085.79 2666.5 2082.33 2671.98 C 2079.08 2677.26 2079.08 2679.7 2082.54 2683.15 C 2084.97 2685.59 2087 2691.27 2087 2695.74 C 2087 2700.21 2088.42 2704.06 2090.46 2704.06 C 2092.28 2704.06 2091.06 2708.73 2087.82 2714.62 C 2076.65 2733.91 2084.36 2733.51 2144.27 2711.58 C 2189.34 2695.13 2191.37 2698.17 2147.11 2716.04 C 2094.31 2737.57 2080.91 2747.11 2096.14 2753 C 2100.61 2754.62 2099.19 2757.06 2089.85 2765.18 C 2079.49 2773.91 2078.68 2775.95 2082.54 2781.63 C 2085.18 2785.29 2088.22 2791.17 2089.44 2794.83 C 2092.08 2803.16 2098.37 2801.94 2147.31 2784.88 C 2167.82 2777.57 2185.49 2772.7 2186.5 2773.71 C 2187.52 2774.73 2187.72 2776.15 2186.91 2776.76 C 2185.69 2777.57 2125.38 2801.33 2096.75 2812.29 C 2091.06 2814.32 2082.54 2819.2 2077.66 2823.05 C 2070.56 2828.54 2069.74 2831.18 2072.99 2835.04 C 2077.87 2841.13 2088.22 2841.53 2097.97 2836.46 C 2103.25 2833.61 2104.87 2833.82 2104.87 2838.08 C 2104.87 2840.92 2107.51 2844.78 2110.96 2846.81 C 2116.04 2849.66 2114.82 2851.08 2103.25 2856.76 C 2086.19 2864.88 2079.29 2874.63 2087 2879.5 C 2089.85 2881.33 2094.72 2882.14 2097.77 2881.33 C 2119.9 2875.04 2122.34 2875.24 2120.51 2882.35 C 2117.46 2893.72 2126.19 2893.52 2165.79 2880.72 C 2227.11 2861.23 2222.24 2865.7 2150.15 2895.34 C 2126.8 2905.09 2106.9 2915.04 2105.89 2917.68 C 2104.87 2920.32 2105.89 2924.99 2108.32 2927.83 C 2111.98 2932.1 2106.5 2935.95 2075.63 2951.79 C 2055.33 2962.15 2037.25 2971.49 2035.43 2972.1 C 2033.6 2972.91 2030.76 2970.88 2028.93 2967.63 C 2023.45 2957.88 2015.93 2960.93 2014.72 2973.52 C 2013.7 2983.88 2010.86 2986.52 1987.71 2998.7 C 1973.7 3006.01 1961.11 3010.68 1960.09 3008.85 zM 996.182 2965.19 C 982.983 2943.47 961.662 2913.52 948.463 2898.67 C 921.051 2867.61 868.459 2822.89 847.747 2812.9 C 824.599 2801.79 828.457 2799.34 867.241 2800.7 C 919.629 2802.55 980.75 2847.02 1045.52 2930.31 C 1069.08 2960.48 1073.55 2969.05 1066.24 2969.05 C 1064.21 2969.05 1062.58 2966.72 1062.58 2963.77 C 1062.58 2954.92 1051.41 2951.22 1040.65 2956.71 C 1029.48 2962.51 1026.23 2959.79 1012.22 2932.28 C 1002.88 2913.92 967.754 2880.7 964.099 2886.65 C 961.459 2890.9 963.287 2894.33 978.516 2913.54 C 992.527 2931.28 1012.43 2968.24 1012.43 2976.36 C 1012.43 2986.11 1021.97 2992.38 1028.47 2986.96 C 1032.94 2983.37 1033.95 2983.45 1033.75 2987.41 C 1033.75 2992.69 1025.63 3004.87 1022.17 3004.87 C 1020.95 3004.87 1009.38 2987.04 996.182 2965.19 zM 720.735 2982.86 C 699.171 2981.03 680.916 2979 680.144 2978.19 C 679.372 2977.38 681.87 2973.72 685.667 2969.86 C 691.637 2963.98 693.485 2963.57 699.191 2967.83 C 708.531 2974.74 710.704 2973.93 716.715 2962.35 C 723.07 2949.97 718.481 2941.64 704.45 2939.81 C 699.11 2939 695.028 2935.95 694.236 2931.89 C 693.262 2926.61 694.419 2925.6 698.967 2927.43 C 702.298 2928.64 714.948 2929.66 727.091 2929.66 C 748.473 2929.86 749.508 2930.27 758.768 2943.06 C 764.027 2950.57 773.428 2963.37 779.662 2971.69 L 790.993 2986.92 L 775.459 2986.52 C 766.931 2986.11 742.3 2984.48 720.735 2982.86 zM 686.5 2900.01 C 686.5 2897.37 688.307 2893.52 690.5 2891.28 C 696.145 2885.6 691.211 2879.5 681.058 2879.5 C 676.103 2879.5 670.803 2876.46 668.61 2872.4 C 665.341 2866.31 665.869 2865.09 672.225 2865.09 C 683.413 2865.09 697.404 2873.62 713.202 2889.86 L 727.355 2904.68 L 706.927 2904.68 C 692.571 2904.68 686.5 2903.26 686.5 2900.01 zM 2096.55 2407.4 C 2077.26 2386.08 2066.49 2328.81 2077.66 2307.09 C 2080.91 2300.79 2085.79 2295.72 2088.63 2295.72 C 2091.27 2295.72 2095.94 2294.7 2098.78 2293.69 C 2102.84 2292.06 2104.47 2296.73 2106.29 2314.4 C 2108.93 2338.97 2117.46 2368.21 2125.38 2380.59 C 2131.07 2389.12 2129.04 2396.03 2120.71 2396.03 C 2117.66 2396.03 2115.63 2399.48 2115.63 2404.96 C 2115.63 2415.72 2105.28 2417.14 2096.55 2407.4 zM 2242.14 2397.24 C 2236.25 2389.53 2228.74 2377.75 2225.29 2371.05 C 2216.96 2353.99 2205.18 2306.48 2205.18 2290.23 C 2205.18 2278.86 2205.99 2277.64 2210.46 2281.3 C 2217.16 2286.98 2228.13 2283.13 2225.29 2276.02 C 2224.27 2273.18 2225.69 2268.51 2228.53 2265.66 C 2231.38 2262.82 2233.81 2258.15 2233.81 2255.51 C 2233.81 2252.87 2237.06 2248 2240.92 2244.55 C 2250.06 2236.83 2250.06 2231.14 2240.92 2228.71 C 2234.22 2226.88 2234.22 2226.47 2242.75 2219.77 C 2247.62 2215.91 2251.68 2210.43 2251.68 2207.59 C 2251.68 2204.95 2254.12 2202.51 2257.17 2202.51 C 2260.21 2202.51 2264.27 2198.25 2266.3 2193.17 C 2268.13 2187.89 2270.77 2184.64 2271.79 2185.66 C 2273 2186.67 2270.16 2195.41 2265.9 2204.95 C 2254.53 2229.93 2252.09 2285.36 2260.82 2317.24 C 2264.27 2330.03 2267.52 2345.26 2267.93 2351.15 C 2269.96 2378.97 2279.91 2399.48 2291.28 2399.48 C 2295.14 2399.48 2298.18 2401.1 2298.18 2403.13 C 2298.18 2405.16 2291.48 2406.79 2283.16 2406.79 C 2274.63 2406.79 2264.48 2407.8 2260.21 2408.82 C 2254.53 2410.44 2250.26 2407.6 2242.14 2397.24 zM 2397.88 2382.62 C 2385.29 2369.02 2375.55 2353.18 2378.19 2350.54 C 2379.41 2349.32 2383.47 2352.17 2387.12 2356.63 C 2396.06 2367.6 2405.8 2363.94 2405.8 2349.73 C 2405.8 2344.04 2403.98 2338.56 2401.74 2337.95 C 2398.7 2336.94 2398.9 2334.5 2402.35 2329.02 C 2406.21 2322.72 2406.21 2320.29 2402.55 2315.82 C 2399.91 2312.77 2399.1 2308.51 2400.32 2306.48 C 2401.74 2304.24 2400.73 2299.98 2398.09 2296.93 C 2393.01 2290.84 2390.98 2231.96 2395.65 2228.91 C 2397.27 2228.1 2398.49 2224.04 2398.49 2220.18 C 2398.49 2216.52 2400.12 2213.27 2401.74 2213.27 C 2403.57 2213.27 2404.99 2225.86 2405.19 2241.09 C 2405.19 2266.88 2406.41 2271.15 2421.64 2301 C 2430.78 2318.86 2444.59 2340.59 2452.3 2349.32 C 2460.22 2358.05 2466.52 2366.38 2466.52 2367.8 C 2466.52 2369.02 2471.8 2372.07 2478.09 2374.1 C 2494.74 2379.98 2487.23 2383.84 2450.27 2388.31 C 2407.22 2393.79 2408.44 2393.79 2397.88 2382.62 zM 2180 2370.85 C 2180 2365.16 2177.77 2363.74 2168.43 2363.74 C 2137.97 2363.54 2128.83 2346.07 2128.83 2288.2 C 2129.04 2238.66 2132.29 2231.96 2160.51 2221.8 L 2181.83 2214.09 L 2182.03 2275.61 C 2182.03 2330.24 2183.05 2338.97 2190.16 2356.63 C 2194.42 2367.4 2198.08 2376.74 2198.08 2377.14 C 2198.08 2377.75 2194.01 2378.16 2188.94 2378.16 C 2182.44 2378.16 2180 2376.13 2180 2370.85 zM 2334.12 2363.54 C 2327.22 2350.34 2327.22 2348.71 2332.3 2343.43 C 2337.37 2338.36 2337.58 2337.14 2332.5 2331.66 C 2329.45 2328.41 2327.02 2323.74 2327.02 2321.5 C 2327.02 2319.27 2324.78 2316.22 2321.94 2314.6 C 2319.3 2313.18 2316.25 2306.07 2315.04 2299.37 C 2309.96 2268.1 2307.93 2263.02 2297.37 2255.71 C 2287.01 2248.2 2286.81 2247.59 2289.25 2226.27 C 2293.31 2189.92 2304.88 2170.43 2322.14 2170.43 C 2330.47 2170.43 2331.08 2171.24 2328.64 2180.18 C 2327.22 2185.66 2324.99 2203.73 2323.77 2220.38 C 2321.33 2252.87 2324.78 2277.64 2336.97 2319.07 C 2351.99 2369.63 2350.17 2395.42 2334.12 2363.54 zM 2746.74 2356.43 C 2746.94 2345.67 2748.56 2334.91 2750.39 2332.67 C 2752.22 2330.24 2752.62 2324.96 2751.41 2320.9 C 2748.56 2312.16 2749.58 2311.96 2765.82 2318.86 C 2779.63 2324.55 2781.05 2328.21 2772.52 2335.31 C 2769.27 2337.95 2762.17 2348.1 2756.48 2358.05 L 2746.33 2375.92 L 2746.74 2356.43 zM 2632.39 2328.81 C 2639.68 2316.43 2640.41 2316.02 2641.51 2323.74 C 2643.22 2335.72 2639.76 2342.22 2631.6 2342.22 C 2624.6 2342.22 2624.62 2342.01 2632.39 2328.81 zM 2559.58 2331.25 C 2554.58 2329.42 2547.86 2323.33 2544.65 2318.05 C 2541.44 2312.57 2529.91 2298.76 2519.03 2287.39 C 2505.91 2273.58 2497.24 2260.38 2493.3 2248.61 C 2490.05 2238.86 2488.24 2229.93 2489.3 2228.91 C 2490.36 2227.69 2489.64 2222.82 2487.74 2217.74 C 2485.81 2212.67 2484.18 2195.41 2484.12 2179.57 C 2484.04 2157.23 2485.69 2147.48 2491.43 2136.52 C 2495.51 2128.6 2498.84 2120.07 2498.84 2117.43 C 2498.84 2114.79 2503.8 2108.29 2509.87 2103.22 C 2517.34 2096.92 2520.31 2091.85 2519.09 2087.18 C 2516.2 2076.21 2529.59 2065.25 2542.78 2067.89 C 2550.26 2069.31 2555.74 2068.29 2560.02 2064.43 C 2564.51 2060.37 2568.17 2059.76 2572.88 2062.2 C 2576.47 2064.03 2581.3 2064.84 2583.58 2064.03 C 2591.6 2061.19 2611.13 2093.07 2634.63 2147.69 C 2644.82 2171.24 2645.49 2175.3 2643.52 2201.29 C 2638.69 2264.65 2619.17 2307.7 2586.34 2328 C 2573.79 2335.92 2572.63 2335.92 2559.58 2331.25 zM 2660.03 2269.72 C 2671.4 2245.15 2681.55 2200.69 2681.35 2176.72 C 2681.35 2168.4 2678.91 2151.75 2676.07 2139.97 C 2668.15 2107.48 2668.56 2105.86 2682.37 2110.12 C 2693.53 2113.57 2703.48 2111.54 2728.46 2100.78 C 2732.72 2098.95 2736.58 2101.8 2742.67 2111.54 C 2750.39 2124.13 2750.39 2124.95 2744.3 2129.41 C 2740.64 2132.05 2733.54 2133.27 2728.05 2132.26 C 2715.06 2129.62 2700.84 2138.96 2692.11 2156.42 C 2683.18 2173.88 2682.37 2218.55 2690.69 2230.53 C 2697.19 2239.67 2714.25 2249.42 2729.88 2252.46 C 2741.05 2254.9 2744.7 2261.81 2739.22 2270.13 C 2736.58 2274.19 2732.93 2274.4 2717.7 2270.74 C 2696.78 2265.66 2685.01 2268.51 2665.92 2282.92 C 2659.42 2288 2652.92 2292.06 2651.91 2292.06 C 2650.69 2292.06 2654.34 2282.11 2660.03 2269.72 zM 1778.93 2216.73 C 1763.39 2214.7 1763.15 2214.49 1772.1 2210.64 C 1785.2 2205.15 1857.45 2172.05 1893.08 2155.4 C 1909.57 2147.69 1923.81 2142 1924.72 2143.02 C 1926.61 2144.84 1923.68 2146.88 1873.83 2176.52 C 1806.93 2216.52 1800.02 2219.37 1778.93 2216.73 zM 1655.37 2204.14 C 1580.52 2194.39 1556.52 2190.13 1564.03 2187.49 C 1566.97 2186.47 1578.79 2183.43 1590.27 2180.58 C 1611.4 2175.71 1617.05 2168.2 1598.96 2169.01 C 1584.15 2169.82 1587.1 2165.96 1607.97 2156.83 C 1622.77 2150.53 1633.48 2148.7 1658.94 2148.7 C 1710.29 2148.7 1745.81 2137.33 1782.5 2109.11 C 1789.4 2103.83 1814.83 2091.85 1839.01 2082.51 C 1863.21 2073.17 1886.57 2062.81 1890.95 2059.36 C 1897.67 2054.28 1902.85 2053.67 1923.99 2056.11 C 1937.78 2057.73 1953.01 2058.95 1957.84 2059.15 C 1971.46 2059.36 1964.84 2063.42 1897.12 2096.72 C 1862.65 2113.57 1825.18 2132.26 1813.85 2138.14 C 1789.57 2150.73 1788.27 2150.94 1793.99 2141.8 C 1800.27 2131.85 1794.46 2128.4 1783.21 2135.5 C 1777.89 2138.75 1767.92 2144.44 1761.02 2147.89 C 1737.7 2159.67 1707.39 2182.82 1707.33 2188.91 C 1707.23 2202.51 1717.91 2199.87 1780.16 2170.43 C 1797.59 2162.31 1812.61 2156.22 1813.57 2157.23 C 1814.52 2158.25 1801.32 2167.59 1784.25 2177.94 C 1767.15 2188.3 1750.27 2200.69 1746.74 2205.15 C 1738.96 2214.9 1739.15 2214.9 1655.37 2204.14 zM 974.658 2196.83 C 977.501 2181.6 971.206 2163.12 963.287 2163.12 C 959.022 2163.12 958.21 2165.96 959.835 2175.71 C 961.459 2185.46 960.647 2188.3 956.383 2188.3 C 953.134 2188.3 951.712 2185.86 952.728 2182 C 953.743 2178.55 955.57 2167.59 956.992 2157.84 C 958.21 2147.89 962.271 2134.29 965.926 2127.38 C 969.378 2120.48 976.891 2105.45 982.374 2093.88 C 992.121 2073.77 1029.08 2034.18 1038.42 2034.18 C 1040.45 2034.18 1045.12 2036.82 1048.37 2039.86 C 1057.91 2048.39 1073.95 2048.19 1078.62 2039.26 C 1081.67 2033.16 1083.9 2032.35 1090.4 2035.4 C 1101.16 2040.07 1100.55 2043.72 1087.35 2050.42 C 1081.47 2053.67 1070.5 2061.39 1063.19 2067.89 C 1056.08 2074.38 1047.35 2081.08 1044.1 2082.91 C 1034.76 2087.99 1009.58 2123.52 998.009 2147.89 C 992.121 2160.07 986.435 2179.16 985.217 2189.92 C 983.389 2203.93 981.359 2209.82 977.501 2209.82 C 973.439 2209.82 972.83 2206.98 974.658 2196.83 zM 2792.63 2196.02 C 2783.69 2192.56 2774.35 2188.71 2771.91 2187.08 C 2769.48 2185.46 2766.03 2185.25 2764.2 2186.27 C 2759.73 2189.11 2741.05 2170.23 2744.91 2166.98 C 2747.34 2164.74 2779.02 2150.33 2812.53 2136.11 L 2823.69 2131.24 L 2823.29 2165.15 C 2823.08 2183.83 2821.87 2199.06 2820.65 2199.06 C 2819.23 2199.06 2815.98 2199.67 2813.34 2200.48 C 2810.9 2201.29 2801.36 2199.26 2792.63 2196.02 zM 2853.34 2188.3 C 2853.34 2186.27 2854.96 2184.64 2857 2184.64 C 2859.03 2184.64 2860.65 2186.27 2860.65 2188.3 C 2860.65 2190.13 2859.03 2191.75 2857 2191.75 C 2854.96 2191.75 2853.34 2190.13 2853.34 2188.3 zM 914.756 2148.5 C 911.304 2144.64 908.664 2136.11 908.664 2129.01 C 908.664 2121.9 906.837 2112.96 904.806 2109.31 C 899.527 2099.16 890.592 2100.38 890.592 2111.14 C 890.592 2116.21 888.968 2120.27 887.14 2120.27 C 881.658 2120.27 882.673 2112.76 892.014 2089 C 902.167 2063.22 919.223 2037.02 936.28 2020.98 C 950.291 2007.78 975.267 1994.79 986.841 1994.79 C 991.308 1994.79 998.415 1992.55 1002.68 1989.51 C 1011.21 1984.02 1048.98 1984.43 1050.8 1990.12 C 1051.21 1991.74 1040.25 2000.27 1026.44 2009.2 C 979.734 2038.85 941.966 2089.61 929.782 2138.96 C 925.112 2157.84 923.894 2158.45 914.756 2148.5 zM 1777.97 2151.95 C 1780.41 2149.52 1783.29 2148.5 1784.39 2149.52 C 1785.5 2150.73 1783.51 2152.56 1779.98 2153.98 C 1774.86 2156.01 1774.46 2155.61 1777.97 2151.95 zM 1852.59 2152.97 C 1856.98 2149.11 1934.39 2100.58 1969.45 2079.66 C 1992.36 2066.06 1999.95 2063.22 2014.55 2063.42 C 2030.51 2063.62 2044.5 2067.68 2040.28 2070.93 C 2039.37 2071.74 2020.87 2080.07 1999.2 2089.61 C 1951.95 2110.53 1914.38 2127.79 1889 2140.17 C 1869 2150.12 1847.05 2157.84 1852.59 2152.97 zM 798.404 2144.44 C 785.612 2128.8 781.957 2110.53 781.348 2059.36 C 780.332 1986.05 791.501 1945.44 821.553 1912.14 C 838.407 1893.46 852.621 1893.66 863.586 1912.55 C 869.88 1923.31 870.896 1931.03 870.693 1967.98 C 870.49 2013.26 865.616 2043.32 848.763 2101.39 C 840.64 2130.22 837.797 2135.71 827.848 2141.8 C 814.649 2149.92 803.684 2150.94 798.404 2144.44 zM 1561.29 2112.76 C 1556.82 2111.14 1553.37 2107.89 1553.37 2105.86 C 1553.37 2103.83 1550.53 2100.98 1547.08 2099.77 C 1543.62 2098.34 1538.75 2094.89 1536.11 2091.85 C 1525.75 2079.05 1520.27 2069.71 1522.1 2067.89 C 1523.11 2066.67 1537.53 2069.92 1553.98 2074.79 C 1570.22 2079.87 1602.31 2085.76 1624.85 2087.79 C 1647.39 2090.02 1666.68 2092.66 1667.69 2093.88 C 1670.74 2096.72 1653.27 2109.72 1649.42 2107.28 C 1647.59 2106.06 1641.7 2106.87 1636.42 2108.9 C 1623.22 2113.78 1571.24 2116.42 1561.29 2112.76 zM 1074.76 2084.94 C 1084.92 2073.37 1110.3 2062.61 1130.4 2060.98 C 1159.44 2058.95 1153.96 2065.04 1112.74 2080.27 C 1101.97 2084.13 1087.35 2088.6 1080.45 2090.02 C 1068.06 2092.46 1067.86 2092.46 1074.76 2084.94 zM 1793.18 2080.68 C 1793.18 2078.24 1795.21 2070.12 1797.44 2062.4 L 1801.51 2048.6 L 1826.89 2049 C 1856.13 2049.41 1876.84 2053.47 1868.51 2056.92 C 1865.47 2058.14 1850.24 2063.83 1834.4 2069.51 C 1818.77 2075.2 1802.93 2081.08 1799.47 2082.51 C 1795.62 2084.13 1793.18 2083.52 1793.18 2080.68 zM 2722.57 2063.01 C 2729.68 2049.21 2736.99 2044.74 2733.33 2056.11 C 2730.29 2066.26 2724.81 2073.57 2720.34 2073.57 C 2718.51 2073.57 2719.53 2068.9 2722.57 2063.01 zM 1585.51 2055.7 C 1580.6 2054.08 1562.67 2048.6 1545.69 2043.52 L 1514.81 2034.38 L 1512.29 2005.34 C 1510.89 1989.3 1510.44 1975.5 1511.28 1974.68 C 1512.11 1973.87 1521.49 1977.12 1532.13 1981.99 C 1563.14 1996.21 1591.5 2002.3 1637.46 2004.53 C 1675.63 2006.36 1681.56 2007.58 1690.56 2015.09 C 1696.12 2019.76 1700.16 2023.62 1699.51 2023.82 C 1698.86 2023.82 1691.9 2024.64 1684.02 2025.65 C 1676.14 2026.46 1667.47 2028.09 1664.75 2029.1 C 1662.05 2029.91 1657.4 2028.7 1654.45 2026.26 C 1649.96 2022.6 1647.36 2023.82 1638.94 2033.98 C 1630.59 2043.93 1627.89 2045.35 1623.51 2041.69 C 1617.05 2036.41 1595.57 2038.04 1593.6 2043.93 C 1592.8 2046.36 1596.32 2049.41 1601.37 2050.63 C 1606.45 2051.84 1610.59 2054.28 1610.59 2056.11 C 1610.59 2059.97 1597.76 2059.76 1585.51 2055.7 zM 2626.93 2039.66 C 2618.81 2028.49 2618.81 2028.43 2631.8 2023.82 C 2642.36 2020.21 2642.77 2020.43 2640.74 2028.01 C 2639.52 2032.41 2638.71 2038.85 2638.51 2042.3 C 2638.51 2050.89 2634.44 2049.98 2626.93 2039.66 zM 2762.37 2033.16 C 2758.51 2030.73 2752.62 2025.71 2749.37 2021.79 C 2743.49 2014.99 2743.28 2014.97 2732.93 2021.77 C 2727.44 2025.57 2721.15 2028.13 2719.12 2027.48 C 2717.09 2026.85 2713.64 2026.02 2711.4 2025.63 C 2709.17 2025.26 2704.7 2022.81 2701.66 2020.17 C 2698.41 2017.73 2693.53 2016.51 2690.49 2017.53 C 2678.91 2022 2686.02 2010.73 2708.56 1988.92 C 2721.35 1976.41 2732.52 1966.18 2733.33 1966.18 C 2734.15 1966.18 2737.39 1974.16 2740.64 1983.92 C 2746.94 2003.13 2766.43 2023.42 2778.41 2023.48 C 2787.35 2023.42 2787.35 2029.31 2778.41 2034.18 C 2770.29 2038.44 2771.1 2038.52 2762.37 2033.16 zM 655.148 2022.6 C 644.061 2008.8 647.452 1990.32 661.788 1986.46 C 669.098 1984.63 669.402 1985.45 667.27 2000.88 C 666.032 2010.02 665.016 2019.56 665.016 2022.2 C 665.016 2028.29 659.879 2028.49 655.148 2022.6 zM 2515.84 2008.19 C 2512.55 1997.83 2508.87 1978.14 2507.68 1964.33 C 2506.46 1950.52 2504.61 1935.7 2503.55 1931.23 C 2501.99 1924.53 2503.92 1922.29 2514.46 1917.83 C 2533.87 1909.7 2539.5 1911.13 2559.03 1928.59 C 2573.14 1941.38 2578.64 1949.5 2584.49 1966.97 C 2595.28 1998.85 2594.99 1999.66 2571.38 2007.17 C 2560.04 2010.62 2545.75 2016.51 2539.62 2020.37 C 2533.46 2024.03 2526.97 2027.07 2525.14 2027.07 C 2523.31 2027.07 2519.13 2018.54 2515.84 2008.19 zM 897.09 1993.93 C 897.902 1979.56 896.887 1958.3 894.856 1946.48 C 893.029 1934.66 891.811 1924.55 892.42 1923.98 C 892.826 1923.43 898.308 1927.74 904.603 1933.52 C 916.99 1945.08 934.249 1949.44 961.053 1947.8 C 983.389 1946.42 985.42 1953.36 965.317 1962.09 C 956.586 1965.75 938.108 1980.19 923.894 1994.32 C 909.68 2008.39 897.496 2019.9 896.887 2019.9 C 896.481 2019.9 896.481 2008.23 897.09 1993.93 zM 1633.78 1980.17 C 1589.31 1976.92 1559.87 1969.4 1526.97 1952.96 C 1503.62 1941.18 1508.9 1936.1 1539.36 1940.77 C 1551.95 1942.6 1584.03 1946.05 1610.63 1948.29 C 1673.17 1953.36 1673.99 1953.57 1680.48 1966.36 C 1685.76 1976.31 1685.15 1984.84 1679.27 1983.62 C 1678.05 1983.21 1657.54 1981.79 1633.78 1980.17 zM 2483.37 1960.27 C 2479.51 1956.41 2480.53 1944.63 2484.59 1944.63 C 2486.42 1944.63 2488.04 1948.69 2488.04 1953.57 C 2488.04 1963.11 2487.23 1964.12 2483.37 1960.27 zM 1816.53 1932.04 C 1776.12 1927.57 1630.94 1914.76 1571.24 1910.4 C 1484.33 1904.04 1363.71 1877.64 1252.44 1840.54 C 1189.09 1819.49 1184.42 1817.35 1184.42 1810.55 C 1184.42 1803.91 1176.9 1801.62 1168.78 1805.78 C 1159.64 1810.55 1142.18 1802.69 1136.29 1791.12 C 1128.57 1775.69 1109.89 1722.71 1102.38 1694.06 C 1090.81 1651.03 1087.35 1602.42 1087.96 1493.95 C 1088.17 1423.97 1087.15 1391.2 1084.51 1388.48 C 1080.25 1384.3 1079.23 1364.11 1082.48 1351.72 C 1084.71 1343.66 1127.36 1315.56 1168.98 1294.97 C 1206.35 1276.37 1258.73 1256.27 1307.87 1241.24 C 1331.63 1234.13 1355.8 1226.82 1361.68 1224.96 C 1381.18 1218.84 1429.51 1207.6 1447.58 1204.94 C 1457.53 1203.49 1469.3 1200.91 1473.77 1199.23 C 1478.24 1197.52 1502.4 1193.69 1527.58 1190.68 C 1552.56 1187.68 1577.74 1184.59 1583.63 1183.57 C 1613.27 1179.31 1722.92 1177.91 1775.31 1181.32 C 1866.28 1187.23 1941.01 1192.98 1950.14 1194.72 C 1954.61 1195.61 1959.69 1200.31 1961.72 1205.26 C 1966.59 1218.05 1974.92 1219.88 1984.87 1210.38 C 1992.78 1203.09 1995.83 1202.46 2015.53 1204.49 C 2063.65 1209.56 2138.78 1233.18 2147.31 1245.91 C 2156.04 1259.23 2156.45 1405.78 2147.92 1475.49 C 2140.61 1535.15 2127.21 1590.91 2112.18 1624.13 C 2110.35 1628.07 2103.25 1644.88 2096.14 1661.47 C 2078.27 1703.83 2074.82 1708.27 2060.4 1708.29 C 2047.81 1708.27 2038.07 1715.99 2042.13 1722.69 C 2043.55 1724.92 2048.83 1728.25 2054.11 1730.22 C 2061.62 1733.09 2062.43 1734.43 2058.17 1737.11 C 2055.33 1738.93 2047 1740.46 2039.89 1740.48 C 2023.65 1740.54 2016.14 1748.05 2024.46 1756.28 C 2027.51 1759.44 2033.19 1762.08 2037.05 1762.08 C 2040.91 1762.08 2043.96 1764.44 2043.96 1767.4 C 2043.96 1770.57 2040.71 1772.78 2035.83 1772.82 C 2024.46 1772.91 2017.76 1778.02 2017.15 1787.51 C 2016.75 1793.56 2013.5 1796.54 2004.97 1798.73 C 1991.57 1802.23 1990.75 1811.83 2003.75 1817.52 C 2013.9 1821.98 2013.9 1824.97 2002.94 1832.14 C 1998.27 1835.2 1993.8 1841.27 1993.19 1845.56 C 1992.38 1850.39 1986.69 1856.16 1977.76 1860.81 C 1967.2 1866.37 1963.54 1870.43 1963.75 1876.48 C 1964.15 1888.61 1949.74 1901.99 1928.42 1908.87 C 1911.56 1914.38 1909.73 1916 1909.73 1925.34 L 1909.73 1935.74 L 1884.56 1936.31 C 1870.75 1936.61 1840.09 1934.72 1816.53 1932.04 zM 1626.67 1891.63 L 1644.54 1889.2 L 1644.95 1873.15 C 1645.56 1851.83 1652.46 1781.98 1657.54 1745.84 L 1661.6 1717.21 L 1683.94 1738.93 C 1722.92 1776.91 1762.11 1789.29 1833.99 1786.25 C 1877.65 1784.42 1901 1777.11 1938.57 1753.15 C 1972.89 1731.01 2028.73 1644.31 2045.38 1586.84 C 2063.85 1523.69 2038.68 1427.04 1990.15 1373.84 C 1969.64 1351.5 1944.86 1338.3 1906.08 1329.17 C 1883.95 1324.09 1877.04 1321.04 1876.03 1315.76 C 1874.2 1305.61 1870.34 1304.6 1846.58 1307.84 C 1805.16 1313.33 1735.11 1349.67 1712.57 1377.09 C 1695.71 1397.6 1644.95 1498.72 1639.87 1522.07 C 1637.44 1533.03 1633.17 1563.09 1630.33 1588.67 C 1625.25 1633.75 1625.46 1635.98 1632.16 1649.39 C 1636.01 1657.1 1639.26 1666.44 1639.26 1670.1 C 1639.26 1673.96 1644.14 1684.92 1650.02 1694.46 C 1655.91 1704.01 1658.76 1711.93 1656.52 1711.93 C 1654.29 1711.93 1640.08 1707.66 1625.25 1702.38 C 1589.92 1690.2 1558.45 1687.56 1543.22 1695.28 C 1537.13 1698.53 1525.96 1702.38 1518.44 1704.01 C 1502.4 1707.46 1498.54 1717.41 1510.12 1726.14 C 1517.23 1731.42 1517.43 1733.25 1513.98 1747.87 C 1509.31 1767.36 1495.5 1880.87 1497.53 1882.9 C 1506.26 1891.84 1585.45 1897.12 1626.67 1891.63 zM 1599.46 1846.35 C 1598.65 1845.54 1585.05 1844.52 1569.41 1844.12 C 1538.75 1843.31 1531.85 1841.88 1531.85 1836.81 C 1531.85 1834.98 1546.47 1834.37 1566.77 1835.59 C 1607.99 1838.03 1617.74 1839.85 1617.74 1844.52 C 1617.74 1847.98 1602.51 1849.6 1599.46 1846.35 zM 1575.71 1816.1 C 1553.57 1813.05 1535.3 1809.19 1535.3 1807.57 C 1535.3 1805.74 1543.01 1805.33 1552.35 1806.35 C 1561.7 1807.57 1580.38 1809.39 1593.58 1810.61 C 1615.51 1812.85 1625.86 1816.7 1618.75 1820.16 C 1617.13 1820.77 1597.84 1818.94 1575.71 1816.1 zM 1571.24 1788.89 L 1537.13 1784.42 L 1567.99 1784.01 C 1601.49 1783.4 1621.39 1786.04 1621.39 1791.12 C 1621.39 1794.77 1616.32 1794.57 1571.24 1788.89 zM 1573.07 1762.29 C 1556.62 1761.07 1546.26 1759.04 1548.7 1757.41 C 1554.39 1753.76 1613.68 1758.22 1616.32 1762.49 C 1617.33 1764.32 1614.49 1765.33 1609.82 1764.93 C 1605.35 1764.52 1588.7 1763.3 1573.07 1762.29 zM 1765.97 1749.9 C 1742.7 1744.21 1717.64 1729.59 1699.77 1711.12 C 1683.94 1694.67 1682.82 1688.37 1692.95 1671.72 C 1696.89 1665.22 1700.12 1657.91 1700.12 1655.48 C 1700.14 1649.79 1691.35 1649.79 1682.33 1655.27 C 1669.15 1663.6 1670.61 1654.87 1685.36 1637.2 C 1705.93 1612.63 1703.86 1600.25 1681.09 1612.02 C 1675.89 1614.66 1677.78 1611.41 1686.7 1602.07 C 1700.57 1587.66 1704.18 1575.68 1694.76 1575.68 C 1686.35 1575.68 1688.12 1572.43 1707.29 1552.12 C 1725.48 1532.83 1728.06 1527.75 1721.6 1523.9 C 1719.49 1522.48 1721.89 1516.59 1727.41 1509.28 C 1735.25 1498.92 1736.06 1496.08 1732.22 1491.41 C 1728.36 1486.74 1729.68 1483.89 1740.75 1472.52 C 1754.13 1458.72 1757.38 1448.77 1749.38 1445.72 C 1746.4 1444.7 1748.35 1440.44 1755.19 1433.13 C 1762.9 1425.01 1764.96 1420.13 1763.31 1413.64 C 1761.79 1407.55 1763.25 1402.87 1768.24 1398.41 C 1772.14 1394.96 1775.35 1390.08 1775.35 1387.85 C 1775.35 1379.52 1792.63 1367.54 1811.62 1362.47 C 1839.64 1354.95 1887.07 1355.97 1914.1 1364.29 C 1945.82 1374.24 1955.26 1379.93 1971.59 1398.41 C 2000.07 1430.9 2016.2 1481.46 2016.73 1539.94 L 2017.07 1577.5 L 1996.6 1618.72 C 1967.52 1677.2 1940.11 1710.91 1906.75 1729.39 C 1863.66 1753.15 1811.27 1760.86 1765.97 1749.9 zM 1823.86 1632.94 C 1843.78 1613.65 1850.85 1588.27 1850.06 1538.72 L 1849.39 1496.28 L 1838.77 1498.51 C 1832.92 1499.53 1818.05 1498.72 1805.71 1496.48 C 1785.57 1492.63 1782.07 1493.03 1771.66 1499.12 C 1756 1508.26 1739.55 1538.31 1737.08 1562.27 C 1734.66 1585.83 1741.06 1617.71 1750.46 1629.08 C 1767.8 1650 1804.27 1651.82 1823.86 1632.94 zM 1600.28 1737.31 C 1597.64 1735.69 1596.82 1733.45 1598.65 1732.44 C 1603.32 1729.39 1621.6 1733.86 1619.36 1737.31 C 1616.72 1741.37 1606.77 1741.37 1600.28 1737.31 zM 1553.37 1731.22 C 1553.37 1726.75 1555.6 1726.14 1564.94 1728.17 C 1586.06 1732.64 1588.5 1736.7 1570.22 1736.9 C 1557.23 1736.9 1553.37 1735.69 1553.37 1731.22 zM 1433.57 1740.96 C 1496.11 1710.71 1532.46 1668.68 1554.39 1601.46 C 1560.68 1581.77 1562.1 1569.38 1561.9 1531 C 1561.9 1489.58 1560.88 1481.46 1552.15 1457.7 C 1532.05 1402.27 1496.72 1354.75 1468.09 1344.6 C 1458.75 1341.35 1441.49 1334.85 1429.71 1330.38 C 1383.01 1312.11 1342.39 1310.69 1297.11 1325.71 C 1252.85 1340.33 1228.28 1358.81 1199.64 1398.41 C 1161.27 1452.01 1147.05 1491.81 1147.66 1544.41 C 1148.68 1637.41 1192.74 1713.35 1264.42 1746.24 C 1292.64 1759.04 1309.9 1761.88 1354.98 1760.66 L 1394.99 1759.85 L 1433.57 1740.96 zM 1302.8 1725.94 C 1281.48 1722.08 1266.04 1714.16 1267.26 1707.26 C 1267.67 1704.82 1266.65 1698.53 1265.23 1693.04 C 1263.2 1685.94 1260.16 1683.3 1253.86 1683.3 C 1243.51 1683.3 1242.9 1678.63 1252.03 1669.89 C 1260.97 1661.16 1267.47 1647.96 1264.83 1643.7 C 1261.17 1637.81 1254.06 1639.84 1245.33 1649.18 C 1233.56 1661.77 1231.73 1657.31 1243.1 1643.7 C 1248.18 1637.61 1252.44 1630.3 1252.44 1627.46 C 1252.44 1620.35 1239.44 1620.96 1236.6 1628.27 C 1235.38 1631.52 1233.56 1633.14 1232.34 1632.13 C 1231.32 1631.11 1235.99 1622.38 1242.69 1612.84 C 1260.76 1587.45 1253.25 1575.88 1232.74 1597.2 C 1219.34 1611.41 1216.7 1607.96 1228.68 1592.12 C 1236.8 1581.57 1238.02 1576.69 1237.41 1559.23 C 1236.6 1543.19 1235.18 1538.52 1230.31 1537.3 C 1225.23 1535.88 1224.62 1534.25 1227.67 1528.77 C 1229.7 1524.91 1230.31 1520.24 1229.09 1518.41 C 1224.01 1510.09 1224.21 1486.74 1229.29 1482.47 C 1232.13 1480.24 1234.57 1472.93 1234.57 1466.23 C 1234.57 1459.73 1236.2 1453.44 1238.43 1452.01 C 1240.46 1450.8 1241.27 1447.14 1240.05 1443.89 C 1238.83 1440.85 1240.05 1433.33 1242.9 1427.24 C 1245.94 1421.35 1250.21 1409.37 1252.85 1400.84 C 1257.31 1385.62 1269.5 1374.24 1295.49 1361.65 C 1339.35 1340.13 1396.61 1342.36 1436.61 1366.93 C 1457.12 1379.52 1494.69 1419.32 1504.64 1439.22 C 1527.78 1485.11 1532.86 1548.06 1517.63 1593.75 C 1486.16 1686.75 1395.59 1742.39 1302.8 1725.94 zM 1334.8 1633.14 C 1334.8 1631.11 1340.85 1629.49 1348.22 1629.49 C 1382.07 1629.49 1395.74 1604.31 1395.62 1542.17 C 1395.55 1508.06 1394.9 1504.81 1384.79 1488.77 C 1369.14 1463.79 1350.21 1458.51 1324.24 1471.71 C 1313.86 1477.19 1308.95 1482.68 1304.67 1494.25 C 1285.4 1545.62 1283.67 1571.01 1297.34 1600.86 C 1306.15 1620.15 1321.38 1636.59 1330.31 1636.59 C 1332.79 1636.59 1334.8 1634.97 1334.8 1633.14 zM 1151.87 1358.61 C 1160.05 1348.25 1161.71 1328.96 1154.99 1322.26 C 1144.31 1311.5 1119.27 1323.48 1114.77 1341.55 C 1108.9 1364.9 1136.84 1377.7 1151.87 1358.61 zM 2121.52 1299.72 C 2132.08 1293.02 2133.5 1290.58 2133.5 1276.57 C 2133.5 1260.33 2123.96 1246.32 2112.79 1246.32 C 2106.09 1246.32 2087 1265.81 2087 1272.92 C 2087 1281.45 2086.6 1283.27 2082.74 1290.38 C 2074.01 1306.63 2100.2 1312.92 2121.52 1299.72 zM 1525.96 1243.88 C 1531.03 1238.81 1535.3 1231.7 1535.3 1228.25 C 1535.3 1218.7 1521.29 1203.27 1512.56 1203.27 C 1494.08 1203.27 1478.04 1225.4 1485.75 1240.23 C 1494.28 1256.67 1511.74 1258.3 1525.96 1243.88 zM 1780.87 1226.62 C 1791.05 1216.47 1791.96 1208.14 1784.1 1196.98 C 1773.69 1182.15 1750.86 1189.67 1743.61 1210.58 C 1740.39 1219.72 1740.89 1222.56 1746.82 1228.45 C 1756.39 1237.99 1770.28 1237.38 1780.87 1226.62 zM 947.042 1921.08 C 945.824 1919.86 945.621 1914.58 946.636 1909.3 C 947.854 1902.8 946.027 1896.71 940.747 1890.01 C 932.219 1879.04 926.533 1877.42 926.533 1885.95 C 926.533 1888.99 924.503 1890.82 922.066 1890.01 C 916.584 1888.18 917.396 1882.5 928.97 1847.98 C 939.326 1816.7 942.575 1812.03 948.87 1819.95 C 957.601 1830.51 971.206 1837.21 984.608 1837.21 C 992.121 1837.21 998.212 1835.59 998.212 1833.56 C 998.212 1831.73 1002.88 1830.11 1008.77 1830.11 C 1015.68 1830.11 1019.53 1831.93 1019.53 1834.98 C 1019.53 1837.82 1014.86 1851.43 1008.77 1865.24 C 1002.88 1879.25 998.212 1892.45 998.212 1894.68 C 998.212 1896.91 995.573 1904.22 992.324 1910.92 C 986.841 1922.5 985.623 1923.11 967.957 1923.11 C 957.601 1923.11 948.26 1922.29 947.042 1921.08 zM 668.651 1885.95 C 668.651 1864.83 689.972 1853.46 713.121 1862.19 C 722.867 1865.84 725.304 1877.22 718.806 1887.37 C 716.166 1891.43 715.354 1890.01 715.151 1881.07 C 715.151 1863.61 701.343 1865.03 686.52 1883.71 C 680.225 1891.63 673.728 1898.13 671.9 1898.13 C 670.072 1898.13 668.651 1892.65 668.651 1885.95 zM 826.223 1829.9 C 830.69 1821.78 833.33 1820.97 833.33 1827.87 C 833.33 1830.72 830.894 1833.76 827.848 1834.98 C 823.38 1836.6 823.177 1835.79 826.223 1829.9 zM 764.291 1825.23 C 755.559 1812.03 756.575 1808.58 769.164 1808.58 C 776.068 1808.58 779.114 1810 777.693 1812.44 C 776.271 1814.47 774.241 1820.36 772.819 1825.44 L 770.383 1834.57 L 764.291 1825.23 zM 809.166 1811.22 C 812.415 1797.01 812.009 1794.77 803.887 1786.04 C 793.734 1775.08 786.221 1773.86 779.723 1781.78 C 773.428 1789.09 768.961 1788.48 768.961 1780.15 C 768.961 1776.3 767.337 1772.24 765.509 1771.02 C 760.839 1768.17 754.544 1780.76 754.544 1792.74 C 754.544 1801.07 753.935 1801.68 748.859 1797.62 C 744.594 1793.96 743.579 1788.89 745 1778.73 C 747.64 1759.24 760.23 1747.46 780.535 1745.03 C 800.841 1742.79 809.166 1750.91 818.913 1781.58 C 822.568 1793.56 826.629 1805.94 828.051 1809.39 C 829.878 1814.07 828.863 1815.69 824.193 1815.69 C 820.741 1815.69 815.055 1818.13 811.806 1821.17 C 806.121 1826.45 805.918 1825.64 809.166 1811.22 zM 2101.22 1808.38 C 2110.15 1806.76 2136.75 1805.54 2160.31 1805.74 C 2193.41 1805.94 2199.7 1806.55 2187.31 1808.79 C 2178.38 1810.41 2151.78 1811.63 2128.22 1811.43 C 2095.13 1811.22 2088.83 1810.61 2101.22 1808.38 zM 981.562 1803.51 C 966.129 1796.81 963.693 1791.28 972.018 1782.86 C 978.516 1776.46 980.546 1776.2 993.948 1780.17 C 1010.19 1785.07 1023.19 1795.3 1023.19 1803.34 C 1023.19 1810.17 997.197 1810.23 981.562 1803.51 zM 2132.69 1782.39 C 2154.42 1780.15 2177.16 1780.15 2198.89 1782.39 C 2230.56 1785.84 2229.35 1786.04 2165.79 1786.04 C 2102.23 1786.04 2100.81 1785.84 2132.69 1782.39 zM 2190.05 1762.08 C 2157.12 1760.86 2129.06 1758.83 2127.68 1757.41 C 2124.51 1754.16 2198.44 1754.08 2235.05 1757.17 C 2250.12 1758.45 2262.46 1760.86 2262.46 1762.55 C 2262.46 1764.21 2259.64 1765.33 2256.19 1764.99 C 2252.74 1764.66 2222.99 1763.3 2190.05 1762.08 zM 2270.16 1744.01 C 2261.63 1742.18 2230.16 1738.12 2200.31 1735.08 C 2170.46 1731.83 2139.6 1727.95 2131.68 1726.34 C 2108.12 1721.59 2207.62 1721.98 2260.01 1726.85 C 2303.06 1730.87 2305.7 1731.58 2304.68 1738.53 C 2303.46 1747.12 2293.72 1748.68 2270.16 1744.01 zM 2300.01 1713.76 C 2298.18 1713.15 2276.25 1709.08 2251.68 1704.82 C 2193.61 1694.67 2183.05 1690 2224.88 1692.84 C 2284.17 1696.7 2314.22 1702.18 2315.44 1709.29 C 2316.66 1715.18 2310.16 1717 2300.01 1713.76 zM 2115.63 1700.15 C 2115.63 1694.87 2117.87 1694.26 2130.86 1696.29 C 2139.19 1697.51 2151.78 1700.76 2158.68 1703.4 C 2170.66 1707.87 2169.85 1708.07 2143.45 1707.26 C 2119.49 1706.65 2115.63 1705.63 2115.63 1700.15 zM 2278.49 1679.84 C 2264.88 1676.39 2234.22 1669.08 2210.46 1663.8 C 2153.4 1650.81 2147.92 1646.54 2190.77 1648.98 C 2209.45 1650 2249.04 1651.82 2278.49 1653.04 C 2308.13 1654.46 2333.31 1656.09 2334.73 1656.9 C 2336.15 1657.71 2335.14 1664.41 2332.7 1671.72 C 2328.64 1683.3 2326.41 1685.12 2315.85 1685.73 C 2309.15 1685.94 2292.29 1683.5 2278.49 1679.84 zM 2132.29 1670.1 C 2123.35 1660.96 2137.56 1659.54 2160.31 1667.05 L 2174.72 1671.72 L 2154.62 1672.11 C 2143.66 1672.31 2133.71 1671.4 2132.29 1670.1 zM 2312.6 1640.25 C 2301.84 1638.62 2259.4 1636.19 2218.58 1634.77 C 2177.77 1633.34 2144.27 1631.72 2144.27 1631.11 C 2144.27 1630.3 2148.73 1615.68 2154.42 1598.42 C 2167.41 1558.01 2179.39 1499.33 2182.24 1463.79 C 2183.25 1448.56 2185.28 1436.18 2186.7 1436.18 C 2187.92 1436.18 2193.81 1440.24 2199.7 1445.11 C 2209.45 1453.23 2209.85 1454.25 2204.17 1457.7 C 2195.03 1463.18 2196.45 1469.07 2210.26 1482.27 C 2222.24 1493.84 2232.8 1494.66 2228.53 1483.69 C 2225.69 1476.18 2231.17 1478.62 2269.55 1502.98 C 2335.54 1544.81 2333.72 1544 2336.56 1532.83 C 2338.59 1525.12 2343.06 1523.49 2346.71 1529.18 C 2347.93 1531.21 2352.2 1532.83 2356.26 1532.83 C 2363.16 1532.83 2363.57 1534.05 2361.13 1555.17 C 2359.1 1574.86 2349.56 1618.72 2346.71 1621.57 C 2346.31 1622.18 2333.92 1616.9 2319.5 1609.99 C 2301.23 1601.06 2292.09 1598.42 2289.45 1601.06 C 2284.78 1605.73 2298.18 1616.49 2316.05 1621.97 C 2332.09 1627.05 2342.65 1635.17 2339.61 1640.05 C 2338.39 1642.08 2336.15 1643.7 2334.73 1643.29 C 2333.51 1643.09 2323.36 1641.67 2312.6 1640.25 zM 1961.92 1149.87 C 1958.06 1147.43 1957.66 1145.18 1960.5 1141.76 C 1995.22 1097.25 2031.16 1056.16 2055.33 1033.15 C 2100.2 990.121 2126.19 966.892 2129.44 966.892 C 2131.07 966.892 2135.33 963.683 2138.78 959.764 C 2145.28 952.698 2189.95 921.427 2205.18 913.102 C 2213.1 908.838 2213.1 908.98 2210.46 931.58 C 2209.04 944.129 2206.4 957.368 2204.37 961.064 C 2201.93 965.531 2202.14 970.344 2204.57 975.4 C 2218.58 1004.58 2223.05 1031.67 2211.07 1015.28 C 2206.4 1009.01 2204.98 1009.35 2181.42 1022.37 C 2167.82 1029.86 2150.15 1040.62 2141.83 1046.31 C 2121.32 1060.32 2118.48 1059.02 2136.35 1043.75 C 2158.89 1024.34 2146.7 1010.67 2122.34 1028.09 C 2113.4 1034.43 2110.15 1034.98 2100.61 1031.67 C 2087.41 1027.06 2078.47 1032.19 2081.72 1042.53 C 2083.15 1047.14 2079.9 1052.4 2070.96 1060.32 C 2064.06 1066.41 2058.37 1074.88 2058.37 1079 C 2058.37 1083.49 2049.23 1095.28 2035.83 1108.34 C 2023.65 1120.36 2008.83 1135.37 2003.14 1141.66 C 1995.02 1150.52 1989.74 1153.12 1979.79 1153.07 C 1972.68 1153.05 1964.76 1151.49 1961.92 1149.87 zM 2640.98 1117.99 C 2634.77 1115.35 2634.79 1115 2641.37 1109.03 C 2647.5 1103.49 2648.74 1103.41 2652.78 1108.28 C 2659.03 1115.79 2662.81 1115.18 2677.01 1104.36 C 2686.04 1097.48 2690.35 1096.06 2693.27 1099 C 2698.98 1104.69 2708.89 1103.98 2720.13 1096.87 C 2745.9 1081.03 2751.79 1068.12 2731.32 1072.7 C 2723.02 1074.43 2720.91 1073.68 2720.91 1068.83 C 2720.91 1064.52 2718.84 1063.3 2713.76 1064.62 C 2708.32 1066.04 2706.59 1064.74 2706.59 1059.2 C 2706.59 1052.87 2704.95 1052.2 2694.14 1053.92 L 2681.68 1055.85 L 2688.76 1048.34 C 2697.41 1039 2697.9 1031.36 2689.84 1031.36 C 2684.78 1031.36 2685.07 1030.04 2691.75 1022.94 C 2698.83 1015.4 2699.08 1014.04 2694.08 1009.88 C 2689.05 1005.7 2689.03 1004.66 2694.04 999.117 C 2699.57 993.005 2698.06 981.126 2691.75 981.126 C 2689.92 981.126 2684.05 983.928 2678.69 987.218 C 2670.55 992.294 2671.14 990.974 2682.41 979.034 C 2696.38 964.232 2699.36 956.13 2690.89 956.13 C 2687.5 956.13 2685.88 951.459 2685.74 941.428 C 2685.43 919.803 2696.82 909.65 2721.23 909.569 C 2747.65 909.65 2765.58 915.945 2783.53 931.783 C 2814.6 959.196 2819.61 1004.34 2796 1043.87 C 2779.1 1072.16 2754.57 1096.71 2731.32 1108.67 C 2715.16 1116.97 2706.63 1118.8 2679.73 1119.71 C 2661.98 1120.32 2644.56 1119.55 2640.98 1117.99 zM 1224.62 1037.58 C 1220.15 1035.14 1208.99 1018.29 1199.04 998.386 C 1182.99 966.506 1181.98 963.257 1187.46 958.383 C 1196.6 950.261 1223.2 937.469 1227.87 938.89 C 1230.1 939.702 1235.79 958.79 1240.46 981.329 C 1245.33 1003.87 1250 1026.81 1251.22 1032.3 C 1253.05 1041.23 1252.44 1042.04 1243.1 1042.04 C 1237.41 1042.04 1229.09 1040.01 1224.62 1037.58 zM 2325.8 992.7 C 2317.27 983.156 2311.58 950.87 2313.41 923.052 C 2315.44 897.06 2317.47 891.578 2323.77 897.873 C 2326.41 900.512 2326.41 903.761 2323.77 909.041 C 2317.07 921.224 2319.3 945.997 2328.84 966.303 C 2333.72 976.862 2337.58 987.624 2337.58 990.263 C 2337.58 998.183 2331.89 999.401 2325.8 992.7 zM 960.444 762.637 C 959.429 761.012 961.459 758.779 964.911 757.56 C 973.439 754.92 979.531 739.082 979.328 720.604 C 979.328 710.248 977.704 705.375 974.252 705.375 C 968.566 705.375 968.363 703.547 972.83 695.222 C 974.861 691.364 974.861 686.896 972.83 683.648 C 970.191 679.383 968.363 679.383 962.474 683.038 C 952.931 688.927 940.95 682.226 943.59 672.479 C 944.605 668.418 942.575 663.748 938.717 660.905 C 932.219 656.235 932.219 655.423 938.108 643.036 C 941.56 635.726 944.402 625.979 944.402 621.309 C 944.402 614.202 946.636 612.171 957.195 610.141 C 987.857 604.455 1024.41 615.42 1038.82 634.914 C 1047.35 646.285 1051.21 682.632 1044.92 694.003 C 1041.87 699.892 1038.62 701.11 1031.11 699.892 C 1011.82 696.237 987.247 719.995 994.963 734.818 C 1000.04 744.565 998.619 751.469 990.496 755.733 C 978.11 762.434 962.474 766.089 960.444 762.637 z" />

</svg>
