<?xml version="1.0" encoding="UTF-8" standalone="no"?>
<!-- Created with Inkscape (http://www.inkscape.org/) -->

<svg
   width="210mm"
   height="297mm"
   viewBox="0 0 210 297"
   version="1.1"
   id="svg5"
   inkscape:version="1.1 (c68e22c387, 2021-05-23)"
   sodipodi:docname="RollinStones.svg"
   xmlns:inkscape="http://www.inkscape.org/namespaces/inkscape"
   xmlns:sodipodi="http://sodipodi.sourceforge.net/DTD/sodipodi-0.dtd"
   xmlns="http://www.w3.org/2000/svg"
   xmlns:svg="http://www.w3.org/2000/svg">
  <sodipodi:namedview
     id="namedview7"
     pagecolor="#ffffff"
     bordercolor="#666666"
     borderopacity="1.0"
     inkscape:pageshadow="2"
     inkscape:pageopacity="0.0"
     inkscape:pagecheckerboard="0"
     inkscape:document-units="mm"
     showgrid="false"
     inkscape:zoom="0.69130191"
     inkscape:cx="393.46051"
     inkscape:cy="208.30262"
     inkscape:window-width="1920"
     inkscape:window-height="1000"
     inkscape:window-x="-11"
     inkscape:window-y="-11"
     inkscape:window-maximized="1"
     inkscape:current-layer="layer1" />
  <defs
     id="defs2" />
  <g
     inkscape:label="Ebene 1"
     inkscape:groupmode="layer"
     id="layer1">
    <g
       fill-rule="evenodd"
       clip-rule="evenodd"
       id="g844"
       transform="matrix(0.39921691,0,0,0.39921691,41.269323,39.524664)"
       style="fill:none;stroke:#000000;stroke-opacity:1">
      <path
         d="M 175.15,62.206 C 149.892,47.369 152.675,34.212 143.545,16.759 c 0,0 -1.57,-4.625 -9.143,-7.469 -16.357,-3.759 -28.65,11.285 -31.596,13.776 0.545,-4.99 -11.155,-25.778 -33.425,-6.568 -15.29,10.952 -15.257,37.678 -41.136,47.984 -0.426,-0.237 -4.285,2.525 -0.299,6.32 0,0 11.583,7.47 11.965,20.924 -0.715,2.699 -10.044,12.34 -15.183,34.234 -9.724,55.166 50.81,82.287 79.378,31.068 0,0 21.273,0.236 33.455,-28.638 7.789,-16.68 8.318,-30.546 27.967,-51.973 5.504,-5.822 9.221,-9.219 9.221,-9.219 0,0 3.573,-2.727 0.401,-4.992 z"
         id="path840"
         style="fill:none;stroke:#000000;stroke-opacity:1" />
      <path
         d="m 58.741,51.183 c 0.989,-2.379 2.006,-2.686 2.006,-2.686 0,0 4.436,-4.226 12.465,-5.28 9.168,-0.639 13.028,3.791 15.831,4.895 2.208,1.444 7.99,3.783 16.119,-0.557 6.877,-4.609 14.867,-4.03 14.867,-4.03 0,0 6.043,0 10.27,4.225 7.137,7.521 9.812,14.802 9.984,15.481 -1.105,0.509 -11.736,7.104 -16.258,-5.697 -12.084,14.212 -24.387,6.738 -26.68,0.623 C 81.997,70.439 73.096,61.09 72.841,54.209 70.973,56.418 61.16,59.768 58.741,51.183 Z M 74.173,22.164 c 2.337,-8.487 12.677,-9.083 12.677,-9.083 0,0 9.064,0.057 10.173,6.321 1.547,5.582 -2.686,7.648 -2.686,7.648 0,0 -4.499,3.183 -7.781,-1.517 -4.197,-2.171 -6.204,-0.217 -6.204,-0.217 0,0 -8.379,4.001 -6.179,-3.152 z m 48.116,2.346 c -2.492,0.906 -6.572,1.92 -7.152,-3.349 1.629,-5.391 8.662,-7.182 8.662,-7.182 0,0 10.305,-1.926 13.393,3.477 0,0 1.656,3.778 0.848,6.45 -5.355,7.246 -10.098,0.928 -10.098,0.928 0,0 -3.268,-1.878 -5.653,-0.324 z M 66.893,79.77 c -1.132,1.019 -30.346,20.819 -29.736,55.84 0.845,7.604 5.493,7.393 5.493,7.393 0,0 4.89,0.392 5.947,-8.058 0.377,-9.242 3.059,-32.363 22.933,-51.804 6.941,-7.72 -1.692,-5.41 -4.637,-3.371 z m 43.13,8.832 c -7.588,8.042 -17.262,40.638 -23.044,50.005 -0.113,0.68 -10.603,14.648 -2.268,20.678 8.41,2.348 14.144,-8.815 16.437,-17.31 1.193,-3.659 4.609,-37.272 21.383,-53.406 3.365,-3.237 4.887,-4.854 5.279,-6.847 0.238,-1.218 0.135,-2.364 -0.42,-2.736 -1.154,-2.122 -7.168,0.87 -7.168,0.87 0,0 -5.386,2.602 -10.199,8.746 z"
         fill="#ffffff"
         id="path842"
         style="fill:none;stroke:#000000;stroke-opacity:1" />
    </g>
  </g>
</svg>
