<?xml version="1.0" encoding="UTF-8" standalone="no"?>
<!-- Created with Inkscape (http://www.inkscape.org/) -->

<svg
   width="210mm"
   height="297mm"
   viewBox="0 0 210 297"
   version="1.1"
   id="svg8486"
   inkscape:version="1.1 (c68e22c387, 2021-05-23)"
   sodipodi:docname="Toni2.svg"
   xmlns:inkscape="http://www.inkscape.org/namespaces/inkscape"
   xmlns:sodipodi="http://sodipodi.sourceforge.net/DTD/sodipodi-0.dtd"
   xmlns="http://www.w3.org/2000/svg"
   xmlns:svg="http://www.w3.org/2000/svg">
  <sodipodi:namedview
     id="namedview8488"
     pagecolor="#ffffff"
     bordercolor="#666666"
     borderopacity="1.0"
     inkscape:pageshadow="2"
     inkscape:pageopacity="0.0"
     inkscape:pagecheckerboard="0"
     inkscape:document-units="mm"
     showgrid="false"
     inkscape:zoom="0.7198092"
     inkscape:cx="396.63288"
     inkscape:cy="561.25984"
     inkscape:window-width="1920"
     inkscape:window-height="986"
     inkscape:window-x="-11"
     inkscape:window-y="-11"
     inkscape:window-maximized="1"
     inkscape:current-layer="layer1" />
  <defs
     id="defs8483">
    <pattern
       id="EMFhbasepattern"
       patternUnits="userSpaceOnUse"
       width="6"
       height="6"
       x="0"
       y="0" />
  </defs>
  <g
     inkscape:label="Ebene 1"
     inkscape:groupmode="layer"
     id="layer1">
    <path
       style="fill:#000000;stroke-width:0.176281"
       d="m 125.0331,113.09182 c -1.35173,-0.0632 -2.32466,-0.1888 -2.48348,-0.32061 -0.14362,-0.1192 -0.3618,-0.5548 -0.48485,-0.96801 -0.31975,-1.0737 -1.59281,-2.9938 -1.90542,-2.87384 -0.13772,0.0528 -0.55103,0.14416 -0.91849,0.20291 -0.58897,0.0942 -0.74894,0.0341 -1.35077,-0.5076 -0.44061,-0.39657 -0.94378,-0.65808 -1.41907,-0.73753 -0.65328,-0.1092 -0.76774,-0.0753 -1.01412,0.30076 -0.15274,0.23313 -0.35443,1.02888 -0.44818,1.76835 -0.23892,1.88435 -0.34572,2.22272 -0.77429,2.4531 -0.79077,0.42507 -12.68547,0.62932 -13.33328,0.22895 -0.16655,-0.10294 -0.19657,-0.49937 -0.11647,-1.53812 0.0974,-1.26276 0.065,-1.48412 -0.33136,-2.26632 l -0.43927,-0.86687 -2.33276,-10e-4 c -2.533037,-0.001 -4.598435,-0.3723 -5.993971,-1.07654 -1.208239,-0.60973 -3.289989,-2.87738 -4.091945,-4.45736 -0.383309,-0.75518 -0.906089,-1.54905 -1.161732,-1.76416 -0.848997,-0.714391 -1.097161,-1.257641 -0.967988,-2.119031 0.06443,-0.42965 0.282509,-0.99141 0.48462,-1.24835 0.364817,-0.46379 0.365102,-0.47415 0.0395,-1.43207 -0.296892,-0.87344 -0.302781,-1.00995 -0.06214,-1.44026 0.226538,-0.40508 0.398792,-0.48314 1.165109,-0.52794 0.834432,-0.0488 0.951578,-0.11461 1.624817,-0.91303 0.672118,-0.7971 0.725549,-0.93768 0.725549,-1.90901 0,-0.71698 -0.08361,-1.11794 -0.264422,-1.268 -0.497622,-0.41299 -0.297427,-1.33171 0.730777,-3.35364 0.54736,-1.07637 1.162141,-2.07521 1.36618,-2.21966 0.20404,-0.14444 0.756254,-0.50003 1.227143,-0.7902 0.994109,-0.61258 0.991509,-0.54977 0.126935,-3.06755 -0.773985,-2.25397 -1.095711,-3.93115 -1.200848,-6.26012 l -0.09161,-2.02938 0.683527,-0.67319 c 0.961253,-0.94673 3.45485,-2.56453 5.658193,-3.67095 1.274096,-0.63979 1.960966,-1.0945 2.15057,-1.42368 0.252986,-0.43922 0.372236,-0.48376 1.297886,-0.48477 1.13392,-10e-4 3.31465,-0.74751 4.7347,-1.62027 0.68685,-0.42214 0.8659,-0.65079 1.11589,-1.425 0.5241,-1.62312 1.58232,-3.22254 3.61329,-5.461257 0.9516,-1.048928 1.52323,-1.366345 2.46064,-1.366345 1.35755,0 2.62054,0.668995 4.16,2.203512 0.77814,0.77564 1.66893,1.78706 1.97953,2.24759 0.45093,0.66858 0.66527,0.83734 1.06353,0.83734 0.27433,0 0.65277,-0.11647 0.84097,-0.25882 0.48142,-0.36412 0.73134,-0.332 1.14836,0.14762 0.36221,0.41658 0.37328,0.41763 4.36179,0.41441 4.37659,-0.004 6.80704,0.23975 7.30903,0.73162 0.51334,0.50299 1.35276,2.98327 1.6484,4.87059 0.15187,0.96955 0.43288,2.06172 0.62446,2.42705 0.19158,0.36532 0.39232,1.09057 0.44611,1.61166 0.0907,0.87921 0.0644,0.96929 -0.36563,1.25107 -0.53272,0.34904 -0.56378,0.55619 -0.20376,1.35886 0.14281,0.31839 0.4674,1.2664 0.72133,2.10668 0.40384,1.33643 0.52722,1.55494 0.98504,1.74458 0.28786,0.11923 0.734,0.49292 0.99142,0.83042 0.38011,0.49835 0.46544,0.79355 0.4542,1.57122 l -0.0138,0.95759 1.41241,1.07517 c 2.31149,1.75959 3.66602,3.14856 4.59442,4.71123 1.57877,2.65737 2.78621,6.27011 3.02481,9.05042 0.11244,1.31022 -0.20422,5.362001 -0.64756,8.285821 -0.31624,2.08564 -1.46874,2.88962 -3.91701,2.7325 -1.38479,-0.0889 -2.73474,-0.68072 -3.09713,-1.35786 -0.10903,-0.20372 -0.45952,-0.369 -0.93311,-0.44002 -0.71166,-0.10672 -1.03858,-0.26652 -2.10901,-1.03088 -0.30913,-0.22074 -0.59903,-0.27684 -1.00797,-0.19505 -0.54588,0.10917 -0.56913,0.14598 -0.47417,0.75056 0.20607,1.31182 0.43092,7.85574 0.27964,8.1384 -0.1062,0.19843 -0.49988,0.32607 -1.24644,0.4041 -1.25146,0.1308 -6.77367,0.10357 -10.04867,-0.0496 z m 6.58465,-0.84993 c -0.0678,-0.86817 -1.09379,-3.04182 -1.43319,-3.03629 -0.15669,0.003 -0.87517,0.31791 -1.59663,0.70081 -1.26088,0.66917 -1.89004,0.79358 -1.15592,0.22856 0.4462,-0.34342 2.54748,-1.3293 3.70163,-1.73674 1.22847,-0.43367 3.36504,-0.43814 4.0104,-0.008 0.26663,0.17755 0.48478,0.43809 0.48478,0.57897 0,0.19619 -0.12619,0.1663 -0.539,-0.12764 -0.6379,-0.45423 -0.76988,-0.38903 -0.52362,0.25867 0.0997,0.26215 0.18121,1.05993 0.18121,1.77285 0,0.71292 0.0482,1.42169 0.107,1.57505 0.14413,0.3756 0.90137,0.35496 1.08788,-0.0297 0.16614,-0.34262 -0.0507,-6.20078 -0.27572,-7.44788 l -0.14311,-0.79327 -0.96094,0.0346 c -1.47519,0.0531 -3.98704,0.77195 -7.57149,2.16666 -1.79366,0.69792 -3.85146,1.48549 -4.57289,1.75015 -0.72143,0.26467 -1.34382,0.57759 -1.38308,0.69539 -0.0393,0.11779 0.2064,0.62765 0.54594,1.13301 0.33953,0.50537 0.71369,1.23616 0.83146,1.62398 0.11777,0.38781 0.27886,0.77547 0.35797,0.86144 0.1992,0.21649 3.4655,0.41593 6.42412,0.39226 l 2.46794,-0.0197 -0.0447,-0.57284 z m 2.7709,0.32 c 0.26599,-0.49702 0.22335,-1.74671 -0.0971,-2.84416 -0.41516,-1.42198 -0.50416,-1.47625 -2.00588,-1.22295 -0.70275,0.11854 -1.30422,0.31532 -1.3531,0.44269 -0.0484,0.12612 0.0653,0.53447 0.25271,0.90746 0.18738,0.37297 0.48105,1.11444 0.65261,1.64769 0.4217,1.31083 0.52848,1.41025 1.51461,1.41025 0.66353,0 0.89426,-0.0759 1.03611,-0.34098 z m -32.42957,-0.86669 c 0,-0.37335 0.0885,-0.93268 0.19667,-1.24296 0.27295,-0.78299 0.0902,-0.86016 -0.54132,-0.22862 -0.41513,0.41512 -0.53675,0.69295 -0.53675,1.22606 0,0.77285 0.0915,0.92434 0.55822,0.92434 0.25744,0 0.32318,-0.13809 0.32318,-0.67882 z m 2.80577,-0.1222 c 0.19488,-0.44056 0.52456,-1.04007 0.73261,-1.33225 0.20805,-0.29219 0.3317,-0.57782 0.27478,-0.63474 -0.16702,-0.16702 -1.81538,-0.28172 -2.30012,-0.16006 -0.53752,0.13491 -0.83188,0.63541 -0.99509,1.69189 -0.17486,1.13197 -0.0913,1.23618 0.99105,1.23618 h 0.94244 z m 8.35561,0.64042 c 0.46691,-0.0768 0.95698,-0.25052 1.08904,-0.38612 0.13811,-0.1418 0.2936,-0.87544 0.36601,-1.72689 l 0.12589,-1.48036 -0.87558,0.11616 c -0.48157,0.0639 -2.77348,0.11677 -5.09312,0.11754 -4.16654,10e-4 -5.25325,-0.11272 -7.78724,-0.81755 -0.4839,-0.1346 -0.48388,-0.135 -0.0299,0.89135 0.28613,0.64683 0.43145,0.80154 0.66106,0.70379 1.31837,-0.5613 1.76905,-0.63988 3.11481,-0.5431 1.33427,0.0959 4.73236,0.81999 4.97171,1.05934 0.29116,0.29115 -0.20334,0.26398 -1.59124,-0.0875 -1.28643,-0.32574 -1.56042,-0.34783 -1.80422,-0.1455 -0.34695,0.28794 -1.30785,1.93011 -1.31017,2.23905 -0.001,0.16959 0.84099,0.21793 3.65618,0.20985 2.01181,-0.006 4.03985,-0.0733 4.50676,-0.1501 z m 8.0783,-4.08479 c 1.19818,-0.39588 3.13042,-1.10551 4.29388,-1.57695 4.01171,-1.62558 6.07087,-2.27986 8.51442,-2.70538 0.9964,-0.17352 1.34033,-0.30161 1.29338,-0.48171 -0.0352,-0.13493 -0.1145,-0.64165 -0.17628,-1.12604 l -0.11233,-0.8807 -1.00899,-0.126 c -0.55495,-0.0693 -1.24281,-0.2469 -1.52857,-0.39468 -1.2563,-0.64965 -1.61792,-2.122311 -0.81229,-3.307901 0.24211,-0.3563 0.3796,-0.68527 0.30553,-0.73105 -0.10799,-0.0668 -18.41288,-0.19058 -19.2112,-0.12996 -0.12119,0.009 -0.22035,0.20064 -0.22035,0.42543 0,0.76442 -0.52602,2.18349 -1.0571,2.85176 -0.57585,0.724621 -0.65965,1.228121 -0.2943,1.768401 0.39987,0.59133 0.45059,0.90447 0.21885,1.35115 -0.12279,0.23667 -0.27738,0.64598 -0.34354,0.90958 -0.0741,0.29538 -0.30439,0.55088 -0.60014,0.66594 -0.65104,0.25329 -7.80888,0.59461 -9.07819,0.43289 -0.76648,-0.0977 -1.07809,-0.22452 -1.26029,-0.5131 -0.275203,-0.43588 -0.630107,-4.07728 -0.630107,-6.465051 0,-1.76597 0.103141,-1.64295 -1.52685,-1.82117 -1.029619,-0.11258 -1.760372,0.35513 -1.937095,1.23982 -0.161884,0.8104 -0.158181,1.48891 0.02656,4.866781 l 0.142787,2.61077 0.721822,0.58583 c 0.397003,0.3222 1.197783,0.82197 1.779511,1.1106 2.847042,1.41257 5.162952,1.81161 10.400602,1.79203 4.56285,-0.0171 5.66956,-0.13646 6.09125,-0.65722 0.5717,-0.70602 1.99434,-0.47374 2.97606,0.48593 0.3037,0.29687 0.62019,0.53977 0.70332,0.53977 0.0831,0 1.13147,-0.3239 2.32965,-0.71977 z m -22.347737,-0.65305 c 0.0472,-0.0764 -0.324923,-0.36948 -0.826933,-0.65136 -0.50201,-0.28188 -1.301224,-0.91095 -1.776031,-1.39794 l -0.863286,-0.88542 -2.28336,-0.0711 c -2.251343,-0.0702 -2.28067,-0.0661 -2.09152,0.28731 0.244384,0.45664 1.888101,1.91528 2.558719,2.27062 0.281455,0.14914 0.876404,0.33284 1.32211,0.40823 1.093179,0.18492 3.853452,0.21259 3.960301,0.0397 z m -7.677457,-1.97995 c -0.991363,-1.10169 -1.754183,-1.61815 -2.010891,-1.36144 -0.206511,0.20651 2.615697,2.59883 3.065829,2.59883 0.0322,0 -0.442527,-0.55682 -1.054938,-1.23739 z m 54.969294,0.51575 c 0.74804,-0.46113 1.05949,-1.21244 1.19892,-2.89213 0.0644,-0.77563 0.23893,-2.36217 0.38786,-3.525621 0.51645,-4.03431 -0.1969,-7.59892 -2.35809,-11.78337 -1.06365,-2.05943 -2.44079,-3.51805 -5.55341,-5.88199 -1.33167,-1.01137 -2.46676,-1.91252 -2.52241,-2.00257 -0.27784,-0.44954 -1.31511,-0.0708 -4.44602,1.62332 -5.24013,2.83543 -6.38752,3.50875 -6.38752,3.74834 0,0.12346 0.11852,1.01083 0.26338,1.97193 0.14486,0.9611 0.26385,2.4019 0.26442,3.20178 5.3e-4,0.79988 0.0554,1.45432 0.12189,1.45432 0.0665,0 0.30414,-0.17219 0.52815,-0.38264 0.58406,-0.5487 0.7395,-0.23865 0.17549,0.35005 -0.5692,0.59412 -0.58269,0.79216 -0.10013,1.46985 0.49214,0.69114 0.25748,0.898 -0.26928,0.23738 l -0.41072,-0.51509 -0.10266,0.52198 c -0.0565,0.28709 -0.12593,0.99795 -0.15439,1.57967 l -0.0517,1.05769 3.02665,0.0482 3.02665,0.0482 0.36677,-0.98026 c 0.20172,-0.53915 0.36676,-1.13594 0.36676,-1.32622 0,-0.19027 0.0883,-0.34595 0.1963,-0.34595 0.13428,0 0.15663,0.26455 0.0707,0.83734 -0.15169,1.01166 -0.26371,1.23128 -1.35411,2.65476 -0.62232,0.81242 -0.85202,1.26938 -0.85202,1.69497 0,1.683631 2.7308,2.648461 4.27167,1.509251 0.55562,-0.410801 0.8575,-0.35479 0.48792,0.0905 -0.26986,0.32517 -0.11096,0.52885 0.41256,0.52885 0.3333,0 0.40506,0.14852 0.57633,1.19276 0.27399,1.67065 1.05361,2.42101 2.51543,2.42101 1.17842,0 2.13708,-1.20076 2.56852,-3.21714 0.16381,-0.76559 0.5097,-0.60064 0.36965,0.17628 -0.16612,0.92156 -0.69652,1.95236 -1.41072,2.74162 -0.33361,0.36867 -0.56875,0.76887 -0.52252,0.88932 0.1731,0.45109 1.54747,1.17273 2.23348,1.17273 1.29357,0 2.55474,-1.07537 2.91168,-2.48271 0.1086,-0.42817 0.25783,-1.01648 0.33163,-1.30734 l 0.13417,-0.52884 0.0657,0.60602 c 0.11162,1.02969 -0.3172,2.14268 -1.18633,3.07905 -0.80085,0.86282 -0.80141,0.86431 -0.27364,0.73546 0.29086,-0.071 0.77821,-0.28284 1.08299,-0.47072 z m -37.30957,-2.80398 c -0.1803,-2.72808 -0.0921,-7.648531 0.15215,-8.490501 0.27685,-0.95427 0.91323,-1.62809 1.78771,-1.89289 0.50702,-0.15353 0.34993,-0.17094 -0.88141,-0.0977 -0.82411,0.0491 -1.90723,0.13403 -2.40691,0.18882 l -0.90853,0.0996 -0.45766,1.01979 c -0.25171,0.56088 -0.45765,1.08295 -0.45765,1.16015 0,0.0772 -0.13128,0.28542 -0.29174,0.46273 -0.27907,0.30836 -0.25208,0.32237 0.62134,0.32237 0.83318,0 0.92949,0.0424 1.10039,0.48477 0.25487,0.65968 0.11318,2.49617 -0.20828,2.6996 -0.13869,0.0878 -0.9661,0.16876 -1.83869,0.17998 -1.34432,0.0173 -1.48401,0.0445 -0.91495,0.17842 1.26425,0.29744 1.31162,0.36313 1.44869,2.008521 0.0893,1.07189 0.0645,1.57454 -0.0865,1.75655 -0.28669,0.34543 -1.56957,0.51695 -2.16587,0.28958 -0.64911,-0.24751 -1.18866,-1.17557 -1.18866,-2.04456 0,-0.70882 0.54145,-1.850951 0.87749,-1.850951 0.0984,0 0.17887,-0.0641 0.17887,-0.14238 0,-0.0783 -0.40637,-0.14238 -0.90305,-0.14238 -1.21329,0 -1.43754,-0.30406 -1.28177,-1.73795 0.14184,-1.30575 0.28869,-1.50292 1.11934,-1.50292 0.83723,0 0.93779,-0.11453 0.57999,-0.6606 -0.17773,-0.27125 -0.30281,-0.86332 -0.32158,-1.52226 -0.027,-0.94908 -0.0703,-1.07129 -0.36102,-1.01948 -0.936,0.16683 -1.89699,1.8408 -2.091977,3.64405 -0.158624,1.46699 0.192097,7.457191 0.455177,7.774181 0.1725,0.20785 0.93665,0.24363 4.37078,0.20468 l 4.16173,-0.0472 z m 1.53505,0.92547 c 0.18665,-0.16967 0.44024,-0.61063 0.56353,-0.97992 0.19252,-0.57663 0.18238,-0.7595 -0.0718,-1.29518 -0.33489,-0.70574 -0.24341,-1.65037 0.19507,-2.014281 0.14996,-0.12445 0.44272,-0.54889 0.65058,-0.94319 0.33507,-0.63559 0.3786,-1.00689 0.38375,-3.273 l 0.006,-2.55608 -0.67694,0.0215 c -0.84608,0.0269 -1.5129,0.50281 -1.96173,1.4001 -0.32043,0.6406 -0.34404,1.02423 -0.30819,5.00697 0.0214,2.372261 0.0837,4.454591 0.13855,4.627381 0.12712,0.40054 0.64402,0.40326 1.08139,0.006 z m 0.25799,-5.385151 c -0.29183,-0.35163 -0.91087,-2.53514 -0.91087,-3.21285 0,-1.21291 1.1578,-1.79867 1.64659,-0.83305 0.60471,1.19462 0.53939,3.08673 -0.13356,3.86909 -0.33324,0.38742 -0.40893,0.40964 -0.60216,0.17681 z m 0.49938,-0.75103 c 0,-0.13971 -0.0793,-0.25402 -0.17628,-0.25402 -0.097,0 -0.17628,0.16334 -0.17628,0.36297 0,0.19963 0.0793,0.31394 0.17628,0.25402 0.0969,-0.0599 0.17628,-0.22326 0.17628,-0.36297 z m 0.19496,-1.00321 c 0.0596,-1.26615 -0.23736,-2.42387 -0.62179,-2.42387 -0.6163,0 -0.76763,0.71095 -0.43365,2.03731 0.16424,0.65226 0.26739,0.78319 0.61699,0.78319 0.31226,0 0.42456,-0.10158 0.43845,-0.39663 z m -15.724199,6.932961 c 0.20396,-0.12912 0.220139,-0.48042 0.09121,-1.98047 -0.220816,-2.569171 -0.14434,-4.687791 0.187499,-5.194241 0.148465,-0.22658 0.516439,-0.53944 0.817722,-0.69524 0.503628,-0.26044 0.538474,-0.33533 0.432284,-0.92915 -0.06353,-0.35523 -0.163946,-1.06936 -0.223157,-1.58696 -0.05921,-0.5176 -0.194991,-0.96707 -0.301734,-0.99881 -0.106742,-0.0317 -0.965274,-0.10177 -1.907848,-0.15562 l -1.71377,-0.0979 -0.743169,0.7929 c -0.828336,0.88378 -2.090727,2.51945 -2.080938,2.69626 0.0035,0.063 0.204586,0.35249 0.446888,0.64335 l 0.44055,0.52885 0.356667,-0.47872 c 0.413671,-0.55522 1.387699,-0.80679 2.015771,-0.52062 0.974708,0.4441 1.26601,2.40761 0.508215,3.42559 -0.403539,0.54209 -1.149099,1.012411 -1.598113,1.008131 -0.597832,-0.006 -2.875074,0.79348 -2.87828,1.01011 -0.0056,0.38084 0.719695,2.15861 0.991686,2.4306 0.208447,0.20845 0.755263,0.26373 2.58744,0.2616 1.277724,-0.001 2.434708,-0.0733 2.571075,-0.15966 z m -5.800802,-0.27649 c 0,-0.0474 -0.206752,-0.60274 -0.459449,-1.23397 -0.455393,-1.13755 -0.465508,-1.14768 -1.145828,-1.14768 -0.377509,0 -0.68638,0.0423 -0.68638,0.094 0,0.31359 0.940201,1.86628 1.269944,2.09725 0.370925,0.2598 1.021713,0.38108 1.021713,0.1904 z m 47.155581,-0.26679 c 0.0601,-0.0972 0.0577,-0.52061 -0.005,-0.94082 -0.0878,-0.5853 -0.23066,-0.83259 -0.61084,-1.05717 -0.8234,-0.4864 -0.93498,-0.39868 -0.84671,0.66571 0.0437,0.52737 0.18226,1.08266 0.30784,1.23397 0.25555,0.30792 0.98699,0.37017 1.15502,0.0983 z m -31.76283,-0.5521 c 0.11969,-0.19084 0.12582,-0.69696 0.0182,-1.49839 l -0.16257,-1.2102 -0.93979,-0.0538 c -0.5191,-0.0297 -1.04667,0.0349 -1.17857,0.14439 -0.54866,0.45536 -0.5292,2.17253 0.031,2.73271 0.37599,0.37598 1.97564,0.29375 2.2318,-0.11473 z m -14.255459,-2.53591 c 1.654688,-0.782791 2.927037,-2.779871 2.399304,-3.765951 -0.368331,-0.68823 -1.357091,-0.33274 -1.935135,0.69576 -0.509256,0.9061 -1.072318,1.3216 -2.137111,1.57703 -1.158218,0.27786 -1.971919,0.1079 -2.628906,-0.54909 l -0.534055,-0.53405 -0.205989,0.4521 c -0.424309,0.93125 0.300601,2.170111 1.524802,2.605861 0.678927,0.24166 2.521533,-0.0107 3.51709,-0.48166 z m 2.54587,-1.032141 c 0.464027,-0.49612 0.769989,-2.22546 0.393737,-2.22546 -0.10929,0 -0.198709,0.20148 -0.198709,0.44772 0,0.51642 -0.550235,1.67222 -0.956663,2.00952 -0.152519,0.12658 -0.277306,0.30255 -0.277306,0.39105 0,0.232961 0.542925,-0.0925 1.038941,-0.62283 z m 12.410229,-0.28546 0.84506,-8.8e-4 -0.0518,-1.27804 -0.0518,-1.27804 -2.46793,0.0612 c -1.60917,0.0399 -2.51301,0.1319 -2.59745,0.26442 -0.17039,0.26738 -0.17257,2.13235 -0.003,2.30992 0.0727,0.076 0.88581,0.0896 1.80688,0.0303 0.92107,-0.0593 2.05495,-0.10832 2.51973,-0.10883 z m -17.503641,-0.95762 c 0,-0.48192 -0.131517,-0.71256 -0.650047,-1.13998 -0.713806,-0.58837 -1.112767,-0.4977 -1.112767,0.25291 0,0.6689 0.200346,0.98909 0.775579,1.2395 0.843129,0.36704 0.987235,0.31559 0.987235,-0.35243 z m 0.705125,0.25159 c 0,-0.097 -0.08401,-0.17628 -0.186685,-0.17628 -0.102676,0 -0.137658,0.0793 -0.07774,0.17628 0.139604,0.22588 0.264422,0.22588 0.264422,0 z m 1.298337,-0.36536 c 0.255462,-0.20095 0.464477,-0.43253 0.464477,-0.51464 0,-0.28643 -1.781859,-2.09618 -2.592653,-2.63322 -1.370038,-0.90748 -2.356896,-0.57343 -2.076565,0.70291 0.09275,0.4223 0.18476,0.50115 0.49651,0.42551 0.29487,-0.0716 0.685972,0.18942 1.704769,1.13753 0.72716,0.67671 1.370907,1.23418 1.430548,1.23883 0.05964,0.005 0.317452,-0.15597 0.572914,-0.35692 z m 35.967689,-2.32293 c 0.32478,-2.1477 0.26801,-2.60365 -0.24695,-1.98317 -0.12069,0.14543 -0.34482,0.26442 -0.49806,0.26442 -0.18574,0 -0.0496,-0.23452 0.40843,-0.70359 l 0.68704,-0.7036 -0.40236,-0.54423 c -0.43813,-0.5926 -0.33781,-1.0037 0.10446,-0.4281 0.24605,0.32023 0.26006,0.15174 0.15396,-1.85123 -0.12722,-2.4017 -0.31266,-3.63162 -0.58927,-3.90823 -0.11976,-0.11976 -0.87859,0.20737 -2.3203,1.00027 -3.05032,1.6776 -8.66138,4.3625 -10.35026,4.95262 l -1.43622,0.50183 0.33446,0.4252 c 0.26666,0.339 0.33446,0.7182 0.33446,1.87044 0,0.79488 0.0529,1.49813 0.11752,1.56276 0.0646,0.0646 3.15478,0.11752 6.86699,0.11752 h 6.74946 z m -27.781692,-0.52885 c -0.03598,-0.62496 -0.124834,-0.91116 -0.273634,-0.8814 -0.121193,0.0242 -0.220352,-0.0749 -0.220352,-0.22035 0,-0.14544 0.08971,-0.26443 0.199347,-0.26443 0.128509,0 0.164561,-0.21435 0.101455,-0.60323 -0.06955,-0.42859 -0.02519,-0.63113 0.153216,-0.69959 0.495434,-0.19012 0.279078,-0.93706 -0.435315,-1.50287 -0.377532,-0.29901 -0.734502,-0.54365 -0.793266,-0.54365 -0.1525,0 -0.117961,2.32657 0.05694,3.83574 0.158633,1.36878 0.382209,1.80526 0.924697,1.80526 0.299633,0 0.333838,-0.11033 0.286907,-0.92548 z m 1.187912,0.35257 c 0.176291,-0.81862 0.56852,-1.54553 1.18405,-2.19437 l 0.53482,-0.56377 -1.01719,-0.44985 c -1.259131,-0.55685 -1.32589,-0.55678 -1.32589,0.001 0,0.25584 0.0763,0.40394 0.176282,0.34215 0.243487,-0.15048 0.221046,0.19753 -0.03966,0.61498 -0.170396,0.27285 -0.170396,0.39131 0,0.56171 0.299276,0.29928 0.270538,0.55666 -0.04848,0.43424 -0.207092,-0.0795 -0.264422,0.0471 -0.264422,0.58371 0,0.37684 0.04815,0.81065 0.107001,0.96401 0.180985,0.47164 0.563525,0.30943 0.69349,-0.29407 z m 5.03244,0.21198 c 0.30665,-0.16412 0.33242,-0.3076 0.23176,-1.29013 -0.0873,-0.8525 -0.0465,-1.23454 0.17839,-1.66947 0.26421,-0.51091 0.26547,-0.57404 0.0134,-0.67078 -0.50265,-0.19289 -1.55762,0.0938 -2.01,0.54614 -0.37216,0.37217 -0.44496,0.6123 -0.45018,1.48492 -0.005,0.7823 0.0772,1.13327 0.3296,1.41246 0.36446,0.40321 1.14347,0.48848 1.70706,0.18686 z m -14.198362,-1.18153 c 0.367063,-0.46054 0.951171,-1.13806 1.298018,-1.5056 0.698967,-0.74068 0.675703,-0.79049 -0.559572,-1.19817 l -0.714158,-0.23569 -1.117869,1.20336 c -0.614827,0.66185 -1.117868,1.30757 -1.117868,1.43492 0,0.25879 1.03511,1.13352 1.344945,1.13656 0.109514,0.001 0.499441,-0.37485 0.866504,-0.83538 z m 15.284922,-0.84502 c 0.26218,-0.70739 0.26574,-0.81288 0.0304,-0.90318 -0.37416,-0.14358 -0.45631,-0.0111 -0.55924,0.90215 -0.11595,1.0287 0.14775,1.02921 0.52882,0.001 z m 2.15949,-2.37212 c 0.10345,-0.72716 0.28728,-1.50059 0.4085,-1.71874 l 0.2204,-0.39663 -1.81309,0.0176 c -0.9972,0.01 -2.01051,0.0725 -2.25181,0.13969 -0.58438,0.16267 -1.23595,1.16221 -1.23595,1.89604 v 0.59092 h 1.20324 c 1.0615,0 1.25294,0.0529 1.6251,0.44904 0.32456,0.34548 0.56412,0.43696 1.03868,0.39664 l 0.61683,-0.0524 z m -5.12645,0.47131 c 0.14741,-0.98299 0.0182,-1.29013 -0.59412,-1.4126 -0.98433,-0.19686 -3.526894,-1.5812 -4.191198,-2.28196 -1.3618,-1.43653 -2.818405,-2.64242 -2.944789,-2.43793 -0.162656,0.26318 0.389194,1.71522 1.035436,2.72446 1.084644,1.6939 2.918895,3.07365 5.208191,3.91768 1.13816,0.41962 1.35845,0.34409 1.48648,-0.50965 z m 9.79741,-0.16707 c 2.05895,-0.67808 9.99144,-4.62125 13.92623,-6.92261 4.86902,-2.84776 9.38775,-5.19247 10.00691,-5.19247 0.37252,0 0.76476,0.18179 1.18129,0.54752 0.3608,0.31678 0.73483,0.50483 0.88754,0.44623 0.61673,-0.23666 0.0721,-1.67486 -0.84637,-2.23486 -1.27442,-0.77706 -2.92566,-0.27662 -6.11721,1.85398 -1.07477,0.71748 -2.23703,1.31482 -3.24452,1.6675 -0.86341,0.30225 -2.21197,0.93253 -2.99678,1.40062 -4.94975,2.95223 -10.0123,5.38261 -13.98358,6.71311 -1.76846,0.59249 -2.51308,0.69291 -2.18226,0.2943 0.33443,-0.40296 -0.20365,-0.72403 -0.55515,-0.33125 -0.31132,0.34787 -0.58006,1.82825 -0.41159,2.26727 0.16362,0.42638 2.23215,0.18336 4.33549,-0.50934 z m -16.076855,0.36563 c 0.237444,-0.23744 0.291301,-1.83373 0.06656,-1.97263 -0.135649,-0.0838 -1.735403,0.82474 -2.690543,1.52809 -0.359482,0.26471 -0.384559,0.33968 -0.161257,0.48207 0.382992,0.24422 2.532459,0.21526 2.785245,-0.0375 z m -2.524246,-0.89022 c 0.707036,-0.50901 1.541283,-1.06564 1.853881,-1.23697 0.531386,-0.29122 0.551778,-0.33646 0.313452,-0.6954 -0.454582,-0.68464 -0.760524,-0.77163 -1.493358,-0.42461 -0.950536,0.45011 -3.579194,2.23558 -3.579194,2.4311 0,0.12841 1.291401,0.83041 1.559045,0.84749 0.03336,0.002 0.639138,-0.41259 1.346174,-0.92161 z m -3.532256,0.0552 c 0.354389,-0.39159 0.234379,-0.71623 -0.264773,-0.71623 -0.262656,0 -0.342159,0.12288 -0.342159,0.52884 0,0.61329 0.173123,0.66675 0.606932,0.18739 z m 1.825956,-1.42628 c 0.601006,-0.39053 1.092739,-0.7791 1.092739,-0.86351 0,-0.0844 -0.231216,-0.593 -0.513814,-1.13023 -0.282597,-0.53722 -0.608392,-1.4377 -0.723989,-2.00106 -0.329475,-1.6057 -0.303275,-1.56916 -0.794356,-1.10781 -0.569259,0.53479 -2.200065,3.82429 -2.199236,4.43607 3.52e-4,0.26091 0.09864,0.53855 0.21841,0.61699 0.236535,0.1549 1.57243,0.73374 1.730347,0.74975 0.05344,0.005 0.588892,-0.30967 1.189899,-0.7002 z m 11.080131,0.005 c 0.62396,-0.7003 1.36014,-0.87957 3.61678,-0.88075 1.85603,-0.001 1.88861,0.006 2.41031,0.52786 0.29086,0.29087 0.65538,0.52885 0.81003,0.52885 0.67338,0 6.13167,-2.32274 9.52955,-4.05524 4.98261,-2.54052 5.0379,-2.57522 4.862,-3.05073 -0.0876,-0.23673 -0.37131,-0.44102 -0.73925,-0.53226 -0.32842,-0.0814 -1.09801,-0.30652 -1.71021,-0.50019 -1.199,-0.37929 -1.61828,-0.3389 -1.621,0.15616 -0.004,0.68637 -0.92567,2.23917 -1.91941,3.2329 -1.84754,1.84755 -5.29566,3.16687 -7.63716,2.92213 -1.17247,-0.12255 -2.47341,-0.6343 -3.10706,-1.22224 -0.23001,-0.21341 -0.69154,-0.81293 -1.02563,-1.33226 l -0.60743,-0.94424 -0.91566,0.91439 c -1.01735,1.01593 -2.41844,1.86235 -3.38202,2.04311 -0.64875,0.12171 -1.49998,0.98429 -1.49998,1.51998 0,0.21544 1.76274,1.10951 2.33437,1.184 0.072,0.009 0.34276,-0.22078 0.60177,-0.51147 z m -3.10247,-1.27836 c 0.54687,-0.65554 0.43238,-0.83733 -0.527318,-0.83733 -0.478462,0 -1.070604,-0.0763 -1.31587,-0.16955 -0.791906,-0.30108 -0.68262,0.13107 0.196184,0.77577 0.994934,0.72989 1.206179,0.75953 1.647004,0.23111 z m -5.178608,-0.35649 c 0.166204,-0.16916 0.139101,-0.42817 -0.124095,-1.18597 -0.185207,-0.53325 -0.33933,-1.19583 -0.342495,-1.47241 -0.0062,-0.54382 -0.869445,-2.22902 -1.141938,-2.22932 -0.36088,-3.5e-4 -1.1554,0.96332 -1.153382,1.39898 0.0044,0.95307 0.704035,2.95407 1.288105,3.68413 0.216432,0.27053 1.135752,0.14863 1.473805,-0.19541 z m 18.830458,-0.67766 c 2.5989,-0.71818 5.38497,-2.89667 5.96564,-4.66468 0.35792,-1.08979 0.44018,-2.04199 0.18428,-2.13315 -0.10792,-0.0384 -0.29908,0.19091 -0.42481,0.50966 -0.44927,1.13905 -1.01772,1.72539 -1.67274,1.72539 -0.60716,0 -1.0397,-0.3202 -1.63796,-1.21252 -0.26164,-0.39026 -0.36096,-0.41232 -1.43589,-0.31892 -1.4935,0.12978 -5.84315,1.15065 -6.15406,1.44437 -0.13181,0.12453 -0.31002,0.60308 -0.39603,1.06344 -0.18005,0.9638 -0.41636,1.31529 -0.88428,1.31529 -0.48351,0 -0.40894,0.26525 0.293,1.04222 1.00979,1.11771 1.82736,1.42558 3.78306,1.42459 0.92107,-5.3e-4 1.99197,-0.0885 2.37979,-0.19569 z m -10.8413,-0.72074 c 0.88395,-0.43496 2.06755,-1.387 2.60416,-2.09469 0.1711,-0.22565 0.12196,-0.49982 -0.25275,-1.41025 -0.41241,-1.00204 -0.47129,-1.40805 -0.51942,-3.58183 -0.0299,-1.34842 -0.11713,-2.5067 -0.19394,-2.57394 -0.20915,-0.18309 -2.13047,-0.67216 -3.15641,-0.80347 -1.16465,-0.14905 -2.559285,0.24861 -3.55456,1.01355 -0.926954,0.71243 -1.922608,2.11534 -3.052001,4.30037 -0.862245,1.66818 -0.86507,1.6792 -0.574689,2.24074 0.160499,0.31037 0.775523,1.04754 1.36672,1.63816 1.428306,1.42691 2.535006,1.84087 4.77681,1.78674 1.31972,-0.0319 1.74959,-0.11854 2.55608,-0.51538 z m 4.79806,-2.56378 c 0.44117,-1.83391 0.33209,-1.68285 1.46488,-2.02862 1.02235,-0.31206 4.53698,-1.04764 6.01292,-1.25845 0.70314,-0.10044 0.7508,-0.0756 1.32211,0.68782 0.61911,0.82734 1.24444,1.13723 1.72172,0.85324 0.15467,-0.092 0.4915,-0.59484 0.74852,-1.11736 0.25702,-0.52253 0.63382,-1.01164 0.83733,-1.08693 0.45036,-0.16659 0.47812,-0.71689 0.10788,-2.13834 -0.36784,-1.41221 -1.34216,-3.26275 -2.14378,-4.07167 -2.01538,-2.03376 -5.92269,-2.40055 -8.98484,-0.84344 -1.54979,0.78807 -2.44134,1.64675 -3.10096,2.98664 -0.56907,1.15595 -0.58008,1.22328 -0.56784,3.47416 0.0133,2.4451 0.31544,3.68346 1.16099,4.75841 0.52587,0.66853 1.23425,0.56113 1.42107,-0.21546 z m 0.15421,-6.3202 c -0.59677,-0.25093 -1.19267,-1.26952 -1.01442,-1.734 0.0983,-0.25611 0.18787,-0.24652 0.86234,0.0922 1.26786,0.63682 1.94388,1.21653 1.7255,1.47967 -0.28786,0.34684 -0.96749,0.41685 -1.57342,0.16208 z m 1.00557,-0.22047 c 0.18741,-0.11888 0.18741,-0.17807 0,-0.32783 -0.40445,-0.32321 -1.39319,-0.77883 -1.56551,-0.72139 -0.24372,0.0812 0.34076,0.84652 0.78276,1.02489 0.48584,0.19606 0.5108,0.19684 0.78275,0.0243 z m 3.46844,-0.73866 c -0.0626,-0.1012 -0.0123,-0.31935 0.11162,-0.48477 0.45834,-0.61178 2.00173,-2.15172 2.15655,-2.15172 0.088,0 0.12276,0.44973 0.0772,0.99941 -0.0672,0.8104 -0.17321,1.07712 -0.56051,1.41025 -0.49961,0.42975 -1.57497,0.56642 -1.78484,0.22683 z m 1.66665,-0.63303 c 0.20095,-0.25546 0.36536,-0.66766 0.36536,-0.91599 v -0.45151 l -0.63146,0.60749 c -0.34729,0.33413 -0.70705,0.74632 -0.79946,0.91599 -0.28678,0.52656 0.6348,0.39165 1.06556,-0.15598 z m -19.43891,4.96862 c 2.112974,-4.25518 4.1171,-5.67389 7.37478,-5.22057 0.67959,0.0946 1.59259,0.29809 2.02889,0.45226 0.90589,0.32013 0.89461,0.3277 1.79947,-1.20744 0.29356,-0.49805 0.90441,-1.11396 1.58653,-1.59968 1.9445,-1.38463 1.96125,-1.4016 1.82033,-1.84559 -0.15091,-0.47549 -0.68173,-0.71683 -3.44352,-1.56558 -1.90472,-0.58536 -2.18186,-0.62404 -4.5859,-0.63998 -2.537122,-0.0168 -2.568288,-0.0122 -3.701906,0.54642 -1.929187,0.95069 -3.86839,2.96712 -5.354041,5.56725 l -0.481206,0.84218 0.464492,1.7987 c 0.438117,1.69656 1.435445,4.53773 1.592867,4.53773 0.03965,0 0.444295,-0.74956 0.899214,-1.6657 z m 31.00851,1.40688 c 0.32368,-0.24481 0.31119,-0.25911 -0.23073,-0.26442 -0.54384,-0.005 -0.71444,0.14667 -0.45539,0.40572 0.17345,0.17345 0.30612,0.14613 0.68612,-0.1413 z m 1.92675,-0.97464 c 2.43803,-0.62355 4.79922,-2.26109 6.02638,-4.17945 0.32358,-0.50585 0.82582,-1.62856 1.11608,-2.49493 0.49875,-1.48868 0.52774,-1.73058 0.52774,-4.40338 0,-1.99764 -0.0617,-2.86627 -0.20994,-2.95792 -0.11547,-0.0714 -0.24287,-0.031 -0.2831,0.0897 -0.16514,0.49542 -2.33987,3.04664 -4.08118,4.7877 -2.67069,2.67033 -5.56402,4.53153 -8.6028,5.53394 l -1.45432,0.47974 v 1.1912 c 0,1.3758 0.008,1.38261 2.20351,1.96102 1.61991,0.4267 3.06856,0.42439 4.75763,-0.008 z m 7.09918,-3.70251 c 0.51005,-0.19386 1.08766,-0.35247 1.28357,-0.35247 0.57144,0 0.59146,-0.4375 0.0931,-2.03576 -0.48052,-1.5412 -0.67999,-1.7217 -0.86736,-0.78486 -0.0837,0.41841 -0.81014,2.07703 -1.48633,3.39353 -0.0938,0.18268 -0.0688,0.17702 0.97698,-0.22044 z m -11.76867,-0.62306 c 3.95769,-1.62888 7.80799,-4.78007 10.86968,-8.89604 0.61302,-0.82411 1.11523,-1.65677 1.11602,-1.85035 0.002,-0.50652 -0.82036,-2.89771 -1.22463,-3.56058 -0.30823,-0.50542 -0.45738,-0.57685 -1.45373,-0.69623 -1.29554,-0.15522 -1.58788,-0.11912 -1.78086,0.21993 -0.38543,0.67715 -2.46976,3.10129 -3.78351,4.40033 -2.75538,2.72455 -5.21743,4.09685 -8.75789,4.8815 l -1.93001,0.42773 0.813,0.47645 c 0.44715,0.26204 1.14185,0.83321 1.54378,1.26925 0.66417,0.72054 1.75745,2.69017 1.99282,3.59023 0.13857,0.52989 0.84389,0.45863 2.59533,-0.26222 z m -28.324941,-5.45806 c 2.091391,-2.08882 3.658095,-2.76811 6.377921,-2.76535 1.88044,0.002 3.12529,0.23349 6.03871,1.12339 0.99438,0.30373 1.86023,0.49997 1.92411,0.43609 0.0639,-0.0639 -0.022,-0.57241 -0.19085,-1.13006 -0.45791,-1.51233 -0.51773,-1.96145 -0.29671,-2.22776 0.25702,-0.30969 3.02152,-0.89383 3.57396,-0.75518 0.39857,0.10004 0.43274,0.22019 0.64587,2.2713 0.33958,3.26795 0.10694,2.95894 2.22764,2.95894 2.91094,0 6.30871,-1.04343 8.67207,-2.66313 1.88951,-1.29495 6.73997,-6.45423 6.4734,-6.88555 -0.15414,-0.2494 -7.20603,-0.16186 -10.01395,0.12431 -11.51566,1.17362 -21.790427,4.52745 -27.383547,8.9384 l -1.101759,0.86889 v 1.63011 c 0,0.89656 0.05259,1.6827 0.116858,1.74697 0.06427,0.0643 0.506095,-0.49066 0.981829,-1.23319 0.475734,-0.74253 1.355235,-1.83971 1.954448,-2.43818 z m 16.846651,0.0906 c 0.52224,-0.0986 0.97837,-0.17926 1.01361,-0.17926 0.0352,0 0.0641,-0.0793 0.0641,-0.17628 0,-0.097 -0.18391,-0.17629 -0.4087,-0.17629 -0.62911,0 -2.23552,0.52014 -2.23552,0.72384 0,0.0997 0.13883,0.13766 0.3085,0.0843 0.16967,-0.0534 0.73578,-0.17771 1.25803,-0.2763 z m 24.69669,-0.41002 c -0.004,-0.93022 -0.28412,-1.13257 -0.41698,-0.30171 -0.0642,0.40158 -0.0699,0.80595 -0.0126,0.8986 0.19072,0.30859 0.43236,-0.0271 0.42962,-0.59689 z m -25.02472,-0.28202 c 0.53076,-0.11092 1.06856,-0.26645 1.19511,-0.34563 0.32582,-0.20385 0.0847,-1.95381 -0.289,-2.0972 -0.29679,-0.11389 -2.48576,0.40577 -2.72749,0.64751 -0.0814,0.0814 -0.0589,0.49513 0.0499,0.91952 0.30063,1.17267 0.3422,1.2556 0.58305,1.16318 0.12286,-0.0472 0.65765,-0.17647 1.18841,-0.28738 z m -0.35709,-2.64004 1.32211,-0.31755 0.0542,-0.73274 c 0.049,-0.66291 0.0154,-0.73296 -0.35256,-0.735 -0.7553,-0.004 -3.00153,0.60306 -3.09075,0.83556 -0.11946,0.31133 0.29708,1.28393 0.54592,1.27467 0.10943,-0.004 0.79391,-0.15029 1.52107,-0.32494 z m -10.04804,-2.3496 c 0,-0.0969 -0.12547,-0.12813 -0.27884,-0.0693 -0.15336,0.0588 -0.31669,0.10701 -0.36296,0.10701 -0.0463,0 -0.0372,0.0759 0.0201,0.16858 0.12648,0.20465 0.62174,0.0403 0.62174,-0.20631 z m 8.58249,-2.49469 c 0.95148,-0.22937 2.70172,-0.59735 3.88942,-0.81774 2.55138,-0.47343 2.62059,-0.57664 1.32211,-1.97141 -0.90895,-0.97634 -2.9239,-2.08225 -3.79383,-2.08225 -1.13137,0 -2.1682,1.00235 -3.1217,3.01789 -0.57502,1.21549 -0.70474,2.27055 -0.27917,2.27055 0.13926,0 1.03168,-0.18767 1.98317,-0.41704 z m 8.73716,-1.55515 c 0.9453,-0.11702 1.71874,-0.27644 1.71874,-0.35426 0,-0.20812 -3.837,-0.17446 -3.96633,0.0348 -0.13838,0.22389 0.0446,0.52832 0.3189,0.53055 0.11547,9.3e-4 0.98338,-0.094 1.92869,-0.21108 z m 3.55527,-0.42647 c 0.15337,-0.0588 0.27884,-0.18311 0.27884,-0.27613 0,-0.24655 -0.92925,-0.0975 -1.01471,0.16278 -0.0771,0.23493 0.27693,0.28946 0.73587,0.11335 z m -2.80699,-0.59664 c 0.16542,-0.26766 -0.82296,-1.59145 -2.00594,-2.68668 -1.17379,-1.086722 -2.60225,-1.847992 -3.76722,-2.00767 -0.72011,-0.0987 -0.81921,-0.0554 -1.85629,0.811165 -0.60256,0.503487 -1.09556,0.976845 -1.09556,1.051905 0,0.0751 0.38715,0.18232 0.86035,0.23836 1.2035,0.14254 2.30985,0.70847 3.55232,1.8171 l 1.06537,0.95062 h 1.56947 c 0.8632,0 1.61808,-0.0787 1.6775,-0.1748 z"
       id="path8576" />
  </g>
</svg>
