<?xml version="1.0" encoding="UTF-8" standalone="no"?>
<!-- Created with Inkscape (http://www.inkscape.org/) -->

<svg
   width="210mm"
   height="297mm"
   viewBox="0 0 210 297"
   version="1.1"
   id="svg1055"
   inkscape:version="1.1 (c68e22c387, 2021-05-23)"
   sodipodi:docname="Schmetterling1.svg"
   xmlns:inkscape="http://www.inkscape.org/namespaces/inkscape"
   xmlns:sodipodi="http://sodipodi.sourceforge.net/DTD/sodipodi-0.dtd"
   xmlns="http://www.w3.org/2000/svg"
   xmlns:svg="http://www.w3.org/2000/svg">
  <sodipodi:namedview
     id="namedview1057"
     pagecolor="#ffffff"
     bordercolor="#666666"
     borderopacity="1.0"
     inkscape:pageshadow="2"
     inkscape:pageopacity="0.0"
     inkscape:pagecheckerboard="0"
     inkscape:document-units="mm"
     showgrid="false"
     inkscape:zoom="0.48882427"
     inkscape:cx="590.19165"
     inkscape:cy="585.07734"
     inkscape:window-width="1920"
     inkscape:window-height="1000"
     inkscape:window-x="-11"
     inkscape:window-y="-11"
     inkscape:window-maximized="1"
     inkscape:current-layer="layer1" />
  <defs
     id="defs1052" />
  <g
     inkscape:label="Ebene 1"
     inkscape:groupmode="layer"
     id="layer1">
    <path
       style="fill:#000000;stroke-width:0.689187"
       d="m 56.913757,156.00947 c -0.0203,-2.98602 -2.4392,-4.52139 -4.57447,-2.90362 -2.2504,1.70499 -2.89848,1.20964 -2.77111,-2.11805 0.12889,-3.36745 -0.70962,-4.42524 -3.52281,-4.44409 -1.34259,-0.009 -1.46968,-0.20721 -0.86149,-1.34362 1.35948,-2.5402 0.81015,-4.64191 -1.81588,-6.9476 -2.11339,-1.85559 -2.39444,-2.40565 -1.70911,-3.34503 3.02651,-4.14846 3.15282,-8.03125 0.31381,-9.64667 -1.04269,-0.59329 -1.1039,-0.90936 -0.3778,-1.95088 2.24174,-3.21555 2.49401,-4.29393 1.31043,-5.60177 -1.48665,-1.64273 -1.44147,-2.39396 0.23524,-3.91136 1.47202,-1.33216 1.82245,-3.43473 0.68919,-4.13512 -0.37905,-0.23427 -0.68919,-0.65091 -0.68919,-0.92586 0,-0.82968 3.89894,-2.86467 5.48856,-2.86467 1.33696,0 1.20263,-0.3353 -1.34445,-3.35598 -3.23651,-3.838316 -5.52248,-9.244426 -5.52248,-13.060176 0,-1.43969 -0.45534,-3.21964 -1.01186,-3.95543 -0.55653,-0.73579 -1.02173,-1.98753 -1.03378,-2.78165 -0.0121,-0.794124 -0.62461,-1.989294 -1.36123,-2.655924 -0.73662,-0.66663 -1.54727,-2.15886 -1.80143,-3.31606 -0.25416,-1.1572 -1.82241,-4.09092 -3.485,-6.51938 -1.66258,-2.42845 -3.02288,-4.90312 -3.02288,-5.49926 0,-1.80483 5.8191,-0.57861 12.23858,2.57896 15.63625,7.69106 30.599,23.856924 39.6755,42.86567 1.58195,3.31306 3.25729,6.02673 3.72298,6.03039 0.65388,0.005 0.66731,-0.38709 0.059,-1.72221 -0.59995,-1.31675 -0.58636,-2.10509 0.057,-3.30723 0.7029,-1.31338 0.60417,-2.2213 -0.58808,-5.40787 -2.263,-6.048416 -5.06438,-9.653546 -13.96623,-17.973326 C 61.361797,78.5549 56.196357,71.71801 56.314387,68.03006 l 0.0793,-2.47637 0.48673,2.41216 c 0.92395,4.57899 3.00947,7.27674 14.1292,18.276984 9.53711,9.43462 11.5298,11.77879 13.69971,16.116186 1.39659,2.79162 2.53926,5.65428 2.53926,6.36145 0,0.82632 0.49255,1.28578 1.37837,1.28578 0.85072,0 1.38095,-0.4617 1.38511,-1.20608 0.0112,-2.00088 3.34656,-8.53211 6.0289,-11.805556 1.38578,-1.69116 6.764333,-7.28626 11.952333,-12.43357 9.31614,-9.243064 12.33626,-13.393424 12.33626,-16.953004 0,-0.98511 0.27784,-1.61938 0.61743,-1.4095 1.10858,0.68513 -0.44891,5.3012 -3.07532,9.11464 -1.40919,2.04608 -6.36269,7.285814 -11.00779,11.643834 -9.304043,8.72905 -12.690173,13.102666 -14.801723,19.118356 -1.24115,3.53595 -1.28445,4.11252 -0.37706,5.01992 0.76929,0.76929 0.85961,1.46053 0.36188,2.76966 -0.84733,2.22864 -0.83701,2.34924 0.19821,2.31793 0.47382,-0.0143 2.31697,-3.03813 4.0959,-6.71957 8.304193,-17.185276 20.655063,-31.26032 35.132743,-40.03725 7.34593,-4.45338 16.4232,-7.01619 16.4232,-4.63681 0,0.52719 -1.08741,2.46553 -2.41648,4.30742 -1.32906,1.84189 -2.75742,4.12423 -3.17411,5.07186 -1.3634,3.10054 -2.66018,5.83895 -3.26367,6.89187 -1.71538,2.992894 -2.78353,6.231224 -3.11021,9.429194 -0.41646,4.07699 -2.32982,8.24796 -5.67842,12.378506 l -2.31456,2.85506 2.32842,0.43682 c 3.12694,0.58661 4.06469,1.80111 3.18244,4.12161 -0.59128,1.55518 -0.44236,2.03885 1.01896,3.30945 2.01426,1.75137 2.10624,2.41772 0.56833,4.1171 -1.17247,1.29556 -0.89875,2.50717 1.22949,5.44226 0.62948,0.86811 0.42507,1.44388 -1.02877,2.89771 -2.26216,2.26216 -2.28167,3.75276 -0.0914,6.98033 1.74911,2.57745 2.1467,3.8561 1.19904,3.8561 -0.28817,0 -1.37363,0.78788 -2.41216,1.75086 -2.03876,1.89044 -2.5872,5.54472 -1.06119,7.07073 0.64324,0.64324 0.34232,0.82702 -1.35413,0.82702 -2.78384,0 -3.87865,1.87198 -3.25471,5.56509 0.48129,2.84871 -0.21649,3.49707 -1.76089,1.63618 -0.53544,-0.64517 -1.7144,-0.98671 -2.97372,-0.86148 -1.73198,0.17223 -2.19005,0.60954 -2.69553,2.57341 l -0.60897,2.36593 -2.05012,-2.19363 c -2.18341,-2.33624 -4.52428,-2.86069 -5.17696,-1.15985 -0.64561,1.68245 -1.46813,1.1931 -2.31679,-1.37837 -0.8146,-2.46826 -1.71263,-3.08433 -2.26037,-1.55067 -0.52707,1.47581 -1.23709,0.13082 -2.27134,-4.30259 -1.16884,-5.01039 -4.75092,-13.98007 -6.707383,-16.79559 -1.29009,-1.85654 -5.74613,-4.35903 -6.47106,-3.6341 -0.18232,0.18232 0.0481,2.02755 0.51198,4.10052 1.23194,5.50488 0.53219,13.70693 -1.59848,18.7365 -0.96346,2.27431 -1.95348,4.75022 -2.20003,5.50202 -0.35662,1.08743 -0.80316,0.52381 -2.18407,-2.75675 -3.78413,-8.98976 -4.61936,-15.65911 -2.74217,-21.89653 0.52545,-1.74593 0.78954,-3.34025 0.58687,-3.54292 -0.73026,-0.73026 -3.99291,0.50897 -5.82469,2.21237 -2.2147,2.05948 -6.12263,11.06173 -7.80272,17.97425 -0.65766,2.70584 -1.46394,4.91971 -1.79174,4.91971 -0.32781,0 -0.59601,-0.31013 -0.59601,-0.68919 0,-1.3124 -1.28754,-0.68249 -1.76087,0.86149 -0.87385,2.85042 -1.65188,3.30682 -3.12535,1.83335 -1.58387,-1.58387 -3.20848,-1.01589 -5.02527,1.75689 -1.41923,2.16601 -2.49046,2.25168 -2.50442,0.20028 z m 9.86438,-7.3584 c 1.11211,-1.88265 1.10246,-2.04905 -0.20876,-3.59662 l -1.37483,-1.62264 -1.37837,1.62702 c -1.52465,1.79968 -1.79582,4.22714 -0.60521,5.41776 1.0709,1.0709 2.19648,0.49487 3.56717,-1.82552 z m 48.727053,-0.3592 c 0,-0.83514 -0.73604,-2.20992 -1.63564,-3.05505 -1.51053,-1.41907 -1.7214,-1.45085 -2.75675,-0.4155 -0.61661,0.61661 -1.12111,1.26942 -1.12111,1.45069 0,0.92462 2.15336,4.31292 2.91455,4.58605 1.29,0.46288 2.59895,-0.82957 2.59895,-2.56619 z m -55.877013,-1.47538 c 2.18251,-1.83647 2.62025,-3.57517 1.4504,-5.76106 -1.13363,-2.1182 -2.64661,-2.18261 -4.49309,-0.19127 -1.86359,2.0098 -2.31817,5.49308 -0.90172,6.90953 1.15738,1.15738 1.54241,1.06395 3.94441,-0.9572 z m 63.458063,-1.67509 c 0,-1.30075 -0.74598,-2.8427 -2.07216,-4.28316 l -2.07216,-2.25074 -1.37377,1.62702 c -1.96869,2.33161 -1.72316,4.50375 0.74373,6.57948 2.65046,2.23022 4.77436,1.48615 4.77436,-1.6726 z m -52.308393,-5.33164 c 0.86209,-1.7984 3.25403,-5.99607 5.31542,-9.32817 2.0614,-3.3321 3.58686,-6.21948 3.38993,-6.41642 -0.85264,-0.85264 -10.90595,11.08326 -12.19841,14.48268 -0.74682,1.9643 0.2079,5.59334 1.29477,4.92161 0.34697,-0.21443 1.3362,-1.8613 2.19829,-3.6597 z m 39.903033,0.73985 c 0,-1.80496 -0.80515,-3.57592 -3.03651,-6.67889 -3.14965,-4.37999 -8.424643,-9.8763 -8.962453,-9.33848 -0.16945,0.16945 1.07285,2.5728 2.760673,5.3408 1.68782,2.76799 3.88962,6.64094 4.89289,8.60655 1.00327,1.96562 2.11642,3.95811 2.47367,4.42774 1.03443,1.35989 1.87173,0.30519 1.87173,-2.35772 z m -45.409833,-2.80359 c 2.33776,-3.85495 9.4666,-12.4727 10.99395,-13.2901 1.70522,-0.91261 1.81628,-2.86161 0.12884,-2.26084 -2.40247,0.85533 -9.75515,6.46786 -12.17167,9.29102 -2.58566,3.02077 -3.27697,6.38691 -1.64653,8.01735 1.08184,1.08184 0.90279,1.19858 2.69541,-1.75743 z m 50.923333,-1.37887 c 0,-2.07059 -0.64124,-3.03569 -4.48327,-6.74761 -4.0417,-3.90481 -11.11185,-8.38302 -11.935183,-7.55969 -0.1781,0.1781 1.906153,2.67139 4.631663,5.54065 2.72552,2.86926 6.04942,6.92693 7.38645,9.01705 1.99373,3.11669 2.60807,3.65322 3.41565,2.98299 0.54158,-0.44947 0.98469,-1.90449 0.98469,-3.23339 z m -61.650903,1.58249 c 1.90985,-1.90985 2.13779,-3.63744 0.73336,-5.55812 -0.8244,-1.12743 -1.21097,-1.19539 -2.7669,-0.48647 -2.4412,1.11229 -3.45232,3.4493 -2.53558,5.8605 0.88434,2.326 2.36746,2.38575 4.56912,0.18409 z m 73.341173,-0.31339 c 1.00493,-2.42612 0.25896,-4.16034 -2.40216,-5.58454 -1.67434,-0.89608 -1.93511,-0.86534 -2.81012,0.3313 -1.47904,2.02272 -1.15334,4.25294 0.85141,5.82988 2.44534,1.92351 3.37627,1.80041 4.36087,-0.57664 z m -63.462493,-8.16047 c 2.5606,-2.55861 6.25683,-5.58241 8.21383,-6.71957 1.95701,-1.13716 3.56435,-2.34232 3.57187,-2.67813 0.0242,-1.07924 -6.07072,0.18282 -9.65542,1.99932 -5.41967,2.74636 -8.93894,6.25596 -8.93894,8.91438 0,4.45379 1.07342,4.21479 6.80866,-1.516 z m 55.610643,2.98355 c 0.7035,-2.80296 0.0913,-3.99318 -3.60329,-7.0049 -4.02187,-3.27854 -10.47987,-5.97057 -13.5829,-5.66206 -2.03499,0.20232 -1.98854,0.26564 2.01413,2.74531 2.25345,1.39603 6.10409,4.5749 8.55698,7.06416 2.45289,2.48928 4.85052,4.52595 5.32807,4.52595 0.47754,0 1.0567,-0.75081 1.28701,-1.66846 z m -67.556883,-4.15831 c 2.03069,-2.03068 2.1142,-3.14731 0.39423,-5.27138 -1.14043,-1.40837 -1.51338,-1.50384 -3.08233,-0.78898 -2.11196,0.96227 -2.99143,3.73971 -1.92518,6.07986 0.97011,2.12918 2.47095,2.12283 4.61328,-0.0195 z m 77.832173,-1.75429 c 0.4843,-1.98358 -0.67485,-3.79198 -2.84181,-4.43351 -3.06228,-0.90659 -5.00844,3.76126 -2.48477,5.95973 2.68467,2.33874 4.51066,1.81554 5.32658,-1.52622 z m -70.959813,-2.08669 c 0.76922,-1.24461 8.48164,-4.79369 12.10631,-5.57104 4.8293,-1.0357 3.42124,-2.20314 -2.60532,-2.1601 -5.1833,0.037 -10.01787,1.49981 -12.42223,3.75858 -1.73347,1.62852 -1.93007,2.72088 -0.85217,4.73495 0.56832,1.06191 0.99162,1.19546 2.02918,0.64018 0.72108,-0.38592 1.50598,-1.01707 1.74423,-1.40257 z m 63.737963,-1.05342 c 0,-3.44269 -7.11517,-6.77139 -14.35254,-6.71457 -5.83414,0.0458 -6.84483,1.16116 -2.07137,2.28588 4.13436,0.97415 8.7091,3.13992 12.28134,5.81423 2.23543,1.67352 2.46587,1.71659 3.27364,0.6119 0.47791,-0.65358 0.86893,-1.55243 0.86893,-1.99744 z m -72.765573,-3.48089 c 1.3715,-0.5263 1.43941,-3.94734 0.10042,-5.05861 -1.55533,-1.29081 -3.83458,0.2722 -3.83458,2.62957 0,2.7699 1.05592,3.45677 3.73416,2.42904 z m 80.787183,-0.617 c 1.08091,-2.8168 -1.60907,-6.08227 -3.62925,-4.40567 -1.18303,0.98182 -1.24327,4.51716 -0.0849,4.98456 1.70677,0.6887 3.32453,0.43656 3.71419,-0.57889 z m -6.65378,-3.35648 c -0.0264,-3.6689 -3.20075,-4.92405 -9.84571,-3.89305 -5.22095,0.81006 -9.14148,2.4146 -7.37341,3.0177 0.56858,0.19394 3.04965,0.46255 5.51349,0.59691 2.66935,0.14556 5.59379,0.80323 7.23646,1.62738 3.03591,1.52315 4.48669,1.08526 4.46917,-1.34894 z m -66.054353,0.96101 c 2.03694,-0.92429 4.52071,-1.36812 7.71375,-1.37838 3.41117,-0.011 4.63167,-0.24845 4.42733,-0.86148 -0.74578,-2.23732 -13.67854,-3.86041 -15.92256,-1.99831 -1.67885,1.39312 -1.46991,5.6014 0.27811,5.6014 0.27448,0 1.851,-0.61345 3.50337,-1.36323 z m 21.0476,-6.53304 c -3.70381,-7.79916 -8.38693,-14.637136 -13.58353,-19.833736 -9.40847,-9.408474 -8.52239,-3.49048 0.94835,6.33392 3.14959,3.267196 7.69625,8.948776 10.10368,12.625746 2.40744,3.67696 4.51661,6.54593 4.68705,6.37549 0.17044,-0.17044 -0.79956,-2.64608 -2.15555,-5.50142 z m 21.428923,-0.71856 c 4.22944,-6.39669 9.51398,-12.840536 13.65844,-16.654796 2.86075,-2.63282 5.02354,-7.12215 3.4312,-7.12215 -1.69156,0 -9.32079,7.59622 -12.78445,12.72914 -3.422,5.071176 -8.973473,15.591676 -8.973473,17.005456 0,1.10407 -0.006,1.11114 4.668283,-5.95765 z m -50.154613,1.0659 c 0,-2.83514 -3.00143,-3.8739 -3.68131,-1.27406 -0.55391,2.11817 0.69828,3.4791 2.3753,2.58158 0.7183,-0.38442 1.30601,-0.97281 1.30601,-1.30752 z m 25.49991,0.69284 c 0,-0.35937 -1.52561,-2.48661 -3.39024,-4.72719 -3.58778,-4.31116 -6.68104,-6.04202 -12.13335,-6.789346 -4.24359,-0.58164 -10.66551,0.320366 -10.66551,1.498066 0,1.38484 2.76742,3.09083 5.0139,3.09083 4.25846,0 11.54976,2.23398 15.78019,4.83489 4.61875,2.83965 5.39501,3.14077 5.39501,2.09275 z m 30.620723,-2.07679 c 5.29152,-2.92098 11.50709,-4.85085 15.62324,-4.85085 3.06231,0 6.23452,-2.20597 4.99174,-3.47128 -0.43885,-0.4468 -2.78725,-0.97205 -5.21867,-1.167216 -5.61511,-0.45073 -11.35479,1.140596 -14.6964,4.074566 -2.49327,2.18912 -6.9618,8.14498 -6.11097,8.14498 0.25583,0 2.69081,-1.22859 5.41106,-2.7302 z m 23.69852,0.84083 c -0.26581,-2.30299 -2.31833,-2.93581 -2.96042,-0.91274 -0.57651,1.81642 0.0549,2.80211 1.79502,2.80211 1.10177,0 1.33907,-0.38471 1.1654,-1.88937 z m -68.127593,-1.17591 c -1.11382,-1.1011 -6.02771,-2.38737 -7.38415,-1.93288 -0.47381,0.15876 -0.86148,0.88307 -0.86148,1.60959 0,1.17064 0.52652,1.32094 4.6274,1.32094 4.04406,0 4.50018,-0.12576 3.61823,-0.99765 z m 61.362243,-0.46841 c 0,-1.34683 -0.28441,-1.43873 -3.49739,-1.13 -1.92357,0.18483 -4.0059,0.84456 -4.6274,1.46606 -1.04721,1.04721 -0.79098,1.13 3.49739,1.13 4.2602,0 4.6274,-0.11634 4.6274,-1.46606 z M 65.268437,97.704594 c -2.96886,-4.16939 -10.15341,-7.75537 -15.92519,-7.94865 -2.34153,-0.0784 -2.41816,9.7e-4 -2.6174,2.71164 -0.31264,4.25352 1.2828,5.32145 8.31525,5.56595 3.12056,0.1085 6.91427,0.63681 8.43048,1.17404 1.51621,0.53723 2.86812,0.878536 3.00423,0.75847 0.13612,-0.12007 -0.4072,-1.13772 -1.20737,-2.26145 z m 49.892163,1.17011 c 1.13715,-0.35757 4.6747,-0.77255 7.86121,-0.92218 6.62788,-0.31123 7.57257,-0.89768 8.12903,-5.04646 0.34493,-2.57163 0.22757,-2.85454 -1.34827,-3.25005 -2.9834,-0.74878 -10.81546,2.08578 -14.47788,5.2398 -3.76936,3.24612 -5.6633,6.018666 -3.5179,5.149876 0.70743,-0.286476 2.21665,-0.813426 3.35381,-1.170986 z m -57.814833,-11.0948 c -0.55589,-2.82961 -2.069,-3.96282 -5.29135,-3.96282 -1.39638,0 -3.50804,-0.19384 -4.69258,-0.43074 -2.61992,-0.52399 -3.03572,1.1181 -0.60304,2.38158 2.22648,1.15639 9.7108,4.18826 10.42395,4.22271 0.33167,0.016 0.40503,-0.97881 0.16302,-2.21073 z m 70.273463,-0.54079 c 3.91192,-1.75516 5.67356,-3.09383 4.98176,-3.78564 -0.14955,-0.14954 -2.54821,-0.0287 -5.33036,0.2686 -5.42987,0.58018 -6.94113,1.615 -6.94113,4.75289 0,1.90398 0.46878,1.8245 7.28973,-1.23585 z m -66.266133,-4.28352 c -0.48189,-1.178534 -3.7396,-3.501554 -3.7396,-2.666644 0,0.58134 3.22551,3.528134 3.86184,3.528134 0.12651,0 0.0715,-0.38767 -0.12224,-0.86149 z M 118.60653,82.11547 c 1.13716,-0.93212 1.75743,-1.69476 1.37837,-1.69476 -0.37905,0 -1.61959,0.76264 -2.75674,1.69476 -1.13716,0.932124 -1.75743,1.694764 -1.37838,1.694764 0.37906,0 1.61959,-0.76264 2.75675,-1.694764 z M 51.713047,81.68099 c -0.54526,-0.88226 -8.50792,-4.75444 -9.77855,-4.75524 -0.47382,-3e-4 -0.86149,0.30959 -0.86149,0.68865 0,1.40145 2.75773,3.38209 5.30276,3.80852 1.44259,0.24171 2.93302,0.54466 3.31208,0.67322 1.49139,0.505824 2.47037,0.305144 2.0252,-0.41515 z m 78.529703,-0.007 c 4.21624,-1.13714 5.78376,-2.01643 6.16007,-3.45544 0.47965,-1.83421 -0.94243,-1.64497 -5.70497,0.75915 -6.11146,3.08506 -6.31249,4.276054 -0.4551,2.69629 z M 53.803007,79.12696 c -5.54077,-3.97743 -15.85683,-10.47164 -16.63422,-10.47164 -1.95097,0 -0.60992,3.01965 2.22371,5.00715 2.9082,2.0398 14.18625,6.82942 14.7551,6.26627 0.17855,-0.17676 0.0235,-0.53756 -0.34459,-0.80178 z m 75.917803,-1.14479 c 7.42762,-2.99506 11.93499,-6.18462 11.96293,-8.46537 0.022,-1.79248 -2.40093,-0.69199 -10.37417,4.71202 -10.58592,7.17479 -10.69132,7.4238 -1.58876,3.75335 z m -74.198873,-0.0517 c -1.13729,-1.37036 -10.65617,-8.04943 -13.65149,-9.57879 -4.447,-2.27056 -2.83061,-0.56133 2.46577,2.6074 2.9434,1.76098 6.74723,4.28129 8.45297,5.60067 3.42399,2.64846 4.05648,2.96571 2.73275,1.37072 z m 80.092873,-8.37491 c 1.90617,-1.03747 3.13357,-1.99704 2.72755,-2.13238 -0.95985,-0.31995 -13.1001,7.5454 -15.29157,9.907 -0.92813,1.00019 0.73929,0.0845 3.70537,-2.03489 2.96609,-2.11938 6.95248,-4.70226 8.85865,-5.73973 z"
       id="path1146"
       sodipodi:nodetypes="ssssssssssssssssscsssssscssssscsssssssssssssssssssssssscssssssssssssssscssssssscsssssssssssssssscsssssssssssssssscssssssssssssssssssssssssssssssssssssssssssssssssssssssssssssssssssssssssssssssssssssssssssssssssssssscsssscsssssssssssssssssssssssssssssssssssssssssssssssssssssssssssssssssssssssssssscssscssssssssssssss" />
  </g>
</svg>
