<?xml version="1.0" encoding="UTF-8" standalone="no"?>
<!-- Created with Inkscape (http://www.inkscape.org/) -->

<svg
   width="210mm"
   height="297mm"
   viewBox="0 0 210 297"
   version="1.1"
   id="svg5977"
   inkscape:version="1.1 (c68e22c387, 2021-05-23)"
   sodipodi:docname="Spinne.svg"
   xmlns:inkscape="http://www.inkscape.org/namespaces/inkscape"
   xmlns:sodipodi="http://sodipodi.sourceforge.net/DTD/sodipodi-0.dtd"
   xmlns="http://www.w3.org/2000/svg"
   xmlns:svg="http://www.w3.org/2000/svg">
  <sodipodi:namedview
     id="namedview5979"
     pagecolor="#ffffff"
     bordercolor="#666666"
     borderopacity="1.0"
     inkscape:pageshadow="2"
     inkscape:pageopacity="0.0"
     inkscape:pagecheckerboard="0"
     inkscape:document-units="mm"
     showgrid="false"
     inkscape:zoom="0.69397447"
     inkscape:cx="334.30625"
     inkscape:cy="561.25984"
     inkscape:window-width="1920"
     inkscape:window-height="1017"
     inkscape:window-x="-8"
     inkscape:window-y="-8"
     inkscape:window-maximized="1"
     inkscape:current-layer="layer1" />
  <defs
     id="defs5974" />
  <g
     inkscape:label="Ebene 1"
     inkscape:groupmode="layer"
     id="layer1">
    <path
       style="fill:none;stroke-width:0.2;stroke:#000000;stroke-opacity:1;stroke-miterlimit:4;stroke-dasharray:none"
       d="m 112.11782,199.63531 c -0.0692,-0.18041 -0.0175,-0.3304 0.13097,-0.3799 0.13496,-0.045 0.51751,-0.38492 0.85011,-0.75542 0.65906,-0.73415 0.90827,-0.73992 0.90827,-0.021 0,0.96761 -1.58867,1.93993 -1.88935,1.15635 z m -12.05908,-1.09171 c -0.563396,-0.46025 -0.272246,-0.77056 0.65192,-0.69479 0.59779,0.049 0.6847,0.1121 0.6847,0.4971 0,0.5811 -0.73434,0.68971 -1.33662,0.19769 z m 8.95418,-0.33063 c -0.0414,-0.0724 -0.0604,-0.40946 -0.042,-0.74901 0.0236,-0.43753 -0.0729,-0.705 -0.33151,-0.91823 -0.31151,-0.25688 -0.33262,-0.35323 -0.14436,-0.65906 0.34501,-0.5605 0.28664,-0.62918 -0.81512,-0.95921 -0.68571,-0.2054 -1.23362,-0.51451 -1.62169,-0.9149 -0.5437,-0.56096 -0.58681,-0.69115 -0.596,-1.79993 -0.008,-0.98772 0.0602,-1.28438 0.3939,-1.70871 0.60979,-0.77541 1.35416,-1.15385 2.26957,-1.15385 1.59393,0 2.70649,1.1648 2.70649,2.83357 0,1.09978 -0.58482,2.11584 -1.41599,2.46012 l -0.50834,0.21056 0.54457,0.45823 c 0.73672,0.61991 1.03696,1.36459 0.81123,2.0121 -0.17096,0.49044 -1.10051,1.15065 -1.25072,0.88832 z m -4.73465,-1.39985 c -0.27533,-0.67151 -0.27844,-1.71454 -0.006,-2.0427 0.29975,-0.36117 0.89847,-0.18275 1.13598,0.33852 0.15809,0.34696 0.12548,0.48751 -0.19132,0.82473 -0.21004,0.22358 -0.38189,0.5753 -0.38189,0.7816 0,0.58693 -0.33221,0.64532 -0.55668,0.0978 z m -6.917946,-0.23724 c -0.25458,-0.30255 -0.46287,-0.64719 -0.46287,-0.76587 0,-0.11867 -0.087,-0.30274 -0.19327,-0.40903 -0.28767,-0.28768 -1.01244,-2.46214 -0.88611,-2.65854 0.19992,-0.3108 0.85666,-0.4073 1.32369,-0.19451 0.40241,0.18336 0.46124,0.31618 0.46124,1.04137 0,0.45716 0.16375,1.20138 0.36388,1.65381 0.37614,0.85034 0.40193,1.70401 0.0549,1.81777 -0.10922,0.0358 -0.40688,-0.18244 -0.66146,-0.485 z m 16.934736,-0.0141 c -0.2904,-0.4146 -0.23824,-0.64617 0.36289,-1.61135 0.44628,-0.71653 0.75624,-0.81673 1.1887,-0.38427 0.4156,0.41559 0.33734,1.21176 -0.17947,1.82595 -0.53364,0.63419 -1.00585,0.69259 -1.37212,0.16967 z m 3.94544,-2.85419 c 0,-0.20458 0.2314,-0.61386 0.51422,-0.90952 0.73814,-0.77166 0.73026,-1.13298 -0.0454,-2.07957 -0.7657,-0.93444 -0.78986,-1.42935 -0.0738,-1.5121 0.32868,-0.038 0.6204,0.0847 0.92454,0.38886 0.40398,0.40398 0.44434,0.57826 0.44434,1.91867 0,1.38165 -0.0305,1.50261 -0.48507,1.92437 -0.67962,0.63054 -1.27882,0.75673 -1.27882,0.26929 z m -26.176783,-0.70732 c -0.453986,-0.33196 -0.310875,-1.07591 0.221465,-1.15126 0.59748,-0.0846 1.260882,0.1162 1.260882,0.38159 0,0.30135 -0.659048,1.00004 -0.943301,1.00004 -0.123199,0 -0.365771,-0.10367 -0.539046,-0.23037 z m 22.671003,-1.01709 c -0.1039,-0.29804 -0.42679,-0.84224 -0.71753,-1.20933 -0.29073,-0.36708 -0.61449,-0.85745 -0.71945,-1.0897 -0.10497,-0.23224 -0.30939,-0.63902 -0.45428,-0.90396 -0.44206,-0.80836 0.30681,-1.68002 1.24177,-1.44536 0.43683,0.10964 1.33305,1.37854 1.33305,1.88738 0,0.13766 0.15707,0.43139 0.34904,0.65273 0.50611,0.58355 0.62016,1.44059 0.2794,2.09955 -0.39122,0.75653 -1.04978,0.7609 -1.312,0.009 z m -18.202436,-1.19655 c -0.36503,-0.29558 -0.38277,-0.37689 -0.1828,-0.83785 0.1879,-0.43313 1.92142,-2.00981 2.20974,-2.00981 0.0522,0 0.40025,-0.33734 0.77352,-0.74965 2.065946,-2.28203 1.815996,-2.09676 2.549356,-1.88961 1.20053,0.33913 1.41271,1.21329 0.53356,2.19829 -0.41833,0.46871 -2.09593,1.85208 -2.24598,1.85208 -0.0651,0 -0.482236,0.27782 -0.926926,0.61737 -0.44469,0.33954 -0.94615,0.61736 -1.11435,0.61736 -0.1682,0 -0.40463,0.11906 -0.5254,0.26458 -0.29105,0.35069 -0.58113,0.33369 -1.07072,-0.0628 z m -4.706015,-0.85772 c -0.330627,-0.11855 -0.270455,-0.35866 0.254866,-1.01702 0.398729,-0.49971 0.46762,-0.74143 0.427383,-1.49954 -0.0273,-0.51428 0.04321,-1.01365 0.163606,-1.15872 0.318414,-0.38366 1.35213,-0.327 1.57329,0.0862 0.36049,0.67359 0.19536,1.21265 -0.70164,2.29051 -0.92431,1.11067 -1.348007,1.43101 -1.717505,1.29852 z m 15.292171,-2.31744 c -3.70509,-2.38075 -5.52079,-6.491 -4.41363,-9.99125 0.18412,-0.58208 0.46042,-1.29646 0.614,-1.5875 0.15358,-0.29104 0.27973,-0.58248 0.28033,-0.64765 5.3e-4,-0.0652 0.36148,-0.66048 0.80196,-1.32292 1.44936,-2.17967 4.54721,-4.99679 5.49473,-4.99679 0.82096,0 2.77407,2.37236 3.70304,4.49792 1.17573,2.69015 1.47209,5.69576 0.76108,7.71872 -0.19403,0.55204 -0.35278,1.0781 -0.35278,1.16902 0,0.50583 -1.65729,2.92325 -2.76593,4.03455 -1.80605,1.81039 -2.6843,2.05023 -4.1228,1.1259 z m 10.60356,-0.21953 c -0.56916,-0.22736 -2.44561,-2.16149 -2.67025,-2.75233 -0.23716,-0.62379 0.61097,-2.40525 1.18402,-2.48697 0.41504,-0.0592 1.12279,0.69045 1.12279,1.18926 0,0.16183 0.24549,0.62805 0.54553,1.03604 0.5036,0.6848 1.0349,2.16627 1.03987,2.89957 0.002,0.34726 -0.51729,0.39592 -1.22196,0.11443 z m -23.293996,-2.35661 c 0,-0.39236 1.93142,-2.25399 3.53257,-3.40492 0.36683,-0.26368 0.81348,-0.69815 0.99255,-0.96548 0.38527,-0.57517 1.260966,-0.66791 1.684486,-0.17839 0.31982,0.36966 0.66956,1.72163 0.66956,2.58829 0,0.76298 -0.3793,0.90515 -2.008926,0.75297 -1.45222,-0.13561 -2.44281,0.11186 -3.41294,0.85261 -0.84058,0.64182 -1.4573,0.79202 -1.4573,0.35492 z m 22.239746,-5.62735 c -0.53529,-0.86613 -0.63364,-1.57503 -0.29106,-2.09788 0.38206,-0.58309 1.69131,-1.07575 2.53352,-0.95333 2.19676,0.31928 2.45957,0.32634 2.96115,0.0795 0.57694,-0.2839 1.13164,-0.22878 1.13164,0.11246 0,0.45061 -0.80658,1.40099 -1.32291,1.55876 -0.29105,0.0889 -0.77929,0.27365 -1.08499,0.41048 -0.30571,0.13682 -0.65468,0.24877 -0.7755,0.24877 -0.12081,0 -0.63821,0.27781 -1.14976,0.61736 -1.16899,0.77593 -1.53459,0.78029 -2.00209,0.0239 z m -17.592766,-2.27283 c -0.82862,-0.61259 -1.96239,-1.89414 -2.07593,-2.34651 -0.14908,-0.594 0.17599,-1.31356 0.59342,-1.31356 0.19304,0 0.70917,0.12161 1.14696,0.27025 0.4378,0.14863 1.2113,0.24785 1.718906,0.22048 0.8633,-0.0465 0.93897,-0.0169 1.17134,0.45881 0.33233,0.68033 0.0624,1.57608 -0.73835,2.45031 -0.6953,0.75909 -1.069106,0.81265 -1.816346,0.26022 z m 25.339126,-1.31209 c -0.74487,-0.28421 -0.84961,-0.54681 -0.5694,-1.42764 0.48645,-1.52911 0.91626,-2.3406 1.31963,-2.49145 0.51283,-0.19179 0.59036,0.0181 0.69654,1.88552 0.0517,0.90879 0.0106,1.55512 -0.10859,1.71014 -0.22387,0.2911 -0.95792,0.46852 -1.33818,0.32343 z m -29.357586,-1.98287 c -0.14426,-0.1594 -0.39318,-0.60308 -0.55315,-0.98596 -0.15998,-0.38288 -0.44082,-0.88677 -0.62409,-1.11976 -0.395483,-0.50278 -0.426967,-0.96061 -0.0855,-1.24397 0.31551,-0.26185 2.29389,0.36514 2.88421,0.91407 l 0.39786,0.36998 -0.36822,0.39196 c -0.20253,0.21557 -0.41086,0.70981 -0.46297,1.0983 -0.0758,0.56537 -0.17767,0.7222 -0.51027,0.78578 -0.24682,0.0472 -0.52203,-0.0383 -0.67783,-0.2104 z m 20.225626,-0.24245 c -0.22038,-0.099 -0.44781,-0.38537 -0.50538,-0.63639 -0.0576,-0.25102 -0.29653,-0.74217 -0.53101,-1.09144 -0.35776,-0.53288 -0.39665,-0.71312 -0.24179,-1.12043 l 0.18454,-0.48539 1.45273,0.10424 c 3.88465,0.27876 4.62795,0.57992 3.0542,1.23747 -0.41471,0.17327 -0.60868,0.38903 -0.68276,0.75945 -0.0807,0.40373 -0.27054,0.58672 -0.86387,0.8329 -1.34488,0.55799 -1.45942,0.58251 -1.86666,0.39959 z m -14.13061,-2.80186 c -0.31646,-0.3094 -0.69804,-0.79974 -0.84796,-1.08965 -0.407216,-0.78747 -0.0291,-0.99118 1.60988,-0.86723 1.15639,0.0875 1.34042,0.0558 1.84571,-0.3178 0.75772,-0.56021 1.18231,-0.31121 1.12057,0.65716 -0.0774,1.21418 -1.12229,2.1435 -2.43666,2.16716 -0.57696,0.0104 -0.828,-0.0964 -1.29154,-0.54964 z m 23.63047,-0.74216 c -0.25899,-0.31206 -0.19178,-1.0198 0.10615,-1.11786 0.30093,-0.099 0.96918,0.62565 0.90201,0.97819 -0.0738,0.38733 -0.72746,0.47788 -1.00816,0.13967 z m -4.29238,-0.47937 c -0.45843,-0.34203 -0.47874,-0.41632 -0.37211,-1.36142 0.062,-0.54981 0.2507,-1.27746 0.41927,-1.61701 0.3112,-0.62686 0.22023,-1.34038 -0.20436,-1.60279 -0.19436,-0.12012 -0.53434,-0.66609 -0.8692,-1.39582 -0.11129,-0.24254 -0.27386,-0.57988 -0.36126,-0.74966 -0.12983,-0.25221 -0.0818,-0.30868 0.26281,-0.30868 0.25883,0 0.70226,0.28055 1.14803,0.72631 0.61572,0.61572 0.72648,0.83729 0.72747,1.45521 7e-4,0.43044 0.14466,0.94557 0.35161,1.25807 0.27188,0.41052 0.35018,0.82577 0.34921,1.85208 -7.1e-4,0.7276 -0.0491,1.50151 -0.10761,1.71979 -0.13463,0.5024 -0.68931,0.51227 -1.34386,0.0239 z m -27.80556,-0.43549 c -0.564685,-0.71788 -0.506133,-1.91075 0.14412,-2.93609 0.40855,-0.64421 0.593354,-0.79498 0.881944,-0.71952 0.41278,0.10795 0.46274,0.42761 0.15503,0.99197 -0.11553,0.2119 -0.21475,0.97934 -0.22049,1.7054 -0.0119,1.50565 -0.302208,1.79525 -0.960604,0.95824 z m 5.681154,-1.26412 c -0.0598,-0.16978 -0.24528,-0.62618 -0.41226,-1.01424 -0.39381,-0.91517 -0.58717,-2.64357 -0.34613,-3.09395 0.10173,-0.1901 0.30908,-0.34563 0.46077,-0.34563 0.58344,0 2.004846,1.98556 2.004846,2.80057 0,0.18985 -0.155926,0.70895 -0.346506,1.15355 -0.28304,0.6603 -0.42945,0.80838 -0.79929,0.80838 -0.27223,0 -0.4961,-0.12309 -0.56143,-0.30868 z m 10.898836,-1.56732 c -0.36717,-0.25717 -0.40115,-0.38644 -0.31296,-1.19062 0.0544,-0.49617 0.18801,-1.25932 0.29689,-1.69588 0.12079,-0.48432 0.2261,-3.33313 0.27015,-7.30777 0.0397,-3.58271 0.14018,-6.58199 0.22327,-6.66508 0.0831,-0.0831 0.43419,-0.19702 0.78023,-0.25317 0.53146,-0.0863 0.66269,-0.0394 0.84512,0.30143 0.25232,0.47147 0.1395,2.10984 -0.28102,4.08074 -0.22259,1.04325 -0.2664,2.35368 -0.22982,6.87381 0.0482,5.95194 0.023,6.14504 -0.79985,6.14504 -0.20907,0 -0.56548,-0.12983 -0.79201,-0.2885 z m -10.892926,-4.38898 c -0.27203,-0.70889 0.84747,-2.06361 1.895516,-2.2938 0.76011,-0.16695 1.00075,0.22684 0.43293,0.70847 -0.2294,0.19458 -0.63365,0.69112 -0.898326,1.10343 -0.50478,0.78632 -1.22073,1.02757 -1.43012,0.4819 z m 42.888116,-10.60626 c -7.50758,-0.27211 -8.37275,-0.34801 -8.82661,-0.77439 -0.54176,-0.50895 -0.5487,-0.88216 -0.0256,-1.37363 0.46908,-0.44067 1.18945,-0.48049 3.7369,-0.20653 0.87312,0.0939 4.6236,0.1743 8.33439,0.17868 5.40385,0.006 7.06918,-0.048 8.36591,-0.27295 1.55654,-0.27007 1.63651,-0.2679 2.07255,0.0561 0.28106,0.20885 0.47427,0.54463 0.50807,0.88292 0.0748,0.74905 -0.55518,1.04957 -2.64849,1.26335 -1.87434,0.19142 -8.89217,0.34158 -11.51716,0.24644 z m -16.66875,-0.94457 c -0.43656,-0.0714 -1.5875,-0.2261 -2.55764,-0.34384 -0.97013,-0.11773 -2.289,-0.32919 -2.93081,-0.46992 -0.64182,-0.14072 -1.75307,-0.32972 -2.46945,-0.41998 -0.71638,-0.0903 -1.62001,-0.24068 -2.00807,-0.33425 -0.38805,-0.0936 -1.49931,-0.33791 -2.46944,-0.54298 -3.603,-0.76161 -5.13372,-1.11236 -5.82084,-1.33382 -0.38805,-0.12506 -1.02305,-0.27978 -1.41111,-0.34382 -0.38805,-0.064 -1.06274,-0.22782 -1.4993,-0.36397 -0.43657,-0.13615 -1.38907,-0.41298 -2.11667,-0.61517 -0.72761,-0.20219 -1.799166,-0.52174 -2.381246,-0.71012 -0.58208,-0.18838 -1.1774,-0.34226 -1.32292,-0.34196 -0.59089,0.001 -2.44076,-0.93009 -2.53072,-1.27406 -0.26628,-1.01829 0.63773,-1.59341 1.9027,-1.21045 0.39392,0.11925 1.15278,0.33845 1.68636,0.48712 0.53357,0.14866 1.04951,0.33231 1.14652,0.4081 0.097,0.0758 0.533576,0.19586 0.970136,0.26681 0.43656,0.071 0.99219,0.22752 1.23472,0.34794 0.24254,0.12041 0.82984,0.26988 1.30513,0.33215 0.47528,0.0623 0.95153,0.1811 1.05833,0.26407 0.1068,0.083 0.71012,0.24625 1.34071,0.36283 0.63059,0.11658 1.46403,0.31758 1.85208,0.44668 0.73038,0.24298 1.7013,0.46339 3.96875,0.90096 0.72761,0.14041 1.44198,0.30494 1.5875,0.36563 0.14553,0.0607 0.8599,0.20976 1.58751,0.33126 0.7276,0.12151 1.75947,0.305 2.29305,0.40776 2.70268,0.52051 4.17404,0.75358 5.83072,0.92358 1.00087,0.10271 1.86955,0.21751 1.93039,0.25512 0.0609,0.0376 0.93902,0.1519 1.9515,0.25399 1.52296,0.15357 1.89417,0.25004 2.14954,0.55862 0.35746,0.43193 0.4018,1.05219 0.097,1.35697 -0.23412,0.23412 -3.01975,0.25625 -4.37445,0.0348 z m 21.51009,-2.61741 c -0.35951,-0.29112 -0.41772,-0.5524 -0.56002,-2.51354 -0.16556,-2.2817 -0.0428,-6.61565 0.2218,-7.83311 0.67329,-3.09744 0.90102,-3.85582 1.59248,-5.30325 0.18843,-0.39444 0.3426,-0.80144 0.3426,-0.90445 0,-0.10301 0.11819,-0.28538 0.26264,-0.40527 0.65549,-0.544 -0.30048,-0.69421 -1.69418,-0.26619 -1.87224,0.57499 -2.56232,0.76557 -3.15457,0.87121 -0.33955,0.0606 -1.01424,0.22341 -1.49931,0.36187 -0.48507,0.13846 -1.47725,0.38285 -2.20486,0.5431 -1.58668,0.34946 -1.75825,0.46937 -1.73043,1.20943 0.0118,0.31412 -0.10024,0.80274 -0.24899,1.08581 -0.37889,0.72099 -0.90604,2.23619 -1.28367,3.68969 -0.24453,0.94119 -0.33816,2.11533 -0.39384,4.93889 -0.0783,3.96953 -0.12137,4.14514 -1.01737,4.14514 -0.73442,0 -0.95873,-0.37077 -1.12049,-1.85209 -0.34635,-3.17161 0.26486,-7.94844 1.38566,-10.82947 0.51413,-1.32156 0.41434,-1.48146 -0.8378,-1.34235 -0.55818,0.062 -1.61019,0.22281 -2.33779,0.35733 -0.72761,0.13451 -1.87854,0.29632 -2.55764,0.35958 -0.6791,0.0633 -1.77569,0.22571 -2.43688,0.36101 -1.75743,0.35961 -3.3443,0.32685 -3.70939,-0.0766 -0.46386,-0.51256 -0.37339,-1.21496 0.19314,-1.49951 0.50835,-0.25532 2.33491,-0.57052 4.27743,-0.73813 0.6306,-0.0544 1.82122,-0.21317 2.64584,-0.3528 4.58391,-0.7762 6.83185,-1.19081 7.16486,-1.32149 0.20564,-0.0807 0.76126,-0.20095 1.23472,-0.26724 0.47346,-0.0663 1.45125,-0.27114 2.17288,-0.45523 0.72162,-0.18408 1.49084,-0.3347 1.70938,-0.3347 0.21854,0 0.43978,-0.0687 0.49165,-0.15259 0.0519,-0.0839 0.57224,-0.24663 1.15637,-0.36155 0.58414,-0.11492 1.33759,-0.32407 1.67433,-0.46477 0.33674,-0.14069 0.7814,-0.25581 0.98814,-0.25581 0.20674,0 0.626,-0.11628 0.93171,-0.25839 0.3057,-0.14211 0.87332,-0.33555 1.26138,-0.42986 1.05847,-0.25723 4.34366,-1.40035 4.87791,-1.69733 0.2575,-0.14314 0.575,-0.26295 0.70555,-0.26624 0.13055,-0.003 0.55487,-0.15935 0.94293,-0.34679 1.23946,-0.59871 2.02847,-0.36927 2.02847,0.58985 0,0.93903 -0.16293,1.05451 -2.91042,2.0628 -0.58208,0.21362 -1.41552,0.52681 -1.85208,0.69599 -1.17536,0.45548 -1.96169,0.72264 -2.58093,0.87691 -0.87103,0.21699 -1.00963,0.34985 -0.71642,0.68675 0.6145,0.70608 0.66134,1.01599 0.28808,1.90627 -0.19701,0.46989 -0.43161,0.98841 -0.52133,1.15227 -0.26088,0.47646 -1.01328,2.94036 -1.32443,4.33716 -0.29467,1.32283 -0.41708,5.03345 -0.27595,8.3654 0.0787,1.85692 -0.0597,2.25715 -0.78011,2.25715 -0.2199,0 -0.58038,-0.1462 -0.80105,-0.32488 z m -27.948,-2.08454 c -0.72273,-0.75428 -2.73431,-4.3703 -2.73431,-4.9152 0,-0.11778 -0.15875,-0.71107 -0.35278,-1.31843 -0.4313,-1.35011 -0.46641,-2.85978 -0.0756,-3.2506 0.65359,-0.65359 1.58231,-0.0751 1.8205,1.13393 0.21705,1.10175 0.73233,3.00594 0.90356,3.33904 0.0783,0.15231 0.36387,0.75318 0.63462,1.33527 0.27075,0.58208 0.76168,1.39848 1.09096,1.81422 0.76741,0.96892 0.9382,1.57153 0.62312,2.19862 -0.37518,0.74671 -0.97285,0.64131 -1.91008,-0.33685 z m -15.01075,-2.79586 c -0.22316,-0.3406 -0.28723,-0.85147 -0.27761,-2.21353 0.0105,-1.48782 0.0816,-1.92155 0.44466,-2.71468 0.49257,-1.07591 0.95935,-1.33614 1.62009,-0.90321 0.59823,0.39198 0.7052,0.99731 0.31904,1.80543 -0.24891,0.52088 -0.31588,1.03883 -0.29128,2.25256 0.0384,1.89437 -0.0949,2.21621 -0.91768,2.21621 -0.45359,0 -0.68045,-0.11196 -0.89722,-0.44278 z m -5.316796,-6.93292 c -0.78287,-0.1124 -1.22186,-1.33271 -0.65012,-1.80722 0.30318,-0.25161 0.12712,-0.24186 9.423916,-0.522 3.44399,-0.10377 7.52287,-0.26648 9.06417,-0.36156 2.45513,-0.15145 2.85529,-0.1382 3.22947,0.10697 0.33059,0.21661 0.41478,0.40691 0.37263,0.84225 -0.0804,0.82983 -0.87269,1.15662 -2.87669,1.18648 -0.87313,0.013 -3.33375,0.13248 -5.46806,0.26549 -3.63056,0.22627 -12.214236,0.41609 -13.095316,0.28959 z m 8.024136,-3.57454 c -0.58116,-0.3385 -0.89962,-1.24607 -0.91314,-2.60239 -0.0115,-1.15472 0.0318,-1.32989 0.40352,-1.6316 0.85097,-0.69071 1.44354,-0.3558 1.63743,0.92547 0.39454,2.60711 0.39443,2.72646 -0.003,3.12389 -0.41376,0.41376 -0.66157,0.45444 -1.12481,0.18463 z m 9.43681,-0.81038 c -0.65241,-0.4551 -0.4849,-1.72942 0.55242,-4.20257 0.4372,-1.04237 0.54792,-1.14028 1.29346,-1.14383 0.96125,-0.005 1.20759,0.96504 0.59191,2.32973 -0.18719,0.41491 -0.43667,1.13515 -0.55442,1.60054 -0.24713,0.97677 -0.76388,1.71557 -1.19062,1.70222 -0.16273,-0.005 -0.47447,-0.13383 -0.69275,-0.28609 z m 21.59032,-2.2209 c -0.21861,-0.15985 -0.40248,-0.82315 -0.64787,-2.33716 -0.40921,-2.52477 -0.43347,-3.9454 -0.10122,-5.92731 0.13631,-0.81307 0.29974,-1.85412 0.36318,-2.31344 0.12392,-0.8972 0.56127,-1.36974 1.26773,-1.36974 0.63125,0 0.98885,0.49306 0.88423,1.21919 -0.42716,2.96487 -0.51087,5.16274 -0.29439,7.72883 0.18251,2.16341 0.18328,2.73844 0.004,2.95452 -0.27055,0.326 -1.05853,0.35008 -1.47561,0.0451 z m -31.49488,-3.52686 c -0.58554,-0.30227 -0.7955,-0.69907 -0.65857,-1.24464 0.16951,-0.6754 0.59999,-0.8268 2.87901,-1.01255 1.12651,-0.0918 2.33401,-0.2429 2.68334,-0.33573 0.34933,-0.0928 1.19078,-0.21856 1.86988,-0.27939 0.67909,-0.0608 1.63159,-0.21712 2.11666,-0.3473 0.48507,-0.13018 1.27882,-0.28941 1.76389,-0.35384 0.48507,-0.0644 1.27882,-0.22382 1.76389,-0.35419 0.48507,-0.13038 1.27882,-0.32713 1.76389,-0.43724 2.55828,-0.58072 3.96376,-0.96217 5.29167,-1.43616 0.29104,-0.10389 1.03173,-0.30906 1.64597,-0.45594 1.31296,-0.31395 1.8746,-0.15466 2.01333,0.57104 0.14382,0.75239 -0.45399,1.21957 -2.24819,1.75689 -0.87313,0.26148 -1.94469,0.58281 -2.38125,0.71407 -1.82263,0.54798 -4.17964,1.10962 -6.70278,1.59718 -0.7276,0.1406 -1.56104,0.32789 -1.85208,0.41621 -0.29105,0.0883 -0.92605,0.2089 -1.41112,0.26796 -0.48506,0.0591 -1.55663,0.21931 -2.38125,0.35612 -0.82461,0.13681 -2.37185,0.34293 -3.43831,0.45804 -1.06645,0.11511 -2.01895,0.23829 -2.11666,0.27373 -0.0977,0.0354 -0.36831,-0.034 -0.60132,-0.15426 z m 43.38377,-0.82284 c -0.39296,-0.55186 -0.89136,-3.59925 -0.89136,-5.45007 0,-1.05324 0.29857,-3.76724 0.53706,-4.8819 0.31907,-1.49123 0.72991,-3.00179 0.86295,-3.17286 0.0764,-0.0982 0.19413,-0.41666 0.26171,-0.7077 0.11435,-0.49247 0.61603,-1.71137 0.99824,-2.42535 0.37892,-0.70781 -0.32922,-0.35569 -3.31133,1.64654 -1.77379,1.19095 -3.55647,2.34468 -5.0368,3.25974 -0.4606,0.28473 -1.25435,0.78473 -1.76389,1.11113 -1.46064,0.93565 -5.15765,3.02442 -7.22736,4.08337 -1.82646,0.9345 -1.90799,0.95838 -2.38125,0.69754 -0.33924,-0.18698 -0.50623,-0.434 -0.54268,-0.80276 -0.0643,-0.65053 0.22787,-0.93936 1.7494,-1.72929 1.87014,-0.97093 2.59779,-1.37759 5.41383,-3.0256 3.43493,-2.01019 3.09325,-1.80359 4.53109,-2.73984 0.6791,-0.44219 1.48794,-0.95757 1.79743,-1.14529 0.66481,-0.40323 2.80015,-1.86492 5.25813,-3.59931 0.97014,-0.68454 1.96232,-1.38094 2.20486,-1.54754 0.66716,-0.45829 5.93923,-4.591954 7.14375,-5.601189 1.70143,-1.425591 1.95409,-1.554401 2.51844,-1.283917 0.40243,0.192877 0.48017,0.342642 0.48017,0.924994 0,0.640826 -0.0892,0.768231 -1.14653,1.638532 -2.62109,2.15735 -3.55107,2.89209 -5.73264,4.52912 -1.26118,0.94638 -2.46528,1.92485 -2.67579,2.17438 l -0.38274,0.45368 0.55913,0.27942 c 0.33657,0.1682 0.5818,0.4392 0.61608,0.68082 0.0549,0.38701 -0.32937,1.59423 -0.79869,2.50902 -0.12443,0.24253 -0.22941,0.56003 -0.2333,0.70555 -0.004,0.14552 -0.16044,0.58208 -0.34788,0.97014 -0.18745,0.38806 -0.3435,0.87417 -0.3468,1.08025 -0.003,0.20609 -0.13433,0.72202 -0.2912,1.14653 -0.37537,1.01581 -0.55467,6.91091 -0.24611,8.09197 0.38942,1.49056 0.40211,1.75382 0.10636,2.20519 -0.41544,0.63405 -1.20226,0.59883 -1.68228,-0.0753 z m -31.4739,-5.20493 c -0.25405,-0.33307 -0.4624,-0.67042 -0.46299,-0.74965 -5.3e-4,-0.0792 -0.1245,-0.38074 -0.27534,-0.67001 -1.13368,-2.17418 -1.84024,-5.003 -1.84024,-7.36763 0,-2.15039 0.19949,-2.60156 1.15032,-2.60156 0.81511,0 0.96634,0.3518 0.96634,2.24788 0,1.56585 0.45706,3.93616 0.98321,5.09892 0.13833,0.3057 0.2519,0.6232 0.25237,0.70555 5.3e-4,0.0824 0.27829,0.69033 0.61737,1.35107 0.7,1.36404 0.78802,2.13404 0.27531,2.40843 -0.64785,0.34673 -1.18284,0.21092 -1.66635,-0.423 z m -10.14492,-7.66631 c -0.65688,-0.65688 -0.44212,-1.27031 0.72073,-2.05864 1.32493,-0.89821 4.05555,-2.91593 5.69909,-4.2112 0.87312,-0.6881 1.78937,-1.37973 2.03611,-1.53694 0.24674,-0.15721 0.76268,-0.56192 1.14653,-0.89935 1.9207,-1.68844 4.20533,-3.517589 4.56366,-3.653825 1.07299,-0.407952 1.79839,0.983455 0.9381,1.799415 -1.0298,0.97674 -2.79656,2.41952 -6.40051,5.22681 -4.65772,3.62811 -4.47337,3.489 -5.89987,4.45234 -0.63059,0.42585 -1.19016,0.83273 -1.24349,0.90418 -0.0533,0.0715 -0.34271,0.17907 -0.64308,0.23914 -0.41682,0.0834 -0.634,0.0214 -0.91727,-0.26193 z m -40.602992,-2.33273 c -0.376693,-0.52902 -0.381376,-0.58231 -0.120132,-1.36702 0.149511,-0.4491 0.445679,-1.61029 0.658146,-2.58042 0.212469,-0.97014 0.500225,-2.27983 0.639458,-2.91042 0.139232,-0.63059 0.328983,-1.66247 0.421668,-2.29305 0.09268,-0.630593 0.24847,-1.662468 0.34619,-2.293058 0.484296,-3.125156 0.762368,-5.884619 0.92429,-9.172223 0.186616,-3.789018 0.05701,-13.709717 -0.205089,-15.698611 -0.0831,-0.630591 -0.276143,-2.231456 -0.42898,-3.557479 -0.152837,-1.326023 -0.357759,-2.621033 -0.455383,-2.877802 -0.09762,-0.256769 -0.178874,-0.719653 -0.180559,-1.028633 -0.0018,-0.308979 -0.127365,-1.117406 -0.279289,-1.796503 -0.151924,-0.679098 -0.384115,-1.75066 -0.51598,-2.38125 -0.474675,-2.269946 -0.912428,-3.967019 -1.706206,-6.614584 -0.55408,-1.84808 -1.138343,-3.648914 -1.344853,-4.145139 -0.472413,-1.135179 -2.129872,-5.423341 -2.231685,-5.7738 -0.08298,-0.285638 0.0076,-0.515976 0.329464,-0.837847 0.24415,-0.24415 0.551728,-0.443909 0.683508,-0.443909 0.336483,0 1.058884,0.83985 1.441355,1.675695 0.801513,1.751601 2.130827,5.263828 2.303221,6.085416 0.07125,0.339549 0.191366,0.696737 0.266928,0.79375 0.07556,0.09701 0.268818,0.652639 0.429454,1.234723 0.160637,0.582083 0.404056,1.455208 0.54093,1.940278 0.136876,0.485069 0.341055,1.239132 0.453732,1.675694 0.112677,0.436563 0.317546,1.176061 0.455262,1.643327 0.137717,0.467269 0.367938,1.459456 0.511603,2.204861 0.143665,0.745408 0.421471,2.188722 0.617345,3.207368 0.195875,1.018646 0.473622,2.795161 0.617217,3.947809 0.143595,1.152649 0.30632,2.168924 0.361613,2.258388 0.160378,0.259498 0.601227,6.788172 0.717032,10.618748 0.106207,3.513111 -0.269209,11.254738 -0.672443,13.866723 -0.09735,0.63059 -0.283391,2.019653 -0.413425,3.086806 -0.130036,1.067152 -0.328013,2.190192 -0.439951,2.495642 -0.111938,0.30545 -0.178724,0.90076 -0.148412,1.32292 0.05365,0.74712 0.07009,0.76611 0.618005,0.71355 0.309589,-0.0297 0.785839,0.0595 1.058333,0.19814 0.272493,0.13867 1.090756,0.39777 1.81836,0.57578 0.727604,0.178 1.422136,0.39622 1.543403,0.48492 0.280952,0.2055 0.286918,1.21581 0.0088,1.49391 -0.518479,0.51847 -3.601323,-0.002 -4.550833,-0.76784 -0.145521,-0.11742 -0.438836,-0.26654 -0.65181,-0.33138 -0.341166,-0.10386 -0.399994,-0.0382 -0.494551,0.5524 -0.227056,1.41806 -0.851222,3.87803 -1.165868,4.59494 -0.279908,0.63775 -0.406556,0.74965 -0.848468,0.74965 -0.380307,0 -0.624443,-0.14745 -0.911419,-0.55047 z m 69.669252,0.24179 c -0.47416,-0.58406 -1.04592,-1.45085 -1.22001,-1.84954 -0.0959,-0.21968 -0.40662,-0.7963 -0.69044,-1.28136 -0.28381,-0.48507 -0.5213,-1.00498 -0.52774,-1.15535 -0.006,-0.15037 -0.10141,-0.36309 -0.21103,-0.47271 -0.23702,-0.23701 -0.78868,-1.71447 -1.11564,-2.98788 -0.12875,-0.50148 -0.28576,-0.99537 -0.3489,-1.09753 -0.16563,-0.26798 -0.66622,-2.939977 -0.76097,-4.061738 -0.0715,-0.846141 -0.0331,-0.992369 0.3342,-1.274897 0.22821,-0.175523 0.59798,-0.320895 0.82172,-0.323052 0.5538,-0.0053 1.0571,1.161113 1.27242,2.948977 0.0907,0.752745 0.28222,1.68613 0.42569,2.07418 0.14347,0.38806 0.26537,0.82462 0.27089,0.97014 0.0143,0.37763 1.51215,4.0467 1.74846,4.28301 0.1085,0.1085 0.19727,0.26676 0.19727,0.3517 0,0.0849 0.30926,0.68422 0.68725,1.33173 0.75762,1.29786 0.85677,1.64925 0.66809,2.36793 -0.10669,0.40641 -0.22247,0.48507 -0.714,0.48507 -0.34567,0 -0.68961,-0.1268 -0.83726,-0.30868 z m -24.67492,-4.92161 c -2.14938,-0.70812 -4.17304,-2.004 -5.00564,-3.20544 -0.70296,-1.01437 -0.51382,-2.323986 0.33564,-2.323986 0.34841,0 1.14223,0.383166 1.14223,0.551346 0,0.26092 1.12411,1.42608 1.75642,1.82058 0.34366,0.2144 1.24358,0.6138 1.99984,0.88757 1.47998,0.53575 1.80202,0.86702 1.62527,1.6718 -0.13655,0.62167 -0.96799,0.88994 -1.85376,0.59813 z m -11.913466,-1.48418 c -0.32179,-0.52066 -0.10326,-1.42397 0.499856,-2.06623 0.5586,-0.59485 0.99856,-1.09197 2.94695,-3.329781 0.33955,-0.389988 1.17298,-1.40194 1.85208,-2.248782 0.6791,-0.846843 1.55222,-1.923066 1.94028,-2.391606 0.38805,-0.468538 1.02305,-1.305727 1.41111,-1.860419 0.8084,-1.15554 1.30861,-1.430752 2.00065,-1.10076 0.85003,0.40532 0.72656,1.096627 -0.48226,2.700186 -1.23759,1.641736 -3.83334,4.877175 -4.93637,6.152875 -3.74526,4.331557 -3.74635,4.332597 -4.49554,4.332597 -0.34129,0 -0.672826,-0.0846 -0.736756,-0.18808 z m -16.722383,-0.84004 c -0.403446,-0.4458 -0.347428,-0.86869 0.237645,-1.79409 0.276012,-0.43657 0.715587,-1.19063 0.976837,-1.675699 0.261247,-0.48507 0.544316,-0.968484 0.629039,-1.074256 0.08473,-0.105772 0.407221,-0.661397 0.716658,-1.234722 0.309437,-0.573326 0.745476,-1.359911 0.968973,-1.747967 0.223497,-0.388055 0.487013,-0.903993 0.585592,-1.146527 0.09858,-0.242535 0.258847,-0.560035 0.35615,-0.705556 0.0973,-0.145521 0.26168,-0.463021 0.365282,-0.705556 0.1036,-0.242534 0.579662,-1.246201 1.057912,-2.230372 0.47825,-0.984169 0.869546,-1.842366 0.869546,-1.907103 0,-0.06474 0.206204,-0.569194 0.45823,-1.121018 0.81247,-1.778931 0.952862,-2.112217 0.953968,-2.264692 5.29e-4,-0.08235 0.117039,-0.372036 0.258761,-0.64374 0.141721,-0.271705 0.335669,-0.747955 0.430995,-1.058334 0.269837,-0.878563 0.834523,-2.437634 1.145611,-3.16297 0.340536,-0.794003 0.951704,-1.019408 1.604414,-0.591732 0.5129,0.336065 0.58913,1.148392 0.19538,2.081962 -0.13438,0.318587 -0.41816,1.055499 -0.63063,1.637582 -0.21247,0.582084 -0.53192,1.415521 -0.709874,1.852084 -0.177955,0.436562 -0.494217,1.230312 -0.702802,1.763889 -0.208587,0.533576 -0.504333,1.247951 -0.657214,1.5875 -0.152882,0.339548 -0.419665,0.934861 -0.592852,1.322916 -1.715883,3.844755 -5.708303,11.271941 -6.806456,12.662211 -0.449923,0.5696 -1.269343,0.6444 -1.711165,0.15619 z m 66.175539,-2.0063 c -2.04206,-1.940797 -4.08113,-4.48221 -5.56142,-6.931555 -0.32151,-0.531976 -1.81576,-3.590899 -1.81576,-3.717089 0,-0.06058 -0.11796,-0.360272 -0.26213,-0.665976 -0.39118,-0.829444 -1.14933,-3.462745 -1.14658,-3.982395 0.006,-1.135793 0.48122,-1.556313 1.38208,-1.223065 0.41226,0.152504 0.52487,0.380584 0.98937,2.003803 0.82023,2.866296 2.59482,6.607372 4.01619,8.466667 1.19869,1.568002 2.62791,3.22696 3.5711,4.145139 1.46419,1.425351 1.73611,1.892661 1.44404,2.481671 -0.15425,0.31106 -0.38217,0.44312 -0.83041,0.48113 -0.54723,0.0464 -0.75132,-0.0745 -1.78648,-1.05833 z m -23.81802,-3.006902 c -0.82388,-0.64764 -0.77851,-0.707288 4.75054,-6.244998 2.89087,-2.895407 5.96796,-6.097815 6.83797,-7.116461 0.87002,-1.018646 2.14357,-2.487083 2.83013,-3.263194 1.17273,-1.325699 3.09867,-3.717199 5.73203,-7.117643 0.62747,-0.81026 1.37899,-1.772275 1.67003,-2.137811 0.29104,-0.365536 0.64823,-0.841022 0.79375,-1.056633 0.14552,-0.215612 0.5879,-0.841096 0.98306,-1.389967 1.03191,-1.433308 1.97627,-2.782142 2.7981,-3.996558 0.39391,-0.582083 0.75826,-1.098021 0.80966,-1.146528 0.15484,-0.146126 2.9939,-4.413067 2.9939,-4.499663 0,-0.04415 0.43656,-0.725077 0.97014,-1.513163 0.53358,-0.788086 0.97014,-1.503849 0.97014,-1.590585 0,-0.08673 0.15875,-0.31645 0.35278,-0.510478 0.41866,-0.418666 1.27653,-0.462882 1.59257,-0.08208 0.31374,0.378042 0.25392,1.255239 -0.12381,1.815419 -0.17488,0.259339 -0.39829,0.608721 -0.49648,0.776405 -0.64565,1.1026 -2.76577,4.415445 -2.90918,4.545816 -0.0534,0.04851 -0.57761,0.802569 -1.165,1.675694 -1.72039,2.557274 -2.61847,3.865951 -2.80713,4.090506 -0.097,0.115472 -0.37483,0.496618 -0.61736,0.846992 -0.24254,0.350375 -0.87754,1.22165 -1.41111,1.936168 -0.53358,0.714517 -1.08921,1.474632 -1.23473,1.689142 -0.14552,0.21451 -0.40124,0.558444 -0.56827,0.7643 -0.16703,0.205855 -1.33919,1.683969 -2.60479,3.284698 -5.25673,6.648673 -8.23061,9.999206 -13.76027,15.503067 -4.84958,4.826951 -5.5819,5.37018 -6.38667,4.737559 z M 99.896064,97.425055 c -1.15152,-0.311093 -3.08409,-0.902737 -3.70417,-1.134006 -0.33955,-0.12664 -0.8158,-0.284773 -1.05833,-0.351407 -0.24254,-0.06663 -1.1676,-0.459142 -2.055705,-0.872241 -1.966907,-0.914903 -2.381624,-1.468886 -1.648465,-2.202045 0.442877,-0.442877 1.095726,-0.448334 2.01688,-0.01686 1.2823,0.600635 2.43388,1.075197 2.60909,1.075197 0.0943,0 0.42153,0.116275 0.72723,0.258388 0.30571,0.142113 0.87333,0.335129 1.26138,0.428922 0.38806,0.09379 1.02306,0.291533 1.41112,0.439425 0.38805,0.14789 0.887746,0.272376 1.110436,0.276634 0.50547,0.0097 1.27081,0.7531 1.27081,1.234447 0,0.449901 -0.60223,1.072378 -1.01424,1.048343 -0.16978,-0.0099 -0.58649,-0.09306 -0.926036,-0.184794 z M 74.563038,94.474649 c -1.512882,-0.265668 -2.025091,-1.028617 -1.312822,-1.955484 0.33328,-0.433695 0.336165,-0.434046 1.813218,-0.220486 1.836563,0.265539 6.351667,0.278715 7.821105,0.02282 0.924022,-0.160912 1.183876,-0.146274 1.646047,0.09273 0.448917,0.232143 0.548808,0.39165 0.548808,0.876344 0,0.449527 -0.117078,0.671491 -0.48507,0.919628 -0.436668,0.294448 -0.925075,0.330327 -4.894792,0.359579 -2.425347,0.01787 -4.736769,-0.02494 -5.136494,-0.09513 z M 124.6787,92.281128 c -2.50035,-1.095708 -2.81421,-1.261292 -4.39466,-2.318512 -1.45821,-0.975452 -3.80743,-3.296936 -3.80743,-3.762481 0,-0.728705 0.37943,-1.272279 0.88809,-1.272279 0.47548,0 0.73703,0.20023 2.72789,2.088388 1.46209,1.386674 3.18669,2.387254 5.90902,3.428321 1.07495,0.411076 1.14941,0.475559 1.19257,1.032746 0.0253,0.326863 -0.0228,0.699532 -0.10687,0.828157 -0.26574,0.406421 -1.45301,0.394423 -2.40861,-0.02434 z m -12.60956,-4.878395 c -0.26549,-0.640962 -0.0961,-1.20533 0.75642,-2.519777 2.06271,-3.180473 5.21321,-9.258394 7.56552,-14.595378 0.68006,-1.542938 0.81527,-1.861064 1.16199,-2.734028 0.19266,-0.48507 0.50989,-1.27882 0.70495,-1.763889 0.19506,-0.48507 0.47213,-1.199445 0.61572,-1.5875 0.14358,-0.388056 0.42984,-1.143653 0.63613,-1.679104 0.20629,-0.535452 0.37777,-1.051389 0.38106,-1.146528 0.003,-0.09514 0.15935,-0.49048 0.3468,-0.878535 0.18744,-0.388056 0.3435,-0.841769 0.34679,-1.008251 0.003,-0.166483 0.11915,-0.563358 0.25748,-0.881945 0.29035,-0.668767 0.71773,-1.958676 1.06855,-3.225082 0.13437,-0.48507 0.41014,-1.43757 0.61282,-2.116667 0.20267,-0.679097 0.46261,-1.652502 0.57764,-2.163123 0.36021,-1.599002 1.46796,-2.225491 2.13501,-1.207452 0.21605,0.329736 0.21797,0.54842 0.0134,1.524978 -0.24153,1.153062 -0.78362,3.167964 -1.11346,4.138653 -0.38719,1.139448 -0.75118,2.324514 -0.91889,2.991667 -0.0966,0.384236 -0.23921,0.781111 -0.31694,0.881944 -0.0777,0.100833 -0.22576,0.500833 -0.32896,0.888889 -0.10321,0.388055 -0.39696,1.261181 -0.6528,1.940278 -0.25583,0.679097 -0.54283,1.488667 -0.63776,1.799047 -0.0949,0.310379 -0.28855,0.786629 -0.43028,1.058333 -0.14172,0.271704 -0.25816,0.591104 -0.25876,0.709777 -0.001,0.198924 -0.19111,0.659752 -1.08326,2.625774 -0.18091,0.398681 -0.32893,0.808969 -0.32893,0.911747 0,0.10278 -0.11816,0.411586 -0.26256,0.686236 -0.14441,0.27465 -0.51088,1.054989 -0.81437,1.734086 -1.55868,3.487695 -2.36897,5.161728 -3.84201,7.9375 -1.20579,2.272175 -1.65629,3.080557 -2.16257,3.880556 -0.24557,0.388056 -0.55848,0.91926 -0.69535,1.180455 -1.27556,2.434322 -1.86424,3.130481 -2.65279,3.13715 -0.34964,0.003 -0.51702,-0.124878 -0.6806,-0.519811 z M 99.984254,86.172826 c -1.48768,-0.17267 -3.79289,-0.943895 -4.10891,-1.374671 -0.25025,-0.341125 -0.13501,-1.109054 0.19824,-1.32104 0.36269,-0.230709 1.45865,-0.146856 2.61327,0.199948 1.529396,0.459368 3.381366,0.581598 5.795316,0.38249 2.03158,-0.167569 2.69332,-0.296777 4.68193,-0.914172 0.58628,-0.182018 1.43458,-0.381468 1.88511,-0.44322 0.78625,-0.107766 0.83343,-0.08882 1.17423,0.471587 0.34051,0.559916 0.34239,0.601271 0.046,1.008191 -0.41983,0.576338 -2.63468,1.3137 -5.40599,1.799752 -1.34924,0.23664 -5.49475,0.35182 -6.879166,0.191135 z M 81.992588,84.051397 c -0.582083,-0.06745 -1.336146,-0.20979 -1.675695,-0.316313 -0.339548,-0.106525 -0.974548,-0.248135 -1.411111,-0.314688 -0.436562,-0.06655 -0.9388,-0.197245 -1.116083,-0.290426 -0.177283,-0.09318 -0.693221,-0.27501 -1.146528,-0.404067 -2.271651,-0.64674 -3.205445,-1.218048 -3.205445,-1.96113 0,-0.218583 0.201121,-0.555625 0.446933,-0.748981 0.478656,-0.376511 0.628528,-0.360532 2.198901,0.234449 1.045559,0.396141 2.331794,0.786301 3.527778,1.070102 3.043472,0.722198 3.559519,0.785291 6.423117,0.785291 h 2.933058 l 0.204158,0.448079 c 0.304745,0.668843 -0.0011,1.373979 -0.656569,1.514365 -0.69817,0.149502 -5.187428,0.138023 -6.522514,-0.01669 z m 51.505552,-1.945114 c -1.86704,-0.266884 -4.10983,-1.326207 -5.99722,-2.832624 -1.70652,-1.362061 -3.74423,-3.618366 -4.3695,-4.838252 -0.24965,-0.487051 -0.24385,-0.563 0.0775,-1.014237 0.64147,-0.900865 1.23186,-0.672809 2.54671,0.983751 2.91118,3.667737 6.46831,5.760435 9.79149,5.760435 1.07767,0 1.2356,0.04498 1.48282,0.422294 0.33151,0.505942 0.19212,1.271434 -0.27726,1.522637 -0.35681,0.19096 -1.90389,0.189057 -3.2545,-0.004 z M 94.425404,76.017084 c -0.24904,-0.30008 -0.17049,-1.329785 0.25544,-3.348256 0.44324,-2.100526 0.83566,-4.848746 0.99328,-6.956382 0.083,-1.10962 0.22842,-2.578057 0.32318,-3.263194 0.28724,-2.076865 0.3896,-7.741029 0.20676,-11.441695 -0.10033,-2.030813 -0.10758,-3.664172 -0.0173,-3.901578 0.24776,-0.651651 1.02358,-0.697948 1.62458,-0.09695 l 0.49724,0.497241 0.0187,2.968083 c 0.0393,6.246723 -0.048,11.745006 -0.20873,13.148967 -0.092,0.80343 -0.28145,2.532345 -0.42103,3.842032 -0.13958,1.309688 -0.33257,2.643121 -0.42888,2.963184 -0.0963,0.320064 -0.23139,1.153095 -0.30018,1.851178 -0.0688,0.698086 -0.23196,1.525071 -0.3626,1.837749 -0.13065,0.312677 -0.23754,0.803507 -0.23754,1.090736 0,0.287228 -0.12473,0.646966 -0.27718,0.799415 -0.35335,0.353353 -1.37548,0.359162 -1.6657,0.0095 z m 19.027766,-4.049251 c -0.046,-0.046 -0.87282,-0.169534 -1.83739,-0.274528 -1.71545,-0.186727 -2.32416,-0.325748 -5.01694,-1.145792 -2.53593,-0.772276 -6.17036,-2.580878 -7.034256,-3.500459 -0.55396,-0.589663 -0.43833,-1.181273 0.30327,-1.551584 0.577506,-0.288376 0.605396,-0.284146 1.411106,0.213976 0.45208,0.279492 1.57602,0.87685 2.49765,1.327464 0.92164,0.450614 1.81192,0.889102 1.97842,0.97442 0.16649,0.08532 0.60306,0.230997 0.97014,0.32373 0.36708,0.09273 1.0246,0.283168 1.46117,0.423187 1.76571,0.566321 3.39481,0.837553 5.97024,0.993987 2.86988,0.174321 3.55476,0.381393 3.55476,1.074783 0,0.195204 -0.12819,0.550561 -0.28487,0.789683 -0.27202,0.415145 -0.36622,0.434767 -2.08727,0.434767 -0.99132,0 -1.84004,-0.03764 -1.88603,-0.08363 z M 73.900869,71.544361 c -0.949551,-0.145052 -1.345087,-0.518185 -1.345087,-1.268898 0,-0.825673 0.250811,-0.885814 3.196994,-0.766581 1.753831,0.07098 3.11712,0.03798 3.858562,-0.0934 0.63059,-0.111733 1.662465,-0.280514 2.293055,-0.375069 0.630591,-0.09455 1.464028,-0.279524 1.852084,-0.411041 0.388055,-0.131519 1.023056,-0.321021 1.411111,-0.421118 0.833,-0.214867 2.070892,-0.656063 2.84888,-1.015367 0.305703,-0.141185 0.604951,-0.2567 0.664993,-0.2567 0.113775,0 2.685703,-1.256849 3.453489,-1.687651 0.703148,-0.394532 1.36121,-0.316373 1.700874,0.202015 0.55555,0.847879 0.20327,1.271946 -1.968479,2.369612 -1.065491,0.538531 -2.532569,1.205703 -3.260173,1.482603 -0.727605,0.276901 -1.573038,0.611759 -1.878741,0.744132 -0.305704,0.132373 -0.681068,0.240678 -0.834144,0.240678 -0.153075,0 -0.776079,0.148999 -1.384453,0.33111 -2.67894,0.801913 -3.565319,0.934397 -6.662385,0.995807 -1.697743,0.03366 -3.473705,0.0021 -3.94658,-0.07013 z m 69.651441,0.03369 c -0.19403,-0.04384 -0.6029,-0.193385 -0.9086,-0.332316 -0.3057,-0.13893 -0.6542,-0.2526 -0.77443,-0.2526 -0.2473,0 -0.92551,-0.30809 -4.00551,-1.819589 -1.18842,-0.583212 -2.16077,-1.112065 -2.16077,-1.175228 0,-0.06316 -0.25796,-0.238792 -0.57326,-0.390283 -0.79985,-0.384306 -4.28349,-3.025883 -5.86763,-4.449308 -1.06104,-0.9534 -1.32022,-1.285759 -1.32022,-1.693018 0,-0.556813 0.54069,-1.056481 1.14168,-1.055064 0.1967,5.29e-4 0.67513,0.292974 1.06318,0.650026 0.93343,0.85885 4.0221,3.317676 4.90912,3.908051 0.38687,0.257489 0.87964,0.587225 1.09504,0.732746 1.59127,1.075041 5.56092,3.042882 6.87223,3.406712 1.7599,0.488292 2.3727,1.067784 2.04383,1.93276 -0.13678,0.359765 -0.72333,0.706596 -1.07369,0.63488 -0.0485,-0.0099 -0.24694,-0.05392 -0.44097,-0.09777 z M 70.961231,60.43956 c -0.308082,-0.249471 -0.372136,-0.429691 -0.281324,-0.791519 0.20021,-0.797701 0.701848,-0.960468 3.555185,-1.153562 1.457198,-0.09861 2.846261,-0.25377 3.086806,-0.344793 0.240547,-0.09102 0.873919,-0.221387 1.407495,-0.289697 0.533577,-0.06831 1.367014,-0.236106 1.852084,-0.37288 0.485069,-0.136774 1.755069,-0.497277 2.822222,-0.801119 1.067153,-0.303841 2.31786,-0.657501 2.779348,-0.785911 0.461489,-0.128409 0.924953,-0.28655 1.029919,-0.351423 0.104967,-0.06487 0.560823,-0.223782 1.013013,-0.353132 1.017412,-0.291031 2.38704,-0.738202 3.203415,-1.045885 1.631881,-0.615038 3.03607,-0.983668 3.35791,-0.881521 0.48217,0.153035 0.88444,0.807297 0.76864,1.250128 -0.0977,0.373577 -1.75249,1.304496 -2.322471,1.306529 -0.167626,6e-4 -0.5377,0.122551 -0.822386,0.271007 -0.284689,0.148456 -0.800626,0.341899 -1.146528,0.429874 -0.72855,0.185294 -2.121087,0.636019 -3.010165,0.974305 -0.578968,0.220292 -1.831949,0.605217 -4.321528,1.327604 -1.606323,0.466098 -2.533112,0.699553 -3.792362,0.955279 -0.63059,0.128061 -1.543402,0.318236 -2.028472,0.422611 -1.262288,0.271612 -4.094411,0.557122 -5.526404,0.557122 -0.925038,0 -1.323287,-0.07919 -1.624397,-0.323017 z m 48.073019,-0.926444 c -0.67909,-0.07962 -2.18722,-0.221818 -3.35139,-0.315996 -3.37799,-0.273267 -8.18614,-1.221343 -11.28889,-2.225954 -0.48507,-0.157056 -1.18228,-0.361429 -1.54936,-0.454162 -0.36708,-0.09273 -0.80364,-0.244262 -0.97014,-0.336732 -0.16649,-0.09247 -0.72049,-0.339821 -1.2311,-0.549669 -1.018796,-0.418696 -1.298086,-0.907748 -0.952086,-1.667139 0.25485,-0.559336 0.913006,-0.70811 1.588126,-0.358991 0.29667,0.153416 0.63057,0.278937 0.74199,0.278937 0.11143,0 0.45271,0.110516 0.75842,0.245591 0.83035,0.366892 2.21837,0.814086 3.11346,1.003101 0.43656,0.09219 1.11125,0.276697 1.49931,0.410018 0.78419,0.269422 2.10427,0.562618 3.70416,0.822715 0.58209,0.09463 1.77271,0.290255 2.64584,0.43472 0.87312,0.144466 3.04185,0.345339 4.8194,0.446384 1.77755,0.101046 3.408,0.25067 3.62322,0.332498 0.65066,0.247381 0.90115,0.671312 0.71292,1.206554 -0.31337,0.891053 -1.14215,1.047232 -3.86388,0.728125 z"
       id="path6104" />
  </g>
</svg>
