<?xml version="1.0" encoding="UTF-8" standalone="no"?>
<!-- Created with Inkscape (http://www.inkscape.org/) -->

<svg
   width="210mm"
   height="297mm"
   viewBox="0 0 210 297"
   version="1.1"
   id="svg8811"
   inkscape:version="1.1 (c68e22c387, 2021-05-23)"
   sodipodi:docname="StarWars-Sith.svg"
   xmlns:inkscape="http://www.inkscape.org/namespaces/inkscape"
   xmlns:sodipodi="http://sodipodi.sourceforge.net/DTD/sodipodi-0.dtd"
   xmlns="http://www.w3.org/2000/svg"
   xmlns:svg="http://www.w3.org/2000/svg">
  <sodipodi:namedview
     id="namedview8813"
     pagecolor="#ffffff"
     bordercolor="#666666"
     borderopacity="1.0"
     inkscape:pageshadow="2"
     inkscape:pageopacity="0.0"
     inkscape:pagecheckerboard="0"
     inkscape:document-units="mm"
     showgrid="false"
     inkscape:zoom="0.69397447"
     inkscape:cx="334.30625"
     inkscape:cy="561.25984"
     inkscape:window-width="1920"
     inkscape:window-height="1017"
     inkscape:window-x="-8"
     inkscape:window-y="-8"
     inkscape:window-maximized="1"
     inkscape:current-layer="layer1" />
  <defs
     id="defs8808" />
  <g
     inkscape:label="Ebene 1"
     inkscape:groupmode="layer"
     id="layer1">
    <path
       style="fill:#000000;stroke-width:1"
       d="m 95.030645,242.78197 c -0.242535,-0.0332 -0.599723,-0.12663 -0.79375,-0.20754 -0.194028,-0.0809 -0.561289,-0.23019 -0.816136,-0.33177 -0.758802,-0.30242 -1.693732,-1.23278 -2.309761,-2.29847 -0.537649,-0.93008 -0.578023,-1.11187 -0.574767,-2.58786 0.0039,-1.7638 0.208841,-2.34546 1.584823,-4.49791 0.872516,-1.36488 1.90951,-2.47874 3.350563,-3.59892 0.582083,-0.45247 1.325232,-1.03417 1.651441,-1.29267 0.805121,-0.63796 1.421941,-1.66204 1.543863,-2.56319 0.110303,-0.81529 -0.08752,-2.34008 -0.623306,-4.80425 -0.189843,-0.87313 -0.301819,-1.7661 -0.248837,-1.98438 0.122654,-0.50532 -0.333027,-0.53352 -1.096599,-0.0679 -0.419292,0.25569 -0.583967,0.52975 -0.749653,1.24753 -0.11678,0.50592 -0.212326,1.23238 -0.212326,1.61435 0,1.23733 -0.570302,1.92442 -1.597344,1.92442 -0.66418,0 -0.847231,-0.10466 -1.774068,-1.01424 -0.568408,-0.55783 -1.03456,-1.11345 -1.03589,-1.23472 -0.0014,-0.12127 -0.07451,-0.22049 -0.162623,-0.22049 -0.221566,0 -1.772238,-2.45411 -1.893842,-2.99723 -0.149248,-0.66658 -0.484503,-1.41249 -0.634846,-1.41249 -0.237767,0 -0.140983,2.47641 0.140326,3.59052 0.420319,1.66462 0.695168,2.11988 1.887096,3.1257 1.51949,1.28224 1.980646,1.76657 2.335594,2.45297 0.637716,1.2332 0.0023,2.85707 -1.648767,4.21382 -2.729952,2.24326 -4.192764,4.15588 -4.604075,6.01977 -0.424151,1.92207 -0.13078,3.19004 1.033242,4.46572 0.370248,0.40577 0.77387,0.92991 0.896936,1.16475 0.19298,0.36828 0.179656,0.45927 -0.09687,0.66146 -0.416721,0.30471 -0.779355,0.29565 -2.182211,-0.0546 -1.100063,-0.27465 -2.606179,-1.08495 -3.41195,-1.83564 -0.203504,-0.1896 -0.428745,-0.34472 -0.500535,-0.34472 -0.07179,0 -0.23542,-0.0992 -0.363616,-0.22048 -0.128197,-0.12127 -0.547766,-0.45579 -0.932377,-0.7434 -1.592324,-1.19067 -2.968586,-2.84541 -3.862828,-4.64446 -0.711401,-1.43118 -1.600793,-3.06752 -2.033346,-3.74103 -0.58208,-0.90632 -0.729948,-1.15242 -0.847362,-1.41035 -0.06624,-0.14552 -0.38324,-0.67749 -0.704433,-1.18216 -0.321194,-0.50465 -0.583989,-0.95952 -0.583989,-1.0108 0,-0.0513 -0.277812,-0.52754 -0.617361,-1.05833 -0.339548,-0.53081 -0.617361,-1.0087 -0.617361,-1.06197 0,-0.092 -1.480079,-2.43293 -2.012652,-3.18327 -2.007102,-2.82783 -8.260351,-10.95218 -8.75687,-11.37708 -0.05668,-0.0485 -0.429235,-0.52476 -0.827895,-1.05833 -0.39866,-0.53358 -1.042668,-1.36702 -1.431128,-1.85209 -0.983403,-1.22796 -3.022843,-4.25293 -3.022843,-4.48357 0,-0.1049 -0.05953,-0.19103 -0.132292,-0.19139 -0.07276,0 -0.27828,-0.3774 -0.456708,-0.83784 -0.178429,-0.46047 -0.392714,-0.99595 -0.476186,-1.18998 -0.426127,-0.9905 -1.005627,-3.21039 -1.404407,-5.37986 -0.276498,-1.50421 -0.856435,-4.47993 -1.323488,-6.79097 -0.372595,-1.84364 -0.780432,-4.43275 -1.236424,-7.8493 -0.361721,-2.71021 -0.519991,-3.5942 -0.868475,-4.8507 -0.568844,-2.05103 -1.577358,-3.61597 -2.330284,-3.61597 -0.133754,0 -0.381018,-0.0716 -0.549477,-0.1592 -0.168458,-0.0876 -0.623786,-0.24002 -1.011842,-0.33881 -2.384734,-0.60709 -2.534611,-0.65846 -4.233333,-1.4509 -2.491974,-1.16249 -4.627465,-4.12066 -5.405484,-7.4879 -0.498449,-2.15726 -0.674638,-3.57809 -0.688998,-5.55625 -0.03216,-4.43045 -0.539495,-7.40246 -1.670458,-9.78573 -0.337443,-0.7111 -0.613532,-1.40635 -0.613532,-1.54502 0,-0.13866 -0.05676,-0.30888 -0.126139,-0.37826 -0.450825,-0.45082 -0.785908,-3.84116 -0.403028,-4.07779 0.09701,-0.06 0.176389,-0.26416 0.176389,-0.45378 0,-0.18962 0.07431,-0.48259 0.165144,-0.65105 0.450295,-0.83514 1.09523,-2.38994 1.517213,-3.65767 0.258341,-0.77611 0.600652,-1.51693 0.760691,-1.64627 0.428982,-0.34668 1.87306,-0.13083 3.018138,0.45114 1.196259,0.60799 1.40185,0.76409 2.735533,2.07707 1.234963,1.2158 1.446757,1.49283 2.95454,3.86468 0.609272,0.95843 1.183889,1.75096 1.276925,1.76118 0.09304,0.0102 0.226304,-0.21954 0.296145,-0.51058 0.592612,-2.46947 0.718146,-3.31547 0.824461,-5.55625 0.168947,-3.56084 -0.09907,-7.5 -0.672086,-9.87778 -0.553079,-2.29507 -0.612378,-2.3923 -1.063806,-1.74424 -0.399745,0.57387 -1.515431,1.21508 -2.11421,1.21508 -1.104568,0 -1.87557,-0.91649 -2.151642,-2.55764 -0.500012,-2.9724 -0.714756,-15.18911 -0.342612,-19.49098 0.568573,-6.572498 0.633134,-6.970477 1.405262,-8.662599 0.282838,-0.619839 0.570176,-1.30566 0.638529,-1.524044 0.160633,-0.513217 0.722727,-0.808595 1.274966,-0.669992 0.83783,0.210282 0.948126,0.893128 0.934505,5.785558 -0.01812,6.509397 0.312221,9.501077 1.592227,14.419697 0.08836,0.33954 0.296452,1.17298 0.46242,1.85208 0.165968,0.6791 0.368587,1.31013 0.450264,1.40229 0.08168,0.0922 0.148504,0.31044 0.148504,0.48507 0,0.17462 0.06302,0.3175 0.140031,0.3175 0.07702,0 0.426011,0.61516 0.77554,1.36701 1.334147,2.86984 1.906651,4.13535 1.906651,4.21464 0,0.0879 0.535702,1.29562 1.079214,2.43308 0.182543,0.38202 0.331897,0.79213 0.331897,0.91134 0,0.11922 0.06205,0.24321 0.137883,0.27555 0.131262,0.056 0.851355,1.48749 1.232334,2.44983 0.463665,1.17119 0.639099,3.63872 0.41569,5.84677 -0.12071,1.19303 -0.288517,2.44695 -0.372905,2.7865 -0.08439,0.33955 -0.245475,1.09361 -0.357967,1.6757 -0.299113,1.54773 -0.716887,3.29965 -0.883317,3.70416 -0.07983,0.19403 -0.184254,0.55122 -0.232055,0.79375 -0.0478,0.24254 -0.218038,0.87754 -0.378303,1.41111 -0.453135,1.50863 -0.962431,3.36157 -1.502945,5.46806 -0.440247,1.71573 -0.573846,4.07595 -0.357244,6.3112 0.119578,1.23401 0.284237,2.4421 0.365908,2.68463 0.08167,0.24254 0.277127,1.03629 0.434344,1.76389 0.285722,1.32232 0.341275,1.55534 0.883121,3.70417 0.609125,2.41565 1.025428,3.46198 1.568855,3.94315 0.302197,0.26758 0.567969,0.31164 1.458811,0.24186 1.867649,-0.14631 2.923077,-1.28232 3.478455,-3.74404 0.175096,-0.77611 0.389763,-1.59344 0.477039,-1.81628 0.08728,-0.22285 0.158685,-1.94684 0.158685,-3.8311 0,-3.09896 -0.03367,-3.48586 -0.352778,-4.05401 -1.040465,-1.85246 0.494024,-3.44588 3.309822,-3.43692 1.542537,0.005 2.557031,0.52154 4.249463,2.16408 1.216125,1.18028 2.729065,2.10914 4.213722,2.587 0.73872,0.23777 1.456159,1.07266 1.456159,1.69454 0,0.13997 0.0637,0.2545 0.141545,0.2545 0.07785,0 0.276678,0.37703 0.441843,0.83784 0.381625,1.06475 0.391434,3.21927 0.01993,4.3783 -0.683332,2.13191 -0.839874,2.35798 -2.372931,3.42691 -0.765253,0.53358 -1.394523,1.02967 -1.398379,1.10243 -0.0039,0.0728 -0.119458,0.13229 -0.256895,0.13229 -0.137435,0 -0.276341,0.0659 -0.30868,0.14655 -0.123007,0.30659 -2.811457,1.44928 -3.621208,1.53915 -2.66404,0.29567 -3.757727,0.64021 -3.757727,1.18377 0,0.8884 1.387454,2.67074 2.248959,2.88904 0.218281,0.0553 0.396875,0.16201 0.396875,0.23709 0,0.15376 2.747249,1.06196 3.208686,1.06074 0.164049,-3.5e-4 0.347328,0.0786 0.407286,0.17561 0.05996,0.097 0.272182,0.17639 0.471609,0.17639 0.622859,0 1.973273,0.86775 2.553534,1.64086 0.480914,0.64075 0.920073,1.367 1.727644,2.85705 0.594844,1.09755 2.31931,3.88938 2.433273,3.93936 0.07374,0.0323 0.135844,0.1514 0.138001,0.26458 0.0022,0.11318 0.147777,0.39283 0.323601,0.62144 l 0.319679,0.41565 0.186485,-0.50385 c 0.102568,-0.27711 0.320299,-0.90072 0.483849,-1.38579 0.163549,-0.48507 0.362562,-1.04069 0.442251,-1.23472 0.07969,-0.19403 0.24418,-0.63059 0.365538,-0.97014 0.592555,-1.65792 1.290113,-3.13616 2.746775,-5.82083 0.5527,-1.01865 1.071645,-1.87854 1.153211,-1.91088 0.08156,-0.0323 0.148299,-0.14015 0.148299,-0.23957 0,-0.2736 1.730442,-2.42429 2.633031,-3.27249 0.828384,-0.77846 2.512589,-1.70966 3.665846,-2.02684 1.238105,-0.34052 3.016456,-0.36732 3.673866,-0.0554 0.730815,0.3468 1.449624,1.24927 1.602047,2.01139 0.06184,0.30921 0.181564,0.60492 0.266047,0.65714 0.292892,0.18101 0.151649,0.77275 -0.243268,1.01918 -0.218281,0.13621 -0.807533,0.29233 -1.309449,0.34694 -0.789894,0.0859 -1.518412,0.34522 -1.821454,0.64827 -0.04851,0.0485 -0.485069,0.40514 -0.970139,0.79251 -1.122052,0.89607 -2.204861,1.95614 -2.204861,2.15854 0,0.0861 -0.264698,0.59608 -0.588218,1.13334 -0.952491,1.58177 -1.419364,3.30611 -1.783494,6.58713 -0.146179,1.31717 -1.052084,2.95983 -2.835795,5.14208 -0.773891,0.9468 -1.708277,2.20122 -2.076413,2.78761 -0.682426,1.08699 -1.535524,2.80167 -1.535524,3.08631 0,0.36395 -0.937099,1.24303 -1.325063,1.24303 -0.474671,0 -1.497159,-0.79373 -1.497159,-1.16221 0,-0.13689 -0.07403,-0.2489 -0.164502,-0.2489 -0.09048,0 -0.217734,-0.16772 -0.282797,-0.37271 -0.115191,-0.36294 -1.94887,-3.15542 -2.187596,-3.33146 -0.112524,-0.083 -1.714274,-2.23273 -5.390799,-7.23516 -0.873125,-1.188 -1.733267,-2.32813 -1.911429,-2.5336 -0.17816,-0.20548 -0.535347,-0.64017 -0.79375,-0.96598 -1.359621,-1.7143 -3.816741,-3.6157 -5.100029,-3.94657 -0.490726,-0.12652 -0.496217,-0.0503 -0.03207,0.44529 0.200644,0.21422 0.862707,1.18325 1.471254,2.15339 1.027196,1.63754 1.579803,2.69694 2.576225,4.93888 0.674622,1.51789 1.94292,3.99456 2.122722,4.14514 0.05792,0.0485 0.162163,0.20726 0.231652,0.35278 0.222035,0.46497 1.593633,2.66911 1.920866,3.08681 0.076,0.097 0.824454,1.16857 1.663222,2.38125 0.838766,1.21267 1.579553,2.24454 1.64619,2.29305 0.06664,0.0485 0.343328,0.44538 0.614868,0.88195 0.27154,0.43656 0.541599,0.83343 0.600132,0.88194 0.346016,0.28675 1.66625,2.52509 2.676129,4.53715 l 1.170607,2.33228 0.906473,-1.80312 c 1.132717,-2.25315 2.428734,-3.98974 4.796024,-6.42641 1.0169,-1.0467 2.079768,-2.22059 2.361929,-2.60865 0.28216,-0.38805 0.925761,-1.12227 1.430226,-1.6316 0.811382,-0.81919 1.001151,-0.92604 1.644724,-0.92604 0.650376,0 0.783742,0.0776 1.257788,0.73202 0.291651,0.40261 0.530273,0.87886 0.530273,1.05834 0,0.17947 0.06197,0.32631 0.137717,0.32631 0.07574,0 0.230403,0.21828 0.343685,0.48507 0.113281,0.26679 0.395508,0.80257 0.627172,1.19062 0.231664,0.38806 0.636237,1.09187 0.899053,1.56402 0.262815,0.47215 0.607716,0.98809 0.766446,1.14653 0.158733,0.15843 0.713684,0.94673 1.233228,1.75177 1.011949,1.56801 3.64883,4.26675 4.995261,5.11244 0.432862,0.27187 1.223583,0.67848 1.75716,0.90355 2.743776,1.15742 3.237686,1.47716 3.555886,2.30197 0.24941,0.64652 0.005,1.69086 -0.51884,2.21444 -0.44011,0.4401 -0.53393,0.45915 -1.882413,0.38207 -0.780569,-0.0446 -2.689216,-0.241 -4.241439,-0.43642 -2.724342,-0.34299 -9.789583,-0.61419 -9.789583,-0.37578 0,0.24677 2.667829,2.58392 3.704167,3.24503 0.339549,0.2166 1.252361,0.61069 2.028472,0.87575 0.776111,0.26506 1.569861,0.54376 1.763889,0.61932 1.985483,0.77331 4.17068,0.98339 9.965967,0.95809 3.70213,-0.0162 5.42225,-0.0941 6.52639,-0.29584 2.017,-0.36846 2.49505,-0.47577 2.91042,-0.65336 0.19403,-0.0829 0.67028,-0.24507 1.05833,-0.36031 1.78301,-0.52945 2.85233,-1.12021 4.00028,-2.21003 0.51623,-0.49009 1.18326,-1.0341 1.48228,-1.20888 0.51844,-0.30307 1.05569,-0.94102 0.91281,-1.08389 -0.15709,-0.15709 -9.2003,0.30833 -10.89328,0.56063 -1.01865,0.15182 -2.4474,0.31443 -3.175,0.36137 -1.28986,0.0832 -1.33567,0.072 -1.83309,-0.44746 -0.37888,-0.3957 -0.53149,-0.75475 -0.59303,-1.39522 -0.0733,-0.76227 -0.0268,-0.91853 0.40047,-1.34574 0.26583,-0.26584 1.00895,-0.71992 1.65136,-1.00907 3.9677,-1.7859 4.73514,-2.3308 6.90068,-4.89964 0.43656,-0.51786 0.88164,-1.03327 0.98907,-1.14535 0.25318,-0.26413 3.24426,-4.99504 3.24426,-5.13135 0,-0.0571 0.25917,-0.51668 0.57593,-1.02135 0.31676,-0.50466 0.73348,-1.22449 0.92604,-1.59961 0.94909,-1.84891 2.30888,-1.4804 4.42542,1.19931 0.37795,0.47853 1.09099,1.27228 1.58453,1.76389 1.62102,1.61472 3.60058,3.89287 3.60058,4.14368 0,0.0882 0.068,0.18681 0.15107,0.21915 0.18758,0.073 1.71563,2.53524 2.40813,3.88036 l 0.51449,0.99935 0.25338,-0.55837 c 0.2511,-0.55337 0.44784,-0.95859 1.12749,-2.32227 0.60269,-1.20927 1.77118,-3.17219 1.92501,-3.2338 0.0807,-0.0323 0.14682,-0.13277 0.14682,-0.22318 0,-0.15205 1.70352,-2.60617 1.94696,-2.80482 0.0594,-0.0485 0.25812,-0.34617 0.4415,-0.66146 0.18339,-0.3153 0.39569,-0.57327 0.47179,-0.57327 0.0761,0 0.13836,-0.11244 0.13836,-0.24988 0,-0.13744 0.0673,-0.27634 0.14944,-0.30868 0.21253,-0.0836 1.80316,-2.35512 2.41875,-3.4541 0.28524,-0.50923 0.57814,-0.92595 0.6509,-0.92605 0.0728,-9e-5 0.1323,-0.0804 0.1323,-0.17849 0,-0.0981 0.38149,-0.79261 0.84775,-1.54341 0.46626,-0.75079 0.97526,-1.64289 1.1311,-1.98244 0.97546,-2.12537 1.37254,-3.01609 1.37254,-3.07892 0,-0.60511 2.70427,-5.08346 3.50997,-5.81261 1.07506,-0.97291 -0.24474,-0.54397 -2.07317,0.67379 -1.18813,0.79131 -3.23456,2.7845 -4.18138,4.0726 -0.28524,0.38805 -0.59799,0.79066 -0.69501,0.89467 -0.097,0.10401 -0.37482,0.4805 -0.61736,0.83664 -0.24253,0.35614 -0.5005,0.64807 -0.57326,0.64873 -0.0728,7.1e-4 -0.13229,0.10124 -0.13229,0.2235 0,0.12226 -0.1786,0.41991 -0.39688,0.66146 -0.21828,0.24154 -1.10495,1.43135 -1.97038,2.64403 -0.86542,1.21267 -1.86718,2.56204 -2.22612,2.99861 -0.76475,0.93012 -2.63857,3.77463 -2.63857,4.00542 0,0.32164 -1.18867,1.44435 -1.65243,1.56075 -0.60181,0.15105 -0.98027,-0.1711 -1.51893,-1.29293 -0.97402,-2.02854 -1.91097,-3.68492 -2.38119,-4.2096 -0.099,-0.11052 -0.33389,-0.4132 -0.52187,-0.67263 -0.18797,-0.25943 -0.49449,-0.64526 -0.68115,-0.85739 -2.13766,-2.42948 -2.70292,-3.617 -3.12226,-6.55932 -0.44965,-3.15497 -0.60979,-3.69244 -1.53471,-5.1509 -0.32005,-0.50466 -0.5819,-0.99171 -0.5819,-1.08234 0,-0.27728 -2.77786,-2.76166 -3.54684,-3.17211 -0.39762,-0.21224 -1.05208,-0.43165 -1.45437,-0.48757 -1.20276,-0.16721 -1.70157,-0.42127 -1.70157,-0.86666 0,-1.00824 1.11734,-2.65017 2.1561,-3.16837 0.93594,-0.46691 2.74939,-0.31196 4.30875,0.36817 0.3057,0.13333 0.60772,0.24242 0.67114,0.24242 0.27043,0 2.18295,1.43957 2.8484,2.14402 0.71814,0.76022 2.36283,2.99993 2.36283,3.21765 0,0.0624 0.20442,0.43722 0.45427,0.83301 1.32438,2.09794 2.54582,4.57315 3.16666,6.41713 0.29381,0.87263 0.45519,1.30183 0.7793,2.07257 0.0918,0.21828 0.30417,0.85151 0.47194,1.40718 l 0.30506,1.0103 0.80687,-1.58178 c 0.44378,-0.86999 0.94578,-1.74225 1.11555,-1.93837 0.16978,-0.19611 0.30868,-0.39917 0.30868,-0.45123 0,-0.0521 0.27782,-0.52894 0.61737,-1.05974 0.33954,-0.5308 0.61736,-1.01091 0.61736,-1.06691 0,-0.056 0.43806,-0.77386 0.97347,-1.59525 0.86925,-1.33356 1.0775,-1.53945 1.9453,-1.92323 0.53451,-0.23639 1.12364,-0.42979 1.30918,-0.42979 0.18553,0 0.38639,-0.0794 0.44635,-0.17639 0.06,-0.097 0.26416,-0.17639 0.45378,-0.17639 0.18962,0 0.48259,-0.0723 0.65105,-0.16075 0.16845,-0.0884 0.70316,-0.29925 1.18823,-0.46853 1.90688,-0.66545 3.4403,-1.98638 3.6932,-3.18142 0.1915,-0.90484 -0.38209,-1.13086 -3.99777,-1.57526 -0.45856,-0.0564 -0.87996,-0.17727 -0.93645,-0.26868 -0.0565,-0.0914 -0.25679,-0.16619 -0.44509,-0.16619 -0.1883,0 -0.34236,-0.0616 -0.34236,-0.13686 0,-0.0753 -0.35644,-0.29355 -0.79208,-0.48507 -0.43565,-0.19152 -0.79284,-0.40774 -0.79375,-0.4805 -8.9e-4,-0.0728 -0.12074,-0.1323 -0.26626,-0.1323 -0.14552,0 -0.26458,-0.0794 -0.26458,-0.17638 0,-0.097 -0.0791,-0.17639 -0.17589,-0.17639 -0.21186,0 -2.27316,-1.49682 -2.64633,-1.92163 -0.76697,-0.87311 -1.23366,-2.6647 -1.23765,-4.7513 -0.003,-1.4516 0.035,-1.60401 0.74519,-3.00511 0.41147,-0.81178 0.86919,-1.51351 1.01717,-1.5594 0.58542,-0.18157 2.1563,-0.92361 3.2545,-1.53734 0.5718,-0.31956 1.182,-0.84679 2.31217,-1.99779 0.64859,-0.66056 1.23134,-1.10243 1.45388,-1.10243 0.20428,0 0.42047,-0.0794 0.48043,-0.17639 0.06,-0.097 0.64123,-0.17639 1.29172,-0.17639 1.27126,0 2.99408,0.50918 3.24601,0.95935 0.0794,0.14188 0.26167,0.37527 0.40505,0.51865 0.4458,0.44579 0.23805,1.66196 -0.35667,2.08792 -0.11022,0.0789 -0.16086,1.50157 -0.135,3.79236 0.0528,4.67864 0.38247,6.35858 1.58059,8.05462 0.66567,0.94232 1.69586,1.52043 2.70941,1.52043 1.17667,0 1.68567,-0.42176 2.11751,-1.75456 0.88434,-2.72941 1.33687,-4.47354 1.85593,-7.15308 0.33795,-1.74455 0.75472,-5.31413 0.68991,-5.90898 -0.0264,-0.24256 -0.10112,-0.95695 -0.166,-1.58754 -0.0649,-0.63059 -0.18802,-1.46403 -0.27367,-1.85209 -0.0857,-0.38805 -0.28731,-1.34055 -0.44812,-2.11666 -0.16082,-0.77612 -0.35531,-1.56987 -0.4322,-1.76389 -0.31271,-0.78914 -0.70739,-2.27085 -0.70739,-2.65568 0,-0.22567 -0.0702,-0.45371 -0.15605,-0.50675 -0.0858,-0.0531 -0.19627,-0.3157 -0.24543,-0.58368 -0.0916,-0.49918 -0.84501,-3.51007 -1.37988,-5.51431 -0.18111,-0.67865 -0.50054,-3.15244 -0.63624,-4.9274 -0.0477,-0.62427 0.005,-1.4577 0.1178,-1.85208 0.83713,-2.93413 0.71122,-2.61534 2.652,-6.71427 0.50528,-1.06715 1.10224,-2.33715 1.32658,-2.82222 0.22434,-0.48507 0.69245,-1.49485 1.04025,-2.24394 0.3478,-0.7491 0.63236,-1.40177 0.63236,-1.45039 0,-0.0486 0.18989,-0.50728 0.42197,-1.01925 0.66828,-1.47424 0.98914,-2.40337 0.98914,-2.8643 0,-0.23485 0.0688,-0.46955 0.153,-0.52155 0.0841,-0.052 0.20145,-0.43372 0.26069,-0.84826 0.0592,-0.41454 0.23337,-1.30933 0.38698,-1.98842 0.15361,-0.6791 0.34893,-1.90941 0.43405,-2.73403 0.0851,-0.82462 0.25513,-2.41212 0.37781,-3.52778 0.24019,-2.18424 0.24338,-2.50979 0.0565,-5.750601 -0.15759,-2.732303 0.10765,-4.9637 0.64259,-5.405997 0.20533,-0.169774 0.51623,-0.308681 0.69089,-0.308681 0.46778,0 1.13754,0.89241 1.47628,1.967042 0.16354,0.518856 0.36493,1.102125 0.44752,1.296153 0.56162,1.319452 0.99913,4.639424 1.18548,8.995834 0.23902,5.58771 0.0355,14.79151 -0.38522,17.41606 -0.28391,1.77133 -0.57304,2.42724 -1.29728,2.94295 -0.90845,0.64687 -1.771,0.42877 -2.94278,-0.7441 -0.5609,-0.56143 -0.63965,-0.49838 -0.96593,0.77328 -0.53731,2.09416 -0.73663,4.01946 -0.82016,7.92223 -0.0731,3.41508 -0.0347,4.47133 0.21772,5.99722 0.16854,1.01865 0.37498,1.92749 0.45875,2.01965 0.0838,0.0922 0.15231,0.35013 0.15231,0.57327 0,0.63428 0.32263,0.47975 0.84463,-0.40454 1.46363,-2.47946 2.3312,-3.59931 4.2355,-5.46718 1.31565,-1.29049 2.54418,-1.97298 3.82179,-2.12313 1.43293,-0.16842 1.42951,-0.17258 2.55389,3.10887 0.0831,0.24254 0.38392,0.95691 0.66848,1.5875 1.27573,2.82706 1.19138,4.23529 -0.48073,8.0257 -0.17118,0.38805 -0.41139,1.02305 -0.53379,1.41111 -0.1224,0.38806 -0.28277,0.86431 -0.35639,1.05833 -0.43963,1.15871 -0.67357,3.16786 -0.87285,7.49653 -0.0916,1.98879 -0.24404,3.8541 -0.33885,4.14514 -0.0948,0.29104 -0.31228,1.0451 -0.48326,1.67569 -0.76283,2.81327 -1.63503,4.3275 -3.20805,5.56953 -1.41945,1.12076 -4.45086,2.54436 -5.41796,2.54436 -0.14344,0 -0.39864,0.0698 -0.5671,0.15509 -0.16845,0.0853 -0.74284,0.29523 -1.27642,0.4665 -0.53358,0.17128 -1.10313,0.42594 -1.26568,0.56591 -0.31803,0.27388 -1.20377,1.9781 -1.20377,2.31616 0,0.11291 -0.0716,0.34313 -0.15919,0.51158 -0.34488,0.66352 -0.71094,2.49727 -1.08229,5.42157 -0.36572,2.87991 -1.04381,6.97823 -1.66353,10.05417 -0.15636,0.77611 -0.35499,1.80798 -0.44139,2.29305 -0.42691,2.39685 -1.12216,5.4244 -1.41772,6.17361 -0.0765,0.19403 -0.2376,0.63059 -0.35792,0.97014 -0.51494,1.4532 -2.10608,4.3994 -2.72182,5.0398 -0.10001,0.10402 -0.38027,0.48052 -0.6228,0.83665 -0.24254,0.35615 -0.50051,0.64807 -0.57327,0.64874 -0.0728,0 -0.13229,0.10123 -0.13229,0.22348 0,0.12226 -0.17859,0.41992 -0.39687,0.66146 -0.21828,0.24155 -0.63366,0.75668 -0.92306,1.14473 -0.56429,0.75664 -0.64222,0.85565 -1.53554,1.95085 -0.32126,0.39387 -0.82224,1.02076 -1.11328,1.39311 -0.49484,0.63306 -1.31997,1.65679 -1.99923,2.48035 -0.1616,0.19595 -0.52775,0.6722 -0.81367,1.05833 -0.28591,0.38615 -0.56743,0.74177 -0.6256,0.79028 -0.0582,0.0485 -0.61428,0.80257 -1.2358,1.67569 -0.62153,0.87313 -1.17441,1.62719 -1.22863,1.6757 -0.23631,0.2114 -3.42539,5.12436 -4.04348,6.22921 -0.17284,0.30896 -0.53859,0.95863 -0.81277,1.4437 -0.27418,0.48507 -0.61837,1.12007 -0.76487,1.41111 -0.1465,0.29105 -0.31227,0.56886 -0.36838,0.61737 -0.091,0.0787 -0.39902,0.61027 -0.97097,1.67569 -0.10415,0.19403 -0.23097,0.39247 -0.28182,0.44097 -0.0923,0.088 -0.79466,1.40459 -1.45531,2.7278 -1.84989,3.70518 -8.33181,8.37093 -10.77683,7.75727 -0.76329,-0.19158 -0.62467,-0.92433 0.35819,-1.89334 1.69212,-1.66825 1.75329,-3.77292 0.19408,-6.67738 -0.53887,-1.00379 -2.54025,-3.14907 -2.93785,-3.14907 -0.10708,0 -0.19492,-0.0595 -0.1952,-0.13229 -3.6e-4,-0.0728 -0.24272,-0.29104 -0.53875,-0.48507 -0.29603,-0.19403 -0.85143,-0.81823 -1.23421,-1.38712 -0.76878,-1.14253 -0.91852,-2.17523 -0.44593,-3.07547 0.28395,-0.54089 1.26687,-1.50248 2.30759,-2.25749 0.38806,-0.28152 0.8051,-0.63093 0.92676,-0.77645 0.62542,-0.74805 1.09545,-2.4814 1.23165,-4.54201 0.13305,-2.01304 -0.16206,-1.95372 -0.92311,0.18552 -0.26653,0.7492 -0.96644,1.93353 -1.69563,2.86918 -0.13487,0.17307 -0.70312,0.78124 -1.26277,1.35149 -0.98382,1.00246 -1.04475,1.03505 -1.838,0.98319 -0.71107,-0.0465 -0.86149,-0.12733 -1.12831,-0.6066 -0.16932,-0.30414 -0.40049,-1.17727 -0.51372,-1.94028 -0.26292,-1.77172 -0.48331,-2.21749 -1.19763,-2.42236 -0.31495,-0.0903 -0.60527,-0.13159 -0.64516,-0.0917 -0.0399,0.0399 -0.12028,0.58754 -0.17865,1.217 -0.0584,0.62946 -0.18879,1.46198 -0.28983,1.85003 -0.10105,0.38806 -0.2532,1.08614 -0.33813,1.55129 -0.0849,0.46516 -0.20512,1.00556 -0.26711,1.20087 -0.15767,0.49679 0.24596,2.0619 0.73034,2.83195 0.36121,0.57425 1.07802,1.22077 2.8808,2.59838 0.72472,0.55381 2.65642,2.52536 2.65642,2.71122 0,0.0799 0.14879,0.30507 0.33065,0.50028 0.18186,0.19519 0.63416,0.96578 1.0051,1.7124 0.62537,1.25872 0.67465,1.46963 0.67728,2.89838 0.002,0.9769 -0.0756,1.61929 -0.21135,1.75507 -0.1178,0.11781 -0.21418,0.35707 -0.21418,0.53169 0,0.17463 -0.0794,0.3175 -0.17639,0.3175 -0.097,0 -0.17639,0.1024 -0.17639,0.22754 0,0.38 -1.27217,1.63807 -2.13758,2.11388 -0.44806,0.24637 -1.12275,0.47516 -1.4993,0.50846 -0.60656,0.0536 -0.69138,0.0129 -0.74368,-0.35667 -0.0325,-0.22949 0.0271,-0.50333 0.13229,-0.60855 0.10523,-0.10523 0.19132,-0.80045 0.19132,-1.54493 0,-1.57009 -0.38045,-2.43034 -1.64518,-3.71999 -1.63958,-1.67189 -4.81956,-3.9896 -5.14245,-3.74805 -0.11833,0.0885 -0.5626,0.39163 -0.98726,0.67359 -0.42466,0.28196 -0.879286,0.61981 -1.010276,0.75082 -0.13099,0.13098 -0.39701,0.32316 -0.591147,0.42707 -1.112353,0.59531 -2.833529,2.32985 -3.411876,3.43838 -0.456828,0.8756 -0.526675,1.19216 -0.510936,2.31565 0.01002,0.71579 0.123517,1.49815 0.2522,1.73858 0.276253,0.51619 0.09396,0.73842 -0.535014,0.65222 z m 5.379855,-39.34589 c -0.825406,-0.43505 -3.615967,-3.06142 -3.615967,-3.4032 0,-0.0853 -0.135039,-0.31287 -0.30009,-0.50563 -0.351398,-0.41041 -1.321024,-2.13002 -2.384892,-4.22956 -0.415031,-0.81907 -1.118592,-1.88581 -1.563471,-2.37055 l -0.808868,-0.88134 -1.555009,0.0378 c -1.73001,0.042 -2.628113,-0.20391 -3.971002,-1.08741 -1.185595,-0.78002 -1.910802,-1.52283 -2.033893,-2.08326 -0.06045,-0.27524 -0.183183,-0.54572 -0.272734,-0.60107 -0.08955,-0.0553 -0.162818,-0.9668 -0.162818,-2.02546 0,-2.31858 0.225459,-2.93103 2.108181,-5.72683 0.683764,-1.01538 1.243208,-1.88813 1.243208,-1.93945 0,-0.13672 1.77845,-2.9518 2.008766,-3.17965 0.107853,-0.10669 0.449381,-0.31975 0.758954,-0.47346 0.516655,-0.25653 0.583718,-0.25567 0.816984,0.0105 0.139768,0.15949 0.30819,0.48841 0.374269,0.73095 0.249763,0.91672 1.178242,2.89089 1.949511,4.14514 0.298283,0.48507 0.771862,1.34749 1.052401,1.9165 0.500791,1.01573 1.599458,2.22991 3.971825,4.3894 0.612819,0.55783 1.215259,1.01424 1.338759,1.01424 0.12349,0 0.757186,-0.35719 1.408216,-0.79375 0.65103,-0.43657 1.21816,-0.79375 1.2603,-0.79375 0.0736,0 1.28238,0.87316 1.46418,1.05761 0.0485,0.0492 0.29566,0.1962 0.54924,0.32663 0.65857,0.33876 1.1294,0.0446 3.25146,-2.03159 1.40398,-1.37361 1.96858,-2.0821 2.71712,-3.4096 0.51968,-0.92163 1.1048,-1.95351 1.30025,-2.29305 0.41974,-0.72916 0.83987,-1.5837 1.25745,-2.55764 0.86538,-2.01834 0.77646,-1.89666 1.29292,-1.76903 0.68447,0.16915 1.33961,0.85555 2.18232,2.28642 1.13293,1.92365 2.14468,3.50582 2.47539,3.87102 0.16509,0.1823 0.6001,0.93637 0.96668,1.67569 0.61558,1.24147 0.67181,1.48316 0.73567,3.16166 0.0816,2.14355 -0.17219,3.01799 -1.17733,4.05711 -1.50191,1.55269 -2.94175,2.14875 -5.2105,2.15702 -1.76,0.006 -1.92331,0.0784 -2.78777,1.22886 -0.25514,0.33955 -0.79135,1.2696 -1.19156,2.06679 -0.40021,0.79718 -1.08243,1.97848 -1.51603,2.62509 -0.4336,0.64662 -0.78837,1.21406 -0.78837,1.26099 0,0.17544 -1.85313,2.44929 -2.49096,3.05649 -0.90933,0.86564 -2.336,1.5773 -3.12566,1.55912 -0.35485,-0.008 -1.04206,-0.22404 -1.52713,-0.47971 z m 0.9173,-20.71621 c -0.31049,-0.31529 -0.71514,-0.85107 -0.89923,-1.19062 -0.851276,-1.57017 -3.389899,-5.14446 -4.42618,-6.23191 -0.631474,-0.66265 -1.148134,-1.27132 -1.148134,-1.35258 0,-0.44471 0.315886,-0.78734 1.040975,-1.12909 1.280426,-0.60349 1.992282,-1.14296 2.745971,-2.081 0.999862,-1.24443 1.151942,-1.72134 1.151942,-3.61232 0,-2.21981 -0.31223,-3.14454 -1.413945,-4.18764 -0.469509,-0.44453 -0.923183,-0.80824 -1.008167,-0.80824 -0.219646,0 -1.282054,-1.12456 -1.282054,-1.35705 0,-0.10655 0.734219,-0.71667 1.631597,-1.35582 2.204999,-1.57048 2.954505,-2.80036 2.954505,-4.84808 0,-1.46556 -0.44345,-2.39202 -1.318206,-2.75396 -2.000355,-0.82767 -2.033174,-0.84765 -2.033174,-1.23801 0,-0.51073 1.027569,-1.32347 1.673301,-1.32347 0.146836,0 0.266973,-0.0794 0.266973,-0.17639 0,-0.097 0.1133,-0.17638 0.25178,-0.17638 0.13847,0 0.45597,-0.43165 0.705546,-0.95922 0.38939,-0.8231 0.45378,-1.19966 0.45378,-2.65368 0,-1.5021 -0.29696,-3.3846 -0.696106,-4.4128 -0.0753,-0.19403 -0.23646,-0.67028 -0.35808,-1.05833 -0.61927,-1.97589 -1.399489,-3.11437 -2.878461,-4.20019 -1.605877,-1.17899 -1.677442,-1.51089 -0.494561,-2.29369 0.844081,-0.55858 2.47759,-2.14357 3.030472,-2.94045 0.942576,-1.35856 0.924176,-1.24788 0.997206,-5.9997 0.0662,-4.31041 -0.0595,-6.42606 -0.461196,-7.76111 -0.10217,-0.33955 -0.3573,-1.29205 -0.56695,-2.11667 -0.550404,-2.16488 -0.782387,-2.69178 -2.019169,-4.58611 -0.411706,-0.63059 -0.947212,-1.5434 -1.190015,-2.02847 -0.242803,-0.48507 -0.989116,-1.95351 -1.658475,-3.2632 -0.669359,-1.30968 -1.324578,-2.65906 -1.456044,-2.99861 -0.255419,-0.65969 -0.516432,-1.30154 -0.932477,-2.293054 -0.142476,-0.339549 -0.358341,-0.895174 -0.479698,-1.234722 -0.121357,-0.339549 -0.284076,-0.776111 -0.361596,-0.970139 -0.138973,-0.347846 -0.574997,-1.882475 -0.877032,-3.086806 -0.230046,-0.917284 -0.511979,-2.452211 -0.615581,-3.351389 -0.0503,-0.436562 -0.151721,-1.309687 -0.225383,-1.940277 -0.07366,-0.630591 -0.131407,-4.281841 -0.128328,-8.113889 0.0056,-6.965134 0.1077,-8.497805 0.775524,-11.641667 0.09274,-0.436562 0.253593,-1.190625 0.357463,-1.675694 0.187743,-0.876768 0.692116,-2.627967 1.193865,-4.145139 0.289867,-0.876494 0.414674,-1.20354 0.807759,-2.116667 0.14617,-0.339548 0.477738,-1.125262 0.73682,-1.746029 0.454766,-1.089636 1.996428,-4.070899 2.198363,-4.251193 0.05433,-0.04851 0.210719,-0.305419 0.347534,-0.570914 0.361701,-0.701901 1.789994,-2.15664 2.455144,-2.500602 0.400609,-0.207164 0.902633,-0.280589 1.668326,-0.244006 l 1.095266,0.05233 -0.0564,0.521133 c -0.031,0.286625 -0.45633,1.358188 -0.945106,2.38125 -1.562779,3.271064 -1.7954,4.083177 -2.351697,8.210116 -0.156925,1.164167 -0.355205,2.354792 -0.440622,2.645834 -0.08542,0.291041 -0.253391,1.112973 -0.373276,1.826514 -0.284515,1.693398 0.01838,6.981689 0.461146,8.051264 0.602187,1.454679 0.707676,1.675694 0.799799,1.675694 0.05197,0 0.250879,0.407367 0.442011,0.905258 0.25346,0.660259 0.798189,1.374124 2.012735,2.637684 l 1.66524,1.732425 1.48587,-1.533453 c 1.0476,-1.081141 1.64467,-1.872165 2.02421,-2.68178 0.29608,-0.631581 0.58683,-1.188016 0.64612,-1.236523 0.0593,-0.04851 0.25265,-0.445382 0.42971,-0.881944 0.17706,-0.436563 0.39315,-0.931579 0.4802,-1.100037 0.0871,-0.168459 0.15828,-0.95743 0.15828,-1.753272 0,-0.795841 0.0886,-1.888325 0.19694,-2.427739 0.22231,-1.107167 -0.096,-4.183255 -0.63071,-6.096036 -0.16273,-0.582083 -0.36508,-1.73302 -0.44964,-2.557639 -0.14903,-1.453095 -0.22515,-1.873526 -0.75408,-4.164785 -0.13687,-0.592887 -0.77692,-2.125549 -1.42235,-3.405912 -0.64542,-1.280365 -1.17349,-2.442305 -1.17349,-2.58209 0,-0.19323 0.25539,-0.254157 1.06536,-0.254157 2.4794,0 3.51828,1.266758 6.87122,8.378472 0.96483,2.046454 0.99279,2.114868 1.33336,3.263195 0.15825,0.533576 0.35216,1.168576 0.43092,1.411111 0.23616,0.727271 0.83967,3.365689 1.21042,5.291666 0.62423,3.242808 0.74409,4.594268 0.79784,8.995834 0.1107,9.065921 -0.79268,15.733234 -2.71282,20.021491 -0.21686,0.484326 -0.51442,1.158403 -0.66124,1.497953 -0.4192,0.96949 -2.65707,5.63772 -3.17092,6.61458 -0.25515,0.48507 -0.54912,1.05992 -0.65326,1.27745 -0.10415,0.21752 -0.24888,0.39612 -0.32164,0.39687 -0.0728,7.1e-4 -0.1323,0.0806 -0.1323,0.17736 0,0.0968 -0.26734,0.55319 -0.5941,1.01424 -0.82386,1.16244 -1.52256,2.46608 -1.52256,2.84081 0,0.32299 -0.50381,2.25447 -0.99596,3.81827 -0.21335,0.67792 -0.29741,2.00006 -0.36336,5.71517 -0.10987,6.18996 -0.0857,6.37599 1.0482,8.05436 0.96476,1.42805 1.75517,2.18582 3.05692,2.9307 0.36473,0.2087 0.5337,0.45591 0.57266,0.83784 0.032,0.31412 -0.0274,0.54179 -0.14154,0.54179 -0.32797,0 -3.06861,2.86667 -3.37268,3.52778 -0.51207,1.11333 -0.65842,1.49331 -0.74732,1.94028 -0.0482,0.24253 -0.21892,0.91722 -0.3793,1.49931 -0.68166,2.47404 -0.74209,5.32036 -0.13296,6.2618 0.44927,0.69437 0.6888,0.88269 1.8192,1.43026 1.68105,0.81431 1.64187,1.33229 -0.15513,2.05126 -1.6288,0.65168 -2.02726,1.2498 -2.03149,3.04945 -0.006,2.35549 0.65911,3.30185 4.02927,5.73708 l 0.5007,0.36181 -0.3333,0.56424 c -0.18332,0.31033 -0.3806,0.56423 -0.43841,0.56423 -0.0578,0 -0.25897,0.14107 -0.44704,0.31348 -0.18806,0.17241 -0.59507,0.49187 -0.90445,0.70991 -0.31806,0.22416 -0.7646,0.82361 -1.02754,1.37941 -0.41095,0.86869 -0.46602,1.20554 -0.47367,2.89721 -0.008,1.77456 0.0265,1.97416 0.47274,2.73566 0.69014,1.17763 1.64373,2.09593 2.79882,2.69522 0.55276,0.28679 1.12228,0.61876 1.2656,0.73771 0.45039,0.37379 0.29189,0.95312 -0.45981,1.68068 -0.76584,0.74124 -2.20913,2.5346 -2.60348,3.23496 -0.13039,0.23157 -0.37665,0.66814 -0.54726,0.97014 -0.1706,0.302 -0.75679,1.1841 -1.30262,1.96021 -0.54584,0.77611 -1.11687,1.5897 -1.26896,1.80798 -0.36667,0.52625 -0.52609,0.50272 -1.19484,-0.17639 z M 75.687228,169.60951 c -0.372197,-0.44397 -0.895045,-1.05913 -1.161886,-1.36701 -1.038985,-1.19877 -1.262354,-1.94869 -1.338282,-4.49302 -0.05551,-1.86021 -0.01118,-2.49914 0.214141,-3.08681 0.311142,-0.81147 1.005782,-1.7112 1.321148,-1.7112 0.10998,0 0.199963,-0.06 0.199963,-0.13333 0,-0.17169 0.71792,-0.48502 1.940278,-0.84681 0.533576,-0.15792 1.107967,-0.35918 1.276426,-0.44724 0.168458,-0.0881 0.390301,-0.16012 0.492982,-0.16012 0.256847,0 3.498754,-1.58225 5.398216,-2.63466 2.466876,-1.36679 3.510193,-1.63489 6.002907,-1.54257 2.182265,0.0808 3.233635,0.23728 3.233635,0.4812 0,0.0795 0.151472,0.19256 0.336606,0.25132 0.185133,0.0588 0.451316,0.39443 0.591519,0.74594 0.516586,1.29518 -0.26407,2.71855 -2.892805,5.27445 -2.626215,2.55345 -3.845886,3.56046 -5.002681,4.1304 -0.291042,0.1434 -0.568854,0.30053 -0.617361,0.3492 -0.04851,0.0487 -0.921632,0.51658 -1.940278,1.03983 -1.908771,0.98047 -5.291666,3.11323 -5.291666,3.33615 0,0.27321 -1.470874,1.62152 -1.768925,1.62152 -0.17447,0 -0.621741,-0.36326 -0.993937,-0.80724 z m 50.049562,-0.4084 c -1.48212,-1.55185 -2.76198,-2.39375 -7.02433,-4.62063 -0.89649,-0.46838 -1.92837,-1.05359 -2.29306,-1.30048 -0.89099,-0.60318 -4.63222,-4.09322 -5.17134,-4.82413 -0.23684,-0.32109 -0.53682,-0.69944 -0.66662,-0.84077 -0.41588,-0.45282 -1.08691,-1.84424 -1.08691,-2.25377 0,-1.51615 1.52299,-2.23069 4.75456,-2.23069 2.69768,0 3.32663,0.17697 5.65238,1.59048 2.34417,1.4247 4.81326,2.54154 7.57695,3.42726 1.85112,0.59326 2.32707,0.92646 2.84393,1.99098 0.3605,0.74248 0.40923,1.10819 0.41758,3.13364 0.0104,2.5244 -0.18118,3.41763 -0.98369,4.58611 -0.78291,1.13994 -2.18903,2.55764 -2.53674,2.55764 -0.17694,0 -0.84416,-0.54704 -1.48271,-1.21564 z M 71.381046,155.71622 c -1.262773,-0.51949 -2.112373,-1.30044 -2.673456,-2.45743 -0.6099,-1.25766 -1.019626,-3.18945 -0.91665,-4.32185 l 0.08461,-0.93051 -0.489466,0.11748 c -0.600037,0.14402 -3.055814,1.74745 -4.017247,2.62294 -0.388055,0.35336 -0.92075,0.7569 -1.183767,0.89676 -1.352244,0.71902 -5.793611,1.05409 -7.044453,0.53145 -0.75324,-0.31472 -1.060751,-0.65718 -1.655484,-1.8436 -0.671459,-1.33949 -0.910718,-3.07651 -0.640672,-4.6513 0.225553,-1.31533 1.154879,-3.41255 1.901684,-4.29155 1.694366,-1.99429 2.263141,-2.53234 3.578665,-3.38532 2.300387,-1.49156 3.536742,-2.89859 4.157144,-4.73103 0.407642,-1.20402 0.877313,-1.66107 1.706963,-1.66107 0.676702,0 2.708322,0.81958 3.1659,1.27715 0.136165,0.13617 0.623677,0.39121 1.083359,0.56677 0.677386,0.25869 0.886298,0.27726 1.10232,0.098 0.302662,-0.25119 0.35436,-0.80846 0.09015,-0.97176 -0.09701,-0.0599 -0.176389,-0.25575 -0.176389,-0.4351 0,-0.61517 -0.900928,-2.0346 -1.683061,-2.6517 -1.630071,-1.28612 -2.487194,-1.65257 -3.856245,-1.64867 -0.688416,0.002 -1.903268,0.10968 -2.699669,0.23937 -1.218718,0.19846 -1.567847,0.19749 -2.204861,-0.006 -1.095398,-0.35016 -1.436014,-0.60915 -1.869713,-1.42168 -0.433938,-0.81296 -0.5383,-2.71484 -0.186142,-3.39218 0.673654,-1.29573 2.309617,-1.80021 4.914969,-1.51565 2.311779,0.2525 3.916724,0.9568 5.313551,2.33177 0.889238,0.87532 2.44756,3.07805 2.44756,3.45969 0,0.10428 0.07937,0.1896 0.176389,0.1896 0.09701,0 0.176388,0.081 0.176388,0.18005 0,0.18699 1.781061,3.89794 1.945365,4.05328 0.14982,0.14165 1.057568,2.88331 1.055307,3.18733 -0.0011,0.1523 0.216221,0.50949 0.483009,0.79375 0.504945,0.53802 2.605073,2.01615 2.864541,2.01615 0.08182,0 0.175227,0.0658 0.207566,0.14615 0.0586,0.14567 2.196426,1.44135 2.37817,1.44135 0.05259,0 0.306303,0.14808 0.563813,0.32907 0.25751,0.18099 1.247189,0.7411 2.199285,1.24467 1.629807,0.86204 1.767225,0.90368 2.348795,0.71174 0.634955,-0.20955 1.829149,-1.26181 1.829149,-1.61174 0,-0.1614 1.055744,-1.59118 1.409204,-1.90847 0.05404,-0.0485 0.243009,-0.31541 0.419936,-0.59312 0.311566,-0.48905 0.311438,-0.52402 -0.0041,-1.11162 -0.179169,-0.33367 -0.954407,-1.17802 -1.722752,-1.87632 -1.635386,-1.4863 -4.370329,-4.07156 -6.288073,-5.94394 -0.745234,-0.7276 -1.662525,-1.59167 -2.038426,-1.92015 -0.874897,-0.76453 -1.392847,-1.53461 -1.555831,-2.31318 -0.07108,-0.33955 -0.187559,-1.84767 -0.258843,-3.35139 -0.139847,-2.95008 -0.382069,-4.39758 -0.944535,-5.64444 -0.553347,-1.22666 -0.602934,-2.32014 -0.139232,-3.07043 0.450128,-0.72832 1.892185,-2.04485 2.239821,-2.04485 0.131863,0 0.55725,-0.3175 0.945305,-0.70556 0.683442,-0.68344 0.892203,-1.27493 0.529167,-1.4993 -0.09701,-0.06 -0.176389,-0.25226 -0.176389,-0.42733 0,-0.39115 -0.736953,-1.14976 -1.477426,-1.52085 -0.620252,-0.31084 -2.500094,-0.53552 -3.138973,-0.37517 -1.047164,0.26282 -2.415231,1.88539 -3.695313,4.38275 -0.314503,0.61358 -0.795528,1.4474 -1.068943,1.85293 -0.273417,0.40554 -0.497122,0.80719 -0.497122,0.89256 0,0.32456 -1.099755,1.26159 -1.612973,1.37431 -1.090385,0.23949 -2.198927,-0.10668 -4.648833,-1.45172 -0.194028,-0.10652 -0.78934,-0.41108 -1.322916,-0.6768 -0.533577,-0.26572 -1.644827,-0.81945 -2.469445,-1.23053 -0.824618,-0.41108 -1.816805,-0.89303 -2.204861,-1.07101 -0.388055,-0.17798 -0.983368,-0.58283 -1.322916,-0.89966 -0.603227,-0.56287 -0.617361,-0.60745 -0.617361,-1.94749 0,-1.09812 0.133381,-1.79328 0.669268,-3.4881 0.368098,-1.16417 0.74231,-2.3548 0.831586,-2.64584 0.131367,-0.42827 0.423483,-2.975952 0.424714,-3.704166 0.0018,-1.009222 -0.302838,-2.641207 -0.587433,-3.147905 -0.195076,-0.347315 -0.838715,-1.207961 -1.430309,-1.912544 -1.771262,-2.10956 -2.017385,-2.869505 -2.018459,-6.232328 -8.82e-4,-2.600362 0.05422,-2.978166 0.744811,-5.11139 0.313373,-0.967999 1.429129,-3.140371 1.66092,-3.233796 0.08023,-0.03234 0.145874,-0.171245 0.145874,-0.30868 0,-0.137437 0.07403,-0.249885 0.164502,-0.249885 0.09048,0 0.210448,-0.144757 0.266601,-0.321682 0.05615,-0.176927 0.240097,-0.474583 0.408762,-0.661459 0.168665,-0.186877 0.915444,-1.093838 1.659512,-2.01547 0.744067,-0.921632 1.549561,-1.846721 1.789986,-2.055753 0.806704,-0.701369 2.459078,-1.269525 2.869461,-0.986643 0.583803,0.402424 0.550811,0.774082 -0.205,2.30932 -0.59044,1.199333 -0.81148,1.916141 -1.030523,3.341876 -0.341457,2.222513 -0.34771,2.971275 -0.0372,4.455333 0.544322,2.60159 1.692596,3.567875 4.256263,3.581691 1.613387,0.0087 1.977263,-0.155425 3.276477,-1.477812 0.956142,-0.9732 1.536049,-1.964357 2.180625,-3.727064 0.260615,-0.712696 0.548287,-1.433638 0.639274,-1.602096 0.09099,-0.168459 0.16543,-0.394587 0.16543,-0.502509 0,-0.651309 2.079023,-4.414877 2.817405,-5.100232 0.05226,-0.04851 0.331351,-0.405694 0.620202,-0.79375 0.808985,-1.086824 1.014467,-1.337403 1.653145,-2.015972 0.996105,-1.058315 2.49397,-3.441858 2.49397,-3.968637 0,-0.317725 -0.310274,-0.421334 -1.68287,-0.561961 -0.632099,-0.06476 -1.19141,-0.185931 -1.242916,-0.269268 -0.05151,-0.08334 -0.204789,-0.151523 -0.34063,-0.151523 -0.833605,0 -2.554417,-1.64677 -2.554417,-2.444507 0,-0.291355 0.80887,-1.141985 1.868741,-1.965215 0.685121,-0.532151 5.134433,-3.351389 5.289153,-3.351389 0.04458,0 0.416826,-0.213514 0.827207,-0.474474 1.854643,-1.179362 6.07163,-3.406082 6.450478,-3.406082 0.07614,0 0.46213,-0.156391 0.857756,-0.347537 1.169942,-0.565254 3.722435,-1.12589 4.364128,-0.958548 0.507523,0.132355 1.025234,0.885802 0.89361,1.300511 -0.05942,0.187214 -0.349541,0.598924 -0.644715,0.914908 -1.218791,1.304719 -2.209744,3.14802 -3.019711,5.617055 -0.550056,1.676739 -1.188037,4.366505 -1.188037,5.008827 0,0.241126 -0.07061,0.482045 -0.1569,0.535378 -0.199716,0.123431 -0.381681,1.234609 -1.085165,6.626628 -0.308822,2.367037 -0.358244,2.71186 -0.632035,4.409723 -0.148618,0.921632 -0.335225,1.874132 -0.41468,2.116666 -0.07946,0.242535 -0.283072,0.917223 -0.45248,1.499306 -0.475401,1.633479 -1.361254,3.579528 -1.888948,4.149661 -0.169774,0.183427 -0.308681,0.378626 -0.308681,0.433776 0,0.328625 -2.518711,2.870274 -3.615972,3.648902 -1.515905,1.075702 -4.975902,2.734105 -7.143749,3.424052 -0.436563,0.138942 -1.03604,0.330844 -1.332172,0.426447 -0.296134,0.09561 -0.931134,0.257614 -1.411111,0.36002 -0.479979,0.102406 -1.150502,0.258121 -1.490051,0.346033 -0.339548,0.08791 -1.371423,0.325365 -2.293055,0.527678 -1.463231,0.321201 -1.758465,0.450802 -2.328499,1.022163 -0.359043,0.359877 -0.656699,0.751372 -0.661458,0.869987 -0.0048,0.118616 -0.216625,0.674241 -0.470812,1.234722 -0.54969,1.212062 -0.819256,1.862573 -1.116683,2.694753 -0.121357,0.339549 -0.288436,0.776111 -0.371286,0.970139 -0.395007,0.925082 -0.695604,2.370162 -0.69462,3.339312 0.0012,1.17804 0.297062,1.91621 0.992346,2.47586 0.747591,0.60176 2.423418,1.48765 2.831016,1.49656 0.551755,0.0121 1.01434,-0.72147 2.163803,-3.43117 0.205766,-0.48507 0.46552,-1.0407 0.577229,-1.23473 0.111708,-0.19403 0.48137,-0.89898 0.821471,-1.56657 0.491377,-0.96453 0.747236,-1.268965 1.245914,-1.482457 1.044339,-0.447098 3.797478,-0.72578 7.259131,-0.734792 3.650766,-0.0095 3.952774,0.06117 4.907442,1.148479 0.60084,0.68432 2.519346,3.57359 3.265105,4.91725 0.536664,0.96692 2.011642,2.9441 3.091927,4.14465 1.613466,1.79311 2.061702,3.79239 1.8815,8.39215 -0.06077,1.5511 -0.187489,3.41549 -0.281605,4.1431 -0.303981,2.35006 -0.408472,6.36256 -0.207955,7.98563 0.203371,1.64616 0.389606,2.00859 1.768395,3.44144 0.351695,0.36548 0.996631,1.08754 1.433193,1.60457 0.436563,0.51704 0.941047,1.11034 1.121075,1.31845 0.473998,0.54793 0.642814,1.08344 0.642814,2.03909 0,1.06278 -0.383035,1.60658 -2.80601,3.98374 -0.988836,0.97013 -1.912946,1.99436 -2.053576,2.27605 -0.283847,0.56857 -0.341341,1.33992 -0.09987,1.33992 0.0857,0 0.197081,0.15779 0.247514,0.35065 0.08759,0.33493 0.348344,0.48475 1.694886,0.97383 0.96019,0.34875 2.056887,1.33993 2.464223,2.22713 0.342315,0.74558 0.353233,0.86987 0.123956,1.41112 -0.138282,0.32643 -0.398528,0.71258 -0.578323,0.8581 -0.179797,0.14552 -0.454522,0.36624 -0.610503,0.4905 -0.155979,0.12425 -0.841156,0.34216 -1.522615,0.48425 -1.099087,0.22917 -1.401242,0.22757 -2.675488,-0.0141 -1.682512,-0.31917 -2.408945,-0.68851 -3.64551,-1.85346 -0.870444,-0.82004 -2.448192,-1.92937 -2.744045,-1.92937 -0.07802,0 -0.141856,0.56325 -0.141856,1.25167 0,2.90847 -1.123951,4.773 -3.428366,5.68735 -1.86213,0.73886 -2.286861,0.82219 -4.168879,0.8179 -1.508293,-0.003 -2.016691,-0.0771 -2.823187,-0.40884 z m 56.193344,0.20273 c -0.29104,-0.095 -0.80698,-0.25017 -1.14653,-0.34477 -1.27243,-0.35452 -2.04777,-0.76742 -2.68737,-1.43113 -1.08388,-1.12473 -1.5896,-2.49888 -1.60153,-4.35178 l -0.009,-1.38987 -0.42206,0.16047 c -0.63892,0.24291 -1.82067,1.09669 -2.6086,1.88462 -0.99933,0.99932 -1.83988,1.41826 -3.30012,1.64483 -3.91603,0.60759 -6.48019,-0.99647 -5.36854,-3.35841 0.37882,-0.80488 1.64072,-1.85877 2.41108,-2.01363 0.69252,-0.13921 1.63639,-0.85969 1.80886,-1.38074 0.23967,-0.72408 -0.13771,-1.81514 -0.88905,-2.57036 -0.36215,-0.36401 -1.25572,-1.22216 -1.9857,-1.90698 -1.52012,-1.42607 -1.92858,-2.14669 -1.92858,-3.40239 0,-0.79751 0.0941,-1.01481 0.9048,-2.09001 0.49765,-0.65998 1.15249,-1.44536 1.45521,-1.7453 0.30272,-0.29993 0.96037,-1.02011 1.46143,-1.60041 1.15438,-1.3369 1.37523,-2.28376 1.23325,-5.28737 -0.0928,-1.96406 -0.19045,-3.18334 -0.63131,-7.88559 -0.11682,-1.24607 -0.12153,-2.66066 -0.0135,-4.05695 0.14983,-1.93662 0.2577,-2.65782 0.63208,-4.22582 0.0649,-0.272 0.71681,-1.14512 1.44859,-1.94028 1.12252,-1.21974 3.21085,-4.11694 3.21085,-4.45452 0,-0.0559 0.19843,-0.36173 0.44097,-0.67971 0.24253,-0.31798 0.44097,-0.63877 0.44097,-0.71287 0,-0.38119 2.29349,-3.306862 2.90163,-3.701432 0.69481,-0.450809 0.70779,-0.452078 4.62767,-0.452078 2.162,0 4.2694,0.07811 4.6831,0.173579 0.4137,0.09547 0.95533,0.212246 1.20363,0.259505 0.8844,0.168334 1.65222,0.870511 2.32584,2.127026 0.36335,0.67774 0.70742,1.35132 0.76461,1.49684 0.0572,0.14552 0.22719,0.58208 0.37776,0.97014 0.88926,2.29167 1.62467,3.43958 2.20358,3.43958 0.30391,0 1.29695,-0.4523 1.54968,-0.70584 0.0485,-0.0487 0.30349,-0.19938 0.56664,-0.33494 1.45853,-0.75135 2.04617,-2.1283 1.71563,-4.02007 -0.0985,-0.56351 -0.24729,-1.18332 -0.33072,-1.37735 -0.52806,-1.228045 -0.70227,-1.664121 -0.91607,-2.293053 -0.13192,-0.388056 -0.28414,-0.745243 -0.33827,-0.79375 -0.0541,-0.04851 -0.28023,-0.524757 -0.50242,-1.058333 -0.81772,-1.963639 -1.32007,-2.859578 -1.67902,-2.99451 -0.20232,-0.07605 -1.08223,-0.310873 -1.95535,-0.521819 -2.53984,-0.613618 -2.77089,-0.673454 -3.79237,-0.98214 -0.53357,-0.161246 -1.16857,-0.332281 -1.41111,-0.380083 -0.24253,-0.0478 -0.59972,-0.151566 -0.79375,-0.230591 -0.19402,-0.07902 -0.70996,-0.239307 -1.14652,-0.356186 -0.43657,-0.116877 -1.03188,-0.314521 -1.32292,-0.439206 -1.37177,-0.587686 -2.6542,-1.198154 -2.73403,-1.301465 -0.0485,-0.06278 -0.40569,-0.268704 -0.79375,-0.457614 -0.70703,-0.344197 -2.01524,-1.207622 -2.73704,-1.806466 -0.32414,-0.268922 -1.79482,-1.944866 -2.52477,-2.877143 -0.48796,-0.623215 -1.47829,-2.449159 -1.76985,-3.263194 -0.17373,-0.485069 -0.37809,-1.040694 -0.45412,-1.234722 -0.27229,-0.694815 -0.52045,-1.599281 -0.62914,-2.293056 -0.0608,-0.388055 -0.18142,-1.062743 -0.26805,-1.499305 -0.16844,-0.84881 -0.34658,-2.279082 -0.79089,-6.35 -0.15353,-1.406702 -0.35273,-2.835452 -0.44266,-3.175 -0.0899,-0.339549 -0.28968,-1.212674 -0.44387,-1.940278 -0.32268,-1.522658 -0.59279,-2.581915 -0.78714,-3.086806 -0.0747,-0.194027 -0.2752,-0.829027 -0.44558,-1.411111 -0.17038,-0.582083 -0.37803,-1.236927 -0.46146,-1.455208 -0.0834,-0.218281 -0.21623,-0.575469 -0.29514,-0.79375 -0.43055,-1.191105 -1.41308,-2.832941 -2.24841,-3.757168 -0.52167,-0.577187 -0.95097,-1.134812 -0.954,-1.239169 -0.003,-0.104355 0.17819,-0.362324 0.40273,-0.573264 0.50257,-0.472142 1.9087,-0.521358 3.2204,-0.112716 0.4781,0.148946 1.14708,0.35263 1.48663,0.452632 0.87375,0.257333 1.12769,0.366247 2.91042,1.248228 1.47223,0.728371 2.3434,1.214064 4.46895,2.491534 0.45249,0.271949 0.96162,0.539175 1.13139,0.593836 0.16978,0.05466 0.30868,0.169502 0.30868,0.255201 0,0.0857 0.0849,0.155817 0.18874,0.155817 0.48175,0 4.995,3.028973 6.11717,4.105412 0.74281,0.712542 0.72316,1.161403 -0.0882,2.014645 -1.03335,1.0867 -2.11507,1.577312 -3.9336,1.784082 -1.05791,0.120289 -1.13438,0.158325 -1.09187,0.543163 0.0945,0.855495 1.26711,2.896503 2.34194,4.076309 0.30934,0.339548 0.89085,1.004764 1.29225,1.478255 0.4014,0.473491 0.81083,0.949741 0.90983,1.058333 1.10701,1.214233 2.28662,3.471715 3.0065,5.753689 0.16832,0.533577 0.49256,1.389028 0.72053,1.901003 0.22797,0.511974 0.41449,0.970083 0.41449,1.018018 0,0.122765 0.90026,1.488671 1.32292,2.007186 1.18167,1.449659 2.01484,1.859918 3.74628,1.84471 1.54678,-0.01358 2.91166,-0.611353 3.51071,-1.537564 0.47418,-0.733146 0.81598,-2.330729 0.81776,-3.822241 0.002,-1.289357 -0.34637,-4.136689 -0.57115,-4.674306 -0.51992,-1.243545 -0.80135,-1.81973 -1.09021,-2.23209 -0.58917,-0.841079 -0.27638,-1.563665 0.67467,-1.558548 0.87075,0.0047 2.53336,1.089449 3.40708,2.222936 0.60672,0.787105 1.68425,2.113336 1.89521,2.332623 0.12473,0.129665 0.44342,0.52654 0.70819,0.881944 0.26477,0.355405 0.52153,0.685878 0.57059,0.734385 0.47605,0.470694 1.87766,3.438223 2.12445,4.497945 0.11295,0.485053 0.28195,1.159729 0.37553,1.499277 0.20523,0.744599 0.0959,5.261377 -0.15225,6.290524 -0.18225,0.755798 -0.63954,1.635253 -1.22133,2.348879 -0.18241,0.223731 -0.53273,0.653425 -0.77851,0.954872 -1.31946,1.618329 -1.75541,2.713581 -1.75701,4.414194 -0.001,1.531981 0.41828,3.961813 0.88609,5.129723 0.0777,0.19403 0.27795,0.78934 0.44496,1.32292 0.16702,0.53358 0.36675,1.12889 0.44386,1.32292 0.24861,0.62559 0.36567,2.00656 0.24072,2.83979 -0.0867,0.57819 -0.27988,0.96431 -0.67226,1.34371 -0.30283,0.29282 -2.09842,1.3234 -3.99019,2.29018 -1.89177,0.96678 -3.79677,1.94608 -4.23333,2.17621 -2.00837,1.05871 -3.84446,1.21374 -4.71285,0.39792 -0.4602,-0.43233 -1.37663,-1.96158 -2.67377,-4.4617 -0.25167,-0.48507 -0.55795,-0.98683 -0.68062,-1.11503 -0.12267,-0.1282 -0.22304,-0.29951 -0.22304,-0.38069 0,-0.27662 -1.57844,-1.77276 -2.06573,-1.95803 -0.54196,-0.20605 -2.99437,-0.0414 -3.1507,0.21152 -0.0528,0.0855 -0.23527,0.15542 -0.40542,0.15542 -0.58258,0 -1.2597,0.93054 -1.35839,1.86678 -0.12216,1.15879 0.14046,1.58167 1.41973,2.28615 1.24073,0.68326 2.33938,1.86001 2.49097,2.66802 0.0976,0.52005 -0.3094,2.30935 -0.63508,2.79225 -0.27052,0.40111 -0.69414,3.32128 -0.78045,5.37986 -0.16708,3.9851 -0.0661,3.7131 -2.12814,5.73264 -3.21374,3.1475 -7.41231,7.11728 -8.2163,7.76858 -0.68975,0.55875 -1.75104,1.96435 -1.75104,2.31911 0,0.17982 0.33734,0.69587 0.74965,1.14679 0.41231,0.45091 0.90821,1.12387 1.10201,1.49546 0.19379,0.37159 0.44999,0.77873 0.56933,0.90477 0.11934,0.12604 0.31797,0.36426 0.4414,0.52939 0.12343,0.16513 0.50902,0.39977 0.85687,0.52143 0.72539,0.25369 1.38078,0.0929 2.51601,-0.61723 0.37346,-0.23362 1.00846,-0.60856 1.41111,-0.83321 0.40265,-0.22464 1.16865,-0.65958 1.70223,-0.96654 0.53357,-0.30695 1.10904,-0.60267 1.27882,-0.65716 0.16977,-0.0545 0.30868,-0.16918 0.30868,-0.25488 0,-0.0857 0.0804,-0.15582 0.17873,-0.15582 0.28227,0 2.85667,-1.79732 3.39314,-2.36892 0.26679,-0.28426 0.48507,-0.63548 0.48507,-0.78049 0,-0.49422 0.90267,-2.93227 1.68338,-4.5467 0.4284,-0.88589 0.8589,-1.7987 0.95667,-2.02848 0.0978,-0.22977 0.43673,-0.86544 0.75324,-1.4126 1.58965,-2.74809 3.19905,-4.22818 5.51435,-5.07129 1.75397,-0.6387 5.11105,-0.54622 6.15569,0.16958 0.88217,0.60448 1.16445,1.19736 1.16445,2.44574 0,1.69513 -0.63528,2.83527 -1.75232,3.14486 -0.48954,0.13568 -1.61072,0.14644 -4.77857,0.0459 -1.76402,-0.056 -2.10237,-0.0203 -2.55764,0.27008 -0.28856,0.18404 -0.56435,0.37627 -0.61286,0.42717 -0.0485,0.0509 -0.29409,0.19842 -0.54573,0.32783 -0.74584,0.38352 -1.847,1.48278 -2.14913,2.14541 -0.55294,1.2127 -0.72997,2.08022 -0.48478,2.37565 0.30457,0.36698 0.48101,0.34357 1.50395,-0.19959 2.5845,-1.37232 3.2105,-1.63642 3.89094,-1.64153 0.94778,-0.007 1.21954,0.23329 1.68363,1.48932 0.39541,1.07013 1.25982,2.53899 1.87118,3.17962 0.18516,0.19403 1.08592,0.86872 2.0017,1.49931 2.55738,1.76097 3.8525,3.14228 4.80947,5.12952 1.02488,2.12826 1.35161,3.88676 1.02196,5.5003 -0.12361,0.60502 -0.29802,1.17544 -0.38758,1.26761 -0.0896,0.0922 -0.16283,0.2763 -0.16283,0.40919 0,0.41959 -1.05353,1.79294 -1.58706,2.06884 -0.68375,0.35358 -3.3128,0.34765 -5.36963,-0.0121 -1.48403,-0.25957 -2.20687,-0.57877 -2.93887,-1.29779 -1.05407,-1.03536 -2.28632,-1.88459 -3.60877,-2.48703 -0.87033,-0.39648 -1.10019,-0.41587 -0.9885,-0.0834 0.0326,0.097 0.0572,0.69232 0.0546,1.32291 -0.0101,2.48449 -1.37675,5.12982 -3.02427,5.85369 -0.43656,0.19181 -0.93158,0.42164 -1.10004,0.51072 -0.39956,0.21131 -3.77306,0.17473 -4.45621,-0.0483 z M 43.194866,138.20953 c -0.40046,-0.45494 -0.728108,-0.92388 -0.728108,-1.04209 0,-0.51035 -1.468462,-1.85737 -2.611021,-2.39508 -1.451625,-0.68316 -1.767173,-0.81385 -2.327868,-0.96413 -0.242534,-0.065 -1.180154,-0.47183 -2.083598,-0.90406 -1.784691,-0.85383 -2.826939,-1.74594 -3.295342,-2.82063 -0.162339,-0.37246 -0.360474,-0.8032 -0.440302,-0.9572 -0.179205,-0.34571 -0.576477,-2.81958 -0.606532,-3.77695 -0.03668,-1.16843 0.351862,-2.68838 0.856286,-3.34971 0.805966,-1.05668 1.56602,-0.78231 2.92713,1.05665 0.64592,0.87269 2.88058,2.38513 5.332289,3.60894 0.848871,0.42373 1.543402,0.83679 1.543402,0.9179 0,0.0811 0.08273,0.14747 0.183834,0.14747 0.499232,0 2.582152,2.16998 2.835163,2.95367 0.120877,0.37441 0.245496,2.04822 0.286692,3.85067 0.0661,2.89248 0.04156,3.24442 -0.264441,3.79236 -0.18552,0.3322 -0.459297,0.6277 -0.608393,0.65668 -0.149097,0.029 -0.598732,-0.31954 -0.999191,-0.77449 z m 116.048204,0.42396 c -0.33235,-0.35673 -0.35965,-0.61098 -0.35965,-3.34886 0,-3.93337 0.41681,-5.6083 1.62065,-6.51238 0.3107,-0.23334 0.80738,-0.62613 1.10373,-0.87287 0.29634,-0.24674 0.93568,-0.65425 1.42075,-0.90558 1.45647,-0.75464 2.46165,-1.3148 3.23207,-1.80115 0.40132,-0.25334 0.81063,-0.46062 0.90957,-0.46062 0.0989,0 0.17989,-0.0623 0.17989,-0.13836 0,-0.0761 0.25797,-0.28993 0.57327,-0.47517 0.65982,-0.38767 0.65026,-0.37845 1.78729,-1.72363 1.03447,-1.22384 1.44069,-1.29328 2.19713,-0.37558 1.09072,1.32323 1.22095,4.01547 0.34026,7.03427 -0.26784,0.91806 -0.93657,1.99306 -1.61941,2.60322 -0.67616,0.6042 -2.64217,1.58825 -4.16048,2.08246 -2.63914,0.85905 -4.44146,2.12548 -5.1084,3.58948 -0.37096,0.81432 -1.16066,1.69081 -1.52337,1.69081 -0.12851,0 -0.3955,-0.17372 -0.5933,-0.38604 z M 43.669394,89.762929 c -0.377323,-0.529012 -0.413684,-0.784314 -0.471037,-3.307292 -0.03418,-1.503715 -0.125101,-2.813403 -0.202039,-2.910417 -0.07694,-0.09701 -0.346627,-0.548851 -0.599307,-1.004083 -0.792571,-1.427905 -0.589664,-3.859122 0.411793,-4.934061 0.452852,-0.48608 0.453674,-0.818326 0.0034,-1.381994 -1.045207,-1.308476 -2.684451,-3.992609 -3.554876,-5.820834 -1.689139,-3.547833 -1.795165,-3.951647 -1.783052,-6.790972 0.01115,-2.614309 0.530905,-6.726932 0.952679,-7.538231 0.08758,-0.168459 0.159231,-0.42959 0.159231,-0.580292 0,-0.47801 0.670937,-1.611284 1.211152,-2.045747 1.646108,-1.323868 1.739952,-1.328251 2.295842,-0.107266 1.379108,3.029144 1.700554,3.552882 3.006657,4.898787 1.316657,1.356782 2.252278,1.933166 3.138034,1.933166 1.280469,0 2.85992,0.733042 3.957618,1.836778 0.444398,0.446842 1.244448,2.148884 1.458158,3.102111 0.226984,1.012435 0.348719,1.010944 1.720971,-0.02106 2.006919,-1.509307 2.235272,-1.622111 3.313116,-1.63663 1.576885,-0.02124 2.476228,0.916709 2.476228,2.582529 0,1.026031 -0.546669,2.117454 -1.34793,2.691134 -0.986358,0.706204 -5.600403,5.43986 -7.143139,7.328309 -0.352972,0.43207 -0.817829,0.984017 -1.033017,1.226552 -1.657801,1.868477 -4.939802,7.517294 -4.939802,8.502144 0,0.13571 -0.06557,0.322151 -0.145718,0.414314 -0.08015,0.09216 -0.247103,0.524757 -0.371018,0.96132 -0.651438,2.295069 -1.148925,3.175 -1.795055,3.175 -0.170512,0 -0.494018,-0.257969 -0.718906,-0.573264 z M 158.81967,89.96479 c -0.15084,-0.21535 -0.40458,-0.835037 -0.56387,-1.377084 -0.15929,-0.542048 -0.35021,-1.144291 -0.42426,-1.338319 -0.0741,-0.194028 -0.27178,-0.78934 -0.43937,-1.322917 -0.50926,-1.621283 -2.19176,-4.900083 -2.6098,-5.085879 -0.0728,-0.03234 -0.13229,-0.130658 -0.13229,-0.218489 0,-0.08783 -0.47792,-0.815435 -1.06205,-1.616899 -1.59401,-2.187076 -2.07056,-2.799298 -2.78488,-3.577756 -0.35804,-0.390191 -0.92675,-1.064879 -1.26379,-1.499305 -0.33704,-0.434427 -0.68274,-0.839403 -0.76822,-0.899947 -0.23565,-0.166911 -3.95751,-3.648703 -4.98162,-4.660293 -0.97032,-0.958471 -1.25834,-1.795161 -1.03245,-2.999255 0.14363,-0.765618 1.17483,-1.835092 1.80324,-1.870165 1.51578,-0.0846 2.2269,0.189638 4.01653,1.548959 0.68579,0.520898 1.29549,0.947085 1.35489,0.947085 0.0594,0 0.30444,-0.624164 0.54455,-1.387032 0.62659,-1.990732 0.99985,-2.57567 2.14533,-3.361925 0.80579,-0.553092 2.28741,-1.071876 3.06123,-1.071876 1.72426,0 3.90835,-2.080144 5.3213,-5.068034 0.49399,-1.04463 0.98887,-2.082539 1.09972,-2.306465 0.15956,-0.322331 0.29523,-0.383912 0.65131,-0.295638 0.24738,0.06132 0.47623,0.185004 0.50857,0.274846 0.0323,0.08984 0.16457,0.163346 0.29386,0.163346 0.48287,0 1.8522,2.213603 1.8522,2.994186 0,0.185011 0.071,0.380257 0.15776,0.433883 0.0868,0.05362 0.19956,0.395651 0.25066,0.760061 0.0511,0.364411 0.22033,1.496002 0.37609,2.514648 0.76826,5.024462 0.50888,6.67503 -1.80175,11.465278 -0.71934,1.491301 -1.53751,2.926323 -1.81019,3.175 -0.0532,0.04851 -0.48001,0.581293 -0.94849,1.18397 -0.8792,1.13106 -0.96975,1.621119 -0.40635,2.199181 0.51553,0.528953 0.83089,1.547876 0.83089,2.684614 0,0.995019 -0.0949,1.349204 -0.65425,2.442787 l -0.65424,1.279031 -0.01,2.470591 c -0.009,2.153174 -0.0561,2.54976 -0.36861,3.086806 -0.44613,0.76655 -1.1432,0.916155 -1.55166,0.333006 z M 63.332439,83.148345 c -0.485316,-0.457392 -0.756551,-0.882441 -1.29698,-2.032481 -0.43675,-0.929411 -0.175211,-5.048917 0.372097,-5.860921 0.06539,-0.09701 0.171567,-0.396784 0.235947,-0.666156 0.06438,-0.26937 0.321569,-0.936879 0.571532,-1.483353 0.458649,-1.002709 0.48451,-1.887712 0.07787,-2.664791 -0.463534,-0.885801 -0.629618,-2.593706 -0.629618,-6.474589 0,-3.889395 0.166204,-5.590971 0.632934,-6.479898 0.08845,-0.168459 0.160816,-0.451976 0.160816,-0.630037 0,-0.510289 0.547058,-1.998396 1.001303,-2.723746 0.374202,-0.597535 0.487512,-0.661458 1.17251,-0.661458 1.163461,0 1.396765,0.298997 2.890331,3.704167 0.4794,1.092983 1.194828,2.555063 1.294664,2.645833 0.144789,0.131641 1.049525,2.101462 1.049525,2.28506 0,0.08731 0.281957,0.700299 0.626574,1.362193 0.66682,1.280744 1.344392,2.078784 2.366211,2.786904 0.784004,0.543315 1.306009,1.394897 1.175005,1.916862 -0.05408,0.215477 -0.822843,1.136576 -1.708361,2.046885 -0.885518,0.91031 -1.813012,1.979274 -2.061099,2.375477 -0.248087,0.396203 -0.498732,0.760056 -0.55699,0.808563 -0.373648,0.31111 -2.01772,3.74868 -2.573002,5.379861 -0.165127,0.48507 -0.399897,1.12007 -0.521713,1.411112 -0.121816,0.291041 -0.328106,0.806979 -0.45842,1.146527 -0.606268,1.579677 -1.415968,2.293056 -2.60267,2.293056 -0.525399,0 -0.834236,-0.122949 -1.218464,-0.48507 z m 75.001671,0.279508 c -0.57011,-0.314861 -1.04245,-0.931681 -1.48433,-1.938376 -0.57195,-1.302978 -0.66592,-1.547275 -0.90546,-2.353979 -0.22892,-0.770922 -0.41799,-1.242079 -1.1168,-2.782947 -0.25419,-0.560481 -0.46216,-1.068871 -0.46216,-1.129755 0,-0.385369 -2.53604,-3.769637 -3.87105,-5.16579 -1.08591,-1.135661 -1.597,-1.802963 -1.597,-2.085132 0,-0.286627 0.45648,-0.865334 1.47593,-1.871098 1.50318,-1.483015 1.62643,-1.681835 3.34627,-5.397917 0.24695,-0.533576 0.68018,-1.406701 0.96275,-1.940277 0.58877,-1.111792 0.76071,-1.507716 1.18731,-2.734028 0.30844,-0.886652 0.98199,-1.93895 1.48722,-2.323523 0.47467,-0.361301 1.27221,-0.43122 1.70254,-0.149255 0.52255,0.342386 0.83256,1.035949 1.38124,3.090139 0.24617,0.921632 0.52157,1.913819 0.612,2.204861 0.42266,1.360352 0.57803,4.294883 0.36615,6.915679 -0.11602,1.435127 -0.28205,2.74301 -0.36896,2.906406 -0.0869,0.163396 -0.15801,0.491045 -0.15801,0.72811 0,0.237065 -0.12745,0.736057 -0.28322,1.108872 -0.29404,0.703737 -0.24719,1.879373 0.0993,2.492285 0.28118,0.497336 1.06583,3.086028 1.06583,3.516331 0,0.215247 0.0794,0.440414 0.17639,0.500373 0.21719,0.134226 0.23846,3.909569 0.0228,4.042863 -0.0845,0.05221 -0.19993,0.314868 -0.25653,0.583674 -0.11179,0.530848 -0.65948,1.216695 -1.34891,1.689165 -0.4934,0.338136 -1.5059,0.384604 -2.03332,0.09332 z M 71.747312,57.401313 c -0.662366,-0.2572 -0.697334,-1.000323 -0.0808,-1.717224 0.503154,-0.585066 1.817692,-1.50571 2.15157,-1.506864 0.120276,-3.52e-4 0.794964,-0.372376 1.499306,-0.826581 1.743928,-1.124595 2.750878,-1.684657 4.720207,-2.625358 0.921632,-0.440242 1.813523,-0.8757 1.981981,-0.967683 0.168458,-0.09198 0.426427,-0.167244 0.573264,-0.167244 0.146837,0 0.266977,-0.06294 0.266977,-0.13986 0,-0.07693 0.456406,-0.291474 1.014236,-0.476777 0.55783,-0.185306 1.133298,-0.390919 1.278819,-0.456922 0.71648,-0.324965 1.293827,-0.536319 2.998611,-1.097723 1.018646,-0.335451 2.421472,-0.812949 3.117391,-1.061109 0.695922,-0.24816 1.749417,-0.50597 2.341101,-0.572913 0.591686,-0.06694 1.118386,-0.190632 1.170448,-0.27487 0.05206,-0.08424 0.236528,-0.153159 0.409926,-0.153159 0.481317,0 1.442093,-0.5321 1.547858,-0.857241 0.15525,-0.477275 0.589839,-1.501054 0.790785,-1.862887 0.103508,-0.186383 0.388823,-0.70232 0.634031,-1.146527 0.245211,-0.444208 0.581997,-1.006088 0.748417,-1.248623 0.381084,-0.555386 1.32847,-2.260871 1.95966,-3.527777 0.90717,-1.820843 1.46399,-4.659305 1.34407,-6.85153 -0.0522,-0.953859 -0.005,-1.360683 0.17727,-1.543403 0.30302,-0.303017 0.25169,-0.303791 0.86228,0.01299 0.6404,0.332243 2.18286,1.839351 2.18286,2.132828 0,0.122371 0.0649,0.248952 0.1442,0.28129 0.22597,0.09214 1.27382,2.35263 1.56299,3.371789 0.84562,2.980322 1.24293,5.31707 1.62114,9.534542 0.14537,1.621109 0.23863,1.792275 1.0814,1.984784 1.27081,0.290285 5.12284,1.456967 5.50976,1.668768 0.16845,0.09221 0.40489,0.167663 0.52542,0.167663 0.25514,0 2.33876,0.757752 3.48982,1.269148 1.32765,0.589851 1.81125,0.780538 2.82222,1.112818 0.53357,0.175373 1.16857,0.455782 1.41111,0.623131 0.24253,0.16735 1.03628,0.605112 1.76389,0.972806 0.7276,0.367693 1.91823,1.032056 2.64583,1.476362 0.72761,0.444304 1.77958,1.035636 2.33772,1.314069 1.22005,0.608632 2.42478,1.758744 2.42478,2.314847 0,0.935129 -1.41164,1.170767 -2.87382,0.479711 -0.46494,-0.219742 -1.17932,-0.523981 -1.5875,-0.676088 -0.40818,-0.152108 -0.9009,-0.343564 -1.09493,-0.425457 -0.19403,-0.08189 -0.55121,-0.204114 -0.79375,-0.271601 -0.24253,-0.06749 -0.9966,-0.377941 -1.67569,-0.689895 -1.24223,-0.570638 -2.52762,-1.04001 -4.32153,-1.578053 -0.53358,-0.160032 -1.12889,-0.363458 -1.32292,-0.452055 -0.51318,-0.234327 -3.86748,-1.221586 -5.20347,-1.531517 -0.63059,-0.146288 -1.44418,-0.338173 -1.80799,-0.426408 -0.3638,-0.08824 -0.95911,-0.230754 -1.32291,-0.316706 -0.3638,-0.08595 -1.1774,-0.292314 -1.80799,-0.458583 -0.63059,-0.166268 -1.5434,-0.368658 -2.02847,-0.449755 -0.48507,-0.0811 -1.55663,-0.270021 -2.38125,-0.419834 -0.82462,-0.149814 -1.97556,-0.2745 -2.55764,-0.27708 -1.18379,-0.0053 -3.692135,0.309296 -4.233323,0.530855 -0.194028,0.07943 -1.58309,0.396354 -3.086805,0.704269 -3.264098,0.668385 -3.679559,0.76445 -4.938889,1.141988 -0.533576,0.159962 -1.208264,0.357208 -1.499305,0.438328 -1.974988,0.550462 -3.299555,0.985627 -4.105864,1.348909 -0.511974,0.230671 -1.048833,0.419402 -1.193017,0.419402 -0.144186,0 -0.399985,0.06979 -0.568443,0.15509 -0.168459,0.0853 -0.74285,0.295871 -1.276426,0.467938 -0.533576,0.172066 -1.287639,0.448594 -1.675694,0.614507 -0.61706,0.263822 -1.101307,0.45758 -2.645834,1.058651 -0.194027,0.07551 -0.63059,0.252538 -0.970138,0.393397 -0.339549,0.140861 -0.895174,0.360694 -1.234723,0.48852 -0.339548,0.127825 -0.696736,0.288469 -0.79375,0.356986 -0.256765,0.181344 -1.718872,0.339139 -2.028472,0.21892 z"
       id="path8902" />
    <rect
       style="fill:none;fill-opacity:0.0575539;stroke:#000000;stroke-width:0.104;stroke-linecap:round"
       id="rect9024"
       width="178.42876"
       height="235.9987"
       x="14.487804"
       y="19.44416" />
  </g>
</svg>
