<?xml version="1.0" encoding="UTF-8" standalone="no"?>
<!-- Created with Inkscape (http://www.inkscape.org/) -->

<svg
   width="210mm"
   height="297mm"
   viewBox="0 0 210 297"
   version="1.1"
   id="svg1366"
   inkscape:version="1.1 (c68e22c387, 2021-05-23)"
   sodipodi:docname="StarWars-Masken.svg"
   xmlns:inkscape="http://www.inkscape.org/namespaces/inkscape"
   xmlns:sodipodi="http://sodipodi.sourceforge.net/DTD/sodipodi-0.dtd"
   xmlns="http://www.w3.org/2000/svg"
   xmlns:svg="http://www.w3.org/2000/svg">
  <sodipodi:namedview
     id="namedview1368"
     pagecolor="#ffffff"
     bordercolor="#666666"
     borderopacity="1.0"
     inkscape:pageshadow="2"
     inkscape:pageopacity="0.0"
     inkscape:pagecheckerboard="0"
     inkscape:document-units="mm"
     showgrid="false"
     inkscape:zoom="0.69397447"
     inkscape:cx="334.30625"
     inkscape:cy="561.25984"
     inkscape:window-width="1920"
     inkscape:window-height="1017"
     inkscape:window-x="-8"
     inkscape:window-y="-8"
     inkscape:window-maximized="1"
     inkscape:current-layer="layer1" />
  <defs
     id="defs1363" />
  <g
     inkscape:label="Ebene 1"
     inkscape:groupmode="layer"
     id="layer1">
    <path
       id="path1785"
       style="fill:#000000;stroke-width:0.999999"
       d="M 60.521484 736.33789 L 60.521484 1056.2344 L 358.80273 1056.2344 L 358.80273 736.33789 L 60.521484 736.33789 z M 204.74414 774.83594 C 222.31589 774.83448 240.06719 775.10196 247.23828 775.63867 C 260.37826 776.62354 269.88804 778.5778 274.23828 781.18945 C 274.78828 781.51978 275.90402 782.07958 276.7168 782.43164 C 279.90363 783.81208 290.23424 793.91187 292.57227 797.93359 C 293.77105 799.9957 298.73588 810.07335 299.5625 812.12109 C 300.88579 815.39934 302.90549 823.8479 302.89453 826.06055 C 302.87941 828.95525 302.2864 829.61729 298.53711 830.91016 C 295.57736 831.93082 290.54454 832.06878 249.57227 832.25391 C 143.30415 832.73398 119.06016 832.77056 115.9043 832.45508 L 112.57227 832.12305 L 112.37305 827.19141 C 111.90163 815.44161 117.89367 801.63673 127.86523 791.49414 C 138.38483 780.79415 146.82201 777.02458 163.33008 775.64648 C 169.78031 775.10803 187.17239 774.83739 204.74414 774.83594 z M 301.53125 845.75195 L 303.33594 848.60352 C 310.1479 859.37113 311.57781 865.0729 311.99609 883.12109 C 312.44878 902.65244 312.94024 904.25919 321.25781 913.45508 C 325.43049 918.06841 327.05588 922.07445 327.07617 927.78906 C 327.10263 935.37299 324.09151 943.01926 317.18359 952.90234 C 315.56417 955.21923 314.23828 957.25137 314.23828 957.41797 C 314.23828 957.58465 313.36999 959.01119 312.30859 960.58789 C 308.52558 966.20752 300.9487 982.48234 300.88672 985.12109 C 300.87538 985.67109 300.42313 986.70425 299.88477 987.41602 C 299.34646 988.12774 298.90433 989.17842 298.9043 989.75 C 298.9041 991.5291 292.26733 1001.2886 288.66797 1004.8027 C 282.06971 1011.2448 275.6213 1014.4709 265.85742 1016.2148 C 260.48051 1017.1753 258.88549 1017.2186 254.74219 1016.5078 C 247.98734 1015.349 241.6226 1013.2559 239.09961 1011.3652 C 236.27117 1009.2457 235.58296 1006.4685 235.56641 997.12109 C 235.55129 989.12222 234.40544 982.40788 232.4043 978.60938 C 230.99922 975.94235 228.05304 974.97542 223.10742 975.55664 C 218.79294 976.06374 216.24012 975.12369 212.33594 971.5918 C 209.75032 969.25272 209.14792 969.00371 206.8457 969.3125 C 205.36586 969.51093 203.1412 970.54546 201.64258 971.73242 C 198.48497 974.23326 191.88412 976.45508 187.61133 976.45508 C 182.8272 976.45508 181.87756 978.16916 180.92969 988.51758 C 178.98101 1009.7922 179.09744 1009.2779 175.63672 1011.7422 C 174.57104 1012.501 173.14551 1013.1227 172.46875 1013.125 C 171.79202 1013.127 170.43736 1013.5481 169.45898 1014.0586 C 168.48065 1014.569 166.38128 1015.1847 164.79297 1015.4277 C 163.20466 1015.6708 161.15493 1016.1256 160.23828 1016.4395 C 158.03402 1017.1941 154.45473 1017.5512 151.57227 1017.3027 C 148.85083 1017.068 142.81886 1015.4067 139.80469 1014.0605 C 138.64929 1013.5446 137.52655 1013.1211 137.31055 1013.1211 C 136.18122 1013.1211 127.47581 1006.5285 124.67578 1003.5527 C 118.56145 997.05471 115.8025 992.11695 112.88867 982.45508 C 110.49585 974.52083 107.10569 968.04824 97.876953 953.78906 C 90.71524 942.72355 87.949189 935.40392 87.923828 927.45508 C 87.897371 919.77833 89.283932 916.79633 95.806641 910.46094 C 102.32085 904.13382 102.63174 902.94087 103.48633 881.12109 C 104.25856 861.40371 105.03021 857.57454 109.25977 852.43359 C 111.84065 849.29659 113.33962 848.47626 118.60938 847.31836 C 123.47317 846.24966 131.14959 846.13855 212.71875 845.95312 L 301.53125 845.75195 z M 166.11523 861.00586 C 147.26227 860.9794 137.31016 861.2188 134.70508 861.75977 C 129.86883 862.76376 126.9043 865.12248 126.9043 867.9668 C 126.9043 869.79635 128.74818 876.47313 130.25977 880.12109 C 133.54508 888.04967 134.70359 890.04104 137.62891 892.77734 C 140.81157 895.75436 140.90079 895.78906 145.52148 895.78906 C 148.34112 895.78906 151.19456 895.36151 152.7168 894.71094 C 160.62614 891.33053 177.28529 881.36034 180.83203 877.88477 C 181.44689 877.28223 183.28014 875.88906 184.90625 874.78906 C 188.17255 872.57955 196.23828 864.8388 196.23828 863.91406 C 196.23828 863.59167 195.67116 862.81416 194.97656 862.18555 C 193.82807 861.14618 191.21254 861.03927 166.11523 861.00586 z M 252.60352 861.11133 C 234.93886 861.11866 217.23634 861.25217 216.83008 861.50391 C 216.17391 861.90945 217.72642 863.52451 225.9043 870.93945 C 231.05061 875.60573 231.06686 875.6168 236.57227 879.69336 C 239.13895 881.59386 241.53764 883.37461 241.9043 883.64844 C 247.75395 888.01685 258.62719 894.09993 264.9043 896.51758 C 268.86253 898.04209 270.18418 898.03708 272.53906 896.48438 L 272.53906 896.48242 C 275.69509 894.40202 282.10514 887.14932 283.71484 883.83789 C 284.53009 882.16084 285.53911 878.38841 285.95508 875.45508 C 286.37109 872.52171 287.11203 868.25417 287.60352 865.97266 C 288.09505 863.69114 288.33839 861.66651 288.14453 861.47266 C 287.89373 861.22185 270.26817 861.104 252.60352 861.11133 z M 207.43945 908.50977 C 204.67197 908.53938 202.42111 909.30339 200.99023 910.73438 C 199.55296 912.17162 199.29751 913.12865 199.03906 918.05273 L 198.74219 923.71875 L 200.99023 924.69922 C 204.03615 926.02803 211.76055 926.0699 214.27148 924.77148 C 215.51075 924.13063 216.25912 923.20582 216.29492 922.27148 C 216.64831 913.05288 215.06861 909.44088 210.36914 908.72852 C 209.34338 908.57303 208.36195 908.4999 207.43945 908.50977 z M 227.30273 913.18164 C 226.32743 913.07419 225.25228 913.65186 224.28711 914.87891 C 222.57805 917.05157 222.4249 922.24022 223.97266 925.50195 C 225.27394 928.24426 230.58365 933.12109 232.26758 933.12109 C 232.94177 933.12109 233.67541 933.4164 233.89844 933.77734 C 234.36835 934.53767 237.87501 935.64102 240.10156 935.72852 C 240.94323 935.76253 242.39892 935.02097 243.33594 934.08398 C 246.22289 931.19703 244.89971 927.80439 238.26562 921.08008 C 236.25819 919.04541 231.09038 915.12109 230.41797 915.12109 C 230.04228 915.12109 229.36076 914.67109 228.9043 914.12109 C 228.43572 913.5565 227.88791 913.24611 227.30273 913.18164 z M 188.375 913.26172 C 187.41558 913.24961 186.17967 913.76315 184.23828 914.79492 C 182.58829 915.67185 180.48891 916.77945 179.57227 917.25586 C 176.83554 918.67821 174.94744 920.57105 172.81836 924.03125 C 171.15083 926.74132 170.80124 928.02622 170.78125 931.49023 C 170.76613 933.7917 170.9573 936.00042 171.20312 936.39844 C 172.02888 937.7345 175.12722 937.13978 180.18555 934.67383 C 185.32861 932.16653 185.96025 931.76286 188.35156 929.45508 C 191.1557 926.74886 192.23376 924.22983 192.23633 920.37891 C 192.23833 917.59857 191.88364 916.18352 190.85742 914.87891 C 190.01822 913.81204 189.33442 913.27383 188.375 913.26172 z M 158.84766 931.91992 C 158.32 931.93339 157.75061 931.97518 157.14062 932.04688 C 152.08758 932.64075 146.9043 934.91448 146.9043 936.53711 C 146.9043 937.22529 146.86311 938.01406 146.8125 938.28906 C 146.76182 938.56421 147.73802 939.29975 148.98047 939.92383 C 152.19065 941.53625 158.28694 941.46435 161.59766 939.77539 C 163.90442 938.59856 164.23828 938.13648 164.23828 936.12305 C 164.23828 933.16886 162.54125 931.82564 158.84766 931.91992 z M 255.7832 931.94336 C 254.48303 931.97267 253.35592 932.21309 252.57227 932.72656 C 251.32691 933.54256 250.9043 934.40114 250.9043 936.12109 C 250.9043 938.10213 251.25276 938.6064 253.4043 939.74219 C 256.45441 941.35238 262.4065 941.5393 265.77734 940.13086 C 267.08037 939.58642 268.33127 938.84316 268.55664 938.47852 C 270.29942 935.65866 261.41728 931.81633 255.7832 931.94336 z M 150.46094 974.50586 C 147.52924 974.43405 142.97246 976.52475 140.46875 979.08984 C 135.59747 984.08048 136.21958 994.04346 141.69922 998.78711 C 145.71633 1002.2647 151.4501 1003.3833 154.76172 1001.3359 C 157.83108 999.43835 161.62178 995.57658 162.96094 992.98242 C 165.51204 988.04058 164.09865 980.8786 159.96094 977.78906 C 158.00946 976.33198 152.90025 974.56554 150.46094 974.50586 z M 264.9668 974.55078 C 263.98373 974.49952 263.0728 974.66857 261.7168 975.03125 C 256.72563 976.36618 255.38482 977.25888 253.07617 980.78711 C 251.27591 983.53834 250.90898 984.73571 250.92773 987.78125 C 250.96553 993.75627 253.96386 998.70149 258.93359 1000.9805 C 262.52943 1002.6294 267.0715 1002.861 268.23828 1001.4551 C 268.69473 1000.9051 269.34305 1000.4551 269.67969 1000.4551 C 270.98987 1000.4551 274.34932 997.38225 275.84375 994.81641 C 280.56219 986.71503 277.38959 978.14676 268.65234 975.39258 C 267.00483 974.87325 265.94986 974.60205 264.9668 974.55078 z M 207.91992 976.45508 C 209.26967 976.45508 209.56593 977.02561 210.58398 981.60156 C 211.52169 985.8163 211.66697 988.92448 211.38672 998.76758 C 211.03787 1011.0223 210.30374 1015.4713 208.39062 1016.9551 C 207.03223 1018.0086 206.57962 1018.0012 205.67578 1016.9121 C 203.79078 1014.6408 202.92105 992.99612 204.32617 983.31641 C 205.16897 977.51064 205.72122 976.45508 207.91992 976.45508 z M 188.44141 980.50586 C 188.80789 980.50433 189.22466 980.53295 189.69531 980.57812 C 191.60246 980.76105 192.03357 981.15602 192.84375 983.45703 C 194.34875 987.73153 194.58129 1000.188 193.26562 1006.1016 C 192.65172 1008.8609 191.69803 1011.5696 191.14648 1012.1211 C 190.0754 1013.1922 188.50413 1013.4446 188.02734 1012.623 C 187.44451 1011.6188 186.25071 998.56918 185.98633 990.3125 C 185.72176 982.04379 185.87603 980.5166 188.44141 980.50586 z M 224.65625 980.54688 C 226.81028 980.5922 227.34446 981.75212 228.15625 986.50977 C 229.47515 994.23988 228.66163 1010.006 226.83008 1012.2129 C 226.01683 1013.1928 223.8488 1013.4419 223.33789 1012.6152 C 222.42219 1011.1336 221.33637 999.5522 221.29102 990.78906 L 221.23828 980.78906 L 223.62891 980.58789 C 224.00828 980.5561 224.34853 980.5404 224.65625 980.54688 z "
       transform="scale(0.26458333)" />
    <path
       style="fill:#000000;stroke-width:1"
       d="m 38.582504,164.27035 c -0.53358,-0.0686 -1.7619,-0.22205 -2.7296,-0.34095 -0.96771,-0.11891 -1.83258,-0.26137 -1.92193,-0.31659 -0.0893,-0.0552 -0.64696,-0.20222 -1.23914,-0.32666 -1.54394,-0.32444 -2.57926,-0.60787 -3.24344,-0.88796 -0.31859,-0.13434 -0.75515,-0.24475 -0.97014,-0.24535 -0.21499,-5.3e-4 -0.61824,-0.11966 -0.89612,-0.26458 -0.27788,-0.14492 -0.59538,-0.26619 -0.70556,-0.26948 -0.11017,-0.003 -0.51782,-0.15935 -0.90588,-0.34679 -0.38805,-0.18745 -0.80208,-0.34351 -0.92005,-0.3468 -0.21404,-0.006 -0.53138,-0.13581 -2.69592,-1.10304 -4.74863,-2.12195 -8.07433,-4.4591 -9.35722,-6.57586 -0.32479,-0.53589 -0.4244,-0.94319 -0.41425,-1.69381 0.012,-0.88582 0.56438,-3.1091 0.96915,-3.90058 0.0851,-0.16649 0.22972,-0.60305 0.32128,-0.97013 0.17133,-0.68688 0.61117,-1.98458 0.88386,-2.6077 0.0849,-0.19403 0.32727,-0.86872 0.53856,-1.49931 0.2113,-0.63059 0.46989,-1.3047 0.57463,-1.49802 0.10475,-0.19332 0.25027,-0.59019 0.32337,-0.88194 0.0731,-0.29175 0.30482,-0.96702 0.51492,-1.50059 0.2101,-0.53358 0.46334,-1.24795 0.56275,-1.5875 0.0994,-0.33955 0.24361,-0.69674 0.32045,-0.79375 0.0768,-0.097 0.22105,-0.4542 0.32046,-0.79375 0.0994,-0.33955 0.35208,-1.05393 0.56149,-1.5875 0.20941,-0.53358 0.46208,-1.24795 0.56149,-1.5875 0.0994,-0.33955 0.24476,-0.69674 0.32301,-0.79375 0.0783,-0.097 0.20022,-0.48651 0.27106,-0.86554 0.0708,-0.37903 0.23621,-0.89496 0.36748,-1.14652 0.13127,-0.25156 0.23916,-0.63329 0.23976,-0.84828 5.3e-4,-0.21499 0.11252,-0.65155 0.24872,-0.97014 0.42646,-0.99752 0.64413,-2.7464 0.81854,-6.57647 0.22923,-5.034 0.63831,-7.22175 1.89647,-10.14236 1.23737,-2.87235 2.99265,-4.939 5.75775,-6.77908 2.40838,-1.60271 4.04435,-2.21455 6.89002,-2.57683 0.87313,-0.11115 2.10344,-0.27145 2.73403,-0.35621 0.63059,-0.0848 3.01184,-0.1564 5.29167,-0.15919 5.91862,-0.007 10.62661,0.65355 12.52361,1.75777 0.43656,0.25412 0.91281,0.51986 1.05833,0.59054 0.81885,0.39771 2.99003,2.01438 3.68748,2.74571 0.89897,0.94264 2.32825,2.92094 2.68686,3.71896 1.43531,3.19402 2.16847,6.26745 2.36077,9.89648 0.13272,2.5046 0.57034,6.31876 0.90859,7.9188 0.36508,1.72699 1.18826,4.40656 2.00495,6.52639 0.20557,0.53357 0.45422,1.24795 0.55256,1.5875 0.0983,0.33954 0.2508,0.69276 0.3388,0.78493 0.088,0.0922 0.16269,0.2906 0.16598,0.44097 0.003,0.15037 0.15935,0.5909 0.34679,0.97896 0.18745,0.38805 0.3435,0.82929 0.34679,0.98052 0.003,0.15123 0.12253,0.42904 0.26496,0.61736 0.14244,0.18832 0.2615,0.44946 0.26459,0.58032 0.003,0.13086 0.11653,0.48805 0.25211,0.79375 0.13558,0.3057 0.53609,1.30989 0.89003,2.23152 0.35393,0.92163 0.75894,1.90041 0.90002,2.17506 0.14108,0.27465 0.2565,0.63651 0.2565,0.80413 0,0.16763 0.11654,0.45885 0.25897,0.64717 0.14244,0.18831 0.26199,0.46145 0.26567,0.60697 0.004,0.14552 0.11125,0.4649 0.23903,0.70973 0.12777,0.24483 0.31997,0.6814 0.42709,0.97014 0.10712,0.28875 0.35927,0.96044 0.56034,1.49264 0.20106,0.53221 0.36557,1.05281 0.36557,1.15689 0,0.28992 -3.30699,3.61558 -4.47464,4.4999 -1.98373,1.50238 -4.47812,2.95597 -6.50685,3.79182 -0.60563,0.24953 -1.33928,0.55773 -1.63032,0.6849 -0.29104,0.12717 -0.92604,0.37001 -1.41111,0.53964 -0.48507,0.16963 -1.13207,0.41782 -1.43777,0.55152 -0.3057,0.13371 -0.76733,0.2431 -1.02583,0.2431 -0.25851,0 -0.63775,0.0898 -0.84276,0.19949 -0.42672,0.22837 -1.86364,0.56799 -3.97387,0.93924 -0.80267,0.14121 -1.53436,0.30307 -1.62597,0.35969 -0.0916,0.0566 -0.94301,0.17828 -1.89199,0.27036 -0.94898,0.0921 -2.32073,0.24423 -3.04834,0.3381 -1.49511,0.1929 -7.87225,0.19941 -9.34861,0.01 z m -7.06836,-7.16729 c 0.72814,-0.92568 0.35227,-2.13719 -0.81428,-2.62461 -0.81276,-0.33959 -1.1944,-0.33046 -1.78086,0.0426 -0.64571,0.41074 -0.73759,0.56658 -0.74074,1.25643 -0.002,0.43895 0.15152,0.74513 0.59702,1.19063 0.52298,0.52298 0.71319,0.59972 1.4865,0.59972 0.74791,0 0.94403,-0.0728 1.25236,-0.46476 z m 27.57659,0.15608 c 0.78429,-0.87029 0.50146,-2.28144 -0.55026,-2.74546 -0.37055,-0.16349 -0.84096,-0.29725 -1.04535,-0.29725 -0.52482,0 -1.62118,0.68386 -1.65394,1.03166 -0.0701,0.74389 0.0934,1.21738 0.60291,1.74646 0.48252,0.50106 0.66646,0.57327 1.46026,0.57327 0.64138,0 0.98992,-0.0907 1.18638,-0.30868 z m -22.62848,-1.44818 c 0.49026,-0.96099 0.5273,-4.8667 0.0538,-5.66836 -0.16644,-0.28175 -0.43343,-0.51228 -0.59331,-0.51228 -0.44841,0 -1.20265,0.85848 -1.29587,1.47498 -0.3729,2.46592 -0.25905,4.54084 0.27866,5.07855 0.56119,0.56119 1.1525,0.41955 1.55677,-0.37289 z m 5.1992,0.58894 c 0.63813,-0.24488 0.84725,-1.26698 0.93492,-4.56951 0.0861,-3.24339 -0.0763,-4.81215 -0.56779,-5.48417 -0.34064,-0.46577 -1.65775,-0.40272 -2.35493,0.11273 -0.87914,0.64997 -1.09115,1.6859 -1.09115,5.33157 0,2.93554 0.0287,3.22444 0.37598,3.78637 0.20679,0.33459 0.54414,0.67628 0.74966,0.75929 0.44713,0.18062 1.55454,0.21674 1.95331,0.0637 z m 6.18911,-0.37319 c 0.23808,-0.17103 0.4925,-0.50941 0.56539,-0.75195 0.23655,-0.78713 0.15911,-7.8028 -0.091,-8.24019 -0.29898,-0.52293 -1.32805,-0.77709 -2.33415,-0.57649 -0.43657,0.0871 -0.84123,0.16172 -0.89926,0.16595 -0.058,0.004 -0.24655,0.32047 -0.41894,0.70276 -0.26446,0.58648 -0.31688,1.25576 -0.33547,4.28347 -0.022,3.57779 -0.0207,3.59003 0.41894,4.14115 0.24254,0.30401 0.59973,0.59207 0.79375,0.64013 0.61728,0.15288 1.85278,-0.043 2.3007,-0.36483 z m 4.83025,0.018 c 0.32098,-0.40807 0.36558,-0.70853 0.36558,-2.46292 0,-1.60504 -0.072,-2.18163 -0.36602,-2.93073 -0.44308,-1.12893 -0.99482,-1.75896 -1.4796,-1.68956 -0.30993,0.0444 -0.374,0.22092 -0.46679,1.28616 -0.0592,0.6791 -0.0758,2.13975 -0.037,3.2459 0.0584,1.66441 0.13221,2.09781 0.42824,2.51355 0.45619,0.64065 1.06958,0.65548 1.55561,0.0376 z m -36.06635,-4.21353 c 0.31302,-0.34173 0.85199,-1.19501 1.19772,-1.89618 0.97961,-1.98673 1.89671,-4.00673 1.89671,-4.17769 0,-0.0855 0.10936,-0.38008 0.24301,-0.65473 0.13366,-0.27465 0.37868,-0.81686 0.54448,-1.20492 0.1658,-0.38806 0.41363,-0.93027 0.55073,-1.20492 0.1371,-0.27465 0.24928,-0.57666 0.24928,-0.67113 0,-0.0945 0.14471,-0.50477 0.32157,-0.91175 0.38308,-0.88151 0.74194,-1.77656 1.28678,-3.20942 0.22133,-0.58209 0.46594,-1.13374 0.54357,-1.2259 0.0776,-0.0922 0.14113,-0.28191 0.14113,-0.42166 0,-0.13974 0.17005,-0.61996 0.37787,-1.06715 0.20783,-0.44719 0.48564,-1.07104 0.61736,-1.38633 0.61741,-1.47785 0.77659,-1.85245 1.01297,-2.38383 0.13963,-0.31388 0.42905,-0.96756 0.64316,-1.45263 0.44866,-1.01646 0.49347,-1.10881 1.16147,-2.39394 0.27373,-0.5266 0.55904,-1.03683 0.63403,-1.13384 0.075,-0.097 0.46284,-0.60131 0.86188,-1.12067 0.94729,-1.23291 1.96002,-1.69602 4.35224,-1.99025 1.4265,-0.17544 2.0741,-0.17782 3.04599,-0.0112 0.67887,0.11641 1.43095,0.21166 1.6713,0.21166 0.55449,0 2.31109,0.58979 3.77608,1.26784 1.52928,0.70782 2.80422,0.613 5.04079,-0.37488 0.89332,-0.39457 2.38128,-0.75139 4.17078,-1.00017 2.30654,-0.32067 4.66032,-0.11568 5.94985,0.51816 1.33137,0.65441 2.56169,2.33768 4.14753,5.67446 1.36174,2.86526 1.5127,3.19812 1.95994,4.32153 0.25105,0.63059 0.52801,1.30528 0.61549,1.49931 0.0875,0.19403 0.32204,0.76949 0.52127,1.27882 0.19923,0.50932 0.52523,1.34276 0.72446,1.85208 0.19922,0.50932 0.42784,1.08479 0.50805,1.27882 0.0802,0.19403 0.28843,0.70997 0.46272,1.14653 0.1743,0.43656 0.46161,1.12674 0.63848,1.53372 0.17687,0.40699 0.32157,0.83131 0.32157,0.94293 0,0.11162 0.10528,0.41363 0.23396,0.67113 0.12867,0.25751 0.36679,0.73259 0.52916,1.05575 0.16237,0.32316 0.29522,0.67059 0.29522,0.77207 0,0.16829 0.319,0.87213 1.66219,3.66745 1.00061,2.0824 1.58396,2.82223 2.22531,2.82223 0.45177,0 0.875,-0.4768 0.875,-0.98577 0,-0.50994 -1.13813,-3.95217 -2.29851,-6.95173 -0.20641,-0.53358 -0.45746,-1.24751 -0.55789,-1.58652 -0.10043,-0.33901 -0.29258,-0.77339 -0.42699,-0.96529 -0.13442,-0.1919 -0.24691,-0.50984 -0.25,-0.70654 -0.003,-0.19669 -0.12215,-0.5117 -0.26458,-0.70002 -0.14244,-0.18832 -0.25898,-0.49357 -0.25898,-0.67834 0,-0.18477 -0.11324,-0.54663 -0.25164,-0.80413 -0.1384,-0.25751 -0.54499,-1.22225 -0.90354,-2.14389 -0.35854,-0.92163 -0.83715,-2.08017 -1.06357,-2.57452 -0.22642,-0.49436 -0.58407,-1.36749 -0.79477,-1.94028 -1.258,-3.41981 -3.3317,-7.59276 -4.31861,-8.69044 -0.96498,-1.07329 -2.75288,-2.49336 -3.1392,-2.49336 -0.14716,0 -0.3095,-0.0678 -0.36076,-0.15078 -0.0512,-0.0829 -0.59171,-0.3409 -1.20103,-0.57326 -1.00158,-0.38196 -1.37858,-0.42249 -3.93007,-0.42249 -2.7674,0 -3.67155,0.13903 -5.29167,0.81368 -2.68951,1.11998 -4.08775,1.19575 -6.2618,0.33931 -2.61839,-1.03148 -4.13275,-1.29174 -6.87917,-1.18225 -2.3153,0.0923 -3.02959,0.27176 -4.93498,1.23985 -1.22497,0.62237 -2.6739,1.85598 -3.3724,2.87121 -0.76044,1.10526 -2.17586,3.99272 -3.14378,6.41334 -0.21336,0.53358 -0.50226,1.22811 -0.642,1.5434 -0.35672,0.80489 -0.68694,1.59028 -1.05681,2.51354 -0.37816,0.94393 -0.9185,2.24243 -1.13771,2.73403 -0.17319,0.3884 -0.77675,1.92112 -1.16343,2.95452 -0.39579,1.05774 -0.81453,2.10428 -1.16065,2.90073 -0.17687,0.40699 -0.32158,0.82102 -0.32158,0.92006 0,0.16792 -0.23624,0.7688 -0.80368,2.04414 -0.42418,0.95335 -1.4576,4.22139 -1.50601,4.7625 -0.0866,0.96779 0.17765,1.37354 0.96299,1.47884 0.0839,0.0113 0.4087,-0.25914 0.72172,-0.60088 z m 30.27167,-7.94797 c 0.38533,-0.41038 0.4273,-0.60665 0.42435,-1.98438 -0.003,-1.24562 -0.0807,-1.68748 -0.42115,-2.38443 -0.55594,-1.13813 -1.52636,-2.09487 -2.42273,-2.38857 -0.64359,-0.21087 -0.826,-0.20287 -1.53339,0.0673 -0.85715,0.32735 -1.76548,1.19938 -2.26033,2.17001 -0.59854,1.17398 -0.73741,3.63876 -0.24951,4.4282 0.2619,0.42376 0.91637,0.52505 3.46415,0.53613 2.54264,0.0111 2.5757,0.006 2.99861,-0.44424 z m 11.1199,-8.88437 c 1.80968,-0.5357 2.45167,-1.66316 1.97858,-3.47481 -0.14602,-0.55918 -0.41878,-1.31715 -0.60612,-1.68437 -0.45252,-0.88702 -2.22877,-2.60444 -3.18493,-3.07945 -1.91635,-0.95202 -2.25891,-1.03077 -4.46529,-1.02651 l -2.12146,0.004 -1.05936,0.64397 c -0.94408,0.57389 -1.84051,1.46897 -1.85705,1.85424 -0.003,0.0767 -0.15934,0.45693 -0.34679,0.84499 -0.18744,0.38806 -0.3435,0.85953 -0.34679,1.04771 -0.003,0.18819 -0.0997,0.7958 -0.2142,1.35024 -0.16186,0.78365 -0.16004,1.22333 0.008,1.97506 0.30623,1.36838 0.62407,1.59253 2.46349,1.73726 2.15117,0.16926 8.98545,0.0344 9.75173,-0.19243 z m -16.76144,-0.13082 c 0.14107,-0.14112 0.21642,-1.03979 0.22924,-2.73403 0.0163,-2.14676 -0.0313,-2.62922 -0.31796,-3.22937 -0.3906,-0.81764 -0.9595,-1.6618 -1.33865,-1.98633 -1.16909,-1.00069 -3.54134,-1.56859 -5.29166,-1.26679 -2.29753,0.39614 -3.87262,1.20487 -5.22186,2.68115 -1.10195,1.20572 -1.65731,2.57163 -1.65731,4.0762 0,1.34197 0.44492,2.07961 1.58157,2.62211 0.47778,0.22804 11.77898,0.0748 12.01663,-0.16294 z m 90.206656,29.15192 c -1.36842,-0.38318 -3.13808,-1.03639 -4.58611,-1.69278 -0.38806,-0.17591 -1.26118,-0.56934 -1.94028,-0.87431 -2.13179,-0.95732 -2.46233,-1.11039 -2.73403,-1.26615 -0.14552,-0.0834 -0.38364,-0.19659 -0.52916,-0.25148 -0.14552,-0.0549 -0.38365,-0.17226 -0.52917,-0.26083 -0.14552,-0.0886 -0.52255,-0.27723 -0.83785,-0.41925 -0.37649,-0.16958 -0.57326,-0.38239 -0.57326,-0.61999 0,-0.36148 0.0107,-0.36178 13.27326,-0.37163 7.3003,-0.005 13.67014,-0.0164 14.15521,-0.0243 0.48507,-0.008 1.11406,-0.004 1.39776,0.01 l 0.51582,0.0243 -0.41142,0.43794 c -0.22629,0.24087 -0.57747,0.48969 -0.78041,0.55294 -0.20293,0.0632 -0.40871,0.17617 -0.45727,0.25094 -0.14942,0.23004 -6.03162,3.16791 -6.34278,3.16791 -0.16085,0 -0.44654,0.11653 -0.63486,0.25897 -0.18832,0.14243 -0.44946,0.2615 -0.58032,0.26458 -0.13086,0.003 -0.48805,0.12037 -0.79375,0.26064 -1.01698,0.46661 -3.64607,0.98 -4.93538,0.96374 -0.72449,-0.009 -1.86776,-0.18476 -2.676,-0.41109 z m -22.02167,-3.9914 c -1.34338,-0.0723 -2.52682,-0.21573 -2.62987,-0.31878 -0.11116,-0.11116 -0.24007,-1.67893 -0.31694,-3.85458 -0.16003,-4.52903 -0.3356,-5.97502 -1.23776,-10.1936 -0.10374,-0.48507 -0.26734,-1.39788 -0.36357,-2.02847 -0.2007,-1.31526 -0.35051,-1.51189 -1.61267,-2.11667 -1.28911,-0.61769 -1.39582,-0.90121 -1.31119,-3.48399 0.0771,-2.35248 0.22066,-2.7203 1.15214,-2.95142 1.26067,-0.31279 1.71022,-1.6908 0.77001,-2.3603 -0.27271,-0.19418 -0.70602,-0.40581 -0.96291,-0.47028 -0.84409,-0.21186 -0.92254,-0.4776 -0.92227,-3.12422 l 1.8e-4,-2.45743 0.49466,-0.42549 c 0.27205,-0.23401 0.7085,-0.42635 0.96988,-0.42742 0.26138,-10e-4 0.76185,-0.0494 1.11215,-0.10729 0.57182,-0.0946 0.67296,-0.19805 0.98958,-1.0123 0.19396,-0.49882 0.53079,-1.50226 0.74851,-2.22986 0.21771,-0.7276 0.50662,-1.57304 0.64202,-1.87874 0.13539,-0.3057 0.24617,-0.64413 0.24617,-0.75205 0,-0.10792 0.0737,-0.33405 0.16375,-0.50251 0.32131,-0.60083 0.89466,-1.91938 0.89466,-2.05727 0,-0.30319 1.88292,-3.26379 2.92493,-4.59901 1.10467,-1.41551 3.90985,-4.3408 5.03093,-5.24634 2.02714,-1.63742 3.598,-2.63635 5.62608,-3.57773 0.53358,-0.24767 1.19486,-0.56623 1.46951,-0.70791 0.27465,-0.14169 0.61721,-0.25761 0.76125,-0.25761 0.14403,0 0.43526,-0.0957 0.64716,-0.21274 0.53189,-0.29371 2.02256,-0.83759 2.76653,-1.00938 0.33955,-0.0784 0.83887,-0.20211 1.1096,-0.27489 l 0.49225,-0.13233 -0.0513,1.53981 -0.0513,1.53982 -1.94027,0.7058 c -1.66486,0.60561 -5.03276,2.15305 -6.17308,2.83632 -2.76364,1.65596 -6.91774,5.83928 -8.40946,8.4686 -0.0653,0.11502 -0.35596,0.61574 -0.64601,1.11271 -0.29005,0.49697 -0.81868,1.60822 -1.17474,2.46945 -0.35607,0.86122 -0.7548,1.81584 -0.88607,2.12136 -0.13128,0.30552 -0.29247,0.84218 -0.3582,1.19257 -0.0657,0.35039 -0.18531,0.67774 -0.26572,0.72743 -0.0804,0.0497 -0.20177,0.46554 -0.26968,0.9241 -0.0679,0.45855 -0.23124,1.14137 -0.36297,1.51737 -0.13172,0.376 -0.24043,0.93162 -0.24158,1.23472 -10e-4,0.3031 -0.12254,0.98765 -0.26976,1.52123 -0.21173,0.76745 -0.27009,2.13098 -0.27932,6.52639 -0.0115,5.50087 0.10858,7.11084 0.75018,10.05416 0.0952,0.43657 0.24462,1.1255 0.33213,1.53097 0.20155,0.93382 0.89102,3.12642 1.65583,5.26569 0.44448,1.24328 2.64678,5.35724 3.19518,5.96871 0.37651,0.4198 0.79146,1.16834 0.79146,1.42773 0,0.30554 -0.69299,0.31741 -5.00014,0.0857 z m 44.55535,-0.17315 c -0.52153,-0.20963 -0.50398,-0.32967 0.1825,-1.24796 0.31865,-0.42626 0.73228,-1.01314 0.91918,-1.30418 0.55263,-0.86062 2.19665,-4.21092 2.20715,-4.49792 0.005,-0.14552 0.12622,-0.41866 0.26865,-0.60698 0.14244,-0.18831 0.25898,-0.49382 0.25898,-0.6789 0,-0.18507 0.10731,-0.58662 0.23847,-0.89232 0.36855,-0.859 1.00891,-3.41036 1.35696,-5.40652 0.093,-0.53358 0.30657,-1.68452 0.47453,-2.55764 0.43874,-2.28074 0.44352,-11.37018 0.007,-13.31736 -0.16312,-0.72761 -0.37482,-1.71979 -0.47045,-2.20486 -0.54748,-2.777 -1.35422,-5.35962 -2.31841,-7.42188 -0.28756,-0.61505 -0.52283,-1.15884 -0.52283,-1.20841 0,-0.21171 -1.88739,-3.27605 -2.61526,-4.2461 -1.19422,-1.59157 -4.553,-4.85552 -5.85141,-5.68621 -0.63059,-0.40343 -1.22595,-0.7972 -1.32302,-0.87504 -0.25807,-0.20695 -2.69289,-1.38137 -3.61587,-1.74409 -0.43656,-0.17156 -1.12674,-0.45664 -1.53373,-0.63351 -0.40698,-0.17686 -0.81361,-0.32157 -0.90361,-0.32157 -0.09,0 -0.52039,-0.1578 -0.9564,-0.35067 -0.69055,-0.30546 -0.80689,-0.43622 -0.90242,-1.01424 -0.15739,-0.95222 -0.13394,-1.85753 0.0559,-2.15769 0.13706,-0.21671 0.26206,-0.22397 0.75948,-0.0441 0.32748,0.11842 0.69685,0.21531 0.82082,0.21531 0.12397,0 0.47553,0.10721 0.78123,0.23825 0.3057,0.13103 1.03207,0.41627 1.61416,0.63386 2.11074,0.78901 3.18769,1.29764 5.20347,2.45753 5.52525,3.17927 10.04931,8.46101 12.25654,14.30925 0.16476,0.43656 0.40598,1.03188 0.53604,1.32292 0.13006,0.29104 0.40986,1.08479 0.62177,1.76389 0.3853,1.23468 0.76369,2.23612 1.03303,2.734 0.15992,0.2956 1.00169,0.62821 2.00044,0.79043 1.04998,0.17053 1.21077,0.66968 1.15194,3.57607 l -0.0491,2.4245 -0.56088,0.28028 c -1.22961,0.61445 -1.46759,0.85071 -1.46759,1.45692 0,0.67008 0.52327,1.2563 1.29169,1.44707 0.72659,0.18039 0.8401,0.69516 0.78546,3.56192 l -0.0487,2.55399 -0.97013,0.35612 c -1.30493,0.47902 -1.36189,0.53949 -1.59196,1.69031 -0.20119,1.00635 -0.46246,2.24471 -0.9554,4.52839 -0.14658,0.67909 -0.31519,1.59191 -0.37468,2.02847 -0.0595,0.43656 -0.18667,1.05196 -0.28262,1.36755 -0.0959,0.31559 -0.22774,2.01714 -0.29288,3.78122 l -0.11844,3.20741 -0.79375,0.20368 c -0.87883,0.22552 -2.15465,0.83665 -2.80191,1.34216 -0.33005,0.25776 -0.71001,0.32613 -1.76389,0.31735 -0.73877,-0.006 -1.52182,-0.083 -1.7401,-0.1707 z m -36.72852,-5.07421 c -1.26781,-0.0506 -1.94474,-0.32417 -1.94474,-0.78591 0,-0.0916 -0.11552,-0.41661 -0.2567,-0.72231 -0.28025,-0.6068 -0.58559,-1.438 -1.27332,-3.46624 -0.24672,-0.72761 -0.51985,-1.48167 -0.60696,-1.6757 -0.15408,-0.34317 -0.28147,-0.90792 -0.65653,-2.91041 -0.74182,-3.96075 -0.89536,-7.99698 -0.48761,-12.81829 0.27907,-3.29973 0.89233,-7.3419 1.17291,-7.73102 0.07,-0.097 0.18067,-0.4542 0.24603,-0.79375 0.0654,-0.33955 0.18644,-0.77611 0.26906,-0.97014 0.0826,-0.19403 0.30657,-0.70996 0.49764,-1.14653 0.19108,-0.43656 0.39096,-0.92428 0.44418,-1.08382 0.0532,-0.15954 0.55283,-1.03266 1.11023,-1.94027 1.343,-2.18681 4.93199,-5.82136 7.21398,-7.30556 2.59179,-1.68569 3.87727,-2.25298 5.14082,-2.26868 0.76893,-0.01 1.17896,0.0706 1.41111,0.27581 0.37542,0.33187 2.67854,0.68086 4.49322,0.68086 1.75776,0 3.86495,-0.3459 4.52259,-0.74239 0.62541,-0.37705 1.57591,-0.33509 2.60032,0.11481 2.20576,0.96872 4.26639,2.1269 5.54697,3.11768 1.472,1.13889 3.71345,3.32752 3.71345,3.62595 0,0.0822 0.17859,0.34985 0.39687,0.59491 0.21828,0.24505 0.56297,0.6808 0.76599,0.96833 0.48145,0.68191 2.18852,4.21567 2.18852,4.5304 0,0.13385 0.0799,0.32324 0.1775,0.42086 0.0976,0.0976 0.29699,0.60959 0.44304,1.13771 0.75275,2.72204 0.99281,3.69887 1.14627,4.66438 0.0925,0.58208 0.25767,1.45521 0.36701,1.94027 0.3302,1.46488 0.28212,10.09564 -0.0663,11.90625 -0.1587,0.82462 -0.36635,1.93587 -0.46145,2.46945 -0.37376,2.09708 -0.92467,4.03878 -1.87671,6.61458 -0.35858,0.97014 -0.75139,2.03268 -0.87291,2.36121 -0.12153,0.32852 -0.35726,0.67359 -0.52386,0.76683 -0.18387,0.1029 -2.67108,0.14362 -6.32919,0.10362 l -6.02629,-0.0659 -1.14653,-0.61275 -1.14653,-0.61275 h -3.79236 -3.79236 l -0.9274,0.57247 c -0.8305,0.51265 -1.10694,0.58289 -2.64583,0.67226 -2.08761,0.12123 -7.22585,0.18593 -9.03411,0.11376 z m 14.63581,-9.29116 c 2.02727,-0.49573 2.28149,-0.50774 3.63161,-0.17154 1.93888,0.48282 2.01341,0.25178 0.46981,-1.45617 -1.85998,-2.058 -2.07013,-2.23123 -2.45318,-2.02209 -0.40148,0.2192 -3.94129,3.80198 -3.94129,3.98913 0,0.15643 0.67293,0.0568 2.29305,-0.33933 z m -9.84929,-5.91387 -0.0597,-2.20486 -0.77814,-0.99934 c -0.92168,-1.18368 -0.97578,-1.69695 -0.27314,-2.59125 0.82162,-1.04572 1.0345,-1.6207 1.16856,-3.15628 0.0783,-0.89683 0.20461,-1.4572 0.32918,-1.46038 0.11117,-0.003 -0.0571,-0.24097 -0.37392,-0.52917 -0.43972,-0.39999 -0.74511,-0.524 -1.29042,-0.524 -1.62308,0 -1.99401,0.71611 -2.23852,4.32153 -0.34956,5.1547 -0.21101,7.43468 0.50806,8.3602 0.48388,0.62281 1.50765,1.06649 2.3622,1.02372 l 0.70556,-0.0353 z m 2.08228,1.99575 c 1.04637,-0.38904 2.64818,-1.4018 2.66484,-1.68488 0.007,-0.12247 0.002,-2.30139 -0.012,-4.84204 -0.0173,-3.18358 0.0378,-4.73695 0.17735,-4.99766 0.16386,-0.30618 0.1444,-0.44244 -0.1021,-0.71482 -0.57481,-0.63517 -1.7898,-1.22163 -2.53088,-1.22163 -0.64295,0 -0.76127,0.0717 -1.15922,0.70206 -0.24375,0.38612 -0.44224,0.96159 -0.44109,1.27881 0.004,0.99523 0.45629,2.33766 1.12121,3.32501 0.35232,0.52317 0.64059,1.16259 0.64059,1.42092 0,0.25834 -0.27629,0.88027 -0.61399,1.38208 -0.7457,1.1081 -0.90654,1.7068 -1.05575,3.92967 -0.13172,1.96233 -0.13407,1.95978 1.31106,1.42248 z m 20.53953,-0.24539 c 0.37841,-0.44972 0.45665,-0.7211 0.45665,-1.58393 0,-1.09884 -0.20563,-1.7929 -1.11126,-3.75082 l -0.55651,-1.20315 0.33728,-0.56074 c 1.00832,-1.67639 1.23043,-2.32336 1.29872,-3.78298 0.0908,-1.94134 -0.14089,-2.33402 -1.37727,-2.33402 -1.21127,0 -1.91529,0.62895 -2.35074,2.10008 -0.27818,0.93981 -0.31289,1.63091 -0.26458,5.26756 0.0652,4.90615 0.16912,5.30635 1.55491,5.98655 1.07883,0.52953 1.4735,0.50236 2.0128,-0.13855 z m 3.06189,0.12166 c 0.36187,-0.23157 1.05483,-0.78953 1.5399,-1.23991 0.71676,-0.66551 0.83239,-0.84963 0.61736,-0.9831 -0.19699,-0.12226 -0.28712,-0.62788 -0.35278,-1.97918 -0.0983,-2.02267 0.0578,-5.94759 0.26785,-6.73655 0.31199,-1.17168 -1.1932,-2.48294 -2.71881,-2.36851 -0.74445,0.0558 -0.78402,0.0879 -0.9957,0.80805 -0.28514,0.97004 -0.0203,3.33801 0.49804,4.45357 0.47658,1.02561 0.47922,1.88961 0.008,2.55764 -0.54988,0.77927 -0.84765,2.97513 -0.57992,4.27658 0.36623,1.78026 0.58547,1.93501 1.71623,1.21141 z m -30.46118,-2.8777 c 0.23517,-0.61854 0.20401,-5.87513 -0.0391,-6.59682 -0.33369,-0.99058 -0.49784,-1.10743 -0.95385,-0.67903 -1.11785,1.05016 -1.16703,4.98419 -0.0897,7.1731 0.40426,0.82137 0.79532,0.85848 1.08264,0.10275 z m 34.33819,0.14571 c 0.44072,-0.5961 0.89394,-2.87736 0.831,-4.18277 -0.10209,-2.11743 -0.71072,-3.60031 -1.47769,-3.60031 -0.38262,0 -0.79635,0.43977 -0.64465,0.68522 0.0583,0.0943 0.11507,1.78453 0.12615,3.75599 0.0198,3.51941 0.0698,3.83868 0.60289,3.84636 0.10303,10e-4 0.35606,-0.22553 0.5623,-0.50449 z m -23.28967,-0.33065 c 1.29122,-1.42809 1.55017,-2.73465 0.95467,-4.81699 -0.42792,-1.49636 -1.40805,-3.34099 -1.77522,-3.341 -0.0545,0 -0.0991,1.98437 -0.0991,4.40971 0,2.53717 0.0683,4.40972 0.1608,4.40973 0.0884,0 0.42993,-0.29765 0.75887,-0.66145 z m 11.69804,-0.32421 c 0.20842,-0.54818 0.26324,-4.34127 0.0832,-5.75593 -0.15585,-1.22447 -0.44482,-1.54573 -0.94263,-1.04792 -0.71073,0.71073 -0.71968,4.94916 -0.0137,6.49884 0.39792,0.87348 0.62665,0.95339 0.87316,0.30501 z m -7.50243,-31.26478 -0.52916,-0.12038 v -2.99688 -2.99688 h 2.02847 2.02847 l 0.0486,2.89708 c 0.0267,1.5934 -0.0129,2.95462 -0.0882,3.02495 -0.1993,0.18628 -2.86778,0.33324 -3.4882,0.19211 z M 30.115834,77.3588 c -0.72005,-0.0621 -2.31596,-0.50187 -3.11346,-0.85803 -0.3057,-0.13652 -0.60259,-0.24822 -0.65974,-0.24822 -0.2988,0 -2.60208,-1.74432 -3.34292,-2.53165 -1.61775,-1.71927 -2.34773,-3.02588 -3.11868,-5.58224 -0.6331,-2.09927 -1.52997,-3.811988 -3.97174,-7.584724 -1.89487,-2.927751 -2.62683,-4.864235 -2.63354,-6.967362 -0.007,-2.031141 0.35953,-2.82034 2.08533,-4.496576 1.72355,-1.674052 1.80608,-1.989306 2.03219,-7.762451 0.20432,-5.216894 0.4082,-6.230121 1.52727,-7.590333 0.68286,-0.830002 1.0797,-1.047103 2.47399,-1.353461 1.28688,-0.282756 3.31782,-0.312222 24.89966,-0.361274 l 23.49849,-0.05341 0.47738,0.754585 c 1.80233,2.848934 2.18092,4.357798 2.29159,9.133056 0.11977,5.167664 0.2495,5.592611 2.45019,8.025695 1.10402,1.220614 1.53427,2.280373 1.53964,3.792361 0.007,2.006582 -0.79,4.030054 -2.61772,6.644949 -0.42847,0.613011 -0.77904,1.150632 -0.77904,1.194715 0,0.04408 -0.22977,0.421474 -0.5106,0.838646 -1.00092,1.48686 -3.00578,5.792964 -3.02218,6.491134 -0.003,0.14552 -0.12275,0.41866 -0.26519,0.60698 -0.14243,0.18831 -0.25898,0.46613 -0.25899,0.61736 -5e-5,0.47072 -1.75625,3.05329 -2.70858,3.98307 -1.74579,1.70445 -3.45211,2.55813 -6.03547,3.01956 -1.42264,0.25411 -1.84444,0.26517 -2.94069,0.0771 -1.78722,-0.3066 -3.47124,-0.86011 -4.13878,-1.36034 -0.74836,-0.56079 -0.93065,-1.29556 -0.93503,-3.76874 -0.004,-2.11637 -0.30725,-3.89304 -0.83672,-4.89806 -0.37176,-0.70565 -1.15093,-0.96155 -2.45946,-0.80777 -1.14154,0.13417 -1.81728,-0.11453 -2.85026,-1.049015 -0.68411,-0.618876 -0.8431,-0.684914 -1.45223,-0.603211 -0.39154,0.05252 -0.98021,0.326336 -1.37672,0.64038 -0.83545,0.661686 -2.58228,1.249626 -3.71279,1.249626 -1.2658,0 -1.51691,0.45334 -1.7677,3.19136 -0.51559,5.6289 -0.48462,5.49298 -1.40027,6.14498 -0.28196,0.20078 -0.65915,0.36553 -0.83821,0.36613 -0.17905,5.3e-4 -0.53734,0.11159 -0.7962,0.24665 -0.25885,0.13505 -0.81448,0.29815 -1.23472,0.36245 -0.42024,0.0643 -0.96251,0.18483 -1.20504,0.26787 -0.58321,0.19967 -1.53041,0.29394 -2.29306,0.2282 z m 0.84406,-4.22453 c 0.8121,-0.50207 1.81518,-1.52409 2.1695,-2.21046 0.67498,-1.30753 0.30063,-3.20245 -0.79414,-4.01988 -0.51633,-0.38552 -1.86807,-0.85248 -2.51347,-0.86827 -0.77568,-0.019 -1.98117,0.534 -2.64361,1.21268 -1.28886,1.32044 -1.12412,3.9564 0.3257,5.21149 1.06286,0.92011 2.57982,1.21614 3.45602,0.67444 z m 30.024,0.0315 c 0.12077,-0.14552 0.29245,-0.26458 0.38152,-0.26458 0.34665,0 1.2353,-0.813 1.6307,-1.49188 1.24842,-2.14348 0.40916,-4.41043 -1.90257,-5.13914 -0.87181,-0.27481 -1.11754,-0.28763 -1.83509,-0.0957 -1.32058,0.3532 -1.67519,0.58944 -2.28602,1.52296 -0.47632,0.72793 -0.57363,1.04456 -0.56867,1.85036 0.01,1.5809 0.8034,2.88938 2.11831,3.49236 0.9514,0.43628 2.15311,0.49761 2.46182,0.12563 z m -28.2152,-16.319555 c 0.61033,-0.311366 0.69853,-0.433351 0.69853,-0.966073 0,-0.893287 -0.58674,-1.230276 -1.87787,-1.078529 -1.33695,0.157133 -2.70824,0.758644 -2.70824,1.187962 0,0.182081 -0.011,0.390588 -0.0244,0.463349 -0.0134,0.07276 0.24454,0.267386 0.57327,0.4325 0.84936,0.426618 2.46278,0.40767 3.33874,-0.03921 z m 27.56424,0.09445 c 0.34476,-0.144052 0.67562,-0.340849 0.73525,-0.437327 0.56752,-0.918266 -3.12356,-2.246441 -4.22938,-1.521876 -0.3295,0.215897 -0.44102,0.442987 -0.44102,0.898049 0,0.524155 0.0922,0.657772 0.66146,0.958277 0.80701,0.426035 2.38182,0.475525 3.27369,0.102877 z m -22.6464,-1.444235 c 1.36077,-0.663381 1.5277,-0.770059 2.1604,-1.380659 0.74193,-0.716012 1.02729,-1.38267 1.02797,-2.401559 5.3e-4,-0.73563 -0.0934,-1.110021 -0.36492,-1.455209 -0.44408,-0.56455 -0.72377,-0.568076 -1.75109,-0.02208 -0.43656,0.232023 -0.99219,0.524995 -1.23472,0.651047 -0.72409,0.37633 -1.22346,0.877422 -1.78678,1.792935 -0.4412,0.717039 -0.53405,1.056755 -0.53934,1.973284 -0.004,0.608921 0.0469,1.193287 0.11194,1.298589 0.21848,0.353503 1.03819,0.196099 2.37654,-0.456352 z m 16.70859,-0.155716 c 0.76384,-0.763838 0.41381,-1.661625 -1.34146,-3.440765 -0.53113,-0.538348 -1.8985,-1.576539 -2.07641,-1.576539 -0.0994,0 -0.27953,-0.119062 -0.4003,-0.264583 -0.33061,-0.398352 -0.81333,-0.319273 -1.22192,0.200176 -0.45219,0.574855 -0.49291,1.947627 -0.0834,2.810634 0.3443,0.725572 1.74933,2.016273 2.19487,2.016273 0.17838,0 0.37261,0.07812 0.43162,0.173595 0.12433,0.201168 1.05223,0.492906 1.64134,0.516052 0.22269,0.0087 0.60773,-0.18693 0.85565,-0.434843 z m -7.68997,-2.464195 c 0.32789,-0.169559 0.52597,-0.414256 0.53544,-0.661458 0.0935,-2.4391 -0.32481,-3.394927 -1.56821,-3.583409 -1.0856,-0.16456 -1.97656,0.02604 -2.48134,0.530821 -0.38028,0.380273 -0.4478,0.633592 -0.51618,1.936418 l -0.0787,1.498911 0.59489,0.259526 c 0.8059,0.351577 2.84972,0.362739 3.51407,0.01919 z m 15.41635,-7.484487 c 0.83503,-0.550439 2.53145,-2.469739 2.95735,-3.345891 0.2157,-0.443717 0.48222,-1.441759 0.59228,-2.21787 0.11007,-0.776111 0.30651,-1.905007 0.43655,-2.508657 0.13005,-0.603651 0.19448,-1.139508 0.14319,-1.190793 -0.13272,-0.132725 -18.65396,-0.125213 -18.86894,0.0077 -0.17361,0.1073 0.23754,0.534783 2.40127,2.49666 1.36163,1.234613 1.36558,1.23785 2.82222,2.316431 0.6791,0.502842 1.3141,0.973534 1.41111,1.045982 1.54772,1.155815 4.4246,2.765702 6.08542,3.405368 1.04728,0.403366 1.39649,0.401829 2.01955,-0.0089 z m -31.70297,-0.469161 c 2.09268,-0.894398 6.50068,-3.532399 7.43909,-4.45198 0.16268,-0.159413 0.6478,-0.527967 1.07804,-0.819009 0.86421,-0.584598 2.99823,-2.632336 2.99823,-2.877005 0,-0.08532 -0.15036,-0.2912 -0.33414,-0.457517 -0.30387,-0.275003 -0.99555,-0.303274 -7.63588,-0.312117 -4.98818,-0.0067 -7.62142,0.05664 -8.31068,0.199732 -1.27959,0.265642 -2.06375,0.889612 -2.06375,1.642167 0,0.484076 0.48752,2.250666 0.88746,3.215851 0.86924,2.097769 1.17607,2.624648 1.95006,3.348622 0.84208,0.787671 0.86527,0.796517 2.08783,0.796517 0.74603,0 1.50098,-0.113123 1.90374,-0.285261 z m 14.01203,32.332649 c -0.49874,-0.60094 -0.72868,-6.32805 -0.35691,-8.88914 0.22299,-1.53611 0.3692,-1.81519 0.95094,-1.81519 0.35712,0 0.43527,0.15104 0.70463,1.36176 0.2481,1.11516 0.28657,1.9377 0.21242,4.54202 -0.0923,3.24241 -0.28609,4.41927 -0.79227,4.81184 -0.35941,0.27874 -0.47967,0.27685 -0.71881,-0.0113 z m 85.747696,-0.5975 c -0.28136,-0.0545 -0.41479,-0.23324 -0.47574,-0.63743 -0.0466,-0.30897 -0.13274,-6.31645 -0.19144,-13.349958 -0.11146,-13.353404 -0.19957,-17.781825 -0.36844,-18.519066 -0.12336,-0.538503 -0.36043,-0.701115 -1.02728,-0.704622 -0.28251,-0.0014 -0.91751,-0.116494 -1.41111,-0.255573 -1.26802,-0.35729 -3.72137,-0.85621 -6.63008,-1.34831 -0.63059,-0.106685 -1.5883,-0.306 -2.12824,-0.442923 -0.53994,-0.136922 -1.25432,-0.249393 -1.5875,-0.249934 -0.33319,-5.3e-4 -0.89109,-0.08023 -1.23978,-0.177095 -0.34869,-0.09686 -1.22181,-0.289413 -1.94028,-0.427896 -2.64578,-0.509972 -3.18207,-0.654627 -3.81805,-1.029863 l -0.64968,-0.383321 0.52239,-0.125532 c 1.15679,-0.277982 13.1782,-0.553084 24.1585,-0.552849 10.19867,1.76e-4 23.56604,0.276165 24.74575,0.510834 0.94659,0.188296 -0.0809,0.67775 -2.69714,1.284819 -0.97014,0.225109 -2.15004,0.520125 -2.62199,0.655588 -0.47196,0.135465 -1.11769,0.246299 -1.43496,0.246299 -0.31726,0 -0.96299,0.112797 -1.43495,0.250659 -0.47195,0.137862 -1.4931,0.346348 -2.26921,0.463303 -3.03411,0.457218 -6.26758,0.997278 -8.29028,1.384655 l -1.5875,0.304031 -0.0882,16.444025 c -0.077,14.360149 -0.12173,16.465219 -0.35278,16.611249 -0.25525,0.16133 -6.38542,0.20308 -7.18202,0.0489 z m -6.66451,-0.40075 c -0.68992,-0.20067 -2.02195,-0.67631 -2.46945,-0.88178 -0.96969,-0.44525 -2.02006,-0.8868 -2.10953,-0.8868 -0.10661,0 -1.3855,-0.59595 -7.94463,-3.7021 -4.17641,-1.97778 -5.60077,-2.73673 -5.94664,-3.16857 -0.34785,-0.43431 -0.35583,-0.5893 -0.23653,-4.59461 0.0679,-2.279826 0.19575,-4.542014 0.28412,-5.027083 0.22404,-1.229861 0.42052,-6.585961 0.27086,-7.383724 -0.0957,-0.509831 -0.41562,-0.939013 -1.41874,-1.902987 -1.79756,-1.727412 -1.91529,-2.169053 -1.92087,-7.20565 -0.005,-4.456716 0.24398,-5.910012 1.23566,-7.214332 0.32455,-0.426874 0.67596,-1.062713 0.7809,-1.412976 0.28643,-0.956028 0.10243,-13.396754 -0.21591,-14.598001 -0.32684,-1.23332 -0.85832,-1.764518 -1.9102,-1.909189 -0.9958,-0.136957 -2.123346,-0.964805 -2.123346,-1.558966 0,-0.825496 1.012156,-1.497942 3.239956,-2.152523 0.85641,-0.251634 1.49585,-0.287816 3.70417,-0.209599 1.46799,0.052 2.90719,0.179138 3.19823,0.282539 0.29105,0.103401 0.72761,0.230579 0.97014,0.282618 0.6641,0.142492 1.25711,0.726483 1.39082,1.369681 0.33621,1.617197 -0.19231,1.911661 -3.52731,1.965232 -1.48137,0.02379 -2.52734,0.11546 -2.64355,0.231669 -0.13684,0.136837 -0.16921,4.050996 -0.11226,13.572306 0.0704,11.776539 0.1146,13.483403 0.36855,14.24274 0.37558,1.12305 0.54849,1.311257 1.32238,1.439347 0.35405,0.0586 0.88186,0.212318 1.1729,0.341588 1.22183,0.542695 4.41657,2.117769 4.49792,2.217564 0.0485,0.05951 0.48507,0.336238 0.97014,0.614952 1.30973,0.752551 4.94085,4.478881 6.0939,6.253683 1.20574,1.855927 1.21513,1.872326 2.11906,3.704167 0.40692,0.824618 0.84875,1.709989 0.98185,1.967492 0.13309,0.257503 0.24199,0.563007 0.24199,0.678898 0,0.115891 0.11078,0.460832 0.24618,0.766535 0.13539,0.305703 0.40794,1.111449 0.60566,1.790547 0.19771,0.679097 0.48381,1.660552 0.63576,2.181022 0.15196,0.52046 0.27629,1.13069 0.27629,1.35606 0,0.22538 0.12406,0.9447 0.27569,1.5985 0.34913,1.50546 0.44542,6.47131 0.13157,6.78611 -0.26649,0.26729 -1.74139,0.36759 -2.43573,0.16564 z m 17.85937,-0.006 c -0.24778,-0.15425 -0.30847,-0.44271 -0.30765,-1.46221 5.2e-4,-0.69853 0.0833,-1.74631 0.1838,-2.32839 0.10054,-0.58209 0.25723,-1.53459 0.34822,-2.11667 0.40649,-2.60053 1.65755,-7.591194 2.21754,-8.846101 0.13641,-0.305703 0.25055,-0.66289 0.25363,-0.79375 0.003,-0.130859 0.12215,-0.392003 0.26459,-0.580319 0.14243,-0.188317 0.25897,-0.442033 0.25897,-0.563813 0,-0.836625 3.03452,-4.969628 5.49559,-7.484967 1.65143,-1.687846 4.35799,-4.04424 4.64522,-4.04424 0.0629,0 0.46048,-0.238125 0.8835,-0.529166 0.42301,-0.291042 0.82794,-0.529167 0.89983,-0.529167 0.0719,0 0.25604,-0.107207 0.4092,-0.23824 0.33084,-0.283045 1.77033,-0.758322 2.79116,-0.921559 0.71468,-0.114282 0.73402,-0.103622 1.02654,0.565758 0.54126,1.238603 0.93278,3.838154 1.48419,9.854458 0.1067,1.164166 0.30687,3.267604 0.44482,4.674305 0.13795,1.406702 0.29835,3.458909 0.35645,4.560461 0.0917,1.73978 0.0659,2.04673 -0.19694,2.33715 -0.16641,0.18388 -0.36676,0.33433 -0.44522,0.33433 -0.0785,0 -1.07818,0.44194 -2.22162,0.98209 -1.14343,0.54014 -2.23772,1.05066 -2.43175,1.13448 -0.19402,0.0838 -1.27451,0.59438 -2.40108,1.13458 -1.12656,0.5402 -2.10058,0.98219 -2.16447,0.98219 -0.0639,0 -0.6106,0.23198 -1.21489,0.51552 -2.05781,0.96553 -3.38982,1.54449 -5.06747,2.20257 -0.92163,0.36153 -1.94868,0.77685 -2.28233,0.92295 -0.7792,0.34119 -2.82209,0.49157 -3.22983,0.23775 z M 39.761274,76.12078 c -0.15421,-0.26571 -0.47006,-3.71852 -0.54001,-5.9031 -0.08,-2.50029 -0.0149,-2.67122 0.98132,-2.5756 0.5046,0.0484 0.61884,0.15288 0.8332,0.76169 0.3982,1.13096 0.45946,4.42664 0.11136,5.99126 -0.16243,0.73008 -0.41471,1.44681 -0.56064,1.59273 -0.28339,0.2834 -0.69908,0.3504 -0.82523,0.13302 z m 9.34265,-0.002 c -0.24228,-0.392 -0.52976,-3.45655 -0.54176,-5.77513 l -0.0137,-2.64584 0.63246,-0.053 c 0.80302,-0.0673 0.95246,0.12815 1.19793,1.56677 0.34896,2.04526 0.13377,6.21641 -0.35083,6.80032 -0.21517,0.25927 -0.78893,0.32565 -0.92411,0.10692 z M 109.50918,32.523303 c -0.20477,-0.12966 -0.21357,-0.418832 -0.0522,-1.717091 0.25035,-2.014497 0.46529,-2.817553 1.24404,-4.64798 1.85694,-4.364667 5.57632,-8.169412 10.49857,-10.739511 0.76449,-0.399172 1.5063,-0.725766 1.64848,-0.725766 0.14217,0 0.46918,-0.110051 0.72668,-0.244557 1.73024,-0.903787 6.61416,-1.282285 12.75772,-0.988708 2.04119,0.09754 3.7859,0.22348 3.87713,0.279864 0.0912,0.05639 0.77731,0.210154 1.52461,0.341709 1.76367,0.310478 2.82619,0.5859 3.44559,0.89315 0.27465,0.13624 0.59927,0.247708 0.72137,0.247708 0.47105,0 3.69245,1.782562 4.82334,2.668995 1.50548,1.180054 2.0509,1.728206 3.13611,3.151839 1.1309,1.483566 1.13997,1.498783 2.30476,3.869765 0.97837,1.991521 2.1852,5.375556 2.1852,6.127475 0,0.212706 0.0769,0.588896 0.1708,0.835978 0.13988,0.367913 0.11004,0.481755 -0.1648,0.628844 -0.42508,0.227497 -48.48856,0.245489 -48.84738,0.01829 z m 37.08289,-6.277608 c 1.52724,-0.246488 2.93645,-1.375849 3.2893,-2.636092 0.17969,-0.641796 0.16779,-0.84177 -0.0784,-1.317826 -0.2081,-0.402417 -0.3781,-0.533326 -0.6008,-0.462643 -0.43163,0.136992 -2.0869,0.602289 -2.93427,0.824821 -0.75375,0.197944 -2.81903,0.08769 -3.15122,-0.168235 -0.3484,-0.268409 -2.08498,-0.762396 -2.33835,-0.665169 -0.33612,0.128983 -0.3047,1.076052 0.0549,1.653956 0.62209,0.999804 1.51464,1.994895 2.05325,2.289161 0.65396,0.357281 2.16875,0.722463 2.67588,0.645097 0.19403,-0.0296 0.6574,-0.102982 1.02971,-0.16307 z m -125.913036,2.205593 -0.88195,-0.08819 -0.0524,-1.304632 c -0.12473,-3.108799 1.46022,-6.761199 4.09853,-9.44476 2.78331,-2.831041 5.01588,-3.828726 9.38364,-4.19334 3.41325,-0.284933 18.40604,-0.28601 22.20074,-0.0016 3.47662,0.260576 5.99275,0.777965 7.14375,1.468966 0.14552,0.08736 0.44052,0.235056 0.65557,0.328207 0.84318,0.365239 3.57652,3.037874 4.19512,4.101956 0.31718,0.545594 1.6311,3.211722 1.84981,3.753531 0.35012,0.867364 0.88442,3.102855 0.88152,3.688284 -0.004,0.76589 -0.16095,0.940748 -1.15295,1.282824 -0.7831,0.270043 -2.11488,0.306594 -12.95546,0.355573 -28.11677,0.127027 -34.53099,0.136672 -35.36598,0.05317 z"
       id="path1457"
       sodipodi:nodetypes="csssscscssssscsssssssssssccscsssssccssssssscscscscssssscsssssssssscssssccsssssssscsssssccsscsccssssssssssscccscsssssssscsssscsssssssscssssssssssssssssssssssssssssssssscssssssssssssssssssssssssscccscssssscsscsssccscscscsccsccsssssscsssssssccccscssscsccccsssssssssccsccsssscsssssscsscccsscssssssscscssssscccsscssssssssssssssssssssssssssssscsssscsssscscsscccsssssssccssssscssssssssssssssssssscccccsssscsssscccssscsssssccsccsssscssssssssscssssssscssscssscsccssssssssssscssssssssssssssccccccccscsssssscssssscssscssscsssssscsssssssscsssssssscssssssscscssscsssssccscsscssscssssccsssssscssscssscssccssscsssscsscsccssssscsssssssssscssssssscssssssscscssssssscssssssssssscscsssssssssssscsssssssssssssssssccsscssssssssssscsssssssssssccsscscscscsccscssssssssssssscsssssssssscssscccssssssscsscc" />
  </g>
</svg>
