<?xml version="1.0" encoding="UTF-8" standalone="no"?>
<!-- Created with Inkscape (http://www.inkscape.org/) -->

<svg
   width="210mm"
   height="297mm"
   viewBox="0 0 210 297"
   version="1.1"
   id="svg5"
   inkscape:version="1.1 (c68e22c387, 2021-05-23)"
   sodipodi:docname="Tiger2.svg"
   xmlns:inkscape="http://www.inkscape.org/namespaces/inkscape"
   xmlns:sodipodi="http://sodipodi.sourceforge.net/DTD/sodipodi-0.dtd"
   xmlns="http://www.w3.org/2000/svg"
   xmlns:svg="http://www.w3.org/2000/svg">
  <sodipodi:namedview
     id="namedview7"
     pagecolor="#ffffff"
     bordercolor="#666666"
     borderopacity="1.0"
     inkscape:pageshadow="2"
     inkscape:pageopacity="0.0"
     inkscape:pagecheckerboard="0"
     inkscape:document-units="mm"
     showgrid="false"
     inkscape:zoom="0.67081229"
     inkscape:cx="448.70973"
     inkscape:cy="473.30677"
     inkscape:window-width="1920"
     inkscape:window-height="1017"
     inkscape:window-x="-8"
     inkscape:window-y="-8"
     inkscape:window-maximized="1"
     inkscape:current-layer="layer1" />
  <defs
     id="defs2" />
  <g
     inkscape:label="Ebene 1"
     inkscape:groupmode="layer"
     id="layer1">
    <path
       style="fill:#000000;stroke-width:1"
       d="m 97.642505,180.02341 c 0.009,-0.62619 0.0407,-0.77715 0.11434,-0.54725 0.14762,0.46096 0.14762,1.24227 0,1.3335 -0.0804,0.0497 -0.12235,-0.23914 -0.11434,-0.78625 z m 36.055335,-3.42735 c -0.62363,-0.10121 -2.34396,-0.70923 -2.78728,-0.98513 -0.24817,-0.15446 -0.53694,-0.31849 -0.64171,-0.36451 -0.10478,-0.046 -0.762,-0.45676 -1.4605,-0.91273 -2.24083,-1.46276 -3.51316,-1.92169 -6.15951,-2.22175 -2.63996,-0.29932 -3.65566,-0.47872 -4.38149,-0.77389 -0.1397,-0.0568 -0.56833,-0.23155 -0.95251,-0.38832 -1.0259,-0.41866 -1.87157,-0.88957 -3.56767,-1.98669 -1.87963,-1.21583 -2.87842,-1.80415 -3.29032,-1.93807 -0.17463,-0.0568 -0.68898,-0.24164 -1.143,-0.41079 -0.45403,-0.16917 -1.05411,-0.35124 -1.3335,-0.40461 -0.48733,-0.0931 -0.49508,-0.10201 -0.1905,-0.21877 0.17462,-0.067 0.5461,-0.098 0.82549,-0.069 0.6503,0.0675 2.12229,0.46308 2.27965,0.61267 0.0664,0.0631 0.22542,0.11469 0.35348,0.11469 0.50431,0 2.54733,1.17388 4.16137,2.39105 0.96203,0.72547 1.50823,1.03025 3.3655,1.87793 0.44687,0.20396 0.88243,0.23232 3.61951,0.23569 l 3.1115,0.004 1.0795,0.54162 c 0.59372,0.29789 1.33667,0.76377 1.65099,1.03531 3.21221,2.77495 3.94861,3.21379 5.39289,3.21379 1.26804,0 2.04248,-0.47643 3.69552,-2.27349 1.95941,-2.13011 2.20194,-2.34731 2.51483,-2.25217 0.72685,0.22101 1.06821,0.88471 0.76549,1.48833 -0.24221,0.48296 -1.45646,1.64935 -2.00803,1.92887 -0.4403,0.22315 -0.86758,0.47713 -0.96269,0.57224 -0.25048,0.25047 -1.75067,0.91554 -2.42225,1.07385 -0.82502,0.19446 -0.94209,0.20297 -1.51476,0.11004 z m -36.166795,-0.75399 c -0.0694,-0.13167 -0.19876,-0.58231 -0.28757,-1.00141 -0.23033,-1.08694 -0.69035,-2.00929 -1.23682,-2.47985 -0.25977,-0.2237 -1.10344,-0.81464 -1.87481,-1.31322 -2.3801,-1.53837 -3.20978,-2.28842 -3.49826,-3.16253 -0.16124,-0.48856 -0.15482,-0.5169 0.18316,-0.80761 0.67582,-0.58132 1.51747,-0.29174 1.80744,0.62188 0.13531,0.42631 0.85404,1.02547 2.32073,1.93465 1.5401,0.95469 2.32424,1.64217 2.68938,2.35791 0.20995,0.41153 0.24924,0.7469 0.2476,2.11347 -0.002,1.66367 -0.10937,2.19519 -0.35085,1.73671 z m -2.1872,-11.84643 c 0,-0.21039 0.0519,-0.51381 0.11535,-0.67424 0.0634,-0.16046 0.2384,-0.69179 0.38879,-1.18074 0.1504,-0.48895 0.32552,-1.0033 0.38916,-1.143 0.0636,-0.1397 0.22959,-0.55113 0.3688,-0.91429 0.45386,-1.18403 1.90286,-3.92256 2.46645,-4.66147 0.1845,-0.24188 0.33545,-0.47451 0.33545,-0.51694 0,-0.0726 2.249245,-3.10524 2.404375,-3.2418 0.0397,-0.0349 0.35505,-0.4064 0.70085,-0.8255 1.48676,-1.80191 5.63289,-5.79147 7.12714,-6.858 0.19573,-0.1397 0.5024,-0.37249 0.6815,-0.51732 1.61855,-1.30882 6.02222,-3.89138 8.39014,-4.92044 0.24447,-0.10624 0.83425,-0.36925 1.31061,-0.58445 0.47636,-0.21521 0.92492,-0.39129 0.9968,-0.39129 0.0719,0 0.31079,-0.078 0.53089,-0.17325 0.7801,-0.33772 1.42487,-0.57918 2.11469,-0.79195 0.38418,-0.11849 0.89853,-0.28674 1.143,-0.3739 0.24448,-0.0871 0.81598,-0.25695 1.27001,-0.37733 0.45402,-0.12038 1.08267,-0.29399 1.39699,-0.38581 0.31433,-0.0918 1.00013,-0.26146 1.524,-0.37699 3.14887,-0.69445 3.09648,-0.67787 2.667,-0.84408 -0.17462,-0.0676 -0.93186,-0.12157 -1.68275,-0.11998 -1.36188,0.003 -1.62025,-0.0901 -1.0795,-0.38842 1.20485,-0.6647 2.50176,-0.78241 3.22358,-0.29257 0.66966,0.45445 1.02575,0.51554 1.4916,0.25593 0.8266,-0.46066 2.18322,-2.27346 2.4274,-3.24365 0.0439,-0.17462 0.16446,-0.43152 0.26781,-0.57088 0.27,-0.3641 0.41969,-0.057 0.29762,0.61053 -0.0533,0.29131 -0.0714,0.57093 -0.0402,0.62137 0.0519,0.084 0.55541,-0.33502 0.55541,-0.46225 0,-0.0304 0.0669,-0.21611 0.14856,-0.41275 0.0817,-0.19663 0.30361,-0.81472 0.49313,-1.37352 0.33449,-0.98625 0.34873,-1.00553 0.48644,-0.65848 0.078,0.19664 0.14187,0.41432 0.14187,0.48375 0,0.0694 0.0572,0.0909 0.127,0.0477 0.0699,-0.0432 0.127,-0.21331 0.127,-0.3781 0,-0.40917 0.12972,-0.71471 0.26731,-0.62967 0.42686,0.26381 -0.42403,3.76201 -1.05365,4.3318 -0.2139,0.19358 -0.22979,0.19124 -0.2316,-0.0341 -0.005,-0.62235 -0.20808,-0.58583 -0.9767,0.17566 -0.66771,0.66152 -1.73281,1.31382 -2.6091,1.59789 -0.12224,0.0396 -0.22226,0.13826 -0.22226,0.21919 0,0.14306 0.2404,0.13019 1.80975,-0.0969 0.42406,-0.0614 0.47626,-0.039 0.47626,0.20419 0,0.56257 -1.11867,1.22034 -2.60175,1.52981 -1.81294,0.37831 -4.04234,0.76375 -4.4175,0.76375 -0.27735,0 -1.00913,0.17674 -2.82325,0.68184 -0.87881,0.24468 -2.9306,0.95477 -3.61951,1.25265 -1.22148,0.52816 -3.52849,1.66674 -4.2545,2.09971 -0.64446,0.38435 -3.16706,2.2089 -3.3655,2.43421 -0.0349,0.0396 -0.49212,0.44219 -1.01599,0.89453 -1.16128,1.00271 -4.66555,4.15591 -5.01651,4.51393 -0.41715,0.42556 -2.10404,1.85763 -2.98631,2.53521 -2.40838,1.84962 -3.00815,2.40218 -4.41386,4.06642 -2.910455,3.44575 -3.906235,4.94527 -5.543925,8.34844 -0.53649,1.11483 -0.7084,1.29575 -0.7084,0.74554 z m -18.034,-1.39987 c -0.87072,-0.1397 -1.66982,-0.45226 -3.683,-1.44057 -3.46161,-1.69938 -4.60395,-2.56495 -6.67079,-5.05462 -0.1415,-0.17045 -0.48091,-0.68139 -0.75424,-1.13542 -0.27333,-0.45402 -0.52902,-0.85411 -0.56822,-0.88909 -0.1553,-0.13861 -1.22448,-2.24686 -2.22199,-4.38141 -0.32642,-0.6985 -0.64792,-1.35572 -0.71444,-1.4605 -0.0665,-0.10477 -0.15477,-0.27622 -0.19611,-0.381 -0.44394,-1.12503 -2.02339,-3.85689 -3.23434,-5.59418 -1.06108,-1.52229 -2.78487,-4.68669 -2.78487,-5.11226 0,-0.0906 -0.0504,-0.21905 -0.11201,-0.28541 -0.14448,-0.15562 -0.59688,-1.806 -0.76415,-2.78765 -0.21011,-1.23304 -0.28749,-2.91195 -0.19334,-4.1946 0.0751,-1.023 0.1231,-1.20787 0.33076,-1.27378 0.35087,-0.11136 0.55707,0.11409 1.03699,1.13378 0.40062,0.85122 0.54343,1.19448 1.05045,2.52485 0.11314,0.29687 0.25507,0.65405 0.3154,0.79375 0.0603,0.1397 0.31264,0.79693 0.56069,1.4605 0.24806,0.66358 0.52751,1.37795 0.62101,1.5875 0.0935,0.20955 0.27482,0.66675 0.40293,1.016 0.53704,1.4641 2.21281,4.58012 3.00518,5.588 0.0549,0.0698 0.30932,0.41275 0.56535,0.762 1.02477,1.39793 2.48156,2.99766 4.80124,5.27235 0.95755,0.93898 2.11443,1.90315 2.28352,1.90315 0.0419,0 0.23111,0.10666 0.42037,0.23703 0.18926,0.13036 0.91761,0.60793 1.61856,1.06127 0.70096,0.45335 1.35818,0.91023 1.4605,1.0153 0.73646,0.75624 1.12306,1.25549 1.3554,1.7504 1.49954,3.19413 1.62275,3.35435 3.16599,4.11711 0.54926,0.27148 1.21297,0.71828 1.47491,0.99289 0.4128,0.43279 0.47625,0.57931 0.47625,1.09989 0,0.49178 -0.0633,0.65944 -0.34925,0.92542 -0.78128,0.72663 -1.53527,0.93596 -2.69875,0.7493 z m 31.623005,-2.01289 c 0,-0.26132 2.3298,-1.55693 3.6195,-2.01282 2.38713,-0.8438 2.48226,-0.8565 6.5405,-0.87303 2.36052,-0.01 3.91093,-0.0676 4.19099,-0.15678 0.24448,-0.0778 0.73026,-0.18011 1.07951,-0.22728 0.34924,-0.0472 1.40652,-0.28616 2.34949,-0.5311 0.94298,-0.24494 1.91453,-0.48972 2.15901,-0.54396 0.44844,-0.0995 1.10741,-0.25749 2.44283,-0.58573 0.40058,-0.0985 0.82921,-0.17937 0.9525,-0.1798 0.12329,-3.8e-4 0.38786,-0.0862 0.58793,-0.1905 0.20007,-0.10434 0.4167,-0.18972 0.48139,-0.18972 0.30617,0 1.29061,-0.86874 1.80155,-1.58983 0.15294,-0.21583 0.32852,-0.31632 0.508,-0.29075 0.23628,0.0337 0.27969,0.13362 0.31322,0.72122 0.0945,1.65627 -1.25387,2.90485 -4.04258,3.74341 -1.92159,0.57782 -3.253,0.85334 -6.54504,1.35447 -1.94059,0.29539 -2.69416,0.30739 -3.9928,0.0636 -2.29024,-0.43001 -3.38096,-0.50134 -5.24994,-0.34337 -1.63467,0.13817 -2.30486,0.25615 -3.83056,0.67434 -0.83271,0.22824 -1.98608,0.68084 -2.7501,1.07919 -0.37479,0.19541 -0.6154,0.22609 -0.6154,0.0785 z m -2.8564,-3.36347 c 0.0487,-0.36671 0.17254,-0.86677 0.27533,-1.11125 0.35138,-0.83574 0.57701,-1.33347 0.69085,-1.524 0.1026,-0.1717 0.1451,-0.26656 0.31293,-0.6985 0.0434,-0.11178 0.69659,-1.11055 1.88272,-2.87895 0.69439,-1.03527 3.12099,-3.3238 4.39357,-4.14357 0.66357,-0.42746 1.27552,-0.83678 1.35988,-0.90959 0.0844,-0.0728 0.19929,-0.13239 0.25538,-0.13239 0.13985,0 3.11256,-1.6909 3.97273,-2.25971 0.38418,-0.25405 1.52506,-1.10685 2.5353,-1.8951 1.01024,-0.78825 1.88178,-1.43319 1.93675,-1.43319 0.29335,0 -0.0364,0.42203 -1.30417,1.66921 -0.77226,0.75971 -2.04385,1.91287 -2.82575,2.56257 -1.72105,1.43007 -4.47581,3.51522 -4.64407,3.51522 -0.067,0 -0.14094,0.0511 -0.16422,0.1135 -0.0233,0.0624 -0.57982,0.51949 -1.23676,1.01572 -2.57174,1.94262 -4.68001,4.32002 -5.89263,6.64484 -0.68153,1.30662 -1.24083,2.13194 -1.44476,2.13194 -0.15761,0 -0.17586,-0.11806 -0.10308,-0.66675 z m -22.988105,-1.92877 c -0.2794,-0.0937 -0.66517,-0.20639 -0.85725,-0.25036 -0.50879,-0.11648 -0.42725,-0.32885 0.127,-0.33075 0.97213,-0.003 3.51859,-1.00616 4.99451,-1.96687 0.49696,-0.32348 1.96118,-1.55616 2.64718,-2.22858 0.65137,-0.63848 2.55973,-2.91167 3.89396,-4.6384 0.27368,-0.35419 0.74658,-0.95426 1.05089,-1.3335 0.30431,-0.37923 0.67578,-0.85161 0.8255,-1.04973 0.14971,-0.19812 0.33551,-0.4288 0.41289,-0.51261 0.0774,-0.0838 1.27325,-1.66479 2.6575,-3.51328 1.384255,-1.84849 2.581175,-3.41805 2.659825,-3.4879 0.0787,-0.0699 0.36867,-0.41185 0.64449,-0.76001 0.75298,-0.95043 2.56879,-2.74668 3.359,-3.32282 0.81549,-0.59456 2.4455,-1.55192 3.84175,-2.25639 1.15865,-0.58458 1.27638,-0.78921 0.41275,-0.71741 -0.32898,0.0274 -1.86928,0.55837 -3.2385,1.11647 -1.0945,0.44612 -4.0073,1.86626 -4.27186,2.08276 -0.0794,0.065 -0.39373,0.24871 -0.6985,0.4083 -0.6103,0.31958 -2.929665,1.73742 -3.030635,1.85264 -0.0349,0.0399 -0.4064,0.30016 -0.8255,0.57846 -2.03633,1.3522 -2.85429,2.05993 -6.9215,5.98876 -0.59373,0.57353 -1.22238,1.1648 -1.397,1.31395 -0.17463,0.14915 -0.45297,0.38763 -0.61853,0.52994 -1.08969,0.93664 -3.13907,1.98495 -4.53763,2.32112 -1.10886,0.26654 -4.30521,0.21268 -6.08334,-0.1025 -1.10038,-0.19505 -2.63796,-0.43057 -4.62383,-0.70828 -0.51745,-0.0724 -1.11752,-0.18821 -1.3335,-0.25745 -0.21597,-0.0692 -0.83287,-0.2666 -1.3709,-0.43858 -0.53802,-0.17199 -1.12099,-0.40625 -1.2955,-0.52059 -0.17451,-0.11434 -0.40341,-0.18888 -0.50867,-0.16563 -0.20107,0.0444 2.11007,3.09526 4.52865,5.9781 0.68103,0.81177 1.23825,1.50851 1.23825,1.5483 0,0.1078 -0.3531,0.0875 -0.40217,-0.0231 -0.0233,-0.0525 -0.69956,-0.56675 -1.50283,-1.1428 -1.77913,-1.27586 -3.55237,-2.96863 -4.88916,-4.66727 -0.27485,-0.34925 -0.53351,-0.66357 -0.5748,-0.6985 -0.65868,-0.55713 -4.04531,-5.79396 -4.82515,-7.46125 -0.17152,-0.36671 -0.35551,-0.66675 -0.40887,-0.66675 -0.0534,0 -0.097,-0.0817 -0.097,-0.18164 0,-0.16575 -0.60345,-1.60543 -0.89469,-2.13449 -0.0668,-0.12136 -0.20982,-0.46426 -0.31782,-0.762 -1.01654,-2.80246 -1.51722,-4.91094 -1.23352,-5.19464 0.10693,-0.10693 0.19453,-0.0929 0.34236,0.055 0.10927,0.10926 0.19867,0.23929 0.19867,0.28894 0,0.0497 0.15873,0.35377 0.35274,0.67582 0.19402,0.32205 0.57426,1.07132 0.84499,1.66504 2.53552,5.56047 3.60489,7.4443 5.13779,9.05081 1.40442,1.47187 2.78021,2.30681 5.03098,3.05319 3.901,1.29363 7.69712,1.25362 10.8585,-0.11446 1.72214,-0.74526 4.19101,-2.33887 6.93561,-4.47682 4.71509,-3.6729 5.28591,-4.09005 7.47889,-5.46554 0.6985,-0.43811 1.58432,-1.02246 1.9685,-1.29855 0.38417,-0.27609 0.89852,-0.61522 1.143,-0.75363 0.552765,-0.31295 0.805695,-0.47367 1.441115,-0.91575 0.2761,-0.19208 0.57438,-0.34925 0.66286,-0.34925 0.0885,0 0.17991,-0.0429 0.20319,-0.0952 0.11348,-0.25533 2.16673,-1.10331 3.72533,-1.53855 3.53202,-0.98629 4.53878,-1.18186 6.43233,-1.24949 1.53273,-0.0548 1.63877,-0.042 2.31462,0.2777 0.74455,0.35223 1.22256,0.8302 1.22256,1.22246 0,0.29838 -0.52819,0.5711 -1.33518,0.68938 -0.57212,0.0839 -0.71923,0.18153 -1.52232,1.01072 -0.48896,0.50483 -1.20333,1.16789 -1.5875,1.47346 -0.38418,0.30557 -0.72708,0.58888 -0.762,0.62959 -0.26686,0.311 -5.89849,4.69198 -6.03142,4.69198 -0.0673,0 -2.09548,1.41135 -2.79508,1.94501 -1.20528,0.91939 -3.667745,3.59667 -5.336455,5.80199 -0.34354,0.45403 -0.68356,0.89535 -0.75559,0.98071 -0.072,0.0854 -0.61674,0.84469 -1.21046,1.68738 -1.38743,1.96921 -4.01632,5.52188 -4.5085,6.09275 -1.09539,1.27051 -2.1443,2.19503 -2.89131,2.54843 -0.73091,0.34578 -0.89895,0.37408 -2.18869,0.36857 -0.81519,-0.003 -1.60857,-0.0769 -1.905,-0.17636 z m -1.61131,-0.79323 c 0.0917,-0.0367 0.20121,-0.0322 0.24341,0.01 0.0422,0.0422 -0.0328,0.0722 -0.16669,0.0667 -0.14794,-0.006 -0.17804,-0.0362 -0.0767,-0.0767 z m 59.114315,-2.1675 c 0.0342,-0.26193 0.15973,-0.79057 0.27895,-1.17475 0.22769,-0.73368 0.45477,-1.71024 0.694,-2.9845 0.0787,-0.4191 0.20126,-1.02441 0.27238,-1.34513 0.20036,-0.90344 0.36865,-2.55345 0.45217,-4.43337 0.079,-1.77876 -0.11546,-3.50216 -0.52313,-4.6355 -0.20984,-0.58336 -0.23881,-1.06591 -0.0791,-1.31802 0.16357,-0.25825 0.32287,-0.10132 0.69502,0.68466 0.33742,0.71266 0.44174,1.05672 0.80809,2.66536 0.23086,1.01367 0.38112,7.22156 0.18094,7.47489 -0.0631,0.0798 -0.15382,0.37371 -0.20166,0.65311 -0.20583,1.20211 -1.00847,2.99733 -1.82979,4.09259 -0.32606,0.43482 -0.64171,0.79201 -0.70144,0.79375 -0.0597,0.002 -0.0806,-0.21115 -0.0464,-0.47309 z m -41.945505,-7.76977 c 0,-0.63105 2.253765,-3.46494 3.720545,-4.67822 2.00888,-1.66168 5.27788,-3.38137 9.10646,-4.79052 0.24447,-0.09 0.70167,-0.26221 1.016,-0.38274 0.99055,-0.37981 1.43375,-0.5431 2.413,-0.889 0.52387,-0.18505 1.15252,-0.41437 1.397,-0.5096 0.24447,-0.0952 0.95885,-0.35168 1.5875,-0.5699 1.22836,-0.42638 1.91488,-0.68363 2.57605,-0.96532 0.22939,-0.0977 0.47792,-0.17768 0.55231,-0.17768 0.0744,0 0.31534,-0.0785 0.53544,-0.17448 0.22011,-0.096 0.8574,-0.35785 1.41619,-0.58197 1.88782,-0.75713 4.49692,-2.036 5.92781,-2.90554 1.27677,-0.77588 2.00401,-1.46362 2.70811,-2.56101 0.85907,-1.33894 1.50027,-2.96433 2.0165,-5.11175 0.11335,-0.47148 0.29946,-1.24301 0.41357,-1.7145 0.27303,-1.12803 0.38821,-1.22145 0.48756,-0.39545 0.11708,0.97346 -0.19916,3.70879 -0.57797,4.9992 -0.82873,2.82302 -1.69099,4.43814 -3.10158,5.80957 -0.63326,0.61568 -2.17633,1.5036 -3.3655,1.93659 -0.71679,0.26099 -2.19315,0.77177 -4.00049,1.38406 -0.76835,0.26031 -1.51131,0.52513 -1.65101,0.58849 -0.33569,0.15227 -2.04123,0.74771 -2.6035,0.90894 -0.24447,0.0701 -0.49879,0.1793 -0.56514,0.24266 -0.0664,0.0634 -0.22159,0.11519 -0.34495,0.11519 -0.12336,0 -0.41196,0.08 -0.64135,0.17768 -0.22938,0.0977 -0.64565,0.26479 -0.92505,0.37125 -1.94685,0.74182 -3.61313,1.39295 -3.93701,1.53844 -0.94691,0.42539 -1.31329,0.57963 -1.3768,0.57963 -0.0682,0 -1.93718,0.8675 -3.09401,1.4361 -1.43125,0.7035 -4.43127,2.45479 -4.81718,2.81208 -0.0792,0.0733 -0.55955,0.5048 -1.06744,0.95882 -0.50789,0.45403 -1.15746,1.04425 -1.4435,1.31161 -0.47685,0.44571 -2.066925,1.48239 -2.273705,1.48239 -0.0483,0 -0.0879,-0.11025 -0.0879,-0.24502 z M 88.151585,132.0438 c -0.0596,-0.15538 0.0332,-0.31224 0.31539,-0.5331 0.21993,-0.17212 0.39987,-0.36428 0.39987,-0.42703 0,-0.0628 -0.38577,-0.10276 -0.85725,-0.0889 -1.02736,0.0302 -5.39784,-0.13587 -6.38175,-0.24245 -0.60699,-0.0657 -0.66107,-0.0928 -0.41275,-0.20631 0.48775,-0.22299 0.32184,-0.32092 -0.6985,-0.41229 -1.87696,-0.16807 -3.66099,-0.73231 -3.20551,-1.0138 0.18829,-0.11637 3.04011,0.19234 3.49458,0.3783 0.69992,0.28638 4.57844,-0.34186 5.22412,-0.8462 0.22815,-0.17821 0.32864,0.10403 0.14292,0.40142 -0.0895,0.14332 -0.2672,0.29374 -0.39487,0.33426 -0.12767,0.0405 -0.19975,0.10606 -0.16017,0.14565 0.0396,0.0396 0.0102,0.14636 -0.0652,0.23728 -0.14309,0.17243 -0.16259,0.17291 0.83791,-0.021 0.54571,-0.10577 1.53423,-0.42565 2.38962,-0.77327 0.40625,-0.16509 0.79333,-0.30017 0.86018,-0.30017 0.20047,0 -0.2297,0.55303 -0.64212,0.8255 -0.63504,0.41957 -0.438,0.74326 0.2756,0.45273 0.16045,-0.0653 0.86322,-0.2477 1.56172,-0.40528 0.6985,-0.15758 1.57167,-0.41846 1.94037,-0.57973 1.49475,-0.65379 1.20428,-0.16413 -0.58029,0.97823 -0.73278,0.46907 -1.01254,0.7144 -0.92009,0.80684 0.0924,0.0925 0.29675,0.0845 0.67192,-0.026 0.2965,-0.0874 0.71054,-0.20455 0.92009,-0.26035 0.99242,-0.26431 2.68403,-1.24696 3.937,-2.28701 0.75893,-0.62995 0.94638,-0.4259 0.32708,0.35603 -0.45455,0.57392 -0.48987,0.77409 -0.13658,0.77409 0.1397,0 0.254,-0.0533 0.254,-0.11844 0,-0.0651 0.12859,-0.15787 0.28575,-0.20607 0.44272,-0.13576 2.693535,-1.25096 2.741095,-1.35811 0.0233,-0.0525 0.16615,-0.0937 0.3175,-0.0917 0.25302,0.003 0.24315,0.0315 -0.12268,0.34925 -0.727115,0.63149 -0.989625,0.79681 -2.269165,1.42903 -1.20567,0.59572 -3.13607,1.26599 -3.6461,1.26599 -0.12971,0 -0.51755,0.14276 -0.86186,0.31723 -0.95369,0.48327 -2.50334,0.96383 -3.49304,1.08321 -0.48895,0.059 -1.13093,0.14664 -1.42663,0.19479 -0.44368,0.0723 -0.55241,0.0491 -0.62212,-0.13259 z m -16.60165,-2.12939 c -1.36932,-1.5224 -1.41603,-1.58864 -2.18227,-3.09432 -0.40653,-0.79884 -0.81903,-1.51874 -0.91666,-1.59977 -0.25242,-0.20948 -0.40732,0.0853 -0.3218,0.6123 0.0744,0.45859 -0.0375,1.06554 -0.19641,1.06554 -0.26499,0 -0.80911,-1.89439 -1.10347,-3.84175 -0.0396,-0.26193 -0.11956,-0.47625 -0.17769,-0.47625 -0.22833,0 -0.35836,0.36117 -0.49805,1.38333 -0.21171,1.54925 -0.49706,1.78505 -0.78497,0.64867 -0.27908,-1.10151 -0.35931,-1.85497 -0.3685,-3.46075 -0.005,-0.89058 -0.0521,-1.61777 -0.10452,-1.61597 -0.0524,0.002 -0.18687,0.21612 -0.29885,0.47625 -0.53749,1.24865 -0.81722,1.80647 -0.90588,1.80647 -0.27473,0 0.10281,-4.42225 0.43096,-5.04805 0.25225,-0.48108 -0.0227,-0.50275 -0.41663,-0.0328 -0.45829,0.5467 -0.81274,1.21379 -0.93099,1.75219 -0.0493,0.22424 -0.13072,0.4077 -0.18105,0.4077 -0.28116,0 -0.32867,-0.35293 -0.24611,-1.82822 0.0861,-1.53847 0.41948,-3.05752 0.76145,-3.46957 0.1062,-0.12797 0.10693,-0.21143 0.003,-0.31561 -0.17628,-0.17628 -0.43153,0.0174 -0.9334,0.70821 -0.45223,0.62249 -0.55772,0.42621 -0.44173,-0.82185 0.10088,-1.08539 0.23212,-1.6202 0.93202,-3.79796 0.66088,-2.05635 0.78036,-3.11849 0.49287,-4.3815 -0.47456,-2.08478 -0.60541,-3.15876 -0.50286,-4.1275 0.0555,-0.52387 0.0901,-1.038218 0.0771,-1.142998 -0.1551,-1.24465 -0.18047,-1.93425 -0.0686,-1.86512 0.16605,0.10262 0.38813,1.27258 0.48492,2.554638 0.0692,0.91675 0.24785,1.77766 0.77924,3.75548 0.10322,0.38418 0.24679,0.9271 0.31904,1.2065 0.0722,0.2794 0.13336,1.02235 0.13582,1.651 0.004,1.0048 -0.0449,1.26151 -0.40376,2.12304 -0.37941,0.91085 -0.4145,1.24246 -0.13148,1.24246 0.063,0 0.22788,-0.12164 0.36639,-0.27031 0.36362,-0.39029 0.6486,-0.22938 0.64038,0.36158 -0.01,0.69696 -0.29686,2.1418 -0.59963,3.01695 -0.14437,0.4173 -0.2347,0.80369 -0.20073,0.85865 0.0591,0.0956 0.14309,0.0114 0.85396,-0.85537 0.17186,-0.20955 0.34725,-0.34632 0.38975,-0.30394 0.0425,0.0424 0.0829,0.5853 0.0899,1.2065 0.0159,1.42252 0.0549,1.57563 0.39272,1.53934 0.3649,-0.0392 0.44866,0.3071 0.4691,1.9396 0.0143,1.13785 0.0414,1.30089 0.18541,1.11125 0.43058,-0.56721 0.75443,0.0119 0.97161,1.73745 l 0.15874,1.2612 0.29284,-0.34045 c 0.16106,-0.18725 0.31925,-0.34045 0.35154,-0.34045 0.24713,0 2.11248,3.65509 2.11248,4.13934 0,0.0983 0.0526,0.17866 0.11691,0.17866 0.0643,0 0.15541,0.1753 0.20247,0.38956 0.0471,0.21425 0.16555,0.54287 0.26331,0.73025 0.0978,0.18738 0.1781,0.43733 0.17853,0.55545 3.8e-4,0.11811 0.0579,0.25007 0.12778,0.29324 0.0698,0.0432 0.127,0.16393 0.127,0.26834 0,0.10442 0.28575,0.78377 0.635,1.50966 0.34925,0.7259 0.635,1.35147 0.635,1.39016 0,0.22711 -0.32881,-0.0365 -1.0609,-0.85041 z m 56.305905,-4.75939 c 0,-0.27187 -0.0839,-0.60524 -0.18646,-0.74083 -0.10255,-0.13559 -0.18915,-0.36083 -0.19244,-0.50053 -0.003,-0.1397 -0.0623,-0.33972 -0.13104,-0.4445 -0.11116,-0.16933 -0.13895,-0.16933 -0.25011,0 -0.0688,0.10478 -0.12593,0.31909 -0.127,0.47625 -0.003,0.46635 -0.22369,0.32494 -0.29707,-0.1905 -0.2112,-1.48338 -0.85503,-3.43241 -1.31432,-3.97875 -0.0927,-0.11027 -0.16856,-0.2382 -0.16856,-0.28429 0,-0.16002 -0.43835,-0.59471 -0.59972,-0.59471 -0.21087,0 -0.19781,0.44191 0.0319,1.0795 0.20926,0.58087 0.24123,1.1579 0.07,1.26372 -0.14905,0.0921 -0.64517,-0.53146 -0.64517,-0.81094 0,-0.11631 -0.0483,-0.26577 -0.10726,-0.33213 -0.20695,-0.23276 -0.94377,-2.57168 -1.10823,-3.5179 -0.10214,-0.58769 0.0748,-0.62068 0.78502,-0.14638 0.94018,0.62784 1.75322,1.60523 2.39249,2.87611 0.34004,0.67602 0.66426,1.20069 0.72049,1.16594 0.38752,-0.2395 2.42791,3.28969 2.21807,3.83652 -0.10502,0.27368 -0.29538,0.10582 -0.39515,-0.34844 -0.13343,-0.60748 -0.2975,-0.26823 -0.33971,0.70238 -0.0244,0.56131 -0.0956,0.89783 -0.19697,0.93134 -0.10879,0.0359 -0.15875,-0.1031 -0.15875,-0.44186 z m -6.92989,-0.55455 c 0.0524,-0.16819 0.12547,-0.97416 0.16246,-1.79103 0.0529,-1.16935 0.0191,-1.68158 -0.15902,-2.40849 -0.29747,-1.21385 -0.56292,-1.65032 -1.62985,-2.6799 -1.03099,-0.99491 -1.02057,-1.22475 0.0412,-0.90943 1.61927,0.48087 2.86286,2.5615 2.8402,4.75186 -0.01,0.94018 -0.57996,2.57253 -1.06976,3.06233 l -0.28047,0.28047 z m 14.71649,-4.0053 c -0.0437,-0.11385 -0.008,-0.89966 0.0791,-1.74625 0.36435,-3.53796 0.19023,-5.98083 -0.52492,-7.36448 -0.24671,-0.47733 0.10494,-0.48604 0.59036,-0.0146 0.26105,0.25352 0.50819,0.42739 0.54919,0.38638 0.0823,-0.0823 -0.71177,-3.36071 -0.86317,-3.56353 -0.0521,-0.0699 -0.13451,-0.31268 -0.18303,-0.53962 -0.0736,-0.34415 -0.055,-0.39985 0.11233,-0.33566 0.11031,0.0423 0.20056,0.11925 0.20056,0.17094 0,0.0517 0.10002,0.21219 0.22225,0.35667 0.12224,0.14448 0.29033,0.36754 0.37354,0.49568 0.13422,0.20673 0.15212,0.18667 0.15875,-0.17793 0.004,-0.22601 -0.0487,-0.65464 -0.11742,-0.9525 -0.0687,-0.29787 -0.24754,-1.11308 -0.39744,-1.81158 -0.14991,-0.6985 -0.32231,-1.32429 -0.38312,-1.39065 -0.13631,-0.14875 -0.1472,-0.83185 -0.0133,-0.83185 0.11105,0 0.70495,0.9186 1.17006,1.80975 0.17317,0.33179 0.35891,0.60325 0.41275,0.60325 0.2799,0 0.0337,-1.30885 -0.50171,-2.667 -0.31032,-0.78722 -1.33256,-2.70683 -1.58517,-2.9767 -0.39495,-0.421948 -0.77309,-1.093318 -0.66981,-1.189228 0.0525,-0.0487 0.12088,-0.0171 0.15207,0.0702 0.0312,0.0873 0.13481,0.15875 0.2303,0.15875 0.0955,0 0.21931,0.0767 0.27516,0.17051 0.13415,0.22522 0.78966,0.64424 0.87474,0.55915 0.0367,-0.0367 -0.0464,-0.31591 -0.18474,-0.62045 -0.4659,-1.02578 -1.03293,-2.45279 -1.03293,-2.5995 0,-0.0801 -0.0857,-0.21675 -0.19051,-0.30371 -0.20886,-0.17334 -0.26125,-0.635 -0.0721,-0.635 0.0651,0 0.15472,0.1143 0.19905,0.254 0.0443,0.1397 0.12705,0.254 0.18379,0.254 0.0567,0 0.36167,0.52864 0.67761,1.17475 0.76135,1.55699 1.42796,3.563588 1.66988,5.026638 0.0385,0.23259 0.14921,0.60407 0.24611,0.8255 0.62714,1.43319 0.94405,2.79472 1.0477,4.50123 0.0775,1.2755 0.0645,1.42588 -0.12299,1.42588 -0.11528,0 -0.20959,-0.0572 -0.20959,-0.127 0,-0.16982 -0.47257,-0.635 -0.6451,-0.635 -0.0825,0 -0.1081,0.13896 -0.0642,0.34925 0.0976,0.46773 0.0968,0.63096 -0.0208,4.22275 -0.1007,3.07595 -0.10581,3.11816 -0.44785,3.69416 -0.22993,0.38721 -0.34854,0.77062 -0.35357,1.143 -0.007,0.55492 -0.0924,1.07939 -0.38363,2.37009 -0.15235,0.67515 -0.3135,0.83685 -0.4582,0.45976 z m -27.16823,-1.64808 c -0.48689,-1.40012 -0.78587,-1.74204 -2.03935,-2.33222 -0.47713,-0.22465 -1.06044,-0.50312 -1.29624,-0.61883 -0.2358,-0.11571 -0.77872,-0.60183 -1.2065,-1.08027 -0.42777,-0.47844 -1.04425,-1.16395 -1.36994,-1.52335 -0.39674,-0.43781 -0.54343,-0.68447 -0.4445,-0.74742 0.0812,-0.0517 1.12343,-0.0948 2.31604,-0.0959 4.70211,-0.004 7.09529,-0.76095 11.42062,-3.61123 2.30392,-1.51823 2.91867,-1.87657 4.8049,-2.8008 1.40848,-0.69014 1.80511,-0.83383 2.11421,-0.76594 0.56716,0.12457 0.56208,0.24532 -0.0307,0.72837 -0.50511,0.41165 -0.87149,0.63575 -2.44345,1.49452 -1.49837,0.81859 -4.53926,2.75851 -4.61433,2.9437 -0.0233,0.0574 -0.11921,0.10443 -0.21318,0.10443 -0.094,0 -0.24636,0.0714 -0.33866,0.15875 -0.0923,0.0873 -0.59645,0.43976 -1.12032,0.78321 -1.27637,0.83678 -2.16692,1.6179 -2.99114,2.6236 -0.89778,1.09546 -1.85715,3.0085 -2.21345,4.41375 -0.13642,0.53805 -0.22884,0.62814 -0.33405,0.32562 z m -4.427,-1.03756 c -0.20742,-0.12037 -0.45941,-0.29533 -0.55998,-0.38878 -0.96089,-0.89291 -1.93996,-1.39674 -3.12688,-1.60911 -0.2794,-0.05 -3.135565,-0.0857 -6.347025,-0.0795 -4.89828,0.01 -5.95204,0.0436 -6.5405,0.21081 -0.38582,0.10965 -0.98723,0.27991 -1.33648,0.37835 -0.34925,0.0984 -1.0513,0.30109 -1.5601,0.45033 -1.22079,0.35805 -1.69458,0.19291 -0.96959,-0.33797 0.1803,-0.13202 0.45022,-0.34352 0.59983,-0.47001 0.14961,-0.12648 1.06526,-0.6264 2.03477,-1.11094 2.04288,-1.02097 2.53481,-1.37983 3.35786,-2.44956 0.67052,-0.87149 1.17494,-1.34697 2.0732,-1.95426 1.10479,-0.74693 1.58693,-1.64749 1.43467,-2.67975 -0.0697,-0.47264 -0.22726,-0.69853 -1.1141,-1.59743 -1.0493,-1.06357 -1.20459,-1.35619 -1.52562,-2.87475 -0.0916,-0.43347 -0.68567,-1.17975 -1.15592,-1.45216 -0.20955,-0.12139 -0.70323,-0.32429 -1.09707,-0.45088 -0.94415,-0.30348 -1.6342,-0.66465 -1.9702,-1.03119 -0.70567,-0.769808 -1.68257,-3.506938 -1.365,-3.824508 0.0419,-0.0419 0.30768,0.0914 0.59056,0.29633 0.61146,0.44294 1.38987,0.49534 2.34502,0.15786 0.7132,-0.252 2.02676,-0.2941 2.46171,-0.0789 0.70911,0.35085 1.79276,0.5476 3.01605,0.5476 1.05619,0 1.46691,-0.0622 2.39345,-0.36244 2.35345,-0.76263 1.86851,-0.71745 4.778615,-0.44524 0.87167,0.0815 1.45414,-0.1149 1.61791,-0.54565 0.0622,-0.16372 0.20442,-0.29767 0.31595,-0.29767 0.17192,0 0.19003,0.11116 0.11897,0.73025 -0.0461,0.40164 -0.19785,1.07874 -0.33724,1.50467 -0.356,1.0878 -1.65641,2.584148 -2.914025,3.353078 -1.46249,0.89421 -2.2209,1.73928 -3.0213,3.36658 -0.37763,0.76776 -0.72311,1.4245 -0.76774,1.45942 -0.0446,0.0349 -0.2693,0.43498 -0.49927,0.889 -0.3576,0.706 -0.41948,0.9634 -0.42746,1.778 -0.014,1.42919 0.43595,2.15695 1.85446,2.99942 1.49897,0.89025 3.38012,1.89554 3.778475,2.01923 0.74469,0.23122 2.04189,0.94374 3.04789,1.67414 1.24258,0.90217 2.0849,1.30421 2.75952,1.31714 0.25615,0.005 0.57028,0.0501 0.69808,0.10046 0.22513,0.0887 0.22513,0.0997 0,0.35593 -0.54028,0.61481 -1.9464,0.85545 -2.64149,0.45205 z m -22.729665,-2.08862 c -0.10874,-0.15525 -0.1977,-0.34313 -0.1977,-0.41753 0,-0.3211 -2.21656,-2.09422 -2.61796,-2.09422 -0.22223,0 -2.44655,-1.22134 -2.71604,-1.49133 l -0.3175,-0.3181 0.508,0.066 c 1.03808,0.13476 2.29764,0.35735 2.667,0.47131 0.20955,0.0647 1.12941,0.21546 2.04414,0.33514 1.54084,0.20158 1.74163,0.2026 2.7305,0.0138 1.69243,-0.32305 3.05376,-0.39762 3.34231,-0.18308 0.2257,0.16781 0.1329,0.24732 -1.30684,1.1197 -0.85239,0.51649 -1.75836,1.05336 -2.01328,1.19306 -0.25491,0.1397 -0.77204,0.55404 -1.14917,0.92075 -0.37714,0.36672 -0.70596,0.66675 -0.73073,0.66675 -0.0248,0 -0.134,-0.12701 -0.24273,-0.28225 z m 19.820685,-4.68983 c -1.241215,-0.14333 -2.221605,-0.58832 -2.741005,-1.24412 -0.58915,-0.74386 -0.53738,-0.80442 0.59787,-0.69949 0.54133,0.05 1.105355,0.13638 1.253365,0.19187 0.46485,0.17427 4.37222,0.2672 5.69988,0.13557 1.67065,-0.16565 2.57739,-0.33985 3.81,-0.73199 1.04152,-0.33133 4.12699,-1.76592 4.27157,-1.98605 0.0443,-0.0675 0.15412,-0.0981 0.24404,-0.0682 0.23676,0.0789 -0.65693,1.02659 -1.60841,1.70555 -1.90798,1.3615 -5.07418,2.33322 -8.62219,2.64618 -0.48895,0.0431 -1.1176,0.0982 -1.397,0.12228 -0.2794,0.0241 -0.95806,-0.008 -1.50812,-0.0716 z m -30.513805,-0.77467 c -0.657,-0.74296 -0.89755,-1.39597 -1.13448,-3.07975 -0.36429,-2.58889 -0.41869,-2.84004 -0.77238,-3.56542 -0.23641,-0.48487 -0.73421,-1.11602 -1.44072,-1.82667 -1.36127,-1.36925 -3.09647,-2.896068 -3.50057,-3.080188 -0.17019,-0.0775 -0.30943,-0.1823 -0.30943,-0.23279 0,-0.0505 -0.12695,-0.125 -0.28211,-0.16558 l -0.28211,-0.0738 0.33871,-0.35379 c 0.30801,-0.32172 0.5072,-0.7096 1.25783,-2.44929 0.13562,-0.31432 0.30173,-0.67073 0.36913,-0.79202 0.32524,-0.58529 -0.0319,-0.63944 -0.63945,-0.097 -0.70105,0.6259 -0.84657,0.45711 -0.32214,-0.37365 0.17207,-0.27258 0.52488,-0.9302 0.78401,-1.46136 0.58732,-1.20387 0.47981,-1.43619 -0.38824,-0.83896 -0.49361,0.33961 -0.59627,0.3706 -0.66184,0.19974 -0.0427,-0.11122 0.0151,-0.30461 0.1283,-0.42975 0.11325,-0.12513 0.20591,-0.26987 0.20591,-0.32163 0,-0.0518 0.16376,-0.33302 0.36391,-0.625 0.20016,-0.29199 0.51448,-0.829024 0.6985,-1.193414 0.54818,-1.08549 0.41397,-1.22172 -0.39683,-0.40281 -0.45876,0.46333 -0.79258,0.56458 -0.79258,0.24037 0,-0.0613 0.25032,-0.47712 0.55627,-0.92401 0.30595,-0.44688 0.5987,-0.95056 0.65055,-1.11927 0.0519,-0.16872 0.13936,-0.36391 0.19447,-0.43376 0.15989,-0.20264 0.3789,-1.41953 0.50284,-2.794 0.11323,-1.25568 0.22725,-2.018858 0.57873,-3.873496 0.41694,-2.200098 0.74165,-3.59823 1.00282,-4.318 0.3274,-0.902303 0.69002,-2.060899 0.77506,-2.476346 0.0756,-0.369413 0.0836,-0.373227 0.26715,-0.127 0.14575,0.195559 0.16953,0.443393 0.10357,1.079346 -0.0471,0.454025 -0.14006,0.927703 -0.20661,1.052618 -0.0666,0.124916 -0.22677,1.267916 -0.35604,2.54 -0.20336,2.001136 -0.23133,3.2886 -0.2075,9.551878 0.0196,5.139564 0.0729,7.460004 0.184,8.001004 0.0861,0.4191 0.24701,1.24778 0.35766,1.8415 0.59686,3.202608 1.27904,4.701428 3.20808,7.048498 0.5725,0.69657 0.64451,0.86016 0.83853,1.905 0.19364,1.04282 0.19532,1.24576 0.0192,2.31538 -0.22557,1.36968 -0.54545,1.93912 -1.08927,1.93912 -0.20365,0 -0.45597,-0.11958 -0.6029,-0.28575 z m 11.19392,-0.098 c -3.19425,-0.2319 -4.33184,-0.47847 -5.39994,-1.17044 -0.91729,-0.59426 -1.46801,-1.62077 -0.86955,-1.62077 0.36221,0 2.17185,0.47755 3.18165,0.83962 0.25749,0.0923 1.05759,0.32534 1.778,0.51782 1.2552,0.33536 1.4375,0.35011 4.37022,0.35351 2.31524,0.003 3.15014,-0.0384 3.429,-0.16857 0.20274,-0.0947 0.55123,-0.25914 0.77442,-0.3655 0.40392,-0.19249 0.8007,-0.1526 0.8007,0.0805 0,0.14234 -0.50801,0.51606 -1.143,0.84086 -1.25948,0.64422 -3.92171,0.91077 -6.9215,0.69298 z m 0.381,-2.61198 c -1.24169,-0.17885 -2.93929,-0.80745 -3.937,-1.45783 -0.20955,-0.13659 -0.47706,-0.2819 -0.59447,-0.32289 -0.24998,-0.0873 -0.41005,-0.42981 -0.26695,-0.57121 0.0547,-0.054 0.81379,-0.0198 1.68692,0.076 1.53726,0.16876 2.11889,0.26443 4.0005,0.65802 1.4424,0.30172 3.67952,0.35363 4.5085,0.10461 0.93079,-0.27961 1.524,-0.36996 1.524,-0.23212 0,0.48083 -1.12513,1.23711 -2.25252,1.51409 -0.7248,0.17807 -3.93457,0.33707 -4.66898,0.23129 z m 21.653505,-0.42973 c -0.38418,-0.0569 -1.0414,-0.14299 -1.4605,-0.19124 -0.4191,-0.0483 -0.97747,-0.16863 -1.24082,-0.2675 -0.26335,-0.0989 -0.60625,-0.18063 -0.762,-0.1817 -0.15575,-0.001 -0.36523,-0.0539 -0.465525,-0.11732 -0.15534,-0.0983 -0.15641,-0.14661 -0.007,-0.32637 0.186855,-0.22514 0.214785,-0.22324 1.713515,0.11689 1.76375,0.40027 3.59548,0.1434 6.23424,-0.87427 1.91818,-0.73976 2.62958,-1.14796 5.15372,-2.9572 0.22,-0.15769 0.42718,-0.25953 0.46039,-0.22632 0.0937,0.0937 -0.23131,0.82642 -0.68914,1.55355 -1.15296,1.83117 -2.39932,2.66714 -4.98302,3.34225 -0.71375,0.1865 -3.05142,0.26291 -3.95364,0.12923 z m 22.71578,-3.08325 c -0.45857,-0.37767 -0.96322,-1.22507 -1.10241,-1.85118 -0.34203,-1.53857 -0.14167,-2.844358 0.90954,-5.927568 1.03079,-3.0233 1.09908,-3.58869 1.09908,-9.099274 0,-5.191622 -0.0275,-5.444261 -0.95249,-8.744226 -0.0881,-0.314325 -0.25917,-0.942975 -0.38015,-1.397 -0.12097,-0.454025 -0.27196,-0.969039 -0.33552,-1.144476 -0.0636,-0.175435 -0.16802,-0.60406 -0.23212,-0.9525 -0.0641,-0.348438 -0.20681,-0.961877 -0.31711,-1.363199 -0.11031,-0.401321 -0.27714,-1.029971 -0.37074,-1.397 -0.41358,-1.621686 -1.20155,-3.163384 -2.28655,-4.473732 -0.98427,-1.188707 -1.54367,-1.619203 -2.99931,-2.308202 -0.59373,-0.281027 -1.36525,-0.750292 -1.7145,-1.04281 -0.927,-0.776417 -0.90966,-0.763368 -1.3949,-1.049668 -0.44519,-0.262667 -0.60252,-0.619413 -0.27317,-0.619413 0.22087,0 1.76765,0.77257 2.9701,1.483483 0.51028,0.301685 0.97702,0.548517 1.03719,0.548517 0.0602,0 0.51431,0.200104 1.00918,0.444675 0.99287,0.49069 1.49488,0.948551 2.99785,2.73419 0.55675,0.661449 1.04419,1.23121 1.0832,1.266135 0.44795,0.400967 1.77804,2.764324 1.77804,3.159289 0,0.108745 0.0794,0.42823 0.17655,0.709965 0.0971,0.281736 0.27267,1.083746 0.39016,1.782246 0.22493,1.337274 0.5072,2.663886 0.70257,3.302 0.0642,0.20955 0.17835,0.660557 0.25376,1.00224 0.0754,0.341682 0.31498,1.071382 0.53239,1.621557 0.21741,0.550176 0.36001,1.035596 0.3169,1.078714 -0.0431,0.04312 -0.22105,-0.01507 -0.39539,-0.129308 -0.5906,-0.386972 -0.61534,-0.16768 -0.0719,0.637496 0.20955,0.310497 0.381,0.594057 0.381,0.630137 0,0.0361 0.14287,0.25293 0.3175,0.48187 0.36355,0.47665 0.41577,0.77468 0.11553,0.65947 -0.49036,-0.18817 -0.39577,0.32618 0.16857,0.91665 0.0882,0.0923 0.1604,0.20718 0.1604,0.25529 0,0.0481 0.14787,0.24696 0.32861,0.44188 0.19087,0.20584 0.29734,0.43589 0.25401,0.54881 -0.0642,0.16737 -0.13506,0.15706 -0.50906,-0.0741 -0.29844,-0.18444 -0.46184,-0.22418 -0.52194,-0.12694 -0.0757,0.12247 0.0974,0.41124 1.06608,1.77818 0.14965,0.21118 0.14468,0.25537 -0.0365,0.32489 -0.11533,0.0443 -0.30757,-0.004 -0.42721,-0.10753 -0.11963,-0.1034 -0.3513,-0.22064 -0.51481,-0.26053 -0.26832,-0.0655 -0.2891,-0.0399 -0.21321,0.26245 0.0462,0.18424 0.28804,0.75327 0.53733,1.26451 0.24929,0.51123 0.41968,0.963094 0.37864,1.004124 -0.041,0.041 -0.27009,-0.0462 -0.50902,-0.19388 -0.23894,-0.147674 -0.47054,-0.268494 -0.51468,-0.268494 -0.11954,0 -0.097,0.353384 0.0386,0.604984 0.59064,1.09611 0.66577,1.59093 0.23235,1.53026 -0.25843,-0.0362 -0.29207,0.0284 -0.37598,0.72226 -0.10718,0.88618 -0.21552,1.28563 -1.10223,4.064 -0.48947,1.5337 -0.70159,2.90761 -0.60123,3.894158 0.31494,3.0958 0.25596,3.53534 -0.47444,3.53534 -0.22867,0 -0.5025,-0.0714 -0.60852,-0.15875 z m -51.576535,-0.53588 c -0.12224,-0.1681 -0.22225,-0.3718 -0.22225,-0.45266 0,-0.31601 -0.47825,-0.96951 -1.20143,-1.64167 -1.32087,-1.2277 -2.10983,-2.081178 -2.29047,-2.477788 -0.62307,-1.36803 -0.61116,-1.28907 -0.59021,-3.91193 0.0167,-2.09306 -0.0197,-2.664 -0.21865,-3.429 -0.13129,-0.5048 -0.30191,-1.40359 -0.37914,-1.997324 -0.72862,-5.60089 -0.83698,-7.361661 -0.58729,-9.543201 0.36819,-3.21688 0.48298,-3.679524 1.40224,-5.651693 0.46939,-1.007013 0.73914,-1.4406 0.93494,-1.502742 0.34615,-0.109865 0.64401,0.126214 0.64401,0.510433 0,0.354438 -0.30709,1.586445 -0.69512,2.788707 -0.1578,0.48895 -0.32706,1.28905 -0.37613,1.778 -0.0491,0.48895 -0.14105,1.090019 -0.20442,1.33571 -0.22178,0.859885 -0.5199,5.418546 -0.52308,7.998786 -0.003,2.13834 0.0328,2.67158 0.19848,2.984504 0.11094,0.20955 0.20205,0.4441 0.20249,0.52121 3.8e-4,0.0771 0.14092,0.29142 0.31221,0.47625 0.24944,0.26914 0.42724,0.33604 0.89308,0.33604 0.31991,0 0.78681,-0.0857 1.03758,-0.1905 0.62969,-0.2631 0.84174,-0.24041 1.18691,0.127 0.32193,0.34269 0.70917,0.40135 1.02129,0.15472 0.36689,-0.28992 0.75671,-1.07264 0.75671,-1.51941 0,-0.673414 -0.23948,-0.788474 -0.80444,-0.386494 -0.35508,0.252644 -0.50758,0.299474 -0.61744,0.1896 -0.2097,-0.20969 0.21654,-0.95132 0.71236,-1.23946 0.21561,-0.12531 0.42059,-0.261 0.45552,-0.30155 0.0531,-0.0617 1.2475,-0.65759 2.38106,-1.188 0.15705,-0.0735 0.32128,-0.0979 0.36494,-0.0542 0.12822,0.12822 -0.0544,0.47026 -0.29837,0.55881 -0.83058,0.3015 -1.75881,1.61707 -1.90384,2.698304 -0.0381,0.28392 -0.11134,0.51622 -0.16279,0.51622 -0.0515,0 -0.12513,0.23535 -0.16371,0.523 -0.0417,0.31058 -0.22234,0.71033 -0.44489,0.98425 -0.40792,0.5021 -0.48391,0.51345 -2.18967,0.32718 -0.64176,-0.0701 -0.73187,-0.0477 -1.03784,0.25832 -0.41741,0.41741 -0.5354,1.06936 -0.42256,2.33481 0.18133,2.03365 0.91917,4.08877 2.1183,5.900168 0.26915,0.40658 0.48937,0.7621 0.48937,0.79004 0,0.028 0.16701,0.29537 0.37114,0.59427 0.50272,0.73615 0.60678,1.11621 0.30417,1.11097 -0.12695,-0.002 -0.33083,-0.14153 -0.45306,-0.30964 z m 42.784965,-0.66348 c -0.14103,-0.14104 -0.0894,-0.41726 0.18081,-0.9666 0.66693,-1.35608 1.54468,-2.464138 2.38147,-3.006368 0.69236,-0.44863 0.69364,-0.45614 0.22703,-1.33642 -0.14283,-0.26945 -0.20219,-0.72864 -0.20274,-1.5684 -7.6e-4,-1.18328 0.24879,-2.40958 0.87616,-4.30505 0.13299,-0.4018 0.33746,-1.1306 0.45438,-1.619554 0.11692,-0.48895 0.26752,-1.1176 0.33466,-1.397 0.15548,-0.64697 0.36673,-2.26559 0.45582,-3.4925 0.0867,-1.19444 -0.14419,-3.129304 -0.56082,-4.698996 -0.17613,-0.663575 -0.36586,-1.37795 -0.42164,-1.5875 -0.0558,-0.20955 -0.22517,-0.695325 -0.37644,-1.0795 -0.15127,-0.384175 -0.32978,-0.882172 -0.39668,-1.106661 -0.0669,-0.224488 -0.17666,-0.442174 -0.24393,-0.483745 -0.0673,-0.04157 -0.1223,-0.203657 -0.1223,-0.36019 0,-0.156532 -0.0599,-0.344514 -0.13313,-0.417737 -0.20016,-0.200159 -0.62566,-2.056771 -0.62737,-2.737442 -0.002,-0.776125 0.18683,-1.168858 0.6928,-1.441343 1.08617,-0.584939 1.73824,0.439161 3.03661,4.769118 0.79532,2.652298 1.12848,4.875365 1.142,7.619996 0.0102,2.06963 -0.0151,2.26927 -0.54807,4.318 -0.51887,1.99466 -0.71843,3.144704 -0.84846,4.889504 -0.0668,0.89617 -0.006,1.22234 0.69185,3.683 0.29406,1.03759 0.70335,4.114968 0.58746,4.416978 -0.0729,0.18996 -0.0982,0.18918 -0.30487,-0.009 -0.12395,-0.11912 -0.28829,-0.33771 -0.3652,-0.48577 -0.0769,-0.14806 -0.35612,-0.36387 -0.62047,-0.47959 -0.26436,-0.115718 -0.64244,-0.294608 -0.84019,-0.397548 -0.50524,-0.26301 -0.77595,-0.23517 -1.37197,0.14108 -0.96975,0.612168 -2.77699,2.536308 -2.77699,2.956608 0,0.16798 -0.19548,0.28733 -0.29978,0.18303 z m -35.958715,-0.17836 c -0.2794,-0.0606 -1.0795,-0.19427 -1.778,-0.29694 -2.24335,-0.32974 -2.68382,-0.42792 -3.12411,-0.69634 -0.23754,-0.14481 -0.37474,-0.26722 -0.30489,-0.27201 1.72011,-0.11804 4.45874,-0.08 5.18782,0.072 0.97425,0.20314 3.00368,0.93268 3.00368,1.07977 0,0.25152 -1.99856,0.32755 -2.9845,0.11354 z m 21.780505,-0.11453 c 0,-0.0699 0.0857,-0.127 0.1905,-0.127 0.10477,0 0.1905,-0.0586 0.1905,-0.13023 0,-0.15527 1.57984,-0.91264 2.4765,-1.18722 1.32288,-0.40512 4.10651,-0.67119 5.08,-0.48558 l 0.50799,0.0969 -0.44237,0.22313 c -0.2433,0.12272 -0.78623,0.25137 -1.2065,0.28588 -0.76693,0.063 -2.13041,0.30707 -3.56624,0.63844 -0.42356,0.0978 -0.86725,0.17772 -0.98597,0.17772 -0.11872,0 -0.3151,0.053 -0.43639,0.11784 -0.2631,0.14058 -1.48142,0.51716 -1.67314,0.51716 -0.0742,0 -0.13488,-0.0571 -0.13488,-0.127 z M 77.701235,99.612592 c -0.20212,-0.37768 0.11702,-1.16591 0.71488,-1.76568 0.59677,-0.59866 0.68979,-0.63054 0.98329,-0.33705 0.1856,0.18561 0.16467,0.25257 -0.24803,0.79375 -0.2479,0.32508 -0.5648,0.80537 -0.70421,1.0673 -0.27652,0.51953 -0.54983,0.60808 -0.74593,0.24168 z m 36.389505,-0.63113 c -0.0353,-0.057 -0.17541,-0.5054 -0.31146,-0.99635 -0.27704,-0.99975 -0.81359,-2.18635 -1.26604,-2.79991 -0.16526,-0.2241 -0.76699,-0.88187 -1.33718,-1.4617 -1.39225,-1.4158 -1.57977,-1.66005 -1.67849,-2.18629 -0.0657,-0.35048 -0.0389,-0.46784 0.12087,-0.52917 0.46329,-0.17778 1.53188,0.84949 2.45717,2.36212 1.31069,2.14266 1.6868,2.63495 2.40248,3.14456 0.56834,0.40469 0.93213,0.37935 0.93038,-0.0648 -0.002,-0.47078 -0.28782,-1.37033 -0.65208,-2.05123 -0.35134,-0.65674 -0.96928,-1.2912 -2.36235,-2.42552 -0.5576,-0.45402 -1.28398,-1.16924 -1.61419,-1.58938 -1.01248,-1.288204 -1.88678,-3.109624 -1.49264,-3.109624 0.0552,0 0.46953,0.57691 0.92075,1.28203 1.25179,1.956174 1.87021,2.582134 2.88454,2.919684 0.46291,0.15404 1.03388,0.45663 1.27208,0.67414 0.2377,0.21706 0.52727,0.43151 0.64348,0.47657 0.24369,0.0945 0.71524,-0.17056 1.14396,-0.64293 0.31547,-0.3476 0.9055,-1.48966 0.90758,-1.75674 6.9e-4,-0.0873 0.0584,-0.158754 0.12825,-0.158754 0.0699,0 0.12699,-0.11995 0.12699,-0.26655 0,-0.14661 0.0794,-0.44665 0.17648,-0.66675 0.35694,-0.8094 0.84393,-2.27766 1.11321,-3.35629 0.23856,-0.95555 0.27757,-1.47468 0.2837,-3.774906 0.006,-2.304633 -0.0328,-2.863263 -0.28661,-4.111488 -0.2561,-1.259442 -0.27022,-1.467994 -0.11024,-1.627972 0.15998,-0.15998 0.23513,-0.131834 0.58668,0.219715 0.52314,0.523142 0.74088,0.957888 1.03678,2.070069 0.30197,1.134985 0.32199,2.939785 0.0481,4.335772 -0.25274,1.28814 -0.90174,3.78187 -1.15759,4.4479 -0.61564,1.60268 -0.56503,1.48202 -1.43836,3.429004 -0.15665,0.34925 -0.4223,0.92075 -0.59032,1.27 -0.51416,1.06874 -0.6931,1.9793 -0.60494,3.07828 0.0915,1.14009 -0.0488,1.63307 -0.51511,1.81036 -0.29312,0.11144 -0.31977,0.1857 -0.31977,0.89071 0,0.62137 -0.0427,0.78247 -0.22225,0.8386 -0.12224,0.0382 -0.37395,0.15072 -0.55935,0.25002 -0.38281,0.20502 -0.57178,0.22687 -0.66451,0.0768 z m -4.21146,-0.35934 c -0.37806,-0.40793 -0.39824,-0.80318 -0.056,-1.09623 0.36183,-0.30981 0.57764,-0.27295 0.8789,0.15013 0.31637,0.44431 0.32344,0.5633 0.0575,0.96911 -0.2631,0.40154 -0.49255,0.39555 -0.88046,-0.023 z m -34.438865,-1.14926 c -0.45272,-0.69093 -0.0958,-2.1648 0.61893,-2.556 0.92535,-0.50647 1.17803,-0.76029 1.66612,-1.6737 0.67914,-1.27094 0.63799,-1.22043 1.87038,-2.29615 1.34061,-1.170194 1.89824,-1.769194 1.90205,-2.043214 0.005,-0.38467 0.15368,-0.61364 0.39754,-0.61364 0.1836,0 0.24041,0.092 0.24041,0.38935 0,0.5381 -0.18116,0.83037 -1.03735,1.673584 -0.40736,0.40118 -0.74065,0.80392 -0.74065,0.89497 0,0.18261 -0.66657,0.84342 -1.47461,1.46189 -0.42691,0.32675 -0.58421,0.57452 -0.86262,1.35877 -0.25817,0.72721 -0.47742,1.09222 -0.90664,1.50939 -0.46852,0.45536 -0.56613,0.63104 -0.56613,1.01895 0,0.61114 -0.31658,1.2181 -0.63534,1.2181 -0.13629,0 -0.34873,-0.15403 -0.47209,-0.3423 z m 63.733165,-1.4519 c -0.008,-0.11368 -0.10641,-0.28278 -0.21847,-0.37578 -0.11205,-0.093 -0.25563,-0.28573 -0.31908,-0.4283 -0.28371,-0.63757 -1.57208,-2.46778 -1.97049,-2.79922 -0.41409,-0.34447 -1.31669,-1.53634 -1.31669,-1.73866 0,-0.178 0.10024,-0.22984 0.44449,-0.22984 0.24448,0 0.4445,-0.0346 0.4445,-0.0769 0,-0.0423 -0.14373,-0.256624 -0.31941,-0.476254 -0.17568,-0.21964 -0.36361,-0.45649 -0.41763,-0.52634 -0.14363,-0.18571 -0.96229,-1.59213 -1.16912,-2.00851 -0.15335,-0.3087 -0.15239,-0.37408 0.007,-0.47894 0.10155,-0.0668 0.37037,-0.0891 0.59738,-0.0495 0.51411,0.0896 0.52864,-0.0668 0.0635,-0.68379 -0.63293,-0.83958 -1.45255,-2.41651 -1.34579,-2.58925 0.0325,-0.0525 0.28811,-0.0955 0.5681,-0.0955 0.46852,0 0.50227,-0.0228 0.42378,-0.28575 -0.12754,-0.42733 -0.38382,-0.804372 -1.41133,-2.076316 -0.51343,-0.635564 -0.9335,-1.240402 -0.9335,-1.344083 0,-0.262978 0.14122,-0.376254 0.30581,-0.245288 0.24852,0.19775 0.71018,0.293489 0.71018,0.147277 0,-0.175342 -0.58227,-1.085157 -1.04113,-1.626801 -0.51568,-0.608714 -0.79057,-1.173035 -0.5714,-1.173035 0.33043,0 1.31052,0.756971 2.25155,1.738979 0.52167,0.544379 1.44854,1.480717 2.05972,2.080753 0.61117,0.600034 1.08137,1.120833 1.04487,1.157331 -0.0365,0.0365 -0.39368,-0.09665 -0.79373,-0.295875 -0.74366,-0.370343 -1.42588,-0.475874 -1.42588,-0.220566 0,0.180758 1.06996,1.685754 1.51247,2.127434 0.57428,0.5732 2.17053,2.39522 2.17053,2.47752 0,0.0431 -0.1143,0.0784 -0.254,0.0784 -0.1397,0 -0.25399,-0.0438 -0.25399,-0.0974 0,-0.0536 -0.35719,-0.23719 -0.79376,-0.40798 -0.43656,-0.17079 -0.83573,-0.36982 -0.88705,-0.4423 -0.0555,-0.0784 -0.0941,-0.0477 -0.0952,0.076 -0.003,0.30995 1.52886,2.51215 2.5413,3.6536 0.56231,0.63397 0.77533,1.02812 0.55565,1.02812 -0.0419,0 -0.39905,-0.19891 -0.79375,-0.44202 -0.73474,-0.45255 -1.54315,-0.70537 -1.54315,-0.48259 0,0.0677 0.47149,0.71948 1.04775,1.448354 0.99777,1.26199 1.43633,2.00758 1.93302,3.28626 0.1221,0.31433 0.2729,0.70278 0.33511,0.86323 0.28651,0.73887 0.0926,0.70107 -0.84498,-0.16468 -0.76156,-0.70322 -1.17977,-0.90928 -0.96666,-0.4763 0.53599,1.08898 0.81211,1.88627 0.74424,2.14896 -0.0478,0.18503 -0.063,0.19024 -0.0747,0.0256 z m -38.56018,-5.47601 c -0.0478,-0.29716 -0.15652,-0.654594 -0.24155,-0.794294 -0.085,-0.1397 -0.26204,-0.8255 -0.393395,-1.524 -0.13134,-0.6985 -0.31346,-1.38273 -0.40471,-1.5205 -0.18959,-0.28628 -0.22288,-1.03279 -0.0508,-1.13915 0.2662,-0.16452 0.537085,-1.38839 0.662195,-2.991846 0.14023,-1.797163 0.25376,-2.143331 0.56475,-1.721976 0.2403,0.325584 0.23377,1.705533 -0.0151,3.182472 -0.26041,1.54571 -0.26142,4.53615 -0.002,5.28177 0.21591,0.62005 0.26314,1.584964 0.083,1.696284 -0.0637,0.0393 -0.15488,-0.1716 -0.20271,-0.46876 z m -14.120605,-0.17531 c 0.0361,-0.340444 0.16088,-1.104754 0.27735,-1.698484 0.23112,-1.17817 0.20951,-2.62342 -0.0693,-4.6355 -0.19632,-1.416675 -0.1964,-2.800902 -1.3e-4,-3.297693 0.11849,-0.299984 0.17276,-0.338779 0.26655,-0.1905 0.0648,0.102409 0.11849,0.414797 0.11938,0.694197 0.003,1.051121 0.41745,3.683016 0.61528,3.910486 0.23735,0.27292 0.26795,1.38115 0.0455,1.64914 -0.0838,0.10093 -0.20784,0.6216 -0.27573,1.15705 -0.0679,0.53545 -0.26752,1.33371 -0.44363,1.7739 -0.1761,0.440194 -0.32019,0.863934 -0.32019,0.941644 0,0.0777 -0.0631,0.18032 -0.14032,0.22801 -0.0983,0.0607 -0.12065,-0.0989 -0.0747,-0.53225 z m 26.989415,-0.10588 c -1.55503,-1.220494 -2.27207,-2.735604 -1.29465,-2.735604 0.43582,0 2.06327,1.65061 2.31568,2.34864 0.15525,0.429334 0.14893,0.497484 -0.066,0.712394 -0.23219,0.23218 -0.25411,0.22472 -0.95506,-0.32543 z m 0.91164,-3.168174 c -0.8816,-0.33205 -1.08631,-0.44081 -1.51368,-0.80419 -0.50353,-0.42813 -0.4456,-0.72823 0.11672,-0.60473 0.28514,0.0626 0.4231,0.007 0.68641,-0.27701 0.18125,-0.19547 0.32955,-0.42016 0.32955,-0.4993 0,-0.28887 0.50257,-1.2698 0.78716,-1.53641 0.35556,-0.33309 0.73713,-0.48223 1.53278,-0.59909 0.46519,-0.0683 0.66931,-0.175297 0.88113,-0.461806 0.31551,-0.426748 0.72447,-0.482386 1.03374,-0.14064 0.31014,0.342699 0.25621,0.805826 -0.13906,1.194156 -1.71232,1.68227 -1.62922,1.62159 -2.22064,1.62159 -0.42203,0 -0.62918,0.0727 -0.83698,0.29394 -0.60718,0.64632 -0.17786,0.99163 1.27829,1.02815 0.93871,0.0235 1.25946,0.19466 1.0342,0.55177 -0.0749,0.11873 -0.27363,0.25433 -0.44164,0.30135 -0.52866,0.14792 -2.06464,0.10674 -2.52798,-0.0678 z m -38.910375,-0.61518 c -0.0997,-0.15716 -0.22151,-0.54292 -0.27075,-0.85725 -0.1046,-0.66764 -0.32179,-0.94882 -1.00049,-1.2952 -0.65891,-0.33629 -0.91997,-0.59467 -1.14501,-1.13326 -0.19993,-0.4785 -0.423,-2.397536 -0.2787,-2.397536 0.12957,0 1.60032,1.516248 1.60032,1.649819 0,0.127876 1.07425,0.636177 1.3445,0.636177 0.26316,0 0.7965,0.64409 0.88883,1.0734 0.22335,1.03847 0.69248,1.33795 1.38505,0.88416 0.5516,-0.36142 0.78514,0.12702 0.32468,0.67905 -0.34261,0.41076 -1.69027,1.04639 -2.21851,1.04639 -0.32695,0 -0.49787,-0.0775 -0.62992,-0.28575 z m 8.46302,-3.175 c -0.069,-0.0873 -0.15737,-0.67766 -0.1964,-1.311889 -0.0896,-1.455965 -0.3839,-2.386863 -0.86233,-2.727531 -0.19818,-0.14112 -0.80563,-0.372044 -1.34988,-0.513165 -0.90317,-0.234187 -1.04774,-0.318159 -1.65629,-0.962099 -0.36672,-0.388035 -0.66675,-0.760143 -0.66675,-0.826907 0,-0.176048 -0.77097,-1.272373 -1.07466,-1.52818 -0.3496,-0.294475 -0.84561,-0.280639 -1.46228,0.04079 -0.57113,0.297693 -0.89206,0.250272 -0.89206,-0.13181 0,-0.139434 -0.1166,-0.315918 -0.25911,-0.392187 -0.31271,-0.167358 -0.89416,0.149686 -1.3905,0.75819 -0.17386,0.213149 -0.35959,0.387543 -0.41275,0.387543 -0.17138,0 -0.10291,-0.509106 0.12468,-0.927057 0.18562,-0.340889 0.22155,-0.754658 0.22272,-2.565443 0.002,-2.532066 0.063,-2.715387 1.33568,-3.992057 0.46154,-0.462968 0.79613,-0.91794 0.84135,-1.144053 0.0755,-0.377307 0.49414,-0.871513 0.62633,-0.739321 0.27228,0.27228 -0.0448,1.266615 -0.82054,2.573431 -1.00653,1.695524 -0.96009,1.549681 -0.92816,2.914801 0.0338,1.443901 0.1839,1.794885 0.81809,1.912661 0.22754,0.04226 1.4244,-0.04011 2.6597,-0.183042 1.2353,-0.142929 2.43545,-0.222684 2.667,-0.177232 1.03852,0.203855 2.52564,1.294611 3.10029,2.273961 0.63508,1.082334 0.81322,1.877679 0.81322,3.630841 0,2.564633 -0.62657,4.402685 -1.23735,3.629755 z m -1.8885,-6.18579 c 0.54425,-0.206926 0.90133,-1.163173 0.56131,-1.503191 -0.11738,-0.117379 -0.18665,-0.06801 -0.30734,0.219015 -0.0857,0.203802 -0.29889,0.464307 -0.47378,0.5789 -0.29087,0.190579 -0.35099,0.191285 -0.7049,0.0083 -0.59545,-0.307916 -0.86484,-1.073257 -0.50458,-1.433514 0.19167,-0.191664 0.0462,-0.541937 -0.22513,-0.541937 -0.60527,0 -0.88205,0.895696 -0.5023,1.625557 0.4646,0.892953 1.38567,1.340051 2.15672,1.046899 z m -3.70675,5.049144 c -0.22956,-0.229556 -0.18449,-0.488324 0.13335,-0.765545 0.4561,-0.397826 1.74625,-0.141071 1.74625,0.347524 0,0.410697 -1.54363,0.753997 -1.8796,0.418021 z m 27.414465,-0.150406 c -0.21086,-0.393996 -0.63855,-0.439617 -0.73307,-0.07819 -0.0763,0.291664 -0.20315,0.322613 -0.39051,0.09525 -0.19682,-0.238851 -0.40828,-1.554072 -0.40828,-2.539407 0,-0.744161 0.0691,-1.01809 0.46636,-1.849925 0.38121,-0.798132 0.69057,-1.196715 1.69426,-2.182918 2.12213,-2.085158 3.24791,-2.461129 5.51452,-1.841649 1.49886,0.409647 2.14631,0.378006 2.57991,-0.12608 0.15727,-0.182839 0.28595,-0.437434 0.28595,-0.565765 0,-0.128332 0.0714,-0.268649 0.15875,-0.311817 0.74048,-0.366095 0.92095,-0.560523 1.02195,-1.100951 0.19882,-1.063891 0.005,-2.699786 -0.44647,-3.775621 -0.51939,-1.236668 -0.55076,-1.968663 -0.0992,-2.315548 0.63063,-0.484486 0.9883,-0.288432 2.09327,1.147431 0.75152,0.976564 1.33573,2.053159 1.33573,2.461499 0,0.269471 -0.0908,0.383652 -0.41274,0.519079 -0.42004,0.176681 -0.92006,0.664454 -1.2065,1.176949 -0.21617,0.38675 -0.19929,1.427238 0.0417,2.573473 0.24497,1.164929 0.18291,1.619134 -0.31667,2.317582 -0.23243,0.324962 -0.48514,0.937654 -0.63474,1.538934 -0.25752,1.034994 -0.5126,1.422775 -1.22593,1.863636 -0.33171,0.205005 -0.62696,0.241911 -1.87574,0.234464 -0.85393,-0.0051 -1.45184,-0.05774 -1.41075,-0.124226 0.0392,-0.06347 0.13322,-0.11539 0.20888,-0.11539 0.26395,0 1.526,-1.18841 1.96634,-1.851604 0.32889,-0.495351 0.44578,-0.810647 0.45159,-1.218119 0.0128,-0.898158 -0.1084,-1.121277 -0.60909,-1.121277 -0.57498,0 -0.82215,0.227961 -1.72702,1.592843 -0.89839,1.355108 -1.45342,1.763841 -2.56104,1.885969 -1.59401,0.175759 -1.94778,0.409454 -2.42389,1.601188 -0.12557,0.314325 -0.28131,0.657225 -0.34607,0.762 -0.0648,0.104775 -0.15133,0.290513 -0.19237,0.41275 -0.041,0.122237 -0.12511,0.22225 -0.18682,0.22225 -0.0617,0 -0.11476,0.07144 -0.11791,0.15875 -0.003,0.08731 -0.0757,0.322525 -0.16118,0.522694 l -0.15545,0.363944 z m 3.95272,-5.289617 c 0.56815,-0.157799 1.11942,-0.77651 1.11942,-1.256369 0,-0.582226 -0.25374,-1.152208 -0.51293,-1.152208 -0.29901,0 -0.44674,0.234132 -0.26341,0.417466 0.32501,0.32501 0.005,1.152013 -0.53179,1.375592 -0.45782,0.190582 -0.96069,-0.05486 -1.13462,-0.553787 -0.13678,-0.392384 -0.211,-0.420206 -0.51088,-0.191521 -0.19675,0.150035 -0.28541,0.522257 -0.24113,1.012369 0.0357,0.395039 1.20235,0.590925 2.07534,0.348458 z m -30.362345,3.563799 c -0.50076,-0.298323 -1.05358,-0.515443 -1.4444,-0.567286 -0.95122,-0.126185 -2.54176,-0.971617 -2.89098,-1.536671 l -0.28466,-0.46058 0.254,-0.338669 c 0.23211,-0.30949 0.32931,-0.33867 1.12815,-0.33867 0.8592,0 1.57208,0.13511 1.57324,0.298174 3.8e-4,0.04555 0.16276,0.255824 0.36098,0.467268 0.19821,0.211442 0.38369,0.450137 0.41216,0.530432 0.14081,0.3971 1.42497,1.66343 1.95556,1.928422 0.43774,0.218616 0.55349,0.329318 0.42769,0.409027 -0.3075,0.194838 -0.66514,0.100991 -1.49174,-0.391447 z m 30.846765,0.0209 c 0,-0.279111 0.83467,-0.913274 1.20203,-0.913274 0.10723,0 0.19497,0.05715 0.19497,0.127 0,0.06985 -0.10002,0.128588 -0.22225,0.130528 -0.12224,0.0019 -0.38894,0.173391 -0.59267,0.381 -0.36575,0.372716 -0.58208,0.474826 -0.58208,0.274746 z M 73.006625,79.019162 c -0.005,-0.408785 0.0265,-0.514175 0.11069,-0.370161 0.0694,0.118733 0.0723,0.353215 0.007,0.5715 -0.10219,0.341735 -0.11124,0.326272 -0.11775,-0.201339 z M 101.23845,78.44118 c -0.15415,-0.368954 -0.16289,-0.591844 -0.048,-1.225421 0.0772,-0.42594 0.10714,-0.9071 0.0664,-1.069242 -0.0767,-0.305564 -0.67541,-0.937355 -0.88829,-0.937355 -0.0667,0 -0.28164,-0.153567 -0.477555,-0.34126 -0.40976,-0.392574 -0.46829,-0.920104 -0.13395,-1.207252 0.598125,-0.5137 0.943785,-0.342601 1.345075,0.665801 0.38657,0.971423 0.8311,0.976724 1.88079,0.02243 0.48093,-0.437227 1.08147,-0.439032 1.41125,-0.0042 0.24581,0.324092 0.24828,0.358917 0.0472,0.665768 -0.11669,0.178083 -0.49124,0.46521 -0.83235,0.638059 -0.74046,0.375227 -1.15324,0.859594 -1.15324,1.353253 0,0.661628 -0.59487,1.890443 -0.91516,1.890443 -0.0626,0 -0.1986,-0.202942 -0.30223,-0.450982 z M 87.609965,77.354465 c -0.0138,-0.215006 -0.71374,-1.612662 -1.11224,-2.221014 -0.18535,-0.282957 -0.23338,-0.598061 -0.22958,-1.506299 0.005,-1.226096 0.0924,-1.479335 0.8771,-2.54549 0.7545,-1.025084 2.43189,-2.4765 2.86207,-2.4765 0.37074,0 0.003,0.534478 -1.12548,1.634141 -1.34965,1.315618 -1.93149,2.269807 -2.10981,3.459981 -0.0801,0.534442 -0.0354,0.685826 0.51148,1.732199 0.55754,1.066831 0.59019,1.180677 0.4694,1.636878 -0.0714,0.269665 -0.13572,0.398413 -0.14294,0.286104 z m 15.657285,-4.030303 c -0.32769,-0.231746 -0.43045,-0.880716 -0.43144,-2.724725 -10e-4,-1.87276 -0.0115,-1.948888 -0.34925,-2.533605 -0.19152,-0.331555 -0.77684,-1.046562 -1.30071,-1.588902 -0.97339,-1.007703 -1.406835,-1.498074 -2.413005,-2.729984 -0.89441,-1.095066 -1.78446,-1.428993 -2.40124,-0.900889 -0.47172,0.403901 -0.29137,1.41476 0.35711,2.00163 0.27182,0.245991 0.50754,0.392651 1.25185,0.778875 0.51191,0.265629 1.04628,0.883792 1.04628,1.210345 0,0.304572 -0.52691,0.337029 -0.76738,0.04727 -0.0995,-0.119909 -0.3168,-0.182024 -0.55531,-0.15875 -0.32671,0.03188 -0.39877,0.09923 -0.43372,0.405293 -0.0341,0.298869 0.085,0.499404 0.64149,1.0795 0.90837,0.946978 1.1349,1.478038 1.1288,2.646257 -0.006,1.07715 -0.0612,1.229259 -0.3858,1.055546 -0.1917,-0.102592 -1.40608,-2.352913 -1.40608,-2.605544 0,-0.17594 -0.56632,-1.31067 -0.968,-1.939566 -0.28254,-0.44238 -0.51185,-0.66675 -0.68143,-0.66675 -0.14056,0 -0.25866,0.07144 -0.26244,0.15875 -0.004,0.08731 -0.0181,0.758825 -0.0318,1.49225 -0.0198,1.059851 -0.0731,1.404662 -0.26011,1.680271 -0.18855,0.277942 -0.28137,0.322082 -0.46765,0.222385 -0.34738,-0.185912 -0.40769,-0.539697 -0.23856,-1.399374 0.13551,-0.688818 0.12838,-0.798906 -0.064,-0.988465 -0.2029,-0.199872 -0.22861,-0.197307 -0.408,0.04068 -0.10529,0.1397 -0.33427,0.568325 -0.50884,0.9525 -0.67988,1.496217 -0.85346,1.743003 -1.62099,2.304593 -0.78841,0.576873 -1.47319,0.417267 -1.47319,-0.343366 0,-0.307914 0.97576,-1.627316 1.954,-2.642154 0.462,-0.479284 0.84,-0.920728 0.84,-0.980989 0,-0.06026 -0.17632,-0.200738 -0.39182,-0.312178 -0.35661,-0.184411 -0.38664,-0.247467 -0.33416,-0.701762 0.0723,-0.625806 -0.139,-0.657964 -0.70966,-0.108009 -0.80085,0.771791 -1.31734,1.045756 -1.81826,0.964468 -0.32271,-0.05237 -0.60419,-0.0014 -0.9406,0.170184 -0.47077,0.240166 -1.7745,1.41512 -1.7745,1.599218 0,0.05142 -0.0759,0.18372 -0.1687,0.293995 -0.22185,0.263683 -0.5933,1.467035 -0.5933,1.922089 0,0.446221 -0.2146,0.59474 -0.47831,0.331028 -0.1746,-0.174594 -0.17951,-0.29321 -0.0388,-0.935778 0.30521,-1.39368 0.74878,-2.371943 1.42255,-3.137392 0.45423,-0.516032 0.78851,-0.705442 2.01555,-1.142052 0.6569,-0.233741 2.0365,-1.42771 2.03381,-1.760146 -0.002,-0.189587 -0.079,-0.211402 -0.50757,-0.142876 -0.27817,0.04448 -0.96051,0.01013 -1.51631,-0.07633 -0.92857,-0.144449 -1.10647,-0.134061 -2.19299,0.128057 -1.34753,0.325086 -3.03514,1.098704 -3.77124,1.728782 -0.55046,0.47117 -1.0307,1.337319 -1.0307,1.858937 0,0.184319 0.14021,0.721393 0.31157,1.193497 0.32859,0.905269 0.32178,1.083005 -0.0319,0.832771 -0.54384,-0.384756 -1.19101,-0.663588 -1.54018,-0.663588 -0.52633,0 -1.27948,0.668969 -1.27948,1.136472 0,0.409613 0.23611,0.633088 1.016,0.961615 0.31433,0.132409 0.70009,0.321155 0.85725,0.419435 0.32895,0.205706 0.37885,0.629723 0.0873,0.741612 -0.31326,0.120208 -2.22009,-0.331948 -2.84473,-0.674554 -0.31168,-0.170955 -0.81179,-0.344421 -1.11134,-0.38548 -0.75965,-0.104121 -1.17946,-0.520955 -1.17946,-1.171107 0,-0.414347 0.0645,-0.550251 0.34925,-0.736315 0.19209,-0.125497 0.80645,-0.692305 1.36525,-1.25957 0.5588,-0.567266 1.13535,-1.092969 1.28122,-1.16823 0.2921,-0.150709 0.7419,-0.07602 1.12829,0.187364 0.13778,0.09392 0.3239,0.170758 0.41359,0.170758 0.27628,0 0.79627,-0.711512 1.44217,-1.973354 0.1999,-0.390533 1.22141,-1.016513 2.14823,-1.316431 0.45403,-0.146923 1.11872,-0.489487 1.47711,-0.761257 0.35838,-0.27177 0.97268,-0.587469 1.36512,-0.701553 0.68337,-0.19866 0.76048,-0.195816 1.8249,0.06728 1.98563,0.490807 3.32444,0.338515 4.18573,-0.476134 0.43802,-0.414301 0.48522,-0.432021 0.5211,-0.195654 0.0578,0.380634 -0.29337,0.977781 -0.76779,1.305644 -0.95143,0.657518 -1.09637,1.095273 -0.42231,1.275534 0.27655,0.07396 0.47411,0.03708 0.762,-0.14225 0.58179,-0.362409 0.7944,-0.668267 1.28,-1.841341 0.41184,-0.994896 0.44212,-1.162182 0.44175,-2.440548 -2.5e-4,-0.754842 0.064,-2.279093 0.14275,-3.387227 0.1747,-2.459031 0.0977,-2.839256 -0.67863,-3.352923 -0.71765,-0.474811 -1.79045,-0.464692 -3.21023,0.03028 -1.25787,0.438526 -1.49638,0.5996 -2.921,1.972609 -0.93089,0.89717 -1.35511,1.201957 -2.286,1.642412 -1.147,0.542708 -1.74439,0.834884 -2.82515,1.381742 -0.62633,0.316921 -1.22334,0.29601 -1.09503,-0.03835 0.15314,-0.399088 2.74724,-2.448148 5.12668,-4.04953 0.80328,-0.540611 1.77349,-1.203883 2.15603,-1.473939 1.17016,-0.826079 1.54137,-0.892718 4.93881,-0.886615 2.87098,0.0052 3.04037,0.01919 3.89066,0.322305 1.457195,0.519462 1.989065,0.658801 2.857505,0.748614 1.165,0.120481 2.17288,0.641027 3.29324,1.700879 0.58329,0.551786 1.1571,0.968623 1.52054,1.104587 0.75702,0.283197 2.14719,1.003977 2.55223,1.323279 0.24828,0.195731 0.27068,0.250912 0.10274,0.25312 -0.11811,0.0015 -0.25008,-0.05433 -0.29324,-0.124176 -0.0432,-0.06985 -0.18243,-0.127 -0.30945,-0.127 -0.12702,0 -0.2943,-0.07633 -0.37173,-0.169625 -0.12771,-0.153886 -1.15669,-0.272293 -4.54329,-0.522808 -0.85949,-0.06358 -1.2503,-0.281704 -2.08347,-1.162836 -1.534105,-1.622414 -1.685435,-1.691647 -2.634885,-1.20543 -1.28968,0.660456 -1.69532,2.657304 -0.72499,3.568884 0.28639,0.269045 0.49366,0.314209 1.87539,0.408645 3.897645,0.266387 5.002835,0.436516 6.517735,1.003311 1.40857,0.527013 2.2841,1.747535 1.19518,1.666128 -0.24447,-0.01828 -1.18745,-0.08139 -2.0955,-0.140245 -1.06367,-0.06894 -1.98984,-0.208273 -2.6035,-0.391659 -1.4952,-0.446826 -2.14741,-0.544648 -3.225645,-0.483796 -1.11865,0.06313 -1.34636,0.21869 -1.34636,0.919762 0,0.556779 0.84918,1.352196 1.905005,1.784397 1.48605,0.608316 1.83682,0.801978 2.22271,1.227174 0.47901,0.52782 0.64138,0.821549 0.76077,1.376266 0.0521,0.242183 0.25658,0.681873 0.45433,0.97709 0.48949,0.73071 0.55153,1.207824 0.29353,2.257242 -0.23546,0.957708 -0.28786,2.521445 -0.11988,3.577133 0.0574,0.360873 0.0689,0.797482 0.0256,0.970242 -0.0829,0.330369 -0.3403,0.503091 -0.53963,0.362125 z m 5.08662,-2.994492 c -0.21997,-0.161048 -0.24653,-0.342334 -0.24653,-1.68275 0,-1.268838 -0.0388,-1.56639 -0.24963,-1.915008 -0.32993,-0.545513 -0.75039,-0.553825 -1.02629,-0.02029 -0.11162,0.215854 -0.16492,0.487317 -0.11843,0.60325 0.42431,1.058155 0.55873,2.432185 0.26204,2.678422 -0.1989,0.165067 -0.2403,0.08127 -0.38542,-0.779943 -0.0459,-0.272196 -0.2347,-0.62659 -0.44698,-0.838866 l -0.36755,-0.367557 0.0405,-2.029028 c 0.0449,-2.250454 0.13903,-2.579741 0.73755,-2.579741 0.28137,0 0.6517,0.2991 1.82206,1.471633 l 1.4689,1.471633 -0.0689,0.655617 c -0.0379,0.36059 -0.106,0.898013 -0.15135,1.194274 -0.13692,0.894684 0.19676,0.867164 1.91051,-0.157567 1.06132,-0.634618 2.33315,-0.493687 3.33577,0.369636 0.42139,0.36284 0.39304,1.108014 -0.0581,1.526299 -0.46105,0.427509 -1.17004,0.510838 -2.29974,0.270295 -1.2375,-0.263497 -1.91533,-0.249343 -2.69045,0.05618 -0.7622,0.300434 -1.13269,0.318985 -1.46797,0.07351 z m 17.78748,-4.114784 c -0.76069,-0.602631 -2.23509,-1.568479 -2.76694,-1.812562 -0.40418,-0.185488 -0.88811,-0.462032 -2.28466,-1.30556 -0.85826,-0.5184 -1.2349,-0.818593 -1.2349,-0.98425 0,-0.174882 0.093,-0.23887 0.34924,-0.240296 0.19209,-10e-4 0.43498,-0.05822 0.53975,-0.127 0.16934,-0.111161 0.16934,-0.138997 0,-0.250519 -0.26934,-0.177391 -1.61436,-0.664914 -3.17499,-1.150825 -0.73343,-0.228356 -1.40155,-0.467413 -1.48471,-0.531237 -0.21675,-0.166356 -0.058,-0.477665 0.31621,-0.619923 0.41417,-0.157467 0.2505,-0.297431 -0.54601,-0.466919 -1.25082,-0.266164 -1.58065,-0.384448 -3.00305,-1.076953 -0.79307,-0.386111 -1.68036,-0.740635 -1.97175,-0.787832 -0.53097,-0.086 -0.79608,-0.359074 -0.51641,-0.531919 0.0821,-0.05071 0.77965,-0.114714 1.5502,-0.142224 1.4691,-0.05245 3.31857,0.250403 4.14776,0.679197 0.39289,0.203171 0.38576,0.436098 -0.0133,0.436098 -0.39928,0 -0.6379,0.14343 -0.6379,0.383424 0,0.171087 0.13694,0.251815 0.53976,0.31819 0.94134,0.155115 2.29589,0.529289 2.95275,0.815652 1.04943,0.457513 1.7145,0.808366 1.7145,0.904478 0,0.165943 -0.63652,0.25338 -0.88326,0.121329 -0.13368,-0.07154 -0.34682,-0.125561 -0.47365,-0.120046 -0.17757,0.0077 -0.18679,0.02613 -0.0401,0.08007 0.10478,0.03852 0.27623,0.139175 0.381,0.223667 0.10478,0.08449 0.5444,0.282797 0.97694,0.440677 1.36497,0.498224 3.90923,2.145899 4.27497,2.768493 0.12943,0.220318 -0.0954,0.513582 -0.22857,0.29813 -0.0469,-0.07594 -0.2046,-0.138066 -0.35038,-0.138066 -0.24805,0 -0.24308,0.02036 0.0775,0.3175 0.18843,0.174625 0.36822,0.3175 0.39955,0.3175 0.0313,0 0.16302,0.100013 0.29265,0.22225 0.12963,0.122237 0.44386,0.412542 0.69829,0.645119 0.55697,0.50914 1.28269,1.397786 1.39189,1.704381 0.13315,0.373851 -0.18697,0.248037 -0.99237,-0.390026 z M 73.247045,65.906412 c 0.002,-0.268178 0.94271,-1.641267 1.67483,-2.44475 0.8188,-0.898605 1.48311,-1.845373 1.94004,-2.76495 0.18148,-0.365228 0.4416,-0.8355 0.57805,-1.04505 0.13644,-0.20955 0.2834,-0.452437 0.32657,-0.53975 0.0432,-0.08731 0.12952,-0.15875 0.1919,-0.15875 0.14364,0 0.15007,0.599239 0.007,0.656167 -0.0585,0.02328 -0.32437,0.670983 -0.59081,1.439333 -0.69797,2.012739 -0.89146,2.277363 -3.08772,4.22275 -0.93844,0.831245 -1.04187,0.894404 -1.0399,0.635 z m -5.75854,-1.195917 c -0.1503,-0.150307 -0.0902,-0.844963 0.12106,-1.398008 0.14411,-0.377359 0.17983,-0.711307 0.11926,-1.115167 -0.16914,-1.127907 -0.87856,-1.01424 -1.65848,0.265733 -0.6477,1.062966 -0.79429,1.228261 -1.01438,1.143806 -0.17425,-0.06687 -0.18979,-0.198216 -0.10335,-0.873946 0.25617,-2.002606 0.12448,-2.352028 -1.5441,-4.097251 -1.13544,-1.187588 -1.84972,-2.512027 -2.15751,-4.0005 -0.21957,-1.061881 -0.26118,-3.262928 -0.0774,-4.093928 0.0659,-0.297864 0.18722,-0.855897 0.26963,-1.240072 0.32406,-1.510635 1.15837,-3.543689 1.90456,-4.64108 1.01823,-1.497463 1.96512,-2.044306 4.73083,-2.732137 1.89157,-0.470433 2.84985,-0.273249 4.99099,1.02699 0.7762,0.471364 1.54501,0.899469 1.70846,0.951345 0.97667,0.309982 2.65448,1.367255 3.71873,2.34336 0.68216,0.62566 2.36012,2.811648 2.36671,3.083272 0.005,0.191595 -0.38561,0.0878 -0.71624,-0.1905 -0.18672,-0.157162 -0.51577,-0.435179 -0.73122,-0.617814 -1.08783,-0.922138 -3.25973,-2.61183 -3.82073,-2.972452 -1.52079,-0.977593 -3.53904,-1.664568 -4.54687,-1.547669 -0.75291,0.08733 -1.45981,0.289771 -2.10324,0.602327 -0.88519,0.429986 -2.16684,1.900947 -1.94596,2.233389 0.0479,0.07207 0.60142,0.219945 1.23007,0.328602 1.35561,0.234304 1.76646,0.382461 2.90169,1.046363 1.11243,0.650577 2.15386,1.677105 2.97683,2.934259 0.91484,1.397467 0.91504,1.683068 6.4e-4,0.800895 -0.63273,-0.610391 -1.79601,-1.39579 -2.4068,-1.624975 -0.23336,-0.08757 -0.62432,-0.235537 -0.8688,-0.328823 -0.24447,-0.09329 -0.74581,-0.204317 -1.11407,-0.246731 -0.66419,-0.0765 -0.66779,-0.07504 -0.44803,0.18163 0.12185,0.142312 0.29374,0.258749 0.38197,0.258749 0.0882,0 0.51827,0.185737 0.95565,0.41275 1.08003,0.560564 2.45481,1.941299 3.19029,3.204094 0.52379,0.899337 0.72486,1.463156 0.52178,1.463156 -0.0376,0 -0.36176,-0.281276 -0.72028,-0.625058 -1.13118,-1.084649 -2.47752,-1.579681 -4.10254,-1.508448 -0.87037,0.03815 -1.23544,0.256523 -0.66725,0.399129 0.41949,0.105285 3.90224,2.195547 4.32023,2.592894 0.6066,0.576639 0.48997,0.641613 -1.02298,0.569902 -1.46364,-0.06937 -2.66889,0.134882 -3.58077,0.606839 -0.53867,0.278799 -0.68897,0.211024 2.50878,1.131333 0.98695,0.284045 1.85576,0.855079 1.7356,1.140741 -0.0465,0.110642 -0.14824,0.372618 -0.226,0.582168 -0.52296,1.409356 -0.8818,1.780363 -2.27032,2.347338 -0.48484,0.197972 -0.69131,0.388201 -1.06489,0.981125 -0.64873,1.029504 -0.92883,1.307037 -1.3192,1.307037 -0.18573,0 -0.3758,-0.0381 -0.42236,-0.08467 z m 10.27298,-1.598083 c 0.0483,-0.157162 0.39871,-0.714375 0.77876,-1.23825 0.38004,-0.523875 0.93019,-1.323975 1.22254,-1.778 0.57029,-0.885656 0.88732,-1.044678 0.95259,-0.47782 0.0673,0.584156 -0.7035,1.838231 -1.75453,2.85472 -0.98824,0.955755 -1.35689,1.152275 -1.19936,0.63935 z m 47.466745,-1.778 c -0.48064,-0.345135 -1.74643,-1.428759 -2.20599,-1.888531 -0.42637,-0.426557 -0.7544,-1.248245 -0.7544,-1.889719 0,-0.276573 -0.0954,-0.746904 -0.21199,-1.04518 -0.54179,-1.386031 -1.71873,-2.175139 -3.47232,-2.328106 -0.55577,-0.04848 -1.10007,-0.153644 -1.20954,-0.233697 -0.17582,-0.128557 -0.15753,-0.199696 0.15665,-0.609293 0.19564,-0.255059 0.44143,-0.495922 0.54621,-0.535254 0.10477,-0.03933 0.36195,-0.185848 0.5715,-0.325592 0.20955,-0.139745 0.46672,-0.28813 0.5715,-0.329747 0.42574,-0.169103 1.23279,-0.473122 1.651,-0.621939 0.24447,-0.087 0.64452,-0.229219 0.889,-0.316051 0.24447,-0.08683 0.57308,-0.187325 0.73025,-0.223316 0.15716,-0.03599 0.28575,-0.12386 0.28575,-0.19527 0,-0.200097 -1.34349,-0.03291 -2.286,0.284479 -0.92285,0.310767 -2.24955,0.935027 -2.9018,1.365406 -1.00623,0.663947 -0.65737,-0.187925 0.5523,-1.348637 1.60469,-1.539755 3.75538,-2.933833 4.84003,-3.137316 0.23676,-0.04442 0.43047,-0.131544 0.43047,-0.193621 0,-0.191026 -1.10685,-0.124864 -1.61495,0.09653 -1.56826,0.683358 -2.09251,0.960914 -2.86921,1.519072 -1.90149,1.366456 -2.57968,1.837176 -2.91123,2.020646 -0.34513,0.190987 -0.34625,0.190309 -0.22284,-0.134291 0.10522,-0.27675 0.60541,-0.987985 1.07773,-1.532455 0.0699,-0.08052 0.38247,-0.453408 0.69472,-0.828637 0.67567,-0.811963 3.03108,-3.01358 3.75274,-3.50771 0.28076,-0.192238 0.72367,-0.458536 0.98425,-0.591773 0.26058,-0.133237 0.47379,-0.290399 0.47379,-0.34925 0,-0.277421 -2.16256,0.09851 -2.35465,0.409328 -0.0403,0.06527 -0.15071,0.118671 -0.24526,0.118671 -0.4384,0 -2.11744,1.299248 -3.73594,2.890878 -1.57923,1.55302 -1.77354,1.386317 -0.40898,-0.350878 0.35663,-0.454025 0.97713,-1.248427 1.37887,-1.765338 0.40175,-0.51691 1.05907,-1.267489 1.46071,-1.667951 0.68354,-0.681545 0.88451,-1.011711 0.61583,-1.011711 -0.26342,0 -1.7195,1.229599 -2.57952,2.17829 -1.42297,1.569699 -1.4694,1.625119 -2.29246,2.736406 -0.42464,0.573337 -0.81944,1.013155 -0.87734,0.977372 -0.35213,-0.217629 0.26864,-1.45291 1.64995,-3.283291 0.52932,-0.701402 1.02571,-1.332427 1.10309,-1.402277 0.0774,-0.06985 0.29521,-0.338311 0.48407,-0.596579 0.48659,-0.665434 2.36332,-2.555579 2.81713,-2.837267 1.82464,-1.132609 3.59874,-1.545293 5.14276,-1.196289 1.47879,0.334259 4.52742,2.104493 5.59501,3.248827 1.85129,1.984361 2.31394,5.514942 1.25628,9.586763 -0.0655,0.252149 -0.23747,1.137974 -0.38217,1.9685 -0.26521,1.52226 -0.25436,2.846213 0.0295,3.595659 0.0641,0.169188 0.12144,0.732121 0.12748,1.250962 0.01,0.85812 -0.0194,0.973694 -0.32494,1.279269 -0.31859,0.31859 -0.35383,0.325942 -0.68291,0.142474 -0.26587,-0.148234 -0.42119,-0.417539 -0.66448,-1.152174 -0.37377,-1.128663 -0.65822,-1.595806 -1.09204,-1.793468 -0.27419,-0.12493 -0.35503,-0.102886 -0.60344,0.164534 -0.15775,0.169834 -0.38885,0.651689 -0.51356,1.070789 -0.31111,1.045585 -0.57427,1.565552 -1.07598,2.125957 -0.49415,0.551955 -0.81137,0.596217 -1.37459,0.191793 z M 84.761815,60.715799 c -0.22289,-0.129618 -0.22301,-0.144045 -0.003,-0.386841 0.40642,-0.449087 1.73506,-1.091118 2.70415,-1.306711 0.52462,-0.116711 1.722,-0.232046 2.69047,-0.259153 2.36647,-0.06624 2.67418,-0.248835 2.86369,-1.699355 0.11074,-0.847703 0.37298,-1.310385 0.71509,-1.2617 0.23958,0.0341 0.27428,0.110472 0.24875,0.547623 -0.0163,0.2794 -0.0449,0.999251 -0.0635,1.59967 -0.0207,0.66747 -0.0986,1.169705 -0.20045,1.292492 -0.30635,0.369239 -1.29908,0.596839 -2.93297,0.672437 -1.83843,0.08506 -2.60205,0.206981 -3.98722,0.636598 -1.0651,0.330345 -1.66646,0.379094 -2.03472,0.16494 z m -7.90373,-8.31326 c -0.49767,-0.334743 -2.63714,-2.440436 -3.21705,-3.166252 -0.16682,-0.208795 -0.42038,-0.508969 -0.56347,-0.667056 -0.37592,-0.415331 -0.13041,-0.602925 0.43059,-0.329009 1.13524,0.554303 2.49928,1.690623 3.77642,3.145946 0.39595,0.451188 0.53572,0.712673 0.508,0.950384 -0.0521,0.446552 -0.33862,0.466787 -0.93449,0.06599 z m 25.158555,-0.273016 c -0.13679,-0.03475 -0.36539,-0.137184 -0.508,-0.227638 -0.34836,-0.220956 -1.37996,-0.417988 -2.978135,-0.568812 -0.72701,-0.06861 -1.35225,-0.155168 -1.38944,-0.192352 -0.0372,-0.03718 0.0292,-0.164424 0.14755,-0.282757 0.17177,-0.171776 0.43909,-0.21249 1.32594,-0.201955 0.61093,0.0073 1.36796,0.07822 1.682295,0.157694 0.31432,0.07947 1.31445,0.177495 2.2225,0.217828 1.59267,0.07074 1.87479,0.03996 3.18267,-0.347302 0.58709,-0.173836 1.47457,-0.04444 1.00833,0.147012 -1.2547,0.515224 -2.12254,0.79752 -2.72044,0.884914 -0.38971,0.05696 -0.92104,0.194118 -1.18073,0.304788 -0.2597,0.110671 -0.4883,0.19459 -0.508,0.186487 -0.0197,-0.0081 -0.14775,-0.04316 -0.28454,-0.07791 z M 88.890805,51.982974 c -0.16796,-0.10381 0.35836,-0.550912 0.80154,-0.68089 0.1397,-0.04097 0.56832,-0.200471 0.9525,-0.354442 1.02993,-0.41278 3.09592,-0.695608 3.78007,-0.517483 0.29786,0.07755 0.73741,0.141003 0.97675,0.141003 0.44977,0 0.68587,0.171836 0.44264,0.322156 -0.0763,0.04714 -0.83444,0.109823 -1.68482,0.139298 -1.92083,0.06658 -3.84792,0.422399 -4.79215,0.884829 -0.17876,0.08754 -0.39319,0.117031 -0.47653,0.06553 z"
       id="path890" />
  </g>
</svg>
