<?xml version="1.0" encoding="UTF-8" standalone="no"?>
<!-- Created with Inkscape (http://www.inkscape.org/) -->

<svg
   width="210mm"
   height="297mm"
   viewBox="0 0 210 297"
   version="1.1"
   id="svg864"
   inkscape:version="1.1 (c68e22c387, 2021-05-23)"
   sodipodi:docname="Wolfstatzen.svg"
   xmlns:inkscape="http://www.inkscape.org/namespaces/inkscape"
   xmlns:sodipodi="http://sodipodi.sourceforge.net/DTD/sodipodi-0.dtd"
   xmlns="http://www.w3.org/2000/svg"
   xmlns:svg="http://www.w3.org/2000/svg">
  <sodipodi:namedview
     id="namedview866"
     pagecolor="#ffffff"
     bordercolor="#666666"
     borderopacity="1.0"
     inkscape:pageshadow="2"
     inkscape:pageopacity="0.0"
     inkscape:pagecheckerboard="0"
     inkscape:document-units="mm"
     showgrid="false"
     inkscape:zoom="0.94867184"
     inkscape:cx="341.53011"
     inkscape:cy="575.01443"
     inkscape:window-width="1920"
     inkscape:window-height="991"
     inkscape:window-x="-9"
     inkscape:window-y="-9"
     inkscape:window-maximized="1"
     inkscape:current-layer="layer1" />
  <defs
     id="defs861" />
  <g
     inkscape:label="Ebene 1"
     inkscape:groupmode="layer"
     id="layer1">
    <path
       style="fill:none;stroke:#000000;stroke-width:0.1;stroke-miterlimit:4;stroke-dasharray:none;stroke-opacity:1"
       d="m 142.96311,162.92201 c 0.26172,-0.46567 0.56705,-0.84667 0.67852,-0.84667 0.11146,0 0.31044,-0.23654 0.44216,-0.52565 0.16166,-0.35481 0.47519,-0.56986 0.96466,-0.66169 1.03682,-0.19451 1.33197,-0.91705 0.78755,-1.92798 -0.53809,-0.99917 -1.53305,-1.42213 -2.83186,-1.20385 -0.53245,0.0895 -1.37339,0.17186 -1.86875,0.18307 -0.67803,0.0153 -1.04107,0.16079 -1.46871,0.58842 l -0.56805,0.56805 0.57355,1.7544 c 0.68922,2.1082 0.70455,2.13348 1.55961,2.57153 0.98446,0.50434 1.20241,0.44144 1.73132,-0.49963 z m -4.47881,-0.86189 c 0.25845,-0.098 0.52941,-0.41516 0.60212,-0.70489 0.1831,-0.72951 -0.64862,-2.14917 -1.47712,-2.52131 -1.27851,-0.57426 -2.04413,-0.83576 -2.14669,-0.7332 -0.1723,0.1723 0.14501,0.79957 0.40483,0.80029 0.1441,4.3e-4 0.24401,0.37891 0.24705,0.93593 0.006,1.00245 0.30609,1.47639 1.30361,2.05527 0.40876,0.23721 0.74406,0.29002 1.0662,0.16791 z m 0.0383,-3.93093 c 1.01813,-0.71313 0.1683,-2.27642 -1.64606,-3.02795 -0.62977,-0.26086 -0.73047,-0.2475 -1.12754,0.14957 -0.56887,0.56887 -0.39149,1.30315 0.52088,2.1563 0.94073,0.87967 1.68646,1.1187 2.25272,0.72208 z m 6.02064,-1.30927 c 0.80989,-0.89491 0.20768,-2.21568 -1.18071,-2.58954 -0.76887,-0.20703 -0.9155,-0.18925 -1.15642,0.14022 -0.44378,0.60692 -0.32569,1.08673 0.48957,1.98913 0.84079,0.93065 1.31492,1.04875 1.84756,0.46019 z m -23.41146,-0.30083 c 0.11462,-0.14552 0.26905,-0.51887 0.34318,-0.82966 0.13498,-0.5659 1.67214,-2.29242 2.04099,-2.29242 0.46533,0 0.64588,-0.83249 0.33955,-1.56563 -0.34842,-0.83388 -0.77024,-1.10737 -2.18934,-1.4195 -2.05887,-0.45284 -2.25663,-0.45255 -2.7431,0.004 -0.41247,0.38707 -0.46541,0.65625 -0.4713,2.39652 -0.004,1.07826 0.0871,2.24994 0.20176,2.60374 0.3365,1.0387 1.95983,1.76118 2.47826,1.10298 z m 19.693,-0.48825 c 0.77349,-0.54178 0.64111,-1.61566 -0.29421,-2.38664 -0.86378,-0.71199 -1.63196,-0.92623 -2.34672,-0.65448 -0.9537,0.36259 -0.43766,2.12745 0.8558,2.92685 0.85818,0.53038 1.16317,0.5499 1.78513,0.11427 z m -23.14633,-0.71123 c 0.44152,-0.48787 0.2487,-0.96506 -0.71898,-1.77931 -1.28658,-1.08259 -2.12259,-0.8692 -2.12259,0.54178 0,1.34582 1.96794,2.20288 2.84157,1.23753 z m 17.83342,-0.35647 c 0.1316,-0.34295 -0.24044,-0.71029 -0.72541,-0.71623 -0.32172,-0.004 -0.33003,0.11397 -0.0455,0.64568 0.26635,0.49767 0.59542,0.52779 0.77088,0.0705 z m 6.70963,-1.04498 c 0.0719,-0.18744 -0.0121,-0.3781 -0.19815,-0.44948 -0.41415,-0.15893 -0.60314,0.0322 -0.44343,0.44836 0.16068,0.41872 0.48112,0.41927 0.64158,0.001 z m -27.49045,-0.73282 c 0.17717,-0.28667 -0.0619,-0.635 -0.43583,-0.635 -0.16775,0 -0.305,0.1905 -0.305,0.42333 0,0.43822 0.51065,0.58412 0.74083,0.21167 z m 22.91071,-0.24121 c 0.29885,-0.29885 -0.0183,-0.81712 -0.49996,-0.81712 -0.36302,0 -0.371,0.23381 -0.0242,0.70813 0.20956,0.28659 0.32295,0.31017 0.52413,0.10899 z m -21.32321,-1.02879 c 0.89293,-0.89293 0.29729,-2.15339 -1.40764,-2.97873 -0.95033,-0.46005 -0.99208,-0.46281 -1.26917,-0.0839 -0.53189,0.72739 -0.3519,1.719 0.47894,2.63865 0.86271,0.95491 1.53686,1.08495 2.19787,0.42394 z m 5.55625,-2.41132 c 0.79506,-0.60353 0.35048,-1.81928 -0.89823,-2.45632 -1.36202,-0.69485 -2.11802,-0.47014 -2.11802,0.62954 0,0.76054 0.5299,1.43684 1.41584,1.80701 0.91067,0.3805 1.12178,0.38311 1.60041,0.0198 z m -3.4293,-0.14789 c 0.31153,-0.5821 -0.0252,-1.40491 -0.92403,-2.25799 -1.06096,-1.00693 -1.56968,-1.05847 -2.22163,-0.22509 -0.3228,0.41262 -0.0292,1.13247 0.92401,2.26525 0.68811,0.81777 1.84012,0.93073 2.22165,0.21783 z m -5.09028,-0.72162 c 0,-0.17463 -0.0398,-0.3175 -0.0885,-0.3175 -0.0487,0 -0.23919,-0.0578 -0.42334,-0.12848 -0.24002,-0.0921 -0.33481,-0.002 -0.33481,0.3175 0,0.30486 0.13395,0.44598 0.42333,0.44598 0.23519,0 0.42334,-0.14112 0.42334,-0.3175 z m 5.44821,-1.61705 c 0.29885,-0.29885 -0.0183,-0.81712 -0.49996,-0.81712 -0.36302,0 -0.371,0.23381 -0.0242,0.70813 0.20956,0.28659 0.32295,0.31017 0.52413,0.10899 z m -3.47951,-0.52804 c 0.16671,-0.16672 -0.44489,-0.92408 -0.74623,-0.92408 -0.10647,0 -0.16314,0.21334 -0.12594,0.47409 0.067,0.46957 0.58521,0.73694 0.87217,0.44999 z m -0.88294,-9.232 c 0.56033,-1.05066 1.76334,-2.27542 2.23501,-2.27542 0.2835,0 0.62772,-0.22625 0.84217,-0.55355 0.32195,-0.49135 0.32844,-0.61392 0.0578,-1.09069 -0.45793,-0.8067 -1.27519,-1.31611 -2.10407,-1.31149 -3.34595,0.0186 -4.44951,0.3731 -4.43954,1.42603 0.003,0.31746 0.23186,1.24395 0.50857,2.05887 0.37398,1.10136 0.65781,1.57646 1.10579,1.85097 0.82803,0.5074 1.48837,0.46886 1.79427,-0.10472 z m -3.82072,-1.45996 c 0.56638,-1.05829 -0.64984,-2.86664 -2.00332,-2.97865 -0.29876,-0.0247 -0.59013,-0.16725 -0.64749,-0.31672 -0.13592,-0.3542 -1.02902,-0.36122 -0.91224,-0.007 0.048,0.14552 0.27963,0.36142 0.51473,0.47978 0.32441,0.16332 0.37665,0.29575 0.2167,0.54932 -0.32179,0.51015 0.007,1.43022 0.75453,2.11324 0.81804,0.74717 1.72549,0.81715 2.07709,0.1602 z m -0.39604,-3.40837 c 0.96062,-0.75514 0.36285,-2.0321 -1.34737,-2.87825 -1.11471,-0.55152 -1.65997,-0.32994 -1.65997,0.67459 0,0.71199 0.82256,1.71041 1.83817,2.23118 0.58841,0.30171 0.75535,0.29778 1.16917,-0.0275 z m 5.8673,-1.35146 c 0.61792,-0.78556 0.56334,-1.18876 -0.32101,-2.37122 -0.0294,-0.0393 -0.38161,-0.14544 -0.78274,-0.23591 -1.62576,-0.36667 -1.93839,0.85858 -0.5827,2.28372 0.461,0.48461 0.93034,0.88112 1.04297,0.88112 0.11263,0 0.4022,-0.25097 0.64348,-0.55771 z m -3.50994,-0.88771 c 0.3947,-0.43614 0.45262,-1.14291 0.14131,-1.72458 -0.34439,-0.64351 -1.61473,-1.30962 -2.35701,-1.23591 -1.32085,0.13116 -1.34545,1.42681 -0.0503,2.64831 0.84277,0.79483 1.71984,0.91567 2.26599,0.31218 z m -5.29282,-0.97657 c 0.0758,-0.19746 -0.0447,-0.41351 -0.30955,-0.55527 -0.53064,-0.28398 -0.77705,-0.0882 -0.48055,0.38189 0.30457,0.48286 0.64285,0.55708 0.7901,0.17338 z m 6.61025,-0.98834 c 0.08,-0.12944 0.0142,-0.31848 -0.14626,-0.4201 -0.45304,-0.28695 -0.6092,-0.22745 -0.6092,0.23209 0,0.45187 0.51342,0.57964 0.75546,0.18801 z M 92.781215,127.743 c 0.1397,-0.1397 0.254,-0.50352 0.254,-0.80849 0,-0.30611 0.21334,-0.74773 0.47625,-0.98587 0.26193,-0.23726 0.63418,-0.61162 0.82722,-0.83192 0.19303,-0.2203 0.59784,-0.57168 0.89958,-0.78085 0.32658,-0.22638 0.54861,-0.5814 0.54861,-0.8772 0,-0.75716 -1.0578,-1.75605 -2.02753,-1.91459 -0.45648,-0.0746 -1.04876,-0.22488 -1.31617,-0.33389 -0.89471,-0.3647 -1.70107,-0.23706 -2.07121,0.32786 -0.40883,0.62394 -0.5805,3.60936 -0.27648,4.80789 0.32056,1.26372 1.96412,2.11867 2.68573,1.39706 z m 16.663895,-0.60193 c 0.17074,-0.27626 -0.27598,-0.8374 -0.66664,-0.8374 -0.34916,0 -0.36135,0.10915 -0.0725,0.64892 0.24241,0.45296 0.53029,0.52637 0.73911,0.18848 z m -20.339455,-0.61056 c 0.49763,-0.54988 0.28438,-1.11906 -0.71616,-1.9115 -1.30758,-1.03563 -2.12762,-0.78383 -2.12762,0.6533 0,0.60023 0.13342,0.89392 0.55772,1.22766 0.70641,0.55567 1.79763,0.57024 2.28606,0.0305 z m -3.05544,-2.43685 c 0,-0.36889 -0.34707,-0.61378 -0.62576,-0.44154 -0.28171,0.17411 -0.028,0.74655 0.3309,0.74655 0.16217,0 0.29486,-0.13725 0.29486,-0.30501 z m 1.89334,-1.31575 c 0.73351,-0.93251 0.16003,-1.93463 -1.61421,-2.82073 l -0.98466,-0.49177 -0.38807,0.47925 c -0.46987,0.58027 -0.49036,1.10223 -0.0748,1.90583 0.76128,1.47214 2.27306,1.93007 3.06174,0.92742 z m 1.65789,-2.09541 c 0.83259,-0.58317 0.4274,-1.94911 -0.87224,-2.94039 -0.88689,-0.67646 -1.515,-0.68647 -1.94449,-0.031 -0.29254,0.44647 -0.29702,0.59666 -0.0364,1.22039 0.31227,0.74737 1.6705,2.08048 2.11968,2.08048 0.14467,0 0.47473,-0.14827 0.73346,-0.3295 z m 3.80661,-0.0232 c 0.55942,-0.22538 0.71331,-0.88457 0.36414,-1.5598 -0.69558,-1.34509 -2.73136,-1.96455 -3.25301,-0.98984 -0.47988,0.89667 0.24842,1.97894 1.64803,2.44899 0.77284,0.25955 0.83408,0.26452 1.24084,0.10065 z m -8.77811,-0.83764 c 0.20064,-0.20064 -0.25394,-0.71471 -0.632,-0.71471 -0.40725,0 -0.26358,0.71706 0.16002,0.79864 0.17896,0.0345 0.39136,-0.003 0.47198,-0.0839 z m 5.86527,-2.06757 c 0,-0.17907 -0.1981,-0.43159 -0.44022,-0.56117 -0.39223,-0.20992 -0.4326,-0.18213 -0.37041,0.25497 0.0784,0.55076 0.81063,0.82736 0.81063,0.3062 z m -3.81,-0.53662 c 0,-0.24137 -0.0398,-0.43885 -0.0885,-0.43885 -0.0487,0 -0.24757,-0.061 -0.44196,-0.13563 -0.27869,-0.10694 -0.33831,-0.0291 -0.2819,0.36826 0.0918,0.64674 0.81238,0.82965 0.81238,0.20622 z"
       id="path1320" />
  </g>
</svg>
