<?xml version="1.0" encoding="UTF-8" standalone="no"?>
<!-- Created with Inkscape (http://www.inkscape.org/) -->

<svg
   width="210mm"
   height="297mm"
   viewBox="0 0 210 297"
   version="1.1"
   id="svg8"
   inkscape:version="1.1 (c68e22c387, 2021-05-23)"
   sodipodi:docname="Wolf_Leder2.svg"
   enable-background="new"
   xmlns:inkscape="http://www.inkscape.org/namespaces/inkscape"
   xmlns:sodipodi="http://sodipodi.sourceforge.net/DTD/sodipodi-0.dtd"
   xmlns="http://www.w3.org/2000/svg"
   xmlns:svg="http://www.w3.org/2000/svg"
   xmlns:rdf="http://www.w3.org/1999/02/22-rdf-syntax-ns#"
   xmlns:cc="http://creativecommons.org/ns#"
   xmlns:dc="http://purl.org/dc/elements/1.1/">
  <defs
     id="defs2">
    <linearGradient
       id="linearGradient1101"
       inkscape:swatch="solid">
      <stop
         style="stop-color:#000000;stop-opacity:1;"
         offset="0"
         id="stop1099" />
    </linearGradient>
    <inkscape:path-effect
       effect="spiro"
       id="path-effect829"
       is_visible="true" />
  </defs>
  <sodipodi:namedview
     id="base"
     pagecolor="#ffffff"
     bordercolor="#666666"
     borderopacity="1.0"
     inkscape:pageopacity="0.0"
     inkscape:pageshadow="2"
     inkscape:zoom="0.48209737"
     inkscape:cx="329.80889"
     inkscape:cy="401.3712"
     inkscape:document-units="mm"
     inkscape:current-layer="layer1"
     showgrid="false"
     inkscape:window-width="1920"
     inkscape:window-height="1017"
     inkscape:window-x="-8"
     inkscape:window-y="-8"
     inkscape:window-maximized="1"
     showguides="true"
     inkscape:guide-bbox="true"
     inkscape:pagecheckerboard="0"
     inkscape:snap-smooth-nodes="true"
     inkscape:snap-global="false">
    <sodipodi:guide
       position="107.66445,237.14102"
       orientation="1,0"
       id="guide2967" />
  </sodipodi:namedview>
  <metadata
     id="metadata5">
    <rdf:RDF>
      <cc:Work
         rdf:about="">
        <dc:format>image/svg+xml</dc:format>
        <dc:type
           rdf:resource="http://purl.org/dc/dcmitype/StillImage" />
      </cc:Work>
    </rdf:RDF>
  </metadata>
  <g
     inkscape:groupmode="layer"
     id="layer5"
     inkscape:label="Wolf1"
     style="display:inline">
    <path
       style="display:inline;fill:#000000;fill-opacity:1;stroke:#000000;stroke-width:0.1;stroke-linecap:butt;stroke-linejoin:miter;stroke-miterlimit:4;stroke-dasharray:none;stroke-opacity:1"
       d="m 82.994152,83.757691 c -7.279261,3.356264 -11.021976,8.2016 -13.123023,13.738165 -4.637648,-1.365344 -9.579115,0.307495 -14.7634,4.408514 2.82447,-0.21869 5.439639,-0.34436 5.843846,0.51262 -5.176724,1.99058 -11.321943,2.45923 -14.763401,7.17665 l 5.741323,-0.51262 c -6.301239,5.42988 -10.57523,11.17986 -11.687692,17.42902 1.383426,-1.96043 2.888926,-3.86854 6.151416,-5.02366 l -2.870661,10.66246 c 4.449864,-10.38776 9.236457,-12.69403 13.943212,-16.9164 l -1.12776,6.35647 c 3.429591,-5.09641 6.467226,-10.48253 15.993685,-11.07256 0.224345,-5.9545 0.003,-12.092527 4.716086,-16.198726 0.313738,9.068846 1.702574,14.374836 4.203468,15.788636 -1.866462,-2.56609 -1.114398,-4.75812 -1.230284,-7.07413 13.506389,1.9347 21.749883,13.95534 15.788637,26.34857 2.196395,2.12899 10.901426,-16.52935 2.69944,-29.975197 0.149048,1.706587 0.852574,3.597997 0.273746,5.061957 -2.711427,-2.83501 -5.525041,-5.056896 -8.509461,-6.253939 -2.356109,-1.35731 -4.859574,-1.605979 -7.484224,-2.768138 -1.809323,-3.5609 -2.402407,-6.804417 0.205047,-11.687692 z"
       id="path1051"
       inkscape:connector-curvature="0"
       sodipodi:nodetypes="ccccccccccccccccccccc" />
    <path
       style="display:inline;fill:#000000;fill-opacity:1;stroke:#000000;stroke-width:0.1;stroke-linecap:butt;stroke-linejoin:miter;stroke-miterlimit:4;stroke-dasharray:none;stroke-opacity:1"
       d="m 89.76071,47.771902 c 6.397354,7.232935 10.29495,24.59363 -5.228703,25.630904 -0.34363,-2.099831 1.611046,-3.543003 3.075707,-5.12618 -8.406936,2.567795 -16.813872,10.501076 -25.220808,21.529959 10.602371,-9.874874 23.434327,-12.232309 31.167179,-9.534697 -3.839916,3.548797 -7.157528,7.388285 -7.996843,11.482645 4.663758,-0.797767 8.543931,2.322389 12.405358,5.536276 9.06456,-8.052334 4.69412,-19.894025 3.79337,-30.757085 -0.75653,3.722342 0.52195,8.607548 -3.690846,10.354885 1.833446,-9.408693 6.131406,-18.658384 -8.304414,-29.116707 z"
       id="path1053"
       inkscape:connector-curvature="0"
       sodipodi:nodetypes="cccccccccc" />
    <path
       style="display:inline;fill:#000000;fill-opacity:1;stroke:#000000;stroke-width:0.1;stroke-linecap:butt;stroke-linejoin:miter;stroke-miterlimit:4;stroke-dasharray:none;stroke-opacity:1"
       d="m 94.579321,44.491147 c 16.299969,8.912516 11.564299,16.398887 12.917969,24.298096 -0.54906,-3.022267 -0.88644,-6.416836 -2.25551,-7.996841 -1.3504,-1.405628 -2.34508,-1.151244 -2.87562,1.269137 -1.06742,-7.205203 -2.17875,-14.371659 -7.786839,-17.570392 z"
       id="path1055"
       inkscape:connector-curvature="0"
       sodipodi:nodetypes="ccccc" />
    <g
       id="g1070"
       style="display:inline;fill:none;fill-opacity:1;stroke:#000000;stroke-opacity:1"
       transform="matrix(0.54,0,0,0.54,52.134544,87.825572)" />
    <path
       style="display:inline;fill:#000000;fill-opacity:1;fill-rule:evenodd;stroke:#000000;stroke-width:0.1;stroke-linecap:butt;stroke-linejoin:miter;stroke-miterlimit:4;stroke-dasharray:none;stroke-opacity:1;paint-order:normal"
       d="m 69.200088,116.94927 c 18.334044,-8.58277 14.176623,7.10156 19.068892,13.02176 -3.842009,-3.07621 -7.411629,-4.06611 -13.689535,-6.34394 -3.950774,-1.86633 -4.211218,-4.34771 -5.379357,-6.67782 z"
       id="path1072"
       inkscape:connector-curvature="0"
       sodipodi:nodetypes="cccc" />
    <path
       style="display:inline;fill:#000000;fill-opacity:1;stroke:#000000;stroke-width:0.1;stroke-linecap:butt;stroke-linejoin:miter;stroke-miterlimit:4;stroke-dasharray:none;stroke-opacity:1"
       d="m 107.72029,171.91295 c -9.285954,-0.45384 -12.583115,2.1945 -15.431736,6.8498 -1.15947,3.04092 -0.411153,8.82308 2.283266,9.76294 1.839532,0.96897 4.567538,0.89737 4.960202,-1.10226 -2.521949,0.54872 -4.159982,-2.50719 -3.385535,-3.38554 0.941199,-2.93955 4.960203,-2.44073 4.960203,-2.44073 1.31901,0.66135 2.34422,0.54692 3.0706,4.56653 -0.0453,2.67844 0.21359,4.78386 -1.49594,5.59007 -0.91507,1.80162 -4.935191,0.49434 -7.007263,-1.25974 2.897412,4.44511 7.171453,6.30903 11.731273,7.63714 z"
       id="path1140"
       inkscape:connector-curvature="0"
       sodipodi:nodetypes="ccccccccccc" />
    <path
       style="display:inline;fill:#000000;fill-opacity:1;stroke:#000000;stroke-width:0.1;stroke-linecap:butt;stroke-linejoin:miter;stroke-miterlimit:4;stroke-dasharray:none;stroke-opacity:1"
       d="m 107.14889,201.83162 c -2.0843,4.0366 -6.64468,2.50204 -10.235332,3.14934 2.320038,3.35049 6.462262,3.66401 10.629002,3.93667 l -0.15747,6.29867 c -19.024673,-7.76353 -38.047912,-15.52889 -36.374805,-49.52328 2.096269,7.54925 4.316927,14.45168 7.873336,14.4082 7.097099,-17.11265 -0.836729,-22.73654 -3.936668,-29.36754 3.920934,-1.03992 4.445957,0.4724 6.219935,0.7086 -1.705915,-2.09693 -13.031086,-26.58111 -29.446273,-11.88873 0.356955,-8.53992 4.978623,-12.81512 12.754803,-13.93581 l -1.259734,4.4878 c 4.77196,-0.0598 9.579584,0.55798 14.644403,6.06247 -1.274416,-0.66987 -2.531678,-1.47698 -4.094134,0.15747 4.526421,4.03538 8.282622,10.63817 13.620869,11.96747 -12.841888,37.40798 2.239543,49.84384 19.762068,53.53867 z"
       id="path1142"
       inkscape:connector-curvature="0"
       sodipodi:nodetypes="ccccccccccccccc" />
    <path
       style="display:inline;fill:#000000;fill-opacity:1;stroke:#000000;stroke-width:0.1;stroke-linecap:butt;stroke-linejoin:miter;stroke-miterlimit:4;stroke-dasharray:none;stroke-opacity:1"
       d="m 30.978847,123.94369 c -6.861937,9.43356 -12.557658,19.30445 -14.697642,30.50874 5.043903,-6.54738 10.056475,-13.22007 16.256483,-15.14303 -5.839531,14.33143 -11.953955,28.60788 -12.025343,44.09293 3.595554,-13.05063 10.223551,-20.64286 16.701866,-28.50452 -3.100116,17.60668 -7.663814,34.0425 0.668074,60.79479 2.387498,-23.57448 7.09588,-27.03463 11.134577,-36.29872 -4.306702,24.15921 1.489181,46.95319 19.151473,68.14361 -1.950191,-11.12416 -6.770371,-31.55721 0.445383,-34.51718 14.184601,2.83229 18.376756,33.15742 20.264931,48.32406 4.732056,-22.36091 2.382265,-44.59067 -24.718762,-66.36208 -1.748696,4.38995 -3.868343,8.87264 -3.340373,12.69342 -6.053854,-9.83908 -7.972266,-23.33644 1.33615,-46.76523 -6.235364,5.60637 -12.470727,11.7101 -18.70609,14.47495 -3.595224,-6.99477 2.144241,-20.7784 4.453831,-32.06758 -3.856012,-0.7887 -6.938156,3.83966 -10.243812,6.90344 0.823266,-6.97767 -0.25057,-13.95534 -1.781532,-20.933 -2.004224,0.18755 -4.008447,2.36357 -6.012672,4.89921 0.561387,-3.41461 1.641569,-6.82921 1.113458,-10.24381 z"
       id="path1144"
       inkscape:connector-curvature="0"
       sodipodi:nodetypes="ccccccccccccccccccc" />
    <path
       style="display:inline;fill:#000000;fill-opacity:1;stroke:#000000;stroke-width:0.1;stroke-linecap:butt;stroke-linejoin:miter;stroke-miterlimit:4;stroke-dasharray:none;stroke-opacity:1"
       d="m 107.61851,227.94064 c -3.65249,1.60268 -12.749618,-7.68391 -20.933007,-15.14302 13.882817,18.92681 15.207977,45.18399 18.260707,70.37052 0.25998,-7.42238 1.22563,-12.02207 2.6723,-14.69764 z"
       id="path1146"
       inkscape:connector-curvature="0"
       sodipodi:nodetypes="ccccc" />
    <path
       id="path1076"
       style="display:inline;fill:#ffffff;fill-rule:evenodd;stroke:#000000;stroke-width:0.1;stroke-linejoin:round;stroke-dashoffset:20.2961;fill-opacity:1"
       d="m 79.439415,118.26258 c -1.012165,0 -1.832687,-0.60459 -1.832691,-1.3504 -3e-6,-0.4194 0.315203,-0.87775 0.733756,-1.14697 -1.02756,-0.14776 -2.465458,-0.0406 -4.503015,0.59048 -0.07933,2.69188 2.324289,4.95011 4.266386,5.11966 2.810156,-0.006 5.31796,-1.15999 5.008366,-3.26471 -0.668591,-0.36792 -1.191054,-0.87444 -1.836602,-1.24371 -0.206473,0.65708 -0.955809,1.29565 -1.8362,1.29565 z"
       sodipodi:nodetypes="sscccccs" />
  </g>
  <g
     inkscape:groupmode="layer"
     id="layer1"
     inkscape:label="Save"
     style="display:inline">
    <path
       id="path1057"
       style="display:inline;opacity:1;fill:#000000;fill-opacity:1;stroke:#000000;stroke-width:0.377953;stroke-linecap:butt;stroke-linejoin:miter;stroke-miterlimit:4;stroke-dasharray:none;stroke-opacity:1"
       d="M 177.92188 55.154297 C 136.16912 96.69424 94.424706 138.24225 117.2207 248.36523 L 97.822266 219.99609 C 91.034344 272.93093 88.771013 327.22376 102.49609 386.3125 C 114.79175 380.47682 129.54668 366.03202 138.14453 373.13867 C 95.420316 415.3009 80.96461 459.12627 73.046875 503.33594 C 104.51198 426.43489 153.9723 375.92577 216.41797 344.46289 L 190.06836 346.01367 C 220.69419 309.94482 227.97786 292.17253 292.36719 259.99023 C 368.09317 215.56565 280.94873 133.75042 262.14258 125.14453 L 285.39258 194.11719 C 245.38012 186.87709 213.28778 122.68754 196.26953 84.070312 C 194.6382 97.340597 192.38184 109.36159 184.64453 110.41992 C 166.69554 95.488839 179.35781 73.754938 177.92188 55.154297 z M 152.0957 105.76953 C 221.0149 124.10179 243.42467 192.58598 240.6875 280.7832 C 237.05296 255.52673 226.05198 242.71488 217.15625 227.67188 C 203.47805 244.51091 207.23247 267.16082 220.39062 292.94531 C 177.19046 276.56849 138.9967 251.11717 124.19531 183.26758 C 146.97913 225.14941 172.86207 242.24021 201.02148 241.11719 C 173.38628 223.79413 127.2556 187.32172 137.37109 152.26758 C 153.66192 170.23811 170.96689 195.76026 183.86914 191.79297 C 181.4019 164.14074 157.22893 151.84517 135.82031 135.99414 C 145.36987 125.53902 160.59526 134.65039 175.34375 145.29297 C 163.76906 134.98695 156.50591 121.44892 152.0957 105.76953 z "
       transform="scale(0.26458333)" />
    <path
       style="display:inline;fill:#000000;fill-opacity:1;stroke:#000000;stroke-width:0.1;stroke-linecap:butt;stroke-linejoin:miter;stroke-miterlimit:4;stroke-dasharray:none;stroke-opacity:1"
       d="m 132.7485,83.69903 c 7.27926,3.356264 11.02197,8.2016 13.12302,13.738165 4.63765,-1.365344 9.57912,0.307495 14.7634,4.408505 -2.82447,-0.21869 -5.43964,-0.34436 -5.84384,0.51262 5.17672,1.99058 11.32194,2.45923 14.7634,7.17665 l -5.74133,-0.51262 c 6.30124,5.42988 10.57523,11.17986 11.68769,17.42902 -1.38342,-1.96043 -2.88892,-3.86854 -6.15141,-5.02366 l 2.87066,10.66246 c -4.44986,-10.38776 -9.23646,-12.69403 -13.94321,-16.9164 l 1.12776,6.35647 c -3.42959,-5.09641 -6.46723,-10.48253 -15.99369,-11.07256 -0.22434,-5.9545 -0.003,-12.092518 -4.71609,-16.198717 -0.31373,9.068837 -1.70257,14.374827 -4.20346,15.788627 1.86646,-2.56609 1.11439,-4.75812 1.23028,-7.07413 -13.50639,1.9347 -21.74988,13.95534 -15.78864,26.34857 -2.19639,2.12899 -10.90142,-16.52935 -2.69944,-29.975188 -0.14904,1.706578 -0.85257,3.597988 -0.27374,5.061948 2.71142,-2.83501 5.52504,-5.056887 8.50946,-6.25393 2.35611,-1.35731 4.85957,-1.605979 7.48422,-2.768138 1.80933,-3.5609 2.40241,-6.804417 -0.20504,-11.687692 z"
       id="path1051-7"
       inkscape:connector-curvature="0"
       sodipodi:nodetypes="ccccccccccccccccccccc" />
    <path
       style="display:inline;fill:#000000;fill-opacity:1;stroke:#000000;stroke-width:0.1;stroke-linecap:butt;stroke-linejoin:miter;stroke-miterlimit:4;stroke-dasharray:none;stroke-opacity:1"
       d="m 125.98194,47.713241 c -6.39736,7.232935 -10.29495,24.59363 5.2287,25.630904 0.34363,-2.099831 -1.61105,-3.543003 -3.07571,-5.12618 8.40694,2.567795 16.81388,10.501076 25.22081,21.529959 -10.60237,-9.874874 -23.43433,-12.232309 -31.16718,-9.534697 3.83992,3.548797 7.15753,7.388285 7.99685,11.482645 -4.66376,-0.797767 -8.54394,2.322389 -12.40536,5.536276 -9.06456,-8.052334 -4.69412,-19.894025 -3.79337,-30.757085 0.75653,3.722342 -0.52195,8.607548 3.69084,10.354885 -1.83344,-9.408693 -6.1314,-18.658384 8.30442,-29.116707 z"
       id="path1053-1"
       inkscape:connector-curvature="0"
       sodipodi:nodetypes="cccccccccc" />
    <path
       style="display:inline;fill:#000000;fill-opacity:1;stroke:#000000;stroke-width:0.1;stroke-linecap:butt;stroke-linejoin:miter;stroke-miterlimit:4;stroke-dasharray:none;stroke-opacity:1"
       d="m 120.61451,44.56969 c -16.29997,8.912516 -11.5643,16.398887 -12.91797,24.298096 0.54906,-3.022267 0.88644,-6.416836 2.25551,-7.996841 1.3504,-1.405628 2.34508,-1.151244 2.87562,1.269137 1.06742,-7.205203 2.17875,-14.371659 7.78684,-17.570392 z"
       id="path1055-8"
       inkscape:connector-curvature="0"
       sodipodi:nodetypes="ccccc" />
    <path
       style="display:inline;fill:#000000;fill-opacity:1;fill-rule:evenodd;stroke:#000000;stroke-width:0.1;stroke-linecap:butt;stroke-linejoin:miter;stroke-miterlimit:4;stroke-dasharray:none;stroke-opacity:1;paint-order:normal"
       d="m 146.54256,116.8906 c -18.33404,-8.58277 -14.17662,7.10156 -19.06889,13.02176 3.84201,-3.07621 7.41163,-4.06611 13.68954,-6.34394 3.95077,-1.86633 4.21121,-4.34771 5.37935,-6.67782 z"
       id="path1072-1"
       inkscape:connector-curvature="0"
       sodipodi:nodetypes="cccc" />
    <path
       style="display:inline;fill:#000000;fill-opacity:1;stroke:#000000;stroke-width:0.1;stroke-linecap:butt;stroke-linejoin:miter;stroke-miterlimit:4;stroke-dasharray:none;stroke-opacity:1"
       d="m 107.76946,171.81565 c 9.2938,-0.24527 12.53067,2.47642 15.27407,7.1945 1.09091,3.06618 0.21298,8.83009 -2.50186,9.70922 -1.86081,0.92743 -4.58653,0.79461 -4.9342,-1.21333 2.50899,0.60519 4.21521,-2.41317 3.46068,-3.30869 -0.87497,-2.95994 -4.90416,-2.55146 -4.90416,-2.55146 -1.33352,0.63157 -2.35591,0.49415 -3.17234,4.49644 -0.0148,2.67878 -0.32093,4.77786 1.37007,5.62225 0.8744,1.8217 4.92285,0.605 7.03377,-1.10212 -2.99646,4.37895 -7.31127,6.14645 -11.89976,7.37186 z"
       id="path1140-9"
       inkscape:connector-curvature="0"
       sodipodi:nodetypes="ccccccccccc" />
    <path
       style="display:inline;fill:#000000;fill-opacity:1;stroke:#000000;stroke-width:0.1;stroke-linecap:butt;stroke-linejoin:miter;stroke-miterlimit:4;stroke-dasharray:none;stroke-opacity:1"
       d="m 107.90773,201.77295 c 2.0843,4.0366 6.64468,2.50204 10.23533,3.14934 -2.32003,3.35049 -6.46226,3.66401 -10.629,3.93667 l 0.15747,6.29867 c 19.02467,-7.76353 38.04792,-15.52889 36.37481,-49.52328 -2.09627,7.54925 -4.31693,14.45168 -7.87334,14.4082 -7.0971,-17.11265 0.83673,-22.73654 3.93667,-29.36754 -3.92094,-1.03992 -4.44596,0.4724 -6.21994,0.7086 1.70592,-2.09693 13.03109,-26.58111 29.44628,-11.88873 -0.35696,-8.53992 -4.97862,-12.81512 -12.7548,-13.93581 l 1.25973,4.4878 c -4.77196,-0.0598 -9.57958,0.55798 -14.64441,6.06247 1.27442,-0.66987 2.53169,-1.47698 4.09414,0.15747 -4.52642,4.03538 -8.28262,10.63817 -13.62087,11.96747 12.84189,37.40798 -2.23954,49.84384 -19.76207,53.53867 z"
       id="path1142-5"
       inkscape:connector-curvature="0"
       sodipodi:nodetypes="ccccccccccccccc" />
    <path
       style="display:inline;fill:#000000;fill-opacity:1;stroke:#000000;stroke-width:0.1;stroke-linecap:butt;stroke-linejoin:miter;stroke-miterlimit:4;stroke-dasharray:none;stroke-opacity:1"
       d="m 184.7638,123.88502 c 6.86194,9.43356 12.55766,19.30445 14.69764,30.50874 -5.0439,-6.54738 -10.05647,-13.22007 -16.25648,-15.14303 5.83953,14.33143 11.95396,28.60788 12.02534,44.09293 -3.59555,-13.05063 -10.22355,-20.64286 -16.70186,-28.50452 3.10011,17.60668 7.66381,34.0425 -0.66808,60.79479 -2.38749,-23.57448 -7.09587,-27.03463 -11.13457,-36.29872 4.3067,24.15921 -1.48918,46.95319 -19.15147,68.14361 1.95019,-11.12416 6.77037,-31.55721 -0.44539,-34.51718 -14.1846,2.83229 -18.37676,33.15742 -20.26493,48.32406 -4.73206,-22.36091 -2.38227,-44.59067 24.71876,-66.36208 1.7487,4.38995 3.86835,8.87264 3.34038,12.69342 6.05385,-9.83908 7.97226,-23.33644 -1.33615,-46.76523 6.23536,5.60637 12.47072,11.7101 18.70609,14.47495 3.59522,-6.99477 -2.14425,-20.7784 -4.45384,-32.06758 3.85602,-0.7887 6.93816,3.83966 10.24382,6.90344 -0.82327,-6.97767 0.25057,-13.95534 1.78153,-20.933 2.00422,0.18755 4.00845,2.36357 6.01267,4.89921 -0.56139,-3.41461 -1.64157,-6.82921 -1.11346,-10.24381 z"
       id="path1144-6"
       inkscape:connector-curvature="0"
       sodipodi:nodetypes="ccccccccccccccccccc" />
    <path
       style="display:inline;fill:#000000;fill-opacity:1;stroke:#000000;stroke-width:0.1;stroke-linecap:butt;stroke-linejoin:miter;stroke-miterlimit:4;stroke-dasharray:none;stroke-opacity:1"
       d="m 107.71253,227.88197 c 3.65249,1.60268 12.74961,-7.68391 20.933,-15.14302 -13.88281,18.92681 -15.20797,45.18399 -18.2607,70.37052 -0.25998,-7.42238 -1.22563,-12.02207 -2.6723,-14.69764 z"
       id="path1146-00"
       inkscape:connector-curvature="0"
       sodipodi:nodetypes="ccccc" />
    <path
       id="path1076-2"
       style="display:inline;fill:#ffffff;fill-opacity:1;fill-rule:evenodd;stroke:#000000;stroke-width:0.1;stroke-linejoin:round;stroke-dashoffset:20.2961"
       d="m 136.30323,118.20391 c 1.01217,0 1.83269,-0.60459 1.83269,-1.3504 1e-5,-0.4194 -0.3152,-0.87775 -0.73375,-1.14697 1.02756,-0.14776 2.46546,-0.0406 4.50302,0.59048 0.0793,2.69188 -2.3243,4.95011 -4.26639,5.11966 -2.81016,-0.006 -5.31796,-1.15999 -5.00837,-3.26471 0.66859,-0.36792 1.19105,-0.87444 1.8366,-1.24371 0.20648,0.65708 0.95581,1.29565 1.8362,1.29565 z"
       sodipodi:nodetypes="sscccccs" />
    <path
       id="path1057-8"
       style="display:inline;fill:#000000;fill-opacity:1;stroke:#000000;stroke-width:0.377952;stroke-linecap:butt;stroke-linejoin:miter;stroke-miterlimit:4;stroke-dasharray:none;stroke-opacity:1"
       d="M 637.48438 54.931641 C 636.04842 73.532279 648.7107 95.266182 630.76172 110.19727 C 623.02438 109.13893 620.76804 97.117944 619.13672 83.847656 C 602.11845 122.46488 570.02613 186.65639 530.01367 193.89648 L 553.26367 124.92188 C 534.45754 133.52777 447.31305 215.34495 523.03906 259.76953 C 587.42838 291.95183 594.71009 309.72412 625.33594 345.79297 L 598.98633 344.24219 C 661.43198 375.70507 710.89428 426.21222 742.35938 503.11328 C 734.44164 458.90362 719.98396 415.07824 677.25977 372.91602 C 685.85762 365.80936 700.61257 380.25609 712.9082 386.0918 C 726.63329 327.00307 724.37194 272.71023 717.58398 219.77539 L 698.18359 248.14453 C 720.97963 138.02155 679.23712 96.471581 637.48438 54.931641 z M 663.31055 105.54688 C 658.90033 121.22626 651.63524 134.76624 640.06055 145.07227 C 654.80902 134.42969 670.0344 125.31636 679.58398 135.77148 C 658.17534 151.62252 634.00239 163.91808 631.53516 191.57031 C 644.43741 195.53761 661.74433 170.01741 678.03516 152.04688 C 688.15065 187.10102 642.018 223.57342 614.38281 240.89648 C 642.54222 242.01951 668.42516 224.9287 691.20898 183.04688 C 676.40756 250.89647 638.21386 276.34584 595.01367 292.72266 C 608.17183 266.93817 611.92623 244.28825 598.24805 227.44922 C 589.35229 242.49223 578.35134 255.30603 574.7168 280.5625 C 571.97963 192.36528 594.39135 123.87913 663.31055 105.54688 z "
       transform="scale(0.26458333)" />
  </g>
  <g
     inkscape:groupmode="layer"
     id="layer2"
     inkscape:label="Del"
     style="display:none">
    <path
       style="display:inline;opacity:1;fill:none;fill-opacity:1;stroke:#000000;stroke-width:0.54;stroke-linecap:butt;stroke-linejoin:miter;stroke-miterlimit:4;stroke-dasharray:none;stroke-opacity:1"
       d="m 40.241805,27.984846 c 1.02578,3.827368 1.935212,7.693516 6.151416,10.457407 -3.485803,-2.61748 -6.971605,-2.504705 -10.457409,-2.460566 4.869259,4.36847 11.828625,6.908095 12.712929,14.763401 -4.504294,-1.670731 -8.877165,-3.932865 -12.302834,-10.45741 -1.050287,3.397544 -0.223224,11.83778 13.943212,20.709771 -5.538368,0.714175 -11.343861,-3.379907 -17.429015,-12.507882 0.549861,7.196255 7.606056,22.089084 25.451764,29.018638 -1.422726,-5.510693 -5.611688,-7.42528 -2.076379,-19.381417 1.061791,1.259927 1.875952,0.621354 4.511039,13.94321 C 63.335081,61.907766 63.738241,39.85866 40.241805,27.984846 Z"
       id="path1059"
       inkscape:connector-curvature="0"
       sodipodi:nodetypes="ccccccccccc" />
    <path
       style="display:inline;fill:none;fill-opacity:1;stroke:#000000;stroke-opacity:1;opacity:1;stroke-width:0.54;stroke-linecap:square;stroke-linejoin:round;stroke-miterlimit:4;stroke-dasharray:none;stroke-dashoffset:20.2961"
       d="m 22.301114,125.2843 c 0.230274,-1.19603 2.105877,-6.66348 3.047322,-8.88307 2.403496,-5.66655 6.213295,-11.54684 10.4248,-16.0903 1.340126,-1.445754 1.339486,-1.804205 -0.0036,-2.00561 -2.56108,-0.384058 -4.396261,0.312102 -6.840739,2.59497 -1.199497,1.1202 -1.484853,1.30311 -1.57469,1.00936 -0.487789,-1.59501 -1.72758,-9.78608 -2.177349,-14.385355 -0.408966,-4.182027 -0.351477,-18.715951 0.0914,-23.108545 0.19026,-1.887028 0.406162,-4.055855 0.479784,-4.819615 l 0.133859,-1.388652 1.252342,2.599581 c 1.722084,3.574658 2.943389,5.132224 3.774242,4.813394 0.263791,-0.101225 0.242944,-0.395869 -0.160975,-2.275067 -0.99531,-4.630589 -1.188464,-6.53796 -1.189419,-11.745297 -7.14e-4,-3.816411 0.08224,-5.451165 0.36351,-7.164657 1.438667,-8.764442 4.656535,-16.022772 10.134643,-22.86004 1.440909,-1.79841 5.337828,-5.78556 6.379765,-6.527482 l 0.639087,-0.455072 -0.136919,0.68459 c -0.532972,2.664862 -0.767424,5.800841 -0.686143,9.17769 0.103331,4.292871 0.499107,6.45381 1.19157,6.50597 1.052365,0.07927 3.556474,-3.584478 4.220345,-6.174766 0.146258,-0.570668 0.316869,-1.036393 0.379135,-1.034945 0.06227,0.0015 0.420949,0.750711 0.797072,1.665027 0.960056,2.333795 3.755713,7.758553 5.173088,10.037977 3.928386,6.317644 9.938087,12.586852 15.791835,16.473744 0.856813,0.568925 1.683724,0.986104 1.837579,0.927064 0.219936,-0.0844 0.251359,-0.412693 0.146987,-1.535695 -0.378748,-4.075189 -1.837384,-8.884777 -4.088851,-13.482258 -0.820314,-1.675079 -1.463557,-3.073521 -1.42943,-3.107649 0.148487,-0.148486 5.124276,4.205502 7.587563,6.639379 5.640683,5.57334 8.157689,9.94126 8.163504,14.16664 0.0068,4.970324 -3.18973,8.69431 -12.735158,14.836397 -10.361143,6.666966 -12.514008,8.229895 -15.698071,11.396421 -3.099796,3.082724 -4.964906,6.030523 -6.020966,9.516117 -0.205414,0.677978 0.343397,0.725223 1.992764,0.17155 1.516647,-0.509122 2.231417,-0.603058 2.83279,-0.372292 0.231431,0.08881 -0.527742,0.577797 -2.455806,1.581793 -12.963625,6.750533 -23.736979,17.719653 -30.729076,31.287453 -0.68668,1.33247 -0.995136,1.7848 -0.907812,1.33125 z M 58.311868,77.508204 c 0,-0.180767 -0.490305,-1.611176 -1.089569,-3.178686 -1.68428,-4.405629 -2.014748,-5.939094 -2.027721,-9.409215 -0.0094,-2.502974 0.05561,-3.138127 0.448966,-4.389614 0.252948,-0.804762 0.535474,-1.463204 0.627833,-1.463204 0.476977,0 2.099939,4.377135 3.536189,9.537098 0.597579,2.146906 0.951045,3.095035 1.169593,3.137289 0.195291,0.03776 0.362782,-0.136993 0.444899,-0.464165 0.81579,-3.250365 1.166461,-11.833828 0.644739,-15.781451 -1.572344,-11.897202 -7.732121,-20.398867 -18.908033,-26.096688 -3.437006,-1.75229 -3.776155,-1.496767 -2.304433,1.736216 0.654719,1.438242 2.713761,4.698168 3.246983,5.140702 0.606459,0.503318 0.235513,0.542371 -0.875592,0.09218 -1.069465,-0.433317 -4.658892,-1.308794 -6.633433,-1.617924 -1.489181,-0.233142 -1.281916,0.292765 0.890762,2.260193 3.68091,3.333179 5.65351,5.341727 6.772646,6.896072 1.099476,1.527038 2.780331,4.518421 3.053491,5.43423 0.138336,0.463797 0.134017,0.463257 -1.038854,-0.129593 -1.959348,-0.990394 -3.64097,-2.359181 -7.134498,-5.807247 -2.215012,-2.186191 -3.41782,-3.237298 -3.585749,-3.133513 -0.333433,0.206074 0.183743,4.296567 0.75209,5.948492 1.22646,3.564772 4.877628,8.125452 10.254879,12.809393 0.916469,0.798304 1.522809,1.451463 1.347422,1.451463 -0.538258,0 -3.263803,-0.976756 -4.58659,-1.643701 -3.111135,-1.568623 -4.92881,-3.233204 -8.120074,-7.436162 -2.376955,-3.130499 -2.633815,-3.397233 -2.958645,-3.072401 -0.412459,0.412457 2.010883,6.985037 3.810883,10.335872 3.074931,5.724209 7.785007,10.742334 13.713311,14.610188 2.050953,1.338123 7.82219,4.496122 8.296228,4.539667 0.138753,0.01276 0.252277,-0.124727 0.252277,-0.305493 z"
       id="path960"
       inkscape:connector-curvature="0" />
    <path
       style="display:inline;fill:none;fill-opacity:1;stroke:#000000;stroke-opacity:1;opacity:1;stroke-width:0.54;stroke-linecap:butt;stroke-linejoin:round;stroke-miterlimit:4;stroke-dasharray:none;stroke-dashoffset:20.2961"
       d="m 106.48011,63.459687 c -0.51674,-1.75827 -1.30175,-3.345381 -1.78174,-3.602263 -0.22319,-0.119448 -0.42718,-0.187115 -0.4533,-0.150371 -0.0261,0.03674 -0.45957,0.581534 -0.9632,1.210646 l -0.91571,1.14384 -0.1348,-1.917757 c -0.33872,-4.818695 -1.91695,-9.91156 -3.878641,-12.516193 -0.266126,-0.35335 -0.483866,-0.699757 -0.483866,-0.769794 0,-0.25906 2.972207,2.314152 4.339157,3.75666 2.24017,2.363996 3.5422,4.553935 4.24581,7.141192 0.28974,1.06542 0.69157,6.963333 0.47437,6.962556 -0.0431,-1.43e-4 -0.24469,-0.566486 -0.44808,-1.258516 z"
       id="path962"
       inkscape:connector-curvature="0" />
    <path
       style="display:inline;fill:none;fill-opacity:1;stroke:#000000;stroke-opacity:1;opacity:1;stroke-width:0.54;stroke-linecap:butt;stroke-linejoin:round;stroke-miterlimit:4;stroke-dasharray:none;stroke-dashoffset:20.2961"
       d="m 108.51447,63.459687 c 0.51674,-1.75827 1.30176,-3.345381 1.78175,-3.602263 0.22319,-0.119448 0.42717,-0.187115 0.4533,-0.150371 0.0261,0.03674 0.45956,0.581534 0.9632,1.210646 l 0.9157,1.14384 0.13481,-1.917757 c 0.33872,-4.818695 1.91694,-9.91156 3.87863,-12.516193 0.26613,-0.35335 0.48387,-0.699757 0.48387,-0.769794 0,-0.25906 -2.97221,2.314152 -4.33916,3.75666 -2.24017,2.363996 -3.5422,4.553935 -4.2458,7.141192 -0.28974,1.06542 -0.69158,6.963333 -0.47437,6.962556 0.043,-1.43e-4 0.24469,-0.566486 0.44807,-1.258516 z"
       id="path962-0"
       inkscape:connector-curvature="0" />
  </g>
</svg>
