<?xml version="1.0" encoding="UTF-8" standalone="no"?>
<!-- Created with Inkscape (http://www.inkscape.org/) -->

<svg
   width="210mm"
   height="297mm"
   viewBox="0 0 210 297"
   version="1.1"
   id="svg864"
   inkscape:version="1.1 (c68e22c387, 2021-05-23)"
   sodipodi:docname="Wolfstatzen-eine.svg"
   xmlns:inkscape="http://www.inkscape.org/namespaces/inkscape"
   xmlns:sodipodi="http://sodipodi.sourceforge.net/DTD/sodipodi-0.dtd"
   xmlns="http://www.w3.org/2000/svg"
   xmlns:svg="http://www.w3.org/2000/svg">
  <sodipodi:namedview
     id="namedview866"
     pagecolor="#ffffff"
     bordercolor="#666666"
     borderopacity="1.0"
     inkscape:pageshadow="2"
     inkscape:pageopacity="0.0"
     inkscape:pagecheckerboard="0"
     inkscape:document-units="mm"
     showgrid="false"
     inkscape:zoom="0.94867184"
     inkscape:cx="341.53011"
     inkscape:cy="575.01443"
     inkscape:window-width="1920"
     inkscape:window-height="991"
     inkscape:window-x="-9"
     inkscape:window-y="-9"
     inkscape:window-maximized="1"
     inkscape:current-layer="layer1" />
  <defs
     id="defs861" />
  <g
     inkscape:label="Ebene 1"
     inkscape:groupmode="layer"
     id="layer1">
    <path
       style="fill:none;stroke:#000000;stroke-width:0.1;stroke-miterlimit:4;stroke-dasharray:none;stroke-opacity:1"
       d="m 92.781215,127.743 c 0.1397,-0.1397 0.254,-0.50352 0.254,-0.80849 0,-0.30611 0.21334,-0.74773 0.47625,-0.98587 0.26193,-0.23726 0.63418,-0.61162 0.82722,-0.83192 0.19303,-0.2203 0.59784,-0.57168 0.89958,-0.78085 0.32658,-0.22638 0.54861,-0.5814 0.54861,-0.8772 0,-0.75716 -1.0578,-1.75605 -2.02753,-1.91459 -0.45648,-0.0746 -1.04876,-0.22488 -1.31617,-0.33389 -0.89471,-0.3647 -1.70107,-0.23706 -2.07121,0.32786 -0.40883,0.62394 -0.5805,3.60936 -0.27648,4.80789 0.32056,1.26372 1.96412,2.11867 2.68573,1.39706 z m -3.67556,-1.21249 c 0.49763,-0.54988 0.28438,-1.11906 -0.71616,-1.9115 -1.30758,-1.03563 -2.12762,-0.78383 -2.12762,0.6533 0,0.60023 0.13342,0.89392 0.55772,1.22766 0.70641,0.55567 1.79763,0.57024 2.28606,0.0305 z m -3.05544,-2.43685 c 0,-0.36889 -0.34707,-0.61378 -0.62576,-0.44154 -0.28171,0.17411 -0.028,0.74655 0.3309,0.74655 0.16217,0 0.29486,-0.13725 0.29486,-0.30501 z m 1.89334,-1.31575 c 0.73351,-0.93251 0.16003,-1.93463 -1.61421,-2.82073 l -0.98466,-0.49177 -0.38807,0.47925 c -0.46987,0.58027 -0.49036,1.10223 -0.0748,1.90583 0.76128,1.47214 2.27306,1.93007 3.06174,0.92742 z m 1.65789,-2.09541 c 0.83259,-0.58317 0.4274,-1.94911 -0.87224,-2.94039 -0.88689,-0.67646 -1.515,-0.68647 -1.94449,-0.031 -0.29254,0.44647 -0.29702,0.59666 -0.0364,1.22039 0.31227,0.74737 1.6705,2.08048 2.11968,2.08048 0.14467,0 0.47473,-0.14827 0.73346,-0.3295 z m 3.80661,-0.0232 c 0.55942,-0.22538 0.71331,-0.88457 0.36414,-1.5598 -0.69558,-1.34509 -2.73136,-1.96455 -3.25301,-0.98984 -0.47988,0.89667 0.24842,1.97894 1.64803,2.44899 0.77284,0.25955 0.83408,0.26452 1.24084,0.10065 z m -8.77811,-0.83764 c 0.20064,-0.20064 -0.25394,-0.71471 -0.632,-0.71471 -0.40725,0 -0.26358,0.71706 0.16002,0.79864 0.17896,0.0345 0.39136,-0.003 0.47198,-0.0839 z m 5.86527,-2.06757 c 0,-0.17907 -0.1981,-0.43159 -0.44022,-0.56117 -0.39223,-0.20992 -0.4326,-0.18213 -0.37041,0.25497 0.0784,0.55076 0.81063,0.82736 0.81063,0.3062 z m -3.81,-0.53662 c 0,-0.24137 -0.0398,-0.43885 -0.0885,-0.43885 -0.0487,0 -0.24757,-0.061 -0.44196,-0.13563 -0.27869,-0.10694 -0.33831,-0.0291 -0.2819,0.36826 0.0918,0.64674 0.81238,0.82965 0.81238,0.20622 z"
       id="path1320"
       sodipodi:nodetypes="ssssssssssscsssccsssssscssscssssccssssssscsssscssscsss" />
  </g>
</svg>
