<?xml version="1.0" encoding="UTF-8" standalone="no"?>
<!-- Created with Inkscape (http://www.inkscape.org/) -->

<svg
   width="210mm"
   height="297mm"
   viewBox="0 0 210 297"
   version="1.1"
   id="svg1075"
   inkscape:version="1.1 (c68e22c387, 2021-05-23)"
   sodipodi:docname="wolf22.svg"
   xmlns:inkscape="http://www.inkscape.org/namespaces/inkscape"
   xmlns:sodipodi="http://sodipodi.sourceforge.net/DTD/sodipodi-0.dtd"
   xmlns="http://www.w3.org/2000/svg"
   xmlns:svg="http://www.w3.org/2000/svg">
  <sodipodi:namedview
     id="namedview1077"
     pagecolor="#ffffff"
     bordercolor="#666666"
     borderopacity="1.0"
     inkscape:pageshadow="2"
     inkscape:pageopacity="0.0"
     inkscape:pagecheckerboard="0"
     inkscape:document-units="mm"
     showgrid="false"
     inkscape:zoom="0.46992642"
     inkscape:cx="189.39135"
     inkscape:cy="467.0944"
     inkscape:window-width="1920"
     inkscape:window-height="1017"
     inkscape:window-x="-8"
     inkscape:window-y="-8"
     inkscape:window-maximized="1"
     inkscape:current-layer="layer1" />
  <defs
     id="defs1072" />
  <g
     inkscape:label="Ebene 1"
     inkscape:groupmode="layer"
     id="layer1">
    <path
       style="fill:#000000;stroke-width:0.264583"
       d="m -72.185966,274.23976 c -1.28039,-3.13396 -3.75717,-9.00922 -4.63915,-11.00468 -0.55685,-1.25984 -1.09415,-2.62906 -1.19401,-3.04271 -0.0999,-0.41365 -0.54043,-1.46645 -0.97907,-2.33958 -0.43863,-0.87312 -1.12494,-2.48047 -1.52512,-3.57187 -0.40019,-1.09141 -1.14585,-2.99641 -1.65704,-4.23334 -3.75974,-9.09752 -8.190741,-22.45776 -9.191861,-27.7151 -0.17319,-0.90951 -0.39796,-1.65365 -0.49948,-1.65365 -0.10153,0 -0.33285,1.51805 -0.51405,3.37344 -0.4364,4.4685 -1.22049,9.66158 -2.15841,14.29534 -0.84421,4.17083 -2.91524,12.29703 -3.08957,12.1227 -0.0609,-0.0609 0.0336,-1.99662 0.21008,-4.30161 0.53256,-6.95741 0.0813,-15.4603 -1.20547,-22.71174 -3.411653,-19.22658 -14.380003,-35.45972 -29.580833,-43.77958 -1.13495,-0.62119 -2.12951,-1.06348 -2.21012,-0.98286 -0.44701,0.447 -0.93998,12.92463 -0.53745,13.60343 0.0661,0.11152 0.19888,1.19633 0.29501,2.41071 0.0961,1.21437 0.52781,3.76298 0.9593,5.66358 0.43148,1.9006 0.72072,3.51942 0.64276,3.59738 -0.27342,0.27342 -7.88568,-7.29834 -9.66826,-9.61683 -0.55942,-0.7276 -1.73353,-2.21589 -2.60913,-3.30729 -5.87455,-7.32244 -10.37726,-17.46356 -15.26951,-34.39034 -0.94545,-3.27119 -1.76572,-5.99433 -1.8228,-6.05142 -0.19274,-0.19273 -2.62458,1.35597 -5.55166,3.53554 -5.62983,4.19209 -10.05377,8.90784 -14.02097,14.94579 -1.19517,1.81901 -2.25063,3.48589 -2.34548,3.70417 -0.34307,0.78957 0.0503,-1.00683 1.10077,-5.02708 1.11272,-4.25839 2.55693,-11.26106 4.01067,-19.44688 0.46518,-2.61937 0.95544,-5.03599 1.08946,-5.37026 0.13402,-0.33427 0.24367,-0.94174 0.24367,-1.34993 0,-0.40819 0.28405,-1.92063 0.63121,-3.36099 0.34717,-1.44035 0.82985,-3.51179 1.07263,-4.60319 2.18364,-9.81648 7.27828,-21.0741 11.91388,-26.32605 0.62043,-0.70292 1.11619,-1.68031 1.47626,-2.91042 1.97147,-6.73506 2.57781,-8.614257 3.88435,-12.03854 1.52215,-3.989375 2.82382,-6.769955 4.6447,-9.921876 1.12374,-1.945166 1.34385,-2.263034 3.22959,-4.663927 l 1.16946,-1.488926 0.27265,-5.654824 c 0.14996,-3.110153 0.39073,-8.155136 0.53505,-11.211073 0.16159,-3.421589 0.42268,-6.149658 0.67958,-7.100816 0.22945,-0.849511 0.38098,-1.648093 0.33673,-1.774627 -0.0443,-0.126534 -0.97343,0.345895 -2.06484,1.049845 -2.751,1.774376 -5.52519,3.243065 -5.94085,3.145153 -0.21303,-0.05018 0.46544,-1.109766 1.74672,-2.727889 5.49307,-6.937206 8.47071,-12.397357 10.29663,-18.88113 1.29279,-4.590643 1.65271,-7.326273 1.65831,-12.604286 0.005,-4.714416 -0.5541,-9.700167 -1.15517,-10.301243 -0.5734,-0.5733995 -2.95533,2.519788 -4.11873,5.348612 -0.53889,1.310321 -0.62311,1.405983 -0.62854,0.713979 -0.007,-0.886826 0.79996,-4.005521 1.59047,-6.146974 1.42139,-3.8504935 3.91759,-7.7545947 7.40069,-11.5747927 1.3268,-1.455208 2.64312,-3.087575 2.92517,-3.62748 0.78453,-1.501804 0.59687,-3.595823 -0.37904,-4.229488 -0.66333,-0.430709 0.22388,-0.539675 1.92248,-0.236118 3.69986,0.661202 6.21573,2.23984 10.94176,6.865659 l 3.37344,3.30190603 0.009,-1.69869803 0.009,-1.698698 0.51645,0.619791 c 0.28404,0.340885 0.75972,1.47197903 1.05705,2.51354203 0.29733,1.04156297 0.65628,2.10049497 0.79766,2.35318197 0.14139,0.252686 0.25835,0.728936 0.25993,1.058333 0.002,0.329396 0.18992,1.194215 0.41854,1.9218192 0.22862,0.727605 0.692,2.275417 1.02972,3.439584 1.92156,6.6237955 6.02272,14.2337055 13.007943,24.1368895 3.0248,4.28838 3.76444,5.099569 4.64979,5.099569 0.59795,0 0.5968,-0.01826 -0.18542,-2.941167 -0.36064,-1.347602 -0.61027,-2.495626 -0.55473,-2.551165 0.20505,-0.205047 4.43401,3.225102 5.81448,4.71618 1.48815,1.607378 2.13067,2.960531 2.4064,5.067898 0.1354,1.034912 0.34713,1.406287 1.235041,2.166305 3.64108,3.116628 15.82633,4.280765 25.00397,2.388793 2.33214,-0.480772 5.52091,-1.861725 6.27948,-2.719443 0.27658,-0.312732 0.60917,-1.253786 0.73909,-2.091232 0.33761,-2.176129 1.04837,-3.46338 2.92882,-5.304333 1.81863,-1.780437 5.16671,-4.431488 5.3567,-4.241504 0.0664,0.06642 -0.004,0.52959 -0.15551,1.029275 -0.56462,1.856779 -1.0376,3.724095 -1.0376,4.096427 0,0.519787 0.79649,0.474784 1.50332,-0.08494 0.81934,-0.648814 5.88496,-7.82428 8.64953,-12.252093 4.04598,-6.480161 6.67092,-12.181212 8.21331,-17.8383775 0.39675,-1.455208 1.02938,-3.7769272 1.40583,-5.1593752 0.61594,-2.26188697 1.87211,-5.431596 2.07296,-5.230741 0.0433,0.04331 0.13884,0.731922 0.2123,1.53026 0.0735,0.79833703 0.14126,1.49470603 0.15066,1.54748503 0.009,0.05278 1.35654,-1.262121 2.99365,-2.92200103 2.9749,-3.016282 4.96763,-4.571746 7.49337,-5.849096 1.46783,-0.74233 4.14627,-1.511324 5.2640202,-1.511324 h 0.70862 l -0.54142,0.688299 c -1.4326302,1.821298 -0.8436,3.6886 2.1852,6.927295 1.11209,1.18916103 2.02198,2.25755103 2.02198,2.37420203 0,0.116651 0.40009,0.625339 0.8891,1.13041897 1.68456,1.73995 4.28569998,6.3920072 5.40845,9.6728827 1.27866,3.736466 1.57518,6.704306 0.3871,3.874377 -0.72614,-1.729593 -3.19876,-5.0883075 -3.74593,-5.0883075 -0.4014,0 -0.5583,0.7451235 -0.96161,4.5667455 -0.49368,4.678022 -0.49293,7.976479 0.003,11.977613 1.13323,9.147808 4.33305,16.24365 11.43189,25.351101 1.2301198,1.578182 2.1609698,2.94503 2.0685598,3.037443 -0.2217,0.221695 -3.6488498,-1.553527 -6.1449898,-3.183025 -1.09274,-0.713348 -2.02059,-1.260848 -2.06189,-1.216665 -0.0413,0.04418 0.15401,0.973299 0.43402,2.064705 0.55263,2.154016 0.8686,6.781298 1.17987,17.278676 l 0.18677,6.298465 0.75796,0.977577 c 5.0202798,6.474839 8.4766198,14.033231 11.8693298,25.956068 0.77034,2.70717 1.02716,3.23865 2.49311,5.15937 0.89886,1.17772 2.20272,3.03427 2.89747,4.12568 2.06167,3.23879 4.96887,9.54709 5.8438,12.68041 0.67919,2.43232 1.79946,6.28635 2.38984,8.22168 0.33294,1.0914 0.91533,3.53219 1.29421,5.42396 0.37887,1.89177 0.81364,4.03489 0.96616,4.7625 0.15251,0.7276 0.85647,4.47817 1.56436,8.33459 1.48222,8.07487 2.55025,13.01212 3.85146,17.80444 0.50548,1.86167 0.91875,3.46902 0.91838,3.57187 -2.7e-4,0.10286 -0.42736,-0.52736 -0.94886,-1.40049 -4.67378,-7.82515 -10.87978,-14.39177 -18.27292,-19.33475 -1.40979,-0.94257 -2.67631,-1.67607 -2.81449,-1.63001 -0.13818,0.0461 -1.00563,2.71976 -1.92766,5.94155 -5.04885,17.64185 -9.7120098,27.81617 -16.7080398,36.45447 -2.27529,2.80941 -10.3556102,10.98021 -10.8586002,10.98021 -0.21214,0 -0.19244,-0.36379 0.068,-1.25677 0.65511,-2.24582 1.41648,-6.73593 1.73848,-10.2526 0.30257,-3.30445 0.19666,-10.62122 -0.1869,-12.91259 -0.19867,-1.18684 -0.0727,-1.21052 -3.43475,0.64579 -6.83055,3.77142 -14.45916,11.02698 -18.57438,17.66609 -0.77511,1.2505 -1.72394,2.74987 -2.1085,3.33196 -0.93398,1.41369 -3.51657,6.97128 -4.51075,9.70687 -2.03616,5.60271 -3.28904,10.74745 -4.17606,17.14834 -0.48786,3.52046 -0.68808,17.0106 -0.30827,20.76979 l 0.18713,1.85208 -0.39697,-1.05833 c -1.64128,-4.37573 -4.39919,-18.60804 -4.99887,-25.79688 -0.32131,-3.85175 -0.37521,-3.81927 -1.59801,0.96286 -2.56402,10.02737 -6.74,21.33363 -16.06206,43.48714 -1.37776,3.27422 -2.59196,6.19125 -2.69821,6.4823 -0.18183,0.49805 -0.23018,0.4831 -0.82255,-0.25424 -0.34616,-0.43088 -0.67413,-0.72853 -0.72882,-0.66146 -0.0547,0.0671 -0.29496,0.41185 -0.53392,0.76621 l -0.43449,0.64426 z m 2.21608,-7.39113 c 0.48385,-2.99114 0.82716,-7.39267 0.90287,-11.57526 0.0388,-2.1463 0.15992,-3.90247 0.26906,-3.9026 0.10915,-1.6e-4 0.19844,0.23082 0.19844,0.51329 0,0.28244 0.11332,0.58359 0.25181,0.66918 0.24924,0.15402 1.07396,2.63263 1.6205,4.87019 0.16028,0.65619 0.3821,1.05754 0.5118,0.92604 0.57805,-0.58605 3.75404,-8.65666 5.60972,-14.25501 3.56806,-10.76439 6.1684,-22.83778 7.23714,-33.60209 0.24562,-2.47385 0.5029,-4.55744 0.57173,-4.6302 0.0688,-0.0728 0.52817,0.33193 1.02074,0.89931 1.24135,1.42989 2.37403,4.54369 2.92744,8.04769 0.25706,1.62759 0.53194,2.95802 0.61086,2.95653 0.0789,-0.002 1.09119,-1.63861 2.24953,-3.63802 2.77955,-4.79785 7.46472,-12.37453 7.95541,-12.86522 0.21426,-0.21427 0.38957,-0.46519 0.38957,-0.55759 0,-0.21567 3.56632,-5.25039 4.09012,-5.77419 0.52604,-0.52604 3.84157,-4.60007 4.56145,-5.60497 0.8561,-1.19508 6.27905,-6.49034 8.65558,-8.4518 3.8182,-3.15131 11.0510202,-7.53227 11.8985802,-7.20703 0.74637,0.28641 1.35365,5.73437 1.35365,12.1437 0,4.60577 0.0725,5.9348 0.31055,5.68854 1.03468,-1.07058 4.12522,-6.18908 5.78544998,-9.58175 2.77712002,-5.67504 4.26061002,-10.15453 5.52026002,-16.66875 1.00208,-5.18219 1.22409,-12.42021 0.55185,-17.99167 -0.21069,-1.74625 -0.38557,-3.322 -0.38862,-3.50168 -0.006,-0.34707 1.087,-0.30295 5.5507198,0.22413 4.72436,0.55785 9.02004,2.20877 13.14543,5.05208 2.32061,1.5994 5.92026,5.29373 7.42296,7.61818 2.07859,3.21525 1.95305,3.30585 1.83301,-1.32292 -0.17973,-6.93048 -1.57057,-12.16403 -5.76575,-21.69583 -1.78631,-4.05864 -1.58093,-3.65682 -4.93628,-9.6573 -5.75547,-10.29268 -8.68667,-13.85249 -15.8567298,-19.25731 -2.05589,-1.54974 -3.81402,-2.94075 -3.90697,-3.09113 -0.22505,-0.36415 -0.66692,-0.34934 -0.66692,0.0224 0,0.5311 4.3681,9.03418 5.96439,11.61046 0.85658,1.38245 2.2846,3.52558 3.1733898,4.7625 3.29905,4.5913 5.90687,9.47614 8.40441,15.74271 1.19863,3.0075 3.22282,9.6573 2.93966,9.6573 -0.0386,0 -0.45672,-0.68461 -0.92926,-1.52136 -1.468,-2.59946 -5.35399,-6.80646 -8.00392,-8.6651 -0.8299,-0.58209 -2.06903,-1.50482 -2.75363,-2.05052 -0.6845898,-0.54571 -1.3872198,-0.99219 -1.5613998,-0.99219 -0.17417,0 -0.47401,-0.14904 -0.66631,-0.3312 -0.43074,-0.40803 -2.53493,-1.78547 -2.72749,-1.78547 -0.0771,0 -0.63334,-0.35719 -1.236,-0.79375 -0.60266,-0.43656 -1.19463,-0.79375 -1.31549,-0.79375 -0.51405,0 -5.31791,-3.28843 -6.90799,-4.72879 -0.39866,-0.36113 -0.77513,-0.60574 -0.8366,-0.54359 -0.13075,0.13221 0.77268,3.1531 1.32711,4.43757 0.21009,0.48674 0.62977,2.3322 0.93261,4.10104 0.47748,2.78888 0.5308,3.9016 0.4014,8.37724 -0.16428,5.68197 -0.72481,9.26296 -2.4156,15.43217 -1.099,4.00993 -3.55091,11.55353 -3.75527,11.55353 -0.0803,0 -0.0897,-0.44649 -0.0208,-0.99219 0.21889,-1.73407 -0.31779,-6.07936 -1.02963,-8.33643 -0.8965102,-2.84262 -2.1292502,-5.26342 -3.8242302,-7.50984 -1.72596,-2.28746 -2.35724,-2.7515 -2.35724,-1.73275 0,0.93729 -1.12867,4.92096 -2.02975,7.16409 -2.52331,6.28143 -6.61463,11.70044 -16.41839,21.74641 -4.88296,5.00359 -5.40923,5.63567 -6.49855,7.80521 -1.93535,3.85453 -5.15698,11.94552 -6.6298,16.65047 -0.49705,1.58784 -1.00732,2.92024 -1.13393,2.96089 -0.12661,0.0407 -0.51443,-0.78801 -0.86182,-1.84149 -0.84096,-2.55023 -2.32941,-5.48728 -2.78088,-5.48728 -0.73896,0 -1.3618,1.49749 -5.48329,13.18351 -5.85292,16.59527 -6.44861,18.18227 -6.53648,17.41404 -0.0475,-0.41556 0.2336,-2.61822 0.62474,-4.89479 0.39113,-2.27657 0.71267,-5.09172 0.71453,-6.25589 0.004,-2.36749 -0.45056,-4.45314 -0.93693,-4.30108 -0.96046,0.3003 -2.76528,8.09674 -5.86497,25.33546 -0.37941,2.11005 -0.75643,4.0568 -0.83782,4.32611 -0.3704,1.22557 -0.54543,0.46589 -3.14719,-13.65988 -1.76643,-9.59051 -3.42606,-16.06623 -4.11754,-16.06623 -0.41107,0 -0.77056,1.26422 -0.93117,3.2747 -0.14559,1.82241 0.0846,3.80712 1.10258,9.50443 0.84359,4.72154 0.32369,3.96273 -2.22956,-3.25413 -7.085521,-20.02744 -7.211211,-20.37202 -8.269471,-22.67055 -0.87196,-1.8939 -1.09181,-2.09459 -1.66577,-1.52063 -0.61904,0.61904 -0.945,1.29473 -1.98817,4.1213 -0.51801,1.40361 -1.0609,2.56447 -1.20643,2.57969 -0.14552,0.0152 -0.48739,-0.65692 -0.75973,-1.49367 -2.17048,-6.66889 -5.93301,-16.0778 -7.644363,-19.11614 -0.52414,-0.93057 -2.78437,-3.45841 -6.26922,-7.01147 -6.2238,-6.34561 -9.31717,-9.93264 -11.95718,-13.86535 -3.08183,-4.59087 -4.80211,-8.42784 -5.75726,-12.84118 -0.25,-1.15515 -0.56954,-2.1386 -0.71007,-2.18545 -0.37182,-0.12394 -2.15009,2.0938 -3.56032,4.44021 -2.19645,3.65455 -3.73727,9.82855 -3.32902,13.33927 0.23342,2.00727 -0.1819,1.10005 -1.81691,-3.96875 -2.71217,-8.4082 -3.85121,-13.53332 -4.37245,-19.67396 -0.50341,-5.93052 0.32308,-12.41394 2.20556,-17.30156 0.37832,-0.98227 0.64471,-1.78594 0.59197,-1.78594 -0.0527,0 -1.18678,0.8125 -2.5201,1.80555 -1.33333,0.99305 -3.93399,2.73745 -5.77924,3.87643 -8.91939,5.50547 -10.56218,6.68063 -13.68827,9.79181 -1.17215,1.16655 -2.76956,3.10328 -3.5498,4.30384 -0.78025,1.20057 -1.44936,2.15211 -1.48692,2.11456 -0.15949,-0.1595 1.53516,-5.85151 2.53982,-8.53073 2.08654,-5.56446 4.57361,-10.33264 8.05318,-15.43946 3.35738,-4.92749 3.84093,-5.69073 5.58336,-8.81286 1.97625,-3.54109 4.44875,-8.68075 4.26458,-8.86491 -0.0686,-0.0686 -1.89248,1.21323 -4.05306,2.84853 -7.81634,5.91601 -11.34483,10.31595 -17.54538,21.87865 -4.22238,7.87384 -6.96765,14.59645 -8.47973,20.76518 -0.87532,3.57101 -1.51215,10.09551 -1.12919,11.56896 l 0.2405,0.92534 0.764,-1.32221 c 3.8948,-6.74057 10.75971,-11.81158 18.42995,-13.61393 2.07839,-0.48838 8.39736,-1.18232 8.63175,-0.94793 0.0595,0.0595 -0.0526,0.97918 -0.24909,2.04371 -0.56573,3.06469 -0.4869,14.65066 0.12478,18.33968 1.30794,7.88807 4.15078,15.83132 7.89545,22.0609 4.18864,6.96815 4.44543,7.12251 3.93635,2.36618 -0.24304,-2.27068 -0.24988,-3.87584 -0.0283,-6.63149 0.30176,-3.75258 0.95042,-7.55416 1.3633,-7.98988 0.30437,-0.32119 4.34096,1.77504 7.64957,3.97248 6.31761,4.19589 12.82509,10.73093 18.81814,18.89786 2.97262,4.05089 8.641163,13.05122 12.386323,19.66662 0.48034,0.84846 0.95753,1.44378 1.06042,1.32292 0.1029,-0.12086 0.32898,-1.25302 0.5024,-2.5159 0.17342,-1.26289 0.61459,-3.21296 0.98037,-4.3335 0.63194,-1.93588 2.30275,-4.87972 2.76956,-4.87972 0.29038,0 0.4451,0.87214 0.79794,4.49791 1.33984,13.76811 4.954141,28.5513 10.272901,42.01819 0.84435,2.13786 1.7437,4.45257 1.99858,5.14379 0.25487,0.69123 0.56459,1.25677 0.68827,1.25677 0.25557,0 0.28021,-0.076 1.05813,-3.26281 0.31373,-1.28521 0.76524,-2.7735 1.00337,-3.30729 0.42835,-0.9602 0.43489,-0.92266 0.6153,3.5274 0.16565,4.08596 1.13634,12.89394 1.48354,13.46157 0.23246,0.38005 0.49714,-0.38261 0.81523,-2.34907 z m 5.77365,-76.29924 c 1.69381,-0.66303 2.41491,-1.12189 3.37344,-2.14663 0.67051,-0.71684 1.21912,-1.36492 1.21912,-1.44017 0,-0.26213 -1.48077,-0.90011 -2.52269,-1.08689 -0.57705,-0.10344 -2.473,-0.58989 -4.21321,-1.08101 -1.74021,-0.49112 -3.64521,-0.89377 -4.23333,-0.89478 -1.34461,-0.002 -10.99119,2.67746 -10.99119,3.05329 0,0.51224 2.23459,2.46274 3.60351,3.1454 2.48004,1.23676 3.87765,1.48139 7.90586,1.38381 3.42462,-0.083 3.86675,-0.15338 5.85849,-0.93302 z m -15.39702,-8.49595 c 1.8799,-0.30784 4.26848,-1.41926 4.67246,-2.17411 0.45644,-0.85287 -0.0574,-1.60161 -2.19582,-3.19932 -2.46803,-1.84401 -3.86255,-3.30296 -4.16495,-4.35737 -0.49353,-1.72082 0.17111,-2.38707 2.9533,-2.96044 2.57383,-0.53043 3.179,-1.94816 1.5018,-3.51827 -0.95301,-0.89216 -2.05217,-0.94055 -4.43047,-0.19503 -3.36479,1.05475 -5.142121,0.58704 -6.320041,-1.66314 -0.93878,-1.79334 -0.98597,-4.57587 -0.11565,-6.81814 1.26289,-3.25366 4.544541,-6.21815 8.377151,-7.56756 1.77778,-0.62593 2.54471,-0.74618 4.78617,-0.75049 1.79004,-0.003 2.89815,0.11694 3.36441,0.36549 0.57301,0.30544 0.76832,0.30998 1.11074,0.0258 0.22851,-0.18965 1.29121,-0.40102 2.36154,-0.46971 7.58432,-0.48673 14.70864,5.24543 14.70204,11.82914 -0.002,2.14492 -0.45183,3.4441 -1.58395,4.57622 -0.88981,0.88982 -1.14255,0.99816 -2.32862,0.99816 -0.73176,0 -2.08522,-0.23659 -3.00769,-0.52576 -0.92247,-0.28916 -2.07009,-0.52729 -2.55025,-0.52916 -1.1916,-0.005 -2.40182,0.67055 -2.72488,1.52028 -0.58805,1.54667 0.30139,2.46933 2.71939,2.82099 1.61616,0.23504 2.59831,1.00527 2.59831,2.03765 0,1.52862 -1.17767,2.95515 -4.36562,5.28818 -1.87603,1.37292 -2.22929,1.76865 -2.24055,2.50983 -0.0176,1.15832 2.30403,2.38365 5.27341,2.78326 2.63096,0.35407 6.35888,-0.01 10.61382,-1.03642 l 3.02207,-0.72905 1.77194,-2.63813 c 3.41893,-5.09024 5.83415,-10.45573 6.56783,-14.59067 0.21897,-1.23408 0.28754,-3.11371 0.19597,-5.37144 -0.13331,-3.287 -0.11621,-3.45076 0.31917,-3.05675 0.73198,0.66244 1.80821,2.82313 2.24888,4.51498 0.8643,3.31828 0.27357,7.69466 -1.71401,12.6981 -0.44659,1.12423 -0.75171,2.10433 -0.67804,2.178 0.20021,0.20021 3.4594,-2.76203 6.2463,-5.67718 4.64796,-4.86185 7.69459,-9.77461 9.15611,-14.76442 0.93324,-3.18623 1.17347,-8.51657 0.50733,-11.25729 -0.57728,-2.37516 -1.58479,-4.83318 -2.56504,-6.25792 -0.91896,-1.33567 -0.79839,-1.37504 1.79433,-0.58576 3.88096,1.18145 8.08893,3.89058 10.86645,6.99594 1.50892,1.68702 1.53125,1.70017 1.71578,1.01021 0.42267,-1.58043 -0.38846,-6.54596 -1.52699,-9.34792 -0.71313,-1.75502 -2.02722,-4.04574 -2.84765,-4.96403 -0.29201,-0.32685 -0.46013,-0.66508 -0.37359,-0.75162 0.22023,-0.22023 2.77874,1.08989 3.95232,2.02385 0.53717,0.42748 1.04318,0.77724 1.12448,0.77724 0.0813,0 0.1478,-1.12742 0.1478,-2.50538 0,-4.32355 -1.91678,-11.66444 -4.26619,-16.33864 -0.41849,-0.8326 -0.76089,-1.64573 -0.76089,-1.80696 0,-0.76576 3.0995,0.56879 7.1725802,3.08829 2.76084,1.70779 9.31107998,6.58171 10.40557,7.7426 1.47245,1.56179 1.47098,1.30725 -0.0282,-4.86429 -3.14001,-12.92612 -9.12509,-27.620814 -15.9490202,-39.158336 -3.55164,-6.004902 -4.21665,-6.915259 -7.40087,-10.131304 l -1.96349,-1.983113 1.03745,0.194482 c 1.22659,0.229939 2.0532,0.603923 4.27715,1.935131 2.73896,1.639486 9.7794702,7.464613 14.7484202,12.202438 2.42148998,2.30886 2.44042998,2.297364 2.01019,-1.220004 -0.42837,-3.502062 -1.31739,-5.042043 -4.12582,-7.146896 l -0.79124,-0.593019 1.05833,0.36629 c 1.12069,0.387868 3.8773,1.563536 5.42395998,2.313262 0.56822,0.275439 0.96362002,0.344252 1.02330002,0.178089 0.12284,-0.342017 -1.53718002,-3.625541 -3.16812,-6.266567 -0.68597,-1.110792 -1.21768,-2.049925 -1.1816,-2.086962 0.0361,-0.03704 0.45113,0.06705 0.92231,0.23131 0.50304,0.175358 0.95429,0.201056 1.0931,0.06225 0.28140998,-0.281408 -0.5114,-4.350396 -1.34716,-6.914158 -0.80493,-2.469137 -3.17056,-6.974925 -4.82251,-9.185349 -1.56872,-2.099067 -5.3539602,-5.954837 -5.8459002,-5.954837 -0.18509,0 -0.46604,0.678574 -0.65029,1.570619 -0.92919,4.498713 -4.94474,9.498421 -9.3357,11.623768 -3.40372,1.647495 -3.56442,1.449652 -0.99261,-1.221991 2.92597,-3.039555 4.41504,-5.172165 6.16613,-8.830964 3.72498,-7.783129 3.9105,-15.623067 0.50207,-21.216488 -0.51566,-0.846227 -0.88372,-1.592437 -0.81792,-1.658244 0.0658,-0.0658 1.00227,0.805156 2.08101,1.935471 3.34115,3.500864 5.36558,8.247188 5.70106,13.366264 0.0939,1.432285 0.25072,2.509306 0.34858,2.393381 0.4432402,-0.525081 1.6529302,-3.666934 2.1360502,-5.547799 0.90516,-3.523972 1.17199,-6.762137 0.82663,-10.031876 -0.29372,-2.780878 -1.09455,-6.549524 -1.62557,-7.64985 -0.14046,-0.291041 -0.55929,-1.233614 -0.93072,-2.094609 -0.7795702,-1.807028 -3.2080502,-5.545511 -4.2115602,-6.4834255 -0.84592,-0.790626 -1.05634,-0.69785 -3.96148,1.7466545 -6.43983,5.418738 -10.95444,13.536724 -14.73281,26.491943 -0.57374,1.967222 -0.94518,2.862043 -1.08462,2.612882 -0.11663,-0.208409 -0.3038,-1.852382 -0.41593,-3.653268 -0.19262,-3.093647 -0.22795,-3.245142 -0.64034,-2.745177 -0.24006,0.291042 -2.13317,2.791354 -4.20691,5.55625 -4.19011,5.586614 -10.04387,12.793491 -10.41059,12.81705 -0.13429,0.0086 -0.17214,-1.077127 -0.0872,-2.500906 0.11248,-1.885235 0.0725,-2.468509 -0.15956,-2.326166 -0.17033,0.104487 -0.79184,0.514712 -1.38114,0.911609 -1.38652,0.933825 -3.26334,1.665634 -5.70359,2.22395 -1.58256,0.362079 -3.84745,0.471897 -11.85783,0.574958 -14.4876,0.186393 -18.082241,-0.336042 -22.380141,-3.252674 -0.54202,-0.367821 -1.02448,-0.629775 -1.07213,-0.582115 -0.0477,0.04766 0.023,0.559559 0.15699,1.137555 0.31954,1.378193 0.32472,3.897418 0.008,3.784933 -0.47746,-0.169463 -6.46022,-7.542903 -10.695223,-13.181306 l -4.26982,-5.68478 -0.18955,2.645532 c -0.10425,1.455044 -0.29003,3.120226 -0.41284,3.700404 l -0.22329,1.054873 -0.58646,-1.984375 c -3.76904,-12.753089 -7.31164,-19.743042 -12.90254,-25.458153 -2.14218,-2.189773 -4.93695,-4.4397645 -5.51474,-4.4397645 -0.85703,0 -4.44463,5.7037415 -5.70178,9.0649725 -2.6836,7.175081 -2.34716,16.426891 0.81548,22.42552 l 0.62505,1.18555 0.18313,-2.654626 c 0.39179,-5.679514 2.36651,-10.176296 6.13383,-13.967753 1.60458,-1.614863 2.2389,-1.849937 1.25202,-0.463981 -0.80893,1.136025 -1.99599,3.863911 -2.42687,5.576985 -0.22813,0.907002 -0.35543,2.75097 -0.33791,4.894791 0.0231,2.828613 0.15354,3.909561 0.73419,6.085417 1.32579,4.968111 4.64435,10.671853 8.52044,14.644413 0.92707,0.950148 1.63138,1.781744 1.56513,1.84799 -0.20172,0.201719 -2.28539,-0.686379 -4.0797,-1.738836 -3.52335,-2.066626 -6.89744,-6.407428 -7.82943,-10.072648 -0.62928,-2.474738 -0.61345,-2.43196 -0.89974,-2.43196 -0.46127,0 -3.45439,2.946267 -5.16456,5.083717 -3.16433,3.954913 -5.48935,8.919811 -6.51782,13.918224 -0.74458,3.61872 -0.82032,3.459401 1.33196,2.801557 0.61718,-0.188643 0.59652,-0.120777 -0.37502,1.231524 -0.99354,1.382946 -3.85002,6.697761 -3.85002,7.163427 0,0.411113 0.52471,0.245264 2.99156,-0.945546 2.64071,-1.274742 4.0601,-1.762874 3.35741,-1.154624 -2.47956,2.146301 -3.79218,5.130631 -3.64902,8.296263 l 0.0782,1.728602 2.77813,-2.565162 c 4.10864,-3.793683 4.79002,-4.393324 5.95312,-5.238951 0.58208,-0.423201 1.41552,-1.107525 1.85208,-1.520722 0.77302,-0.731639 1.19316,-1.05714 4.49792,-3.484682 2.33855,-1.717807 5.41644,-3.307294 6.75903,-3.490508 1.00429,-0.137046 1.10026,-0.11272 0.6493,0.16459 -5.8735,3.611861 -15.39841,20.186629 -21.65092,37.675834 -2.01953,5.64893 -4.50995,14.52589 -5.08133,18.11209 l -0.1878,1.17874 1.55378,-1.3276 c 2.71652,-2.32111 6.94869,-5.40936 10.24361,-7.47489 3.56149,-2.23261 7.05287,-3.69932 7.05287,-2.96286 0,0.16031 -0.46249,1.21157 -1.02775,2.33612 -2.30543,4.58648 -3.67503,9.85931 -3.92661,15.11707 -0.17372,3.63071 -0.2636,3.50845 1.54562,2.10246 0.79041,-0.61426 3.14786,-1.81342 3.56501,-1.81342 0.0618,0 -0.35102,0.68461 -0.91741,1.52136 -1.95542,2.88875 -3.203,6.01156 -3.72602,9.32656 -0.33654,2.13306 -0.35619,4.7625 -0.0356,4.7625 0.13186,0 1.05459,-0.84671 2.05052,-1.88158 2.08452,-2.16604 4.30613,-3.82794 6.71454,-5.02287 1.74348,-0.86504 5.10506,-2.09138 5.73275,-2.09138 0.23679,0 0.004,0.64723 -0.68857,1.91823 -2.15634,3.95468 -2.93958,8.04377 -2.40243,12.54252 0.94327,7.90022 4.99244,14.59827 13.59647,22.49098 1.32301,1.21363 2.48954,2.2066 2.59228,2.2066 0.10275,0 -0.12178,-0.80367 -0.49895,-1.78594 -1.871,-4.87269 -2.01348,-5.53275 -2.04187,-9.45885 -0.0237,-3.27473 0.0427,-3.87603 0.57297,-5.18657 0.32986,-0.81533 1.02245,-1.94642 1.53909,-2.51354 l 0.93934,-1.03114 -0.16392,0.92604 c -0.87851,4.96303 0.15564,10.94857 2.796353,16.18496 2.24939,4.46042 5.41726,9.07086 6.37688,9.28075 0.33688,0.0737 1.7436,0.39762 3.12605,0.71985 4.147871,0.96684 7.545691,1.23595 10.172931,0.80573 z m -13.536211,-36.64858 c -0.91837,-3.78988 -1.13271,-6.39858 -1.09782,-13.36145 0.0342,-6.81858 -0.0741,-8.07049 -0.87504,-10.12032 -0.24817,-0.63513 -0.42732,-0.7276 -1.40957,-0.7276 -1.40181,0 -2.79175,0.48439 -5.767553,2.00999 -2.68132,1.37463 -6.00109,2.21105 -8.7857,2.21357 -1.96986,0.002 -3.07593,-0.34524 -2.10925,-0.66177 1.88338,-0.61668 4.4112,-2.10489 5.40311,-3.18098 0.61586,-0.66813 1.0629,-1.27163 0.99342,-1.34111 -0.0695,-0.0695 -1.1816,0.0727 -2.47138,0.31591 -2.7661,0.52164 -5.68759,0.38373 -8.29819,-0.39172 -2.17988,-0.64751 -3.43958,-1.14862 -3.43958,-1.36827 0,-0.0944 0.79072,-0.63388 1.75715,-1.19877 1.94423,-1.13641 3.88308,-3.14176 4.97207,-5.14258 0.39168,-0.71964 0.63778,-1.30844 0.5469,-1.30844 -0.0909,0 -0.75993,0.19451 -1.48678,0.43226 -1.70478,0.5576 -4.09876,0.36729 -5.38581,-0.42815 -0.86428,-0.53415 -0.9327,-0.67266 -0.9327,-1.8882 0,-4.31833 1.57966,-10.934505 3.31953,-13.90336 0.79715,-1.360247 0.82277,-1.648309 0.0879,-0.988457 -0.98583,0.885182 -2.54127,3.386476 -3.45097,5.549469 -0.69445,1.651198 -0.89938,1.953088 -0.96176,1.416758 -0.14067,-1.20932 0.69322,-4.455815 1.66172,-6.469413 3.05691,-6.35557 10.87387,-11.716055 18.45974,-12.658771 1.50072,-0.1865 1.65653,0.192304 0.26458,0.643284 -2.72828,0.883944 -6.02414,3.102846 -5.46451,3.678928 0.1596,0.164288 1.37922,0.436169 2.71027,0.604179 4.13875,0.522404 9.265803,-0.573463 12.879273,-2.752849 0.92735,-0.559314 1.75082,-1.016932 1.82992,-1.016932 0.0791,0 0.60674,0.922735 1.17251,2.050521 1.34458,2.680208 2.837031,7.345535 3.337971,10.434334 0.47158,2.907723 0.52655,9.112489 0.10232,11.548619 -0.27186,1.56113 -0.25502,1.75201 0.18286,2.07219 0.6909,0.5052 0.88858,0.44433 1.19772,-0.36877 0.74243,-1.95275 1.09328,-4.62768 1.10262,-8.40668 0.0114,-4.625355 -0.28388,-7.045137 -1.79212,-14.68438 -0.0718,-0.363802 0.46962,0.521073 1.2032,1.966391 1.44443,2.845837 3.66845,6.270332 4.18381,6.442115 0.44567,0.148558 2.66857,-4.658395 4.01627,-8.685059 1.67802,-5.013622 2.37294,-8.690037 2.5592,-13.539304 0.0879,-2.287212 0.2465,-4.104942 0.35254,-4.039402 0.10605,0.06554 0.51472,1.162989 0.90815,2.438776 0.39344,1.275784 0.77726,2.498201 0.85294,2.716482 0.0757,0.218281 0.55227,-0.853281 1.05908,-2.38125 0.50682,-1.527969 1.03062,-2.891234 1.164,-3.029479 0.1474,-0.152784 0.24251,1.107953 0.24251,3.214854 0,3.651009 0.61717,8.137237 1.59426,11.588584 1.2289,4.340865 4.22514,11.503398 4.88803,11.684871 0.40868,0.111882 2.35938,-2.732244 3.86139,-5.629926 1.56916,-3.027228 1.70352,-3.20765 1.45506,-1.953903 -1.93724,9.775516 -2.18441,16.48785 -0.7901,21.45714 0.45815,1.63281 0.69632,1.82578 1.43184,1.16015 0.37589,-0.34018 0.40467,-0.61284 0.1885,-1.78594 -0.4399,-2.38731 -0.34292,-9.567122 0.16523,-12.232392 0.5531,-2.900984 1.71609,-6.546093 2.92314,-9.161838 1.46219,-3.168624 1.31796,-3.092694 3.47347,-1.828631 3.72925,2.186956 8.77383,3.240776 12.93939,2.703055 1.25975,-0.162618 2.39874,-0.362585 2.53107,-0.44437 0.74049,-0.457653 -1.39179,-2.119046 -4.28445,-3.338272 -2.52919,-1.066028 -2.74885,-1.314098 -0.98782,-1.115579 8.25023,0.930034 16.73763,7.22017 19.27293,14.28345 0.55196,1.537745 1.10797,4.738867 0.86527,4.981567 -0.0697,0.0697 -0.52649,-0.79264 -1.01501,-1.916396 -0.96003,-2.208421 -2.33123,-4.354697 -3.43384,-5.374849 l -0.69196,-0.64022 0.69503,1.383766 c 1.83146,3.646336 2.96717,7.541989 3.3376,11.448529 0.34777,3.66752 0.20963,4.33592 -1.01859,4.92854 -1.51122,0.72917 -3.95548,0.79309 -5.42754,0.14192 -1.54097,-0.68164 -1.57616,-0.39745 -0.21068,1.70154 1.27316,1.9571 3.26573,3.82358 5.04369,4.72454 0.75231,0.38122 1.30164,0.80025 1.22073,0.93117 -0.24276,0.39279 -3.04861,1.35204 -5.12127,1.75082 -2.50936,0.48281 -4.35062,0.47209 -6.82858,-0.0397 -1.10049,-0.22731 -2.07774,-0.3354 -2.17166,-0.2402 -0.0939,0.0952 0.55306,0.85442 1.43774,1.68716 1.52802,1.43831 3.20013,2.33019 5.27067,2.81129 0.7121,0.16546 0.73931,0.20662 0.26458,0.40011 -0.77656,0.3165 -4.91357,0.29726 -6.53541,-0.0304 -0.77115,-0.1558 -3.05617,-1.07216 -5.07782,-2.03637 -2.87614,-1.37175 -4.00631,-1.77702 -5.19543,-1.86303 l -1.51969,-0.10993 -0.61056,1.55098 c -0.58774,1.493 -0.6082,1.80084 -0.5475,8.2348 0.0643,6.81156 -0.29845,11.43144 -1.13707,14.48285 l -0.36358,1.32291 -0.0247,-2.51354 c -0.0524,-5.3314 -1.42765,-10.57105 -4.27074,-16.27187 -1.82982,-3.66907 -5.03279,-8.99584 -5.40916,-8.99584 -0.63825,0 -3.94191,6.27881 -10.8392,20.60058 -0.84411,1.75275 -1.61179,3.03758 -1.73894,2.91042 -0.29657,-0.29658 -3.0302,-5.86714 -3.29631,-6.71718 -0.28491,-0.91009 -7.68413,-15.21841 -8.36252,-16.17113 -0.72474,-1.0178 -0.84362,-0.90609 -3.09238,2.90558 -2.765051,4.68681 -3.682001,6.46738 -4.698171,9.12308 -0.51138,1.33645 -1.05039,2.71503 -1.1978,3.06353 -0.59267,1.40108 -1.11816,4.85487 -1.2723,8.36221 -0.15841,3.60466 -0.1714,3.66863 -0.48336,2.38125 z m 2.20563,-27.06912 c 1.34981,-0.68862 3.80349,-2.88896 3.80349,-3.41079 0,-0.27507 -0.14515,-0.34317 -0.46302,-0.21725 -1.1708,0.46378 -4.97793,1.07259 -5.99283,0.95835 -0.13097,-0.0147 0.23726,-0.37118 0.81829,-0.79209 1.16888,-0.84672 2.19797,-2.03832 2.19797,-2.54503 0,-0.2179 -0.86868,-0.43334 -2.57968,-0.63979 -6.926803,-0.8358 -10.903963,-2.14441 -14.240973,-4.68575 -1.23561,-0.94099 -3.28768,-3.02294 -3.28768,-3.33555 0,-0.0733 0.34284,-0.20186 0.76186,-0.28566 1.60597,-0.3212 2.1792,-2.01745 1.04033,-3.07847 -1.17923,-1.098623 -2.74343,-0.565075 -6.11789,2.08681 -1.36556,1.07315 -1.76972,1.54647 -1.76972,2.07255 0,1.21843 0.57694,4.03241 0.82674,4.03241 0.13379,0 0.60191,-0.56554 1.04027,-1.25677 0.43836,-0.69122 0.88223,-1.19815 0.98636,-1.12651 0.10414,0.0716 0.39892,0.72649 0.65507,1.45521 0.88941,2.53024 3.31123,5.40206 5.42125,6.42858 0.96398,0.46897 1.08148,0.74964 0.39688,0.94799 -2.77413,0.80377 -5.27401,1.58054 -5.47951,1.70261 -0.43378,0.25767 1.19764,0.5635 3.95815,0.742 3.06684,0.1983 6.32744,-0.16905 9.400193,-1.05904 l 2.10919,-0.61091 v 0.84022 c 0,0.90165 0.70435,1.75306 1.85221,2.23894 0.95978,0.40625 3.44341,0.16015 4.66305,-0.46206 z m 45.463281,0.36831 c 0.98833,-0.41295 1.79843,-1.44304 1.72087,-2.18818 -0.0275,-0.26387 -0.0362,-0.55641 -0.0195,-0.65009 0.0168,-0.0937 0.89367,0.10218 1.9487,0.43525 3.68017,1.16185 10.18028,1.5056 13.03073,0.68912 0.94176,-0.26976 0.93173,-0.27489 -2.60532,-1.33031 -2.66207,-0.79435 -3.20795,-1.05968 -2.61521,-1.27117 0.72203,-0.25761 2.95695,-2.11644 3.90439,-3.24735 1.05731,-1.26208 2.5062,-4.05323 2.50655,-4.82865 2.7e-4,-0.83125 0.48224,-0.48895 1.22007,0.8667 1.04547,1.92086 1.3955,1.60213 1.80052,-1.63951 0.21565,-1.72599 0.25315,-1.67349 -2.83097,-3.96213 -2.89649,-2.149393 -4.6336,-2.366703 -5.34745,-0.66895 -0.45386,1.0794 0.0689,2.21327 1.12796,2.44664 0.39753,0.0876 0.83862,0.18746 0.98018,0.22192 0.44762,0.10896 -2.53716,3.04465 -4.20917,4.13993 -3.00651,1.96947 -7.33309,3.28135 -13.05071,3.95716 -1.49324,0.1765 -2.7679,0.40652 -2.83257,0.51116 -0.22641,0.36634 1.12983,2.00451 2.20213,2.65989 0.59523,0.36381 1.08544,0.72924 1.08935,0.81208 0.0102,0.21697 -3.57242,-0.23316 -5.28455,-0.66395 -0.80036,-0.20138 -1.49576,-0.32614 -1.54534,-0.27724 -0.0496,0.0489 0.41135,0.63294 1.02427,1.29788 2.41472,2.61966 5.44615,3.66704 7.78504,2.6898 z m -49.814681,-10.57402 c 0.79636,-0.52179 1.5403,-1.9128 1.5403,-2.88 0,-0.84233 -0.94919,-2.04621 -1.61331,-2.04621 -0.36145,0 -0.5639,-0.23659 -0.67414,-0.78782 -0.1954,-0.97699 -0.67441,-1.39556 -1.4683,-1.28301 -0.9559,0.13551 -0.91324,1.05517 0.0748,1.61231 0.78307,0.44156 0.80703,0.50033 0.43146,1.05833 -0.57071,0.84792 -2.56021,0.80977 -3.493493,-0.067 -0.71678,-0.67338 -0.927,-2.28198 -0.37089,-2.83809 0.16194,-0.16194 0.20477,-0.43954 0.0952,-0.61687 -0.25744,-0.416547 -3.15016,-0.16854 -4.47092,0.38331 -0.7765,0.32444 -0.94578,0.53256 -0.94578,1.16273 0,0.89577 0.9764,2.32732 2.89806,4.24898 2.71395,2.71395 5.785293,3.50255 7.997053,2.05335 z m 54.507771,-0.0105 c 1.026,-0.48686 4.53997,-3.86876 5.13437,-4.94138 0.19378,-0.34969 0.35655,-0.9693 0.36171,-1.37691 0.008,-0.60362 -0.16609,-0.81442 -0.93641,-1.13628 -1.32077,-0.55185 -4.21348,-0.799859 -4.47092,-0.38331 -0.1096,0.17733 -0.0668,0.45493 0.0952,0.61687 0.54761,0.54761 0.34661,2.16404 -0.35053,2.81897 -0.92285,0.86697 -2.76678,1.04171 -3.41651,0.32377 -0.55959,-0.61834 -0.40164,-1.02777 0.53366,-1.38337 0.85798,-0.32621 0.7703,-1.39804 -0.12475,-1.52492 -0.79389,-0.11254 -1.2729,0.30602 -1.4683,1.28302 -0.11024,0.55121 -0.31269,0.7878 -0.67414,0.7878 -0.66412,0 -1.61331,1.20389 -1.61331,2.04622 0,0.9672 0.74351,2.35731 1.54414,2.88702 1.38546,0.91664 3.43127,0.90999 5.38582,-0.0175 z m -45.705011,-1.01313 c -0.23385,-2.24612 -0.83888,-5.26739 -1.46964,-7.338723 -1.00595,-3.303395 -3.68024,-8.908132 -4.48899,-9.40797 -0.14994,-0.09267 -0.56409,0.146002 -0.92032,0.530384 -1.74709,1.885143 -4.53671,2.024147 -9.379343,0.467363 -4.59999,-1.478775 -4.69191,-1.487657 -6.23595,-0.602499 -1.63214,0.935662 -4.61197,4.00663 -4.61197,4.753025 0,0.303636 0.0339,0.552067 0.0753,0.552067 0.0414,0 0.77572,0.246171 1.63176,0.547044 1.2182,0.428165 2.62493,0.598099 6.47312,0.781968 2.70418,0.129207 5.39293,0.365181 5.975023,0.524389 2.66879,0.729951 4.63976,2.182822 6.70828,4.944922 1.25967,1.68205 1.29825,1.7835 0.90589,2.38232 -0.2254,0.344 -0.35411,0.68116 -0.28602,0.74925 0.19107,0.19107 5.3441,2.73049 5.58342,2.75152 0.11637,0.0102 0.1341,-0.72555 0.0394,-1.63506 z m 34.332431,0.42937 c 3.18606,-1.58675 3.24629,-1.63688 2.69635,-2.24456 -0.40918,-0.45214 -0.38431,-0.5642 0.39468,-1.77815 0.95676,-1.49099 3.5139,-4.015758 4.66657,-4.607507 2.03584,-1.045146 3.46514,-1.307658 8.32668,-1.529326 4.87037,-0.222067 7.35469,-0.662768 8.17093,-1.449459 0.31038,-0.299138 0.28063,-0.490159 -0.19654,-1.262253 -0.74432,-1.204333 -2.79071,-3.097837 -4.31059,-3.988544 -1.13311,-0.664048 -1.31804,-0.695695 -2.50967,-0.429495 -0.70753,0.158059 -2.53658,0.714457 -4.06454,1.236438 -3.37782,1.153927 -5.53961,1.274027 -7.45855,0.414366 -0.68246,-0.305734 -1.39571,-0.803873 -1.585,-1.106974 -0.18929,-0.303102 -0.47288,-0.551093 -0.63021,-0.551093 -0.63535,0 -3.36781,5.499376 -4.58593,9.229726 -0.99841,3.057491 -2.00068,9.291111 -1.49387,9.291111 0.0668,0 1.22765,-0.55093 2.57969,-1.22428 z"
       id="path1258" />
    <path
       style="fill:none;stroke:#000000;stroke-width:0.565;stroke-miterlimit:4;stroke-dasharray:none;stroke-opacity:1"
       d="m 165.75008,288.39831 c -1.28039,-3.13396 -3.75717,-9.00922 -4.63915,-11.00468 -0.55685,-1.25984 -1.09415,-2.62906 -1.19401,-3.04271 -0.0999,-0.41365 -0.54043,-1.46645 -0.97907,-2.33958 -0.43863,-0.87312 -1.12494,-2.48047 -1.52512,-3.57187 -0.40019,-1.09141 -1.14585,-2.99641 -1.65704,-4.23334 -3.75974,-9.09752 -8.19074,-22.45776 -9.19186,-27.7151 -0.17319,-0.90951 -0.39796,-1.65365 -0.49948,-1.65365 -0.10153,0 -0.33285,1.51805 -0.51405,3.37344 -0.4364,4.4685 -1.22049,9.66158 -2.15841,14.29534 -0.84421,4.17083 -2.91524,12.29703 -3.08957,12.1227 -0.0609,-0.0609 0.0336,-1.99662 0.21008,-4.30161 0.53256,-6.95741 0.0813,-15.4603 -1.20547,-22.71174 -3.41165,-19.22658 -14.38,-35.45972 -29.58083,-43.77958 -1.13495,-0.62119 -2.12951,-1.06348 -2.21012,-0.98286 -0.44701,0.447 -0.93998,12.92463 -0.53745,13.60343 0.0661,0.11152 0.19888,1.19633 0.29501,2.41071 0.0961,1.21437 0.52781,3.76298 0.9593,5.66358 0.43148,1.9006 0.72072,3.51942 0.64276,3.59738 -0.27342,0.27342 -7.88568,-7.29834 -9.66826,-9.61683 -0.55942,-0.7276 -1.73353,-2.21589 -2.60913,-3.30729 -5.87455,-7.32244 -10.37726,-17.46356 -15.26951,-34.39034 -0.94545,-3.27119 -1.76572,-5.99433 -1.8228,-6.05142 -0.19274,-0.19273 -2.62458,1.35597 -5.55166,3.53554 -5.629829,4.19209 -10.053769,8.90784 -14.020969,14.94579 -1.19517,1.81901 -2.25063,3.48589 -2.34548,3.70417 -0.34307,0.78957 0.0503,-1.00683 1.10077,-5.02708 1.11272,-4.25839 2.55693,-11.26106 4.01067,-19.44688 0.46518,-2.61937 0.95544,-5.03599 1.08946,-5.37026 0.13402,-0.33427 0.24367,-0.94174 0.24367,-1.34993 0,-0.40819 0.28405,-1.92063 0.63121,-3.36099 0.34717,-1.44035 0.82985,-3.51179 1.07263,-4.60319 2.18364,-9.81648 7.278279,-21.0741 11.913879,-26.32605 0.62043,-0.70292 1.11619,-1.68031 1.47626,-2.91042 1.97147,-6.73506 2.57781,-8.61426 3.88435,-12.03854 1.52215,-3.98938 2.82382,-6.769959 4.6447,-9.92188 1.12374,-1.945166 1.34385,-2.263034 3.22959,-4.663927 l 1.16946,-1.488926 0.27265,-5.654824 c 0.14996,-3.110153 0.39073,-8.155136 0.53505,-11.211073 0.16159,-3.421589 0.42268,-6.149658 0.67958,-7.100816 0.22945,-0.849511 0.38098,-1.648093 0.33673,-1.774627 -0.0443,-0.126534 -0.97343,0.345895 -2.06484,1.049845 -2.751,1.774376 -5.52519,3.243065 -5.94085,3.145153 -0.21303,-0.05018 0.46544,-1.109766 1.74672,-2.727889 5.49307,-6.937206 8.47071,-12.397357 10.29663,-18.88113 1.29279,-4.590643 1.65271,-7.326273 1.65831,-12.604286 0.005,-4.714416 -0.5541,-9.700167 -1.15517,-10.301243 -0.5734,-0.573399 -2.95533,2.519788 -4.11873,5.348612 -0.53889,1.310321 -0.62311,1.405983 -0.62854,0.713979 -0.007,-0.886826 0.79996,-4.005521 1.59047,-6.146974 1.42139,-3.850493 3.91759,-7.754595 7.40069,-11.574793 1.3268,-1.455208 2.64312,-3.0875749 2.92517,-3.6274799 0.78453,-1.501804 0.59687,-3.5958234 -0.37904,-4.2294884 -0.66333,-0.430709 0.22388,-0.539675 1.92248,-0.236118 3.69986,0.661202 6.21573,2.2398404 10.94176,6.8656593 l 3.37344,3.301906 0.009,-1.698698 0.009,-1.698698 0.51645,0.619791 c 0.28404,0.340885 0.75972,1.471979 1.05705,2.513542 0.29733,1.041563 0.65628,2.100495 0.79766,2.353182 0.14139,0.252686 0.25835,0.728936 0.25993,1.058333 0.002,0.329396 0.18992,1.194215 0.41854,1.92182 0.22862,0.727605 0.692,2.275417 1.02972,3.439584 1.92156,6.623795 6.02272,14.233705 13.00794,24.136889 3.0248,4.28838 3.76444,5.099569 4.64979,5.099569 0.59795,0 0.5968,-0.01826 -0.18542,-2.941167 -0.36064,-1.347602 -0.61027,-2.495626 -0.55473,-2.551165 0.20505,-0.205047 4.43401,3.225102 5.81448,4.71618 1.48815,1.607378 2.13067,2.960531 2.4064,5.067898 0.1354,1.034912 0.34713,1.406287 1.23504,2.166305 3.64108,3.116628 15.82633,4.280765 25.00397,2.388793 2.33214,-0.480772 5.52091,-1.861725 6.27948,-2.719443 0.27658,-0.312732 0.60917,-1.253786 0.73909,-2.091232 0.33761,-2.176129 1.04837,-3.46338 2.92882,-5.304333 1.81863,-1.780437 5.16671,-4.431488 5.3567,-4.241504 0.0664,0.06642 -0.004,0.52959 -0.15551,1.029275 -0.56462,1.856779 -1.0376,3.724095 -1.0376,4.096427 0,0.519787 0.79649,0.474784 1.50332,-0.08494 0.81934,-0.648814 5.88496,-7.82428 8.64953,-12.252093 4.04598,-6.480161 6.67092,-12.181212 8.21331,-17.838377 0.39675,-1.455208 1.02938,-3.776928 1.40583,-5.159376 0.61594,-2.261887 1.87211,-5.431596 2.07296,-5.230741 0.0433,0.04331 0.13884,0.731922 0.2123,1.53026 0.0735,0.798337 0.14126,1.494706 0.15066,1.547485 0.009,0.05278 1.35654,-1.262121 2.99365,-2.922001 2.9749,-3.0162819 4.96763,-4.5717459 7.49337,-5.8490963 1.46783,-0.74233 4.14627,-1.511324 5.26402,-1.511324 h 0.70862 l -0.54142,0.688299 c -1.43263,1.8212984 -0.8436,3.6886004 2.1852,6.9272953 1.11209,1.189161 2.02198,2.257551 2.02198,2.374202 0,0.116651 0.40009,0.625339 0.8891,1.130419 1.68456,1.73995 4.2857,6.392008 5.40845,9.672883 1.27866,3.736466 1.57518,6.704306 0.3871,3.874377 -0.72614,-1.729593 -3.19876,-5.088307 -3.74593,-5.088307 -0.4014,0 -0.5583,0.745123 -0.96161,4.566745 -0.49368,4.678022 -0.49293,7.976479 0.003,11.977613 1.13323,9.147808 4.33305,16.24365 11.43189,25.351101 1.23012,1.578182 2.16097,2.94503 2.06856,3.037443 -0.2217,0.221695 -3.64885,-1.553527 -6.14499,-3.183025 -1.09274,-0.713348 -2.02059,-1.260848 -2.06189,-1.216665 -0.0413,0.04418 0.15401,0.973299 0.43402,2.064705 0.55263,2.154016 0.8686,6.781298 1.17987,17.278676 l 0.18677,6.298465 0.75796,0.977577 c 5.02028,6.474839 8.47662,14.033232 11.86933,25.956072 0.77034,2.70717 1.02716,3.23865 2.49311,5.15937 0.89886,1.17772 2.20272,3.03427 2.89747,4.12568 2.06167,3.23879 4.96887,9.54709 5.8438,12.68041 0.67919,2.43232 1.79946,6.28635 2.38984,8.22168 0.33294,1.0914 0.91533,3.53219 1.29421,5.42396 0.37887,1.89177 0.81364,4.03489 0.96616,4.7625 0.15251,0.7276 0.85647,4.47817 1.56436,8.33459 1.48222,8.07487 2.55025,13.01212 3.85146,17.80444 0.50548,1.86167 0.91875,3.46902 0.91838,3.57187 -2.7e-4,0.10286 -0.42736,-0.52736 -0.94886,-1.40049 -4.67378,-7.82515 -10.87978,-14.39177 -18.27292,-19.33475 -1.40979,-0.94257 -2.67631,-1.67607 -2.81449,-1.63001 -0.13818,0.0461 -1.00563,2.71976 -1.92766,5.94155 -5.04885,17.64185 -9.71201,27.81617 -16.70804,36.45447 -2.27529,2.80941 -10.35561,10.98021 -10.8586,10.98021 -0.21214,0 -0.19244,-0.36379 0.068,-1.25677 0.65511,-2.24582 1.41648,-6.73593 1.73848,-10.2526 0.30257,-3.30445 0.19666,-10.62122 -0.1869,-12.91259 -0.19867,-1.18684 -0.0727,-1.21052 -3.43475,0.64579 -6.83055,3.77142 -14.45916,11.02698 -18.57438,17.66609 -0.77511,1.2505 -1.72394,2.74987 -2.1085,3.33196 -0.93398,1.41369 -3.51657,6.97128 -4.51075,9.70687 -2.03616,5.60271 -3.28904,10.74745 -4.17606,17.14834 -0.48786,3.52046 -0.68808,17.0106 -0.30827,20.76979 l 0.18713,1.85208 -0.39697,-1.05833 c -1.64128,-4.37573 -4.39919,-18.60804 -4.99887,-25.79688 -0.32131,-3.85175 -0.37521,-3.81927 -1.59801,0.96286 -2.56402,10.02737 -6.74,21.33363 -16.06206,43.48714 -1.37776,3.27422 -2.59196,6.19125 -2.69821,6.4823 -0.18183,0.49805 -0.23018,0.4831 -0.82255,-0.25424 -0.34616,-0.43088 -0.67413,-0.72853 -0.72882,-0.66146 -0.0547,0.0671 -0.29496,0.41185 -0.53392,0.76621 l -0.43449,0.64426 z m 2.21608,-7.39113 c 0.48385,-2.99114 0.82716,-7.39267 0.90287,-11.57526 0.0388,-2.1463 0.15992,-3.90247 0.26906,-3.9026 0.10915,-1.6e-4 0.19844,0.23082 0.19844,0.51329 0,0.28244 0.11332,0.58359 0.25181,0.66918 0.24924,0.15402 1.07396,2.63263 1.6205,4.87019 0.16028,0.65619 0.3821,1.05754 0.5118,0.92604 0.57805,-0.58605 3.75404,-8.65666 5.60972,-14.25501 3.56806,-10.76439 6.1684,-22.83778 7.23714,-33.60209 0.24562,-2.47385 0.5029,-4.55744 0.57173,-4.6302 0.0688,-0.0728 0.52817,0.33193 1.02074,0.89931 1.24135,1.42989 2.37403,4.54369 2.92744,8.04769 0.25706,1.62759 0.53194,2.95802 0.61086,2.95653 0.0789,-0.002 1.09119,-1.63861 2.24953,-3.63802 2.77955,-4.79785 7.46472,-12.37453 7.95541,-12.86522 0.21426,-0.21427 0.38957,-0.46519 0.38957,-0.55759 0,-0.21567 3.56632,-5.25039 4.09012,-5.77419 0.52604,-0.52604 3.84157,-4.60007 4.56145,-5.60497 0.8561,-1.19508 6.27905,-6.49034 8.65558,-8.4518 3.8182,-3.15131 11.05102,-7.53227 11.89858,-7.20703 0.74637,0.28641 1.35365,5.73437 1.35365,12.1437 0,4.60577 0.0725,5.9348 0.31055,5.68854 1.03468,-1.07058 4.12522,-6.18908 5.78545,-9.58175 2.77712,-5.67504 4.26061,-10.15453 5.52026,-16.66875 1.00208,-5.18219 1.22409,-12.42021 0.55185,-17.99167 -0.21069,-1.74625 -0.38557,-3.322 -0.38862,-3.50168 -0.006,-0.34707 1.087,-0.30295 5.55072,0.22413 4.72436,0.55785 9.02004,2.20877 13.14543,5.05208 2.32061,1.5994 5.92026,5.29373 7.42296,7.61818 2.07859,3.21525 1.95305,3.30585 1.83301,-1.32292 -0.17973,-6.93048 -1.57057,-12.16403 -5.76575,-21.69583 -1.78631,-4.05864 -1.58093,-3.65682 -4.93628,-9.6573 -5.75547,-10.29268 -8.68667,-13.85249 -15.85673,-19.25731 -2.05589,-1.54974 -3.81402,-2.94075 -3.90697,-3.09113 -0.22505,-0.36415 -0.66692,-0.34934 -0.66692,0.0224 0,0.5311 4.3681,9.03418 5.96439,11.61046 0.85658,1.38245 2.2846,3.52558 3.17339,4.7625 3.29905,4.5913 5.90687,9.47614 8.40441,15.74271 1.19863,3.0075 3.22282,9.6573 2.93966,9.6573 -0.0386,0 -0.45672,-0.68461 -0.92926,-1.52136 -1.468,-2.59946 -5.35399,-6.80646 -8.00392,-8.6651 -0.8299,-0.58209 -2.06903,-1.50482 -2.75363,-2.05052 -0.68459,-0.54571 -1.38722,-0.99219 -1.5614,-0.99219 -0.17417,0 -0.47401,-0.14904 -0.66631,-0.3312 -0.43074,-0.40803 -2.53493,-1.78547 -2.72749,-1.78547 -0.0771,0 -0.63334,-0.35719 -1.236,-0.79375 -0.60266,-0.43656 -1.19463,-0.79375 -1.31549,-0.79375 -0.51405,0 -5.31791,-3.28843 -6.90799,-4.72879 -0.39866,-0.36113 -0.77513,-0.60574 -0.8366,-0.54359 -0.13075,0.13221 0.77268,3.1531 1.32711,4.43757 0.21009,0.48674 0.62977,2.3322 0.93261,4.10104 0.47748,2.78888 0.5308,3.9016 0.4014,8.37724 -0.16428,5.68197 -0.72481,9.26296 -2.4156,15.43217 -1.099,4.00993 -3.55091,11.55353 -3.75527,11.55353 -0.0803,0 -0.0897,-0.44649 -0.0208,-0.99219 0.21889,-1.73407 -0.31779,-6.07936 -1.02963,-8.33643 -0.89651,-2.84262 -2.12925,-5.26342 -3.82423,-7.50984 -1.72596,-2.28746 -2.35724,-2.7515 -2.35724,-1.73275 0,0.93729 -1.12867,4.92096 -2.02975,7.16409 -2.52331,6.28143 -6.61463,11.70044 -16.41839,21.74641 -4.88296,5.00359 -5.40923,5.63567 -6.49855,7.80521 -1.93535,3.85453 -5.15698,11.94552 -6.6298,16.65047 -0.49705,1.58784 -1.00732,2.92024 -1.13393,2.96089 -0.12661,0.0407 -0.51443,-0.78801 -0.86182,-1.84149 -0.84096,-2.55023 -2.32941,-5.48728 -2.78088,-5.48728 -0.73896,0 -1.3618,1.49749 -5.48329,13.18351 -5.85292,16.59527 -6.44861,18.18227 -6.53648,17.41404 -0.0475,-0.41556 0.2336,-2.61822 0.62474,-4.89479 0.39113,-2.27657 0.71267,-5.09172 0.71453,-6.25589 0.004,-2.36749 -0.45056,-4.45314 -0.93693,-4.30108 -0.96046,0.3003 -2.76528,8.09674 -5.86497,25.33546 -0.37941,2.11005 -0.75643,4.0568 -0.83782,4.32611 -0.3704,1.22557 -0.54543,0.46589 -3.14719,-13.65988 -1.76643,-9.59051 -3.42606,-16.06623 -4.11754,-16.06623 -0.41107,0 -0.77056,1.26422 -0.93117,3.2747 -0.14559,1.82241 0.0846,3.80712 1.10258,9.50443 0.84359,4.72154 0.32369,3.96273 -2.22956,-3.25413 -7.08552,-20.02744 -7.21121,-20.37202 -8.26947,-22.67055 -0.87196,-1.8939 -1.09181,-2.09459 -1.66577,-1.52063 -0.61904,0.61904 -0.945,1.29473 -1.98817,4.1213 -0.51801,1.40361 -1.0609,2.56447 -1.20643,2.57969 -0.14552,0.0152 -0.48739,-0.65692 -0.75973,-1.49367 -2.17048,-6.66889 -5.93301,-16.0778 -7.64436,-19.11614 -0.52414,-0.93057 -2.78437,-3.45841 -6.26922,-7.01147 -6.2238,-6.34561 -9.31717,-9.93264 -11.95718,-13.86535 -3.08183,-4.59087 -4.80211,-8.42784 -5.75726,-12.84118 -0.25,-1.15515 -0.56954,-2.1386 -0.71007,-2.18545 -0.37182,-0.12394 -2.15009,2.0938 -3.56032,4.44021 -2.19645,3.65455 -3.73727,9.82855 -3.32902,13.33927 0.23342,2.00727 -0.1819,1.10005 -1.81691,-3.96875 -2.71217,-8.4082 -3.85121,-13.53332 -4.37245,-19.67396 -0.50341,-5.93052 0.32308,-12.41394 2.20556,-17.30156 0.37832,-0.98227 0.64471,-1.78594 0.59197,-1.78594 -0.0527,0 -1.18678,0.8125 -2.5201,1.80555 -1.33333,0.99305 -3.93399,2.73745 -5.77924,3.87643 -8.91939,5.50547 -10.56218,6.68063 -13.68827,9.79181 -1.17215,1.16655 -2.76956,3.10328 -3.5498,4.30384 -0.78025,1.20057 -1.44936,2.15211 -1.48692,2.11456 -0.15949,-0.1595 1.53516,-5.85151 2.53982,-8.53073 2.08654,-5.56446 4.57361,-10.33264 8.05318,-15.43946 3.35738,-4.92749 3.84093,-5.69073 5.58336,-8.81286 1.97625,-3.54109 4.44875,-8.68075 4.26458,-8.86491 -0.0686,-0.0686 -1.89248,1.21323 -4.05306,2.84853 -7.81634,5.91601 -11.34483,10.31595 -17.54538,21.87865 -4.222379,7.87384 -6.967649,14.59645 -8.479729,20.76518 -0.87532,3.57101 -1.51215,10.09551 -1.12919,11.56896 l 0.2405,0.92534 0.764,-1.32221 c 3.8948,-6.74057 10.759709,-11.81158 18.429949,-13.61393 2.07839,-0.48838 8.39736,-1.18232 8.63175,-0.94793 0.0595,0.0595 -0.0526,0.97918 -0.24909,2.04371 -0.56573,3.06469 -0.4869,14.65066 0.12478,18.33968 1.30794,7.88807 4.15078,15.83132 7.89545,22.0609 4.18864,6.96815 4.44543,7.12251 3.93635,2.36618 -0.24304,-2.27068 -0.24988,-3.87584 -0.0283,-6.63149 0.30176,-3.75258 0.95042,-7.55416 1.3633,-7.98988 0.30437,-0.32119 4.34096,1.77504 7.64957,3.97248 6.31761,4.19589 12.82509,10.73093 18.81814,18.89786 2.97262,4.05089 8.64116,13.05122 12.38632,19.66662 0.48034,0.84846 0.95753,1.44378 1.06042,1.32292 0.1029,-0.12086 0.32898,-1.25302 0.5024,-2.5159 0.17342,-1.26289 0.61459,-3.21296 0.98037,-4.3335 0.63194,-1.93588 2.30275,-4.87972 2.76956,-4.87972 0.29038,0 0.4451,0.87214 0.79794,4.49791 1.33984,13.76811 4.95414,28.5513 10.2729,42.01819 0.84435,2.13786 1.7437,4.45257 1.99858,5.14379 0.25487,0.69123 0.56459,1.25677 0.68827,1.25677 0.25557,0 0.28021,-0.076 1.05813,-3.26281 0.31373,-1.28521 0.76524,-2.7735 1.00337,-3.30729 0.42835,-0.9602 0.43489,-0.92266 0.6153,3.5274 0.16565,4.08596 1.13634,12.89394 1.48354,13.46157 0.23246,0.38005 0.49714,-0.38261 0.81523,-2.34907 z m 5.77365,-76.29924 c 1.69381,-0.66303 2.41491,-1.12189 3.37344,-2.14663 0.67051,-0.71684 1.21912,-1.36492 1.21912,-1.44017 0,-0.26213 -1.48077,-0.90011 -2.52269,-1.08689 -0.57705,-0.10344 -2.473,-0.58989 -4.21321,-1.08101 -1.74021,-0.49112 -3.64521,-0.89377 -4.23333,-0.89478 -1.34461,-0.002 -10.99119,2.67746 -10.99119,3.05329 0,0.51224 2.23459,2.46274 3.60351,3.1454 2.48004,1.23676 3.87765,1.48139 7.90586,1.38381 3.42462,-0.083 3.86675,-0.15338 5.85849,-0.93302 z m -15.39702,-8.49595 c 1.8799,-0.30784 4.26848,-1.41926 4.67246,-2.17411 0.45644,-0.85287 -0.0574,-1.60161 -2.19582,-3.19932 -2.46803,-1.84401 -3.86255,-3.30296 -4.16495,-4.35737 -0.49353,-1.72082 0.17111,-2.38707 2.9533,-2.96044 2.57383,-0.53043 3.179,-1.94816 1.5018,-3.51827 -0.95301,-0.89216 -2.05217,-0.94055 -4.43047,-0.19503 -3.36479,1.05475 -5.14212,0.58704 -6.32004,-1.66314 -0.93878,-1.79334 -0.98597,-4.57587 -0.11565,-6.81814 1.26289,-3.25366 4.54454,-6.21815 8.37715,-7.56756 1.77778,-0.62593 2.54471,-0.74618 4.78617,-0.75049 1.79004,-0.003 2.89815,0.11694 3.36441,0.36549 0.57301,0.30544 0.76832,0.30998 1.11074,0.0258 0.22851,-0.18965 1.29121,-0.40102 2.36154,-0.46971 7.58432,-0.48673 14.70864,5.24543 14.70204,11.82914 -0.002,2.14492 -0.45183,3.4441 -1.58395,4.57622 -0.88981,0.88982 -1.14255,0.99816 -2.32862,0.99816 -0.73176,0 -2.08522,-0.23659 -3.00769,-0.52576 -0.92247,-0.28916 -2.07009,-0.52729 -2.55025,-0.52916 -1.1916,-0.005 -2.40182,0.67055 -2.72488,1.52028 -0.58805,1.54667 0.30139,2.46933 2.71939,2.82099 1.61616,0.23504 2.59831,1.00527 2.59831,2.03765 0,1.52862 -1.17767,2.95515 -4.36562,5.28818 -1.87603,1.37292 -2.22929,1.76865 -2.24055,2.50983 -0.0176,1.15832 2.30403,2.38365 5.27341,2.78326 2.63096,0.35407 6.35888,-0.01 10.61382,-1.03642 l 3.02207,-0.72905 1.77194,-2.63813 c 3.41893,-5.09024 5.83415,-10.45573 6.56783,-14.59067 0.21897,-1.23408 0.28754,-3.11371 0.19597,-5.37144 -0.13331,-3.287 -0.11621,-3.45076 0.31917,-3.05675 0.73198,0.66244 1.80821,2.82313 2.24888,4.51498 0.8643,3.31828 0.27357,7.69466 -1.71401,12.6981 -0.44659,1.12423 -0.75171,2.10433 -0.67804,2.178 0.20021,0.20021 3.4594,-2.76203 6.2463,-5.67718 4.64796,-4.86185 7.69459,-9.77461 9.15611,-14.76442 0.93324,-3.18623 1.17347,-8.51657 0.50733,-11.25729 -0.57728,-2.37516 -1.58479,-4.83318 -2.56504,-6.25792 -0.91896,-1.33567 -0.79839,-1.37504 1.79433,-0.58576 3.88096,1.18145 8.08893,3.89058 10.86645,6.99594 1.50892,1.68702 1.53125,1.70017 1.71578,1.01021 0.42267,-1.58043 -0.38846,-6.54596 -1.52699,-9.34792 -0.71313,-1.75502 -2.02722,-4.04574 -2.84765,-4.96403 -0.29201,-0.32685 -0.46013,-0.66508 -0.37359,-0.75162 0.22023,-0.22023 2.77874,1.08989 3.95232,2.02385 0.53717,0.42748 1.04318,0.77724 1.12448,0.77724 0.0813,0 0.1478,-1.12742 0.1478,-2.50538 0,-4.32355 -1.91678,-11.66444 -4.26619,-16.33864 -0.41849,-0.8326 -0.76089,-1.64573 -0.76089,-1.80696 0,-0.76576 3.0995,0.56879 7.17258,3.08829 2.76084,1.70779 9.31108,6.58171 10.40557,7.7426 1.47245,1.56179 1.47098,1.30725 -0.0282,-4.86429 -3.14001,-12.92612 -9.12509,-27.62082 -15.94902,-39.15834 -3.55164,-6.004902 -4.21665,-6.915259 -7.40087,-10.131304 l -1.96349,-1.983113 1.03745,0.194482 c 1.22659,0.229939 2.0532,0.603923 4.27715,1.935131 2.73896,1.639486 9.77947,7.464613 14.74842,12.202438 2.42149,2.30886 2.44043,2.297364 2.01019,-1.220004 -0.42837,-3.502062 -1.31739,-5.042043 -4.12582,-7.146896 l -0.79124,-0.593019 1.05833,0.36629 c 1.12069,0.387868 3.8773,1.563536 5.42396,2.313262 0.56822,0.275439 0.96362,0.344252 1.0233,0.178089 0.12284,-0.342017 -1.53718,-3.625541 -3.16812,-6.266567 -0.68597,-1.110792 -1.21768,-2.049925 -1.1816,-2.086962 0.0361,-0.03704 0.45113,0.06705 0.92231,0.23131 0.50304,0.175358 0.95429,0.201056 1.0931,0.06225 0.28141,-0.281408 -0.5114,-4.350396 -1.34716,-6.914158 -0.80493,-2.469137 -3.17056,-6.974925 -4.82251,-9.185349 -1.56872,-2.099067 -5.35396,-5.954837 -5.8459,-5.954837 -0.18509,0 -0.46604,0.678574 -0.65029,1.570619 -0.92919,4.498713 -4.94474,9.498421 -9.3357,11.623768 -3.40372,1.647495 -3.56442,1.449652 -0.99261,-1.221991 2.92597,-3.039555 4.41504,-5.172165 6.16613,-8.830964 3.72498,-7.783129 3.9105,-15.623067 0.50207,-21.216488 -0.51566,-0.846227 -0.88372,-1.592437 -0.81792,-1.658244 0.0658,-0.0658 1.00227,0.805156 2.08101,1.935471 3.34115,3.500864 5.36558,8.247188 5.70106,13.366264 0.0939,1.432285 0.25072,2.509306 0.34858,2.393381 0.44324,-0.525081 1.65293,-3.666934 2.13605,-5.547799 0.90516,-3.523972 1.17199,-6.762137 0.82663,-10.031876 -0.29372,-2.780878 -1.09455,-6.549524 -1.62557,-7.64985 -0.14046,-0.291041 -0.55929,-1.233614 -0.93072,-2.094609 -0.77957,-1.807028 -3.20805,-5.545511 -4.21156,-6.483425 -0.84592,-0.790626 -1.05634,-0.69785 -3.96148,1.746654 -6.43983,5.418738 -10.95444,13.536724 -14.73281,26.491943 -0.57374,1.967222 -0.94518,2.862043 -1.08462,2.612882 -0.11663,-0.208409 -0.3038,-1.852382 -0.41593,-3.653268 -0.19262,-3.093647 -0.22795,-3.245142 -0.64034,-2.745177 -0.24006,0.291042 -2.13317,2.791354 -4.20691,5.55625 -4.19011,5.586614 -10.04387,12.793491 -10.41059,12.81705 -0.13429,0.0086 -0.17214,-1.077127 -0.0872,-2.500906 0.11248,-1.885235 0.0725,-2.468509 -0.15956,-2.326166 -0.17033,0.104487 -0.79184,0.514712 -1.38114,0.911609 -1.38652,0.933825 -3.26334,1.665634 -5.70359,2.22395 -1.58256,0.362079 -3.84745,0.471897 -11.85783,0.574958 -14.4876,0.186393 -18.08224,-0.336042 -22.38014,-3.252674 -0.54202,-0.367821 -1.02448,-0.629775 -1.07213,-0.582115 -0.0477,0.04766 0.023,0.559559 0.15699,1.137555 0.31954,1.378193 0.32472,3.897418 0.008,3.784933 -0.47746,-0.169463 -6.46022,-7.542903 -10.69522,-13.181306 l -4.26982,-5.68478 -0.18955,2.645532 c -0.10425,1.455044 -0.29003,3.120226 -0.41284,3.700404 l -0.22329,1.054873 -0.58646,-1.984375 c -3.76904,-12.753089 -7.31164,-19.743042 -12.90254,-25.458153 -2.14218,-2.189773 -4.93695,-4.439764 -5.51474,-4.439764 -0.85703,0 -4.44463,5.703741 -5.70178,9.064972 -2.6836,7.175081 -2.34716,16.426891 0.81548,22.42552 l 0.62505,1.18555 0.18313,-2.654626 c 0.39179,-5.679514 2.36651,-10.176296 6.13383,-13.967753 1.60458,-1.614863 2.2389,-1.849937 1.25202,-0.463981 -0.80893,1.136025 -1.99599,3.863911 -2.42687,5.576985 -0.22813,0.907002 -0.35543,2.75097 -0.33791,4.894791 0.0231,2.828613 0.15354,3.909561 0.73419,6.085417 1.32579,4.968111 4.64435,10.671853 8.52044,14.644413 0.92707,0.950148 1.63138,1.781744 1.56513,1.84799 -0.20172,0.201719 -2.28539,-0.686379 -4.0797,-1.738836 -3.52335,-2.066626 -6.89744,-6.407428 -7.82943,-10.072648 -0.62928,-2.474738 -0.61345,-2.43196 -0.89974,-2.43196 -0.46127,0 -3.45439,2.946267 -5.16456,5.083717 -3.16433,3.954913 -5.48935,8.919811 -6.51782,13.918224 -0.74458,3.61872 -0.82032,3.459401 1.33196,2.801557 0.61718,-0.188643 0.59652,-0.120777 -0.37502,1.231524 -0.99354,1.382946 -3.85002,6.697761 -3.85002,7.163427 0,0.411113 0.52471,0.245264 2.99156,-0.945546 2.64071,-1.274742 4.0601,-1.762874 3.35741,-1.154624 -2.47956,2.146301 -3.79218,5.130631 -3.64902,8.296263 l 0.0782,1.728602 2.77813,-2.565162 c 4.10864,-3.793683 4.79002,-4.393324 5.95312,-5.238951 0.58208,-0.423201 1.41552,-1.107525 1.85208,-1.520722 0.77302,-0.731639 1.19316,-1.05714 4.49792,-3.484682 2.33855,-1.717807 5.41644,-3.307294 6.75903,-3.490508 1.00429,-0.137046 1.10026,-0.11272 0.6493,0.16459 -5.8735,3.611861 -15.39841,20.186629 -21.65092,37.675838 -2.01953,5.64893 -4.50995,14.52589 -5.08133,18.11209 l -0.1878,1.17874 1.55378,-1.3276 c 2.71652,-2.32111 6.94869,-5.40936 10.24361,-7.47489 3.56149,-2.23261 7.05287,-3.69932 7.05287,-2.96286 0,0.16031 -0.46249,1.21157 -1.02775,2.33612 -2.30543,4.58648 -3.67503,9.85931 -3.92661,15.11707 -0.17372,3.63071 -0.2636,3.50845 1.54562,2.10246 0.79041,-0.61426 3.14786,-1.81342 3.56501,-1.81342 0.0618,0 -0.35102,0.68461 -0.91741,1.52136 -1.95542,2.88875 -3.203,6.01156 -3.72602,9.32656 -0.33654,2.13306 -0.35619,4.7625 -0.0356,4.7625 0.13186,0 1.05459,-0.84671 2.05052,-1.88158 2.08452,-2.16604 4.30613,-3.82794 6.71454,-5.02287 1.74348,-0.86504 5.10506,-2.09138 5.73275,-2.09138 0.23679,0 0.004,0.64723 -0.68857,1.91823 -2.15634,3.95468 -2.93958,8.04377 -2.40243,12.54252 0.94327,7.90022 4.99244,14.59827 13.59647,22.49098 1.32301,1.21363 2.48954,2.2066 2.59228,2.2066 0.10275,0 -0.12178,-0.80367 -0.49895,-1.78594 -1.871,-4.87269 -2.01348,-5.53275 -2.04187,-9.45885 -0.0237,-3.27473 0.0427,-3.87603 0.57297,-5.18657 0.32986,-0.81533 1.02245,-1.94642 1.53909,-2.51354 l 0.93934,-1.03114 -0.16392,0.92604 c -0.87851,4.96303 0.15564,10.94857 2.79635,16.18496 2.24939,4.46042 5.41726,9.07086 6.37688,9.28075 0.33688,0.0737 1.7436,0.39762 3.12605,0.71985 4.14787,0.96684 7.54569,1.23595 10.17293,0.80573 z m -13.53621,-36.64858 c -0.91837,-3.78988 -1.13271,-6.39858 -1.09782,-13.36145 0.0342,-6.81858 -0.0741,-8.07049 -0.87504,-10.12032 -0.24817,-0.63513 -0.42732,-0.7276 -1.40957,-0.7276 -1.40181,0 -2.79175,0.48439 -5.76755,2.00999 -2.68132,1.37463 -6.00109,2.21105 -8.7857,2.21357 -1.96986,0.002 -3.07593,-0.34524 -2.10925,-0.66177 1.88338,-0.61668 4.4112,-2.10489 5.40311,-3.18098 0.61586,-0.66813 1.0629,-1.27163 0.99342,-1.34111 -0.0695,-0.0695 -1.1816,0.0727 -2.47138,0.31591 -2.7661,0.52164 -5.68759,0.38373 -8.29819,-0.39172 -2.17988,-0.64751 -3.43958,-1.14862 -3.43958,-1.36827 0,-0.0944 0.79072,-0.63388 1.75715,-1.19877 1.94423,-1.13641 3.88308,-3.14176 4.97207,-5.14258 0.39168,-0.71964 0.63778,-1.30844 0.5469,-1.30844 -0.0909,0 -0.75993,0.19451 -1.48678,0.43226 -1.70478,0.5576 -4.09876,0.36729 -5.38581,-0.42815 -0.86428,-0.53415 -0.9327,-0.67266 -0.9327,-1.8882 0,-4.31833 1.57966,-10.93451 3.31953,-13.90336 0.79715,-1.36025 0.82277,-1.64831 0.0879,-0.98846 -0.98583,0.88518 -2.54127,3.38647 -3.45097,5.54947 -0.69445,1.6512 -0.89938,1.95309 -0.96176,1.41676 -0.14067,-1.20932 0.69322,-4.45582 1.66172,-6.46942 3.05691,-6.35557 10.87387,-11.716052 18.45974,-12.658768 1.50072,-0.1865 1.65653,0.192304 0.26458,0.643284 -2.72828,0.883944 -6.02414,3.102844 -5.46451,3.678924 0.1596,0.16429 1.37922,0.43617 2.71027,0.60418 4.13875,0.52241 9.2658,-0.57346 12.87927,-2.752846 0.92735,-0.559314 1.75082,-1.016932 1.82992,-1.016932 0.0791,0 0.60674,0.922735 1.17251,2.050521 1.34458,2.680207 2.83703,7.345537 3.33797,10.434337 0.47158,2.90772 0.52655,9.11249 0.10232,11.54862 -0.27186,1.56113 -0.25502,1.75201 0.18286,2.07219 0.6909,0.5052 0.88858,0.44433 1.19772,-0.36877 0.74243,-1.95275 1.09328,-4.62768 1.10262,-8.40668 0.0114,-4.62536 -0.28388,-7.04514 -1.79212,-14.68438 -0.0718,-0.363806 0.46962,0.52107 1.2032,1.96639 1.44443,2.84583 3.66845,6.27033 4.18381,6.44211 0.44567,0.14856 2.66857,-4.65839 4.01627,-8.685057 1.67802,-5.013622 2.37294,-8.690037 2.5592,-13.539304 0.0879,-2.287212 0.2465,-4.104942 0.35254,-4.039402 0.10605,0.06554 0.51472,1.162989 0.90815,2.438776 0.39344,1.275784 0.77726,2.498201 0.85294,2.716482 0.0757,0.218281 0.55227,-0.853281 1.05908,-2.38125 0.50682,-1.527969 1.03062,-2.891234 1.164,-3.029479 0.1474,-0.152784 0.24251,1.107953 0.24251,3.214854 0,3.651009 0.61717,8.137237 1.59426,11.588584 1.2289,4.340866 4.22514,11.503396 4.88803,11.684866 0.40868,0.11189 2.35938,-2.73224 3.86139,-5.62992 1.56916,-3.027229 1.70352,-3.207651 1.45506,-1.9539 -1.93724,9.77551 -2.18441,16.48785 -0.7901,21.45714 0.45815,1.63281 0.69632,1.82578 1.43184,1.16015 0.37589,-0.34018 0.40467,-0.61284 0.1885,-1.78594 -0.4399,-2.38731 -0.34292,-9.56713 0.16523,-12.2324 0.5531,-2.90098 1.71609,-6.54609 2.92314,-9.16183 1.46219,-3.168628 1.31796,-3.092698 3.47347,-1.828635 3.72925,2.186955 8.77383,3.240775 12.93939,2.703055 1.25975,-0.16262 2.39874,-0.36259 2.53107,-0.44437 0.74049,-0.45765 -1.39179,-2.119046 -4.28445,-3.338272 -2.52919,-1.066028 -2.74885,-1.314098 -0.98782,-1.115579 8.25023,0.930034 16.73763,7.220171 19.27293,14.283451 0.55196,1.53774 1.10797,4.73887 0.86527,4.98157 -0.0697,0.0697 -0.52649,-0.79264 -1.01501,-1.9164 -0.96003,-2.20842 -2.33123,-4.3547 -3.43384,-5.37485 l -0.69196,-0.64022 0.69503,1.38377 c 1.83146,3.64633 2.96717,7.54199 3.3376,11.44853 0.34777,3.66752 0.20963,4.33592 -1.01859,4.92854 -1.51122,0.72917 -3.95548,0.79309 -5.42754,0.14192 -1.54097,-0.68164 -1.57616,-0.39745 -0.21068,1.70154 1.27316,1.9571 3.26573,3.82358 5.04369,4.72454 0.75231,0.38122 1.30164,0.80025 1.22073,0.93117 -0.24276,0.39279 -3.04861,1.35204 -5.12127,1.75082 -2.50936,0.48281 -4.35062,0.47209 -6.82858,-0.0397 -1.10049,-0.22731 -2.07774,-0.3354 -2.17166,-0.2402 -0.0939,0.0952 0.55306,0.85442 1.43774,1.68716 1.52802,1.43831 3.20013,2.33019 5.27067,2.81129 0.7121,0.16546 0.73931,0.20662 0.26458,0.40011 -0.77656,0.3165 -4.91357,0.29726 -6.53541,-0.0304 -0.77115,-0.1558 -3.05617,-1.07216 -5.07782,-2.03637 -2.87614,-1.37175 -4.00631,-1.77702 -5.19543,-1.86303 l -1.51969,-0.10993 -0.61056,1.55098 c -0.58774,1.493 -0.6082,1.80084 -0.5475,8.2348 0.0643,6.81156 -0.29845,11.43144 -1.13707,14.48285 l -0.36358,1.32291 -0.0247,-2.51354 c -0.0524,-5.3314 -1.42765,-10.57105 -4.27074,-16.27187 -1.82982,-3.66907 -5.03279,-8.99584 -5.40916,-8.99584 -0.63825,0 -3.94191,6.27881 -10.8392,20.60058 -0.84411,1.75275 -1.61179,3.03758 -1.73894,2.91042 -0.29657,-0.29658 -3.0302,-5.86714 -3.29631,-6.71718 -0.28491,-0.91009 -7.68413,-15.21841 -8.36252,-16.17113 -0.72474,-1.0178 -0.84362,-0.90609 -3.09238,2.90558 -2.76505,4.68681 -3.682,6.46738 -4.69817,9.12308 -0.51138,1.33645 -1.05039,2.71503 -1.1978,3.06353 -0.59267,1.40108 -1.11816,4.85487 -1.2723,8.36221 -0.15841,3.60466 -0.1714,3.66863 -0.48336,2.38125 z m 2.20563,-27.06912 c 1.34981,-0.68862 3.80349,-2.88896 3.80349,-3.41079 0,-0.27507 -0.14515,-0.34317 -0.46302,-0.21725 -1.1708,0.46378 -4.97793,1.07259 -5.99283,0.95835 -0.13097,-0.0147 0.23726,-0.37118 0.81829,-0.79209 1.16888,-0.84672 2.19797,-2.03832 2.19797,-2.54503 0,-0.2179 -0.86868,-0.43334 -2.57968,-0.63979 -6.9268,-0.8358 -10.90396,-2.14441 -14.24097,-4.68575 -1.23561,-0.94099 -3.28768,-3.02294 -3.28768,-3.33555 0,-0.0733 0.34284,-0.20186 0.76186,-0.28566 1.60597,-0.3212 2.1792,-2.01745 1.04033,-3.07847 -1.17923,-1.09863 -2.74343,-0.56508 -6.11789,2.08681 -1.36556,1.07315 -1.76972,1.54647 -1.76972,2.07255 0,1.21843 0.57694,4.03241 0.82674,4.03241 0.13379,0 0.60191,-0.56554 1.04027,-1.25677 0.43836,-0.69122 0.88223,-1.19815 0.98636,-1.12651 0.10414,0.0716 0.39892,0.72649 0.65507,1.45521 0.88941,2.53024 3.31123,5.40206 5.42125,6.42858 0.96398,0.46897 1.08148,0.74964 0.39688,0.94799 -2.77413,0.80377 -5.27401,1.58054 -5.47951,1.70261 -0.43378,0.25767 1.19764,0.5635 3.95815,0.742 3.06684,0.1983 6.32744,-0.16905 9.40019,-1.05904 l 2.10919,-0.61091 v 0.84022 c 0,0.90165 0.70435,1.75306 1.85221,2.23894 0.95978,0.40625 3.44341,0.16015 4.66305,-0.46206 z m 45.46328,0.36831 c 0.98833,-0.41295 1.79843,-1.44304 1.72087,-2.18818 -0.0275,-0.26387 -0.0362,-0.55641 -0.0195,-0.65009 0.0168,-0.0937 0.89367,0.10218 1.9487,0.43525 3.68017,1.16185 10.18028,1.5056 13.03073,0.68912 0.94176,-0.26976 0.93173,-0.27489 -2.60532,-1.33031 -2.66207,-0.79435 -3.20795,-1.05968 -2.61521,-1.27117 0.72203,-0.25761 2.95695,-2.11644 3.90439,-3.24735 1.05731,-1.26208 2.5062,-4.05323 2.50655,-4.82865 2.7e-4,-0.83125 0.48224,-0.48895 1.22007,0.8667 1.04547,1.92086 1.3955,1.60213 1.80052,-1.63951 0.21565,-1.72599 0.25315,-1.67349 -2.83097,-3.96213 -2.89649,-2.1494 -4.6336,-2.36671 -5.34745,-0.66895 -0.45386,1.0794 0.0689,2.21327 1.12796,2.44664 0.39753,0.0876 0.83862,0.18746 0.98018,0.22192 0.44762,0.10896 -2.53716,3.04465 -4.20917,4.13993 -3.00651,1.96947 -7.33309,3.28135 -13.05071,3.95716 -1.49324,0.1765 -2.7679,0.40652 -2.83257,0.51116 -0.22641,0.36634 1.12983,2.00451 2.20213,2.65989 0.59523,0.36381 1.08544,0.72924 1.08935,0.81208 0.0102,0.21697 -3.57242,-0.23316 -5.28455,-0.66395 -0.80036,-0.20138 -1.49576,-0.32614 -1.54534,-0.27724 -0.0496,0.0489 0.41135,0.63294 1.02427,1.29788 2.41472,2.61966 5.44615,3.66704 7.78504,2.6898 z m -49.81468,-10.57402 c 0.79636,-0.52179 1.5403,-1.9128 1.5403,-2.88 0,-0.84233 -0.94919,-2.04621 -1.61331,-2.04621 -0.36145,0 -0.5639,-0.23659 -0.67414,-0.78782 -0.1954,-0.97699 -0.67441,-1.39556 -1.4683,-1.28301 -0.9559,0.13551 -0.91324,1.05517 0.0748,1.61231 0.78307,0.44156 0.80703,0.50033 0.43146,1.05833 -0.57071,0.84792 -2.56021,0.80977 -3.49349,-0.067 -0.71678,-0.67338 -0.927,-2.28198 -0.37089,-2.83809 0.16194,-0.16194 0.20477,-0.43954 0.0952,-0.61687 -0.25744,-0.41655 -3.15016,-0.16854 -4.47092,0.38331 -0.7765,0.32444 -0.94578,0.53256 -0.94578,1.16273 0,0.89577 0.9764,2.32732 2.89806,4.24898 2.71395,2.71395 5.78529,3.50255 7.99705,2.05335 z m 54.50777,-0.0105 c 1.026,-0.48686 4.53997,-3.86876 5.13437,-4.94138 0.19378,-0.34969 0.35655,-0.9693 0.36171,-1.37691 0.008,-0.60362 -0.16609,-0.81442 -0.93641,-1.13628 -1.32077,-0.55185 -4.21348,-0.79986 -4.47092,-0.38331 -0.1096,0.17733 -0.0668,0.45493 0.0952,0.61687 0.54761,0.54761 0.34661,2.16404 -0.35053,2.81897 -0.92285,0.86697 -2.76678,1.04171 -3.41651,0.32377 -0.55959,-0.61834 -0.40164,-1.02777 0.53366,-1.38337 0.85798,-0.32621 0.7703,-1.39804 -0.12475,-1.52492 -0.79389,-0.11254 -1.2729,0.30602 -1.4683,1.28302 -0.11024,0.55121 -0.31269,0.7878 -0.67414,0.7878 -0.66412,0 -1.61331,1.20389 -1.61331,2.04622 0,0.9672 0.74351,2.35731 1.54414,2.88702 1.38546,0.91664 3.43127,0.90999 5.38582,-0.0175 z m -45.70501,-1.01313 c -0.23385,-2.24612 -0.83888,-5.26739 -1.46964,-7.33873 -1.00595,-3.30339 -3.68024,-8.90813 -4.48899,-9.40797 -0.14994,-0.0927 -0.56409,0.146 -0.92032,0.53039 -1.74709,1.88514 -4.53671,2.02414 -9.37934,0.46736 -4.59999,-1.47878 -4.69191,-1.48766 -6.23595,-0.6025 -1.63214,0.93566 -4.61197,4.00663 -4.61197,4.75303 0,0.30363 0.0339,0.55206 0.0753,0.55206 0.0414,0 0.77572,0.24617 1.63176,0.54705 1.2182,0.42816 2.62493,0.5981 6.47312,0.78196 2.70418,0.12921 5.39293,0.36519 5.97502,0.52439 2.66879,0.72995 4.63976,2.18283 6.70828,4.94493 1.25967,1.68205 1.29825,1.7835 0.90589,2.38232 -0.2254,0.344 -0.35411,0.68116 -0.28602,0.74925 0.19107,0.19107 5.3441,2.73049 5.58342,2.75152 0.11637,0.0102 0.1341,-0.72555 0.0394,-1.63506 z m 34.33243,0.42937 c 3.18606,-1.58675 3.24629,-1.63688 2.69635,-2.24456 -0.40918,-0.45214 -0.38431,-0.5642 0.39468,-1.77815 0.95676,-1.49099 3.5139,-4.01576 4.66657,-4.60751 2.03584,-1.04515 3.46514,-1.30766 8.32668,-1.52933 4.87037,-0.22206 7.35469,-0.66277 8.17093,-1.44946 0.31038,-0.29913 0.28063,-0.49016 -0.19654,-1.26225 -0.74432,-1.20433 -2.79071,-3.09784 -4.31059,-3.98854 -1.13311,-0.66405 -1.31804,-0.6957 -2.50967,-0.4295 -0.70753,0.15806 -2.53658,0.71446 -4.06454,1.23644 -3.37782,1.15393 -5.53961,1.27403 -7.45855,0.41437 -0.68246,-0.30574 -1.39571,-0.80388 -1.585,-1.10698 -0.18929,-0.3031 -0.47288,-0.55109 -0.63021,-0.55109 -0.63535,0 -3.36781,5.49937 -4.58593,9.22972 -0.99841,3.0575 -2.00068,9.29112 -1.49387,9.29112 0.0668,0 1.22765,-0.55093 2.57969,-1.22428 z"
       id="path1258-1" />
  </g>
</svg>
