<?xml version="1.0" encoding="UTF-8" standalone="no"?>
<!-- Created with Inkscape (http://www.inkscape.org/) -->

<svg
   width="210mm"
   height="297mm"
   viewBox="0 0 210 297"
   version="1.1"
   id="svg1513"
   inkscape:version="1.1 (c68e22c387, 2021-05-23)"
   sodipodi:docname="Wolf2.svg"
   xmlns:inkscape="http://www.inkscape.org/namespaces/inkscape"
   xmlns:sodipodi="http://sodipodi.sourceforge.net/DTD/sodipodi-0.dtd"
   xmlns="http://www.w3.org/2000/svg"
   xmlns:svg="http://www.w3.org/2000/svg">
  <sodipodi:namedview
     id="namedview1515"
     pagecolor="#ffffff"
     bordercolor="#666666"
     borderopacity="1.0"
     inkscape:pageshadow="2"
     inkscape:pageopacity="0.0"
     inkscape:pagecheckerboard="0"
     inkscape:document-units="mm"
     showgrid="false"
     inkscape:zoom="0.69397447"
     inkscape:cx="376.09453"
     inkscape:cy="561.25984"
     inkscape:window-width="1920"
     inkscape:window-height="1017"
     inkscape:window-x="-8"
     inkscape:window-y="-8"
     inkscape:window-maximized="1"
     inkscape:current-layer="layer1" />
  <defs
     id="defs1510" />
  <g
     inkscape:label="Ebene 1"
     inkscape:groupmode="layer"
     id="layer1">
    <path
       style="fill:#000000;stroke-width:1"
       d="m 103.31951,158.03443 c -0.26241,-0.61119 -0.89784,-1.92826 -1.41207,-2.92683 -0.51424,-0.99857 -0.93498,-1.86881 -0.93498,-1.93386 0,-0.20049 -0.81187,-1.80742 -1.210233,-2.39539 -0.67498,-0.99625 -0.74753,-1.09147 -1.63577,-2.14695 -0.48263,-0.5735 -0.91126,-1.04184 -0.9525,-1.04078 -0.26325,0.007 -0.38953,0.30269 -0.46143,1.08108 -0.08,0.86562 -0.35622,2.15653 -0.56999,2.66348 -0.0589,0.1397 -0.14416,0.38584 -0.18944,0.54697 -0.0514,0.18291 -0.1616,0.27771 -0.29333,0.25234 -0.34051,-0.0656 -0.65085,-0.83415 -1.37399,-3.40281 -0.66057,-2.34636 -0.69532,-2.413 -1.25853,-2.413 -0.65579,0 -1.19879,0.56363 -1.19879,1.24436 0,0.66144 -0.13139,1.29564 -0.26842,1.29564 -0.26545,0 -1.5985,-1.22831 -2.13634,-1.9685 -0.63783,-0.87778 -0.85273,-1.43603 -1.20999,-3.14325 -0.11626,-0.55557 -0.27882,-0.41224 -0.56442,0.49764 -0.19027,0.60619 -0.26583,1.18371 -0.26583,2.032 0,0.97324 -0.0344,1.18511 -0.19213,1.18511 -0.21154,0 -0.90103,-1.32238 -1.26427,-2.42477 -0.12445,-0.3777 -0.30487,-0.91724 -0.40094,-1.19898 -0.0961,-0.28173 -0.17466,-0.703 -0.17466,-0.93614 0,-0.35991 -0.14857,-0.57158 -0.98425,-1.40222 -1.18464,-1.17751 -2.76806,-2.38465 -3.34503,-2.55013 -0.35618,-0.10215 -0.46519,-0.0783 -0.71475,0.15611 -0.34208,0.32137 -0.92497,1.49403 -0.92497,1.86088 0,0.32041 -0.12651,0.65325 -0.2483,0.65325 -0.10326,0 -0.40521,-0.66699 -0.66117,-1.4605 -0.22516,-0.69802 -0.19283,-2.65431 0.0556,-3.3655 0.42512,-1.21694 0.64525,-1.58971 1.36202,-2.30648 0.68193,-0.68192 0.7191,-0.74741 0.46108,-0.81217 -0.38824,-0.0974 -0.73791,0.0589 -1.98524,0.88745 -1.07702,0.71545 -1.50042,0.90556 -1.79679,0.80677 -0.328,-0.10933 -0.006,-2.49713 0.49253,-3.65557 0.10527,-0.24447 0.27787,-0.64452 0.38356,-0.889 0.18383,-0.42521 1.6883,-2.73969 2.24329,-3.45106 1.08639,-1.39253 1.79211,-2.62089 1.61219,-2.80615 -0.0522,-0.0537 -0.34101,-0.0109 -0.64181,0.0952 -0.3008,0.10613 -0.6798,0.19296 -0.84224,0.19296 -0.9358,0 -2.52089,0.67675 -3.03918,1.29756 -0.79806,0.95593 -1.07246,0.76388 -0.998,-0.69848 0.0549,-1.0785 0.0808,-1.20408 0.55564,-2.69458 0.27458,-0.86194 1.20835,-2.86442 1.5893,-3.40831 0.53937,-0.77006 -0.12618,-0.58359 -1.92655,0.53976 -0.47966,0.29929 -1.66809,1.26916 -2.23111,1.8208 -0.39238,0.38446 -0.60014,0.28464 -0.52866,-0.254 0.19625,-1.47891 1.17377,-3.92498 2.1457,-5.36927 0.24317,-0.36135 0.44213,-0.67971 0.44213,-0.70747 0,-0.0278 0.40005,-0.70398 0.889,-1.50271 0.92165,-1.50556 1.10609,-2.06332 0.63263,-1.91305 -0.24978,0.0793 -1.81304,1.05679 -2.11952,1.32534 -0.16013,0.14032 -0.58214,0.18205 -0.69542,0.0688 -0.0361,-0.0361 0.0705,-0.5076 0.2368,-1.04775 0.16635,-0.54016 0.4772,-1.55361 0.69078,-2.25211 1.14483,-3.74403 1.93571,-5.44703 4.09902,-8.8265 0.38007,-0.59372 0.96299,-1.593848 1.29538,-2.222498 0.54515,-1.031041 0.60958,-1.24252 0.65777,-2.159 0.0559,-1.062479 -0.10149,-2.640618 -0.42418,-4.2545 -0.10475,-0.523875 -0.24039,-1.323975 -0.30142,-1.778 -0.061,-0.454025 -0.1687,-1.11125 -0.23927,-1.4605 -0.45583,-2.256133 -0.63445,-8.906795 -0.29845,-11.112499 0.38851,-2.550424 1.08299,-4.304084 2.15786,-5.44897 l 0.62584,-0.666605 1.06384,0.05431 c 1.34723,0.06878 2.00184,0.237156 2.90534,0.747307 0.10478,0.05916 0.32753,0.166372 0.495,0.238247 1.22217,0.524518 3.97916,3.464447 6.4265,6.852937 0.91952,1.273129 2.21451,2.637955 2.96012,3.119745 l 0.54711,0.353531 6.437893,0.0051 6.43789,0.0051 0.5715,-0.35747 c 0.84202,-0.526679 2.11211,-1.921834 3.51835,-3.864792 1.88378,-2.60277 4.01233,-4.893689 5.41572,-5.828834 1.16669,-0.777415 2.76347,-1.305541 3.9473,-1.305541 h 0.9028 l 0.65103,0.640873 c 0.56135,0.552592 1.1394,1.502742 1.58034,2.597627 0.45488,1.12951 0.79546,4.02333 0.79219,6.731 -0.004,3.379897 -0.25452,6.244906 -0.79931,9.143999 -0.68406,3.640232 -0.85098,5.209196 -0.64984,6.108002 0.18442,0.824062 0.46097,1.47616 0.86567,2.041226 0.15716,0.219441 0.28575,0.457515 0.28575,0.529055 0,0.07154 0.0714,0.20801 0.15875,0.30326 0.0873,0.0953 0.22671,0.28507 0.30977,0.42182 0.0831,0.13675 0.66044,1.07731 1.28305,2.09013 0.6226,1.01283 1.23002,2.0701 1.34981,2.3495 0.11979,0.2794 0.2695,0.6223 0.3327,0.762 0.46804,1.03458 1.89923,5.3046 1.89967,5.66774 1.2e-4,0.11371 0.0782,0.39946 0.17353,0.635 0.0953,0.23554 0.20818,0.614 0.25082,0.84101 0.11277,0.60022 -0.16869,0.54397 -1.3766,-0.27511 -1.03517,-0.70195 -1.7145,-0.98745 -1.7145,-0.72057 0,0.19122 0.60773,1.37651 0.95005,1.85293 0.24024,0.33436 1.39718,2.2146 1.79733,2.92101 1.08927,1.92295 2.01937,4.86408 1.65381,5.22964 -0.0523,0.0523 -0.28062,-0.10283 -0.50734,-0.34476 -0.47064,-0.5022 -1.57436,-1.43229 -1.78453,-1.50379 -0.0774,-0.0264 -0.25512,-0.14713 -0.39482,-0.26838 -0.61511,-0.5339 -2.21347,-1.24196 -2.07434,-0.91892 0.0233,0.0541 0.33511,0.66843 0.69295,1.36525 1.45551,2.83434 2.19098,6.41046 1.31839,6.41046 -0.13675,0 -0.34221,-0.14279 -0.45656,-0.31732 -0.35355,-0.53957 -1.33995,-1.15252 -2.21094,-1.37386 -1.09307,-0.27777 -2.5367,-0.51346 -2.62209,-0.42807 -0.10552,0.10552 0.7601,1.52358 1.91385,3.13525 1.19479,1.66901 1.84536,2.72202 2.23963,3.62507 0.40403,0.92541 0.7514,2.43122 0.75311,3.26468 0.001,0.67831 -0.0193,0.73025 -0.29135,0.73025 -0.16106,0 -0.72395,-0.28019 -1.25086,-0.62265 -1.42934,-0.92899 -1.99015,-1.18844 -2.36532,-1.09428 -0.31974,0.0803 -0.31612,0.0878 0.30045,0.62761 1.11474,0.97596 1.92016,3.1438 1.77634,4.78109 -0.0645,0.73458 -0.67478,2.53123 -0.85976,2.53123 -0.0534,0 -0.13028,-0.15716 -0.17076,-0.34925 -0.0405,-0.19209 -0.12728,-0.44849 -0.19291,-0.56978 -0.0656,-0.12129 -0.11933,-0.28119 -0.11933,-0.35535 0,-0.27027 -0.8914,-1.51962 -1.08423,-1.51962 -0.52269,0 -2.02093,1.08869 -3.58302,2.6036 -0.87043,0.84413 -1.04775,1.08302 -1.04775,1.41152 0,0.83559 -1.53956,4.7264 -1.8415,4.65388 -0.0699,-0.0168 -0.16053,-0.64543 -0.20151,-1.397 -0.13009,-2.38581 -0.68192,-3.33692 -0.99817,-1.7204 -0.31342,1.6021 -1.10706,2.84247 -2.65197,4.14473 -0.6277,0.52911 -0.78281,0.39017 -0.78943,-0.70709 -0.008,-1.29593 -0.186,-2.61775 -0.42893,-3.1819 -0.17043,-0.39578 -0.24521,-0.45835 -0.42976,-0.35958 -0.22889,0.1225 -0.63213,1.02825 -0.91055,2.04524 -0.0861,0.31433 -0.23379,0.8001 -0.32832,1.0795 -0.0945,0.2794 -0.29568,0.99378 -0.447,1.5875 -0.30084,1.18042 -0.84814,2.76531 -1.04159,3.01625 -0.0673,0.0873 -0.19334,0.15875 -0.28007,0.15875 -0.28493,0 -0.74676,-1.54194 -1.06507,-3.556 -0.30092,-1.90405 -0.40249,-1.56855 0.90554,-2.99109 1.62112,-1.76305 2.8189,-3.10446 3.90646,-4.37491 0.50825,-0.59372 1.22455,-1.39382 1.59178,-1.778 0.75778,-0.79276 4.14999,-4.6721 5.00202,-5.72032 0.30989,-0.38125 0.83228,-0.9574 1.16087,-1.28034 0.7535,-0.74053 0.79755,-0.96573 0.81669,-4.17534 0.009,-1.53704 0.0722,-2.64968 0.16616,-2.93303 0.15475,-0.46663 0.60672,-0.78763 1.31461,-0.93366 0.20022,-0.0413 0.44487,-0.24158 0.59824,-0.48973 0.26551,-0.42961 0.59274,-2.09608 0.48927,-2.49174 -0.0316,-0.12101 -0.0137,-0.74909 0.0399,-1.39573 0.12387,-1.49532 0.34138,-1.78911 1.32461,-1.78911 0.35803,0 0.71955,-0.0686 0.80337,-0.1524 0.0838,-0.0838 0.15103,-0.44101 0.14937,-0.79375 -0.003,-0.64148 -0.0681,-0.97519 -0.42234,-2.16535 -0.62219,-2.09052 -0.72658,-2.56583 -0.69183,-3.15003 0.0396,-0.6654 0.13293,-0.77494 0.77632,-0.91092 1.25623,-0.26551 1.01445,-4.63534 -0.4534,-8.19455 -0.21605,-0.52387 -0.52577,-1.16568 -0.68827,-1.42623 -0.1625,-0.26055 -0.29545,-0.52688 -0.29545,-0.59184 0,-0.065 -0.21864,-0.39472 -0.48586,-0.73278 -0.48896,-0.618587 -0.6584,-0.899786 -1.17282,-1.946454 -0.25824,-0.525414 -0.27479,-0.69854 -0.2125,-2.2225 0.0372,-0.908984 0.12694,-1.909874 0.19951,-2.224199 0.0726,-0.314325 0.21938,-1.000125 0.32624,-1.524 0.10685,-0.523875 0.27591,-1.35255 0.37566,-1.8415 0.53893,-2.641445 0.63519,-3.535511 0.46491,-4.318 -0.076,-0.34925 -0.18757,-1.006475 -0.24792,-1.4605 -0.0604,-0.454024 -0.16963,-1.082674 -0.24284,-1.396999 -0.0732,-0.314325 -0.22405,-1.20015 -0.3352,-1.9685 -0.25595,-1.769268 -0.4303,-2.861456 -0.59804,-3.7465 -0.0728,-0.384175 -0.17531,-0.955675 -0.22777,-1.27 -0.4377,-2.622674 -1.21516,-3.515989 -2.45928,-2.82575 -0.97791,0.542545 -2.86755,2.122319 -6.04536,5.054039 -0.45773,0.422283 -1.00059,0.908058 -1.20635,1.0795 -0.20577,0.171441 -0.5201,0.452653 -0.6985,0.624916 -0.34351,0.331669 -1.77344,1.582897 -3.66934,3.210754 -0.96698,0.830272 -1.28396,1.207163 -2.02944,2.413 -0.48591,0.785972 -1.07565,1.800515 -1.31054,2.25454 -0.23488,0.454025 -0.47097,0.858094 -0.52464,0.89793 -0.0537,0.03984 -0.14968,0.254148 -0.21338,0.47625 -0.10748,0.374753 -0.0936,0.40382 0.19282,0.40382 0.16975,0 0.30864,-0.04415 0.30864,-0.09812 0,-0.117709 0.86775,-0.600456 0.94338,-0.524824 0.0291,0.02908 -0.42846,0.549597 -1.01675,1.156704 -0.99159,1.023295 -1.3337,1.632136 -0.91088,1.621094 0.19905,-0.0052 1.37144,-0.410121 1.59594,-0.551212 0.39829,-0.250301 0.28095,0.09338 -0.19162,0.561275 -0.28333,0.280522 -0.66862,0.805855 -0.8562,1.167406 -0.29409,0.56686 -0.35042,0.85919 -0.40911,2.123271 -0.071,1.529104 0.0629,3.291165 0.40581,5.339409 0.11109,0.66357 0.24973,1.49225 0.3081,1.8415 0.0584,0.34925 0.16419,0.89218 0.23516,1.2065 0.071,0.31433 0.22289,1.05728 0.33761,1.651 0.11471,0.59373 0.29092,1.45915 0.39156,1.92317 0.23059,1.06311 0.23101,1.49624 0.002,1.74983 -0.27321,0.30213 -0.96169,1.74073 -0.96169,2.00948 0,0.12965 -0.0714,0.30716 -0.15875,0.39448 -0.10512,0.10512 -0.15644,0.55352 -0.1519,1.32715 0.007,1.2365 0.167,1.70059 1.05735,3.07161 0.46429,0.71495 0.76793,1.35752 0.77299,1.63584 0.003,0.18918 -0.0534,0.21834 -0.28144,0.14434 -0.15717,-0.051 -0.51435,-0.12194 -0.79375,-0.15765 -0.2794,-0.0357 -0.62073,-0.14351 -0.75851,-0.23958 -0.19532,-0.13618 -0.90918,-0.17467 -3.23997,-0.17467 -2.73848,0 -3.09063,0.0256 -4.194493,0.30541 -0.66277,0.16798 -1.22352,0.28761 -1.24611,0.26585 -0.0668,-0.0643 0.63182,-1.49133 0.93248,-1.90476 0.48426,-0.66587 0.843463,-1.56466 0.981353,-2.45551 0.16453,-1.06293 -0.0227,-1.81234 -0.880283,-3.52338 -0.54263,-1.08268 -0.57241,-1.19482 -0.48885,-1.8415 0.0489,-0.37873 0.1373,-0.88863 0.19637,-1.13311 0.0992,-0.41037 0.24927,-1.16097 0.698523,-3.4925 0.0942,-0.48895 0.23852,-1.20332 0.32068,-1.5875 0.0822,-0.38418 0.19867,-1.12713 0.2589,-1.651003 0.0602,-0.523875 0.16535,-1.4097 0.23361,-1.9685 0.27962,-2.289212 0.1051,-4.183612 -0.47297,-5.134179 -0.13102,-0.215437 -0.478963,-0.648566 -0.773213,-0.962512 -0.29426,-0.313945 -0.51677,-0.570809 -0.49447,-0.570809 0.0223,0 0.35405,0.121403 0.73724,0.269784 0.856583,0.331691 1.311383,0.367921 1.363663,0.108631 0.0214,-0.106197 -0.45326,-0.720559 -1.05484,-1.36525 -1.059663,-1.135606 -1.216973,-1.506148 -0.362833,-0.854665 0.477353,0.36409 0.814213,0.410427 0.814213,0.111999 0,-0.505283 -2.491923,-4.696848 -3.235783,-5.442774 -0.71503,-0.717023 -1.59093,-1.463724 -1.71699,-1.463724 -0.0583,0 -0.12511,-0.04581 -0.1484,-0.101797 -0.0233,-0.05599 -0.77739,-0.748192 -1.67581,-1.538228 -0.89841,-0.790037 -1.72942,-1.530041 -1.84668,-1.644453 -0.11727,-0.114412 -0.66628,-0.608072 -1.22003,-1.097022 -0.55375,-0.48895 -1.38114,-1.2319 -1.83864,-1.651 -0.4575,-0.4191 -1.13949,-1.019175 -1.51553,-1.3335 -0.37603,-0.314325 -0.77604,-0.657225 -0.88891,-0.762 -0.89722,-0.832926 -1.89378,-1.397 -2.46811,-1.397 -0.36058,0 -0.511,0.08216 -0.75568,0.41275 -0.30541,0.412638 -0.62675,1.289835 -0.77928,2.12725 -0.0445,0.244475 -0.13136,0.6731 -0.19296,0.9525 -0.11875,0.538645 -0.37477,2.145809 -0.70809,4.445 -0.11139,0.76835 -0.25123,1.597025 -0.31077,1.8415 -0.0595,0.244475 -0.14551,0.758825 -0.19106,1.143 -0.0455,0.384174 -0.16241,1.136185 -0.25968,1.671134 -0.19012,1.045498 -0.13139,1.916118 0.25994,3.853365 0.11287,0.5588 0.25188,1.30175 0.3089,1.651 0.057,0.34925 0.16322,0.8636 0.236,1.143 0.43213,1.658837 0.67074,4.30364 0.47999,5.320383 -0.0474,0.252847 -0.44077,0.991742 -0.87408,1.641986 -0.43332,0.650244 -0.85909,1.292824 -0.94616,1.427944 -0.33852,0.52534 -1.27892,2.56352 -1.4611,3.16669 -0.84025,2.78209 -1.07885,5.22726 -0.62551,6.41027 0.18803,0.49066 0.29549,0.59546 0.78684,0.76737 l 0.56908,0.1991 -0.005,0.82013 c -0.005,0.72291 -0.24329,1.76411 -0.71198,3.10613 -0.0732,0.20955 -0.2108,0.83762 -0.30581,1.39571 -0.22977,1.34962 -0.1108,1.55981 0.91362,1.61417 0.61804,0.0328 0.75591,0.0882 0.9855,0.39635 0.23386,0.31385 0.27646,0.59701 0.34388,2.286 0.0423,1.06027 0.14135,2.1278 0.22004,2.37227 0.18635,0.57894 0.71779,1.143 1.07689,1.143 0.15625,0 0.41715,0.0932 0.57977,0.2071 0.5597,0.39202 0.64985,0.8728 0.64985,3.46557 0,3.02314 0.10717,3.58687 0.81079,4.26483 0.28998,0.2794 0.83876,0.87948 1.21951,1.33349 0.71062,0.84738 3.09,3.57826 3.4307,3.93751 0.10477,0.11048 0.50482,0.56472 0.889,1.00944 0.38417,0.4447 1.01868,1.15663 1.41001,1.58206 0.39133,0.42542 0.90568,0.9985 1.143,1.27349 0.23732,0.275 0.54579,0.61926 0.68549,0.76503 0.1397,0.14576 0.62547,0.6891 1.0795,1.20741 1.35587,1.54786 2.06236,2.32333 2.63458,2.89184 0.80533,0.8001 2.56306,1.62752 4.731413,2.22723 1.18306,0.3272 4.27986,0.39127 5.20701,0.10772 1.27801,-0.39085 1.99634,-0.64904 2.52052,-0.90595 0.30361,-0.1488 0.57402,-0.24855 0.60092,-0.22166 0.0269,0.0269 -0.23249,0.38168 -0.57639,0.78842 -0.61169,0.72344 -1.65594,2.67785 -1.83532,3.43497 -0.13407,0.56589 -0.40921,1.18943 -1.48505,3.3655 -0.53527,1.08268 -1.15901,2.41141 -1.3861,2.95275 -0.22709,0.54134 -0.45553,0.98425 -0.50766,0.98425 -0.0521,0 -0.30948,-0.50006 -0.57188,-1.11125 z m -6.629863,-13.71356 c -0.61308,-0.62935 -1.46891,-1.45172 -1.90185,-1.82748 -0.5523,-0.47937 -0.92161,-0.94147 -1.23779,-1.54881 -0.86073,-1.65334 -2.47714,-3.67701 -3.05232,-3.82137 -0.2105,-0.0528 -0.34182,-0.19562 -0.39246,-0.42671 -0.11538,-0.52657 -0.5894,-2.09999 -0.69769,-2.31582 -0.0526,-0.10477 -0.28307,-0.6477 -0.51223,-1.2065 -0.22917,-0.5588 -0.49163,-1.12873 -0.58326,-1.26651 -0.0916,-0.13778 -0.16659,-0.35209 -0.16659,-0.47625 0,-0.135 -0.0945,-0.22574 -0.23502,-0.22574 -0.20968,0 -0.2314,0.0967 -0.20136,0.89596 0.0373,0.99272 -0.0738,1.07673 -0.5314,0.40166 -0.46033,-0.67919 -0.97916,-2.56847 -1.14211,-4.15893 -0.0693,-0.6768 -0.053,-0.84414 0.0783,-0.80039 0.0913,0.0304 0.23341,0.28096 0.31586,0.55676 0.23958,0.8014 0.64865,1.50775 1.31252,2.2664 0.36797,0.42051 0.96408,1.39243 1.47175,2.39963 0.46931,0.93108 1.07475,1.97514 1.34544,2.32014 0.27068,0.345 1.04404,1.37022 1.71857,2.27827 0.67453,0.90805 1.4413,1.8796 1.70392,2.159 0.26263,0.2794 0.6893,0.8509 0.94816,1.27 0.25885,0.4191 0.53842,0.87109 0.62127,1.00442 0.0828,0.13333 0.65418,0.98232 1.26964,1.88665 0.61546,0.90433 1.08849,1.67476 1.05118,1.71207 -0.0373,0.0373 -0.56944,-0.4471 -1.18251,-1.07645 z m 13.426823,0.76494 c 0,-0.0711 0.44714,-0.8086 0.99365,-1.63893 1.07774,-1.63746 1.90162,-2.93823 2.14441,-3.38569 0.0845,-0.15565 0.37456,-0.48303 0.64467,-0.72751 0.27011,-0.24447 1.02968,-1.18305 1.68794,-2.08572 0.65825,-0.90268 1.37562,-1.84565 1.59415,-2.0955 0.21852,-0.24985 0.81443,-1.26861 1.32423,-2.26391 0.54775,-1.06937 1.16969,-2.08242 1.52039,-2.4765 0.71001,-0.79782 0.96595,-1.26606 1.33636,-2.44487 0.26168,-0.83275 0.28559,-0.86553 0.37798,-0.51809 0.0559,0.21016 0.0309,0.76055 -0.0575,1.27 -0.0859,0.4945 -0.19888,1.15627 -0.25109,1.47059 -0.11302,0.68056 -0.72199,2.23303 -1.03366,2.63515 -0.19168,0.24731 -0.23208,0.25781 -0.301,0.0782 -0.0438,-0.11409 -0.0436,-0.39942 3.8e-4,-0.63406 0.10283,-0.54789 -0.027,-1.06329 -0.26779,-1.06329 -0.10345,0 -0.18808,0.0532 -0.18808,0.11814 0,0.0991 -0.30363,0.81348 -0.89436,2.10436 -0.26221,0.57301 -0.88364,2.29166 -0.88364,2.44385 0,0.46857 -0.33747,1.19128 -0.58543,1.25375 -0.4021,0.10129 -1.32102,1.11555 -2.17297,2.3984 -0.41749,0.62865 -0.79856,1.22873 -0.84682,1.3335 -0.23732,0.51523 -0.51487,0.83372 -2.00016,2.29527 -1.97978,1.94812 -2.14162,2.09419 -2.14162,1.93286 z m -6.80349,-0.83088 c -0.33083,-0.39119 -0.68177,-1.09463 -1.40974,-2.82575 -0.68697,-1.63363 -1.35479,-2.85905 -1.947123,-3.57289 -0.34006,-0.40981 -0.96801,-1.24517 -1.39545,-1.85636 -0.42744,-0.61119 -0.85536,-1.11125 -0.95093,-1.11125 -0.12643,0 -0.17061,0.18163 -0.16216,0.66675 0.006,0.36671 -0.0321,1.28111 -0.0855,2.032 -0.0748,1.05164 -0.13866,1.36525 -0.27809,1.36525 -0.26703,0 -0.39142,-0.40956 -0.61292,-2.018 -0.15004,-1.08955 -0.29807,-1.64734 -0.59987,-2.26039 -0.4786,-0.97218 -0.60903,-0.88069 -0.61182,0.42915 -0.002,0.89274 -0.16977,1.30071 -0.34606,0.84104 -0.0486,-0.12666 -0.33635,-0.5732 -0.63949,-0.9923 -0.82967,-1.14705 -1.81039,-2.63957 -1.81039,-2.75515 0,-0.16343 0.0805,-0.12895 0.85372,0.36569 0.58929,0.37696 0.86489,0.47201 1.4163,0.48847 0.65679,0.0196 0.70151,0.0437 1.09959,0.59225 0.22823,0.31449 0.56424,0.68923 0.74669,0.83274 0.35439,0.27877 0.8367,0.25179 0.8367,-0.0468 0,-0.26205 0.0868,-0.22666 0.94329,0.38451 0.80004,0.57089 3.770813,2.1068 4.075013,2.1068 0.0921,0 0.18658,0.0429 0.20986,0.0953 0.0233,0.0524 0.31293,0.22742 0.64366,0.38895 l 0.60133,0.2937 2.4574,-1.21587 c 1.35156,-0.66873 2.76291,-1.44383 3.13635,-1.72245 0.74065,-0.5526 0.88711,-0.60478 0.88711,-0.31608 0,0.18918 0.14258,0.24396 0.50799,0.19515 0.26638,-0.0356 0.94529,-0.70963 1.21022,-1.20155 0.21031,-0.39052 0.25923,-0.41177 0.94823,-0.41177 0.60794,0 0.82524,-0.0667 1.3317,-0.40845 1.04211,-0.70331 1.05367,-0.4583 0.0473,1.00112 -0.50577,0.73343 -0.95138,1.36208 -0.99025,1.397 -0.11625,0.10446 -0.37973,0.55036 -0.52277,0.8847 -0.20919,0.48898 -0.36918,0.0902 -0.37146,-0.92576 -0.002,-0.73515 -0.0336,-0.86034 -0.21057,-0.8255 -0.46681,0.0919 -0.92022,1.50419 -1.13341,3.53037 -0.0476,0.45227 -0.17141,0.95184 -0.27513,1.11016 -0.35179,0.53689 -0.36736,0.46967 -0.62363,-2.69447 -0.0453,-0.5588 -0.14051,-1.05377 -0.21168,-1.09993 -0.0712,-0.0462 -0.36284,0.26816 -0.64819,0.6985 -0.28534,0.43034 -0.67968,0.95388 -0.87631,1.16343 -1.07445,1.14506 -2.37888,3.44843 -3.12859,5.5245 -0.39041,1.08109 -1.2298,2.286 -1.59253,2.286 -0.0931,0 -0.32641,-0.18574 -0.51839,-0.41275 z m -2.49587,-12.22883 c -0.80636,-0.22052 -1.622653,-0.58864 -1.622653,-0.73175 0,-0.11596 0.25243,-0.0899 1.460503,0.15071 0.80658,0.16065 5.50868,0.16546 6.35001,0.006 1.30998,-0.24752 1.5875,-0.27627 1.5875,-0.16447 0,0.19052 -0.77507,0.53803 -1.651,0.74026 -1.05584,0.24376 -5.23161,0.24292 -6.12436,-0.001 z m 0.79035,-1.92236 c -0.17462,-0.0283 -0.70182,-0.13512 -1.17154,-0.2375 -0.469733,-0.10238 -1.457393,-0.26474 -2.194813,-0.36082 -1.20521,-0.15701 -1.37173,-0.21072 -1.64714,-0.53124 -0.37596,-0.43753 -0.61574,-0.92414 -1.12198,-2.277 -0.10455,-0.2794 -0.43105,-0.76517 -0.72555,-1.0795 -1.4891,-1.58931 -1.88964,-2.45505 -1.40009,-3.0262 0.41382,-0.48281 0.64114,-0.30869 1.04928,0.8037 0.20502,0.5588 0.40658,1.1303 0.4479,1.27 0.0413,0.1397 0.20851,0.46718 0.37153,0.72773 0.16302,0.26055 0.2964,0.56493 0.2964,0.67639 0,0.22269 0.97428,1.54065 1.4976,2.0259 0.18171,0.16849 0.61016,0.4515 0.95211,0.62892 0.51712,0.26829 0.79606,0.32254 1.65777,0.32246 1.024613,-1e-4 2.046103,-0.26067 2.396823,-0.61139 0.19613,-0.19613 0.003,-0.38954 -0.8528,-0.8545 -0.85821,-0.46622 -2.078893,-1.28578 -2.521593,-1.69298 -0.6,-0.55189 -1.00663,-1.59467 -1.02151,-2.61953 -0.0228,-1.57417 0.58697,-2.56273 2.0374,-3.30282 0.978313,-0.49919 2.162483,-0.69768 4.162253,-0.69768 2.75884,0 4.07918,0.33429 5.23798,1.32618 0.76296,0.65307 1.05899,1.36912 1.05887,2.56123 -1.2e-4,1.82097 -0.76007,2.88268 -2.92089,4.08104 -1.37113,0.76041 -1.52241,0.85985 -1.5232,1.00125 -0.002,0.40356 1.21984,0.8093 2.43766,0.8093 1.11461,0 1.83123,-0.25033 2.56768,-0.89695 0.63237,-0.55522 1.59786,-1.82392 1.59786,-2.09965 0,-0.12205 0.0752,-0.31212 0.1672,-0.4224 0.21834,-0.26183 0.78136,-1.65678 1.04203,-2.58175 0.17429,-0.61846 0.25063,-0.73025 0.49873,-0.73025 0.33653,0 0.51033,0.18018 0.62058,0.6434 0.12233,0.51394 -0.55584,1.62012 -1.70134,2.77511 -0.17891,0.1804 -0.36286,0.428 -0.40876,0.55024 -0.0459,0.12224 -0.14242,0.22225 -0.21446,0.22225 -0.072,0 -0.13098,0.1359 -0.13098,0.30199 0,0.41227 -0.53599,1.74717 -0.8255,2.05597 -0.33409,0.35633 -0.84075,0.5423 -1.6923,0.62116 -0.51167,0.0474 -1.31177,0.1731 -1.778,0.27939 -0.46624,0.10628 -1.13345,0.2411 -1.4827,0.2996 -0.63632,0.10657 -4.16596,0.13544 -4.76251,0.0389 z m -11.303003,-6.73786 c -0.52197,-0.0957 -2.04681,-0.84332 -2.794,-1.36989 -0.93396,-0.6582 -2.18273,-1.92675 -3.1472,-3.19706 -0.43439,-0.57214 -0.7898,-1.07767 -0.7898,-1.1234 0,-0.0457 -0.10692,-0.23484 -0.23761,-0.42024 -0.49278,-0.69911 -1.54039,-2.94377 -1.54039,-3.30052 0,-0.12336 -0.0545,-0.27878 -0.12108,-0.34538 -0.0666,-0.0666 -0.20812,-0.78495 -0.31448,-1.59634 -0.16864,-1.28643 -0.17053,-1.60525 -0.0148,-2.49099 0.2586,-1.47086 0.79997,-2.57182 1.69554,-3.44814 0.40935,-0.40054 1.01275,-0.85446 1.34089,-1.00871 0.63071,-0.29647 0.65711,-0.338 1.10347,-1.73603 0.25595,-0.80166 0.42014,-1.14376 0.81797,-1.70436 0.33296,-0.46919 1.44451,-1.44558 1.8425,-1.61847 1.04986,-0.456061 1.74257,-0.591138 3.048,-0.594355 1.32142,-0.0033 2.76259,0.264887 2.70167,0.502674 -0.0159,0.06188 -0.44447,0.150721 -0.9525,0.197421 -2.44497,0.22473 -3.67445,0.82084 -5.23508,2.53819 -0.10501,0.11555 -0.3562,0.57275 -0.55821,1.016 -1.23494,2.7098 -0.93078,5.75385 0.94806,9.48822 0.6852,1.3619 1.29271,2.27904 2.7574,4.16273 0.30364,0.39051 0.10764,0.38072 -0.74599,-0.0373 -0.71185,-0.34856 -1.44387,-1.04384 -2.25286,-2.13979 -0.2578,-0.34925 -0.51525,-0.69215 -0.57212,-0.762 -0.22839,-0.28055 -1.19608,-2.43511 -1.426,-3.175 -0.0868,-0.2794 -0.20733,-0.63846 -0.26779,-0.79791 -0.18968,-0.50024 -0.48083,-2.04684 -0.56948,-3.02512 -0.0468,-0.51671 -0.13024,-0.93947 -0.18537,-0.93947 -0.17137,0 -0.83315,0.87703 -1.18123,1.56544 -0.18273,0.36139 -0.42585,0.99996 -0.54028,1.41906 -0.23009,0.84268 -0.26992,2.72201 -0.0719,3.39206 0.55905,1.8917 0.65683,2.14765 1.3374,3.50077 1.10722,2.20137 4.00993,5.18375 6.28985,6.46246 0.59046,0.33117 0.76204,0.48358 0.635,0.56405 -0.1809,0.1146 -0.45864,0.12053 -0.99957,0.0214 z m 26.106193,-0.0218 c -0.0389,-0.063 0.13923,-0.24875 0.39594,-0.41275 0.2567,-0.164 0.73298,-0.46963 1.05838,-0.67918 0.83851,-0.53997 2.24638,-1.70775 2.93147,-2.43155 0.50732,-0.53599 0.88988,-1.00189 1.93122,-2.35195 0.34479,-0.44701 1.41318,-2.62337 1.64183,-3.3445 0.88284,-2.78432 0.6002,-5.0919 -0.86893,-7.09425 -0.24909,-0.33949 -0.49551,-0.56809 -0.5476,-0.508 -0.0521,0.0601 -0.19698,0.79505 -0.32196,1.63325 -0.51075,3.42529 -1.9568,6.46633 -3.98191,8.37392 -0.55605,0.52378 -1.46801,1.07749 -1.78536,1.084 -0.20314,0.004 -0.23251,0.0496 0.96799,-1.4981 0.43656,-0.56283 0.79375,-1.08385 0.79375,-1.15782 0,-0.074 0.0537,-0.1345 0.11941,-0.1345 0.13986,0 1.54643,-2.84878 1.81846,-3.683 0.1025,-0.31432 0.24881,-0.76372 0.32515,-0.99865 0.0763,-0.23494 0.23609,-1.07443 0.35501,-1.86554 0.20489,-1.36302 0.20452,-1.50034 -0.007,-2.62084 -0.31757,-1.68194 -0.88504,-2.80964 -1.87507,-3.72623 -0.43702,-0.4046 -1.10144,-0.87613 -1.47648,-1.04783 -0.94511,-0.43269 -2.45195,-0.78991 -3.33202,-0.78991 -0.40613,0 -0.77381,-0.0573 -0.81706,-0.127235 -0.309,-0.499977 3.79528,-0.74954 5.08297,-0.309074 1.06556,0.364489 2.27421,1.245739 2.65619,1.936679 0.49939,0.90334 0.92657,1.91247 0.99781,2.35713 0.0965,0.60211 0.34196,0.88665 1.08358,1.25593 0.79678,0.39675 1.88706,1.51874 2.23251,2.29746 0.6359,1.43348 0.64719,1.49172 0.64349,3.32061 -0.003,1.60154 -0.039,1.88514 -0.35996,2.8575 -0.196,0.59373 -0.43115,1.25095 -0.52256,1.4605 -0.0914,0.20955 -0.20052,0.46673 -0.24248,0.5715 -0.042,0.10478 -0.12968,0.27623 -0.19493,0.381 -0.0653,0.10478 -0.15359,0.27623 -0.19629,0.381 -0.14775,0.36249 -0.98356,1.65692 -1.55516,2.40848 -1.07158,1.40896 -2.82433,3.02598 -3.97735,3.66936 -1.18996,0.66399 -2.789,1.09029 -2.97299,0.79259 z M 94.269137,117.9659 c 0.0604,-2.12247 0.2744,-2.89751 1.30626,-4.73075 0.59818,-1.06276 1.13819,-2.13861 1.63515,-3.25769 0.56325,-1.26837 -0.0269,-2.71682 -1.31809,-3.23482 -2.06066,-0.82673 -2.44317,-0.99647 -2.66012,-1.1804 -0.13045,-0.1106 -0.35974,-0.28681 -0.50952,-0.39159 -0.34151,-0.23889 -1.02136,-1.28393 -1.02136,-1.57001 0,-0.11785 0.12859,-0.27086 0.28575,-0.34002 0.15717,-0.0692 0.4572,-0.23501 0.66675,-0.36857 0.44068,-0.28087 1.03052,-0.36484 0.69268,-0.0986 -0.64427,0.5077 -0.81045,1.35051 -0.37535,1.90364 0.5374,0.6832 2.43157,0.50601 2.62008,-0.2451 0.0997,-0.39739 -0.0267,-0.51868 -0.33796,-0.32427 -0.34651,0.2164 -0.84588,0.19138 -1.27826,-0.064 -0.46762,-0.27622 -0.57135,-0.60012 -0.31668,-0.9888 0.4006,-0.61139 1.48277,-0.53717 2.12429,0.1457 0.16302,0.17352 0.47142,0.39854 0.68534,0.50006 0.575,0.27285 1.26283,0.99161 1.60191,1.67393 0.27789,0.5592 0.30174,0.77596 0.33854,3.07626 0.0586,3.66084 -0.14218,4.35928 -2.13588,7.43133 -0.57953,0.89299 -1.39621,2.44178 -1.39621,2.64785 0,0.24852 -0.43953,1.22468 -0.55165,1.22518 -0.0589,2.5e-4 -0.084,-0.81392 -0.0557,-1.80928 z m 18.940043,1.58016 c -0.0767,-0.12278 -0.18289,-0.4214 -0.23602,-0.66358 -0.12371,-0.56386 -0.97692,-2.2025 -1.78355,-3.4254 -1.61038,-2.44144 -1.81589,-3.21585 -1.82757,-6.88661 -0.006,-1.94475 0.0315,-2.47761 0.20654,-2.921 0.3135,-0.79404 0.91119,-1.48095 1.58679,-1.82363 0.32693,-0.16583 0.66983,-0.40835 0.762,-0.53894 0.20967,-0.29703 0.89342,-0.65625 1.24914,-0.65625 0.44616,0 1.12189,0.46598 1.13692,0.78401 0.002,0.047 -0.14822,0.26645 -0.33431,0.4876 -0.29134,0.34624 -0.4016,0.3937 -0.79375,0.34166 -0.25047,-0.0332 -0.58399,-0.10216 -0.74115,-0.15316 -0.2449,-0.0795 -0.28575,-0.0473 -0.28575,0.22497 0,0.84002 1.81264,1.11247 2.64721,0.3979 0.1995,-0.17082 0.27379,-0.37877 0.27379,-0.76641 0,-0.43994 -0.0687,-0.58978 -0.39695,-0.866 -0.21832,-0.1837 -0.35717,-0.37379 -0.30855,-0.42241 0.12823,-0.12823 1.7215,0.75288 1.7215,0.95202 0,0.29153 -0.59519,1.1251 -1.12316,1.57301 -0.67164,0.5698 -1.96942,1.25681 -2.37412,1.25681 -1.05749,0 -2.21924,1.29541 -2.24472,2.50295 -0.0133,0.63022 0.34125,1.4392 2.23985,5.1108 0.76332,1.47614 0.81285,1.68821 0.91634,3.92351 0.0715,1.54504 -0.0146,2.00993 -0.29048,1.56815 z m -4.02405,-16.61908 c -0.0466,-0.0466 -0.0847,-0.81111 -0.0847,-1.69898 0,-1.16185 0.0545,-1.7447 0.19434,-2.079458 0.1962,-0.469575 0.44066,-0.51225 0.44066,-0.07692 0,0.369804 0.48098,1.398268 0.66223,1.416018 0.0898,0.009 0.67042,0.003 1.29028,-0.0134 0.79694,-0.0208 1.1016,0.0117 1.04025,0.11102 -0.0477,0.0772 -0.13836,0.14037 -0.20143,0.14037 -0.14338,0 -2.20167,1.43124 -2.764,1.92196 -0.45973,0.40118 -0.45713,0.39992 -0.57767,0.27937 z m -11.832173,-0.75099 c -0.48895,-0.3816 -1.21761,-0.89675 -1.61925,-1.14478 -0.40163,-0.24802 -0.73025,-0.48023 -0.73025,-0.51603 0,-0.0358 0.47149,-0.0502 1.04775,-0.0321 1.27957,0.0403 1.59388,-0.0515 1.69997,-0.496135 0.0447,-0.187431 0.12398,-0.397935 0.17613,-0.467785 0.0521,-0.06985 0.13578,-0.318386 0.18584,-0.552303 0.0501,-0.233916 0.13589,-0.376791 0.19075,-0.3175 0.18314,0.197946 0.38256,1.765673 0.38256,3.007453 0,1.49835 -0.0526,1.51884 -1.3335,0.51919 z m -3.27401,-4.866317 c -1.32386,-0.879792 -4.35651,-2.292268 -5.64774,-2.630469 -0.28441,-0.0745 -0.16768,-0.269457 0.254,-0.424218 1.6513,-0.606037 2.88161,-1.405089 4.04338,-2.626052 0.76994,-0.809179 2.27249,-2.802166 2.27874,-3.022525 0.002,-0.07494 0.0564,-0.04646 0.1206,0.06328 0.0751,0.128301 0.0455,0.513704 -0.0829,1.0795 -0.15488,0.682785 -0.20117,1.683878 -0.20659,4.46771 -0.004,1.973263 -0.0112,3.586135 -0.0162,3.58416 -0.005,-0.002 -0.33957,-0.2231 -0.74328,-0.491389 z m 18.882563,-2.965771 c -2.5e-4,-2.720316 -0.0422,-3.529147 -0.22746,-4.395651 -0.13504,-0.631477 -0.18062,-1.108361 -0.11246,-1.176522 0.0682,-0.06816 0.36713,0.254939 0.73759,0.797121 1.39464,2.041135 3.36828,3.76424 5.07579,4.431463 0.4191,0.163767 0.84235,0.369036 0.94057,0.456154 0.14895,0.132127 0.11736,0.171681 -0.1905,0.238501 -0.82794,0.179699 -3.62005,1.473033 -5.06742,2.347287 -0.57856,0.349468 -1.07528,0.635397 -1.10382,0.635397 -0.0286,0 -0.0521,-1.500187 -0.0523,-3.33375 z m 9.14253,1.834796 c -0.0738,-0.0487 -0.28762,-0.402871 -0.47512,-0.787046 -0.1875,-0.384175 -0.57748,-1.069975 -0.86663,-1.524 -0.46176,-0.725078 -1.40384,-2.252525 -1.84237,-2.987141 -0.62158,-1.041261 -1.41954,-2.89493 -1.86791,-4.339222 -0.27166,-0.875063 -0.26832,-2.601224 0.007,-3.40807 0.74321,-2.181192 2.24641,-3.493953 5.79445,-5.060344 0.4043,-0.178492 0.93294,-0.361647 1.17475,-0.407011 l 0.43966,-0.08248 -0.001,0.807884 c -0.002,0.831457 -0.32477,4.466456 -0.44196,4.970146 -0.0362,0.155505 -0.12185,0.739938 -0.19037,1.298737 -0.0685,0.5588 -0.18085,1.3589 -0.24962,1.778 -0.19486,1.187548 -0.36036,2.292385 -0.57073,3.81 -0.10651,0.76835 -0.28009,1.970995 -0.38574,2.672544 -0.10565,0.701549 -0.19296,1.673099 -0.19403,2.159 -0.002,0.919405 -0.10105,1.249703 -0.32948,1.099002 z M 85.994587,95.73056 c -0.0746,-0.196104 -0.19057,-0.983372 -0.25779,-1.749483 -0.0672,-0.766111 -0.15637,-1.448147 -0.19808,-1.515635 -0.0417,-0.06749 -0.12602,-0.508254 -0.18736,-0.979482 -0.25524,-1.960794 -0.62072,-4.146266 -0.89224,-5.33535 -0.068,-0.297865 -0.12366,-0.710578 -0.12366,-0.917141 0,-0.206563 -0.0829,-0.79153 -0.18416,-1.299927 -0.46867,-2.352318 -0.83915,-6.604857 -0.5889,-6.759522 0.25807,-0.159495 2.18385,0.592936 4.00085,1.563189 1.24797,0.666395 2.64428,2.093392 3.14691,3.216055 0.55262,1.234315 0.59221,3.307846 0.0912,4.778018 -0.37753,1.107889 -0.89869,2.322825 -1.22151,2.847627 -0.16028,0.260549 -0.29141,0.510486 -0.29141,0.555417 0,0.04493 -0.25717,0.505292 -0.5715,1.023028 -0.31432,0.517735 -0.5715,0.965877 -0.5715,0.995868 0,0.02999 -0.30446,0.556636 -0.67658,1.170321 -0.37213,0.613686 -0.82557,1.486543 -1.00766,1.939681 -0.32747,0.814927 -0.33254,0.820011 -0.46663,0.467336 z"
       id="path1604" />
  </g>
</svg>
