<?xml version="1.0" encoding="UTF-8" standalone="no"?>
<!-- Created with Inkscape (http://www.inkscape.org/) -->

<svg
   width="210mm"
   height="297mm"
   viewBox="0 0 210 297"
   version="1.1"
   id="svg1291"
   inkscape:version="1.1 (c68e22c387, 2021-05-23)"
   sodipodi:docname="Wolf.svg"
   xmlns:inkscape="http://www.inkscape.org/namespaces/inkscape"
   xmlns:sodipodi="http://sodipodi.sourceforge.net/DTD/sodipodi-0.dtd"
   xmlns="http://www.w3.org/2000/svg"
   xmlns:svg="http://www.w3.org/2000/svg">
  <sodipodi:namedview
     id="namedview1293"
     pagecolor="#ffffff"
     bordercolor="#666666"
     borderopacity="1.0"
     inkscape:pageshadow="2"
     inkscape:pageopacity="0.0"
     inkscape:pagecheckerboard="0"
     inkscape:document-units="mm"
     showgrid="false"
     inkscape:zoom="0.69397447"
     inkscape:cx="376.09453"
     inkscape:cy="561.25984"
     inkscape:window-width="1920"
     inkscape:window-height="1017"
     inkscape:window-x="-8"
     inkscape:window-y="-8"
     inkscape:window-maximized="1"
     inkscape:current-layer="layer1" />
  <defs
     id="defs1288" />
  <g
     inkscape:label="Ebene 1"
     inkscape:groupmode="layer"
     id="layer1">
    <path
       style="fill:#000000;stroke-width:1"
       d="m 99.262859,159.57742 c -1.68988,-0.077 -5.07131,-0.53833 -7.0485,-0.9617 -0.81837,-0.17524 -3.26241,-0.83917 -4.0005,-1.08675 -3.19566,-1.07193 -6.731,-2.5666 -6.731,-2.84572 0,-0.16935 0.40547,-0.12836 0.80826,0.0817 0.20007,0.10435 0.46816,0.18972 0.59576,0.18972 0.12759,0 0.2633,0.0507 0.30158,0.11261 0.0383,0.0619 0.27728,0.15156 0.53113,0.19918 0.25384,0.0476 0.55451,0.13682 0.66815,0.19822 0.52484,0.28357 4.66803,1.33192 6.55662,1.65902 3.53061,0.6115 5.58379,0.78393 9.334501,0.78393 5.23173,0 8.62541,-0.45945 13.3985,-1.81395 0.69838,-0.19819 2.58422,-0.82642 3.048,-1.01539 0.20955,-0.0854 0.4953,-0.19913 0.635,-0.25276 1.87202,-0.71874 5.03926,-2.29022 6.72469,-3.33659 4.69419,-2.91429 8.91275,-6.85135 12.34395,-11.52027 1.70036,-2.31372 3.52023,-5.53456 4.48493,-7.9375 0.22434,-0.5588 0.45405,-1.1303 0.51048,-1.27 0.45933,-1.13728 1.08391,-3.40233 1.4358,-5.207 0.42042,-2.15604 0.47756,-2.61332 0.62166,-4.97422 0.24217,-3.96787 -0.0894,-8.07286 -0.93678,-11.59928 -0.0755,-0.31432 -0.1645,-0.72866 -0.1977,-0.92075 -0.0332,-0.19209 -0.13042,-0.34925 -0.21606,-0.34925 -0.1683,0 -0.45047,0.52635 -0.45047,0.84031 0,0.32321 -0.75183,2.02188 -1.02435,2.3144 -0.33149,0.35581 -0.60611,0.34626 -1.05124,-0.0366 -0.41262,-0.35486 -0.53604,-0.78017 -0.71946,-2.47922 -0.1911,-1.77016 -0.80158,-3.35821 -1.80791,-4.70293 -0.49294,-0.65869 -1.82979,-1.94222 -2.31854,-2.22606 -1.04449,-0.60658 -1.97726,-0.52754 -2.69288,0.2282 -0.51408,0.54292 -1.00104,1.34236 -1.10445,1.8132 -0.14207,0.64682 0.0895,0.79313 1.70183,1.07515 2.12381,0.37148 2.76371,0.60381 3.39725,1.23342 0.50007,0.49697 0.53958,0.58567 0.53745,1.2065 -0.004,1.17818 -0.94822,2.54948 -2.70927,3.93487 -1.2565,0.98848 -1.73343,1.68866 -1.73343,2.54489 0,0.84226 0.20475,1.17696 1.34348,2.19611 1.02499,0.91737 1.44282,1.58527 1.44773,2.31422 0.002,0.27341 -0.0902,0.48903 -0.27112,0.635 -1.00384,0.80995 -1.25009,1.09181 -1.25009,1.43088 0,0.34603 0.64548,1.28779 1.25158,1.82606 0.35257,0.3131 0.34638,0.7238 -0.016,1.06426 -0.68757,0.64594 -3.43461,1.61989 -5.99806,2.1266 -1.38148,0.27307 -1.89868,0.60441 -3.004,1.92449 -0.42911,0.51249 -0.96421,1.04552 -1.18909,1.18451 -0.43318,0.26772 -0.95041,0.33703 -0.95041,0.12736 0,-0.0689 0.30827,-0.74044 0.68505,-1.49225 1.55539,-3.10352 2.76287,-6.4127 3.44142,-9.43141 0.11776,-0.52387 0.2636,-1.15252 0.3241,-1.397 0.17162,-0.6936 0.60075,-3.83474 0.7634,-5.588 0.16215,-1.74777 0.0978,-6.20587 -0.11646,-8.0645 -0.28202,-2.446781 -0.81216,-5.125071 -1.48317,-7.493001 -0.36839,-1.30004 -0.36881,-1.32314 -0.0306,-1.69054 0.51189,-0.55609 0.73427,-0.94895 0.73427,-1.2972 0,-0.52186 -0.6591,-1.27922 -1.7103,-1.96526 l -0.97298,-0.635 -0.9588,-1.905 c -2.23934,-4.44926 -4.75613,-7.948522 -8.23005,-11.442798 -0.9792,-0.984939 -2.09052,-2.042214 -2.4696,-2.3495 -0.37907,-0.307286 -0.89342,-0.736647 -1.143,-0.954135 -0.51334,-0.447346 -3.02432,-2.264003 -3.74452,-2.709112 -0.73261,-0.452778 -0.41661,-0.578982 0.83387,-0.333031 1.27096,0.249981 2.67278,0.552494 3.28238,0.708339 9.12277,2.33224 17.16456,7.296572 23.24532,14.349737 0.45165,0.52388 0.84976,0.98108 0.88468,1.016 0.50498,0.50498 2.56481,3.48657 3.65304,5.28776 0.91336,1.51174 2.62009,4.98515 3.20534,6.52324 0.22591,0.59373 0.48112,1.25095 0.56713,1.4605 0.52037,1.267761 1.39291,4.281081 1.78355,6.159501 0.10895,0.52388 0.25297,1.20968 0.32005,1.524 0.13065,0.61219 0.30192,1.95686 0.50953,4.0005 0.14033,1.38142 0.1711,5.44832 0.0543,7.1755 -0.14554,2.1519 -0.88701,6.71264 -1.31109,8.0645 -0.0657,0.20955 -0.2175,0.7239 -0.33726,1.143 -1.31162,4.59006 -3.55656,9.29852 -6.38049,13.38222 -1.84037,2.66137 -5.56049,6.71061 -8.03308,8.74377 -4.6931,3.85906 -9.43136,6.48406 -15.113,8.37264 -0.69727,0.23177 -0.92892,0.29655 -2.8575,0.799 -1.47278,0.38371 -3.2078,0.7437 -4.1275,0.8564 -0.24448,0.03 -0.98743,0.13426 -1.651,0.23178 -1.19637,0.17582 -6.04325,0.32382 -7.874001,0.24043 z m 1.695061,-3.60487 c -1.173001,-0.3075 -1.896661,-0.67914 -2.488811,-1.27815 -0.57964,-0.58635 -0.60069,-0.93274 -0.0888,-1.46088 0.42685,-0.44041 0.44773,-0.5496 0.3083,-1.61283 -0.0946,-0.72168 -0.0904,-0.73561 0.35586,-1.15645 0.52546,-0.49556 1.057351,-0.61673 2.250381,-0.51265 0.80617,0.0703 0.85523,0.0565 2.0955,-0.58898 1.48077,-0.7707 2.47266,-1.13893 3.06788,-1.13893 0.376,0 0.42462,0.039 0.42462,0.3408 0,0.18743 -0.11821,0.67373 -0.26268,1.08065 -0.14448,0.40693 -0.24449,0.86793 -0.22225,1.02446 0.0354,0.24943 0.10608,0.2805 0.57184,0.25148 0.65758,-0.041 0.73859,0.0741 0.73859,1.04911 v 0.762 l 0.9525,-0.0176 c 0.52387,-0.01 1.93711,-0.0604 3.14053,-0.11274 1.98276,-0.0862 2.19568,-0.0752 2.26965,0.1176 0.0481,0.12522 -0.0161,0.32332 -0.15603,0.48163 -0.51586,0.58374 -3.56473,1.77991 -5.88915,2.31051 -0.52388,0.11959 -1.15253,0.26766 -1.397,0.32904 -1.71674,0.43107 -4.30054,0.49119 -5.67094,0.13194 z M 90.626859,155.4379 c -2.90681,-0.49277 -6.71039,-1.59395 -8.3744,-2.42449 -1.27734,-0.63754 -1.18388,-0.72532 0.77556,-0.72834 2.05401,-0.003 5.18101,-0.19274 6.39234,-0.38752 2.19809,-0.35345 5.53591,-1.1221 6.03684,-1.3902 0.12813,-0.0686 0.3653,-0.12312 0.52706,-0.12123 0.27722,0.003 0.26851,0.0272 -0.15188,0.41846 -0.24528,0.22827 -1.21815,0.87966 -2.16193,1.44754 -1.66433,1.00146 -2.40859,1.5539 -2.40859,1.78781 0,0.36341 1.56968,0.91475 2.6043,0.91475 0.48994,0 0.49673,0.2448 0.0124,0.44716 -0.50427,0.2107 -2.11608,0.22858 -3.25171,0.0361 z m 7.28484,-6.98879 c -0.18804,-0.30425 -0.0965,-4.92832 0.12261,-6.19443 0.76708,-4.43237 2.541821,-7.54244 6.272001,-10.99109 2.49058,-2.30262 3.63305,-3.50071 3.8945,-4.08414 0.49383,-1.10195 -0.0946,-1.1959 -1.94744,-0.31094 -1.58532,0.75719 -4.18033,3.11244 -5.61827,5.09917 -1.402841,1.93823 -2.769251,4.45815 -3.369611,6.2142 -0.12969,0.37933 -0.29946,0.71091 -0.37728,0.73685 -0.4335,0.1445 -0.5637,-3.27471 -0.22808,-5.98967 0.11165,-0.90316 0.22638,-1.67994 0.25495,-1.72617 0.0286,-0.0462 0.1063,-0.39314 0.17271,-0.77089 0.54311,-3.08921 2.40022,-8.0206 3.678271,-9.76732 0.56481,-0.77193 1.27723,-1.33883 2.44422,-1.94497 0.44829,-0.23284 0.7865,-0.47627 0.75158,-0.54094 -0.13165,-0.24379 -3.12135,0.16837 -3.81,0.52524 -0.931051,0.48249 -1.691531,1.64039 -2.955951,4.50067 -1.13016,2.55656 -2.10708,7.04878 -2.11973,9.74725 -0.005,1.06567 -0.20433,1.22019 -0.5534,0.429 -0.79195,-1.795 -0.99113,-4.07069 -0.80843,-9.23664 0.16648,-4.70737 0.10153,-5.309 -0.69785,-6.46411 -2.20051,-3.17977 -2.91328,-4.67898 -3.13974,-6.604 -0.099,-0.84147 -0.0101,-1.46594 0.2072,-1.45599 0.0541,0.002 0.37743,0.47396 0.71846,1.04775 0.8317,1.39931 1.75176,2.6237 1.97448,2.62758 0.0999,0.002 0.55705,-0.11635 1.016,-0.26242 1.73742,-0.55297 1.72058,-0.54412 1.76492,-0.92692 0.0449,-0.38746 -0.3837,-0.9665 -0.71536,-0.9665 -0.24225,0 -1.0406,-0.49512 -1.0406,-0.64536 0,-0.0641 0.27875,-0.11664 0.61945,-0.11664 0.3852,0 0.67704,-0.0694 0.77175,-0.18351 0.20871,-0.25148 0.11648,-0.78377 -0.12422,-0.71692 -0.70737,0.19647 -0.98065,0.1561 -1.24853,-0.18446 -0.31749,-0.40361 -0.35208,-0.84992 -0.0832,-1.07309 0.1134,-0.0941 0.16104,-0.26958 0.11884,-0.43772 -0.10394,-0.41413 0.17052,-0.56606 1.32714,-0.73464 1.24901,-0.18204 2.85369,0.005 3.50655,0.40829 0.45431,0.28078 0.8272,0.92922 0.8272,1.43847 0,0.3717 -0.42345,1.41634 -0.62449,1.54059 -0.24233,0.14977 -0.1484,0.47158 0.27542,0.9436 0.22711,0.25294 0.53165,0.6242 0.67675,0.82502 0.289091,0.40008 0.899291,0.50569 1.077891,0.18655 0.055,-0.0982 0.2713,-0.37485 0.48075,-0.61475 1.08617,-1.24404 2.02924,-3.57561 2.10843,-5.21271 0.0548,-1.13285 0.1276,-1.22419 0.62123,-0.77946 0.44098,0.39729 1.58072,2.25522 2.49521,4.06753 0.62678,1.24213 0.97298,1.79902 1.10189,1.77245 0.10337,-0.0213 0.30293,-0.38164 0.44347,-0.80074 0.14053,-0.4191 0.33627,-0.85222 0.43498,-0.9625 0.0987,-0.11027 0.17947,-0.23974 0.17947,-0.28771 0,-0.048 0.35719,-0.59973 0.79375,-1.22614 1.96878,-2.82494 2.77974,-4.22462 3.19562,-5.51552 0.2487,-0.77198 0.25947,-1.59598 0.025,-1.91658 -0.16032,-0.21926 -0.21003,-0.22488 -0.53975,-0.061 -0.27122,0.13477 -0.93153,0.18173 -2.60832,0.18548 l -2.24515,0.005 -9e-5,-0.635 c -1.2e-4,-0.793631 -0.14497,-1.179861 -0.66432,-1.771371 -0.47889,-0.54543 -1.10403,-0.88897 -2.08041,-1.14329 -0.61024,-0.15894 -0.79816,-0.15909 -1.43262,-0.001 -1.09709,0.27321 -1.52617,0.5363 -1.69146,1.03713 -0.18023,0.54612 -0.0888,0.63956 0.42631,0.4358 1.07134,-0.42375 2.91349,-0.74118 3.40185,-0.58619 0.32708,0.10382 0.26241,0.47108 -0.21655,1.2298 -0.33582,0.531971 -1.29545,1.493351 -1.4934,1.496121 -0.0622,8.9e-4 -0.18558,-0.0977 -0.27428,-0.21898 -0.15313,-0.20942 -0.1736,-0.20942 -0.405,0 -0.33171,0.30019 -0.72663,0.27721 -0.94728,-0.0551 -0.1069,-0.16099 -0.24543,-0.23713 -0.33299,-0.18301 -0.25726,0.159 -0.16562,0.70075 0.16755,0.99043 0.17462,0.15183 0.3175,0.31531 0.3175,0.36328 0,0.048 -0.22033,0.23303 -0.48963,0.41124 -0.2693,0.17821 -0.71221,0.52885 -0.98425,0.77918 -0.59223,0.54499 -0.804621,0.62641 -1.221021,0.46809 -0.5025,-0.19105 -0.87273,-1.14802 -1.0917,-2.82183 -0.17326,-1.324401 -0.1729,-1.622291 0.004,-2.921001 0.22754,-1.67473 0.57939,-2.69581 1.189,-3.45056 0.721791,-0.89364 0.773531,-1.05751 0.496411,-1.57208 -0.560331,-1.04047 -1.725361,-1.88572 -2.791871,-2.02555 -0.99731,-0.13075 -3.4644,1.37892 -4.74165,2.90151 -0.89169,1.06299 -1.19283,1.77065 -1.14281,2.68564 l 0.0425,0.77688 -0.7134,-0.0412 c -0.86167,-0.0497 -1.70741,0.15737 -1.81785,0.44516 -0.0995,0.25921 0.1287,0.41701 0.6067,0.41958 0.95906,0.005 3.00615,0.83627 3.34914,1.35973 0.14275,0.21786 0.20977,0.724191 0.24282,1.834361 0.0251,0.84339 0.0137,1.58504 -0.0252,1.64812 -0.0743,0.12016 -1.32281,-1.01375 -1.324,-1.20243 -3.8e-4,-0.0598 0.14219,-0.27847 0.31682,-0.486 0.5644,-0.67076 0.34289,-1.239651 -0.26377,-0.67741 -0.41015,0.38011 -0.42942,0.38211 -0.93819,0.0973 -0.37813,-0.21167 -0.40311,-0.21167 -0.5246,0 -0.0702,0.12224 -0.17609,0.22225 -0.23539,0.22225 -0.0593,0 -0.54077,-0.40433 -1.06993,-0.898501 -0.52917,-0.49418 -1.02073,-0.86228 -1.09237,-0.81801 -0.0716,0.0443 -0.13025,0.32954 -0.13025,0.63392 0,0.638171 -0.14159,0.733831 -0.72617,0.490621 -0.65539,-0.272671 -2.16755,-0.21985 -2.76821,0.0967 -0.74763,0.39398 -1.25886,0.93533 -1.58384,1.67712 -0.70373,1.60634 -0.89078,2.4081 -0.89078,3.81806 0,1.47632 0.15235,1.64936 0.81509,0.92582 0.42688,-0.46604 1.01779,-0.77828 1.22756,-0.64863 0.064,0.0396 0.11838,0.62574 0.12087,1.30266 0.008,2.1699 0.66862,4.15621 2.07782,6.24725 0.59148,0.87767 2.51281,2.91323 4.3094,4.56562 1.16982,1.07592 1.11757,0.87811 0.97675,3.69788 -0.19376,3.87975 0.0205,6.34729 0.68555,7.89725 0.16342,0.38083 0.17029,0.47625 0.0343,0.47625 -0.22274,0 -0.57655,-0.39739 -1.18725,-1.3335 -0.67651,-1.03698 -1.06473,-2.20095 -1.41901,-4.2545 -0.58833,-3.4101 -0.69993,-3.88408 -1.01668,-4.318 -0.17846,-0.24447 -0.35613,-0.47307 -0.39483,-0.508 -0.35976,-0.32472 -1.83747,-2.15602 -2.81814,-3.4925 -1.00867,-1.37463 -3.03043,-4.51885 -3.03043,-4.71289 0,-0.0302 -0.16575,-0.41094 -0.36834,-0.84603 -1.02083,-2.19242 -1.51477,-3.841 -1.73557,-5.79267 -0.16216,-1.43333 0.42886,-3.57734 1.35869,-4.9288 l 0.38139,-0.554331 -0.38958,-0.13581 c -0.21428,-0.0747 -0.38959,-0.22606 -0.38959,-0.33637 0,-0.1103 0.23456,-0.68515 0.52124,-1.27744 0.41787,-0.8633 0.73273,-1.28789 1.5875,-2.14075 l 1.06626,-1.06385 v -2.14729 c 0,-1.30456 0.0502,-2.1783 0.1279,-2.22632 0.0703,-0.0435 0.1611,0.0246 0.20168,0.15125 0.14309,0.44656 0.60102,1.25359 1.07313,1.89119 0.56215,0.7592 1.18284,1.11999 1.57584,0.916 0.31176,-0.16183 2.82068,-2.71268 3.62545,-3.68604 0.74744,-0.90403 1.35429,-1.36735 1.79095,-1.36735 0.19419,0 0.38617,-0.0536 0.42663,-0.11904 0.28793,-0.46588 -3.83673,-6.178165 -4.85428,-6.722742 -0.31911,-0.170782 -0.75034,-0.03546 -1.09049,0.342204 -0.33829,0.375597 -0.15812,0.556309 0.4682,0.469589 0.29067,-0.04024 0.59984,-0.02538 0.68704,0.03303 0.25214,0.168888 0.4463,1.530893 0.35703,2.504457 -0.0448,0.488952 -0.16917,1.380082 -0.27632,1.980292 -0.19219,1.07663 -0.18482,2.86279 0.0156,3.76646 0.0518,0.23349 0.0406,0.41275 -0.0256,0.41275 -0.3854,0 -1.02024,-0.97499 -1.36442,-2.0955 -0.61678,-2.00792 -0.90523,-2.58802 -1.33387,-2.6825 -0.85411,-0.18825 -0.80965,-0.11743 -0.71682,-1.14183 0.24587,-2.71327 1.50251,-5.510172 2.47571,-5.510172 0.79517,0 2.30445,1.387263 4.12566,3.792106 0.53225,0.70282 1.27572,1.608726 1.65215,2.013126 l 0.68442,0.73527 3.34699,0.0156 c 2.56,0.0119 3.556031,0.0632 4.235991,0.21796 0.85555,0.19472 0.90908,0.19263 1.42266,-0.0557 0.52663,-0.25469 1.88081,-1.648333 3.13448,-3.225832 0.33307,-0.4191 1.01559,-1.1856 1.51672,-1.703332 1.86769,-1.929577 2.77562,-1.799531 3.55934,0.509815 0.44994,1.325821 0.69492,2.412082 0.842,3.733519 0.20515,1.84323 0.17953,2.20969 -0.16361,2.34015 -0.59883,0.22768 -1.12658,0.83243 -1.98795,2.27801 -0.85466,1.43431 -1.56508,2.30973 -1.73584,2.13897 -0.0453,-0.0453 -0.0103,-0.33956 0.0777,-0.65392 0.11572,-0.41331 0.13466,-1.04531 0.0684,-2.28238 -0.0764,-1.42641 -0.0567,-1.81587 0.11835,-2.34297 0.23571,-0.70967 1.11646,-1.79536 1.45645,-1.79536 0.14439,0 0.34594,0.25188 0.57361,0.71686 0.47569,0.97147 0.60466,0.72155 0.50103,-0.97086 -0.0848,-1.384631 -0.15848,-1.648184 -0.59483,-2.127252 -0.62256,-0.683509 -1.43613,-0.213228 -3.94324,2.279362 -1.12819,1.12165 -2.35129,2.26753 -2.71801,2.54639 -0.36671,0.27886 -0.66653,0.57159 -0.66626,0.65051 2.6e-4,0.0789 0.26283,0.35578 0.58346,0.61523 0.55776,0.45135 1.75458,1.86974 2.96805,3.51754 0.80481,1.09286 1.14372,1.22793 2.56865,1.02369 0.91823,-0.13162 1.18416,-0.13117 1.43372,0.002 0.42634,0.22816 0.70064,1.00028 0.70064,1.97221 0,0.62822 0.0429,0.82293 0.18128,0.82293 0.23048,0 0.73035,-1.06108 1.06944,-2.27012 0.14448,-0.51515 0.29209,-0.96603 0.32803,-1.00196 0.0359,-0.0359 0.27175,0.0921 0.52403,0.28452 0.47329,0.361 1.16226,1.2466 1.67432,2.1522 0.30434,0.53823 1.5569,3.09824 1.5569,3.18203 0,0.0785 0.87216,1.945971 1.5328,3.282041 1.47944,2.99203 3.29275,4.75512 5.3252,5.17772 1.01853,0.21178 1.06219,0.2712 0.96954,1.3193 -0.0433,0.49048 -0.16419,1.17752 -0.26853,1.52677 -0.33561,1.12343 -1.57437,3.39022 -2.6373,4.826 -1.30201,1.75872 -4.8148,5.29838 -6.47746,6.527 -0.68104,0.50325 -1.23825,0.97648 -1.23825,1.05163 0,0.39571 2.56567,-0.68299 4.13697,-1.73933 2.62025,-1.76152 5.44102,-4.80743 7.83254,-8.45768 0.38363,-0.58554 0.79862,-1.26464 0.92222,-1.50912 0.12359,-0.24447 0.2642,-0.47307 0.31247,-0.508 0.0483,-0.0349 0.22187,-0.33496 0.38579,-0.66675 0.44572,-0.90218 0.63167,-0.79677 0.56006,0.3175 -0.35457,5.51724 -2.46358,11.07432 -5.96644,15.7211 -0.95897,1.27214 -3.14921,3.73598 -3.88054,4.3653 -0.23626,0.2033 -0.74559,0.6605 -1.13185,1.016 -1.68304,1.54901 -3.24261,2.81241 -7.15575,5.7968 -1.59776,1.21856 -3.20863,2.44828 -3.57969,2.73272 -1.80438,1.38314 -3.95081,3.40099 -5.20163,4.89001 -1.122451,1.33621 -2.264481,3.20479 -2.536111,4.14957 -0.0891,0.30982 -0.37287,0.37989 -0.52721,0.13018 z m 0.30955,-33.46092 c 0.75216,-0.37373 0.91975,-0.51023 0.889,-0.72407 -0.0414,-0.28779 -0.19199,-0.32914 -2.13339,-0.58575 -1.36368,-0.18025 -3.41653,-0.052 -3.52091,0.22003 -0.12582,0.3279 1.13427,1.23063 2.09987,1.50435 0.83577,0.23691 1.59053,0.11952 2.66543,-0.41456 z m -1.54311,-6.58985 c 0.27643,-0.42189 0.0967,-0.55599 -0.74903,-0.55871 -0.719,-0.002 -0.77974,0.19053 -0.18561,0.58931 0.54149,0.36346 0.6794,0.35894 0.93464,-0.0306 z m 28.365721,37.99798 c 0,-0.11255 0.053,-0.20464 0.11783,-0.20464 0.21477,0 2.2255,-2.07875 3.01227,-3.11417 0.99297,-1.30678 1.81339,-2.64854 1.90766,-3.11986 0.0851,-0.42551 -0.0464,-0.46588 -0.48128,-0.14772 -0.79643,0.58268 -2.04119,1.0665 -3.68712,1.43313 -0.87891,0.19577 -1.1941,0.22201 -1.32835,0.1106 -0.26668,-0.22133 -0.219,-0.32231 0.30024,-0.63578 1.13233,-0.68359 1.84905,-1.40378 4.70979,-4.73254 1.19166,-1.38663 2.22908,-2.23966 2.72376,-2.23966 0.18161,0 0.36011,0.0484 0.39665,0.1075 0.0365,0.0591 -0.17058,0.60301 -0.46025,1.20865 -0.37824,0.7908 -0.4879,1.13995 -0.38906,1.23879 0.3321,0.3321 2.06948,-0.64933 3.71648,-2.09941 1.31797,-1.1604 1.61575,-1.11392 1.21985,0.19039 -0.62977,2.07481 -2.84825,5.18558 -5.84507,8.19601 -1.56401,1.5711 -3.52194,3.14503 -4.5164,3.63062 -0.24447,0.11937 -0.65881,0.25432 -0.92075,0.29988 -0.38756,0.0674 -0.47625,0.0447 -0.47625,-0.12179 z m -8.89,-0.99053 c -0.97519,-0.50101 -0.81291,-1.19388 0.56154,-2.39747 1.382,-1.21021 1.60913,-2.3583 0.67045,-3.38889 -0.14314,-0.15716 -0.34259,-0.28575 -0.4432,-0.28575 -0.10062,0 -0.56215,0.39895 -1.02562,0.88654 -0.81617,0.85867 -0.86851,0.89053 -1.66437,1.01345 -1.22455,0.18912 -1.2338,0.0294 -0.0602,-1.03855 2.31495,-2.10664 4.303,-4.30647 6.20154,-6.86219 0.6097,-0.82074 1.19768,-1.49225 1.30663,-1.49225 0.10895,0 0.41997,0.22188 0.69115,0.49306 0.40335,0.40335 0.49291,0.58243 0.49222,0.98425 -0.001,0.56104 -0.31512,1.1063 -0.8426,1.4624 -0.19968,0.1348 -0.97447,0.56059 -1.72174,0.9462 -1.76339,0.90994 -2.47336,1.69275 -1.98142,2.18469 0.25566,0.25566 0.86822,0.17118 1.48455,-0.20475 1.47199,-0.89782 2.76745,-1.04065 3.96003,-0.4366 0.79249,0.40141 1.04095,0.78225 0.95926,1.47036 -0.0925,0.77919 -0.58291,1.15525 -2.01374,1.54426 -1.09633,0.29806 -1.2405,0.51645 -1.2405,1.87923 0,1.34308 -0.14554,1.66148 -1.0795,2.36155 -1.03584,0.77644 -1.79554,1.08415 -2.794,1.13172 -0.73361,0.035 -0.98889,-0.009 -1.4605,-0.25126 z m 21.21129,-15.84684 c -0.0742,-0.13868 -0.0975,-0.47553 -0.0525,-0.75753 0.0587,-0.36722 0.002,-0.73313 -0.20613,-1.32168 -0.39329,-1.11405 -0.30411,-1.3994 0.56611,-1.81143 0.37641,-0.17822 0.78818,-0.43873 0.91504,-0.57891 0.22417,-0.24771 0.21903,-0.27684 -0.18319,-1.03804 -0.22761,-0.43075 -0.41223,-0.95806 -0.41025,-1.1718 0.002,-0.21374 0.20685,-0.80123 0.4553,-1.30554 0.38109,-0.77357 0.4392,-1.0007 0.37168,-1.45288 -0.10928,-0.73187 0.0714,-1.12766 0.93159,-2.04099 0.91765,-0.9743 1.13253,-1.31692 1.17183,-1.86845 0.10233,-1.43607 -0.12901,-1.81054 -0.7506,-1.21502 -0.43445,0.41624 -0.59083,0.41876 -0.85615,0.0138 -0.28693,-0.4379 -0.17063,-1.1829 0.28621,-1.83347 0.35614,-0.50716 0.78832,-0.7452 1.05441,-0.58075 0.40034,0.24743 0.6935,1.26134 0.85027,2.9408 0.0813,0.87055 -0.16494,2.1725 -0.60058,3.17597 -0.37459,0.86284 -0.87838,2.41895 -0.87838,2.71314 0,0.13511 0.17145,0.44092 0.381,0.67959 0.20955,0.23866 0.381,0.52371 0.381,0.63343 0,0.10973 -0.23613,0.38793 -0.52474,0.61824 l -0.52474,0.41873 0.0689,2.17792 c 0.0675,2.13209 0.0627,2.18717 -0.22942,2.61699 -0.3437,0.50579 -1.41569,1.23759 -1.81292,1.23759 -0.14859,0 -0.3303,-0.11238 -0.40381,-0.24973 z"
       id="path1387" />
  </g>
</svg>
