<?xml version="1.0" encoding="UTF-8" standalone="no"?>
<!-- Created with Inkscape (http://www.inkscape.org/) -->

<svg
   width="210mm"
   height="297mm"
   viewBox="0 0 210 297"
   version="1.1"
   id="svg1153"
   inkscape:version="1.1 (c68e22c387, 2021-05-23)"
   sodipodi:docname="Wolf3.svg"
   xmlns:inkscape="http://www.inkscape.org/namespaces/inkscape"
   xmlns:sodipodi="http://sodipodi.sourceforge.net/DTD/sodipodi-0.dtd"
   xmlns="http://www.w3.org/2000/svg"
   xmlns:svg="http://www.w3.org/2000/svg">
  <sodipodi:namedview
     id="namedview1155"
     pagecolor="#ffffff"
     bordercolor="#666666"
     borderopacity="1.0"
     inkscape:pageshadow="2"
     inkscape:pageopacity="0.0"
     inkscape:pagecheckerboard="0"
     inkscape:document-units="mm"
     showgrid="false"
     inkscape:zoom="0.67081229"
     inkscape:cx="396.53418"
     inkscape:cy="561.25984"
     inkscape:window-width="1920"
     inkscape:window-height="991"
     inkscape:window-x="-9"
     inkscape:window-y="-9"
     inkscape:window-maximized="1"
     inkscape:current-layer="layer1" />
  <defs
     id="defs1150" />
  <g
     inkscape:label="Ebene 1"
     inkscape:groupmode="layer"
     id="layer1">
    <path
       style="fill:#000000;stroke-width:0.211667"
       d="m 104.73743,188.94049 c 0.0788,-1.13506 0.19102,-2.54 0.24939,-3.12208 0.0903,-0.90072 0.0298,-1.14904 -0.40608,-1.6674 -0.66074,-0.78572 -0.98107,-0.567 -0.9878,0.67447 -0.005,0.9846 -0.0201,0.96362 -1.75647,-2.49957 -1.916558,-3.82255 -3.304138,-6.0084 -5.247478,-8.26632 -1.27648,-1.48312 -3.48077,-3.32747 -3.70676,-3.10148 -0.0668,0.0668 0.0964,0.98307 0.36283,2.03606 0.2664,1.05299 0.41886,1.98003 0.33881,2.06008 -0.1755,0.1755 -0.0674,0.35066 -1.12951,-1.83001 -1.99756,-4.10122 -5.88566,-8.15397 -9.96728,-10.38935 -0.72622,-0.39773 -1.32153,-0.79459 -1.32291,-0.8819 -0.007,-0.47288 2.92666,0.18436 4.33362,0.97073 0.55487,0.31012 1.09987,0.56385 1.21112,0.56385 0.39073,0 -3.02497,-5.20143 -5.95286,-9.06504 -2.67726,-3.53287 -2.53281,-3.29827 -1.91452,-3.10938 0.28653,0.0875 1.22662,0.48212 2.08909,0.87685 0.86247,0.39473 1.6069,0.67893 1.65428,0.63155 0.20491,-0.20491 -2.90196,-2.715 -4.96673,-4.01268 -1.81444,-1.14036 -5.08522,-2.64948 -7.14569,-3.29697 -2.88505,-0.90662 -2.85174,-0.8904 -2.2225,-1.08236 0.29105,-0.0888 0.93398,-0.17093 1.42875,-0.18254 0.52881,-0.0124 0.89959,-0.12222 0.89959,-0.26644 0,-0.80756 -4.20832,-5.29868 -6.50881,-6.9462 -0.72757,-0.52106 -1.32286,-1.02112 -1.32286,-1.11125 0,-0.27728 2.64017,-0.1815 4.23302,0.15356 1.80476,0.37964 3.29385,0.98371 4.86742,1.97452 1.19561,0.75283 3.59956,2.92831 3.59956,3.25748 0,0.10161 -0.32719,0.12337 -0.7271,0.0483 -0.3999,-0.075 -0.82792,-0.0741 -0.95114,0.002 -0.12322,0.0762 1.22791,1.34704 3.00252,2.82418 6.17874,5.14305 10.09033,9.13618 12.89712,13.16598 1.92028,2.75701 2.5959,4.33095 1.21425,2.82875 -0.52326,-0.56891 -2.33062,-1.80103 -3.00023,-2.04532 -0.70038,-0.25552 -0.61991,-0.13161 2.58417,3.97908 4.75788,6.10414 9.847188,12.97138 12.502178,16.86974 1.08618,1.59486 2.04843,2.85428 2.13833,2.79871 0.14808,-0.0915 0.10166,-1.95942 -0.12155,-4.89168 -0.11399,-1.49742 0.28281,-1.29798 0.94605,0.47552 0.32717,0.87485 0.62015,1.35455 0.8043,1.31691 0.15932,-0.0326 0.52071,-0.62791 0.80309,-1.32299 0.88287,-2.17318 0.98247,-1.99966 0.81654,1.42254 -0.0848,1.74882 -0.0703,3.11795 0.033,3.11269 0.10138,-0.005 1.23209,-1.54481 2.51267,-3.42143 2.84626,-4.17103 6.83383,-9.56439 11.59451,-15.68205 1.97467,-2.53753 3.54014,-4.66387 3.47882,-4.72519 -0.17801,-0.17801 -1.27378,0.46141 -2.81485,1.64258 -0.78551,0.60206 -1.36884,0.93996 -1.29629,0.75088 0.28134,-0.73316 3.22868,-4.93786 4.53565,-6.47059 2.12966,-2.49754 6.17457,-6.35387 9.95508,-9.49094 1.89177,-1.56979 3.43958,-2.95178 3.43958,-3.07108 0,-0.1345 -0.32163,-0.16547 -0.84667,-0.0815 -0.46566,0.0745 -0.84666,0.0766 -0.84666,0.005 0,-0.28258 1.18066,-1.50983 2.37344,-2.4671 1.44928,-1.16312 3.32607,-2.11351 5.14072,-2.60322 1.53487,-0.41421 5.18584,-0.67197 5.18584,-0.36613 0,0.1158 -0.54769,0.57008 -1.21709,1.00952 -1.47679,0.96948 -5.19925,4.68161 -6.1572,6.14012 l -0.6951,1.05834 0.59511,0.0546 c 2.42751,0.22258 2.94525,0.49771 1.49227,0.79302 -2.24304,0.45587 -6.74951,2.41182 -9.23962,4.01028 -1.68476,1.08143 -4.67504,3.46414 -4.67504,3.72511 0,0.18592 0.54378,0.0593 0.9525,-0.22183 0.40295,-0.27714 3.12121,-1.28889 3.21388,-1.19622 0.0512,0.0512 -0.17943,0.41262 -0.51246,0.8032 -2.53869,2.97733 -8.10667,11.03878 -7.82143,11.32403 0.0521,0.0521 0.65397,-0.18553 1.3374,-0.52815 1.61311,-0.80867 4.31178,-1.39069 4.31178,-0.9299 0,0.088 -0.30874,0.29665 -0.68609,0.46368 -1.35017,0.59765 -4.10502,2.61821 -5.74166,4.21126 -2.14123,2.08419 -3.91487,4.45618 -5.05164,6.75583 -1.19451,2.41644 -1.3016,1.48156 -0.2427,-2.11869 0.48693,-1.65554 -3.98949,2.66215 -6.11585,5.899 -0.77388,1.17805 -2.09272,3.53174 -2.93074,5.23042 -0.83802,1.69869 -1.60377,3.03902 -1.70167,2.97852 -0.0979,-0.0605 -0.17799,-0.49332 -0.17799,-0.96182 0,-1.00475 -0.30486,-1.00901 -0.97944,-0.0137 -0.37051,0.54666 -0.42194,0.825 -0.29034,1.57118 0.088,0.49875 0.22107,1.83551 0.2958,2.97057 0.13561,2.05999 -0.0466,2.64201 -0.46395,1.48167 -0.49253,-1.36945 -1.22802,-2.80762 -1.48656,-2.90683 -0.18499,-0.071 -0.5631,0.49903 -1.12163,1.69091 -0.46342,0.9889 -0.89968,1.79801 -0.96947,1.79801 -0.0698,0 -0.0624,-0.92869 0.0164,-2.06376 z m -4.20491,-18.47952 c -5.624988,-6.69949 -6.247528,-7.4602 -6.247528,-7.63407 0,-0.54793 2.83178,-0.45083 4.72329,0.16197 0.56052,0.18159 1.058388,0.29091 1.106368,0.24293 0.24653,-0.24653 -2.033528,-3.57796 -3.361458,-4.91149 -1.36274,-1.36849 -3.33487,-2.87607 -3.76232,-2.87607 -0.0898,0 -0.1925,0.38497 -0.2283,0.85548 l -0.0651,0.85548 -2.11021,-2.60173 c -2.14056,-2.63915 -10.14448,-10.81492 -14.87605,-15.19544 -1.4261,-1.32029 -2.59291,-2.473 -2.59291,-2.56156 0,-0.20769 0.75833,0.021 2.85533,0.86116 3.18417,1.27571 6.23751,3.10994 9.25529,5.55993 1.59553,1.29534 1.99077,1.85501 1.30997,1.85501 -0.18576,0 -0.61877,0.20012 -0.96226,0.4447 l -0.62452,0.4447 2.02895,1.23706 c 2.02295,1.2334 4.29629,2.92989 5.0613,3.77703 0.40267,0.44591 0.40222,0.44651 -0.32996,0.44651 -0.8311,0 -1.78294,0.53738 -1.23743,0.69861 0.17462,0.0516 0.87745,0.25764 1.56183,0.45785 2.36856,0.6929 4.33586,1.99448 6.51363,4.30946 2.261958,2.40449 3.720778,5.41022 4.101718,8.45117 0.21125,1.68637 0.66122,1.38407 1.24364,-0.83554 0.16199,-0.61731 0.34334,-0.9795 0.40302,-0.80488 0.4315,1.2627 1.31435,7.15736 1.10353,7.36818 -0.0673,0.0673 -0.41246,-0.22947 -0.76697,-0.65955 -0.35451,-0.43008 -0.73287,-0.78196 -0.84081,-0.78196 -0.10794,0 -0.20175,0.54768 -0.20846,1.21708 -0.007,0.6694 -0.0789,1.59286 -0.16045,2.05214 l -0.14826,0.83506 z m 9.56044,3.04902 c -0.0795,-0.0796 -0.14464,-0.98601 -0.14464,-2.01436 0,-1.02835 -0.0799,-1.86972 -0.17766,-1.86972 -0.0977,0 -0.50147,0.35585 -0.89725,0.79078 -0.92038,1.01143 -0.96894,0.79512 -0.52276,-2.32868 0.4319,-3.02375 0.77365,-4.61142 0.96691,-4.49198 0.0835,0.0516 0.21416,0.48364 0.29034,0.96009 0.14808,0.92604 0.70579,1.95559 0.97067,1.79189 0.0883,-0.0546 0.22428,-0.60147 0.30209,-1.21527 0.4633,-3.65477 2.73014,-7.54525 5.80267,-9.95884 1.81912,-1.42899 3.76143,-2.39026 6.14758,-3.0425 0.55159,-0.15077 -0.19582,-0.70883 -0.94934,-0.70883 -0.3932,0 -0.71492,-0.0786 -0.71492,-0.1747 0,-0.16654 1.80422,-1.66597 3.38667,-2.81455 0.40746,-0.29575 1.4314,-0.94563 2.27542,-1.44419 0.84402,-0.49856 1.53458,-0.99794 1.53458,-1.10973 0,-0.1118 -0.38003,-0.36288 -0.84451,-0.55796 -0.46449,-0.19509 -0.84549,-0.45413 -0.84667,-0.57566 -0.003,-0.33148 2.38081,-2.27746 4.67082,-3.81257 2.6553,-1.77997 8.67414,-4.59741 9.03993,-4.23162 0.10442,0.10442 0.24635,-0.036 -4.71627,4.66682 -7.04396,6.67522 -9.17699,8.88007 -12.79666,13.22753 -2.00602,2.40937 -2.51216,2.77886 -2.2218,1.62196 0.20476,-0.81584 -0.24294,-0.85225 -1.33181,-0.10831 -2.21278,1.51183 -4.89089,4.54285 -5.67765,6.42584 -0.34625,0.82867 -0.27926,0.86243 0.89155,0.44934 1.61143,-0.56854 4.73673,-0.67976 4.72936,-0.16829 -0.002,0.11501 -8.29801,10.11131 -8.86037,10.67587 -0.0889,0.0892 -0.22673,0.0972 -0.30628,0.0176 z m -4.90843,-16.23073 c -1.74545,-0.57266 -4.26776,-2.06683 -5.509258,-3.26358 -0.69453,-0.6695 -2.38744,-2.47891 -3.76202,-4.02091 -1.37458,-1.54201 -2.6978,-2.90991 -2.94048,-3.03979 -0.69242,-0.37057 -3.17066,-1.0354 -3.87294,-1.03898 -1.32622,-0.007 -1.23236,-0.35481 0.20027,-0.7426 0.77175,-0.20891 1.44501,-0.4475 1.49612,-0.5302 0.0511,-0.0827 -0.45269,-0.58042 -1.11956,-1.10602 -1.79516,-1.41487 -3.55064,-3.22561 -4.97551,-5.13211 l -1.26555,-1.69333 0.97969,-0.0645 c 0.53884,-0.0355 0.9797,-0.14997 0.9797,-0.25441 0,-0.30241 -1.80263,-1.4608 -3.45554,-2.22057 -2.25272,-1.03549 -4.63134,-1.45781 -7.33947,-1.30313 -2.45361,0.14015 -2.45915,0.0316 -0.0416,-0.81487 0.77961,-0.27299 1.70321,-0.60642 2.05246,-0.74096 l 0.635,-0.24463 -0.635,-0.35345 c -0.7638,-0.42516 -3.60418,-0.46041 -5.3975,-0.067 -0.64029,0.14046 -1.68804,0.35944 -2.32833,0.48661 -1.04829,0.2082 -5.87619,1.41325 -7.19237,1.79523 -0.48756,0.1415 -0.46797,0.0857 0.27546,-0.78466 3.15179,-3.68995 6.91691,-8.53106 6.91691,-8.89362 0,-0.57201 -3.69341,0.39194 -5.46704,1.42685 -0.50391,0.29403 -0.96375,0.48706 -1.02187,0.42894 -0.24391,-0.24392 3.25579,-3.92167 5.6437,-5.93081 2.89633,-2.43693 6.22675,-4.77653 6.46303,-4.54024 0.10599,0.10598 -1.50591,1.66912 -2.97199,2.88207 l -0.84666,0.70048 0.635,-0.1244 c 2.61822,-0.51294 3.28804,-0.60203 3.43299,-0.45661 0.0909,0.0912 0.16483,0.89589 0.16422,1.78812 -0.002,2.3166 -0.79973,3.94392 -3.00949,6.13612 -0.90533,0.89814 -1.93181,1.83429 -2.28106,2.08033 -0.34925,0.24605 -0.58376,0.50174 -0.52113,0.56821 0.0626,0.0665 0.777,0.0259 1.5875,-0.0901 2.61296,-0.374 6.57775,0.39607 9.47198,1.83971 1.44542,0.72097 3.37832,2.21331 4.72251,3.64611 l 1.07919,1.15034 0.13789,-0.68947 c 0.0758,-0.37921 0.14132,-0.98713 0.14551,-1.35093 l 0.008,-0.66146 0.48761,0.59591 c 0.69681,0.85157 2.54765,4.63319 3.16256,6.46172 0.66638,1.98155 0.89784,2.21916 1.05081,1.07866 0.0653,-0.48678 0.20716,-0.97349 0.31525,-1.08158 0.12093,-0.12094 1.27271,1.39228 2.99423,3.93385 2.93496,4.33304 3.51806,4.94048 5.885088,6.13073 1.98273,0.99702 2.95019,1.23464 4.47649,1.0995 1.7586,-0.1557 2.31573,-0.1554 4.12748,0.002 1.24698,0.1085 1.6764,0.0453 3.01719,-0.44366 1.70875,-0.62321 3.67083,-1.81499 4.56782,-2.77452 0.31474,-0.33669 1.69892,-2.26874 3.07596,-4.29345 1.37704,-2.02471 2.59078,-3.69099 2.69721,-3.70284 0.10643,-0.0119 0.3012,0.4547 0.43281,1.03679 0.27461,1.21448 0.22475,1.27687 1.26874,-1.5875 0.72111,-1.97848 2.8392,-6.08742 3.21163,-6.23034 0.20747,-0.0796 0.27722,0.18174 0.27722,1.03866 0,0.62976 0.0765,1.19228 0.16992,1.25004 0.0934,0.0578 0.58461,-0.37642 1.09146,-0.96483 1.74905,-2.03052 5.12693,-4.10678 7.94612,-4.88418 2.17001,-0.59839 4.7135,-0.84391 6.22344,-0.60074 0.74415,0.11984 1.43504,0.16718 1.53533,0.1052 0.10028,-0.062 -0.31726,-0.50759 -0.92787,-0.99025 -3.39083,-2.68028 -4.82007,-5.06483 -4.82007,-8.04179 0,-1.71746 0.1547,-1.83539 1.88755,-1.43894 2.60671,0.59639 2.57561,0.61131 1.17709,-0.56478 -1.54628,-1.30035 -2.79961,-2.59638 -2.51085,-2.59638 0.297,0 3.46901,2.18501 5.34466,3.68161 2.27808,1.81771 7.22364,6.90172 6.71376,6.90172 -0.0678,0 -0.76642,-0.32602 -1.55237,-0.7245 -2.08657,-1.0579 -4.92151,-1.72981 -4.92151,-1.16646 0,0.34018 2.683,3.88803 5.20611,6.88428 1.23186,1.46286 2.19637,2.7031 2.14336,2.75611 -0.053,0.053 -0.51388,-0.0406 -1.02417,-0.20814 -1.18131,-0.38771 -4.73054,-1.25383 -7.5953,-1.85347 -3.39499,-0.71063 -6.985,-0.60646 -6.985,0.20267 0,0.0883 0.81097,0.42469 1.80215,0.74749 0.99118,0.32279 2.06275,0.72314 2.38125,0.88967 0.5235,0.2737 0.36571,0.29001 -1.6434,0.16986 -2.44812,-0.1464 -4.6526,0.18517 -6.77333,1.01877 -1.36644,0.53711 -4.02167,2.18622 -4.02167,2.49779 0,0.11876 0.381,0.21594 0.84667,0.21594 0.46567,0 0.84667,0.0894 0.84667,0.19863 0,0.10926 -0.56168,0.94269 -1.24817,1.85209 -1.22815,1.62693 -3.23568,3.67091 -5.09528,5.18781 l -0.94595,0.77162 0.52262,0.21055 c 0.28743,0.11581 0.97778,0.32691 1.5341,0.46913 0.55631,0.14222 0.97778,0.29228 0.93659,0.33347 -0.0412,0.0412 -0.8337,0.20736 -1.76113,0.36927 -2.75385,0.48076 -3.56738,0.94114 -5.37482,3.04165 -0.872,1.0134 -2.50461,2.79746 -3.62801,3.96458 -1.80714,1.87746 -2.29504,2.25159 -4.23333,3.24617 -2.43533,1.24962 -3.86045,1.52268 -5.36708,1.02838 z m 3.43091,-2.28471 c 1.30023,-0.52274 1.70604,-0.73385 3.07913,-1.60189 0.78581,-0.49677 1.42875,-0.97971 1.42875,-1.0732 0,-0.0935 -0.67642,-0.0765 -1.50316,0.0378 -1.26996,0.17553 -1.67223,0.14866 -2.59292,-0.17322 -0.59936,-0.20953 -1.33681,-0.61303 -1.63878,-0.89664 l -0.54903,-0.51567 -1.10112,0.741 c -0.60561,0.40755 -1.43835,0.80426 -1.85053,0.88159 -0.74635,0.14001 -2.70214,-0.008 -3.34062,-0.25327 -0.18453,-0.0708 -0.33428,-0.0471 -0.33277,0.0526 0.004,0.27837 3.00551,2.16842 4.15876,2.61893 1.15931,0.45289 3.33615,0.54625 4.24229,0.18194 z m -3.81507,-7.61659 c -0.79408,-0.22392 -1.81663,-0.59733 -2.27232,-0.82981 -1.84721,-0.94237 -1.84407,-2.2556 0.005,-2.05412 1.17743,0.1283 1.4887,0.0253 1.4887,-0.49255 0,-0.67249 -0.89424,-1.09612 -1.9725,-0.93443 -1.12135,0.16816 -1.70685,-0.0912 -2.152808,-0.95357 -0.66999,-1.29562 -0.28091,-3.20353 0.871328,-4.27273 1.12987,-1.04844 2.37132,-1.27866 6.46181,-1.19831 3.32854,0.0654 3.75531,0.11685 4.57069,0.55114 3.07365,1.63712 2.6985,6.35527 -0.46757,5.88049 -1.14995,-0.17245 -1.80761,0.12741 -1.80761,0.82414 0,0.62472 0.26501,0.72921 1.50596,0.59378 1.08822,-0.11877 1.36069,0.0936 1.15769,0.90242 -0.22414,0.89307 -2.79171,2.05125 -5.09782,2.29953 -0.47511,0.0512 -1.48027,-0.0875 -2.29045,-0.31598 z m -8.818918,-9.13164 c 0.002,-0.14552 0.15938,-0.88371 0.35035,-1.64041 0.45645,-1.80867 0.46912,-6.91591 0.0202,-8.14917 -0.43722,-1.20114 -1.01613,-1.23077 -1.8395,-0.0941 -0.35258,0.48672 -0.70168,1.20812 -0.77578,1.60312 -0.0741,0.395 -0.19755,0.75701 -0.27433,0.80446 -0.0768,0.0474 -0.41616,-0.59654 -0.75417,-1.43109 -0.33802,-0.83455 -1.0312,-2.31636 -1.54041,-3.29291 l -0.92584,-1.77555 0.87845,0.11782 c 0.48314,0.0648 1.49536,0.0218 2.24937,-0.0956 1.52497,-0.23742 1.78512,-0.15071 1.26667,0.42217 -0.19332,0.21361 -0.35148,0.55948 -0.35148,0.76859 0,0.59562 1.08842,0.27064 2.83399,-0.84616 1.36063,-0.87051 2.03669,-0.97033 1.40334,-0.2072 -0.53305,0.64229 -0.84792,2.47252 -0.59997,3.48747 0.30312,1.24081 0.33678,1.26723 0.81741,0.64169 l 0.40415,-0.526 0.005,1.08352 c 0.0115,2.64324 -1.03023,6.33078 -2.4025,8.5046 -0.58248,0.92271 -0.77,1.07593 -0.76467,0.62479 z m 20.970148,-0.34474 c -0.65033,-0.91331 -1.69869,-3.22357 -2.05096,-4.51971 -0.1667,-0.61332 -0.36295,-2.06763 -0.43612,-3.2318 l -0.13304,-2.11666 0.43853,0.52916 c 0.42468,0.51246 0.44404,0.5158 0.613,0.10584 0.096,-0.23284 0.17424,-1.04246 0.17395,-1.79917 -4.2e-4,-1.04554 -0.11473,-1.5693 -0.47625,-2.18168 -0.76875,-1.30223 -0.61807,-1.31652 1.23728,-0.11735 1.65545,1.06997 2.46513,1.38056 2.7795,1.06619 0.16168,-0.16168 0.12171,-0.38793 -0.13878,-0.78549 -0.20124,-0.30712 -0.32253,-0.60176 -0.26954,-0.65474 0.053,-0.053 0.69972,8.4e-4 1.43719,0.11959 0.73746,0.11876 1.70184,0.15821 2.14307,0.0876 0.44122,-0.0705 0.80222,-0.0741 0.80222,-0.008 0,0.0663 -0.50257,1.15 -1.11684,2.40831 -0.61426,1.2583 -1.28519,2.71645 -1.49094,3.24032 l -0.37411,0.9525 -0.36511,-1.06276 c -0.51244,-1.49159 -1.22484,-2.42973 -1.84508,-2.42973 -0.78062,0 -1.03845,1.23262 -1.04045,4.97417 -10e-4,2.48689 0.0839,3.46296 0.39326,4.50368 0.21723,0.73078 0.34445,1.3792 0.28271,1.44094 -0.0617,0.0617 -0.31531,-0.17291 -0.56349,-0.52145 z m -26.047298,-3.57254 c -0.28776,-0.43576 -1.12481,-1.38087 -1.86012,-2.10022 -2.05584,-2.01125 -3.83918,-2.67642 -4.13569,-1.54257 -0.15752,0.60234 -0.39283,0.5061 -1.03547,-0.42348 -0.31321,-0.45306 -1.07521,-1.22586 -1.69333,-1.71734 -1.99361,-1.58514 -3.52243,-2.09863 -7.31206,-2.4559 l -1.31985,-0.12443 0.71119,-0.97668 c 0.82099,-1.12747 1.41788,-2.26301 2.01349,-3.83053 0.536,-1.41064 1.25387,-2.45885 1.87902,-2.74369 0.69316,-0.31582 1.79844,-0.27687 2.2818,0.0804 0.39196,0.28972 0.3755,0.31859 -0.35754,0.62726 -2.14688,0.90399 -2.70325,3.50865 -1.07878,5.05032 0.87022,0.82587 2.03025,1.18489 4.5953,1.42223 2.78858,0.25802 4.11511,0.81665 5.39673,2.27264 1.43386,1.62895 2.72367,4.76148 2.74846,6.67511 0.0102,0.78666 -0.21019,0.73029 -0.83315,-0.21312 z m 30.904398,0.0399 c -0.0152,-1.85951 1.19382,-4.78948 2.64013,-6.39812 1.37908,-1.53387 2.67436,-2.10511 5.39616,-2.37979 1.22237,-0.12335 2.59317,-0.33396 3.04622,-0.46801 1.10489,-0.32691 2.14,-1.34521 2.46288,-2.42286 0.24085,-0.8039 0.21935,-0.97355 -0.24108,-1.90217 -0.36429,-0.73472 -0.75929,-1.15839 -1.41386,-1.51649 -0.73513,-0.40218 -0.86136,-0.55353 -0.66199,-0.79375 0.33376,-0.40216 1.88965,-0.37782 2.48455,0.0389 0.64464,0.45152 1.355,1.61862 1.92141,3.15681 0.2572,0.6985 0.89122,1.9118 1.40892,2.69622 0.51771,0.78441 0.94128,1.47498 0.94128,1.53458 0,0.0596 -0.35145,0.10837 -0.78101,0.10837 -0.42955,0 -1.35824,0.10274 -2.06375,0.22832 -3.40585,0.6062 -5.009,1.43975 -6.99953,3.63936 -0.63889,0.706 -1.1856,1.24377 -1.21492,1.19506 -0.0293,-0.0487 -0.15827,-0.27907 -0.28657,-0.5119 -0.37208,-0.6752 -0.96021,-0.60461 -2.32795,0.27941 -1.11103,0.71809 -2.2862,1.88496 -3.87546,3.84809 l -0.42839,0.52916 -0.007,-0.86116 z M 83.392852,123.031 c -0.95254,-1.13203 -1.38453,-2.19839 -1.38453,-3.4177 0,-0.99599 0.0928,-1.24287 0.75978,-2.02214 0.41788,-0.48819 1.17834,-1.1756 1.6899,-1.52757 0.51157,-0.35196 1.21961,-0.94599 1.57344,-1.32005 1.02436,-1.08295 1.18115,-2.38223 0.17129,-1.41945 -1.48768,1.41832 -3.90839,2.32684 -6.19975,2.32684 -0.92185,0 -1.66192,-0.10956 -1.89595,-0.28069 -0.34233,-0.25032 -0.22898,-0.31891 1.04751,-0.63392 2.88642,-0.71229 5.18211,-2.39118 5.18211,-3.78977 0,-0.68833 -0.82913,-1.64765 -1.41913,-1.64194 -1.32711,0.0128 -5.04817,1.13256 -6.08921,1.83234 -0.49777,0.3346 -0.80946,0.36322 -0.71012,0.0652 0.0395,-0.11849 1.02374,-1.17399 2.18722,-2.34554 3.86502,-3.89187 8.36096,-6.33281 11.64041,-6.31981 l 1.05833,0.004 -0.635,0.46061 c -0.93999,0.68184 -2.2225,1.9818 -2.2225,2.25274 0,0.15493 0.59419,0.23657 1.7217,0.23657 1.45398,0 3.18996,0.28196 3.56384,0.57885 0.15474,0.12287 -0.48243,0.47262 -0.8676,0.47624 -0.18952,0.002 -0.71339,0.15939 -1.16417,0.35023 l -0.8196,0.34698 1.30984,0.37352 c 1.90289,0.54264 3.29549,1.3753 4.61655,2.76029 1.19149,1.24915 1.58492,2.03637 0.68819,1.37701 -0.26193,-0.1926 -1.00012,-0.60305 -1.64041,-0.91211 -0.97459,-0.47043 -1.45715,-0.56288 -2.96334,-0.56776 -2.09376,-0.007 -2.74823,0.26004 -3.87943,1.58159 -1.18204,1.38095 -1.27308,3.2525 -0.22718,4.67014 0.52988,0.71821 0.41497,1.01973 -0.3913,1.02678 -0.93198,0.008 -0.0692,1.38832 1.74625,2.79355 1.21654,0.94163 2.60744,1.57539 3.87453,1.7654 1.42202,0.21324 1.40561,0.4595 -0.0418,0.62749 -1.67141,0.19399 -3.44653,-0.0456 -5.04979,-0.68171 -1.3399,-0.53158 -1.58059,-0.84913 -1.00541,-1.32649 0.47228,-0.39196 0.3886,-0.80813 -0.30122,-1.49795 -1.08618,-1.08617 -2.56463,-0.75659 -3.26952,0.72887 -0.4132,0.87075 -0.42778,1.86116 -0.0433,2.93867 0.34536,0.96773 0.13218,1.01328 -0.61065,0.13048 z m 45.912198,0.32173 c 0.7307,-1.79531 0.62092,-3.08877 -0.34613,-4.07789 -0.87033,-0.89019 -1.86495,-0.90545 -2.72855,-0.0418 -0.69149,0.69148 -0.7705,1.10426 -0.30122,1.57354 0.45042,0.45042 0.39834,0.63221 -0.26458,0.92353 -2.11021,0.92735 -3.893,1.23164 -5.93483,1.01298 -1.46721,-0.15713 -1.44736,-0.36012 0.0611,-0.62461 1.56464,-0.27436 3.75509,-1.49413 4.94781,-2.75525 1.1342,-1.19925 1.26858,-1.64261 0.53798,-1.77487 -0.71236,-0.12897 -0.76246,-0.37919 -0.23234,-1.16037 1.3658,-2.01261 0.65932,-4.48717 -1.62883,-5.7053 -1.33623,-0.71137 -3.83093,-0.65257 -5.52388,0.13019 -0.69534,0.3215 -1.43411,0.73826 -1.64171,0.92614 -0.68006,0.61544 -0.60579,0.14806 0.12949,-0.8149 1.2106,-1.58548 3.16279,-2.8114 5.35883,-3.36519 0.60538,-0.15266 1.0604,-0.34275 1.01116,-0.42242 -0.0492,-0.0797 -0.66361,-0.30593 -1.36527,-0.50281 -0.70166,-0.19687 -1.27574,-0.42852 -1.27574,-0.51477 0,-0.3006 1.92242,-0.66795 3.49554,-0.66795 1.19661,0 1.58446,-0.0706 1.58446,-0.28853 0,-0.28775 -1.66416,-1.91932 -2.44566,-2.39777 -0.35188,-0.21543 -0.24567,-0.25395 0.72951,-0.26458 2.09096,-0.0228 5.21431,1.1629 7.96032,3.02194 1.41561,0.95837 6.19713,5.54986 5.99257,5.75442 -0.0719,0.0719 -0.53158,-0.0738 -1.02153,-0.32374 -1.11803,-0.57037 -2.96682,-1.16511 -4.65315,-1.49688 -1.19514,-0.23513 -1.34525,-0.22176 -1.86709,0.16631 -0.42363,0.31502 -0.58371,0.63933 -0.63153,1.2794 -0.0559,0.74759 0.034,0.95268 0.70181,1.60121 0.94938,0.92203 2.73984,1.81972 4.54808,2.2803 1.33971,0.34123 1.36019,0.3567 0.77997,0.58918 -0.74987,0.30045 -2.94751,0.30701 -4.0608,0.0121 -1.28084,-0.33928 -2.45903,-0.92553 -3.58063,-1.78167 -0.55649,-0.42478 -1.05821,-0.72592 -1.11492,-0.6692 -0.0567,0.0567 0.0597,0.44622 0.25868,0.86557 0.22675,0.47784 1.06125,1.31418 2.23558,2.24052 2.21871,1.75017 2.60282,2.36521 2.47088,3.95634 -0.0747,0.90099 -0.27194,1.39149 -0.93852,2.33419 -0.85384,1.20752 -1.56718,1.76973 -1.24684,0.98268 z m -32.056728,-4.92445 c 0,-0.10229 -0.30956,-0.2982 -0.68792,-0.43534 -2.38396,-0.86413 -4.64346,-2.63041 -5.57303,-4.35651 -0.5638,-1.04692 -0.2644,-1.24516 1.88054,-1.24516 1.44263,0 1.94368,0.093 2.79358,0.51858 0.56962,0.28522 1.21426,0.76494 1.43255,1.06603 0.42572,0.58723 0.88036,3.35142 0.68457,4.16214 -0.10937,0.45282 -0.53029,0.68323 -0.53029,0.29026 z m -1.57788,-3.29689 c 0.56996,-0.56995 0.60746,-0.70707 0.3184,-1.16401 -0.16445,-0.25997 -0.27576,-0.26431 -0.7174,-0.028 -0.60686,0.32478 -0.93542,0.17995 -1.20594,-0.53156 -0.14418,-0.37923 -0.35305,-0.5086 -0.82112,-0.5086 -0.34526,0 -0.67677,0.0793 -0.7367,0.17629 -0.20435,0.33065 0.6114,1.61327 1.33236,2.09491 0.91168,0.60904 1.18818,0.60314 1.8304,-0.0391 z m 20.043408,1.71645 c 0.18504,-2.96599 0.93368,-3.90224 3.48844,-4.36262 1.34034,-0.24154 3.36017,-0.10778 3.57302,0.23661 0.21475,0.34748 -0.93732,2.0032 -2.22046,3.19116 -0.90589,0.8387 -1.69129,1.33472 -2.75999,1.74309 -0.82158,0.31395 -1.54764,0.65797 -1.61348,0.7645 -0.0658,0.10653 -0.22277,0.19369 -0.34872,0.19369 -0.15475,0 -0.19327,-0.57283 -0.11881,-1.76643 z m 3.90794,-1.61167 c 0.68094,-0.41519 1.3332,-1.39803 1.3332,-2.00889 0,-0.22394 -0.20313,-0.32801 -0.64024,-0.32801 -0.48989,0 -0.68797,0.12554 -0.84349,0.53459 -0.25393,0.66789 -0.67626,0.8404 -1.27412,0.52043 -0.59186,-0.31675 -0.94053,-8.5e-4 -0.76609,0.69425 0.11616,0.46283 0.76203,0.95279 1.30144,0.98728 0.11641,0.007 0.5166,-0.1724 0.8893,-0.39965 z m -20.327768,-1.54315 c -0.1125,-1.29716 -0.35438,-2.33518 -1.13072,-4.8523 -0.0815,-0.26425 0.0439,-0.37382 0.49328,-0.43081 l 0.60257,-0.0764 -1.16416,-1.16037 c -1.1603,-1.15651 -2.87424,-2.14856 -4.18042,-2.41968 -0.37835,-0.0785 -0.68718,-0.20666 -0.68629,-0.28472 8.5e-4,-0.0781 0.3819,-0.35909 0.84667,-0.6245 0.98857,-0.56454 1.03763,-0.73756 0.30393,-1.07186 -0.2976,-0.1356 -0.48902,-0.33081 -0.42537,-0.43379 0.0636,-0.10299 1.25965,-0.25599 2.65777,-0.33999 1.78977,-0.10754 2.54204,-0.22989 2.54204,-0.41346 0,-0.14339 -0.381,-1.17256 -0.84667,-2.287034 -0.46566,-1.11447 -0.84666,-2.13399 -0.84666,-2.26561 0,-0.22919 2.670908,1.11111 3.842668,1.92831 0.76322,0.53227 1.09818,0.50273 0.95722,-0.0844 -0.0629,-0.26194 -0.17449,-0.85725 -0.24802,-1.32292 l -0.13369,-0.84666 0.45897,0.52714 c 0.70064,0.80472 1.50282,2.49646 1.90794,4.023694 0.20073,0.75671 0.32841,1.41494 0.28373,1.46273 -0.0447,0.0478 -0.26285,-0.0775 -0.48484,-0.27837 -0.22199,-0.2009 -0.4463,-0.28763 -0.49845,-0.19273 -0.0522,0.0949 -0.0168,0.98216 0.0787,1.9717 0.0997,1.03444 0.0857,2.83381 -0.033,4.23334 -0.22232,2.62057 -1.01007,6.15991 -1.39994,6.28986 -0.13174,0.0439 -0.45624,-0.2708 -0.72111,-0.69937 -0.52522,-0.84982 -0.53916,-0.84412 -1.30153,0.53199 -0.198308,0.35797 -0.446268,0.65085 -0.551018,0.65085 -0.10475,0 -0.25034,-0.69056 -0.32354,-1.53458 z m 13.813338,0.5491 -0.47707,-0.98548 -0.39692,0.49018 c -0.2183,0.2696 -0.48244,0.64163 -0.58697,0.82673 -0.29649,0.52504 -0.56756,0.0844 -1.02983,-1.67428 -0.69635,-2.64913 -0.9564,-5.28319 -0.80891,-8.19328 0.12988,-2.56267 0.12056,-2.64915 -0.24929,-2.31443 -0.57018,0.516 -0.71796,0.42673 -0.56322,-0.34021 0.30563,-1.51482 1.41426,-3.992684 2.17875,-4.869634 0.47979,-0.55037 0.54547,-0.30806 0.23981,0.8846 -0.31816,1.24139 -0.19685,1.47462 0.52201,1.0036 1.20704,-0.79088 4.15093,-2.27174 4.15093,-2.08803 0,0.10982 -0.42515,1.17912 -0.94477,2.37623 -0.51963,1.197114 -0.90016,2.248764 -0.84562,2.337014 0.0545,0.0883 1.24371,0.22877 2.6426,0.31226 1.39888,0.0835 2.58578,0.22034 2.63755,0.30411 0.0518,0.0838 -0.14075,0.278 -0.42781,0.43163 -0.28707,0.15364 -0.52195,0.3573 -0.52195,0.45258 0,0.0953 0.39898,0.42511 0.88661,0.73294 l 0.88661,0.55969 -1.18582,0.3669 c -1.46215,0.4524 -2.50868,1.08282 -3.81531,2.29833 -1.14407,1.06427 -1.28966,1.508 -0.4416,1.34588 0.48589,-0.0929 0.54204,-0.0523 0.40622,0.29393 -0.60865,1.55134 -0.98192,3.12666 -1.28636,5.4288 -0.0731,0.55298 -0.21387,1.00542 -0.31277,1.00542 -0.0989,0 -0.39449,-0.44346 -0.65687,-0.98548 z m -44.222378,-0.91589 c 0,-0.0926 0.38471,-0.86952 0.85491,-1.72643 3.35545,-6.11513 4.99039,-10.56036 5.41755,-14.729694 0.0748,-0.73013 0.18379,-1.32751 0.24219,-1.32751 0.0584,0 0.22165,0.15791 0.36277,0.35091 0.22671,0.31003 0.35482,0.22665 1.09992,-0.71598 0.46383,-0.58679 1.06049,-1.60194 1.32591,-2.25591 0.47129,-1.16117 1.02001,-1.66005 0.78399,-0.71277 -0.0653,0.26194 -0.17709,0.90488 -0.2485,1.42875 -0.36534,2.68012 -1.24767,5.68639 -2.3403,7.973884 -0.3988,0.83493 -0.7251,1.56666 -0.7251,1.62608 0,0.0594 0.80309,-0.38558 1.78464,-0.98888 0.98156,-0.6033 2.73987,-1.64953 3.90736,-2.324964 2.58667,-1.49646 5.03661,-3.74612 4.07963,-3.74612 -0.48545,0 -3.08304,0.98193 -4.55818,1.72307 -0.91615,0.46028 -1.72133,0.78127 -1.7893,0.7133 -0.25387,-0.25387 2.70871,-2.79114 4.42567,-3.79032 3.00995,-1.75162 4.57475,-2.86376 5.33337,-3.79054 1.98544,-2.42555 2.79137,-4.623727 2.29843,-6.269008 -0.33854,-1.129949 -1.33829,-2.2548 -2.28037,-2.565713 -1.02609,-0.33864 -2.37521,0.187536 -3.32453,1.29661 l -0.71111,0.830763 -0.12916,-1.958662 c -0.2294,-3.478717 -1.48769,-6.350193 -3.71265,-8.472453 -1.90548,-1.817519 -2.54936,-1.662416 -4.2206,1.016682 -2.17199,3.481838 -3.5419,8.096964 -3.7951,12.785381 -0.13095,2.42472 -0.13535,2.44123 -0.45571,1.70756 -0.25257,-0.57843 -0.32236,-1.59925 -0.31833,-4.656667 0.005,-3.55007 0.0593,-4.133315 0.58489,-6.244167 0.88592,-3.558005 2.66461,-7.791201 4.52571,-10.770987 l 0.51381,-0.822653 0.79978,0.822653 c 0.43987,0.452459 3.29951,3.584903 6.35475,6.960986 4.78047,5.282502 10.90924,11.535838 11.30605,11.535838 0.0684,0 0.12428,-0.212214 0.12428,-0.47158 0,-0.384626 0.33408,-0.140699 1.81183,1.32292 0.99651,0.986967 2.340818,2.437427 2.987348,3.223237 0.64654,0.78581 1.27312,1.42875 1.3924,1.42875 0.21132,0 0.0851,-2.17284 -0.19672,-3.38667 -0.11293,-0.4864 -0.0525,-0.46185 0.74726,0.30375 0.47856,0.4581 0.92575,0.77728 0.99374,0.70928 0.11086,-0.11085 -0.16444,-1.40007 -0.46772,-2.190427 -0.0642,-0.16735 -0.0125,-0.30426 0.11489,-0.30426 0.42798,0 2.02838,3.535337 2.57024,5.677727 0.19276,0.76216 0.28251,0.87288 0.53661,0.662 0.16782,-0.13928 0.30512,-0.4563 0.30512,-0.70449 0,-1.09598 2.35132,-6.352825 2.49887,-5.586697 0.0365,0.18969 -0.077,0.827857 -0.25232,1.418167 -0.1753,0.59031 -0.26846,1.07329 -0.20701,1.07329 0.0614,0 0.55054,-0.35719 1.08688,-0.79375 0.72608,-0.59101 0.93353,-0.68562 0.81216,-0.37042 -0.27266,0.70812 -0.42442,3.4925 -0.19035,3.4925 0.11605,0 0.64928,-0.55787 1.18496,-1.2397 0.53568,-0.68184 1.85512,-2.13439 2.9321,-3.227897 1.76666,-1.793788 1.96942,-1.941138 2.07351,-1.50687 0.10717,0.44714 0.21331,0.387005 1.49422,-0.846681 0.75836,-0.730409 1.90136,-1.791117 2.54,-2.357129 0.63863,-0.566011 2.2089,-2.191099 3.48948,-3.611306 3.75172,-4.160779 8.76051,-9.662292 9.90982,-10.884668 l 1.0641,-1.131753 0.37776,0.496753 c 0.6249,0.821752 2.82218,5.254581 3.44628,6.952586 1.58991,4.325726 2.26224,8.882851 1.85746,12.590028 -0.34518,3.161237 -0.58522,3.388387 -0.76021,0.719387 -0.27619,-4.212508 -1.29028,-7.924398 -3.12179,-11.426641 -1.42122,-2.717674 -2.13386,-3.576107 -2.96878,-3.576107 -1.77123,0 -4.67561,4.055 -5.4578,7.62 -0.11494,0.523875 -0.21132,1.651805 -0.21416,2.506511 l -0.005,1.554008 -0.92971,-0.9566 c -1.24533,-1.281358 -2.32224,-1.616698 -3.4281,-1.067478 -2.63796,1.310128 -2.88222,4.42333 -0.59854,7.628447 1.23218,1.72934 2.08589,2.42841 5.31357,4.35108 1.74428,1.03904 3.18568,2.0852 4.03962,2.93194 0.73021,0.72406 1.28766,1.35648 1.23877,1.40537 -0.0489,0.0489 -0.76228,-0.25022 -1.58531,-0.66469 -1.59058,-0.80101 -4.66272,-1.90672 -4.83077,-1.73867 -0.4737,0.4737 1.93083,2.50664 5.01085,4.236494 1.37885,0.77442 3.00469,1.74294 3.61296,2.15228 0.60827,0.40933 1.14379,0.70641 1.19004,0.66016 0.0462,-0.0463 -0.2413,-0.73935 -0.639,-1.54022 -1.21457,-2.445894 -1.98372,-5.061654 -2.4718,-8.406274 -0.32939,-2.25717 -0.23877,-2.2828 0.68472,-0.19361 0.38829,0.87841 1.71667,2.7812 2.02625,2.90242 0.15086,0.0591 0.35345,-0.10442 0.45344,-0.36594 l 0.18074,-0.47273 0.11751,0.52917 c 0.0646,0.29104 0.17742,1.10066 0.25066,1.79916 0.19666,1.87569 1.00748,4.957544 1.78203,6.773344 0.0993,0.23283 0.34288,0.80433 0.54125,1.27 0.47426,1.11331 2.05454,4.27015 3.09036,6.17344 0.45401,0.83423 0.82546,1.57241 0.82546,1.64041 0,0.73159 -2.42039,-1.56431 -3.97552,-3.77105 -2.21647,-3.14519 -4.58628,-5.15882 -8.20156,-6.96892 -1.9984,-1.00055 -6.04082,-2.41589 -8.30167,-2.906584 -0.7276,-0.15792 -1.32291,-0.35163 -1.32291,-0.43047 0,-0.0788 0.64293,-0.2079 1.42875,-0.28679 2.03355,-0.20415 2.25717,-0.28571 1.91614,-0.6988 -0.82489,-0.9992 -5.32801,-3.42173 -9.27156,-4.9878 -3.60625,-1.43212 -3.37731,-1.42654 -4.38234,-0.10684 -0.47124,0.61879 -1.11016,1.53339 -1.41981,2.03245 -0.30966,0.49907 -0.64061,0.85944 -0.73544,0.80082 -0.0948,-0.0586 -0.23371,-0.83152 -0.30861,-1.71759 -0.19276,-2.2803 -0.39155,-2.51496 -0.95089,-1.1225 -0.68788,1.71245 -1.68566,6.13958 -1.72372,7.648084 -0.002,0.0914 -0.18891,0.0673 -0.41468,-0.0535 -0.27801,-0.14879 -0.45351,-0.15008 -0.54379,-0.004 -0.23567,0.38133 -0.52738,-0.008 -0.52742,-0.70329 -1e-4,-1.897694 -1.68731,-8.137424 -2.12689,-7.865754 -0.0925,0.0572 -0.2363,0.7399 -0.31954,1.51717 -0.29132,2.72035 -0.24694,2.71097 -1.88619,0.3984 -1.713868,-2.41782 -1.25002,-2.37856 -5.933178,-0.50219 -2.92676,1.17265 -8.5725,4.36777 -8.5725,4.85147 0,0.26849 0.29051,0.34327 1.95792,0.50397 0.78581,0.0757 1.42875,0.21021 1.42875,0.29884 0,0.0886 -0.54769,0.28125 -1.21709,0.42806 -2.16975,0.475854 -5.82773,1.733084 -7.77875,2.673524 -3.7948,1.82917 -6.15001,3.73311 -8.26467,6.68111 -1.52558,2.12676 -3.35663,4.12177 -3.91772,4.2685 -0.22647,0.0592 -0.41177,0.0319 -0.41177,-0.0607 z"
       id="path1524" />
  </g>
</svg>
