<?xml version="1.0" encoding="UTF-8" standalone="no"?>
<!-- Sure Cuts A Lot -->

<svg
   version="1.1"
   scal:dpi="300"
   x="0px"
   y="0px"
   width="6021px"
   height="5904px"
   viewBox="0 0 6021 5904.3"
   xml:space="preserve"
   id="svg3"
   sodipodi:docname="Wolf-Mond.svg"
   inkscape:version="1.1 (c68e22c387, 2021-05-23)"
   xmlns:inkscape="http://www.inkscape.org/namespaces/inkscape"
   xmlns:sodipodi="http://sodipodi.sourceforge.net/DTD/sodipodi-0.dtd"
   xmlns="http://www.w3.org/2000/svg"
   xmlns:svg="http://www.w3.org/2000/svg"
   xmlns:scal="http://www.craftedge.com/namespaces/surecutsalot"><defs
   id="defs7" /><sodipodi:namedview
   id="namedview5"
   pagecolor="#ffffff"
   bordercolor="#666666"
   borderopacity="1.0"
   inkscape:pageshadow="2"
   inkscape:pageopacity="0.0"
   inkscape:pagecheckerboard="0"
   showgrid="false"
   inkscape:zoom="0.063770325"
   inkscape:cx="3081.3705"
   inkscape:cy="2657.9761"
   inkscape:window-width="1920"
   inkscape:window-height="1017"
   inkscape:window-x="-8"
   inkscape:window-y="-8"
   inkscape:window-maximized="1"
   inkscape:current-layer="svg3" />
<path
   id="Wolf.svg"
   style="fill-rule:evenodd;fill:#000000;stroke:none;"
   d="M 3455.67 5699.6 C 3568.13 5694.82 3793.04 5667.35 3924.79 5642.27 C 3978.69 5631.52 4141.72 5592.1 4190.96 5577.17 C 4403.22 5513.27 4638.78 5423.69 4638.78 5406.97 C 4638.78 5396.82 4611.5 5399.21 4584.88 5411.75 C 4571.57 5418.32 4553.61 5423.1 4544.96 5423.1 C 4536.97 5423.1 4527.66 5426.68 4524.99 5430.26 C 4522.33 5433.85 4506.36 5439.22 4489.73 5442.21 C 4473.09 5444.6 4453.13 5449.97 4445.14 5453.55 C 4410.54 5470.87 4134.4 5533.58 4009.3 5552.69 C 3774.41 5589.71 3637.33 5599.87 3387.8 5599.87 C 3039.79 5599.87 2814.21 5572.4 2496.15 5491.18 C 2449.57 5479.83 2324.47 5442.21 2293.2 5430.86 C 2279.89 5425.49 2260.59 5418.92 2251.27 5415.93 C 2126.84 5372.93 1915.91 5279.17 1803.45 5216.47 C 1491.37 5042.09 1210.57 4807.39 982.33 4528.5 C 869.21 4389.95 748.104 4197.66 684.225 4054.33 C 668.92 4020.89 653.616 3986.85 650.289 3978.49 C 619.68 3910.41 577.758 3775.44 554.469 3667.35 C 526.522 3538.95 522.529 3511.48 513.213 3370.54 C 497.243 3133.46 519.202 2888.61 575.097 2677.8 C 580.42 2659.29 586.409 2634.21 588.405 2622.86 C 591.067 2611.51 597.055 2601.96 603.044 2601.96 C 614.356 2601.96 632.988 2633.61 632.988 2652.12 C 632.988 2671.23 682.894 2772.75 700.86 2790.67 C 722.819 2811.57 741.45 2810.97 770.728 2788.28 C 798.676 2766.78 806.661 2741.7 818.638 2640.18 C 831.947 2534.47 872.537 2439.52 939.078 2359.5 C 972.349 2320.08 1060.85 2243.04 1093.45 2226.32 C 1163.32 2189.89 1225.21 2194.67 1272.45 2240.06 C 1307.05 2272.31 1338.99 2320.08 1346.31 2348.15 C 1355.63 2386.97 1340.32 2395.93 1233.19 2412.65 C 1091.46 2434.74 1048.87 2448.48 1006.95 2486.1 C 973.68 2515.96 971.018 2521.34 971.018 2558.36 C 971.684 2628.83 1034.23 2710.65 1151.35 2793.06 C 1235.19 2852.18 1266.46 2893.98 1266.46 2945.34 C 1266.46 2995.51 1253.15 3015.21 1177.3 3076.13 C 1109.42 3131.07 1081.48 3171.08 1080.81 3214.68 C 1080.81 3230.8 1086.8 3243.94 1098.78 3252.3 C 1165.98 3300.67 1181.95 3317.39 1181.95 3337.7 C 1181.95 3358.6 1139.37 3414.74 1098.78 3446.99 C 1075.49 3465.5 1076.15 3489.98 1100.11 3510.29 C 1146.02 3549.11 1328.35 3607.03 1499.36 3637.49 C 1591.18 3653.61 1625.79 3673.32 1698.98 3752.15 C 1727.59 3783.2 1762.86 3814.86 1778.17 3823.22 C 1806.78 3839.34 1841.38 3843.52 1841.38 3830.98 C 1841.38 3826.8 1820.75 3786.79 1796.13 3741.4 C 1692.33 3556.27 1611.81 3358.6 1566.56 3178.25 C 1559.24 3147.19 1549.26 3109.57 1545.27 3095.24 C 1533.96 3053.43 1505.35 2865.92 1494.7 2761.41 C 1483.39 2656.9 1488.04 2390.55 1502.02 2279.47 C 1520.65 2133.76 1555.92 1973.71 1601.17 1832.17 C 1625.12 1754.54 1625.12 1753.35 1603.16 1731.25 C 1568.56 1697.81 1553.92 1674.52 1553.92 1653.61 C 1553.92 1622.56 1597.84 1577.17 1667.71 1536.56 L 1732.92 1498.34 L 1796.13 1384.88 C 1945.18 1119.13 2112.87 910.109 2343.77 701.091 C 2408.98 642.566 2482.84 579.264 2508.12 560.751 C 2533.41 542.835 2568.01 517.156 2584.65 504.017 C 2618.58 477.144 2785.6 369.052 2833.51 342.178 C 2882.09 315.304 2861.46 307.541 2778.28 322.471 C 2693.77 337.4 2599.95 355.316 2560.03 364.871 C 1952.5 504.017 1417.51 800.225 1012.94 1221.84 C 982.996 1252.9 956.379 1280.37 954.383 1282.16 C 920.447 1312.62 783.371 1490.58 710.841 1598.08 C 650.289 1688.25 536.503 1896.07 497.909 1987.45 C 482.604 2023.28 465.969 2062.09 459.98 2074.64 C 425.379 2150.48 367.488 2330.83 341.536 2442.51 C 334.217 2474.16 324.236 2514.77 320.243 2533.88 C 311.593 2570.31 299.615 2650.33 286.307 2772.75 C 276.991 2855.17 274.995 3098.22 282.315 3200.94 C 292.296 3329.94 341.536 3602.26 369.484 3682.88 C 374.142 3695.42 384.123 3725.87 392.108 3750.96 C 479.277 4025.07 628.995 4306.35 816.642 4550 C 939.078 4708.85 1186.61 4950.72 1350.97 5072.54 C 1663.71 5303.06 1979.12 5459.53 2357.08 5572.4 C 2402.99 5586.13 2418.96 5590.31 2546.72 5620.17 C 2645.2 5642.86 2760.32 5664.36 2821.53 5671.53 C 2838.17 5673.32 2887.41 5679.29 2931.33 5685.27 C 3011.18 5695.42 3333.9 5704.38 3455.67 5699.6 zM 3342.55 5484.01 C 3421.07 5466.1 3468.98 5443.4 3508.24 5407.57 C 3546.84 5372.93 3548.17 5352.03 3514.23 5320.38 C 3485.62 5294.1 3484.29 5287.53 3493.6 5224.23 C 3500.26 5181.23 3499.59 5180.64 3470.31 5154.96 C 3435.05 5125.7 3399.78 5118.53 3320.59 5124.5 C 3266.7 5128.68 3263.37 5128.08 3180.86 5089.27 C 3082.38 5043.28 3016.5 5021.19 2976.58 5021.19 C 2951.96 5021.19 2948.63 5023.58 2948.63 5041.49 C 2948.63 5052.84 2956.61 5082.1 2965.93 5106.58 C 2975.25 5130.47 2981.9 5157.94 2980.57 5167.5 C 2978.57 5182.43 2973.91 5184.22 2942.64 5182.43 C 2898.72 5180.04 2893.4 5187.21 2893.4 5245.13 L 2893.4 5290.52 L 2830.18 5289.33 C 2795.58 5288.73 2701.09 5285.74 2621.24 5282.76 C 2489.49 5277.98 2474.85 5278.58 2470.2 5289.92 C 2466.87 5297.09 2471.53 5309.03 2480.18 5318.59 C 2514.78 5353.23 2717.73 5424.89 2872.11 5456.54 C 2907.37 5463.71 2949.29 5472.66 2965.26 5476.25 C 3079.72 5501.93 3251.39 5505.51 3342.55 5484.01 zM 4029.93 5452.36 C 4223.56 5423.1 4476.42 5356.81 4587.54 5307.24 C 4672.05 5269.62 4666.06 5264.24 4535.64 5264.24 C 4399.23 5263.65 4190.96 5252.3 4110.44 5240.95 C 3964.05 5219.45 3741.8 5174.07 3708.53 5157.94 C 3699.88 5153.76 3684.58 5150.18 3673.93 5150.78 C 3655.3 5150.78 3655.96 5151.97 3683.91 5175.26 C 3699.88 5189 3765.09 5227.82 3827.64 5261.86 C 3938.1 5321.57 3988.01 5355.02 3988.01 5368.75 C 3988.01 5390.25 3883.54 5423.1 3814.33 5423.1 C 3781.73 5423.1 3781.73 5438.03 3813.67 5449.97 C 3847.6 5462.51 3954.73 5463.71 4029.93 5452.36 zM 3545.5 5034.92 C 3558.15 5016.41 3551.49 4740.51 3537.52 4664.66 C 3486.28 4400.11 3367.84 4214.38 3119.64 4008.35 C 2953.95 3870.99 2878.09 3799.33 2860.79 3764.69 C 2828.19 3699 2866.78 3693.03 2990.55 3746.18 C 3095.69 3791.57 3268.69 3931.91 3363.85 4050.75 C 3457.67 4166.6 3548.17 4317.1 3588.09 4421.6 C 3596.74 4444.3 3608.05 4464.01 3613.38 4465.8 C 3642.66 4474.16 3651.31 4269.92 3628.68 4108.08 C 3621.36 4054.33 3613.38 4007.75 3611.38 4004.76 C 3610.05 4002.37 3604.73 3981.47 3600.07 3958.78 C 3564.14 3774.25 3440.37 3479.83 3355.2 3375.32 C 3317.93 3329.34 3270.69 3295.9 3192.84 3259.47 C 3162.89 3245.73 3140.27 3230.8 3142.93 3227.22 C 3151.58 3212.29 3350.54 3237.37 3396.45 3258.27 C 3458.34 3287.53 3508.91 3356.21 3592.75 3527.01 C 3667.94 3679.89 3733.15 3948.03 3733.82 4109.27 C 3734.48 4173.17 3747.79 4182.13 3771.08 4134.95 C 3823.65 4028.05 3836.96 3891.89 3824.98 3583.15 C 3813.67 3302.46 3817.66 3266.63 3870.89 3197.36 C 4017.28 3007.45 4065.19 2917.87 4079.83 2803.21 C 4086.49 2752.45 4080.5 2715.42 4066.52 2716.02 C 4062.53 2716.02 4041.24 2744.09 4018.61 2778.73 C 3963.38 2862.33 3902.17 2935.19 3886.86 2935.79 C 3880.21 2935.79 3850.26 2928.62 3819.66 2919.66 C 3703.87 2886.82 3705.2 2887.42 3701.88 2864.72 C 3699.22 2841.43 3727.83 2806.79 3749.79 2806.79 C 3765.76 2806.79 3818.99 2776.93 3818.99 2767.98 C 3818.99 2764.39 3800.36 2761.41 3777.73 2761.41 C 3751.78 2761.41 3732.49 2757.23 3726.5 2750.06 C 3712.52 2735.13 3718.51 2703.48 3734.48 2707.66 C 3781.73 2719.01 3799.69 2716.62 3817.66 2696.31 C 3838.95 2672.43 3840.95 2645.55 3822.98 2632.41 C 3815.66 2627.04 3812.34 2616.29 3815 2606.14 C 3822.32 2581.65 3803.69 2572.69 3727.16 2562.54 C 3643.99 2551.79 3536.85 2562.54 3493.6 2587.03 C 3463.66 2603.75 3438.37 2641.97 3438.37 2672.43 C 3438.37 2695.12 3466.99 2757.23 3480.29 2764.39 C 3496.26 2773.35 3490.28 2793.06 3461.66 2821.13 C 3447.02 2836.06 3426.4 2858.15 3417.08 2870.1 C 3397.78 2893.98 3357.19 2900.55 3345.22 2881.44 C 3341.22 2875.47 3327.25 2859.35 3313.28 2845.01 C 3240.75 2770.37 3178.2 2631.22 3172.87 2533.28 C 3168.88 2465.8 3164.22 2460.42 3131.62 2486.7 C 3102.34 2510.59 3026.48 2621.66 2965.26 2729.76 C 2924.01 2803.81 2900.72 2837.25 2892.07 2835.46 C 2885.41 2834.27 2872.11 2812.77 2862.79 2787.68 C 2853.47 2762.6 2840.17 2736.92 2833.51 2730.35 C 2826.86 2723.78 2821.53 2716.02 2821.53 2713.03 C 2821.53 2710.05 2797.58 2677.2 2768.97 2640.18 C 2637.88 2471.17 2583.98 2387.56 2556.03 2310.53 C 2539.4 2264.54 2538.73 2214.98 2554.7 2195.87 C 2565.35 2182.73 2568.68 2182.73 2590.64 2192.28 C 2608.6 2200.64 2652.52 2203.03 2764.31 2203.63 L 2913.36 2203.63 L 2913.36 2166.01 C 2913.36 2118.23 2923.34 2095.54 2957.94 2060.3 C 2989.22 2027.46 3031.14 2007.15 3096.35 1991.63 C 3136.94 1982.07 3148.92 1982.07 3191.5 1991.63 C 3264.7 2008.35 3292.65 2023.87 3303.96 2053.73 C 3315.94 2086.58 3309.95 2091.95 3275.35 2080.01 C 3204.15 2054.33 3081.71 2035.22 3049.11 2044.78 C 3027.15 2050.75 3031.81 2072.84 3063.75 2118.23 C 3085.7 2149.88 3149.58 2207.21 3162.89 2207.81 C 3166.88 2207.81 3175.53 2201.84 3181.52 2194.67 C 3191.5 2182.13 3192.84 2182.13 3208.14 2194.67 C 3230.1 2212.59 3256.72 2210.8 3271.35 2191.09 C 3278.67 2181.53 3287.32 2176.76 3293.31 2180.34 C 3310.61 2189.89 3304.63 2222.14 3282 2239.46 C 3270.69 2248.42 3261.37 2257.97 3261.37 2260.96 C 3261.37 2263.95 3276.01 2274.7 3293.98 2285.44 C 3311.94 2296.19 3341.22 2317.1 3359.19 2332.03 C 3398.45 2364.87 3412.42 2369.65 3440.37 2360.09 C 3473.64 2348.75 3498.26 2291.42 3512.9 2191.69 C 3524.88 2112.26 3524.88 2094.94 3512.9 2017.3 C 3497.6 1916.98 3474.31 1856.06 3433.72 1811.27 C 3385.81 1757.53 3382.48 1747.97 3400.44 1716.92 C 3437.71 1654.81 3515.56 1604.64 3586.76 1596.28 C 3652.64 1588.52 3816.99 1678.7 3902.17 1769.47 C 3961.39 1832.77 3981.35 1875.17 3978.02 1930.11 L 3975.36 1976.1 L 4022.61 1973.71 C 4079.83 1970.72 4136.39 1983.26 4143.71 2000.58 C 4150.37 2016.11 4135.06 2025.07 4103.12 2025.67 C 4039.24 2025.67 3903.5 2075.23 3880.21 2106.88 C 3870.89 2119.42 3866.23 2149.88 3864.24 2216.17 C 3862.24 2266.33 3863.57 2311.12 3866.23 2314.71 C 3870.89 2321.87 3954.07 2254.39 3954.07 2243.04 C 3954.07 2239.46 3944.75 2226.32 3932.78 2213.78 C 3895.51 2173.77 3910.15 2139.73 3950.74 2173.17 C 3978.02 2195.87 3979.35 2196.46 4012.63 2179.14 C 4037.91 2166.6 4039.91 2166.6 4047.89 2179.14 C 4052.55 2186.31 4059.2 2192.28 4063.2 2192.28 C 4067.19 2192.28 4099.13 2168.39 4134.4 2138.54 C 4169.66 2109.27 4202.27 2087.18 4207.59 2090.16 C 4212.25 2092.55 4216.24 2109.87 4216.24 2127.79 C 4216.24 2166.01 4225.56 2171.38 4264.15 2157.05 C 4308.07 2140.92 4408.55 2143.91 4448.47 2163.02 C 4498.38 2186.31 4532.31 2218.56 4553.61 2262.75 C 4600.85 2358.9 4613.49 2406.67 4613.49 2490.88 C 4613.49 2579.26 4602.85 2589.42 4558.93 2546.42 C 4530.32 2518.35 4491.06 2499.84 4477.08 2507.6 C 4473.09 2509.99 4469.1 2545.22 4469.1 2585.24 C 4468.43 2714.83 4424.52 2833.67 4330.69 2958.48 C 4291.43 3011.03 4163.67 3132.26 4043.9 3231.4 C 3966.71 3295.3 3970.04 3283.35 3979.35 3451.76 C 3992 3683.47 3978.02 3830.98 3933.44 3923.55 C 3922.79 3946.24 3922.13 3952.21 3931.45 3952.21 C 3946.08 3952.21 3969.37 3928.32 4010.63 3872.19 C 4055.21 3810.68 4081.16 3740.8 4104.45 3618.38 C 4143.71 3414.74 4151.03 3386.07 4172.32 3360.39 C 4184.3 3346.06 4196.28 3332.32 4198.94 3329.94 C 4222.9 3310.83 4320.71 3201.54 4385.92 3121.51 C 4453.13 3039.7 4587.54 2851.58 4587.54 2840.24 C 4587.54 2838.45 4598.86 2815.75 4612.16 2789.48 C 4680.04 2658.69 4713.31 2560.15 4727.95 2443.7 C 4738.59 2358.3 4699.33 2229.91 4637.45 2149.28 L 4612.16 2116.44 L 4638.11 2108.08 C 4652.09 2103.9 4664.07 2094.34 4664.07 2087.77 C 4664.07 2081.2 4648.1 2047.16 4629.46 2011.93 C 4601.52 1959.97 4580.22 1934.89 4523.66 1884.13 L 4452.46 1820.23 L 4452.46 1691.83 C 4452.46 1614.2 4449.14 1562.24 4443.81 1559.26 C 4439.16 1556.27 4433.17 1560.45 4430.51 1568.22 C 4421.19 1595.09 4390.58 1642.86 4359.31 1681.09 C 4322.04 1726.47 4280.79 1747.97 4254.17 1736.03 C 4233.54 1725.87 4066.52 1573.59 4013.29 1515.66 C 3963.38 1461.92 3922.79 1433.85 3894.18 1433.85 C 3880.87 1433.85 3868.23 1430.86 3865.57 1426.68 C 3846.27 1399.21 4121.09 1058.21 4188.96 1025.37 C 4209.59 1015.21 4238.87 1023.58 4261.49 1045.67 C 4283.45 1068.36 4271.47 1079.11 4230.22 1073.74 C 4210.92 1071.35 4190.29 1072.55 4184.3 1076.13 C 4167.67 1085.68 4154.36 1167.5 4160.35 1225.43 C 4163.67 1254.69 4171.66 1307.84 4178.98 1343.67 C 4191.62 1408.17 4190.96 1514.47 4177.65 1568.81 C 4174.32 1582.55 4174.99 1593.3 4179.64 1593.3 C 4205.6 1593.3 4247.52 1534.77 4270.14 1467.89 C 4311.4 1348.45 4330.69 1313.81 4359.31 1307.84 C 4415.87 1296.49 4413.2 1300.67 4407.22 1239.76 C 4390.58 1077.92 4306.74 910.706 4242.19 910.706 C 4188.96 910.706 4088.48 993.716 3967.38 1137.04 C 3932.11 1178.85 3882.87 1233.19 3857.58 1257.68 L 3812.34 1301.27 L 3589.42 1302.46 C 3419.08 1303.06 3352.53 1306.05 3307.29 1315.01 C 3250.73 1326.95 3247.4 1326.95 3212.8 1312.02 C 3177.53 1296.49 3087.7 1213.48 3004.52 1119.13 C 2981.9 1094.04 2936.65 1048.66 2903.38 1017.6 C 2778.95 902.345 2718.4 910.109 2666.49 1048.06 C 2636.55 1126.89 2620.58 1191.98 2610.6 1270.81 C 2596.62 1381.29 2598.62 1402.79 2621.24 1410.56 C 2661.17 1424.29 2696.44 1460.12 2753.66 1546.72 C 2810.89 1632.12 2858.13 1684.67 2869.44 1674.52 C 2872.11 1671.53 2870.11 1654.21 2864.12 1635.7 C 2856.14 1610.62 2854.81 1572.99 2859.46 1498.94 C 2864.79 1414.14 2863.46 1390.85 2851.48 1359.2 C 2836.17 1316.8 2777.62 1251.7 2754.99 1251.7 C 2745.01 1251.7 2731.7 1267.23 2716.4 1294.7 C 2685.12 1352.63 2676.47 1337.7 2683.13 1236.77 C 2689.12 1154.36 2693.77 1138.24 2723.05 1109.57 C 2764.31 1068.96 2818.21 1097.03 2985.23 1245.73 C 3060.42 1312.62 3141.6 1381.29 3166.22 1398.02 C 3190.17 1414.74 3210.14 1432.06 3210.14 1436.83 C 3210.14 1441.61 3192.84 1458.33 3171.54 1473.86 C 3134.28 1500.73 3055.09 1584.94 2973.91 1683.47 C 2920.68 1749.17 2898.06 1756.93 2802.9 1744.98 C 2741.68 1736.62 2724.38 1737.22 2707.75 1744.98 C 2679.14 1758.72 2661.17 1804.7 2661.17 1862.63 C 2661.17 1900.25 2658.51 1911.6 2649.19 1911.6 C 2633.89 1911.6 2600.62 1848.3 2577.99 1776.04 C 2568.01 1745.58 2558.7 1718.71 2556.03 1716.32 C 2553.37 1714.53 2538.07 1721.69 2521.43 1733.64 C 2489.49 1755.14 2443.58 1807.69 2409.64 1862.03 C 2389.68 1894.28 2305.84 2047.16 2305.84 2051.94 C 2305.84 2056.72 2247.95 2168.39 2204.03 2247.82 C 2105.55 2426.38 1985.11 2532.09 1850.03 2557.17 C 1782.16 2569.71 1778.83 2573.29 1785.48 2636 C 1788.15 2665.26 1796.13 2706.47 1803.45 2727.37 C 1825.41 2794.25 1907.92 2929.82 1978.45 3015.21 C 2064.96 3120.32 2299.18 3331.73 2409.64 3405.18 C 2454.89 3435.04 2492.15 3463.71 2492.15 3467.89 C 2492.15 3491.77 2321.14 3427.28 2216.67 3363.98 C 2042.33 3258.87 1854.69 3076.73 1695.65 2858.75 C 1670.37 2824.11 1642.42 2783.5 1634.44 2768.57 C 1625.79 2754.24 1616.47 2740.51 1613.14 2738.71 C 1610.48 2736.33 1598.5 2718.41 1587.86 2698.7 C 1557.91 2644.95 1545.94 2650.93 1550.59 2717.81 C 1573.88 3046.87 1714.29 3378.91 1947.18 3656.6 C 2011.06 3732.44 2156.79 3879.35 2206.03 3916.98 C 2221.33 3929.52 2255.27 3956.39 2281.22 3977.89 C 2393.01 4070.45 2496.81 4145.7 2756.99 4324.26 C 2863.46 4396.52 2970.59 4469.98 2995.21 4487.3 C 3115.65 4569.71 3258.05 4690.34 3341.22 4779.32 C 3416.41 4859.35 3492.27 4970.42 3510.24 5027.16 C 3516.23 5045.67 3534.86 5049.85 3545.5 5034.92 zM 3524.88 3036.71 C 3474.97 3014.02 3463.66 3006.26 3465.66 2993.12 C 3468.32 2976.4 3478.3 2973.71 3607.39 2958.36 C 3698.55 2947.61 3834.96 2955.26 3841.61 2971.5 C 3850.26 2991.09 3766.42 3045.01 3701.88 3061.38 C 3646.65 3075.53 3596.08 3068.36 3524.88 3036.71 zM 3627.35 2643.16 C 3609.38 2618.08 3621.36 2609.72 3677.26 2609.72 C 3725.17 2609.72 3729.16 2621.07 3689.9 2644.95 C 3653.97 2666.45 3644.65 2666.45 3627.35 2643.16 zM 1740.24 4912.5 C 1740.24 4905.33 1736.24 4899.96 1732.25 4899.96 C 1717.61 4899.96 1583.86 4775.74 1531.96 4714.23 C 1465.42 4636 1410.86 4555.97 1404.87 4527.9 C 1398.88 4502.23 1407.53 4499.84 1436.81 4518.95 C 1490.04 4553.58 1572.55 4582.85 1682.35 4604.35 C 1740.9 4616.29 1761.53 4618.08 1770.85 4610.91 C 1788.15 4597.78 1784.82 4591.8 1750.22 4573.29 C 1675.03 4532.09 1627.78 4489.09 1437.47 4290.82 C 1357.62 4207.81 1289.09 4157.05 1255.82 4157.05 C 1243.84 4157.05 1231.86 4159.44 1229.2 4163.02 C 1227.2 4166.6 1241.18 4199.45 1259.81 4235.28 C 1285.09 4282.46 1292.41 4303.36 1285.76 4309.33 C 1263.8 4329.04 1148.02 4270.51 1038.89 4183.92 C 951.056 4114.65 931.093 4117.63 957.71 4195.27 C 999.631 4319.48 1147.35 4505.21 1346.31 4684.97 C 1450.78 4778.73 1580.54 4872.49 1647.08 4901.75 C 1663.05 4908.91 1691 4916.68 1708.3 4919.66 C 1734.25 4923.84 1740.24 4922.05 1740.24 4912.5 zM 2331.79 4853.38 C 2396.33 4822.92 2385.69 4781.71 2293.86 4710.05 C 2202.03 4637.79 2187.39 4569.11 2249.28 4507.6 C 2259.26 4498.05 2272.57 4490.28 2279.22 4490.28 C 2285.88 4490.28 2316.49 4514.17 2347.09 4543.43 C 2401.66 4594.79 2404.99 4596.58 2458.22 4603.75 C 2539.4 4615.09 2540.06 4605.54 2462.21 4542.24 C 2307.83 4416.23 2175.42 4284.85 2049.65 4131.97 C 2009.06 4083 1969.8 4042.98 1962.48 4042.98 C 1955.17 4042.98 1934.54 4056.12 1916.57 4072.25 C 1889.29 4096.73 1883.97 4107.48 1883.97 4131.37 C 1883.97 4164.81 1904.59 4197.06 1939.86 4218.56 C 1953.17 4226.92 2004.41 4252 2054.31 4275.29 C 2171.42 4329.64 2218.67 4376.22 2186.06 4405.48 C 2169.43 4421.01 2128.17 4415.63 2087.58 4393.54 C 1989.77 4339.79 1903.26 4331.43 1824.08 4367.26 C 1770.85 4391.15 1754.88 4413.84 1760.2 4455.05 C 1766.19 4501.63 1798.79 4524.32 1893.95 4547.01 C 1967.14 4564.93 1976.46 4578.07 1976.46 4659.29 C 1976.46 4739.91 1986.44 4759.02 2048.32 4800.82 C 2117.53 4846.81 2168.1 4865.32 2234.64 4868.3 C 2283.21 4870.1 2299.85 4867.71 2331.79 4853.38 zM 920.447 3906.82 C 925.105 3898.46 926.435 3878.16 923.774 3861.44 C 919.781 3839.34 923.108 3817.84 937.082 3782.61 C 963.699 3716.32 957.71 3699 899.819 3674.52 C 874.533 3663.77 847.251 3648.24 838.601 3639.88 C 823.962 3624.95 823.962 3623.16 851.244 3577.77 C 865.883 3552.09 878.526 3520.44 878.526 3507.9 C 877.86 3495.36 864.552 3460.12 847.917 3429.67 C 822.631 3383.68 818.638 3369.95 823.296 3343.07 C 830.616 3299.48 818.638 3275.59 761.413 3221.25 C 700.195 3163.32 685.555 3142.42 682.894 3109.57 C 676.24 3024.17 691.544 3001.48 733.465 3037.31 C 762.078 3061.8 772.725 3062.39 790.025 3037.91 C 809.323 3011.63 801.338 2967.44 771.394 2928.62 C 747.439 2898.16 718.826 2883.83 700.86 2893.98 C 674.243 2908.32 654.946 2969.23 644.3 3069.56 C 638.977 3121.51 655.612 3199.15 684.225 3258.87 C 709.51 3310.83 742.781 3403.39 742.781 3421.31 C 742.781 3429.07 731.469 3447.58 717.495 3461.92 C 703.522 3475.65 692.21 3492.97 692.21 3499.54 C 692.21 3506.11 707.514 3522.83 726.811 3536.56 L 762.078 3561.65 L 757.42 3691.24 C 752.762 3819.04 753.428 3822.02 772.725 3847.7 C 795.349 3878.16 866.548 3921.75 893.165 3921.75 C 903.146 3921.75 915.123 3915.18 920.447 3906.82 z" />

</svg>
