<?xml version="1.0" encoding="UTF-8" standalone="no"?>
<svg
   width="300mm"
   height="290.82401mm"
   viewBox="4.393067 4.043346 300.00025 290.82434"
   version="1.1"
   id="svg77"
   sodipodi:docname="Kuh_10brei_Brillet.svg"
   inkscape:version="1.3 (0e150ed6c4, 2023-07-21)"
   xmlns:inkscape="http://www.inkscape.org/namespaces/inkscape"
   xmlns:sodipodi="http://sodipodi.sourceforge.net/DTD/sodipodi-0.dtd"
   xmlns="http://www.w3.org/2000/svg"
   xmlns:svg="http://www.w3.org/2000/svg">
  <defs
     id="defs77" />
  <sodipodi:namedview
     id="namedview77"
     pagecolor="#ffffff"
     bordercolor="#666666"
     borderopacity="1.0"
     inkscape:showpageshadow="2"
     inkscape:pageopacity="0.0"
     inkscape:pagecheckerboard="0"
     inkscape:deskcolor="#d1d1d1"
     inkscape:document-units="mm"
     inkscape:zoom="1.3321565"
     inkscape:cx="542.72903"
     inkscape:cy="495.43729"
     inkscape:window-width="1366"
     inkscape:window-height="705"
     inkscape:window-x="-8"
     inkscape:window-y="-8"
     inkscape:window-maximized="1"
     inkscape:current-layer="layer6"
     showgrid="false" />
  <g
     inkscape:groupmode="layer"
     id="layer1"
     inkscape:label="Cut"
     style="display:inline" />
  <g
     inkscape:groupmode="layer"
     id="layer10"
     inkscape:label="Augen"
     style="display:inline;stroke-width:0.2;stroke-dasharray:none"
     transform="translate(-144.95888,-171.74203)" />
  <g
     inkscape:groupmode="layer"
     id="layer2"
     inkscape:label="Füße"
     style="display:inline"
     transform="translate(-200.2681,3.0896902)" />
  <g
     inkscape:groupmode="layer"
     id="layer3"
     inkscape:label="Kopf"
     style="display:inline" />
  <g
     inkscape:groupmode="layer"
     id="layer4"
     inkscape:label="Hörner"
     style="display:inline;stroke-width:0.2;stroke-dasharray:none"
     transform="translate(73.486738,13.108445)" />
  <g
     inkscape:groupmode="layer"
     id="layer5"
     inkscape:label="Hufe"
     style="display:inline" />
  <g
     inkscape:groupmode="layer"
     id="layer6"
     inkscape:label="Brille"
     style="display:inline">
    <path
       style="fill:none;stroke:#ff8000;stroke-width:0.208;stroke-dasharray:none"
       d="m 145.53561,126.11449 c 0.15627,-0.72552 0.22354,-1.3923 0.20181,-2.00035 -0.0132,-0.36096 -0.0846,-0.77391 -0.13428,-1.16358 -0.0233,-0.1806 -0.13144,-0.53172 -0.32444,-1.05335 -0.0916,-0.24684 -0.21009,-0.45798 -0.35549,-0.63341 -0.22509,-0.27168 -0.37878,-0.58062 -0.66596,-0.79175 -0.42794,-0.31464 -0.91019,-0.58037 -1.44679,-0.7972 -0.94331,-0.38139 -1.92906,-0.67584 -2.95723,-0.88335 -0.0657,-0.0134 -0.13221,-0.0238 -0.19948,-0.031 -0.17309,-0.0179 -0.34074,-0.0854 -0.49908,-0.0986 -0.35394,-0.0303 -0.72263,-0.1242 -1.06724,-0.1568 -0.3648,-0.0341 -0.73272,-0.0885 -1.08975,-0.10635 -0.48693,-0.0238 -0.95574,-0.0546 -1.40644,-0.0924 -1.1402,-0.0947 -2.28351,-0.0667 -3.41673,-0.0349 -0.17076,0.005 -0.33919,0.0768 -0.49287,0.0815 -0.40464,0.0124 -0.80257,0.03 -1.19375,0.0528 -0.18008,0.0109 -0.46985,0.0375 -0.86933,0.08 -0.28977,0.0311 -0.58031,0.0543 -0.87164,0.0699 -0.13505,0.007 -0.25692,0.0574 -0.38886,0.0629 -0.89571,0.0331 -1.68948,0.0838 -2.38131,0.15215 -0.86157,0.0849 -1.65352,0.17517 -2.37588,0.2709 -0.14385,0.0191 -0.28977,0.0378 -0.43776,0.0559 -0.88019,0.10919 -1.75183,0.19691 -2.61495,0.26314 -0.18007,0.0132 -0.37722,0.0636 -0.54797,0.12265 -0.11695,0.0404 -0.17542,0.12213 -0.17542,0.24529 -3.9e-4,1.00445 -2.2e-4,2.13309 7.6e-4,3.38593 0,0.15318 0.0647,0.27634 0.19405,0.36949 0.37618,0.27117 0.73711,0.57752 1.08276,0.91906 0.27477,0.2722 0.46804,0.5651 0.57981,0.8787 0.12315,0.34413 0.20232,0.66316 0.2375,0.9571 0.0818,0.68619 0.1674,1.37186 0.25692,2.05701 0.0194,0.14904 0.0148,0.33068 0.0404,0.49059 0.09,0.57286 0.11487,1.15426 0.20413,1.72324 0.17128,1.09345 0.40154,2.15456 0.6908,3.18333 0.1661,0.59097 0.29029,0.97547 0.37256,1.15348 0.20905,0.45229 0.43958,0.91984 0.69157,1.40266 0.0994,0.1894 0.22018,0.35758 0.36248,0.50455 0.26597,0.27427 0.53091,0.5356 0.79481,0.78399 0.1529,0.14283 0.34073,0.25694 0.51227,0.39046 0.15265,0.1185 0.28538,0.20828 0.39818,0.26935 0.85276,0.46522 1.72725,0.79331 2.62348,0.98426 0.50451,0.10712 1.01576,0.16404 1.53372,0.17077 0.68924,0.008 1.33606,0.003 1.94044,-0.0163 0.70994,-0.0228 1.31148,-0.10013 1.80461,-0.23209 0.3767,-0.10091 0.75781,-0.20595 1.14331,-0.31515 0.39222,-0.11126 1.20799,-0.42563 2.44728,-0.94312 0.10142,-0.0424 0.22561,-0.11308 0.37257,-0.21192 0.341,-0.22976 0.68097,-0.45591 1.01989,-0.67842 0.42639,-0.27945 0.75729,-0.51698 0.99273,-0.71258 0.59559,-0.49576 1.14823,-1.04094 1.65791,-1.63553 0.50995,-0.5946 0.971,-1.36695 1.37695,-2.06634 0.25923,-0.44556 0.43387,-0.92372 0.64655,-1.38091 0.41189,-0.88491 0.77514,-1.79776 1.08975,-2.73856 0.14282,-0.42848 0.27632,-0.95943 0.43,-1.44535 0.0554,-0.17543 0.12626,-0.46263 0.21267,-0.86162 z"
       id="path9" />
    <path
       style="fill:none;stroke:#ff8000;stroke-width:0.208;stroke-dasharray:none"
       d="m 175.49136,126.55927 c 0.0264,-0.29549 0.0538,-0.59045 0.0823,-0.88491 0.0212,-0.21889 0.073,-0.4057 0.15524,-0.56044 0.1661,-0.3136 0.36635,-0.64737 0.66208,-0.82125 0.0854,-0.0502 0.15704,-0.10298 0.215,-0.15835 0.29392,-0.27997 0.5904,-0.56639 0.8895,-0.85929 0.0597,-0.0583 0.0943,-0.13767 0.0962,-0.22123 0.016,-0.61995 0.0127,-1.25802 -0.0101,-1.91419 -0.005,-0.15292 -0.0986,-0.26703 -0.10478,-0.4246 -0.007,-0.20855 -0.0142,-0.42642 -0.021,-0.6536 -0.009,-0.26391 -0.0737,-0.42692 -0.21577,-0.63107 -0.0512,-0.0735 -0.1185,-0.11074 -0.20181,-0.11178 -0.42742,-0.004 -0.84422,-0.0336 -1.25042,-0.0901 -0.40309,-0.0564 -0.80386,-0.10608 -1.20229,-0.14903 -0.15576,-0.0171 -0.30504,-0.0339 -0.44786,-0.0505 -0.62508,-0.0714 -1.26516,-0.13972 -1.92026,-0.20493 -0.34928,-0.0341 -0.68277,-0.058 -1.00049,-0.0714 -0.16144,-0.007 -0.29494,-0.0815 -0.45794,-0.0862 -0.33687,-0.0109 -0.65225,-0.0308 -0.94616,-0.0598 -0.075,-0.007 -0.1537,-0.0153 -0.23596,-0.0241 -0.93452,-0.10246 -1.8504,-0.18164 -2.84701,-0.21657 -0.63103,-0.0217 -1.32881,-0.10479 -1.94743,-0.11333 -1.46801,-0.0212 -2.58157,-0.0142 -3.34066,0.0209 -1.11355,0.0512 -2.28842,0.17181 -3.52462,0.36173 -1.02144,0.1568 -2.11171,0.4528 -3.27081,0.88801 -0.6287,0.23598 -1.14486,0.46652 -1.61522,0.84532 -0.13247,0.1066 -0.25433,0.23261 -0.36558,0.37803 -0.18939,0.24528 -0.41525,0.45332 -0.54488,0.74052 -0.18058,0.39847 -0.33272,0.82928 -0.45639,1.29243 -0.0859,0.32344 -0.13091,0.67533 -0.13505,1.05568 -0.004,0.45332 -0.001,0.91 0.008,1.37005 0.004,0.18785 0.0924,0.35241 0.11876,0.54725 0.0326,0.24218 0.053,0.38061 0.0613,0.41529 0.1868,0.77623 0.40853,1.52038 0.66519,2.23244 0.029,0.0807 0.0598,0.19406 0.0924,0.33999 0.0598,0.26548 0.22198,0.60624 0.27476,0.76226 0.38913,1.14728 0.89002,2.29999 1.50268,3.45813 0.18706,0.35319 0.43155,0.69706 0.65199,1.03627 0.10012,0.1537 0.21888,0.26935 0.34074,0.40442 0.1304,0.1436 0.22432,0.34076 0.36558,0.48903 0.35083,0.36483 0.7071,0.74286 1.12079,1.04248 0.28046,0.20389 0.54049,0.40597 0.78006,0.60624 0.13661,0.11488 0.28382,0.22485 0.44165,0.3299 0.34151,0.22821 0.67605,0.44788 1.00205,0.69395 0.193,0.14542 0.37541,0.2735 0.5472,0.38424 0.22897,0.14748 0.49908,0.21967 0.74357,0.33378 0.43777,0.20492 0.83673,0.36354 1.19687,0.47583 0.75496,0.23494 1.53062,0.40157 2.32698,0.4999 0.43621,0.0538 0.94874,0.0856 1.5376,0.0955 0.74565,0.0124 1.30268,0.007 1.67111,-0.0155 1.21394,-0.075 2.36294,-0.3757 3.447,-0.90198 0.43155,-0.20881 0.85457,-0.51077 1.26051,-0.79176 0.2194,-0.15215 0.48408,-0.41787 0.79403,-0.79719 0.31356,-0.38346 0.58808,-0.80962 0.82352,-1.27846 0.12677,-0.25254 0.25587,-0.54311 0.38731,-0.87171 0.1185,-0.29756 0.2282,-0.59305 0.3291,-0.88646 0.23182,-0.67688 0.48122,-1.58352 0.74824,-2.71993 0.10245,-0.43856 0.16067,-0.87559 0.24683,-1.2932 0.21887,-1.05983 0.37774,-2.13879 0.47657,-3.2369 z"
       id="path10" />
    <path
       style="fill:none;stroke:#ff8000;stroke-width:0.208;stroke-dasharray:none"
       d="m 150.70728,124.5822 c 0.0807,0.0241 0.16455,0.0675 0.24682,0.0753 0.0264,0.003 0.0476,-0.007 0.0636,-0.0279 0.0595,-0.0776 0.089,-0.1568 0.0885,-0.23753 -0.004,-0.32809 0.008,-0.66601 0.0349,-1.01376 0.0163,-0.20881 0.10556,-0.42072 0.13505,-0.65204 0.0396,-0.30583 0.1172,-0.62564 0.21267,-0.91906 0.15369,-0.46988 0.30763,-0.93769 0.46182,-1.40343 0.008,-0.0258 0.005,-0.0541 -0.009,-0.0772 -0.0144,-0.0231 -0.0383,-0.0386 -0.0653,-0.0423 -0.15679,-0.0217 -0.29728,-0.0241 -0.45406,-0.0776 -0.15421,-0.0528 -0.31306,-0.089 -0.47657,-0.10867 -0.62482,-0.0761 -1.25042,-0.11333 -1.87602,-0.18785 -0.41086,-0.0492 -0.82171,-0.0453 -1.23257,0.0116 -0.16818,0.0228 -0.33143,0.0401 -0.48977,0.052 -0.15886,0.0114 -0.32236,0.0238 -0.49054,0.0373 -0.35083,0.0279 -0.81887,0.11798 -1.23955,0.13195 -0.0295,10e-4 -0.0572,0.009 -0.0831,0.0248 -0.12315,0.074 -0.24708,0.10609 -0.37179,0.0963 -0.0339,-0.003 -0.0667,0.0132 -0.0855,0.0417 -0.0189,0.0285 -0.0209,0.0651 -0.005,0.0957 0.31746,0.61634 0.63336,1.17988 0.81421,1.88315 0.12057,0.46626 0.19042,0.79486 0.20957,0.98582 0.0326,0.32446 0.0636,0.64401 0.0931,0.95865 0.014,0.15214 0.0699,0.27867 0.12884,0.41373 0.0182,0.0419 0.0658,0.0623 0.10867,0.0466 0.45717,-0.16922 0.92443,-0.33766 1.40022,-0.40364 0.40051,-0.0559 0.81731,-0.0854 1.25042,-0.0885 0.21966,-0.001 0.43776,0.0559 0.65665,0.0955 0.33608,0.0605 0.64655,0.19251 0.9741,0.28954 z"
       id="path11" />
    <path
       style="fill:none;stroke:#ff8000;stroke-width:0.208;stroke-dasharray:none"
       d="m 142.82986,130.37835 c -0.4952,1.01996 -0.91641,1.78352 -1.26362,2.29066 -0.38136,0.55631 -0.81084,1.11675 -1.28844,1.68132 -0.39017,0.46057 -0.72599,0.79798 -1.00749,1.01221 -0.22043,0.16767 -0.44552,0.33922 -0.67527,0.51464 -0.27477,0.21062 -0.50503,0.37493 -0.6908,0.49292 -0.58367,0.37155 -1.27991,0.71206 -2.08869,1.02152 -1.28587,0.49161 -2.56034,0.78089 -3.82344,0.86783 -0.75987,0.0528 -1.45998,-0.0179 -2.19735,-0.10945 -0.39896,-0.0492 -0.74229,-0.11385 -1.02999,-0.19406 -0.93141,-0.26082 -1.7182,-0.63626 -2.36035,-1.12631 -0.18111,-0.13817 -0.39145,-0.33068 -0.63103,-0.57752 -0.21889,-0.2251 -0.39715,-0.44323 -0.53479,-0.65437 -0.32289,-0.49419 -0.57851,-1.01479 -0.76686,-1.56178 -0.0383,-0.11229 -0.0719,-0.23287 -0.1009,-0.36173 -0.0274,-0.11953 -0.0569,-0.24037 -0.0885,-0.3625 -0.11073,-0.42434 -0.19974,-0.84015 -0.26701,-1.2474 -0.0636,-0.38864 -0.12031,-0.806 -0.16998,-1.25207 -0.15989,-1.43966 -0.26856,-2.88319 -0.32599,-4.33061 -0.006,-0.15758 -0.0318,-0.30817 -0.0287,-0.46652 0.0119,-0.63237 0.0662,-1.23214 0.163,-1.79931 0.0906,-0.53042 0.25096,-1.07922 0.48123,-1.64639 0.26235,-0.64635 0.66648,-1.16099 1.21238,-1.54393 0.41655,-0.29186 0.93918,-0.53353 1.56788,-0.725 1.01989,-0.30972 2.09568,-0.53561 3.16214,-0.60081 0.47502,-0.0295 0.9353,-0.0994 1.41574,-0.10556 1.53942,-0.0186 2.69619,-0.0103 3.47029,0.0248 1.15599,0.0533 2.15208,0.14955 2.98828,0.28876 0.16507,0.0274 0.33815,0.0536 0.51926,0.0784 0.18318,0.0248 0.35394,0.0564 0.51228,0.0947 0.58575,0.14231 1.03593,0.26936 1.35054,0.38113 0.57386,0.20338 1.18057,0.53612 1.82014,0.99824 0.17904,0.12937 0.43595,0.38889 0.77074,0.77856 0.29909,0.34776 0.53504,0.79538 0.70787,1.34289 0.17179,0.5444 0.28538,1.11027 0.34075,1.69762 0.046,0.49213 0.0277,1.01713 -0.0551,1.57498 -0.11074,0.74311 -0.28357,1.43681 -0.5185,2.08108 -0.17463,0.47817 -0.34694,0.98349 -0.5697,1.44303 z"
       id="path39" />
    <path
       style="fill:none;stroke:#ff8000;stroke-width:0.208;stroke-dasharray:none"
       d="m 153.62648,126.74557 c -0.0155,-0.0722 -0.0644,-0.12032 -0.0675,-0.20803 -0.0161,-0.51025 -0.023,-1.17263 -0.0209,-1.98716 0,-0.15215 0.0155,-0.29859 0.0466,-0.43935 0.0435,-0.19613 0.0753,-0.34853 0.0955,-0.4572 0.089,-0.46988 0.24501,-0.86964 0.46803,-1.19928 0.41681,-0.61556 0.81266,-1.06422 1.48172,-1.45001 0.60619,-0.3493 1.22093,-0.57131 1.87679,-0.74596 0.9785,-0.25978 1.96735,-0.4396 2.96655,-0.53948 0.68615,-0.0683 1.37461,-0.12963 2.07627,-0.12963 1.16167,4.2e-4 2.43746,0.004 3.82733,0.0109 0.46182,0.002 0.89649,0.0536 1.33657,0.0885 0.88795,0.0699 1.7596,0.22537 2.61495,0.46652 0.35497,0.0999 0.75108,0.26159 1.18832,0.48514 0.57282,0.29265 1.0882,0.80108 1.44601,1.32736 0.14593,0.21424 0.26985,0.46186 0.37179,0.74286 0.22975,0.6334 0.37929,1.20394 0.44864,1.71159 0.0688,0.50042 0.1159,0.97573 0.14126,1.42594 0.0567,0.99436 -0.0264,2.01123 -0.11565,3.02111 -0.0559,0.62668 -0.14643,1.23111 -0.27166,1.81329 -0.20077,0.93665 -0.42225,1.82 -0.66442,2.65006 -0.27373,0.93924 -0.70993,1.78792 -1.30863,2.54605 -0.20853,0.26391 -0.43983,0.49239 -0.69389,0.68541 -0.91796,0.6981 -1.90706,1.15736 -2.96733,1.37781 -1.09829,0.22744 -2.24392,0.23365 -3.43691,0.18397 -0.28175,-0.0117 -0.56739,-0.0869 -0.86543,-0.12341 -0.12108,-0.015 -0.2489,-0.0373 -0.38343,-0.0668 -0.85225,-0.18889 -1.70605,-0.45229 -2.56138,-0.79021 -0.37516,-0.14851 -0.71279,-0.31178 -1.01292,-0.4898 -0.53556,-0.31722 -0.86802,-0.52991 -0.99738,-0.63807 -0.163,-0.1361 -0.31901,-0.26262 -0.46804,-0.37957 -1.18599,-0.92838 -1.94743,-1.98406 -2.69178,-3.19576 -0.18473,-0.3017 -0.33764,-0.61711 -0.45872,-0.94623 -0.12885,-0.35163 -0.32367,-0.67999 -0.43932,-1.03782 -0.17644,-0.5444 -0.36376,-1.1095 -0.56195,-1.6953 -0.059,-0.1731 -0.0722,-0.35086 -0.13117,-0.51697 -0.044,-0.12213 -0.0732,-0.24555 -0.0877,-0.37026 -0.0225,-0.18397 -0.11409,-0.33146 -0.11952,-0.52474 -0.006,-0.24115 -0.0264,-0.44297 -0.0605,-0.60546 z"
       id="path45" />
  </g>
  <g
     inkscape:groupmode="layer"
     id="layer7"
     inkscape:label="Nase"
     style="display:inline;stroke-width:0.4;stroke-dasharray:none" />
  <g
     inkscape:groupmode="layer"
     id="layer8"
     inkscape:label="Ohren"
     style="display:inline;stroke-width:0.2;stroke-dasharray:none"
     transform="translate(240.38965,-81.499403)" />
</svg>
