<?xml version="1.0" encoding="UTF-8" standalone="no"?>
<svg
   width="300mm"
   height="290.82401mm"
   viewBox="4.393067 4.043346 300.00025 290.82434"
   version="1.1"
   id="svg77"
   sodipodi:docname="KuhV2_cut.svg"
   inkscape:version="1.3 (0e150ed6c4, 2023-07-21)"
   xmlns:inkscape="http://www.inkscape.org/namespaces/inkscape"
   xmlns:sodipodi="http://sodipodi.sourceforge.net/DTD/sodipodi-0.dtd"
   xmlns="http://www.w3.org/2000/svg"
   xmlns:svg="http://www.w3.org/2000/svg">
  <defs
     id="defs77" />
  <sodipodi:namedview
     id="namedview77"
     pagecolor="#ffffff"
     bordercolor="#666666"
     borderopacity="1.0"
     inkscape:showpageshadow="2"
     inkscape:pageopacity="0.0"
     inkscape:pagecheckerboard="0"
     inkscape:deskcolor="#d1d1d1"
     inkscape:document-units="mm"
     inkscape:zoom="0.33303912"
     inkscape:cx="1271.6224"
     inkscape:cy="738.65196"
     inkscape:window-width="1366"
     inkscape:window-height="705"
     inkscape:window-x="-8"
     inkscape:window-y="-8"
     inkscape:window-maximized="1"
     inkscape:current-layer="layer8"
     showgrid="false" />
  <g
     inkscape:groupmode="layer"
     id="layer1"
     inkscape:label="Cut"
     style="display:inline">
    <path
       id="path1"
       style="fill:none;stroke:#0000ff;stroke-width:0.208;stroke-dasharray:none"
       d="m 125.6959,10.072737 c -1.11538,0.243616 -1.25708,1.591301 -1.46694,2.513356 -0.35636,2.211375 0.11047,4.49685 1.19755,6.444049 0.36642,0.740461 0.80098,1.449881 1.31236,2.099235 -1.98106,-1.068843 -3.41781,-3.043528 -3.92969,-5.220703 0.12157,-1.067379 -1.50606,-1.642044 -2.04492,-0.716797 -0.2351,1.094831 -0.13626,2.277264 0.0731,3.380698 0.54926,2.617807 2.33565,4.945682 4.75115,6.109536 -2.13527,0.21299 -4.29398,0.920719 -6.3711,0.185547 -1.68309,-0.01791 -3.49884,-0.107442 -4.85547,-1.25 -0.73371,-0.477303 -1.54675,-1.319473 -2.49023,-1.042968 -0.99637,0.521552 -0.67542,1.861125 -0.37638,2.714243 0.69286,2.258022 1.92947,4.437652 3.77934,5.938563 0.92275,0.701848 1.95398,1.257616 2.96423,1.808131 -1.46125,0.818528 -3.15808,0.563739 -4.73844,0.442049 -1.419,-0.28609 -2.88595,-0.233545 -4.29801,-0.563069 -2.84729,-0.312485 -5.60767,-1.109595 -8.28985,-2.05465 -3.318743,-1.32931 -6.634823,-2.770825 -9.455493,-5.035117 -3.63516,-2.614008 -6.61833,-6.016379 -9.13569,-9.696739 -0.94532,-1.270489 -1.69856,-2.937283 -3.3579,-3.399114 -1.27411,-0.473859 -2.55403,0.278103 -3.41506,1.183018 -2.76039,2.894343 -2.66519,7.216249 -2.54499,10.946824 0.53398,8.595959 4.35127,16.785844 9.92341,23.2721 3.05181,3.453762 6.84153,6.189595 10.83039,8.463991 3.37974,1.957332 7.011703,3.381738 10.530463,5.04227 -0.55798,2.032477 -1.24742,4.058596 -1.73437,6.121093 -0.28381,0.482929 -0.85915,-0.202044 -1.25391,-0.265625 -2.985083,-1.522329 -5.697943,-3.662714 -8.761383,-5.110358 -2.22316,-1.210443 -4.4954,-2.339451 -6.9068,-3.128166 -3.68433,-1.347904 -7.48508,-2.469042 -11.41022,-2.79893 -2.57478,-0.255879 -5.16066,-0.608804 -7.74931,-0.319643 -5.18181,0.45815 -10.32588,1.322846 -15.3614,2.631754 -4.8123,1.226147 -9.60327,2.540359 -14.42131,3.743936 -3.46252,0.921282 -7.20289,1.977801 -9.62242,4.806126 -1.74055,2.161235 -2.53552,4.952156 -2.79841,7.677234 -0.16512,3.339384 0.44856,6.660315 1.0958,9.921871 1.13167,5.029871 2.73233,9.956053 4.67373,14.730477 2.28441,5.495031 4.85771,11.096481 9.2148,15.281521 2.5027,2.16174 5.28792,4.00746 8.22385,5.52862 3.49199,1.74623 7.25873,2.88149 11.03185,3.83925 3.44018,0.82518 6.96487,1.34729 10.50997,1.30764 3.61853,0.10005 7.25735,-0.14759 10.77741,-1.02805 3.09586,-0.69066 6.0686,-1.83449 9.04681,-2.88797 0.8398,0.25752 1.38341,1.07009 2.13846,1.50862 0.72906,0.57682 1.60986,1.02157 2.26719,1.64451 0.16513,0.93388 -0.0392,1.89588 0.034,2.84178 0.0384,2.26488 0.55221,4.4901 1.01325,6.69831 1.14471,4.76721 3.03331,9.3999 5.951533,13.36658 1.29462,1.77714 2.67045,3.44036 4.14898,5.04345 1.80401,1.81854 3.95845,3.24916 5.9446,4.83816 -1.97198,3.27959 -4.63525,6.11614 -6.45469,9.50185 -3.7457,6.27804 -6.605203,13.07288 -8.665193,20.08197 -0.84179,2.92516 -1.42034,5.93281 -1.69177,8.9613 -0.3723,1.35223 -0.1197,2.76451 -0.22275,4.14797 -0.005,2.90686 -0.10595,5.8325 0.21023,8.72376 0.081,0.68687 0.30048,1.44631 0.0474,2.03833 -2.71257,2.08649 -5.06715,4.64995 -6.95174,7.5038 -2.36151,3.7227 -3.8558,7.97889 -4.51074,12.32813 -0.0615,1.14184 -0.20051,2.28096 -0.31852,3.41131 0.12837,4.09909 1.06128,8.19068 2.91995,11.85947 1.33925,2.64679 2.93763,5.19403 5.02845,7.31711 0.30205,1.53224 -0.17514,3.09214 -0.39507,4.61084 -0.27546,2.12881 -1.1065,4.14791 -1.30808,6.28413 -0.19845,1.90037 1.2238,3.43238 2.62952,4.49352 1.96491,1.40155 4.2251,2.35341 6.50627,3.1075 1.94606,0.59428 3.991313,0.82082 5.969713,1.18956 0.14145,1.65574 -0.76171,3.34271 -0.0449,4.94921 0.79762,2.09281 2.88753,3.2276 4.75787,4.21661 2.50159,1.19719 5.17962,2.00782 7.87509,2.63325 3.47223,0.67219 7.01564,0.99781 10.54897,1.06973 1.803,-0.12166 3.54551,-0.21518 5.33562,-0.28594 3.1725,-0.30404 6.2752,-1.12826 9.30981,-2.07492 2.58101,-0.89826 5.21397,-2.06028 7.08458,-4.1139 0.95245,-1.28249 0.3881,-2.92886 0.28305,-4.37137 -0.5319,-3.72221 -1.12445,-7.43934 -1.49361,-11.1817 -0.0842,-1.03923 -0.0304,-2.11318 0.45876,-3.09488 1.3163,0.19424 2.5795,0.65992 3.9151,0.76039 3.23479,0.44316 6.55247,0.13731 9.68646,-0.75258 0.61148,1.24767 0.44253,2.65461 0.16505,3.96169 -0.52253,3.85231 -1.38836,7.65642 -1.7946,11.52297 -0.0805,1.22831 -0.15068,2.647 0.82682,3.56612 1.91153,1.85835 4.50159,2.78295 6.97401,3.63948 3.25763,1.02163 6.59254,1.81897 9.95942,2.37756 2.79063,0.33784 5.60781,0.0104 8.40459,-0.10471 2.80014,-0.14247 5.62614,-0.2366 8.35004,-0.96747 2.6016,-0.61725 4.95364,-1.94519 7.28623,-3.20462 1.67188,-1.01987 3.55951,-2.29849 3.8968,-4.38477 0.2197,-1.38819 -0.0565,-2.90058 -0.24414,-4.20508 1.09209,-0.1591 2.1773,-0.37827 3.26068,-0.57156 2.2778,-0.51265 4.64337,-0.9974 6.72185,-2.15567 1.87897,-0.93772 3.68485,-2.13385 5.05654,-3.73566 0.86107,-1.82455 -0.15207,-3.77957 -0.48823,-5.60158 -0.4961,-2.24458 -0.89517,-4.51952 -1.25787,-6.78318 0.2957,-0.71195 0.98089,-1.18826 1.37666,-1.85149 2.95284,-3.66886 5.42196,-7.84765 6.42708,-12.49409 0.77833,-2.83989 0.68178,-5.82152 0.53323,-8.73346 -0.47308,-4.99303 -2.40094,-9.81183 -5.26075,-13.91156 -1.14515,-1.47005 -2.20006,-3.04825 -3.59861,-4.29381 -0.89464,-0.81291 -2.06514,-1.42863 -2.6612,-2.50466 -0.0896,-0.88297 0.30231,-1.74114 0.26339,-2.63285 0.2162,-3.25957 0.10923,-6.53353 0.0452,-9.79683 -0.2352,-2.30844 -0.5263,-4.61776 -1.02502,-6.88658 -1.1948,-5.97856 -3.31735,-11.75187 -5.95935,-17.23842 -2.06022,-3.96276 -4.33459,-7.82903 -7.01228,-11.4101 -1.02909,-1.44932 -2.06809,-2.89503 -2.98772,-4.4024 -0.3468,-0.62111 0.70937,-0.87374 1.02268,-1.3182 2.32857,-1.86215 4.56517,-3.84867 6.47753,-6.14403 3.48712,-4.13832 5.92183,-9.09781 7.50369,-14.25066 1.05843,-3.64156 1.45169,-7.43231 1.76758,-11.19727 0.19414,-1.01134 1.28945,-1.32642 1.95677,-1.96966 0.65234,-0.46663 1.23825,-1.05826 1.85964,-1.53229 1.22144,-0.089 2.24952,0.62563 3.37888,0.99506 3.77411,1.59534 7.79735,2.58839 11.8878,2.85844 1.97067,0.2735 3.99939,0.50907 5.94255,0.32614 1.28397,-0.17227 2.5621,-0.37977 3.86125,-0.38773 4.59527,-0.51262 9.1928,-1.40944 13.45325,-3.26171 3.69089,-1.5623 7.31261,-3.41409 10.44842,-5.93209 3.2887,-2.85581 5.82946,-6.49149 7.8423,-10.33053 2.01761,-3.97013 3.67001,-8.118256 5.17146,-12.307785 1.34263,-3.988129 2.45737,-8.062479 3.23712,-12.197505 0.33068,-2.500832 0.90962,-5.017528 0.51403,-7.548473 -0.34984,-2.619193 -1.02475,-5.413316 -3.01411,-7.295783 -2.5914,-2.536563 -6.21676,-3.549422 -9.64147,-4.40594 -7.29355,-1.754268 -14.52364,-3.818975 -21.9098,-5.155508 -3.11536,-0.489332 -6.26194,-0.793041 -9.41853,-0.714947 -4.25674,-0.0317 -8.53682,0.343792 -12.65164,1.475169 -7.26142,1.775008 -13.7866,5.607858 -19.9969,9.644124 -0.57685,0.292422 -1.56232,0.811208 -2.0011,0.06778 -0.7468,-1.92199 -1.23897,-3.932886 -1.77539,-5.922469 1.55978,-0.961036 3.37057,-1.350354 5.02213,-2.190223 6.69338,-2.856222 12.88599,-7.1161 17.4152,-12.864491 3.69324,-4.664514 6.36368,-10.127647 7.9081,-15.865904 0.71704,-3.128331 1.19564,-6.346496 1.08415,-9.562017 -0.1329,-2.606972 -0.75283,-5.339879 -2.44911,-7.388459 -1.40635,-1.366306 -3.97457,-1.085187 -5.04056,0.568109 -2.68783,2.972923 -4.72928,6.518044 -7.80921,9.137288 -3.12558,2.797099 -6.69638,5.123905 -10.56984,6.825741 -4.40336,1.883372 -9.12024,2.81618 -13.88928,3.109393 -1.50562,0.214853 -2.97744,0.275775 -4.4606,0.0554 -0.40856,-0.160224 -0.83565,-0.282133 -1.21879,-0.500615 1.94201,-1.158225 3.77021,-2.60345 5.12848,-4.425094 1.15837,-1.604163 2.01823,-3.473 2.31683,-5.430374 -0.0933,-1.020845 -1.53987,-1.043159 -2.03669,-0.317249 -1.58709,1.773296 -4.08959,2.082138 -6.31725,2.356429 -1.92077,0.0086 -3.86708,0.122714 -5.76142,-0.257372 -0.23983,-0.08594 -1.39346,0.07046 -0.72996,-0.217417 2.32021,-1.367237 4.01275,-3.757865 4.63012,-6.365717 0.10474,-0.836111 0.36484,-1.789559 0.0101,-2.575628 -0.62983,-0.805551 -2.03472,-0.13388 -2.00195,0.824219 -0.70335,1.855028 -2.32275,3.398608 -4.09375,4.335938 1.86964,-2.392437 2.59583,-5.531342 2.38883,-8.526465 -0.0653,-0.749479 0.1913,-1.857193 -0.71891,-2.17666 -0.66806,-0.2827682 -1.31606,0.247284 -1.51885,0.869564 -1.04789,1.862149 -2.43461,3.650856 -4.42395,4.560767 -2.1048,1.236301 -4.68961,1.712492 -7.08354,1.522745 -1.60356,0.07496 -3.17218,-0.370508 -4.58716,-1.109525 -1.83255,-0.93604 -3.71289,-1.816867 -5.74791,-2.194974 -1.22687,-0.213 -2.4578,-0.394303 -3.69161,-0.554399 -1.56158,-0.07837 -3.13916,-0.06289 -4.68677,0.103424 -1.41039,0.30468 -2.88706,0.276078 -4.30904,0.669585 -3.44633,0.768275 -6.71287,2.308422 -10.23541,2.723524 -1.28213,0.107953 -2.72117,-0.214732 -3.99709,-0.682088 -2.07474,-0.622209 -4.04977,-1.922703 -4.97869,-3.941906 -0.47089,-0.731843 -0.81732,-2.080399 -1.87474,-2.078045 z" />
  </g>
  <g
     inkscape:groupmode="layer"
     id="layer10"
     inkscape:label="Augen"
     style="display:inline;stroke-width:0.2;stroke-dasharray:none"
     transform="translate(-144.95888,-171.74203)" />
  <g
     inkscape:groupmode="layer"
     id="layer2"
     inkscape:label="Füße"
     style="display:inline"
     transform="translate(-200.2681,3.0896902)" />
  <g
     inkscape:groupmode="layer"
     id="layer3"
     inkscape:label="Kopf"
     style="display:inline" />
  <g
     inkscape:groupmode="layer"
     id="layer4"
     inkscape:label="Hörner"
     style="display:inline;stroke-width:0.2;stroke-dasharray:none"
     transform="translate(73.486738,13.108445)" />
  <g
     inkscape:groupmode="layer"
     id="layer5"
     inkscape:label="Hufe"
     style="display:inline" />
  <g
     inkscape:groupmode="layer"
     id="layer6"
     inkscape:label="Brille"
     style="display:inline" />
  <g
     inkscape:groupmode="layer"
     id="layer7"
     inkscape:label="Nase"
     style="display:inline;stroke-width:0.4;stroke-dasharray:none" />
  <g
     inkscape:groupmode="layer"
     id="layer8"
     inkscape:label="Ohren"
     style="display:inline;stroke-width:0.2;stroke-dasharray:none"
     transform="translate(240.38965,-81.499403)" />
</svg>
