<?xml version="1.0" encoding="UTF-8" standalone="no"?>
<!-- Created with Inkscape (http://www.inkscape.org/) -->

<svg
   width="210mm"
   height="297mm"
   viewBox="0 0 210 297"
   version="1.1"
   id="svg5"
   inkscape:version="1.1 (c68e22c387, 2021-05-23)"
   sodipodi:docname="Dino.svg"
   xmlns:inkscape="http://www.inkscape.org/namespaces/inkscape"
   xmlns:sodipodi="http://sodipodi.sourceforge.net/DTD/sodipodi-0.dtd"
   xmlns="http://www.w3.org/2000/svg"
   xmlns:svg="http://www.w3.org/2000/svg">
  <sodipodi:namedview
     id="namedview7"
     pagecolor="#ffffff"
     bordercolor="#666666"
     borderopacity="1.0"
     inkscape:pageshadow="2"
     inkscape:pageopacity="0.0"
     inkscape:pagecheckerboard="0"
     inkscape:document-units="mm"
     showgrid="false"
     inkscape:snap-global="false"
     inkscape:zoom="0.37031147"
     inkscape:cx="378.06013"
     inkscape:cy="984.30654"
     inkscape:window-width="1920"
     inkscape:window-height="1017"
     inkscape:window-x="-8"
     inkscape:window-y="-8"
     inkscape:window-maximized="1"
     inkscape:current-layer="layer3" />
  <defs
     id="defs2" />
  <g
     inkscape:groupmode="layer"
     id="layer2"
     inkscape:label="Dino"
     style="display:inline" />
  <g
     inkscape:groupmode="layer"
     id="layer5"
     inkscape:label="Ruecken"
     style="display:inline">
    <g
       id="g1606"
       transform="matrix(-1,0,0,1,199.25724,-18.689677)"
       style="stroke:#000000;stroke-width:0.2;stroke-miterlimit:4;stroke-dasharray:none;stroke-opacity:1">
      <g
         id="layer2-8"
         inkscape:label="Dino"
         style="display:inline;stroke:#000000;stroke-width:0.2;stroke-miterlimit:4;stroke-dasharray:none;stroke-opacity:1" />
      <g
         id="layer5-1"
         inkscape:label="Ruecken"
         style="stroke:#000000;stroke-width:0.2;stroke-miterlimit:4;stroke-dasharray:none;stroke-opacity:1">
        <path
           style="display:inline;fill:none;fill-opacity:1;stroke:#000000;stroke-width:0.2;stroke-linecap:square;stroke-miterlimit:4;stroke-dasharray:none;stroke-dashoffset:0;stroke-opacity:1"
           d="m 162.5315,69.294531 c -5.48612,-0.82327 -14.84465,-1.11119 -20.21129,0.12167 -7.57278,1.96437 -12.87642,9.80805 -12.69161,22.16297 -0.33472,9.913349 -1.81326,19.068859 -3.6623,28.982209 -7.9043,-1.27719 -15.08181,-0.80292 -23.99406,-0.56816 -6.676346,1.58884 -11.539091,3.73372 -15.911872,8.33479 l -13.070467,11.93391 c -4.234085,4.38084 -8.420631,8.80243 -16.101301,10.22906 -2.850717,0.7662 -8.381236,0.4221 -10.986767,-2.0837 -4.088633,-3.18664 -4.672933,-7.22308 -5.543996,-11.5124 -0.300311,-3.63052 -0.321275,-6.42586 0.224689,-10.18163 l 2.583993,4.87245 -1.474522,2.83562 4.536991,3.40274 -2.268495,5.21754 3.175894,1.02082 1.134248,3.96987 4.310141,-1.58795 2.949044,2.83562 3.175891,-4.19672 3.51617,1.58795 3.629591,-6.57864 4.53699,0.79398 2.041647,-10.32166 9.414253,-0.22685 2.381922,-10.5485 9.981377,1.70137 4.083291,-6.69206 11.151698,3.88204 6.76942,-4.56259 7.03233,4.31015 -2.72219,-6.69207 5.78466,-2.94904 -6.80549,-7.25918 7.93974,-6.805489 -5.67124,-13.61097 8.62028,-4.08329 4.31013,-13.837821 8.6203,4.423571 6.12493,-5.444391 5.89809,4.990691 8.99857,2.60188 c -0.41587,-0.20357 -1.16543,-0.37096 -1.81068,-0.46779 z"
           id="path1141-0"
           sodipodi:nodetypes="scccccccccccccccccccccccccccccccccccccccccs" />
      </g>
      <g
         id="layer1-0"
         inkscape:label="Dino+"
         style="display:inline;stroke:#000000;stroke-width:0.2;stroke-miterlimit:4;stroke-dasharray:none;stroke-opacity:1" />
      <g
         id="layer3-0"
         inkscape:label="Schrift"
         style="display:none;stroke:#000000;stroke-width:0.2;stroke-miterlimit:4;stroke-dasharray:none;stroke-opacity:1">
        <g
           aria-label="Stefan"
           id="text17528-1"
           style="font-size:36px;line-height:1.25;font-family:'Comic Sans MS';-inkscape-font-specification:'Comic Sans MS, Normal';display:inline;fill:none;stroke:#000000;stroke-width:0.2;stroke-linecap:square;stroke-miterlimit:4;stroke-dasharray:none;stroke-opacity:1"
           transform="translate(-19.179506,-327.55983)">
          <path
             d="m 59.573048,585.1521 q 0.08431,-0.73366 0.652181,-1.1161 0.587706,-0.39742 1.336357,-0.29328 0.853113,0.11867 1.361676,1.18327 0.703871,1.44671 1.3349,2.01367 1.344265,1.18085 4.164764,1.57319 2.698625,0.37539 5.176485,-0.469 3.168065,-1.08558 3.538613,-3.74938 0.305158,-2.19372 -2.007744,-3.81102 -1.95409,-1.38991 -5.041046,-1.90806 -2.736326,-0.48712 -4.51631,-1.85281 -2.276116,-1.75415 -1.910412,-4.38314 0.431096,-3.09906 4.304031,-5.16918 3.696865,-1.95264 7.283425,-1.45373 1.688817,0.23492 3.732974,1.10494 2.716357,1.141 2.554091,2.3075 -0.213126,1.53212 -1.78007,1.31415 -0.696419,-0.0969 -2.386608,-0.70468 -1.687767,-0.62522 -2.647765,-0.74101 -2.72088,-0.343 -4.800264,0.6988 -2.136459,1.06936 -2.402867,2.98451 -0.201016,1.44507 2.293392,2.39547 0.926092,0.35954 3.650307,0.93371 3.945829,0.85059 5.884202,3.37415 1.773498,2.30539 1.369044,5.21295 -0.576409,4.14369 -4.750623,6.08316 -3.623295,1.67891 -8.010737,1.0686 -3.186118,-0.44321 -5.66298,-2.03007 -3.030068,-1.94777 -2.719016,-4.56661 z"
             style="font-size:36px;stroke:#000000;stroke-width:0.2;stroke-miterlimit:4;stroke-dasharray:none;stroke-opacity:1"
             id="path21047-8" />
          <path
             d="m 96.545215,578.4493 q -0.368335,-0.0244 -0.874666,-0.0931 -0.488791,-0.0676 -0.857126,-0.092 -0.403414,-0.0267 -2.402819,0.10522 l -0.352809,10.38805 -0.03354,0.77291 -0.04166,0.89569 q -0.184068,3.84584 -2.0959,3.71931 -0.701591,-0.0464 -1.197601,-0.53729 -0.478471,-0.4897 -0.433197,-1.17375 0.04411,-0.66651 0.184956,-1.99605 0.140844,-1.32954 0.184957,-1.99605 l 0.327143,-10.26643 q -1.276919,-0.13736 -3.87409,-0.55589 -1.547108,-0.31379 -1.446113,-1.83975 0.05108,-0.77175 0.558315,-1.24906 0.507238,-0.47731 1.243908,-0.42855 l 3.663613,0.54195 q 0.0592,-0.89452 0.07018,-2.39121 0.02967,-1.51306 0.07379,-2.17957 0.04876,-0.73667 0.588752,-1.17658 0.541157,-0.45744 1.277826,-0.40869 1.578578,0.10448 1.671029,2.70023 0.0097,0.65246 -0.0507,1.56452 l -0.102409,1.01499 -0.08951,1.0863 q 2.193503,-0.13669 2.509219,-0.11579 1.824134,0.12073 2.373798,0.33327 1.046707,0.42161 0.960804,1.71955 -0.05108,0.77175 -0.575855,1.2479 -0.506077,0.45977 -1.260287,0.40985 z"
             style="font-size:36px;stroke:#000000;stroke-width:0.2;stroke-miterlimit:4;stroke-dasharray:none;stroke-opacity:1"
             id="path21049-4" />
          <path
             d="m 108.9633,594.4687 q -3.97263,-0.0162 -6.42543,-2.0126 -2.680445,-2.20824 -2.66428,-6.16329 0.01868,-4.57027 2.24615,-7.65495 2.42198,-3.36512 6.44733,-3.34867 2.91795,0.0119 4.75961,1.00384 2.26261,1.22214 2.25233,3.7358 -0.007,1.75779 -1.99939,3.19107 -0.88148,0.62921 -3.73457,1.9535 l -6.7278,3.15417 q 0.97841,1.463 2.43436,2.20723 1.47353,0.74431 3.42469,0.75229 1.21288,0.005 2.8495,-0.44539 2.07657,-0.5716 2.67803,-1.50079 0.60153,-0.94676 1.28707,-0.94396 0.61523,0.003 1.0879,0.47906 0.49031,0.45904 0.4878,1.07427 -0.008,1.95115 -3.16018,3.34453 -2.69432,1.18431 -5.24312,1.17389 z m -0.40916,-16.01548 q -2.14451,-0.009 -3.57515,1.65533 -1.43057,1.64651 -2.14734,4.98345 l 5.40693,-2.54433 q 3.18793,-1.53386 4.54611,-2.67089 -1.50596,-1.41242 -4.23055,-1.42356 z"
             style="font-size:36px;stroke:#000000;stroke-width:0.2;stroke-miterlimit:4;stroke-dasharray:none;stroke-opacity:1"
             id="path21051-6" />
          <path
             d="m 130.8012,568.15346 q -4.24635,0.25337 -4.40343,6.1795 l 0.0123,1.09105 q 2.97041,-0.38855 3.84776,-0.4409 2.78996,-0.16647 2.89466,1.58822 0.0764,1.28093 -1.27758,1.60825 -0.59031,0.14088 -1.39852,0.17149 -0.7917,0.012 -4.02218,0.46891 l 0.0983,4.00908 q 0.0649,1.08791 0.26492,3.25954 0.20002,2.17163 0.26388,3.24199 0.19893,3.33391 -0.0761,5.21692 -0.21454,1.42155 -1.5481,1.50112 -0.71943,0.0429 -1.25656,-0.40048 -0.53608,-0.42586 -0.57796,-1.12773 -0.008,-0.14038 0.0142,-0.35304 0.23238,-2.30308 0.0722,-4.98776 l -0.33846,-4.78717 -0.30363,-5.0886 q -2.18289,0.30634 -2.76194,0.34089 -1.77224,0.10574 -1.87379,-1.59631 -0.10365,-1.73714 2.96182,-2.0081 l 1.68136,-0.15315 q -0.006,-0.98577 0.10407,-2.68284 0.22379,-3.92263 1.62289,-5.8551 1.69192,-2.33734 5.56979,-2.56872 2.50921,-0.14972 2.61076,1.55233 0.10051,1.68451 -2.18059,1.82061 z"
             style="font-size:36px;stroke:#000000;stroke-width:0.2;stroke-miterlimit:4;stroke-dasharray:none;stroke-opacity:1"
             id="path21053-4" />
          <path
             d="m 152.50864,591.78455 q -0.33154,0.0403 -1.2974,-0.62134 -0.87225,-0.61992 -1.32406,-1.13161 -1.56478,1.11113 -2.78342,1.71975 -1.21651,0.62608 -2.07153,0.73008 -4.08319,0.49665 -6.23045,-1.57959 -2.02558,-1.94938 -2.56892,-6.41645 -0.51363,-4.22279 2.01793,-7.57643 2.54902,-3.35576 6.57985,-3.84604 1.51811,-0.18465 3.49817,0.37135 2.49199,0.68853 2.65966,2.06704 0.0573,0.47114 -0.24711,0.88002 -0.0938,0.68431 -0.0139,2.21515 0.0974,1.52872 0.3686,3.90398 0.24574,2.16586 0.71264,3.38403 0.26788,0.74655 1.47287,2.9374 0.16035,0.29923 0.51383,0.87601 l 0.14077,0.2839 q 0.0849,0.69799 -0.3485,1.2111 -0.43341,0.51312 -1.07904,0.59165 z m -5.10459,-11.68596 q -0.0913,-0.75033 -0.11013,-1.63341 -0.004,-0.90266 0.0674,-1.92063 -0.68596,-0.25301 -1.1762,-0.35275 -0.47279,-0.10187 -0.75198,-0.0679 -2.70468,0.32898 -4.40693,2.7849 -1.68692,2.43635 -1.33672,5.31552 0.34808,2.86172 1.53419,4.16948 1.18611,1.30776 3.21026,1.06156 1.67515,-0.20375 2.76999,-0.95669 0.58785,-0.40794 1.60109,-1.54052 -1.12082,-4.55621 -1.40099,-6.85955 z"
             style="font-size:36px;stroke:#000000;stroke-width:0.2;stroke-miterlimit:4;stroke-dasharray:none;stroke-opacity:1"
             id="path21055-2" />
          <path
             d="m 170.49496,588.68297 q -1.48622,0.2765 -1.97853,-1.31261 l -1.18799,-3.69464 q -0.6181,-1.97694 -0.94604,-3.73966 -0.09,-0.48389 -0.25359,-1.6514 -0.14628,-1.17073 -0.2363,-1.65461 -0.69446,-3.73283 -2.07699,-3.47562 -1.93554,0.36008 -3.27066,2.98647 -1.20088,2.38686 -1.50473,5.75114 0.0908,0.68042 0.15954,1.72254 0.0571,0.88337 0.20817,1.6956 0.0965,0.51845 0.39305,1.53606 0.29659,1.0176 0.39304,1.53605 0.14468,0.77767 -0.24918,1.35158 -0.37658,0.57069 -1.11969,0.70894 -0.76039,0.14146 -1.31702,-0.25561 -0.55662,-0.39708 -0.7013,-1.17475 -0.0965,-0.51845 -0.41033,-1.53284 -0.29659,-1.01761 -0.39305,-1.53606 -0.33115,-1.78 -0.67435,-4.97026 -0.32913,-3.21076 -0.66029,-4.99077 -0.10288,-0.55301 -0.37455,-1.62889 -0.2544,-1.0791 -0.35728,-1.63211 -0.13825,-0.74311 0.25883,-1.29973 0.41114,-0.57712 1.13697,-0.71216 1.58991,-0.29578 2.1634,1.92189 l 0.42801,2.0123 q 2.18313,-4.41121 5.24198,-4.98028 2.76505,-0.51441 4.30712,1.71975 1.04533,1.48622 1.70603,4.65317 l 0.32472,1.74545 0.28172,1.6104 q 0.26685,1.43437 1.05415,3.64803 0.80137,2.19316 1.06501,3.61025 0.14146,0.76039 -0.2729,1.32023 -0.39386,0.5739 -1.13697,0.71215 z"
             style="font-size:36px;stroke:#000000;stroke-width:0.2;stroke-miterlimit:4;stroke-dasharray:none;stroke-opacity:1"
             id="path21057-9" />
        </g>
      </g>
      <g
         id="layer4-7"
         inkscape:label="Kreise"
         style="stroke:#000000;stroke-width:0.2;stroke-miterlimit:4;stroke-dasharray:none;stroke-opacity:1" />
    </g>
  </g>
  <g
     inkscape:groupmode="layer"
     id="layer1"
     inkscape:label="Dino+"
     style="display:inline">
    <g
       id="g1835"
       transform="matrix(-1,0,0,1,198.92402,0)"
       style="display:inline">
      <path
         style="display:inline;fill:none;fill-opacity:1;stroke:#000000;stroke-width:0.2;stroke-linecap:square;stroke-miterlimit:4;stroke-dasharray:none;stroke-dashoffset:0"
         d="m 39.400829,153.62535 c -2.281285,6.56144 -1.890532,12.77231 -1.376599,18.98535 0.871063,4.28932 1.455363,8.32576 5.543995,11.5124 2.605531,2.5058 8.13605,2.8499 10.986767,2.0837 7.68067,-1.42663 11.867216,-5.84822 16.101301,-10.22906 L 83.72676,164.04383 c 4.372781,-4.60107 9.235526,-6.74595 15.911874,-8.33479 8.912246,-0.23476 16.342366,0.0488 24.246666,1.32599 1.84904,-9.91335 3.07497,-19.82669 3.40969,-29.74004 -0.18481,-12.35492 5.11884,-20.1986 12.69161,-22.16297 5.99783,-1.37786 16.98179,-0.85617 21.97354,0.18943 5.94443,1.13394 12.6439,7.84112 13.44932,15.53302 0.43471,6.49788 1.91771,20.7463 -5.48543,24.09988 -3.33586,2.58725 -17.86185,-1.83324 -26.9066,-2.5052 l -8.52422,69.89859 c -0.77031,3.46023 -0.97135,7.64444 -4.54625,8.14536 -3.76965,0.89616 -4.01417,0.43649 -5.30395,0.37885 -3.32871,-1.01713 -3.83447,-11.61245 -5.68282,-17.42729 l -2.46255,12.69162 c -0.99643,1.95202 -1.12563,4.55445 -3.97797,5.11453 -2.96557,1.0713 -4.28531,0.49677 -5.87223,0.18942 -2.09329,-1.00308 -2.35535,-3.37959 -2.46256,-5.87223 v -13.82818 l -5.682808,-0.37885 -0.568283,14.96473 c -0.15721,3.4432 -1.114193,4.48707 -2.273122,4.92511 -2.142769,0.32793 -4.285798,0.65507 -6.629948,0.37885 -1.565584,-0.2321 -3.304387,-0.1755 -3.409688,-2.8414 L 83.72676,202.49753 78.991083,218.4094 c -0.329404,1.73619 -0.918194,3.10924 -2.273123,3.40969 -2.315454,0.0215 -4.520768,-0.17725 -6.629947,-0.56828 -1.86277,-0.39229 -2.990985,-1.72902 -3.409688,-3.97797 0.005,-4.26462 0.314412,-8.68143 1.32599,-13.44932 -6.830091,1.5619 -10.479316,3.29822 -21.405259,0.56828 -4.998555,-1.61886 -8.400532,-3.59652 -11.933904,-6.06167 -3.149914,-2.59529 -6.726752,-6.14917 -8.83791,-11.20878 -2.809536,-5.7739 -3.061267,-11.62246 -2.466256,-17.78151 0.5826,-4.1623 1.802366,-7.84566 4.484793,-12.49423 2.892959,-4.97027 5.373617,-7.05443 7.766508,-8.52422 6.38482,-3.84322 6.472458,-0.073 5.872239,1.13656 z"
         id="path1141"
         sodipodi:nodetypes="cccccccccccccccccccccccccccccccccccccccccc" />
      <ellipse
         style="opacity:0.994;fill:none;stroke:#000000;stroke-width:0.3;stroke-linecap:square;stroke-linejoin:round;stroke-miterlimit:4;stroke-dasharray:none"
         id="path6837"
         cx="152.78632"
         cy="118.38804"
         rx="2.2881296"
         ry="2.2881293" />
      <ellipse
         style="opacity:0.994;fill:none;stroke:#000000;stroke-width:0.2;stroke-linecap:square;stroke-linejoin:round;stroke-miterlimit:4;stroke-dasharray:none"
         id="path6941"
         cx="90.434334"
         cy="177.20583"
         rx="6.8204665"
         ry="3.6628432" />
      <ellipse
         style="opacity:0.994;fill:none;stroke:#000000;stroke-width:0.2;stroke-linecap:square;stroke-linejoin:round;stroke-miterlimit:4;stroke-dasharray:none"
         id="path6943"
         cx="103.19113"
         cy="167.22774"
         rx="7.1993814"
         ry="3.5365381" />
      <ellipse
         style="opacity:0.994;fill:none;stroke:#000000;stroke-width:0.2;stroke-linecap:square;stroke-linejoin:round;stroke-miterlimit:4;stroke-dasharray:none"
         id="path6945"
         cx="115.31641"
         cy="178.21626"
         rx="6.9467711"
         ry="3.4102335" />
      <ellipse
         style="opacity:0.994;fill:none;stroke:#000000;stroke-width:0.3;stroke-linecap:square;stroke-linejoin:round;stroke-miterlimit:4;stroke-dasharray:none"
         id="path7049"
         cx="150.68179"
         cy="116.26369"
         rx="6.0626369"
         ry="5.6205697" />
      <ellipse
         style="opacity:0.994;fill:none;stroke:#000000;stroke-width:0.3;stroke-linecap:square;stroke-linejoin:round;stroke-miterlimit:4;stroke-dasharray:none"
         id="path7049-2"
         cx="150.66039"
         cy="116.27103"
         rx="7.350183"
         ry="6.8142319" />
      <path
         style="fill:none;stroke:#000000;stroke-width:0.264583px;stroke-linecap:butt;stroke-linejoin:miter;stroke-opacity:1"
         d="m 155.13404,144.17166 c 3.9024,0.88217 7.66166,1.31075 11.39607,1.60498 -8.52887,-2.36213 -20.80133,-9.83106 -21.68435,-15.1151 1.23442,4.5833 4.79877,10.75043 10.28828,13.51012 z"
         id="path7164"
         sodipodi:nodetypes="cccc" />
      <g
         aria-label="Stefan"
         id="text4184"
         style="font-size:28.1238px;line-height:1.25;font-family:'Comic Sans MS';-inkscape-font-specification:'Comic Sans MS, Normal';letter-spacing:0px;word-spacing:0px;fill:none;stroke:#000000;stroke-width:0.2;stroke-miterlimit:4;stroke-dasharray:none"
         transform="translate(19.501147,128.5222)" />
    </g>
  </g>
  <g
     inkscape:groupmode="layer"
     id="layer3"
     inkscape:label="Schrift"
     style="display:none">
    <g
       aria-label="Stefan"
       id="text17528"
       style="font-size:36px;line-height:1.25;font-family:'Comic Sans MS';-inkscape-font-specification:'Comic Sans MS, Normal';display:inline;fill:none;stroke:#000000;stroke-width:0.899999;stroke-linecap:square"
       transform="matrix(-1,0,0,1,220.3877,-302.29884)">
      <path
         d="m 59.573048,585.1521 q 0.08431,-0.73366 0.652181,-1.1161 0.587706,-0.39742 1.336357,-0.29328 0.853113,0.11867 1.361676,1.18327 0.703871,1.44671 1.3349,2.01367 1.344265,1.18085 4.164764,1.57319 2.698625,0.37539 5.176485,-0.469 3.168065,-1.08558 3.538613,-3.74938 0.305158,-2.19372 -2.007744,-3.81102 -1.95409,-1.38991 -5.041046,-1.90806 -2.736326,-0.48712 -4.51631,-1.85281 -2.276116,-1.75415 -1.910412,-4.38314 0.431096,-3.09906 4.304031,-5.16918 3.696865,-1.95264 7.283425,-1.45373 1.688817,0.23492 3.732974,1.10494 2.716357,1.141 2.554091,2.3075 -0.213126,1.53212 -1.78007,1.31415 -0.696419,-0.0969 -2.386608,-0.70468 -1.687767,-0.62522 -2.647765,-0.74101 -2.72088,-0.343 -4.800264,0.6988 -2.136459,1.06936 -2.402867,2.98451 -0.201016,1.44507 2.293392,2.39547 0.926092,0.35954 3.650307,0.93371 3.945829,0.85059 5.884202,3.37415 1.773498,2.30539 1.369044,5.21295 -0.576409,4.14369 -4.750623,6.08316 -3.623295,1.67891 -8.010737,1.0686 -3.186118,-0.44321 -5.66298,-2.03007 -3.030068,-1.94777 -2.719016,-4.56661 z"
         style="font-size:36px;stroke-width:0.9"
         id="path21047" />
      <path
         d="m 96.545215,578.4493 q -0.368335,-0.0244 -0.874666,-0.0931 -0.488791,-0.0676 -0.857126,-0.092 -0.403414,-0.0267 -2.402819,0.10522 l -0.352809,10.38805 -0.03354,0.77291 -0.04166,0.89569 q -0.184068,3.84584 -2.0959,3.71931 -0.701591,-0.0464 -1.197601,-0.53729 -0.478471,-0.4897 -0.433197,-1.17375 0.04411,-0.66651 0.184956,-1.99605 0.140844,-1.32954 0.184957,-1.99605 l 0.327143,-10.26643 q -1.276919,-0.13736 -3.87409,-0.55589 -1.547108,-0.31379 -1.446113,-1.83975 0.05108,-0.77175 0.558315,-1.24906 0.507238,-0.47731 1.243908,-0.42855 l 3.663613,0.54195 q 0.0592,-0.89452 0.07018,-2.39121 0.02967,-1.51306 0.07379,-2.17957 0.04876,-0.73667 0.588752,-1.17658 0.541157,-0.45744 1.277826,-0.40869 1.578578,0.10448 1.671029,2.70023 0.0097,0.65246 -0.0507,1.56452 l -0.102409,1.01499 -0.08951,1.0863 q 2.193503,-0.13669 2.509219,-0.11579 1.824134,0.12073 2.373798,0.33327 1.046707,0.42161 0.960804,1.71955 -0.05108,0.77175 -0.575855,1.2479 -0.506077,0.45977 -1.260287,0.40985 z"
         style="font-size:36px;stroke-width:0.9"
         id="path21049" />
      <path
         d="m 108.9633,594.4687 q -3.97263,-0.0162 -6.42543,-2.0126 -2.680445,-2.20824 -2.66428,-6.16329 0.01868,-4.57027 2.24615,-7.65495 2.42198,-3.36512 6.44733,-3.34867 2.91795,0.0119 4.75961,1.00384 2.26261,1.22214 2.25233,3.7358 -0.007,1.75779 -1.99939,3.19107 -0.88148,0.62921 -3.73457,1.9535 l -6.7278,3.15417 q 0.97841,1.463 2.43436,2.20723 1.47353,0.74431 3.42469,0.75229 1.21288,0.005 2.8495,-0.44539 2.07657,-0.5716 2.67803,-1.50079 0.60153,-0.94676 1.28707,-0.94396 0.61523,0.003 1.0879,0.47906 0.49031,0.45904 0.4878,1.07427 -0.008,1.95115 -3.16018,3.34453 -2.69432,1.18431 -5.24312,1.17389 z m -0.40916,-16.01548 q -2.14451,-0.009 -3.57515,1.65533 -1.43057,1.64651 -2.14734,4.98345 l 5.40693,-2.54433 q 3.18793,-1.53386 4.54611,-2.67089 -1.50596,-1.41242 -4.23055,-1.42356 z"
         style="font-size:36px;stroke-width:0.9"
         id="path21051" />
      <path
         d="m 130.8012,568.15346 q -4.24635,0.25337 -4.40343,6.1795 l 0.0123,1.09105 q 2.97041,-0.38855 3.84776,-0.4409 2.78996,-0.16647 2.89466,1.58822 0.0764,1.28093 -1.27758,1.60825 -0.59031,0.14088 -1.39852,0.17149 -0.7917,0.012 -4.02218,0.46891 l 0.0983,4.00908 q 0.0649,1.08791 0.26492,3.25954 0.20002,2.17163 0.26388,3.24199 0.19893,3.33391 -0.0761,5.21692 -0.21454,1.42155 -1.5481,1.50112 -0.71943,0.0429 -1.25656,-0.40048 -0.53608,-0.42586 -0.57796,-1.12773 -0.008,-0.14038 0.0142,-0.35304 0.23238,-2.30308 0.0722,-4.98776 l -0.33846,-4.78717 -0.30363,-5.0886 q -2.18289,0.30634 -2.76194,0.34089 -1.77224,0.10574 -1.87379,-1.59631 -0.10365,-1.73714 2.96182,-2.0081 l 1.68136,-0.15315 q -0.006,-0.98577 0.10407,-2.68284 0.22379,-3.92263 1.62289,-5.8551 1.69192,-2.33734 5.56979,-2.56872 2.50921,-0.14972 2.61076,1.55233 0.10051,1.68451 -2.18059,1.82061 z"
         style="font-size:36px;stroke-width:0.9"
         id="path21053" />
      <path
         d="m 152.50864,591.78455 q -0.33154,0.0403 -1.2974,-0.62134 -0.87225,-0.61992 -1.32406,-1.13161 -1.56478,1.11113 -2.78342,1.71975 -1.21651,0.62608 -2.07153,0.73008 -4.08319,0.49665 -6.23045,-1.57959 -2.02558,-1.94938 -2.56892,-6.41645 -0.51363,-4.22279 2.01793,-7.57643 2.54902,-3.35576 6.57985,-3.84604 1.51811,-0.18465 3.49817,0.37135 2.49199,0.68853 2.65966,2.06704 0.0573,0.47114 -0.24711,0.88002 -0.0938,0.68431 -0.0139,2.21515 0.0974,1.52872 0.3686,3.90398 0.24574,2.16586 0.71264,3.38403 0.26788,0.74655 1.47287,2.9374 0.16035,0.29923 0.51383,0.87601 l 0.14077,0.2839 q 0.0849,0.69799 -0.3485,1.2111 -0.43341,0.51312 -1.07904,0.59165 z m -5.10459,-11.68596 q -0.0913,-0.75033 -0.11013,-1.63341 -0.004,-0.90266 0.0674,-1.92063 -0.68596,-0.25301 -1.1762,-0.35275 -0.47279,-0.10187 -0.75198,-0.0679 -2.70468,0.32898 -4.40693,2.7849 -1.68692,2.43635 -1.33672,5.31552 0.34808,2.86172 1.53419,4.16948 1.18611,1.30776 3.21026,1.06156 1.67515,-0.20375 2.76999,-0.95669 0.58785,-0.40794 1.60109,-1.54052 -1.12082,-4.55621 -1.40099,-6.85955 z"
         style="font-size:36px;stroke-width:0.9"
         id="path21055" />
      <path
         d="m 170.49496,588.68297 q -1.48622,0.2765 -1.97853,-1.31261 l -1.18799,-3.69464 q -0.6181,-1.97694 -0.94604,-3.73966 -0.09,-0.48389 -0.25359,-1.6514 -0.14628,-1.17073 -0.2363,-1.65461 -0.69446,-3.73283 -2.07699,-3.47562 -1.93554,0.36008 -3.27066,2.98647 -1.20088,2.38686 -1.50473,5.75114 0.0908,0.68042 0.15954,1.72254 0.0571,0.88337 0.20817,1.6956 0.0965,0.51845 0.39305,1.53606 0.29659,1.0176 0.39304,1.53605 0.14468,0.77767 -0.24918,1.35158 -0.37658,0.57069 -1.11969,0.70894 -0.76039,0.14146 -1.31702,-0.25561 -0.55662,-0.39708 -0.7013,-1.17475 -0.0965,-0.51845 -0.41033,-1.53284 -0.29659,-1.01761 -0.39305,-1.53606 -0.33115,-1.78 -0.67435,-4.97026 -0.32913,-3.21076 -0.66029,-4.99077 -0.10288,-0.55301 -0.37455,-1.62889 -0.2544,-1.0791 -0.35728,-1.63211 -0.13825,-0.74311 0.25883,-1.29973 0.41114,-0.57712 1.13697,-0.71216 1.58991,-0.29578 2.1634,1.92189 l 0.42801,2.0123 q 2.18313,-4.41121 5.24198,-4.98028 2.76505,-0.51441 4.30712,1.71975 1.04533,1.48622 1.70603,4.65317 l 0.32472,1.74545 0.28172,1.6104 q 0.26685,1.43437 1.05415,3.64803 0.80137,2.19316 1.06501,3.61025 0.14146,0.76039 -0.2729,1.32023 -0.39386,0.5739 -1.13697,0.71215 z"
         style="font-size:36px;stroke-width:0.9"
         id="path21057" />
    </g>
    <path
       d="m 31.069999,117.16037 q -0.01373,-0.57676 0.384505,-0.9338 0.41197,-0.37077 1.00246,-0.37077 0.672884,0 1.18098,0.76901 0.700349,1.04366 1.249642,1.41443 1.167247,0.76901 3.391884,0.76901 2.12851,0 3.954909,-0.92007 2.334495,-1.18098 2.334495,-3.28202 0,-1.73027 -1.963722,-2.73273 -1.661611,-0.86514 -4.105965,-0.9338 -2.169707,-0.0824 -3.693995,-0.94753 -1.94999,-1.11232 -1.94999,-3.1859 0,-2.44436 2.773929,-4.46301 2.650339,-1.90879 5.479198,-1.90879 1.332035,0 3.007379,0.45317 2.224636,0.59049 2.224636,1.51055 0,1.20845 -1.235909,1.20845 -0.549293,0 -1.922526,-0.28838 -1.373232,-0.30211 -2.12851,-0.28838 -2.142242,0.0275 -3.639066,1.05739 -1.53802,1.05739 -1.53802,2.56794 0,1.13979 2.032384,1.60668 0.755278,0.17852 2.924985,0.32958 3.144702,0.23345 4.916172,1.97746 1.620414,1.59294 1.620414,3.88624 0,3.2683 -3.021111,5.21829 -2.622874,1.68907 -6.08342,1.68907 -2.513015,0 -4.600328,-0.96126 -2.554213,-1.18098 -2.59541,-3.24083 z"
       id="path6551"
       style="font-size:28.1238px;line-height:1.25;font-family:'Comic Sans MS';-inkscape-font-specification:'Comic Sans MS, Normal';letter-spacing:0px;word-spacing:0px;display:inline;fill:none;stroke:#000000;stroke-width:0.2;stroke-miterlimit:4;stroke-dasharray:none"
       transform="matrix(-1,0,0,1,179.42287,128.5222)" />
    <path
       d="m 59.825487,108.87978 q -0.288379,0 -0.686616,-0.0275 -0.384505,-0.0275 -0.672884,-0.0275 -0.315844,0 -1.867596,0.20598 l 0.260914,8.11581 0.01373,0.60422 0.01373,0.70035 q 0.05493,3.00738 -1.441894,3.00738 -0.549293,0 -0.961262,-0.35704 -0.398238,-0.35704 -0.398238,-0.8926 0,-0.52183 0.0412,-1.56549 0.0412,-1.04365 0.0412,-1.56548 l -0.274646,-8.01968 q -1.00246,-0.0412 -3.048576,-0.23345 -1.222177,-0.16479 -1.222177,-1.3595 0,-0.60422 0.370773,-1.00246 0.370772,-0.39824 0.94753,-0.39824 l 2.883788,0.23345 q 0,-0.70035 -0.06866,-1.86759 -0.05493,-1.18098 -0.05493,-1.70281 0,-0.57676 0.398238,-0.94753 0.398237,-0.38451 0.974995,-0.38451 1.235909,0 1.441894,2.01865 0.0412,0.5081 0.0412,1.22218 l -0.02746,0.79648 -0.01373,0.8514 q 1.702808,-0.21972 1.94999,-0.21972 1.428161,0 1.867596,0.13733 0.837672,0.27464 0.837672,1.29083 0,0.60423 -0.384505,1.00246 -0.370773,0.38451 -0.961263,0.38451 z"
       id="path6553"
       style="font-size:28.1238px;line-height:1.25;font-family:'Comic Sans MS';-inkscape-font-specification:'Comic Sans MS, Normal';letter-spacing:0px;word-spacing:0px;display:inline;fill:none;stroke:#000000;stroke-width:0.2;stroke-miterlimit:4;stroke-dasharray:none"
       transform="matrix(-1,0,0,1,179.42287,128.5222)" />
    <path
       d="m 70.303251,121.21141 q -3.103505,0 -5.026031,-1.55176 -2.101045,-1.71654 -2.101045,-4.80631 0,-3.5704 1.730273,-5.98729 1.881328,-2.63661 5.02603,-2.63661 2.279566,0 3.72146,0.76901 1.77147,0.94753 1.77147,2.91125 0,1.37324 -1.551753,2.49929 -0.686616,0.49436 -2.911252,1.53802 l -5.245748,2.48555 q 0.76901,1.13978 1.908793,1.71654 1.153515,0.57676 2.677803,0.57676 0.94753,0 2.224637,-0.35704 1.620414,-0.45317 2.087313,-1.18098 0.466899,-0.74155 1.00246,-0.74155 0.480631,0 0.851404,0.37077 0.384505,0.35704 0.384505,0.83767 0,1.52429 -2.458086,2.62288 -2.101046,0.9338 -4.092233,0.9338 z m -0.370773,-12.51015 q -1.675343,0 -2.787662,1.30457 -1.112318,1.29084 -1.661611,3.89998 l 4.215824,-2.00492 q 2.48555,-1.20844 3.542939,-2.10105 -1.180979,-1.09858 -3.30949,-1.09858 z"
       id="path6555"
       style="font-size:28.1238px;line-height:1.25;font-family:'Comic Sans MS';-inkscape-font-specification:'Comic Sans MS, Normal';letter-spacing:0px;word-spacing:0px;display:inline;fill:none;stroke:#000000;stroke-width:0.2;stroke-miterlimit:4;stroke-dasharray:none"
       transform="matrix(-1,0,0,1,179.42287,128.5222)" />
    <path
       d="m 88.526047,101.27207 q -3.323223,0 -3.72146,4.61406 l -0.0412,0.85141 q 2.334495,-0.16479 3.021111,-0.16479 2.18344,0 2.18344,1.37323 0,1.00246 -1.071122,1.19471 -0.466899,0.0824 -1.098586,0.0687 -0.617954,-0.0275 -3.158434,0.17853 l -0.109859,3.13097 q 0,0.8514 0.05493,2.55421 0.05493,1.70281 0.05493,2.54048 0,2.60914 -0.302111,4.06477 -0.23345,1.09858 -1.277106,1.09858 -0.563026,0 -0.961263,-0.37077 -0.398238,-0.35704 -0.398238,-0.90633 0,-0.10986 0.02746,-0.27465 0.288379,-1.7852 0.288379,-3.88625 l -0.0412,-3.74892 v -3.98238 q -1.716541,0.13733 -2.169707,0.13733 -1.386965,0 -1.386965,-1.33204 0,-1.3595 2.403157,-1.42816 l 1.318303,-0.0412 q 0.0412,-0.76901 0.205985,-2.08731 0.35704,-3.04858 1.53802,-4.49047 1.428162,-1.744007 4.463005,-1.744007 1.963723,0 1.963723,1.332035 0,1.318302 -1.785202,1.318302 z"
       id="path6557"
       style="font-size:28.1238px;line-height:1.25;font-family:'Comic Sans MS';-inkscape-font-specification:'Comic Sans MS, Normal';letter-spacing:0px;word-spacing:0px;display:inline;fill:none;stroke:#000000;stroke-width:0.2;stroke-miterlimit:4;stroke-dasharray:none"
       transform="matrix(-1,0,0,1,179.42287,128.5222)" />
    <path
       d="m 104.31822,121.48605 q -0.26092,0 -0.94753,-0.60422 -0.61796,-0.56302 -0.92007,-1.00246 -1.3183,0.71408 -2.32076,1.07112 -1.00246,0.37078 -1.675343,0.37078 -3.213364,0 -4.682723,-1.81267 -1.386965,-1.70281 -1.386965,-5.21829 0,-3.32322 2.279566,-5.68518 2.293298,-2.36196 5.465465,-2.36196 1.19471,0 2.6778,0.61796 1.8676,0.76901 1.8676,1.85386 0,0.37077 -0.27465,0.65915 -0.13732,0.52183 -0.21971,1.71654 -0.0687,1.19472 -0.0824,3.06231 -0.0137,1.70281 0.23345,2.69154 0.13732,0.60422 0.86514,2.41689 0.0961,0.24718 0.31584,0.72781 l 0.0824,0.23345 q 0,0.54929 -0.38451,0.90633 -0.3845,0.35704 -0.8926,0.35704 z m -2.85632,-9.54396 q 0,-0.59049 0.0687,-1.27711 0.0824,-0.70035 0.23345,-1.48309 -0.5081,-0.26091 -0.87887,-0.3845 -0.35704,-0.1236 -0.57676,-0.1236 -2.12851,0 -3.680263,1.74401 -1.53802,1.73027 -1.53802,3.99611 0,2.2521 0.796475,3.37815 0.796475,1.12605 2.389424,1.12605 1.318303,0 2.238374,-0.48063 0.49436,-0.26092 1.38696,-1.04366 -0.43943,-3.63907 -0.43943,-5.45173 z"
       id="path6559"
       style="font-size:28.1238px;line-height:1.25;font-family:'Comic Sans MS';-inkscape-font-specification:'Comic Sans MS, Normal';letter-spacing:0px;word-spacing:0px;display:inline;fill:none;stroke:#000000;stroke-width:0.2;stroke-miterlimit:4;stroke-dasharray:none"
       transform="matrix(-1,0,0,1,179.42287,128.5222)" />
    <path
       d="m 118.51744,121.55471 q -1.18098,0 -1.33204,-1.29083 l -0.3845,-3.00738 q -0.19225,-1.60668 -0.19225,-3.00738 0,-0.38451 0.0412,-1.30457 0.0549,-0.92007 0.0549,-1.30457 0,-2.96619 -1.09858,-2.96619 -1.53802,0 -2.93872,1.8264 -1.26338,1.66161 -1.97746,4.20209 -0.0275,0.53557 -0.12359,1.34577 -0.0824,0.68662 -0.0824,1.33204 0,0.41197 0.0824,1.23591 0.0824,0.82394 0.0824,1.23591 0,0.61795 -0.38451,1.00246 -0.37077,0.3845 -0.96126,0.3845 -0.60422,0 -0.975,-0.3845 -0.37077,-0.38451 -0.37077,-1.00246 0,-0.41197 -0.0961,-1.23591 -0.0824,-0.82394 -0.0824,-1.23591 0,-1.41443 0.19225,-3.91371 0.20599,-2.51302 0.20599,-3.92745 0,-0.43943 -0.0549,-1.30457 -0.0412,-0.86514 -0.0412,-1.30457 0,-0.59049 0.38451,-0.96126 0.39823,-0.38451 0.97499,-0.38451 1.26338,0 1.38697,1.7852 l 0.0412,1.60669 q 2.30703,-3.07605 4.73766,-3.07605 2.19717,0 3.0623,1.93626 0.59049,1.29084 0.64542,3.81759 v 1.38696 l -0.0137,1.27711 q 0,1.13978 0.28838,2.95245 0.30211,1.79893 0.30211,2.92498 0,0.60423 -0.39824,0.975 -0.3845,0.3845 -0.97499,0.3845 z"
       id="path6561"
       style="font-size:28.1238px;line-height:1.25;font-family:'Comic Sans MS';-inkscape-font-specification:'Comic Sans MS, Normal';letter-spacing:0px;word-spacing:0px;display:inline;fill:none;stroke:#000000;stroke-width:0.2;stroke-miterlimit:4;stroke-dasharray:none"
       transform="matrix(-1,0,0,1,179.42287,128.5222)" />
    <text
       xml:space="preserve"
       style="font-style:normal;font-variant:normal;font-weight:normal;font-stretch:normal;font-size:40.7361px;line-height:1.25;font-family:'MV Boli';-inkscape-font-specification:'MV Boli';display:inline;fill:none;stroke:#000000;stroke-width:0.212167;stroke-opacity:1"
       x="45.588634"
       y="339.78088"
       id="text3166"><tspan
         sodipodi:role="line"
         id="tspan3164"
         style="font-style:normal;font-variant:normal;font-weight:normal;font-stretch:normal;font-size:40.7361px;font-family:'MV Boli';-inkscape-font-specification:'MV Boli';fill:none;stroke:#000000;stroke-width:0.212167;stroke-opacity:1"
         x="45.588634"
         y="339.78088">Josef</tspan></text>
    <text
       xml:space="preserve"
       style="font-style:normal;font-variant:normal;font-weight:normal;font-stretch:normal;font-size:40.7361px;line-height:1.25;font-family:'MV Boli';-inkscape-font-specification:'MV Boli';display:inline;fill:none;stroke:#000000;stroke-width:0.212167;stroke-opacity:1"
       x="-156.93675"
       y="382.03177"
       id="text3166-3"
       transform="scale(-1,1)"><tspan
         sodipodi:role="line"
         id="tspan3164-9"
         style="font-style:normal;font-variant:normal;font-weight:normal;font-stretch:normal;font-size:40.7361px;font-family:'MV Boli';-inkscape-font-specification:'MV Boli';fill:none;stroke:#000000;stroke-width:0.212167;stroke-opacity:1"
         x="-156.93675"
         y="382.03177">Josef</tspan></text>
  </g>
  <g
     inkscape:groupmode="layer"
     id="layer4"
     inkscape:label="Kreise"
     style="display:inline" />
</svg>
