<?xml version="1.0" encoding="UTF-8" standalone="no"?>
<!-- Created with Inkscape (http://www.inkscape.org/) -->

<svg
   width="210mm"
   height="297mm"
   viewBox="0 0 210 297"
   version="1.1"
   id="svg1874"
   inkscape:version="1.3 (0e150ed6c4, 2023-07-21)"
   sodipodi:docname="Pikatchu1.svg"
   xmlns:inkscape="http://www.inkscape.org/namespaces/inkscape"
   xmlns:sodipodi="http://sodipodi.sourceforge.net/DTD/sodipodi-0.dtd"
   xmlns="http://www.w3.org/2000/svg"
   xmlns:svg="http://www.w3.org/2000/svg">
  <sodipodi:namedview
     id="namedview1876"
     pagecolor="#ffffff"
     bordercolor="#666666"
     borderopacity="1.0"
     inkscape:pageshadow="2"
     inkscape:pageopacity="0.0"
     inkscape:pagecheckerboard="0"
     inkscape:document-units="mm"
     showgrid="false"
     inkscape:zoom="0.23496321"
     inkscape:cx="310.68694"
     inkscape:cy="757.5654"
     inkscape:window-width="1366"
     inkscape:window-height="705"
     inkscape:window-x="-8"
     inkscape:window-y="-8"
     inkscape:window-maximized="1"
     inkscape:current-layer="layer1"
     inkscape:showpageshadow="2"
     inkscape:deskcolor="#d1d1d1" />
  <defs
     id="defs1871" />
  <g
     inkscape:label="Ebene 1"
     inkscape:groupmode="layer"
     id="layer1">
    <path
       style="fill:none;stroke:#000000;stroke-width:0.264583;stroke-opacity:1"
       d="m 91.734696,251.53454 c -0.325501,-0.37076 -0.641241,-0.92124 -0.701645,-1.22327 -0.129518,-0.64765 -0.219346,-0.66396 -1.039964,-0.18885 -0.342287,0.19817 -0.978094,0.46441 -1.412905,0.59161 -1.69535,0.49602 -3.343774,-0.53534 -3.476589,-2.17519 -0.0479,-0.59142 -0.143832,-0.76464 -0.447517,-0.80809 -0.307723,-0.044 -0.489443,0.16759 -0.89114,1.03776 -0.78913,1.70945 -2.310299,3.06373 -3.44127,3.06373 -0.691401,0 -1.570016,-0.87474 -1.70092,-1.69345 l -0.114827,-0.71813 -0.820929,0.62667 c -0.483274,0.36892 -1.24464,0.72152 -1.85109,0.85725 -0.89951,0.2013 -1.091026,0.19067 -1.510057,-0.0839 -0.263939,-0.17295 -0.479892,-0.39718 -0.479892,-0.49832 0,-0.10112 -0.385269,-0.18385 -0.856153,-0.18385 -1.036714,0 -1.800631,-0.36756 -2.340875,-1.12633 -0.346821,-0.4871 -0.523809,-0.56742 -1.250374,-0.56742 -0.952021,0 -1.520667,-0.23436 -1.983753,-0.81755 -0.292464,-0.36834 -0.469818,-0.39331 -2.446331,-0.34461 -1.172054,0.0289 -2.935473,-0.0377 -3.918711,-0.14803 -1.810889,-0.20312 -7.388732,-0.47369 -13.737093,-0.66636 -1.914725,-0.0581 -3.69621,-0.14805 -3.958857,-0.1999 -0.374189,-0.0738 -0.570656,0.0317 -0.907802,0.48778 -0.944794,1.278 -2.395551,1.64714 -3.752522,0.95481 -0.8019,-0.40914 -2.85236,-2.44678 -3.995969,-3.971 -1.673567,-2.23056 -3.924003,-6.50414 -5.252399,-9.97431 -0.217926,-0.5693 -0.467244,-1.20445 -0.554041,-1.41147 -0.414332,-0.98819 -0.584677,-1.41214 -1.058654,-2.63472 -0.280898,-0.72455 -0.574185,-1.48673 -0.651748,-1.69375 -0.07756,-0.20701 -0.228905,-0.58811 -0.336316,-0.84688 -0.343182,-0.82677 -1.368203,-4.12564 -1.566787,-5.04245 -0.476016,-2.19765 -0.560414,-2.733 -0.822003,-5.21415 -0.646128,-6.12846 -0.06715,-10.67838 1.599832,-12.57232 0.944759,-1.07339 1.670532,-1.45204 3.034647,-1.58321 0.858792,-0.0826 1.233344,-0.0213 1.92868,0.31528 1.521214,0.73647 3.700285,3.52794 5.221445,6.68886 0.448304,0.93156 0.843837,1.73609 0.878962,1.78785 0.03513,0.0518 0.247192,-0.12275 0.471259,-0.38779 0.224067,-0.26503 0.661436,-0.77902 0.971933,-1.14221 0.899421,-1.05205 2.528942,-2.28237 4.081629,-3.08173 1.287974,-0.66308 1.461261,-0.81792 1.676909,-1.49843 0.352184,-1.11137 1.058844,-2.59608 2.194337,-4.61034 2.126245,-3.77177 4.029963,-7.96773 4.741817,-10.45139 1.179424,-4.11499 2.077387,-8.79451 2.077387,-10.82579 v -0.99627 l -1.837639,-1.89904 c -6.539554,-6.7581 -10.460385,-15.79273 -9.649542,-22.23512 0.293125,-2.32896 0.88708,-4.14364 2.1996,-6.72031 2.457645,-4.82472 2.877436,-5.74645 3.148341,-6.91275 0.476208,-2.05019 0.682039,-3.4498 0.682039,-4.63776 0,-0.62342 0.07968,-1.59223 0.17706,-2.15291 0.09739,-0.56067 0.273475,-1.65457 0.391317,-2.43086 0.66578,-4.38601 2.427273,-8.93669 5.053145,-13.05441 l 1.096127,-1.71887 -0.137559,-1.59965 c -0.31687,-3.68487 0.18435,-13.92693 0.920975,-18.819458 0.101296,-0.672796 0.272349,-1.816078 0.380118,-2.540627 0.165539,-1.112956 0.382203,-2.334796 1.017845,-5.739934 0.792122,-4.243405 1.534071,-7.367123 2.592613,-10.915284 0.953496,-3.196054 1.203251,-3.917588 2.247415,-6.492713 3.894554,-9.604777 8.424912,-16.882745 14.204158,-22.818822 1.661383,-1.706467 1.712513,-1.741028 2.575445,-1.7408 1.04287,2.82e-4 1.375695,0.27197 1.682064,1.373112 0.768611,2.762532 0.898205,3.79509 1.209452,9.636502 0.435083,8.165608 0.23948,19.163928 -0.458543,25.782655 -0.393133,3.727714 -1.024662,8.512267 -1.353809,10.256603 -0.626944,3.32255 -0.890977,4.54696 -1.217474,5.645837 -0.169146,0.569289 -0.351567,1.268999 -0.405381,1.554909 -0.05381,0.28591 -0.17276,0.56614 -0.264326,0.62274 -0.09156,0.0566 -0.166483,0.26819 -0.166483,0.47021 0,0.32005 -1.191116,2.76298 -1.903012,3.903 -0.278494,0.44597 -0.11309,0.75223 0.251895,0.4664 1.243963,-0.97418 19.18082,-0.99969 25.361709,-0.0361 5.24752,0.81809 13.05683,3.13663 14.33515,4.25601 0.36251,0.31743 0.31323,0.34156 2.2294,-1.09178 3.38246,-2.53015 8.25125,-5.09297 12.41508,-6.53501 1.50073,-0.51974 3.32136,-1.17218 4.04586,-1.44987 2.66807,-1.022648 8.19826,-2.88189 10.39691,-3.495429 0.33637,-0.09387 0.88679,-0.249591 1.22316,-0.346058 1.52829,-0.438292 5.97238,-1.551547 6.82151,-1.708801 0.51749,-0.09584 1.74536,-0.348762 2.7286,-0.562054 0.98323,-0.21329 2.50749,-0.517155 3.38723,-0.675255 0.87973,-0.158099 2.04409,-0.367313 2.58746,-0.46492 2.62058,-0.470744 3.37773,-0.59181 6.41392,-1.025579 6.38168,-0.911724 12.86548,-1.190711 17.90826,-0.770561 2.25252,0.187673 2.51496,0.284398 3.02023,1.113148 0.4802,0.787604 0.46296,1.447647 -0.0564,2.158752 -0.23287,0.318845 -0.88378,1.24176 -1.44647,2.050921 -1.14071,1.640358 -5.23128,5.831106 -7.25682,7.434546 -1.36828,1.08314 -5.68341,4.10506 -5.86178,4.10506 -0.056,0 -0.32664,0.15963 -0.60136,0.35472 -0.47849,0.33979 -1.00381,0.64349 -3.51037,2.0294 -1.62508,0.89853 -7.03846,3.54017 -10.44395,5.09646 -1.97895,0.90438 -2.54853,1.15678 -3.95177,1.75121 -0.77624,0.32883 -1.83475,0.78507 -2.35224,1.01386 -0.5175,0.2288 -1.53366,0.65378 -2.25815,0.94441 -0.72449,0.29063 -1.65598,0.67235 -2.06998,0.84827 -0.64671,0.27481 -2.34311,0.95756 -3.81063,1.53366 -0.23287,0.0914 -0.61394,0.24411 -0.84681,0.33932 -2.20979,0.90346 -7.26172,2.53233 -9.07965,2.92752 -0.82799,0.17999 -1.69995,0.40286 -1.93769,0.49526 -0.23774,0.0924 -0.767,0.16801 -1.17612,0.16801 -0.40913,0 -0.74387,0.04 -0.74387,0.089 0,0.0489 0.20278,0.53588 0.45062,1.08212 0.24784,0.54624 0.50843,1.16254 0.57908,1.36955 0.37044,1.08538 0.68429,3.98149 0.79106,7.29961 0.0659,2.04814 0.18262,3.76271 0.25937,3.81015 0.0768,0.0474 0.80448,-0.23868 1.61718,-0.63582 1.20216,-0.58748 3.59932,-1.62253 6.18211,-2.66933 0.86014,-0.34862 3.52885,-1.26006 5.92765,-2.02444 0.61238,-0.19514 4.71603,-1.33172 6.20992,-1.71995 2.45537,-0.63811 4.14304,-1.04146 5.55129,-1.32675 0.62099,-0.1258 1.32359,-0.30534 1.56133,-0.39898 0.23775,-0.0936 0.6128,-0.17024 0.83345,-0.17024 0.22065,0 0.66125,-0.0833 0.97909,-0.18507 0.9421,-0.30169 6.07192,-1.469 8.29325,-1.88716 0.414,-0.0779 1.64428,-0.3205 2.73396,-0.53904 1.99356,-0.39981 4.90701,-0.85681 7.52182,-1.17984 0.77623,-0.0959 3.49411,-0.22209 6.03971,-0.28042 4.44339,-0.10183 4.65937,-0.0902 5.40387,0.28959 1.02103,0.52093 1.19681,0.90482 1.20164,2.62433 0.004,1.39242 -0.11587,1.85031 -1.16443,4.45101 -0.0835,0.20702 -0.76206,1.94311 -1.50799,3.85798 -0.74593,1.91489 -1.72837,4.27458 -2.1832,5.24377 -0.45483,0.96919 -0.82697,1.78835 -0.82697,1.82037 0,0.032 -0.4234,0.9605 -0.9409,2.0633 -0.51749,1.10281 -0.94089,2.035 -0.94089,2.07154 0,0.0637 -0.4445,1.05175 -1.71371,3.80954 -0.32155,0.69868 -0.90506,1.99016 -1.29668,2.86997 -2.81972,6.33465 -6.30505,13.1611 -7.02458,13.75849 -0.22494,0.18677 -0.83239,0.42734 -1.34989,0.53462 -0.80454,0.16679 -7.94689,0.3785 -23.94582,0.70981 -1.99234,0.0413 -3.62245,0.15068 -3.62245,0.24316 0,0.15251 0.12012,0.48439 0.57811,1.59733 0.0852,0.20702 0.38099,1.09624 0.65733,1.97604 0.27633,0.87981 0.57223,1.76904 0.65755,1.97605 0.0853,0.20701 0.54031,1.56201 1.01111,3.01111 0.4708,1.4491 1.61892,4.93902 2.55136,7.75537 2.00231,6.04775 2.11608,6.86602 1.06601,7.66701 -0.34614,0.26403 -0.77069,0.48005 -0.94345,0.48005 -0.17276,0 -0.46114,0.0763 -0.64086,0.16945 -0.17972,0.0932 -0.83485,0.31677 -1.45584,0.49685 -0.62099,0.18008 -1.29844,0.39597 -1.50544,0.47976 -0.20699,0.0838 -0.75742,0.27578 -1.22316,0.42663 -0.85684,0.27753 -3.4637,1.27585 -4.32813,1.65748 -0.25874,0.11423 -0.63981,0.27804 -0.8468,0.36402 -0.207,0.086 -1.18083,0.50451 -2.16407,0.93009 -0.98323,0.42558 -2.06225,0.85583 -2.39782,0.95611 -0.39787,0.11891 -0.63937,0.3267 -0.6942,0.59733 -0.0919,0.45343 -0.48338,3.70982 -0.48338,4.02055 0,0.1059 0.48691,0.30084 1.08203,0.43319 1.36115,0.30272 2.45351,0.85174 3.98423,2.0025 l 1.20305,0.90441 0.47293,-0.6499 c 0.93018,-1.27823 3.92123,-4.03785 4.94012,-4.55789 1.96685,-1.00388 3.64454,-0.58045 4.89201,1.23467 1.42261,2.06995 1.91329,4.01968 1.80945,7.18998 -0.11465,3.50046 -0.19765,3.8236 -3.02134,11.76216 -0.46021,1.29384 -1.06211,2.98759 -1.33756,3.76389 -0.27545,0.7763 -0.63239,1.75021 -0.79321,2.16424 -0.16081,0.41403 -0.35561,0.92215 -0.43287,1.12916 -0.0773,0.20702 -0.23648,0.60928 -0.35383,0.89393 -0.24421,0.59238 -0.35392,0.86513 -1.0787,2.68177 -0.28908,0.72455 -1.36691,2.96877 -2.3952,4.98716 -1.02828,2.01838 -1.96436,3.85968 -2.08018,4.09176 -0.11581,0.23208 -0.27408,0.42263 -0.3517,0.42344 -0.0776,0 -0.14114,0.0824 -0.14114,0.1813 0,0.0989 -0.21325,0.50118 -0.47389,0.89393 -0.26065,0.39274 -0.57821,0.87364 -0.70568,1.06864 -0.72721,1.11248 -2.07781,2.524 -2.76704,2.8918 -1.50873,0.80517 -3.26392,0.47146 -4.29098,-0.8158 -0.45791,-0.57394 -0.58238,-0.62961 -1.17118,-0.52381 -0.36235,0.0651 -0.7435,0.18199 -0.847,0.25973 -0.1035,0.0777 -0.48457,0.18626 -0.84681,0.24114 -7.23799,1.09649 -8.79107,1.26194 -11.86507,1.26398 -3.67857,0.002 -9.46542,-0.66434 -10.08783,-1.16238 -0.16266,-0.13015 -0.1923,0.11096 -0.11646,0.94736 0.0926,1.02084 0.0585,1.16511 -0.37719,1.60091 -0.26341,0.26342 -0.70544,0.53581 -0.9823,0.60531 -0.60536,0.15192 -1.81253,-0.20913 -2.76717,-0.82764 l -0.69771,-0.45207 -0.46274,0.53728 c -0.41124,0.4775 -0.57801,0.5346 -1.49898,0.5133 -0.72573,-0.0168 -1.20436,-0.14368 -1.59721,-0.42345 -0.58495,-0.41654 -0.9733,-0.51234 -0.9733,-0.24006 0,0.0877 -0.17406,0.36012 -0.3868,0.60544 -0.324162,0.37379 -0.555959,0.44357 -1.431375,0.43092 -0.574517,-0.008 -1.099069,-0.0903 -1.165676,-0.18228 -0.06657,-0.092 -0.361127,-0.29106 -0.654487,-0.44245 -0.293368,-0.15138 -0.777445,-0.55324 -1.075741,-0.893 -0.510535,-0.58152 -0.553763,-0.59644 -0.736827,-0.25437 -0.106954,0.19989 -0.194468,0.48704 -0.194468,0.63817 0,0.15113 -0.245676,0.53779 -0.545947,0.85924 -0.434539,0.46522 -0.699368,0.5845 -1.297763,0.5845 -0.626889,0 -0.850153,-0.11201 -1.343633,-0.67409 z m 7.409238,-2.63598 c -0.0064,-0.61187 -0.08077,-1.38774 -0.164656,-1.72413 -0.260033,-1.04279 0.444738,-0.79465 1.461312,0.51451 0.48095,0.61938 1.22692,1.38149 1.6577,1.69358 1.1116,0.80528 1.34869,0.56025 1.26298,-1.30527 -0.0623,-1.35679 -0.0461,-1.42307 0.36268,-1.48109 0.34779,-0.0494 0.4963,0.0938 0.79294,0.76449 0.20075,0.45385 0.51778,0.96348 0.70452,1.13249 0.49673,0.44958 2.01605,1.09417 2.08856,0.8861 0.08,-0.22945 -0.86137,-2.09185 -1.39657,-2.76313 -0.38001,-0.4766 -0.44766,-0.49632 -0.89005,-0.25956 -0.26332,0.14094 -0.61151,0.20532 -0.77374,0.14307 -0.78384,-0.30081 -0.60888,-0.59291 7.8226,-13.05961 3.74069,-5.53096 6.66835,-10.93146 8.59741,-15.85918 1.50208,-3.837 2.89396,-9.53846 3.33088,-13.6441 0.15767,-1.48163 0.25228,-1.78785 0.55234,-1.78785 0.39577,0 0.48072,0.45591 0.59252,3.18012 0.0708,1.72569 0.0193,3.15772 -0.15813,4.39471 -0.14475,1.0092 -0.24558,1.8349 -0.22408,1.8349 0.0215,0 0.78913,-0.74262 1.70582,-1.65027 1.16234,-1.15086 2.0796,-1.86587 3.03103,-2.36269 0.75036,-0.39184 1.3643,-0.78196 1.3643,-0.86695 0,-0.085 -0.20856,-0.62614 -0.46348,-1.20258 -1.74256,-3.94057 -3.18338,-8.84883 -4.04277,-13.77204 -0.31921,-1.82868 -0.76081,-7.36486 -0.76183,-9.55087 -5.7e-4,-1.1127 -0.0543,-2.02309 -0.11963,-2.02309 -0.0653,0 -0.76389,0.56565 -1.55247,1.257 -1.90522,1.67028 -4.06067,3.05549 -6.69699,4.30386 -1.19165,0.56427 -2.21063,1.02594 -2.2644,1.02594 -0.0538,0 -0.45675,0.16357 -0.8955,0.36348 -1.58144,0.72059 -2.70535,0.97839 -5.86517,1.34536 -3.60415,0.41858 -9.009748,0.51556 -9.427125,0.16914 -0.582141,-0.48317 -0.06579,-0.69548 2.225715,-0.91518 4.55373,-0.43657 5.7508,-0.74888 10.32036,-2.69257 4.04437,-1.72029 5.99999,-2.92296 8.57529,-5.27365 4.86473,-4.44042 7.41682,-8.62316 8.98933,-14.73304 0.8691,-3.37685 1.21154,-8.20069 1.01535,-14.30279 -0.0699,-2.17364 -0.13577,-6.88885 -0.14641,-10.47823 -0.0183,-6.15509 -0.11706,-7.90433 -0.59874,-10.59956 -0.39405,-2.2049 -0.58993,-2.91708 -0.80368,-2.92197 -0.393,-0.009 -3.2027,-0.21707 -4.62343,-0.34239 -1.89612,-0.16724 -1.93122,-0.50613 -0.0691,-0.66728 0.80586,-0.0697 2.31201,-0.30233 3.347,-0.51687 1.65275,-0.3426 2.75221,-0.62616 5.83357,-1.50452 1.28255,-0.3656 6.1412,-1.98805 7.52717,-2.51354 0.72449,-0.27469 1.74066,-0.65204 2.25815,-0.83855 2.83216,-1.02074 8.18243,-3.33013 9.62783,-4.15577 3.57043,-2.0395 8.06189,-5.83991 10.49278,-8.8784 1.13133,-1.41409 2.57893,-3.96801 3.0718,-5.41941 0.66012,-1.943884 1.06026,-5.651236 0.6381,-5.912164 -0.0893,-0.05519 -0.66089,-0.02067 -1.27021,0.07672 -0.60932,0.09738 -2.12402,0.313678 -3.36601,0.480651 -1.92907,0.259344 -5.87332,0.874518 -8.93852,1.394113 -3.95742,0.670842 -10.30398,2.26716 -14.32783,3.60382 -3.54699,1.17825 -5.7508,2.13228 -8.73866,3.78299 -1.027,0.56739 -2.6294,1.44085 -3.56088,1.94102 -0.93149,0.50017 -3.51425,1.98941 -5.73948,3.30942 -4.03833,2.39555 -4.80949,2.86192 -7.50759,4.5403 -1.37675,0.85642 -2.08955,1.10051 -2.08955,0.71555 0,-0.1002 0.56143,-0.82597 1.24763,-1.61283 0.70481,-0.8082 1.17558,-1.50018 1.08203,-1.59048 -0.20064,-0.19366 -3.07714,-1.38886 -4.22926,-1.75727 -3.42906,-1.09651 -9.386868,-2.57049 -12.213854,-3.02175 -2.614801,-0.41739 -5.837245,-0.68098 -8.289858,-0.67811 -3.095153,0.004 -11.127143,0.70136 -15.138474,1.31506 -1.10723,0.1694 -3.926726,0.48896 -5.496542,0.62297 -1.184499,0.10112 0.196428,-0.84628 2.465049,-1.69118 0.50615,-0.1885 1.038724,-0.51227 1.183496,-0.71949 1.262691,-1.80733 1.877748,-3.06733 2.893939,-5.9285 0.334677,-0.942304 1.098527,-4.096066 1.481392,-6.116322 0.698422,-3.68535 0.742666,-3.933893 0.938019,-5.269448 0.654311,-4.473266 1.011396,-7.948933 1.344169,-13.0834 0.405079,-6.250586 0.139807,-7.986124 -1.373796,-8.987859 -1.011248,-0.669267 -2.097942,-0.633312 -3.931551,0.130083 -3.828717,1.594029 -8.0882,5.852659 -11.09564,11.093421 -2.772467,4.831301 -4.682585,17.210818 -4.756504,30.827005 -0.01302,2.3975 0.03812,4.42121 0.113621,4.49713 0.07551,0.0759 0.49891,-0.19346 0.940896,-0.59862 1.472241,-1.34958 3.166228,-2.55397 3.442869,-2.4478 0.330261,0.12674 0.182008,0.58148 -0.405238,1.24299 -2.417963,2.72373 -6.363535,9.66248 -8.407882,14.78622 -1.225405,3.07123 -1.512209,4.25586 -3.255691,13.44745 -0.562355,2.96472 -1.03067,4.60647 -1.900024,6.66082 -0.345741,0.81701 -0.592529,1.52157 -0.548419,1.56568 0.04411,0.0441 0.582998,-0.0187 1.197536,-0.13964 1.915688,-0.37692 4.162557,0.39723 5.938447,2.04606 2.120699,1.96897 3.116349,4.4932 2.895575,7.34101 -0.343119,4.42598 -3.324362,7.95876 -7.362776,8.7249 -0.679107,0.12884 -1.234741,0.28291 -1.234741,0.34239 0,0.24299 2.651171,4.14379 3.769284,5.54595 2.621016,3.28686 6.43334,6.86789 10.649783,10.00368 2.770616,2.06052 4.523975,3.13529 7.758392,4.75572 2.347525,1.17609 2.662217,1.38879 2.662217,1.7994 0,0.78464 -0.699551,0.78629 -3.062122,0.007 -3.566206,-1.17604 -8.986891,-3.96687 -11.790135,-6.07011 -0.458095,-0.34371 -0.911447,-0.59873 -1.00745,-0.56673 -0.09601,0.032 -0.208304,0.56338 -0.249551,1.18085 -0.184322,2.75922 -0.989518,6.02375 -2.226465,9.02684 -1.284038,3.11741 -4.295229,8.53606 -6.353699,11.4335 -0.496634,0.69905 -0.902971,1.30137 -0.902971,1.3385 0,0.0371 0.464626,0.12212 1.032501,0.18886 1.215981,0.14293 3.946241,1.48215 5.062663,2.48328 0.402628,0.36105 0.753692,0.63305 0.78014,0.60443 0.02645,-0.0286 -0.03482,-0.89891 -0.136167,-1.93398 -0.466965,-4.76948 0.719867,-14.71598 1.645481,-13.79029 0.06253,0.0625 0.105531,1.62421 0.09557,3.47039 -0.02283,4.22904 0.658368,9.89407 1.856927,15.44266 0.362339,1.67741 1.36169,5.28252 1.69952,6.13093 0.09075,0.22791 0.479749,1.25308 0.864448,2.27818 0.918496,2.44748 2.310188,5.24411 4.223351,8.48689 3.58177,6.07105 4.789658,8.18281 5.59746,9.78612 0.906023,1.79826 2.117786,4.54245 2.117786,4.79603 0,0.0835 -0.423329,0.42357 -0.940732,0.7556 -0.847107,0.54363 -2.070137,1.99599 -2.070137,2.45829 0,0.1897 1.279717,0.0516 2.007527,-0.21663 0.224401,-0.0827 0.797988,-0.44809 1.274637,-0.81195 0.852186,-0.65055 2.080746,-1.1337 2.392601,-0.94095 0.305708,0.18894 0.152009,0.51505 -0.691853,1.46788 -1.839078,2.07656 -1.835257,2.06767 -0.819738,1.90376 0.607714,-0.0981 1.045533,-0.34359 1.670386,-0.93659 1.424431,-1.35182 2.82269,-2.14836 2.82269,-1.60798 0,0.10263 -0.288584,0.56469 -0.641298,1.02679 -0.655164,0.85838 -1.181445,2.10775 -0.974884,2.31432 0.242417,0.24244 2.279615,-1.37901 2.66278,-2.11935 0.419679,-0.81089 1.077261,-1.08878 1.286441,-0.54363 0.06753,0.17601 0.175417,0.94268 0.239742,1.7037 0.09431,1.11573 0.177344,1.3837 0.428787,1.3837 0.668372,0 2.079275,-1.94459 2.079275,-2.86579 0,-0.56539 0.498275,-1.27449 0.895565,-1.27449 0.170326,0 0.594847,0.27524 0.943382,0.61163 0.622473,0.6008 0.63872,0.60497 0.917017,0.23525 0.213164,-0.2832 0.260862,-0.70259 0.192632,-1.69376 -0.04988,-0.72454 -0.192167,-2.75704 -0.316201,-4.51666 -0.27274,-3.86925 -0.132997,-10.7119 0.27288,-13.36181 0.450836,-2.94346 1.025233,-6.09533 1.354711,-7.43369 0.509572,-2.06992 -0.06715,-6.01202 -1.445466,-9.88021 -0.419458,-1.1772 -1.114837,-3.78007 -1.118683,-4.18733 -0.0014,-0.12939 0.167314,-0.23525 0.374526,-0.23525 0.24401,0 0.679329,0.41106 1.235567,1.16672 1.00675,1.36768 1.463009,2.30808 2.154629,4.44089 0.278481,0.85878 0.575127,1.57863 0.659209,1.59965 0.08408,0.0211 0.233451,-0.21583 0.331932,-0.52635 0.898458,-2.833 4.163223,-9.92793 5.109308,-11.10348 0.33058,-0.41075 0.511624,-0.5086 0.664474,-0.35911 0.228589,0.22357 0.102723,0.68188 -1.028946,3.74661 -0.343982,0.93157 -1.013576,3.0911 -1.487984,4.79897 -0.47441,1.70786 -0.949655,3.40161 -1.056101,3.76388 -1.809555,6.15856 -3.185351,18.8014 -2.920419,26.83711 0.141652,4.29649 0.0894,4.72213 -0.826837,6.73558 -0.699798,1.53779 -1.005614,2.51217 -0.861612,2.74517 0.133683,0.21634 0.892744,0.24903 1.758981,0.0758 0.319321,-0.0639 0.916021,-0.44496 1.326,-0.84688 0.409978,-0.40191 0.792684,-0.73074 0.850457,-0.73074 0.05777,0 0.285376,0.35992 0.505783,0.79982 0.642112,1.28157 1.379293,2.39881 1.582792,2.39881 0.277077,0 1.202077,-1.54058 1.340453,-2.23251 0.157705,-0.78858 0.365219,-0.88652 0.771552,-0.3641 1.071089,1.37703 3.009921,2.86569 3.533379,2.71295 0.103498,-0.0302 0.182714,-0.55553 0.176036,-1.16741 z M 79.684217,180.28752 c -4.170888,-1.79496 -8.381668,-8.71373 -10.919414,-17.94179 -0.595401,-2.16506 -0.750741,-2.81387 -1.016818,-4.24693 -0.164636,-0.88671 -0.354861,-2.39446 -0.422722,-3.35056 -0.115192,-1.62297 -0.155813,-1.75531 -0.61198,-1.99374 -1.051862,-0.54979 -1.998725,-1.93449 -2.117232,-3.09626 -0.08419,-0.8253 0.223886,-0.91955 0.636429,-0.19472 0.639089,1.12287 2.271314,1.36354 5.790781,0.85383 1.980636,-0.28685 3.139249,-0.6405 4.740405,-1.44693 1.665575,-0.83887 2.594126,-1.10406 3.876297,-1.10703 1.465844,-0.004 2.136412,0.31981 3.897224,1.87837 2.953924,2.61461 8.020723,4.26858 11.545096,3.76869 1.826429,-0.25905 2.404061,-0.53793 3.489873,-1.68492 1.055443,-1.11489 1.687824,-1.22031 2.167704,-0.36134 0.2512,0.44964 0.2435,0.57572 -0.0788,1.29045 -0.21388,0.47435 -0.700652,1.04718 -1.213363,1.42788 -0.470905,0.34967 -0.95447,0.71796 -1.074582,0.81843 -0.120112,0.10048 -0.27595,0.84275 -0.346297,1.6495 -0.214927,2.46478 -0.776478,5.38691 -1.475353,7.67723 -1.58491,5.19397 -4.620605,10.68305 -7.44655,13.4647 -0.979289,0.96394 -2.535804,2.084 -3.568376,2.56778 -0.837494,0.39239 -1.412081,0.51021 -2.752101,0.56432 -1.568992,0.0634 -1.79712,0.0238 -3.100253,-0.53696 z m 5.94829,-3.64316 c 1.978149,-0.9679 4.19652,-3.75741 6.357334,-7.99411 1.14676,-2.24844 1.814351,-4.01906 2.476954,-6.56949 0.521271,-2.00641 1.106855,-5.72937 0.960975,-6.10955 -0.07159,-0.18658 -0.602352,-0.25579 -2.046696,-0.2669 -3.813959,-0.0294 -6.91237,-1.25665 -9.467528,-3.75018 -3.316452,-3.23645 -4.495535,-3.47765 -7.404291,-1.51469 -1.814582,1.22457 -2.121151,1.57949 -3.131841,3.62574 -1.142241,2.31257 -1.650357,4.52351 -1.643537,7.15138 0.01033,3.9776 0.912955,6.26872 4.152002,10.5389 2.210176,2.91377 4.172646,4.82061 5.454396,5.29977 1.079325,0.40348 3.004528,0.21919 4.292232,-0.41087 z m 31.118333,-6.28678 c -2.38433,-0.75671 -4.04028,-2.05882 -5.27407,-4.14708 -1.11155,-1.88137 -1.38337,-2.84712 -1.37911,-4.89984 0.009,-4.58938 2.41644,-7.85222 6.59547,-8.94081 4.96108,-1.2923 10.24055,2.2152 11.1709,7.42157 0.747,4.18031 -2.38554,9.44744 -6.3305,10.64426 -1.21795,0.36951 -3.48919,0.33242 -4.78269,-0.0781 z m 3.95177,-1.56168 c 4.65152,-1.39154 6.87167,-6.51687 4.65205,-10.7395 -1.90711,-3.62812 -6.36511,-5.09112 -10.00135,-3.28218 -1.25211,0.62289 -2.68631,2.13028 -3.11365,3.27255 -0.5125,1.36991 -0.51772,3.72434 -0.0119,5.36126 1.07331,3.4732 4.21772,5.99786 7.06348,5.67129 0.41399,-0.0475 1.0491,-0.17505 1.41134,-0.28342 z m -14.20754,-23.08468 c -1.55669,-0.45341 -2.49282,-0.97293 -3.45207,-1.91574 -1.64873,-1.62049 -2.47558,-3.54166 -2.47558,-5.75199 0,-2.79841 0.9774,-4.69009 3.19408,-6.18193 1.35745,-0.91357 2.75599,-1.26737 5.08581,-1.28658 1.72449,-0.0142 2.09458,0.0414 2.90884,0.43734 1.36831,0.66531 2.94779,2.33969 3.75238,3.97783 1.68607,3.43283 1.28339,6.59814 -1.1187,8.7937 -2.20604,2.01635 -5.13462,2.73132 -7.89476,1.92737 z m 2.75524,-7.01412 c 1.94772,-0.5836 3.10743,-2.74084 2.38182,-4.43055 -0.41582,-0.9683 -0.92876,-1.56694 -1.66409,-1.94211 -1.65641,-0.8451 -3.73231,-0.14958 -4.61885,1.54752 -0.146,0.27951 -0.26547,0.94004 -0.26547,1.46785 0,1.47142 0.81192,2.64917 2.25815,3.27566 0.80745,0.34977 0.98779,0.35749 1.90844,0.0816 z m -30.633337,4.64215 c -0.295342,-0.36164 -0.769859,-0.94491 -1.05448,-1.29615 -0.606476,-0.74843 -0.643997,-1.07281 -0.173362,-1.49877 0.416785,-0.37722 0.95823,-0.38468 3.043097,-0.0419 2.553728,0.41982 2.634511,0.45174 2.634511,1.04094 0,0.38171 -0.267709,0.77009 -1.023722,1.48515 -0.949015,0.89762 -1.091782,0.96828 -1.956389,0.96828 -0.837675,0 -0.987361,-0.067 -1.469655,-0.65752 z m -17.99139,0.265 c -1.196969,-0.28212 -2.460357,-1.03302 -3.364503,-1.99971 -1.400947,-1.49785 -1.856706,-2.78127 -1.856706,-5.22853 0,-2.49325 0.742247,-4.4846 2.266219,-6.07995 1.227868,-1.28537 1.767307,-1.51535 5.390127,-2.298 0.997019,-0.21539 2.646741,0.043 3.781353,0.59234 1.669053,0.80803 3.199017,2.74828 3.724843,4.72369 1.332336,5.00529 -3.060019,10.55054 -8.293996,10.47098 -0.517493,-0.008 -1.258794,-0.0892 -1.647337,-0.18082 z m 3.29905,-8.08755 c 1.396298,-0.38779 2.771313,-2.08347 2.769798,-3.41574 -9.25e-4,-0.79768 -0.582605,-1.74512 -1.298885,-2.11555 -0.793982,-0.41062 -2.323001,-0.37102 -3.213312,0.0832 -2.432957,1.2413 -2.492471,4.51581 -0.09749,5.36436 0.922297,0.32677 0.9587,0.32843 1.839892,0.0837 z m 59.790657,111.1465 c 2.74751,-0.24242 5.33581,-0.68014 8.63402,-1.46013 l 1.01457,-0.23993 0.0206,-3.54393 c 0.019,-3.27716 0.0481,-3.56405 0.3857,-3.81094 0.20082,-0.14687 0.42002,-0.26701 0.48713,-0.26701 0.26469,0 0.55912,1.00899 0.56548,1.93786 0.009,1.32973 0.5197,3.3575 1.26538,5.02534 0.20825,0.46578 0.51518,1.16707 0.68207,1.5584 0.3492,0.81882 0.73889,1.04006 1.18712,0.67395 0.29118,-0.23784 3.06864,-4.36542 3.06864,-4.56032 0,-0.0481 0.36573,-0.70844 0.81273,-1.46742 1.13656,-1.92979 3.26695,-6.18054 4.60587,-9.19003 2.89021,-6.49634 4.35342,-10.68256 5.21624,-14.92363 0.31694,-1.55786 0.32284,-3.75007 0.008,-3.04895 -0.34985,0.77959 -1.42502,2.35243 -1.60808,2.35243 -0.23629,0 -0.25208,-0.80092 -0.0206,-1.04448 0.40726,-0.42852 1.14734,-4.12515 1.14734,-5.73088 0,-1.52473 -0.0356,-1.67626 -0.51259,-2.18345 l -0.51259,-0.54502 -0.1405,1.09194 c -0.17054,1.32541 -1.27538,4.48371 -2.15263,6.15355 -1.37021,2.60815 -2.85907,4.05899 -1.60919,1.56808 1.15267,-2.29714 2.43846,-6.8622 2.09111,-7.42426 -0.11888,-0.19238 -0.24335,-0.16572 -0.57797,0.12373 -1.27081,1.0993 -2.89787,3.04332 -4.04569,4.83381 -1.5865,2.47479 -3.58105,6.91402 -4.50473,10.02608 -0.3944,1.32883 -0.75021,1.8421 -0.93789,1.35296 -0.0661,-0.17243 -0.0333,-0.71677 0.0729,-1.20963 0.10629,-0.49286 0.29187,-1.44658 0.41242,-2.11937 0.52317,-2.91989 1.52556,-6.48262 2.18153,-7.75368 0.14425,-0.2795 0.26228,-0.62697 0.26228,-0.77215 0,-0.36758 -2.34128,-2.29861 -3.37781,-2.78593 -3.0818,-1.44889 -5.93962,-1.21874 -9.73703,0.78416 -0.80799,0.42616 -1.76545,1.00765 -2.1277,1.29219 -0.36224,0.28455 -0.83358,0.61044 -1.04743,0.72421 -0.29268,0.1557 -0.47148,0.59359 -0.72328,1.77134 -0.33985,1.58959 -1.78125,6.18117 -2.2635,7.21034 -0.14551,0.31053 -0.44563,1.02531 -0.66695,1.5884 -0.57121,1.45331 -2.66203,5.52335 -3.89429,7.58072 -2.63703,4.40278 -5.52011,8.43189 -8.52369,11.91191 -2.02988,2.35185 -2.03351,2.36293 -1.07184,3.26239 0.37422,0.35002 0.8014,0.4783 2.0402,0.61263 0.86179,0.0934 1.82092,0.22425 2.13142,0.29069 0.7787,0.1666 5.73335,0.57427 7.339,0.60386 0.72448,0.0134 2.71529,-0.0991 4.42402,-0.24983 z m -82.316538,-2.00947 c 0.719786,-1.42055 1.397604,-3.69972 1.397604,-4.69946 0,-0.92682 0.310233,-1.38142 0.811456,-1.18907 0.425125,0.16315 0.573836,1.03729 0.558151,3.28093 l -0.01381,1.97604 4.261811,-0.064 c 2.57556,-0.0386 6.455872,0.064 9.807052,0.25932 3.049881,0.17778 6.140727,0.27538 6.868546,0.21687 1.221862,-0.0982 3.930776,-0.87448 4.283815,-1.22755 0.326241,-0.32626 -1.5799,-4.18577 -4.420563,-8.95063 -2.967953,-4.97839 -3.471041,-5.87468 -4.905258,-8.73905 -2.11895,-4.2319 -3.205543,-7.14311 -4.366687,-11.69928 -0.355983,-1.39683 -0.71218,-2.56134 -0.79155,-2.5878 -0.07937,-0.0265 -0.648195,-0.52086 -1.264057,-1.09866 -1.789166,-1.6786 -2.246454,-1.85096 -4.901252,-1.84733 -3.723285,0.005 -5.373053,0.71845 -8.906224,3.85105 -0.949253,0.84162 -1.725912,1.67628 -1.725912,1.85478 0,0.3331 0.462769,1.88431 0.762481,2.55584 0.243231,0.54499 1.426963,4.72863 1.650695,5.83404 0.10475,0.51753 0.292202,1.70316 0.416562,2.63472 0.124358,0.93156 0.343008,2.40352 0.485889,3.271 0.337341,2.04816 0.334196,2.96469 -0.01063,3.09702 -0.276301,0.10604 -0.720323,-1.03303 -1.235217,-3.16871 -0.249839,-1.03629 -1.440672,-4.95332 -2.746261,-9.03334 -0.859221,-2.6851 -1.239648,-3.54891 -2.7351,-6.21042 -2.583838,-4.59857 -2.798336,-4.85199 -2.798336,-3.3062 0,1.77063 0.714797,5.17948 1.498703,7.14729 0.858598,2.15529 0.841584,2.08761 0.524225,2.08539 -0.326176,-0.002 -1.563599,-1.97223 -2.21943,-3.53328 -0.934844,-2.22517 -1.673283,-5.58448 -1.684393,-7.66265 -0.0083,-1.54919 -0.147389,-1.9584 -0.714066,-2.10065 -0.384169,-0.0964 -0.586343,-0.001 -1.012501,0.47552 -0.46332,0.51858 -0.532686,0.74839 -0.534043,1.76925 -0.0023,1.74539 0.341102,5.55555 0.750328,8.3246 0.631126,4.27057 -0.111435,3.31853 -1.761411,-2.2583 -0.248715,-0.84065 -0.283202,-0.88078 -0.323441,-0.37639 -0.261589,3.27895 1.893442,10.93057 4.961967,17.61788 0.35074,0.76438 0.922968,2.02493 1.271617,2.80123 1.092523,2.43261 2.631287,5.29322 3.871537,7.19729 1.233685,1.894 3.601947,4.47077 4.108995,4.47077 0.158501,0 0.508921,-0.43563 0.778712,-0.96809 z m 92.763558,-43.72811 c 0.44104,-1.3665 1.57392,-2.58078 3.10293,-3.32591 3.47515,-1.69352 7.51582,-3.31663 11.25523,-4.52115 0.65477,-0.21092 1.23376,-0.49627 1.28666,-0.63413 0.0529,-0.13786 -0.21572,-1.25006 -0.59693,-2.47154 -0.98436,-3.15413 -1.75748,-5.58946 -2.25839,-7.11395 -0.23807,-0.72455 -0.83125,-2.58767 -1.31817,-4.14028 -0.48693,-1.55261 -1.13352,-3.58511 -1.43686,-4.51667 -0.30335,-0.93157 -0.68928,-2.47038 -0.85763,-3.41958 -0.28556,-1.61011 -0.28481,-1.75833 0.0113,-2.21031 0.79829,-1.21846 2.02659,-1.36109 13.10621,-1.52189 4.70919,-0.0684 10.37311,-0.19078 12.58649,-0.27208 3.62256,-0.13305 4.04526,-0.18256 4.23403,-0.49593 0.55832,-0.92683 2.36517,-4.09355 3.31985,-5.81841 0.34373,-0.62105 0.90873,-1.6373 1.25557,-2.25834 1.3891,-2.48734 4.60849,-9.07724 5.7985,-11.86916 1.22229,-2.86768 1.66338,-4.01329 3.00214,-7.79717 0.3479,-0.98332 1.10627,-3.08627 1.68526,-4.67323 0.57899,-1.58696 1.00466,-2.96313 0.94594,-3.05816 -0.0588,-0.095 -0.71572,-0.17158 -1.45998,-0.17011 -1.4069,0.003 -8.26959,0.47756 -9.25672,0.64042 -0.3105,0.0512 -1.28433,0.18954 -2.16407,0.30737 -1.83771,0.24614 -6.25141,1.00532 -8.1858,1.408 -3.9396,0.8201 -7.28816,1.5751 -8.75034,1.97294 -0.36224,0.0986 -1.8865,0.48262 -3.38723,0.85346 -6.87748,1.69946 -11.02593,2.97769 -15.27982,4.70805 -2.03343,0.82713 -7.24881,3.34073 -7.54388,3.63583 -0.0879,0.0879 -0.19671,4.42649 -0.24188,9.64138 -0.0452,5.2149 -0.1688,10.18011 -0.27472,11.0338 -0.24853,2.00299 -0.98343,4.81959 -1.71787,6.58394 l -0.58003,1.3934 0.4683,0.50469 c 0.25755,0.27759 1.18819,1.60564 2.06806,2.95123 1.9269,2.94679 4.18328,5.97594 6.18371,8.3015 1.62358,1.88746 1.86378,2.34295 1.86378,3.5342 0,0.59067 -0.1115,0.90437 -0.4234,1.19125 -0.57764,0.53128 -3.24279,2.03995 -6.63332,3.75494 -1.55248,0.78528 -2.84593,1.44707 -2.87432,1.47064 -0.0548,0.0455 0.45112,1.9664 1.09121,4.14262 0.44953,1.52832 1.3573,3.69954 1.48254,3.54594 0.071,-0.0871 0.29318,-0.66656 0.49362,-1.2876 z m -1.23895,-11.44418 c 2.21546,-1.15146 3.20996,-1.7748 3.20996,-2.01195 0,-0.10102 -0.12588,-0.33285 -0.27974,-0.51517 -1.5808,-1.87326 -4.15731,-5.25595 -5.31198,-6.97408 -0.78579,-1.16927 -1.49597,-2.05849 -1.57816,-1.97605 -0.2742,0.275 0.25897,7.4661 0.76459,10.31239 0.0919,0.51754 0.22612,1.2944 0.2982,1.72635 0.15338,0.91933 -0.0147,0.95192 2.89713,-0.56149 z M 50.60755,164.11676 c 1.435184,-0.53701 2.927643,-2.01696 3.718951,-3.68778 0.535035,-1.12971 0.614865,-1.50683 0.669864,-3.1645 0.05255,-1.58364 -0.0037,-2.05851 -0.354721,-2.99583 -0.5036,-1.3447 -1.511729,-2.4852 -2.852498,-3.22704 -0.903646,-0.49998 -1.159574,-0.55068 -2.782871,-0.55137 -2.464574,-0.001 -2.983029,0.29945 -3.421436,1.98313 -0.409264,1.57176 -0.438243,5.00041 -0.05783,6.84224 0.321704,1.5576 1.104722,3.90296 1.561394,4.67683 0.276832,0.46911 0.406584,0.51753 1.38685,0.51753 0.636108,0 1.514187,-0.16192 2.132299,-0.39321 z"
       id="path1947" />
  </g>
</svg>
