<?xml version="1.0" encoding="UTF-8" standalone="no"?>
<!-- Created with Inkscape (http://www.inkscape.org/) -->

<svg
   width="210mm"
   height="297mm"
   viewBox="0 0 210 297"
   version="1.1"
   id="svg5"
   inkscape:version="1.1 (c68e22c387, 2021-05-23)"
   sodipodi:docname="Pikatchu.svg"
   xmlns:inkscape="http://www.inkscape.org/namespaces/inkscape"
   xmlns:sodipodi="http://sodipodi.sourceforge.net/DTD/sodipodi-0.dtd"
   xmlns="http://www.w3.org/2000/svg"
   xmlns:svg="http://www.w3.org/2000/svg">
  <sodipodi:namedview
     id="namedview7"
     pagecolor="#ffffff"
     bordercolor="#666666"
     borderopacity="1.0"
     inkscape:pageshadow="2"
     inkscape:pageopacity="0.0"
     inkscape:pagecheckerboard="0"
     inkscape:document-units="mm"
     showgrid="false"
     inkscape:snap-global="false"
     inkscape:zoom="0.23716796"
     inkscape:cx="-2155.7787"
     inkscape:cy="266.78959"
     inkscape:window-width="1920"
     inkscape:window-height="1017"
     inkscape:window-x="-8"
     inkscape:window-y="-8"
     inkscape:window-maximized="1"
     inkscape:current-layer="layer6"
     inkscape:rotation="1"
     showborder="false" />
  <defs
     id="defs2" />
  <g
     inkscape:groupmode="layer"
     id="layer2"
     inkscape:label="Gelb"
     style="display:inline">
    <path
       style="fill:#ffff00;fill-opacity:1;stroke:#000000;stroke-width:0.2;stroke-miterlimit:4;stroke-dasharray:none;stroke-opacity:1"
       d="m -168.95022,302.28821 c -1.23693,-0.26667 -4.45162,-1.16303 -7.14375,-1.99194 -9.10865,-2.80453 -10.92737,-3.25443 -23.54307,-5.8239 -4.72675,-0.96269 -8.89394,-1.90643 -9.26041,-2.0972 -1.31143,-0.68262 -1.93833,-1.63118 -2.06176,-3.11965 l -0.11641,-1.40366 -5.1972,-0.72925 c -2.85846,-0.40111 -13.47204,-2.28195 -23.58574,-4.1797 l -18.38854,-3.45043 -12.13652,1.01243 c -7.12064,0.59401 -12.16952,1.12379 -12.21637,1.28185 -0.0439,0.14819 -0.15626,0.72776 -0.24967,1.28794 -0.21246,1.27413 -1.97904,3.07348 -3.62079,3.68792 -2.29448,0.85876 -19.43722,3.64199 -28.79436,4.67495 -8.76644,0.96774 -11.12728,1.05315 -12.12183,0.43849 -0.19004,-0.11747 -0.90672,-0.24378 -1.59262,-0.28075 -1.4055,-0.0757 -2.24284,-0.50204 -2.7136,-1.38168 -0.23896,-0.44648 -0.24447,-0.69035 -0.0217,-0.95882 0.22225,-0.26779 0.22019,-0.56827 -0.008,-1.17292 -0.2548,-0.67506 -0.23068,-0.92917 0.14225,-1.49831 0.61738,-0.94226 2.75705,-2.59321 5.31192,-4.09866 2.58465,-1.523 10.34522,-5.1258 13.19708,-6.12667 1.13365,-0.39785 2.08615,-0.78126 2.11666,-0.85204 0.0305,-0.0708 -0.60893,-0.66987 -1.42097,-1.33135 -0.81204,-0.66149 -2.14593,-2.07677 -2.96419,-3.14511 -4.6434,-6.06234 -5.88545,-14.33745 -3.38298,-22.53893 0.40577,-1.32987 5.16176,-15.2093 10.56885,-30.84314 5.4071,-15.63385 9.73985,-28.49897 9.62834,-28.58916 -0.11151,-0.0902 -1.09571,-0.44048 -2.18712,-0.77843 -3.73979,-1.15801 -6.95607,-3.08597 -10.10732,-6.05869 -3.29608,-3.10937 -5.79703,-6.96573 -7.20823,-11.11484 -3.68253,-10.82709 1.91779,-21.96207 13.47444,-26.79085 5.12037,-2.13948 11.90653,-3.13825 18.00929,-2.65057 1.87253,0.14964 3.44668,0.23 3.4981,0.17858 0.0514,-0.0514 -0.49428,-1.26684 -1.21267,-2.70093 -1.74494,-3.48338 -3.74173,-8.12857 -4.8172,-11.2064 -0.48307,-1.38245 -0.98701,-2.65669 -1.11989,-2.83164 -0.13287,-0.17495 -0.27541,-0.59167 -0.31674,-0.92604 -0.0413,-0.33437 -0.38538,-1.73904 -0.76455,-3.12149 -1.16311,-4.24066 -1.58232,-7.23844 -1.57246,-11.24479 0.0153,-6.22884 0.76578,-8.22807 5.68893,-15.155797 3.54413,-4.987208 5.34857,-8.464751 7.47241,-14.400901 2.01772,-5.63957 8.95063,-19.304302 11.24779,-22.169351 0.87508,-1.091406 1.59189,-2.057487 1.59291,-2.14685 0.001,-0.08936 -0.50416,-0.232087 -1.12262,-0.317172 -1.66244,-0.228703 -7.14661,-1.853023 -10.00411,-2.963045 -3.95248,-1.535372 -11.62168,-5.40856 -16.52042,-8.343326 -21.9234,-13.13402 -41.23137,-30.849473 -52.94932,-48.582065 -1.92104,-2.9070782 -2.21677,-3.5983342 -1.68107,-3.9294182 0.14886,-0.091999 2.32175,0.088164 4.82865,0.4003625 7.6051,0.9471076 21.66321,4.9050756 31.94237,8.9931642 8.94067,3.5557647 12.93517,5.5083633 24.70601,12.0768375 15.74481,8.786064 25.12378,15.675298 34.42109,25.283679 l 4.10308,4.240356 2.97918,-0.549709 c 4.57795,-0.844709 7.64951,-1.096341 13.35365,-1.093978 5.5223,0.0024 7.93297,0.199657 13.28393,1.08758 35.03082,0.881701 35.893,33.645409 41.98305,-2.809541 4.69541,-27.849389 15.29545,-55.069462 26.21041,-67.306253 1.44706,-1.622304 1.94362,-1.414142 2.9578,1.239924 2.22304,5.81766 3.21864,13.694816 3.21701,25.4527861 -0.002,17.7703829 -2.19133,35.6140789 -6.60901,53.8767479 -2.89491,11.967518 -7.04565,22.767447 -11.27424,29.334713 l -1.53327,2.38125 0.0695,5.159375 0.0695,5.159375 -2.51882,11.509376 c -2.51417,11.48806 -3.44468,16.80047 -3.7307,21.29896 -0.0833,1.30969 -0.21404,3.07149 -0.29061,3.91511 l -0.13921,1.53386 1.01045,-0.63786 c 1.62524,-1.02597 3.65443,-1.99905 6.73085,-3.22772 7.19968,-2.87543 14.84476,-4.32598 25.11758,-4.76573 l 4.12249,-0.17647 0.76396,0.65713 0.76397,0.65714 -0.45468,1.4424 c -0.25007,0.79332 -0.45457,1.67006 -0.45443,1.94831 1.6e-4,0.32529 0.95647,1.26164 2.67849,2.62258 2.80355,2.21572 4.32086,4.0085 4.03127,4.76317 -0.19201,0.50035 -1.15515,0.92538 -2.09703,0.92538 -0.7806,0 -0.79023,0.12758 -0.11506,1.52502 0.29104,0.60238 0.52916,1.31263 0.52916,1.57832 0,0.83799 -0.77501,1.63371 -1.88133,1.93162 -0.77866,0.20966 -0.9976,0.37309 -0.80774,0.6029 0.14326,0.17339 0.34516,0.7684 0.44866,1.32224 0.1571,0.84063 0.0878,1.11381 -0.41932,1.65365 -0.33413,0.35566 -0.89732,0.64666 -1.25153,0.64666 -0.53383,0 -0.61957,0.10186 -0.50111,0.59531 0.61174,2.54828 0.40456,3.63978 -0.69016,3.636 -0.3223,-10e-4 -1.35991,-0.23832 -2.3058,-0.52714 -2.31153,-0.70581 -2.50488,-0.67948 -3.15962,0.43022 -0.31133,0.52766 -0.53144,0.98264 -0.48915,1.01107 0.0423,0.0284 7.16111,0.61349 15.8196,1.30015 16.20126,1.28482 21.20114,1.92445 31.22084,3.99402 18.64383,3.8509 38.44636,9.91358 50.569195,15.48212 5.68896,2.61318 7.37454,3.60581 7.37454,4.34283 0,0.44868 -3.26413,3.81764 -12.61274,13.01778 -6.936995,6.82684 -16.113965,16.13314 -20.393255,20.68067 -5.62626,5.97895 -7.93969,8.26646 -8.35549,8.26187 -0.31623,-0.004 -13.01699,-3.67813 -28.22392,-8.16585 -15.20693,-4.48772 -27.71556,-8.12327 -27.79696,-8.07899 -0.0814,0.0443 -4.12952,6.92003 -8.99583,15.27947 -4.86631,8.35943 -9.03738,15.32084 -9.26904,15.4698 -0.31392,0.20186 -1.98763,-0.2002 -6.57132,-1.57857 -3.38257,-1.01719 -6.18549,-1.81011 -6.22871,-1.76207 -0.0432,0.048 -0.47241,5.37014 -0.95376,11.82689 -0.87876,11.78751 -1.01141,12.6459 -1.9061,12.33514 -1.08527,-0.37692 -15.81591,-4.6278 -16.03687,-4.6278 -0.16371,0 -0.11371,0.4427 0.12701,1.12448 0.6703,1.89849 1.67801,6.12505 2.22958,9.35143 1.46144,8.54845 -0.21554,15.27157 -5.04635,20.23118 -0.73371,0.75327 -1.29837,1.38901 -1.25481,1.41275 0.0436,0.0238 1.09124,0.44 2.32816,0.92498 4.75111,1.86285 12.48169,6.2353 17.60607,9.95807 2.3847,1.73244 4.83881,4.00643 4.91044,4.55007 0.0148,0.11237 0.0665,0.9617 0.11494,1.88735 0.0777,1.48582 0.0139,1.7571 -0.54407,2.3151 -0.34764,0.34767 -0.84997,0.63209 -1.11629,0.63209 -0.26632,0 -1.16173,0.23813 -1.98979,0.52917 -1.75062,0.61529 -1.53328,0.61571 -4.42921,-0.009 z m -8.46667,-63.9576 c 0,-0.11088 -0.71391,-6.62955 -1.58646,-14.48593 -0.87255,-7.85638 -1.58692,-14.68419 -1.5875,-15.17291 -7.9e-4,-0.78611 0.0676,-0.87269 0.59427,-0.75084 2.02841,0.46932 18.72911,3.43562 18.81425,3.3417 0.12612,-0.13913 8.8756,-42.68795 8.79531,-42.77171 -0.0311,-0.0325 -1.31896,1.33676 -2.86187,3.04271 -3.95593,4.37395 -4.11363,4.53218 -8.67494,8.70428 -7.42812,6.7943 -12.83928,11.07658 -19.62102,15.52766 -3.67971,2.41511 -3.88679,2.597 -4.03043,3.54014 -0.0833,0.54682 -0.40497,4.86375 -0.71486,9.59318 -0.75501,11.52291 -0.50945,17.66008 0.98719,24.67251 0.42796,2.0052 0.45879,2.05652 1.39155,2.31634 0.52464,0.14613 2.56123,0.79457 4.52576,1.44095 3.88247,1.27743 3.96875,1.29921 3.96875,1.00192 z"
       id="path872"
       sodipodi:nodetypes="csssscsscssssssssssssssscsssssssssssssssssssssssssssscscccsscsscccssscssscccssssssssssssscssssssssscssssssssssssssssssssccsscssssssssssss" />
    <path
       style="display:inline;fill:#ffff00;fill-opacity:1;stroke:#000000;stroke-width:0.2;stroke-miterlimit:4;stroke-dasharray:none;stroke-opacity:1"
       d="m -587.9446,304.67519 c 1.23693,-0.26667 4.45162,-1.16303 7.14375,-1.99194 9.10865,-2.80453 10.92737,-3.25443 23.54307,-5.8239 4.72675,-0.96269 8.89394,-1.90643 9.26041,-2.0972 1.31143,-0.68262 1.93833,-1.63118 2.06176,-3.11965 l 0.11641,-1.40366 5.1972,-0.72925 c 2.85846,-0.40111 13.47204,-2.28195 23.58574,-4.1797 l 18.38854,-3.45043 12.13652,1.01243 c 7.12064,0.59401 12.16952,1.12379 12.21637,1.28185 0.0439,0.14819 0.15626,0.72776 0.24967,1.28794 0.21246,1.27413 1.97904,3.07348 3.62079,3.68792 2.29448,0.85876 19.43722,3.64199 28.79436,4.67495 8.76644,0.96774 11.12728,1.05315 12.12183,0.43849 0.19004,-0.11747 0.90672,-0.24378 1.59262,-0.28075 1.4055,-0.0757 2.24284,-0.50204 2.7136,-1.38168 0.23896,-0.44648 0.24447,-0.69035 0.0217,-0.95882 -0.22225,-0.26779 -0.22019,-0.56827 0.008,-1.17292 0.2548,-0.67506 0.23068,-0.92917 -0.14225,-1.49831 -0.61738,-0.94226 -2.75705,-2.59321 -5.31192,-4.09866 -2.58465,-1.523 -10.34522,-5.1258 -13.19708,-6.12667 -1.13365,-0.39785 -2.08615,-0.78126 -2.11666,-0.85204 -0.0305,-0.0708 0.60893,-0.66987 1.42097,-1.33135 0.81204,-0.66149 2.14593,-2.07677 2.96419,-3.14511 4.6434,-6.06234 5.88545,-14.33745 3.38298,-22.53893 -0.40577,-1.32987 -5.16176,-15.2093 -10.56885,-30.84314 -5.4071,-15.63385 -9.73985,-28.49897 -9.62834,-28.58916 0.11151,-0.0902 1.09571,-0.44048 2.18712,-0.77843 3.73979,-1.15801 6.95607,-3.08597 10.10732,-6.05869 3.29608,-3.10937 5.79703,-6.96573 7.20823,-11.11484 3.68253,-10.82709 -1.91779,-21.96207 -13.47444,-26.79085 -5.12037,-2.13948 -11.90653,-3.13825 -18.00929,-2.65057 -1.87253,0.14964 -3.44668,0.23 -3.4981,0.17858 -0.0514,-0.0514 0.49428,-1.26684 1.21267,-2.70093 1.74494,-3.48338 3.74173,-8.12857 4.8172,-11.2064 0.48307,-1.38245 0.98701,-2.65669 1.11989,-2.83164 0.13287,-0.17495 0.27541,-0.59167 0.31674,-0.92604 0.0413,-0.33437 0.38538,-1.73904 0.76455,-3.12149 1.16311,-4.24066 1.58232,-7.23844 1.57246,-11.24479 -0.0153,-6.22884 -0.76578,-8.22807 -5.68893,-15.155786 -3.54413,-4.98721 -5.34857,-8.464748 -7.47241,-14.400898 -2.01772,-5.63957 -8.95063,-19.304306 -11.24779,-22.169355 -0.87508,-1.091406 -1.59189,-2.057487 -1.59291,-2.14685 -10e-4,-0.08936 0.50416,-0.232087 1.12262,-0.317172 1.66244,-0.228703 7.14661,-1.853023 10.00411,-2.963045 3.95248,-1.535372 11.62168,-5.40856 16.52042,-8.343326 21.9234,-13.13402 41.23137,-30.849473 52.94932,-48.5820653 1.92104,-2.907078 2.21677,-3.598334 1.68107,-3.929418 -0.14886,-0.092 -2.32175,0.08816 -4.82865,0.400362 -7.6051,0.947108 -21.66321,4.90507601 -31.94237,8.9931649 -8.94067,3.555764 -12.93517,5.508363 -24.70601,12.0768374 -15.74481,8.786064 -25.12378,15.675298 -34.42109,25.283679 l -4.10308,4.240356 -2.97918,-0.549709 c -4.57795,-0.844709 -7.64951,-1.096341 -13.35365,-1.093978 -5.5223,0.0024 -7.93297,0.199657 -13.28393,1.08758 -35.03082,0.881701 -35.893,33.645409 -41.98305,-2.809541 -4.69541,-27.849389 -15.29545,-55.069462 -26.21041,-67.306253 -1.44706,-1.622304 -1.94362,-1.414142 -2.9578,1.239924 -2.22304,5.81766 -3.21864,13.694816 -3.21701,25.4527856 0.002,17.7703834 2.19133,35.6140794 6.60901,53.8767484 2.89491,11.967518 7.04565,22.767445 11.27424,29.334715 l 1.53327,2.38125 -0.0695,5.159368 -0.0695,5.15938 2.51882,11.509366 c 2.51417,11.48806 3.44468,16.80047 3.7307,21.29896 0.0833,1.30969 0.21404,3.07149 0.29061,3.91511 l 0.13921,1.53386 -1.01045,-0.63786 c -1.62524,-1.02597 -3.65443,-1.99905 -6.73085,-3.22772 -7.19968,-2.87543 -14.84476,-4.32598 -25.11758,-4.76573 l -4.12249,-0.17647 -0.76396,0.65713 -0.76397,0.65714 0.45468,1.4424 c 0.25007,0.79332 0.45457,1.67006 0.45443,1.94831 -1.6e-4,0.32529 -0.95647,1.26164 -2.67849,2.62258 -2.80355,2.21572 -4.32086,4.0085 -4.03127,4.76317 0.19201,0.50035 1.15515,0.92538 2.09703,0.92538 0.7806,0 0.79023,0.12758 0.11506,1.52502 -0.29104,0.60238 -0.52916,1.31263 -0.52916,1.57832 0,0.83799 0.77501,1.63371 1.88133,1.93162 0.77866,0.20966 0.9976,0.37309 0.80774,0.6029 -0.14326,0.17339 -0.34516,0.7684 -0.44866,1.32224 -0.1571,0.84063 -0.0878,1.11381 0.41932,1.65365 0.33413,0.35566 0.89732,0.64666 1.25153,0.64666 0.53383,0 0.61957,0.10186 0.50111,0.59531 -0.61174,2.54828 -0.40456,3.63978 0.69016,3.636 0.3223,-0.001 1.35991,-0.23832 2.3058,-0.52714 2.31153,-0.70581 2.50488,-0.67948 3.15962,0.43022 0.31133,0.52766 0.53144,0.98264 0.48915,1.01107 -0.0423,0.0284 -7.16111,0.61349 -15.8196,1.30015 -16.20126,1.28482 -21.20114,1.92445 -31.22084,3.99402 -18.64383,3.8509 -38.44636,9.91358 -50.5692,15.48212 -5.68896,2.61318 -7.37454,3.60581 -7.37454,4.34283 0,0.44868 3.26413,3.81764 12.61274,13.01778 6.937,6.82684 16.11397,16.13314 20.39326,20.68067 5.62626,5.97895 7.93969,8.26646 8.35549,8.26187 0.31623,-0.004 13.01699,-3.67813 28.22392,-8.16585 15.20693,-4.48772 27.71556,-8.12327 27.79696,-8.07899 0.0814,0.0443 4.12952,6.92003 8.99583,15.27947 4.86631,8.35943 9.03738,15.32084 9.26904,15.4698 0.31392,0.20186 1.98763,-0.2002 6.57132,-1.57857 3.38257,-1.01719 6.18549,-1.81011 6.22871,-1.76207 0.0432,0.048 0.47241,5.37014 0.95376,11.82689 0.87876,11.78751 1.01141,12.6459 1.9061,12.33514 1.08527,-0.37692 15.81591,-4.6278 16.03687,-4.6278 0.16371,0 0.11371,0.4427 -0.12701,1.12448 -0.6703,1.89849 -1.67801,6.12505 -2.22958,9.35143 -1.46144,8.54845 0.21554,15.27157 5.04635,20.23118 0.73371,0.75327 1.29837,1.38901 1.25481,1.41275 -0.0436,0.0238 -1.09124,0.44 -2.32816,0.92498 -4.75111,1.86285 -12.48169,6.2353 -17.60607,9.95807 -2.3847,1.73244 -4.83881,4.00643 -4.91044,4.55007 -0.0148,0.11237 -0.0665,0.9617 -0.11494,1.88735 -0.0777,1.48582 -0.0139,1.7571 0.54407,2.3151 0.34764,0.34767 0.84997,0.63209 1.11629,0.63209 0.26632,0 1.16173,0.23813 1.98979,0.52917 1.75062,0.61529 1.53328,0.61571 4.42921,-0.009 z m 8.46667,-63.9576 c 0,-0.11088 0.71391,-6.62955 1.58646,-14.48593 0.87255,-7.85638 1.58692,-14.68419 1.5875,-15.17291 7.9e-4,-0.78611 -0.0676,-0.87269 -0.59427,-0.75084 -2.02841,0.46932 -18.72911,3.43562 -18.81425,3.3417 -0.12612,-0.13913 -8.8756,-42.68795 -8.79531,-42.77171 0.0311,-0.0325 1.31896,1.33676 2.86187,3.04271 3.95593,4.37395 4.11363,4.53218 8.67494,8.70428 7.42812,6.7943 12.83928,11.07658 19.62102,15.52766 3.67971,2.41511 3.88679,2.597 4.03043,3.54014 0.0833,0.54682 0.40497,4.86375 0.71486,9.59318 0.75501,11.52291 0.50945,17.66008 -0.98719,24.67251 -0.42796,2.0052 -0.45879,2.05652 -1.39155,2.31634 -0.52464,0.14613 -2.56123,0.79457 -4.52576,1.44095 -3.88247,1.27743 -3.96875,1.29921 -3.96875,1.00192 z"
       id="path872-9"
       sodipodi:nodetypes="csssscsscssssssssssssssscsssssssssssssssssssssssssssscscccsscsscccssscssscccssssssssssssscssssssssscssssssssssssssssssssccsscssssssssssss" />
  </g>
  <g
     inkscape:groupmode="layer"
     id="layer3"
     inkscape:label="Rot"
     style="display:inline">
    <path
       d="m -291.376,121.25744 c -1.1631,-4.24066 -1.58231,-7.23844 -1.57244,-11.24479 0.0153,-6.22884 0.76576,-8.22808 5.68891,-15.155805 1.25495,-1.765906 2.29174,-3.342535 3.32092,-4.877438 l 3.0168,1.204468 c 3.60707,1.46367 5.62518,6.529951 5.95128,13.801685 0.17084,3.81035 -0.30591,6.82283 -1.64124,10.37048 -2.1858,5.80711 -8.71246,9.78408 -13.25467,10.33793 -0.2285,-0.32465 -1.13038,-3.05408 -1.50956,-4.43653 z"
       style="display:inline;fill:#ff0000;fill-opacity:1;stroke:#000000;stroke-width:0.2;stroke-miterlimit:4;stroke-dasharray:none;stroke-opacity:1"
       id="path2840"
       sodipodi:nodetypes="sssccsscs" />
    <path
       d="m -170.97709,125.59262 c -0.0833,1.30969 -0.26345,3.14002 -0.32546,3.98484 l -0.12907,1.75831 -0.55213,4.545 c -0.92427,7.60849 -6.38453,14.25542 -14.58608,19.86117 -0.38786,-0.39072 -2.88155,-1.39083 -3.58587,-1.74774 -2.21189,-1.12085 -3.68009,-3.21257 -4.27377,-6.08879 -0.97533,-4.7252 2.05859,-12.09302 7.21495,-17.52131 3.08481,-3.24751 5.97252,-5.03039 9.40205,-5.80488 1.68077,-0.37956 1.97517,-0.33898 3.57121,-0.23578 1.25368,0.0811 2.31746,0.65228 3.19966,1.1977"
       style="display:inline;fill:#ff0000;fill-opacity:1;stroke:#000000;stroke-width:0.0529167;stroke-miterlimit:4;stroke-dasharray:none;stroke-opacity:1"
       id="path16865"
       sodipodi:nodetypes="cscscsssssc" />
    <path
       d="m -465.51882,123.64442 c 1.1631,-4.24066 1.58231,-7.23844 1.57244,-11.24479 -0.0153,-6.22884 -0.76576,-8.22808 -5.68891,-15.155796 -1.25495,-1.76591 -2.29174,-3.34254 -3.32092,-4.87744 l -3.0168,1.20447 c -3.60707,1.46367 -5.62518,6.529946 -5.95128,13.801676 -0.17084,3.81035 0.30591,6.82283 1.64124,10.37048 2.1858,5.80711 8.71246,9.78408 13.25467,10.33793 0.2285,-0.32465 1.13038,-3.05408 1.50956,-4.43653 z"
       style="display:inline;fill:#ff0000;fill-opacity:1;stroke:#000000;stroke-width:0.2;stroke-miterlimit:4;stroke-dasharray:none;stroke-opacity:1"
       id="path2840-7"
       sodipodi:nodetypes="sssccsscs" />
    <path
       d="m -585.91773,127.9796 c 0.0833,1.30969 0.26345,3.14002 0.32546,3.98484 l 0.12907,1.75831 0.55213,4.545 c 0.92427,7.60849 6.38453,14.25542 14.58608,19.86117 0.38786,-0.39072 2.88155,-1.39083 3.58587,-1.74774 2.21189,-1.12085 3.68009,-3.21257 4.27377,-6.08879 0.97533,-4.7252 -2.05859,-12.09302 -7.21495,-17.52131 -3.08481,-3.24751 -5.97252,-5.03039 -9.40205,-5.80488 -1.68077,-0.37956 -1.97517,-0.33898 -3.57121,-0.23578 -1.25368,0.0811 -2.31746,0.65228 -3.19966,1.1977"
       style="display:inline;fill:#ff0000;fill-opacity:1;stroke:#000000;stroke-width:0.0529167;stroke-miterlimit:4;stroke-dasharray:none;stroke-opacity:1"
       id="path16865-3"
       sodipodi:nodetypes="cscscsssssc" />
  </g>
  <g
     inkscape:groupmode="layer"
     id="layer4"
     inkscape:label="Schwarz"
     style="display:inline">
    <path
       d="m -193.46127,113.76449 c -5.71651,-1.74518 -8.81248,-8.41712 -6.57188,-14.162604 0.64328,-1.649557 3.33176,-4.491327 4.94011,-5.221786 0.63048,-0.286361 2.02668,-0.587222 3.10264,-0.668602 2.73608,-0.20692 4.65219,0.512201 7.02476,2.636422 2.48373,2.223719 3.21342,3.77086 3.3591,7.12213 0.14994,3.44869 -0.48501,5.43036 -2.41734,7.54464 -1.96569,2.15077 -3.8758,3.0039 -6.65927,2.97427 -1.16417,-0.0124 -2.41432,-0.1134 -2.77812,-0.22447 z m 3.80605,-11.41761 c 0.98931,-0.77819 1.48561,-1.87061 1.48561,-3.270032 0,-1.00902 -0.15319,-1.372568 -0.95006,-2.25461 -1.60288,-1.774179 -4.0136,-1.715831 -5.63999,0.13652 -0.6562,0.74739 -0.81828,1.168569 -0.81828,2.126541 0,2.434971 1.33937,3.814111 3.70417,3.814111 1.13686,0 1.69185,-0.13821 2.21855,-0.55253 z m -72.66911,-9.083642 c -3.55679,-1.46263 -5.57524,-4.160189 -5.92637,-7.92022 -0.31647,-3.389149 1.72741,-7.53217 4.72673,-9.581161 1.41914,-0.969468 4.64309,-1.829499 6.69499,-1.785959 5.30643,0.11262 9.30661,5.327999 8.34072,10.87454 -1.1412,6.553311 -8.08736,10.77681 -13.83607,8.4128 z m 9.51265,-9.479979 c 1.01901,-0.69325 1.67124,-1.908051 1.67124,-3.11281 0,-1.114451 -0.99846,-2.8619 -1.90225,-3.32927 -0.93628,-0.484172 -2.95164,-0.474102 -3.9062,0.0195 -1.65407,0.855361 -2.37199,3.416868 -1.45476,5.190619 0.93139,1.801109 3.81995,2.437469 5.59197,1.23194 z"
       style="display:inline;fill:#050000;fill-opacity:1;stroke:#000000;stroke-width:0.2;stroke-miterlimit:4;stroke-dasharray:none;stroke-opacity:1"
       id="path3079-4"
       sodipodi:nodetypes="sssssssssssssssssssssssssssss" />
    <path
       d="m -243.27772,148.44723 c -2.59334,-1.74167 -4.33057,-5.31774 -5.54916,-11.42275 -1.26521,-6.33861 -1.73215,-17.03289 -1.11672,-25.57664 l 0.39068,-5.42395 -0.70771,-0.79375 c -0.95573,-1.07195 -1.88664,-2.43285 -1.88664,-2.75811 0,-0.37328 0.89998,-0.81401 1.21883,-0.59688 0.14537,0.099 0.53655,0.62797 0.86929,1.17551 0.78904,1.2984 1.34316,1.58786 3.73272,1.95005 1.77842,0.26957 2.7305,0.20768 9.17331,-0.59622 5.05272,-0.63046 7.38339,-0.82306 7.84334,-0.64818 0.35994,0.13684 2.12553,1.48022 3.92356,2.98529 7.83106,6.55506 13.03536,8.78865 16.4751,7.07075 1.1285,-0.56359 1.26113,-0.57853 1.65343,-0.18623 0.23458,0.23459 0.35653,0.60897 0.27096,0.83195 -0.19748,0.51466 -1.89658,1.38839 -3.16121,1.62565 -0.66948,0.12559 -1.02503,0.35832 -1.14536,0.74969 -0.096,0.31216 -0.95498,2.11537 -1.90889,4.00714 -0.95393,1.89176 -1.97413,3.91583 -2.26716,4.49791 -0.29302,0.58208 -0.60624,1.11786 -0.69599,1.19063 -0.0898,0.0728 -0.62454,0.90619 -1.18842,1.85208 -5.87883,9.86158 -12.85568,17.43787 -18.39008,19.97017 -1.37456,0.62894 -2.16985,0.80592 -3.96851,0.88312 -2.18274,0.0937 -2.28849,0.0703 -3.56537,-0.78723 z"
       style="display:inline;fill:#050000;fill-opacity:1;stroke:#000000;stroke-width:0.2;stroke-miterlimit:4;stroke-dasharray:none;stroke-opacity:1"
       id="path5891"
       sodipodi:nodetypes="ssscssssssssssssssssssss" />
    <path
       d="m -227.97202,99.370213 c -0.70374,-0.284339 -1.69018,-1.519668 -1.69018,-2.116611 0,-0.248869 0.23352,-0.663818 0.51895,-0.922128 1.21484,-1.09941 5.0373,0.29505 5.0373,1.837629 0,1.02045 -2.43832,1.777989 -3.86607,1.20111 z"
       style="fill:#050000;fill-opacity:1;stroke:#000000;stroke-width:0.0529167;stroke-miterlimit:4;stroke-dasharray:none;stroke-opacity:1"
       id="path17826" />
    <path
       d="m -310.90564,28.736205 c 0.45894,1.305655 0.83772,4.429791 1.26473,5.226857 -15.7643,-11.444362 -29.15081,-24.8624529 -38.15469,-38.487874 -1.92103,-2.907078 -2.21676,-3.598334 -1.68105,-3.929417 0.14885,-0.092 2.32174,0.08816 4.82864,0.400362 7.60511,0.947108 21.66321,4.905075 32.10176,9.320319 -0.59795,2.200056 -1.06042,2.480254 -1.2247,3.785285 -0.59907,4.7581441 1.07421,18.589267 2.86531,23.684468"
       style="display:inline;fill:#050000;fill-opacity:1;stroke:#000000;stroke-width:0.2;stroke-miterlimit:4;stroke-dasharray:none;stroke-opacity:1"
       id="path4272"
       sodipodi:nodetypes="ccssscsc" />
    <path
       d="m -148.82978,19.057525 c -4.4948,-5.691688 -8.83002,-14.3318463 -13.92122,-17.9072534 -1.06116,-0.745239 -3.44709,-1.921963 -3.65334,-1.9636 4.43103,-11.4960716 9.61359,-20.9005046 14.94521,-26.8777996 1.44705,-1.622303 1.9436,-1.414142 2.9578,1.239923 2.22303,5.817661 3.21863,13.694818 3.21699,25.4527866 0,7.3847651 -0.40405,15.2752184 -1.21904,22.8207064 z m -20.74887,-6.426386"
       style="display:inline;fill:#050000;fill-opacity:1;stroke:#000000;stroke-width:0.2;stroke-miterlimit:4;stroke-dasharray:none;stroke-opacity:1"
       id="path5699" />
    <path
       d="m -301.17404,188.12366 c -3.73978,-1.158 -6.95608,-3.08597 -10.10732,-6.05869 -3.2961,-3.10936 -5.79702,-6.96574 -7.20823,-11.11483 -3.68255,-10.82709 1.91778,-21.96208 13.47441,-26.79086 5.1204,-2.13948 11.90654,-3.13825 18.00931,-2.65057 1.87254,0.14965 3.44671,0.23 4.55814,0.15248 1.20975,0.0664 2.74243,0.38073 4.46598,0.67233 9.4649,1.60123 17.85299,5.31992 25.0383,11.10022 2.28693,1.83973 3.37111,2.35858 5.58139,2.671 0.86317,0.122 1.66325,0.37364 1.77792,0.55922 0.12536,0.20283 -0.12872,0.95909 -0.63707,1.89632 l -0.84558,1.55896 0.76557,0.56525 c 3.03351,2.23975 3.86028,3.25065 3.86289,4.72313 0.003,1.16515 -0.44026,1.48262 -2.38709,1.71318 -0.72343,0.0857 -1.31533,0.1977 -1.31533,0.24892 0,0.0512 0.41675,0.63913 0.9261,1.30643 1.32151,1.73125 1.44375,2.43729 0.55441,3.20228 -0.52107,0.4482 -1.04156,0.61611 -1.90998,0.61611 -1.11601,0 -1.18173,0.0387 -1.00978,0.59531 0.10112,0.32742 0.46633,1.08202 0.81156,1.6769 0.79864,1.37616 0.79007,1.84251 -0.0439,2.38895 -0.53956,0.35354 -1.03431,0.40632 -2.51701,0.2685 l -1.84546,-0.1715 0.15245,1.12665 c 0.0838,0.61965 0.205,1.38771 0.26927,1.7068 0.0643,0.31909 -0.022,0.88463 -0.1914,1.25677 -0.40122,0.88053 -1.3094,0.88561 -3.17365,0.0177 -0.77844,-0.36237 -1.62608,-0.66003 -1.88365,-0.66146 -0.25757,0 -1.50773,0.51835 -2.77813,1.15507 -8.2161,4.11781 -16.49406,6.75142 -23.87334,7.59528 -2.65805,0.30396 -9.3771,0.23308 -12.96654,-0.18716 l -1.92408,-0.22527 c 0,0 -2.53878,-0.57557 -3.63016,-0.91352 z m 19.18229,-0.80179 c 6.23536,-0.7616 8.09432,-1.1779 12.83228,-2.87361 2.12818,-0.76169 7.20958,-2.98122 9.73442,-4.25194 2.5178,-1.26722 3.29176,-1.35072 5.44298,-0.58727 l 1.55133,0.55055 -0.176,-1.40872 c -0.30951,-2.47719 0.32184,-3.08134 3.22011,-3.08134 0.84749,0 1.14562,-0.0944 1.04489,-0.33073 -0.0775,-0.1819 -0.41068,-0.95369 -0.7403,-1.71508 l -0.59933,-1.38438 0.62582,-0.66614 c 0.47908,-0.50996 0.89053,-0.66617 1.75471,-0.66617 0.6209,0 1.19806,-0.11192 1.28262,-0.24874 0.0846,-0.13681 -0.18155,-0.64283 -0.59131,-1.12447 -1.26201,-1.48334 -1.70286,-2.34038 -1.53924,-2.99234 0.12797,-0.50982 0.38475,-0.64087 1.54379,-0.78795 2.39633,-0.30411 2.42104,-0.31991 1.86555,-1.19425 -0.26138,-0.41143 -1.13009,-1.26318 -1.93046,-1.89275 -2.34341,-1.84333 -2.50941,-2.25436 -1.61716,-4.00447 l 0.49954,-0.97975 -1.09485,-0.28292 c -2.26174,-0.58441 -3.34274,-1.13954 -5.23446,-2.68798 -6.70986,-5.4923 -13.75778,-8.65233 -23.82984,-10.68441 -3.24184,-0.65405 -4.05226,-0.71167 -10.39509,-0.73914 -8.90852,-0.0386 -12.03071,0.52353 -17.4625,3.14381 -3.49488,1.68595 -5.99426,3.52898 -7.78203,5.73847 -6.57561,8.12665 -5.66383,19.07611 2.28788,27.47613 3.33746,3.52557 7.37137,6.06234 11.57957,7.28181 1.49275,0.43259 7.11864,1.06958 10.05414,1.13837 0.72763,0.0172 4.18044,-0.31803 7.67294,-0.74459 z"
       style="display:inline;fill:#050000;fill-opacity:1;stroke:#000000;stroke-width:0.0529167;stroke-miterlimit:4;stroke-dasharray:none;stroke-opacity:1"
       id="path18761" />
    <path
       d="m -445.98918,31.123195 c -0.45894,1.305655 -0.83772,4.429791 -1.26473,5.226857 15.7643,-11.444362 29.15081,-24.862453 38.15469,-38.4878743 1.92103,-2.907078 2.21676,-3.598334 1.68105,-3.929417 -0.14885,-0.092 -2.32174,0.08816 -4.82864,0.400362 -7.60511,0.947108 -21.66321,4.90507501 -32.10176,9.3203189 0.59795,2.200056 1.06042,2.480254 1.2247,3.785285 0.59907,4.7581444 -1.07421,18.5892674 -2.86531,23.6844684"
       style="display:inline;fill:#050000;fill-opacity:1;stroke:#000000;stroke-width:0.2;stroke-miterlimit:4;stroke-dasharray:none;stroke-opacity:1"
       id="path4272-0"
       sodipodi:nodetypes="ccssscsc" />
    <path
       d="m -608.06504,21.444515 c 4.4948,-5.691688 8.83002,-14.3318464 13.92122,-17.9072534 1.06116,-0.745239 3.44709,-1.921963 3.65334,-1.9636 -4.43103,-11.4960719 -9.61359,-20.9005046 -14.94521,-26.8777996 -1.44705,-1.622303 -1.9436,-1.414142 -2.9578,1.239923 -2.22303,5.817661 -3.21863,13.694818 -3.21699,25.4527866 0,7.384765 0.40405,15.2752184 1.21904,22.8207064 z m 20.74887,-6.426386"
       style="display:inline;fill:#050000;fill-opacity:1;stroke:#000000;stroke-width:0.2;stroke-miterlimit:4;stroke-dasharray:none;stroke-opacity:1"
       id="path5699-7" />
    <path
       d="m -563.43355,116.15147 c 5.71651,-1.74518 8.81248,-8.41712 6.57188,-14.1626 -0.64328,-1.64956 -3.33176,-4.491326 -4.94011,-5.221786 -0.63048,-0.28636 -2.02668,-0.58722 -3.10264,-0.6686 -2.73608,-0.20692 -4.65219,0.5122 -7.02476,2.63642 -2.48373,2.223716 -3.21342,3.770856 -3.3591,7.122126 -0.14994,3.44869 0.48501,5.43036 2.41734,7.54464 1.96569,2.15077 3.8758,3.0039 6.65927,2.97427 1.16417,-0.0124 2.41432,-0.1134 2.77812,-0.22447 z m -3.80605,-11.41761 c -0.98931,-0.77819 -1.48561,-1.87061 -1.48561,-3.27003 0,-1.00902 0.15319,-1.37257 0.95006,-2.254606 1.60288,-1.77418 4.0136,-1.71583 5.63999,0.13652 0.6562,0.747386 0.81828,1.168566 0.81828,2.126536 0,2.43497 -1.33937,3.81411 -3.70417,3.81411 -1.13686,0 -1.69185,-0.13821 -2.21855,-0.55253 z m 72.66911,-9.083636 c 3.55679,-1.46263 5.57524,-4.16019 5.92637,-7.920218 0.31647,-3.38915 -1.72741,-7.53217 -4.72673,-9.58116 -1.41914,-0.96947 -4.64309,-1.8295 -6.69499,-1.78596 -5.30643,0.11262 -9.30661,5.328 -8.34072,10.87454 1.1412,6.553308 8.08736,10.776808 13.83607,8.412798 z m -9.51265,-9.479978 c -1.01901,-0.69325 -1.67124,-1.90805 -1.67124,-3.11281 0,-1.11445 0.99846,-2.8619 1.90225,-3.32927 0.93628,-0.48417 2.95164,-0.4741 3.9062,0.0195 1.65407,0.85536 2.37199,3.41687 1.45476,5.19062 -0.93139,1.80111 -3.81995,2.43747 -5.59197,1.23194 z"
       style="display:inline;fill:#050000;fill-opacity:1;stroke:#000000;stroke-width:0.2;stroke-miterlimit:4;stroke-dasharray:none;stroke-opacity:1"
       id="path3079-4-6"
       sodipodi:nodetypes="sssssssssssssssssssssssssssss" />
    <path
       d="m -513.6171,150.83421 c 2.59334,-1.74167 4.33057,-5.31774 5.54916,-11.42275 1.26521,-6.33861 1.73215,-17.03289 1.11672,-25.57664 l -0.39068,-5.42395 0.70771,-0.79375 c 0.95573,-1.07195 1.88664,-2.43285 1.88664,-2.75811 0,-0.37328 -0.89998,-0.81401 -1.21883,-0.59688 -0.14537,0.099 -0.53655,0.62797 -0.86929,1.17551 -0.78904,1.2984 -1.34316,1.58786 -3.73272,1.95005 -1.77842,0.26957 -2.7305,0.20768 -9.17331,-0.59622 -5.05272,-0.63046 -7.38339,-0.82306 -7.84334,-0.64818 -0.35994,0.13684 -2.12553,1.48022 -3.92356,2.98529 -7.83106,6.55506 -13.03536,8.78865 -16.4751,7.07075 -1.1285,-0.56359 -1.26113,-0.57853 -1.65343,-0.18623 -0.23458,0.23459 -0.35653,0.60897 -0.27096,0.83195 0.19748,0.51466 1.89658,1.38839 3.16121,1.62565 0.66948,0.12559 1.02503,0.35832 1.14536,0.74969 0.096,0.31216 0.95498,2.11537 1.90889,4.00714 0.95393,1.89176 1.97413,3.91583 2.26716,4.49791 0.29302,0.58208 0.60624,1.11786 0.69599,1.19063 0.0898,0.0728 0.62454,0.90619 1.18842,1.85208 5.87883,9.86158 12.85568,17.43787 18.39008,19.97017 1.37456,0.62894 2.16985,0.80592 3.96851,0.88312 2.18274,0.0937 2.28849,0.0703 3.56537,-0.78723 z"
       style="display:inline;fill:#050000;fill-opacity:1;stroke:#000000;stroke-width:0.2;stroke-miterlimit:4;stroke-dasharray:none;stroke-opacity:1"
       id="path5891-0"
       sodipodi:nodetypes="ssscssssssssssssssssssss" />
    <path
       d="m -528.9228,101.7572 c 0.70374,-0.28434 1.69018,-1.51967 1.69018,-2.116606 0,-0.24887 -0.23352,-0.66382 -0.51895,-0.92213 -1.21484,-1.09941 -5.0373,0.29505 -5.0373,1.837626 0,1.02045 2.43832,1.77799 3.86607,1.20111 z"
       style="display:inline;fill:#050000;fill-opacity:1;stroke:#000000;stroke-width:0.0529167;stroke-miterlimit:4;stroke-dasharray:none;stroke-opacity:1"
       id="path17826-5" />
    <path
       d="m -455.72078,190.51064 c 3.73978,-1.158 6.95608,-3.08597 10.10732,-6.05869 3.2961,-3.10936 5.79702,-6.96574 7.20823,-11.11483 3.68255,-10.82709 -1.91778,-21.96208 -13.47441,-26.79086 -5.1204,-2.13948 -11.90654,-3.13825 -18.00931,-2.65057 -1.87254,0.14965 -3.44671,0.23 -4.55814,0.15248 -1.20975,0.0664 -2.74243,0.38073 -4.46598,0.67233 -9.4649,1.60123 -17.85299,5.31992 -25.0383,11.10022 -2.28693,1.83973 -3.37111,2.35858 -5.58139,2.671 -0.86317,0.122 -1.66325,0.37364 -1.77792,0.55922 -0.12536,0.20283 0.12872,0.95909 0.63707,1.89632 l 0.84558,1.55896 -0.76557,0.56525 c -3.03351,2.23975 -3.86028,3.25065 -3.86289,4.72313 -0.003,1.16515 0.44026,1.48262 2.38709,1.71318 0.72343,0.0857 1.31533,0.1977 1.31533,0.24892 0,0.0512 -0.41675,0.63913 -0.9261,1.30643 -1.32151,1.73125 -1.44375,2.43729 -0.55441,3.20228 0.52107,0.4482 1.04156,0.61611 1.90998,0.61611 1.11601,0 1.18173,0.0387 1.00978,0.59531 -0.10112,0.32742 -0.46633,1.08202 -0.81156,1.6769 -0.79864,1.37616 -0.79007,1.84251 0.0439,2.38895 0.53956,0.35354 1.03431,0.40632 2.51701,0.2685 l 1.84546,-0.1715 -0.15245,1.12665 c -0.0838,0.61965 -0.205,1.38771 -0.26927,1.7068 -0.0643,0.31909 0.022,0.88463 0.1914,1.25677 0.40122,0.88053 1.3094,0.88561 3.17365,0.0177 0.77844,-0.36237 1.62608,-0.66003 1.88365,-0.66146 0.25757,0 1.50773,0.51835 2.77813,1.15507 8.2161,4.11781 16.49406,6.75142 23.87334,7.59528 2.65805,0.30396 9.3771,0.23308 12.96654,-0.18716 l 1.92408,-0.22527 c 0,0 2.53878,-0.57557 3.63016,-0.91352 z m -19.18229,-0.80179 c -6.23536,-0.7616 -8.09432,-1.1779 -12.83228,-2.87361 -2.12818,-0.76169 -7.20958,-2.98122 -9.73442,-4.25194 -2.5178,-1.26722 -3.29176,-1.35072 -5.44298,-0.58727 l -1.55133,0.55055 0.176,-1.40872 c 0.30951,-2.47719 -0.32184,-3.08134 -3.22011,-3.08134 -0.84749,0 -1.14562,-0.0944 -1.04489,-0.33073 0.0775,-0.1819 0.41068,-0.95369 0.7403,-1.71508 l 0.59933,-1.38438 -0.62582,-0.66614 c -0.47908,-0.50996 -0.89053,-0.66617 -1.75471,-0.66617 -0.6209,0 -1.19806,-0.11192 -1.28262,-0.24874 -0.0846,-0.13681 0.18155,-0.64283 0.59131,-1.12447 1.26201,-1.48334 1.70286,-2.34038 1.53924,-2.99234 -0.12797,-0.50982 -0.38475,-0.64087 -1.54379,-0.78795 -2.39633,-0.30411 -2.42104,-0.31991 -1.86555,-1.19425 0.26138,-0.41143 1.13009,-1.26318 1.93046,-1.89275 2.34341,-1.84333 2.50941,-2.25436 1.61716,-4.00447 l -0.49954,-0.97975 1.09485,-0.28292 c 2.26174,-0.58441 3.34274,-1.13954 5.23446,-2.68798 6.70986,-5.4923 13.75778,-8.65233 23.82984,-10.68441 3.24184,-0.65405 4.05226,-0.71167 10.39509,-0.73914 8.90852,-0.0386 12.03071,0.52353 17.4625,3.14381 3.49488,1.68595 5.99426,3.52898 7.78203,5.73847 6.57561,8.12665 5.66383,19.07611 -2.28788,27.47613 -3.33746,3.52557 -7.37137,6.06234 -11.57957,7.28181 -1.49275,0.43259 -7.11864,1.06958 -10.05414,1.13837 -0.72763,0.0172 -4.18044,-0.31803 -7.67294,-0.74459 z"
       style="display:inline;fill:#050000;fill-opacity:1;stroke:#000000;stroke-width:0.0529167;stroke-miterlimit:4;stroke-dasharray:none;stroke-opacity:1"
       id="path18761-4" />
    <path
       d="m -570.0554,237.73575 c -0.75655,0.23145 -3.88392,1.34511 -5.84845,1.99149 -3.88247,1.27743 -3.35156,1.26289 -3.35156,0.9656 0,-0.074 0.38457,-2.12821 0.6568,-6.45722 -0.13133,-0.12285 -0.59742,-1.25578 -0.8028,-2.06913 -0.0889,-0.35204 -0.53869,2.24791 -0.78905,2.28037 -0.72617,-0.90255 -0.76797,-1.67781 -1.37426,-2.78215 -0.0544,0.0597 -0.51907,1.31846 -0.83948,2.73729 -0.32044,1.41883 -0.72293,2.56005 -0.76709,2.56005 -0.0442,0 -0.40645,-1.31466 -0.80507,-2.92147 -0.39862,-1.60682 -0.77547,-2.87078 -0.83746,-2.8088 -0.062,0.062 -0.33872,1.39044 -0.615,2.95215 -0.27628,1.56171 -0.53869,2.87583 -0.58312,2.92027 -0.0444,0.0444 -0.66934,-1.05065 -1.38866,-2.43353 -1.50236,-2.88828 -1.48998,-2.89554 -2.00512,1.17589 -0.18936,1.49653 -0.42881,2.62762 -0.5321,2.51355 -0.10327,-0.11409 -0.51454,-1.20332 -0.9139,-2.42053 l -3e-5,-3e-5 c -0.71498,-2.17914 -0.65373,-2.37174 -1.21401,-0.82961 l -1.61068,4.43329 c 0.0825,1.62554 0.19365,2.69986 0.32996,4.52812 0.87876,11.78751 1.0114,12.6459 1.90609,12.33514 1.08529,-0.37692 16.12154,-4.2378 16.48944,-4.36901 2.39279,-7.47496 4.46975,-11.9031 4.89555,-14.30173 z"
       style="display:inline;fill:#000000;fill-opacity:1;stroke:#000000;stroke-width:0.0529167;stroke-miterlimit:4;stroke-dasharray:none;stroke-opacity:1"
       id="path26178-0"
       sodipodi:nodetypes="csscsccsssssssssssscsscc" />
  </g>
  <g
     inkscape:groupmode="layer"
     id="layer5"
     inkscape:label="Orange"
     style="display:inline">
    <path
       d="m -238.0615,148.53986 c 4.406,-1.37131 10.68607,-7.4036 16.09834,-15.46321 l 1.40409,-2.09091 -0.72382,-1.48097 c -3.11769,-6.37903 -9.83467,-11.14014 -15.71271,-11.13746 -0.96692,5.3e-4 -3.0082,0.24271 -4.53617,0.53838 -2.41046,0.46643 -3.10203,0.73056 -5.22552,1.99573 -2.83882,1.69136 -2.62493,0.98967 -2.1712,7.12238 0.9325,12.60351 3.54978,19.83554 7.52345,20.78852 1.26373,0.30307 1.57615,0.27761 3.34354,-0.27246 z"
       style="display:inline;fill:#d25a00;fill-opacity:1;stroke:#000000;stroke-width:0.0529167;stroke-miterlimit:4;stroke-dasharray:none;stroke-opacity:1"
       id="path18918"
       sodipodi:nodetypes="sscscsssss" />
    <path
       style="fill:#d25a00;fill-opacity:1;stroke:#000000;stroke-width:0.2;stroke-linecap:round;stroke-linejoin:round;stroke-miterlimit:4;stroke-dasharray:none;stroke-opacity:1"
       d="m -244.83765,160.875 c 6.04889,2.37577 13.71702,3.6602 21.2002,4.33864 l -9.90986,5.96564 c -2.4069,0.87381 -4.20299,1.08938 -7.001,-1.03536 -3.01006,-3.57099 -2.9968,-4.6852 -4.28934,-9.26892 z"
       id="path19612"
       sodipodi:nodetypes="ccccc" />
    <path
       d="m -76.499563,216.79723 c -0.1987,0 -1.75315,-1.26217 -3.45432,-2.80482 -6.82556,-6.18961 -17.01813,-13.77987 -26.508627,-19.74059 -2.80249,-1.76016 -30.51146,-17.26587 -34.63734,-19.38277 -0.88945,-0.45635 -0.9099,-0.45413 -1.36427,0.14825 -1.11419,1.4771 -2.34151,6.46462 -7.11616,28.9178 -2.74767,12.92115 -5.03462,23.52611 -5.08222,23.56651 -0.11634,0.0989 -24.09756,-14.45536 -25.40188,-18.12078 -0.4409,1.9696 1.28545,19.41283 2.29783,27.72317 h 3e-5 c 0.093,0.76399 0.0713,1.37922 -0.0483,1.36702 -0.11962,-0.0121 -2.21996,-0.76452 -4.71541,-1.52135 l -4.25386,-1.29014 c 0.0963,0.22976 4.72289,13.78579 4.72289,13.78579 m 0,0 c 0.36028,0.51497 3.71473,0.96383 8.13557,2.26118 8.39687,2.46423 8.99578,2.54845 8.98567,1.26318 -0.007,-0.88511 1.65074,-23.06318 1.73093,-23.15778 0.0383,-0.0452 2.82149,0.75444 6.1848,1.777 3.3633,1.02257 6.28433,1.79431 6.49115,1.71491 0.20683,-0.0794 4.39764,-7.0405 9.31294,-15.46919 4.91527,-8.42869 9.09815,-15.32489 9.29526,-15.32489 0.19712,0 12.70405,3.63149 27.79324,8.06997 15.089147,4.43848 27.234137,8.00017 27.542687,8.00007 l 0.0894,-1.78254"
       style="display:inline;fill:#d25a00;fill-opacity:1;stroke:#000000;stroke-width:0.0700042;stroke-opacity:1"
       id="path22708"
       sodipodi:nodetypes="csssssscsssscccsssssssscc" />
    <path
       d="m -186.83942,235.34877 c 0.75655,0.23145 3.88392,1.34511 5.84845,1.99149 3.88247,1.27743 3.35156,1.26289 3.35156,0.9656 0,-0.074 -0.38457,-2.12821 -0.6568,-6.45722 0.13133,-0.12285 0.59742,-1.25578 0.8028,-2.06913 0.0889,-0.35204 0.53869,2.24791 0.78905,2.28037 0.72617,-0.90255 0.76797,-1.67781 1.37426,-2.78215 0.0544,0.0597 0.51907,1.31846 0.83948,2.73729 0.32044,1.41883 0.72293,2.56005 0.76709,2.56005 0.0442,0 0.40645,-1.31466 0.80507,-2.92147 0.39862,-1.60682 0.77547,-2.87078 0.83746,-2.8088 0.062,0.062 0.33872,1.39044 0.615,2.95215 0.27628,1.56171 0.53869,2.87583 0.58312,2.92027 0.0444,0.0444 0.66934,-1.05065 1.38866,-2.43353 1.50236,-2.88828 1.48998,-2.89554 2.00512,1.17589 0.18936,1.49653 0.42881,2.62762 0.5321,2.51355 0.10327,-0.11409 0.51454,-1.20332 0.9139,-2.42053 l 3e-5,-3e-5 c 0.71498,-2.17914 0.65373,-2.37174 1.21401,-0.82961 l 1.61068,4.43329 c -0.0825,1.62554 -0.19365,2.69986 -0.32996,4.52812 -0.87876,11.78751 -1.0114,12.6459 -1.90609,12.33514 -1.08529,-0.37692 -16.12154,-4.2378 -16.48944,-4.36901 -2.39279,-7.47496 -4.46975,-11.9031 -4.89555,-14.30173 z"
       style="display:inline;fill:#000000;fill-opacity:1;stroke:#000000;stroke-width:0.0529167;stroke-miterlimit:4;stroke-dasharray:none;stroke-opacity:1"
       id="path26178"
       sodipodi:nodetypes="csscsccsssssssssssscsscc" />
    <path
       d="m -313.6479,176.55576 c -0.61965,-1.93777 2.20028,-2.26877 4.70488,-2.36486 1.23936,-0.0476 8.8982,0.69005 20.03359,1.92939 17.30928,1.92648 18.13441,1.99488 20.71991,1.71773 1.48104,-0.15876 3.52621,-0.51018 4.54486,-0.78094 4.60941,-1.22521 6.82175,-1.24473 7.95798,-0.0702 0.24265,0.25082 1.28979,0.75369 2.32701,1.11749 0.94379,0.33104 0.80493,1.36248 0.90172,1.90867 -0.004,0.19788 0.38796,0.4821 -0.67463,0.057 l -1.94551,-0.74471 -3.79234,1.86128 c -4.2486,2.08522 -12.81953,5.29844 -21.22682,6.47545 -8.51542,1.19215 -16.90138,0.30104 -19.31577,-0.52131 -5.26363,-1.7928 -8.1126,-3.70412 -11.17566,-6.90581 0,0 -2.8239,-2.94331 -3.05922,-3.67918 z"
       style="display:inline;fill:#e19722;fill-opacity:1;stroke:#000000;stroke-width:0.0700042;stroke-opacity:1"
       id="path29595"
       sodipodi:nodetypes="ssssssscscssscs" />
    <path
       style="fill:#e19722;fill-opacity:1;stroke:#000000;stroke-width:0.2;stroke-linecap:round;stroke-linejoin:round;stroke-miterlimit:4;stroke-dasharray:none;stroke-opacity:1"
       d="m -188.02324,198.6025 c 9.57302,-5.16492 18.12875,-12.88443 26.41691,-20.57149 l -0.22692,-0.0127 -24.84349,14.97658 c -6.5148,3.82904 -2.31627,6.00744 -1.3465,5.60756 z"
       id="path32074"
       sodipodi:nodetypes="ccccc" />
    <path
       d="m -208.91431,292.24496 c -1.36533,-0.71038 -1.98927,-1.64037 -2.11463,-3.15201 l -0.11684,-1.40893 -5.31883,-0.73046 c -2.9254,-0.40175 -13.59832,-2.28026 -23.71762,-4.17444 l -18.39873,-3.44398 -11.50938,0.9615 c -6.33015,0.5288 -11.77726,1.01862 -12.10469,1.08844 -0.42574,0.0908 -0.59531,0.31637 -0.59531,0.7919 0,1.73789 -1.65624,3.6766 -3.83318,4.48691 -2.1676,0.80682 -19.28719,3.57434 -28.47837,4.0426 5.42613,-4.19182 9.38109,-8.07858 10.83553,-9.5508 l 1.67505,-1.69548 -1.41046,-0.45829 c -0.77573,-0.25207 -2.26955,-0.88728 -3.31957,-1.4116 l -2.01967,-1.28507 c -0.52906,0.1454 -3.10248,-5.20051 -3.30163,-7.12953 -0.38529,-3.73212 0.76584,-5.67426 3.45458,-6.58281 1.75348,-0.59253 3.06772,-0.32813 13.86044,2.78839 l 9.02642,2.60649 6.45171,0.55542 c 7.13853,0.61452 15.71,0.75149 17.96105,0.28702 0.80037,-0.16516 2.11005,-0.35619 2.91042,-0.4245 1.35964,-0.11607 4.33046,-0.6481 8.53281,-1.52808 0.98227,-0.20571 1.78594,-0.32893 1.78594,-0.27387 0,0.0551 0.23143,-0.0238 0.51429,-0.1751 0.97439,-0.52147 8.88741,-1.55061 13.11175,-1.70526 5.60237,-0.20511 17.52116,0.49924 21.43125,1.2665 0.29104,0.0571 1.06494,0.19085 1.71979,0.29724 0.65484,0.10636 1.33945,0.31358 1.52135,0.46045 0.1819,0.1469 0.33073,0.20373 0.33073,0.12634 0,-0.13338 1.05984,0.13264 3.90261,0.97949 0.69122,0.20592 2.31018,0.68842 3.59769,1.07222 1.28752,0.38381 2.53765,0.81058 2.77813,0.9484 0.24045,0.13782 0.73485,0.36595 1.09865,0.50694 0.98732,0.38262 3.5904,1.91762 4.28549,2.52712 0.33512,0.29382 1.06349,0.8143 1.61861,1.15662 1.24108,0.76531 11.93216,10.1008 12.75017,11.95902 l -0.57817,0.3489 c -1.01645,0.49475 -1.63986,1.06106 -8.15404,2.53897 -4.6851,1.06294 -7.582,1.76604 -9.48925,3.49499 l -1.45738,1.32112 c -5.5772,-0.81786 -8.84139,-1.27712 -9.23671,-1.48278 z"
       style="display:inline;fill:#e19722;fill-opacity:1;stroke:#000000;stroke-width:0.0700042;stroke-opacity:1"
       id="path36743" />
    <path
       style="display:inline;fill:#d25a00;fill-opacity:1;stroke:#000000;stroke-width:0.2;stroke-linecap:round;stroke-linejoin:round;stroke-miterlimit:4;stroke-dasharray:none;stroke-opacity:1"
       d="m -512.05717,163.26198 c -6.04889,2.37577 -13.71702,3.6602 -21.2002,4.33864 l 9.90986,5.96564 c 2.4069,0.87381 4.20299,1.08938 7.001,-1.03536 3.01006,-3.57099 2.9968,-4.6852 4.28934,-9.26892 z"
       id="path19612-8"
       sodipodi:nodetypes="ccccc" />
    <path
       d="m -680.39526,219.18421 c 0.1987,0 1.75315,-1.26217 3.45432,-2.80482 6.82556,-6.18961 17.01813,-13.77987 26.50863,-19.74059 2.80249,-1.76016 30.51146,-17.26587 34.63734,-19.38277 0.88945,-0.45635 0.9099,-0.45413 1.36427,0.14825 1.11419,1.4771 2.34151,6.46462 7.11616,28.9178 2.74767,12.92115 5.03462,23.52611 5.08222,23.56651 0.11634,0.0989 24.09756,-14.45536 25.40188,-18.12078 0.4409,1.9696 -1.28545,19.41283 -2.29783,27.72317 h -3e-5 c -0.093,0.76399 -0.0713,1.37922 0.0483,1.36702 0.11962,-0.0121 2.21996,-0.76452 4.71541,-1.52135 l 4.25386,-1.29014 c -0.0963,0.22976 -4.72289,13.78579 -4.72289,13.78579 m 0,0 c -0.36028,0.51497 -3.71473,0.96383 -8.13557,2.26118 -8.39687,2.46423 -8.99578,2.54845 -8.98567,1.26318 0.007,-0.88511 -1.65074,-23.06318 -1.73093,-23.15778 -0.0383,-0.0452 -2.82149,0.75444 -6.1848,1.777 -3.3633,1.02257 -6.28433,1.79431 -6.49115,1.71491 -0.20683,-0.0794 -4.39764,-7.0405 -9.31294,-15.46919 -4.91527,-8.42869 -9.09815,-15.32489 -9.29526,-15.32489 -0.19712,0 -12.70405,3.63149 -27.79324,8.06997 -15.08915,4.43848 -27.23414,8.00017 -27.54269,8.00007 l -0.0894,-1.78254"
       style="display:inline;fill:#d25a00;fill-opacity:1;stroke:#000000;stroke-width:0.0700042;stroke-opacity:1"
       id="path22708-6"
       sodipodi:nodetypes="csssssscsssscccsssssssscc" />
    <path
       d="m -443.24692,178.94274 c 0.61965,-1.93777 -2.20028,-2.26877 -4.70488,-2.36486 -1.23936,-0.0476 -8.8982,0.69005 -20.03359,1.92939 -17.30928,1.92648 -18.13441,1.99488 -20.71991,1.71773 -1.48104,-0.15876 -3.52621,-0.51018 -4.54486,-0.78094 -4.60941,-1.22521 -6.82175,-1.24473 -7.95798,-0.0702 -0.24265,0.25082 -1.28979,0.75369 -2.32701,1.11749 -0.94379,0.33104 -0.80493,1.36248 -0.90172,1.90867 0.004,0.19788 -0.38796,0.4821 0.67463,0.057 l 1.94551,-0.74471 3.79234,1.86128 c 4.2486,2.08522 12.81953,5.29844 21.22682,6.47545 8.51542,1.19215 16.90138,0.30104 19.31577,-0.52131 5.26363,-1.7928 8.1126,-3.70412 11.17566,-6.90581 0,0 2.8239,-2.94331 3.05922,-3.67918 z"
       style="display:inline;fill:#e19722;fill-opacity:1;stroke:#000000;stroke-width:0.0700042;stroke-opacity:1"
       id="path29595-4"
       sodipodi:nodetypes="ssssssscscssscs" />
    <path
       d="m -547.98051,294.63194 c 1.36533,-0.71038 1.98927,-1.64037 2.11463,-3.15201 l 0.11684,-1.40893 5.31883,-0.73046 c 2.9254,-0.40175 13.59832,-2.28026 23.71762,-4.17444 l 18.39873,-3.44398 11.50938,0.9615 c 6.33015,0.5288 11.77726,1.01862 12.10469,1.08844 0.42574,0.0908 0.59531,0.31637 0.59531,0.7919 0,1.73789 1.65624,3.6766 3.83318,4.48691 2.1676,0.80682 19.28719,3.57434 28.47837,4.0426 -5.42613,-4.19182 -9.38109,-8.07858 -10.83553,-9.5508 l -1.67505,-1.69548 1.41046,-0.45829 c 0.77573,-0.25207 2.26955,-0.88728 3.31957,-1.4116 l 2.01967,-1.28507 c 0.52906,0.1454 3.10248,-5.20051 3.30163,-7.12953 0.38529,-3.73212 -0.76584,-5.67426 -3.45458,-6.58281 -1.75348,-0.59253 -3.06772,-0.32813 -13.86044,2.78839 l -9.02642,2.60649 -6.45171,0.55542 c -7.13853,0.61452 -15.71,0.75149 -17.96105,0.28702 -0.80037,-0.16516 -2.11005,-0.35619 -2.91042,-0.4245 -1.35964,-0.11607 -4.33046,-0.6481 -8.53281,-1.52808 -0.98227,-0.20571 -1.78594,-0.32893 -1.78594,-0.27387 0,0.0551 -0.23143,-0.0238 -0.51429,-0.1751 -0.97439,-0.52147 -8.88741,-1.55061 -13.11175,-1.70526 -5.60237,-0.20511 -17.52116,0.49924 -21.43125,1.2665 -0.29104,0.0571 -1.06494,0.19085 -1.71979,0.29724 -0.65484,0.10636 -1.33945,0.31358 -1.52135,0.46045 -0.1819,0.1469 -0.33073,0.20373 -0.33073,0.12634 0,-0.13338 -1.05984,0.13264 -3.90261,0.97949 -0.69122,0.20592 -2.31018,0.68842 -3.59769,1.07222 -1.28752,0.38381 -2.53765,0.81058 -2.77813,0.9484 -0.24045,0.13782 -0.73485,0.36595 -1.09865,0.50694 -0.98732,0.38262 -3.5904,1.91762 -4.28549,2.52712 -0.33512,0.29382 -1.06349,0.8143 -1.61861,1.15662 -1.24108,0.76531 -11.93216,10.1008 -12.75017,11.95902 l 0.57817,0.3489 c 1.01645,0.49475 1.63986,1.06106 8.15404,2.53897 4.6851,1.06294 7.582,1.76604 9.48925,3.49499 l 1.45738,1.32112 c 5.5772,-0.81786 8.84139,-1.27712 9.23671,-1.48278 z"
       style="display:inline;fill:#e19722;fill-opacity:1;stroke:#000000;stroke-width:0.0700042;stroke-opacity:1"
       id="path36743-7" />
    <path
       style="display:inline;fill:#e19722;fill-opacity:1;stroke:#000000;stroke-width:0.2;stroke-linecap:round;stroke-linejoin:round;stroke-miterlimit:4;stroke-dasharray:none;stroke-opacity:1"
       d="m -568.87158,200.98948 c -9.57302,-5.16492 -18.12875,-12.88443 -26.41691,-20.57149 l 0.22692,-0.0127 24.84349,14.97658 c 6.5148,3.82904 2.31627,6.00744 1.3465,5.60756 z"
       id="path32074-9"
       sodipodi:nodetypes="ccccc" />
    <path
       d="m -518.83332,150.92684 c -4.406,-1.37131 -10.68607,-7.4036 -16.09834,-15.46321 l -1.40409,-2.09091 0.72382,-1.48097 c 3.11769,-6.37903 9.83467,-11.14014 15.71271,-11.13746 0.96692,5.3e-4 3.0082,0.24271 4.53617,0.53838 2.41046,0.46643 3.10203,0.73056 5.22552,1.99573 2.83882,1.69136 2.62493,0.98967 2.1712,7.12238 -0.9325,12.60351 -3.54978,19.83554 -7.52345,20.78852 -1.26373,0.30307 -1.57615,0.27761 -3.34354,-0.27246 z"
       style="display:inline;fill:#d25a00;fill-opacity:1;stroke:#000000;stroke-width:0.0529167;stroke-miterlimit:4;stroke-dasharray:none;stroke-opacity:1"
       id="path18918-4"
       sodipodi:nodetypes="sscscsssss" />
  </g>
  <g
     inkscape:groupmode="layer"
     id="layer6"
     inkscape:label="Schrift">
    <g
       aria-label="Josef"
       transform="scale(-1,1)"
       id="text3166-3"
       style="display:inline;font-size:40.7361px;line-height:1.25;font-family:'MV Boli';-inkscape-font-specification:'MV Boli';fill:none;stroke:#000000;stroke-width:0.212167">
      <path
         d="m 459.82927,345.77246 q 0.31825,0 0.49727,0.25858 0.1989,0.23869 0.29836,0.59672 0.0994,0.35803 0.11934,0.77574 0.0398,0.4177 0.0398,0.77573 v 0.75585 q 0.41771,0.65639 1.05421,1.43213 0.65639,0.75584 1.4918,1.43212 0.83541,0.6564 1.81005,1.11388 0.99453,0.4376 2.10841,0.4376 1.19344,0 2.22776,-0.55694 1.0542,-0.55694 1.94928,-1.47191 0.89508,-0.93486 1.65093,-2.1283 0.75584,-1.19344 1.35256,-2.46645 0.61661,-1.29289 1.0741,-2.56589 0.47738,-1.27301 0.81552,-2.3471 0.33814,-1.0741 0.53705,-1.84984 0.1989,-0.79562 0.27847,-1.09398 0.51715,-2.10841 0.87518,-4.03781 0.37793,-1.9294 0.37793,-3.79912 0,-0.45748 -0.27847,-0.51716 l -4.93289,1.39235 q -0.4177,0.11934 -0.67628,0.11934 -0.75585,0 -1.273,-0.47737 -0.49727,-0.47738 -0.49727,-1.37246 0,-0.89508 0.15912,-1.43213 0.17902,-0.55694 0.53705,-0.8354 0.37792,-0.27847 0.97465,-0.35804 0.59672,-0.0994 1.45201,-0.0994 h 0.27847 q 0.47738,-0.0994 1.21333,-0.27847 0.75585,-0.17902 1.67082,-0.39781 0.91497,-0.23869 1.94929,-0.49727 1.03431,-0.27847 2.08852,-0.53705 1.0542,-0.27847 2.08852,-0.53705 1.0542,-0.25857 1.96918,-0.47737 0.0597,-0.0199 0.39781,-0.0995 0.33814,-0.0796 0.75584,-0.15912 0.41771,-0.0995 0.79563,-0.17902 0.37792,-0.0796 0.49727,-0.0796 0.23869,0 0.43759,0.13923 0.19891,0.13924 0.31825,0.35804 0.13924,0.1989 0.2188,0.47737 0.0796,0.25858 0.0796,0.49727 0,0.59672 -0.45748,1.03432 -0.45749,0.43759 -1.15366,0.77573 -0.69617,0.31825 -1.53158,0.57683 -0.81552,0.23869 -1.53158,0.45749 -0.71607,0.21879 -1.23323,0.43759 -0.49726,0.19891 -0.55693,0.45749 -0.0995,0.87519 -0.19891,1.94928 -0.0995,1.0741 -0.2188,2.04874 -0.0398,0.23869 -0.17902,1.15366 -0.11934,0.91497 -0.35803,2.22776 -0.21879,1.31278 -0.55694,2.88414 -0.31825,1.55148 -0.73595,3.06317 -0.45749,1.65092 -1.21333,3.52065 -0.73596,1.86972 -1.77027,3.63999 -1.01443,1.77027 -2.30732,3.32174 -1.29289,1.53158 -2.80459,2.52612 -0.35803,0.2188 -0.8354,0.43759 -0.47738,0.2188 -1.05421,0.37793 -0.55694,0.15912 -1.19344,0.25857 -0.61661,0.0995 -1.23322,0.0995 -1.03432,0 -2.24765,-0.27847 -1.19344,-0.27847 -2.40677,-0.79563 -1.21333,-0.51716 -2.3471,-1.23322 -1.11388,-0.73596 -1.98907,-1.61114 -0.87519,-0.89508 -1.39234,-1.90951 -0.51716,-1.01442 -0.51716,-2.1283 0,-0.8553 0.15913,-1.47191 0.17901,-0.61661 0.55693,-0.99453 0.37793,-0.37793 0.99454,-0.55694 0.6365,-0.17902 1.53158,-0.17902 z"
         id="path37744" />
      <path
         d="m 485.90594,347.1847 q 0.29836,-1.21333 0.91497,-2.5659 0.63651,-1.37246 1.65093,-2.7648 1.01442,-1.39235 2.42666,-2.72502 1.43213,-1.33268 3.30185,-2.48634 0.29836,-0.17902 0.91497,-0.37792 0.61662,-0.2188 1.27301,-0.25858 0.77573,-0.83541 2.08852,-0.83541 1.55147,0 2.60568,0.79563 1.07409,0.77573 1.77027,2.1283 0.21879,0.4376 0.39781,0.8553 0.19891,0.4177 0.31825,0.89508 0.13924,0.45748 0.2188,0.99453 0.0796,0.53705 0.0796,1.21333 0,1.57137 -0.49727,3.2024 -0.49726,1.63104 -1.41223,3.18251 -0.91497,1.55147 -2.22776,2.9836 -1.29289,1.41224 -2.88415,2.54601 -1.07409,0.77573 -2.38688,1.19344 -1.29289,0.43759 -2.90404,0.43759 -1.53158,0 -2.66535,-0.4177 -1.11387,-0.39781 -1.86972,-1.15366 -0.73595,-0.75585 -1.11388,-1.81005 -0.35803,-1.05421 -0.35803,-2.3471 0,-1.25311 0.35803,-2.68524 z m 3.30185,0.25858 q -0.11934,0.45748 -0.17901,0.87519 -0.0398,0.39781 -0.0398,0.77573 0,0.65639 0.15912,1.23322 0.17902,0.55694 0.55694,0.97465 0.37792,0.39781 0.93486,0.6365 0.57683,0.2188 1.39235,0.2188 1.51169,0 2.80459,-0.75585 1.31278,-0.77574 2.3272,-1.92939 1.01443,-1.15366 1.69071,-2.46645 0.69617,-1.33267 0.97464,-2.44655 0.17902,-0.69617 0.29836,-1.31279 0.13924,-0.61661 0.13924,-1.13376 0,-0.51716 -0.19891,-0.95476 -0.17901,-0.45748 -0.47737,-1.01442 -0.17902,-0.33814 -0.35804,-0.69617 -0.17901,-0.37793 -0.31825,-0.73596 -0.15912,0.27847 -0.33814,0.49727 -0.17901,0.1989 -0.53705,0.37792 -0.35803,0.15913 -0.97464,0.29836 -0.61661,0.13924 -1.61114,0.23869 -0.6564,0.2188 -1.33268,0.67628 -0.67628,0.45749 -1.33267,1.0741 -0.63651,0.61661 -1.23323,1.33267 -0.57683,0.71607 -1.0542,1.47191 -0.45749,0.73596 -0.81552,1.45202 -0.33814,0.71607 -0.47738,1.31279 z"
         id="path37746" />
      <path
         d="m 507.72601,351.28218 q 0.15913,0 0.27847,0.0398 0.13924,0.0398 0.29836,0.0994 0.15913,0.0398 0.35803,0.0796 0.19891,0.0398 0.51716,0.0398 0.93486,0 2.06863,-0.19891 1.15366,-0.19891 2.16808,-0.51716 1.01443,-0.31825 1.73049,-0.71606 0.73596,-0.41771 0.83541,-0.8553 0.0597,-0.23869 0.0597,-0.41771 0,-0.33814 -0.33814,-0.6365 -0.31825,-0.31825 -0.81552,-0.59672 -0.49726,-0.27847 -1.07409,-0.51716 -0.57683,-0.23868 -1.0741,-0.43759 l -0.67628,-0.27847 q -0.51716,-0.19891 -1.01443,-0.47738 -0.49726,-0.29836 -0.93486,-0.67628 -0.4177,-0.37792 -0.75584,-0.87519 -0.31825,-0.51716 -0.47738,-1.17355 -0.0796,-0.27847 -0.13923,-0.55694 -0.0398,-0.27847 -0.0398,-0.59672 0,-0.51715 0.33815,-1.17355 0.35803,-0.67628 0.93486,-1.33267 0.59672,-0.65639 1.33267,-1.25311 0.75585,-0.59672 1.57137,-0.99454 0.59672,-0.4177 1.15365,-0.75584 0.55694,-0.33815 1.11388,-0.57683 0.57683,-0.23869 1.15366,-0.37793 0.59672,-0.13923 1.25311,-0.13923 0.59672,0 1.2929,0.0597 0.69617,0.0597 1.273,0.27847 0.57683,0.2188 0.95475,0.65639 0.39782,0.41771 0.39782,1.13377 0,0.2188 -0.0597,0.57683 -0.0597,0.35803 -0.1989,0.71607 -0.13924,0.35803 -0.33814,0.61661 -0.19891,0.25857 -0.47738,0.25857 -0.45749,0 -0.75585,-0.17901 -0.29836,-0.17902 -0.53704,-0.37792 -0.23869,-0.2188 -0.49727,-0.39782 -0.25858,-0.17901 -0.6365,-0.17901 -0.45749,0 -1.0741,0.17901 -0.59672,0.15913 -1.23322,0.45749 -0.6365,0.27847 -1.25311,0.65639 -0.59672,0.37792 -1.09399,0.77574 -0.47738,0.39781 -0.77574,0.79562 -0.29836,0.37793 -0.29836,0.69618 0,0.33814 0.2188,0.55694 0.2188,0.21879 0.55694,0.37792 0.4376,0.23869 0.99453,0.47737 0.57683,0.23869 1.15366,0.47738 0.57683,0.23869 1.11388,0.47738 0.55694,0.23869 0.95475,0.43759 0.53705,0.27847 0.95476,0.55694 0.43759,0.25858 0.73595,0.57683 0.29836,0.31825 0.45749,0.71606 0.15912,0.39782 0.15912,0.93487 0,0.25857 -0.0398,0.51715 -0.0398,0.25858 -0.11934,0.59672 -0.0597,0.29836 -0.2188,0.69618 -0.13924,0.39781 -0.31825,0.79562 -0.15913,0.37793 -0.33814,0.69618 -0.17902,0.29836 -0.29836,0.39781 -0.77574,0.71607 -1.82995,1.35257 -1.0542,0.61661 -2.20786,1.09398 -1.13377,0.45749 -2.28743,0.73596 -1.13377,0.27847 -2.08852,0.27847 -0.47737,0 -1.0542,-0.17902 -0.57683,-0.1989 -1.0741,-0.49726 -0.47738,-0.31826 -0.81552,-0.71607 -0.31825,-0.39781 -0.31825,-0.79563 0,-0.1989 0.11935,-0.43759 0.11934,-0.25858 0.29836,-0.45749 0.17901,-0.21879 0.37792,-0.35803 0.2188,-0.15912 0.39781,-0.15912 z"
         id="path37748" />
      <path
         d="m 523.81757,347.12503 q 0,-0.8553 0.45748,-1.45202 0.45749,-0.59672 1.21333,-0.79563 0.2188,-0.43759 0.67629,-1.17355 0.45748,-0.75585 1.13376,-1.63104 0.67629,-0.87518 1.53159,-1.75037 0.87519,-0.89508 1.9095,-1.61115 1.05421,-0.73595 2.24765,-1.19344 1.21333,-0.45748 2.56589,-0.45748 1.15366,0 2.00896,0.27846 0.8553,0.27847 1.41224,0.77574 0.55694,0.49727 0.83541,1.19344 0.27847,0.67628 0.27847,1.47191 0,0.67628 -0.17902,1.29289 -0.27847,1.11388 -1.03431,1.94929 -0.75585,0.83541 -1.79016,1.47191 -1.01443,0.61661 -2.22776,1.03432 -1.19344,0.4177 -2.40677,0.69617 -1.19344,0.27847 -2.30732,0.43759 -1.11388,0.13924 -1.92939,0.2188 -0.17902,0.35803 -0.31826,0.91497 -0.11934,0.53705 -0.11934,1.05421 0,1.15366 0.91497,1.79016 0.91497,0.6365 2.52612,0.6365 0.93486,0 1.79016,-0.19891 0.8553,-0.21879 1.61114,-0.53704 0.77574,-0.33815 1.45202,-0.71607 0.67628,-0.39781 1.23322,-0.77574 0.71607,-0.47737 1.35257,-0.79562 0.65639,-0.33814 1.15366,-0.33814 0.49726,0 0.6365,0.25858 0.13923,0.23868 0.13923,0.51715 0,0.15913 -0.0199,0.31825 0,0.13924 -0.0199,0.23869 -0.0994,0.51716 -0.39781,1.03432 -0.29836,0.51715 -0.75585,0.89508 -2.06863,1.63103 -4.2566,2.32721 -2.16808,0.69617 -4.63453,0.69617 -0.47737,0 -1.13377,-0.0597 -0.6365,-0.0597 -1.33267,-0.23869 -0.69617,-0.17902 -1.37246,-0.51716 -0.67628,-0.33814 -1.21333,-0.89508 -0.51716,-0.55694 -0.8553,-1.37245 -0.31825,-0.81552 -0.31825,-1.96918 0,-0.93486 0.25858,-2.08852 -0.25858,-0.0398 -0.49727,-0.25858 -0.21879,-0.23869 -0.21879,-0.67628 z m 12.45156,-5.50972 q 0.0398,-0.0995 0.0398,-0.17902 0,-0.0796 0,-0.17901 0,-0.53705 -0.39781,-0.79563 -0.39782,-0.27847 -0.95476,-0.27847 -0.87519,0 -1.73048,0.45749 -0.83541,0.45748 -1.59126,1.15366 -0.73595,0.67628 -1.31278,1.47191 -0.57683,0.77573 -0.89508,1.41223 1.43212,-0.11934 2.62557,-0.37792 1.19344,-0.27847 2.06863,-0.67628 0.89508,-0.41771 1.43212,-0.91497 0.55694,-0.51716 0.71607,-1.09399 z m -2.30732,-5.39037 z"
         id="path37750" />
      <path
         d="m 547.96485,356.63277 q -0.49727,0 -0.89508,-0.19891 -0.37793,-0.17901 -0.6564,-0.51716 -0.25857,-0.31825 -0.4177,-0.73595 -0.13923,-0.41771 -0.13923,-0.89508 0,-0.33814 0.0796,-0.73596 0.0796,-0.4177 0.23869,-0.99453 0.0597,-0.25858 0.17901,-0.77574 0.11935,-0.51715 0.23869,-1.17355 0.11934,-0.65639 0.23869,-1.39234 0.13923,-0.73596 0.23869,-1.43213 0.11934,-0.69618 0.17901,-1.2929 0.0597,-0.59672 0.0597,-0.99453 0,-0.25858 -0.0199,-0.33814 -0.0398,-0.29836 -0.43759,-0.39781 -0.37792,-0.11935 -0.83541,-0.23869 -0.43759,-0.13924 -0.81552,-0.41771 -0.35803,-0.29836 -0.35803,-0.95475 0,-0.53705 0.23869,-1.01442 0.25858,-0.47738 0.65639,-0.67629 0.45749,-0.21879 1.01443,-0.23868 0.57683,-0.0199 1.13376,-0.11935 0.31825,-0.0398 0.4376,-0.37792 0.13923,-0.33814 0.2188,-0.65639 0.23868,-0.91497 0.51715,-1.96918 0.27847,-1.0741 0.63651,-2.16808 0.37792,-1.11388 0.81551,-2.16809 0.45749,-1.0542 1.01443,-1.94928 0.89508,-1.21333 1.9095,-2.26754 1.03432,-1.05421 2.18798,-1.82994 1.17355,-0.79563 2.46644,-1.23322 1.31278,-0.45749 2.78469,-0.45749 1.77027,0 2.88415,0.59672 1.11388,0.59672 1.81005,1.79016 0.15913,0.27847 0.2188,0.57683 0.0597,0.27847 0.0597,0.57683 0,0.53705 -0.15912,1.01443 -0.13924,0.45748 -0.39782,0.81551 -0.25858,0.33814 -0.61661,0.53705 -0.33814,0.19891 -0.71606,0.19891 -0.53705,0 -0.83541,-0.2188 -0.29836,-0.2188 -0.49727,-0.53705 -0.17901,-0.31825 -0.29836,-0.69617 -0.0995,-0.39781 -0.23869,-0.71607 -0.11934,-0.31825 -0.33814,-0.53704 -0.21879,-0.2188 -0.61661,-0.2188 -0.39781,0 -0.91497,0.0994 -0.49727,0.0995 -0.95475,0.33814 -1.21333,0.63651 -2.24765,1.43213 -1.03431,0.77574 -1.92939,1.98907 -0.87519,1.21333 -1.63104,2.96371 -0.73595,1.75038 -1.37245,4.31628 -0.0199,0.0398 -0.0398,0.0994 -0.0199,0.0597 -0.0199,0.0796 0,0.0398 0.15913,0.0398 0.59672,0 1.13377,-0.0597 0.55694,-0.0796 1.09398,-0.15912 0.53705,-0.0995 1.0741,-0.15913 0.55694,-0.0796 1.17355,-0.0796 0.45749,0 0.8553,0.0398 0.39781,0.0398 0.67628,0.17902 0.29836,0.11934 0.45749,0.35803 0.17901,0.23869 0.17901,0.6365 0,0.23869 -0.0796,0.59672 -0.0597,0.33814 -0.2188,0.67628 -0.13923,0.31825 -0.37792,0.57683 -0.2188,0.25858 -0.55694,0.31825 -0.59672,0.11935 -1.23322,0.19891 -0.6365,0.0597 -1.39235,0.15912 -0.75584,0.0796 -1.67081,0.25858 -0.91497,0.15913 -2.04874,0.47738 -0.35803,1.35257 -0.55694,2.68524 -0.17902,1.31279 -0.31825,2.62557 -0.13924,1.31278 -0.31825,2.64546 -0.15913,1.31278 -0.47738,2.64546 -0.0597,0.25858 -0.2188,0.51716 -0.13923,0.25857 -0.35803,0.45748 -0.19891,0.2188 -0.47737,0.33814 -0.25858,0.13924 -0.55694,0.13924 z"
         id="path37752" />
    </g>
  </g>
</svg>
