<?xml version="1.0" encoding="UTF-8" standalone="no"?>
<!-- Created with Inkscape (http://www.inkscape.org/) -->

<svg
   width="210mm"
   height="297mm"
   viewBox="0 0 210 297"
   version="1.1"
   id="svg2190"
   inkscape:version="1.3 (0e150ed6c4, 2023-07-21)"
   sodipodi:docname="Pikatchu2.svg"
   xmlns:inkscape="http://www.inkscape.org/namespaces/inkscape"
   xmlns:sodipodi="http://sodipodi.sourceforge.net/DTD/sodipodi-0.dtd"
   xmlns="http://www.w3.org/2000/svg"
   xmlns:svg="http://www.w3.org/2000/svg">
  <sodipodi:namedview
     id="namedview2192"
     pagecolor="#ffffff"
     bordercolor="#666666"
     borderopacity="1.0"
     inkscape:pageshadow="2"
     inkscape:pageopacity="0.0"
     inkscape:pagecheckerboard="0"
     inkscape:document-units="mm"
     showgrid="false"
     inkscape:zoom="0.23496321"
     inkscape:cx="-34.047883"
     inkscape:cy="506.46226"
     inkscape:window-width="1366"
     inkscape:window-height="705"
     inkscape:window-x="-8"
     inkscape:window-y="-8"
     inkscape:window-maximized="1"
     inkscape:current-layer="layer1"
     inkscape:showpageshadow="2"
     inkscape:deskcolor="#d1d1d1" />
  <defs
     id="defs2187" />
  <g
     inkscape:label="Ebene 1"
     inkscape:groupmode="layer"
     id="layer1">
    <path
       style="fill:none;stroke:#000000;stroke-width:0.264583;stroke-opacity:1"
       d="m 112.63027,276.24928 c -0.28259,-0.14017 -0.73169,-0.69416 -0.99801,-1.2311 -0.46374,-0.93498 -0.52108,-0.97627 -1.3554,-0.97627 -0.87101,0 -1.34495,-0.31066 -1.60654,-1.05307 -0.0647,-0.18356 -0.42554,-0.38792 -0.80193,-0.45412 -0.37639,-0.0662 -4.31429,-0.18426 -8.750901,-0.2623 l -8.06657,-0.14188 v 0.5088 c 0,0.76944 -0.79886,1.40257 -1.76967,1.40257 -0.58203,0 -1.14201,0.20621 -1.93917,0.71409 -1.45087,0.92437 -2.6283,0.99109 -3.26243,0.18488 l -0.42454,-0.53975 -1.01572,0.43698 c -1.26169,0.54281 -2.27298,0.55694 -2.9289,0.0409 -0.49705,-0.391 -0.51862,-0.391 -1.70376,0 -1.49503,0.49325 -1.39297,0.49956 -2.14458,-0.13291 -0.39929,-0.336 -0.9311,-0.55047 -1.45801,-0.58801 -0.95228,-0.0678 -1.64429,-0.59299 -1.64429,-1.2478 V 272.459 l -4.48757,0.0235 c -3.88035,0.0204 -4.53358,0.0696 -4.82755,0.36356 -1.18323,1.18329 -4.450994,0.33265 -7.120892,-1.85369 -3.439789,-2.81677 -8.160948,-8.43106 -12.225922,-14.5388 -1.918425,-2.88249 -2.288975,-3.52149 -3.86457,-6.66432 -2.274638,-4.5372 -3.233561,-7.19788 -3.233561,-8.97201 0,-0.91599 0.08582,-1.1451 0.616553,-1.64606 0.339104,-0.32008 0.616553,-0.72978 0.616553,-0.91045 0,-0.59316 0.700244,-1.00879 1.699573,-1.00879 0.521345,0 1.005055,0.0925 1.074915,0.20553 0.06986,0.11304 0.680898,0.20553 1.357865,0.20553 1.062411,0 1.38941,0.10144 2.389523,0.74124 0.63727,0.40768 1.698644,1.25631 2.358606,1.88585 0.69044,0.6586 1.270941,1.06383 1.367171,0.95438 0.09198,-0.10463 0.378512,-0.7914 0.636737,-1.52617 0.481098,-1.36895 1.843345,-4.02877 2.577014,-5.03169 1.651184,-2.25717 2.905893,-3.48888 4.722721,-4.63614 0.976889,-0.61688 2.897854,-1.43078 3.376904,-1.43078 0.73293,0 1.25143,-0.60579 1.25143,-1.46211 0,-0.45223 0.0854,-1.21001 0.18979,-1.68397 0.10439,-0.47397 0.29675,-1.55541 0.42747,-2.40323 0.39013,-2.53028 1.50843,-6.55775 2.36836,-8.52948 0.1479,-0.33913 0.43316,-1.03279 0.6339,-1.54147 0.4689,-1.18822 1.79053,-3.69921 2.68806,-5.1071 0.38543,-0.60458 0.67299,-1.17554 0.63902,-1.26878 -0.034,-0.0932 -0.45271,-0.58515 -0.93054,-1.09312 -2.37307,-2.52283 -4.02656,-5.22035 -4.99726,-8.15261 -0.58305,-1.76127 -0.64805,-2.21125 -0.66776,-4.62308 -0.0231,-2.8219 0.16233,-3.97314 1.02607,-6.37142 0.85982,-2.38742 2.05478,-6.10321 2.30258,-7.15999 0.1282,-0.54675 0.32553,-3.13643 0.4385,-5.75483 0.19371,-4.4896 0.30886,-5.62333 0.84882,-8.35752 0.50225,-2.54324 1.65627,-6.06018 2.48854,-7.58396 0.45814,-0.83879 0.33014,-0.9636 -1.17744,-1.14811 -2.04917,-0.25078 -8.3728,-1.72265 -10.953004,-2.5494 -0.989403,-0.31702 -2.261329,-0.72218 -2.826503,-0.90034 -3.977709,-1.25398 -10.526653,-4.05377 -14.180715,-6.06254 -4.457484,-2.45043 -7.930227,-4.66177 -10.37864,-6.60881 -0.734725,-0.58427 -1.705796,-1.35543 -2.157935,-1.71369 -1.553807,-1.23119 -6.185251,-6.0113 -7.407864,-7.64566 -1.59572,-2.13311 -1.943187,-2.70603 -1.943187,-3.20396 0,-0.57864 0.70472,-0.79417 3.699317,-1.13137 9.054242,-1.01951 21.308305,0.73103 33.910406,4.84425 2.355814,0.76891 8.066885,3.00332 9.967605,3.89973 6.42421,3.02978 9.88913,4.91154 14.65029,7.95645 0.93647,0.5989 1.88211,1.08891 2.10141,1.08891 0.2193,0 0.97906,-0.26319 1.68836,-0.58486 1.81505,-0.82315 5.85178,-2.16993 8.07171,-2.69298 0.56517,-0.13317 1.35128,-0.32389 1.7469,-0.42383 2.52549,-0.63796 4.76633,-0.85103 10.036311,-0.95428 2.94653,-0.0577 5.55984,-0.011 6.36109,0.11375 0.74798,0.11646 1.40188,0.16981 1.45314,0.11855 0.0513,-0.0513 -0.656,-1.2213 -1.57166,-2.60012 -1.07692,-1.62165 -1.60961,-2.60562 -1.50846,-2.78638 0.086,-0.15369 0.84397,-0.7903 1.68437,-1.41469 0.8404,-0.62439 1.69091,-1.26762 1.89001,-1.4294 0.1991,-0.16177 0.42435,-0.29414 0.50055,-0.29414 0.0762,0 0.32947,-0.17629 0.56282,-0.39177 0.23336,-0.21547 0.85522,-0.65479 1.38191,-0.97626 0.52671,-0.32148 1.72898,-1.05816 2.67173,-1.63709 0.94276,-0.57892 2.13028,-1.28263 2.63893,-1.56379 0.50865,-0.28117 1.29476,-0.726 1.7469,-0.98852 2.80272,-1.6273 11.90382,-6.26175 15.00278,-7.6397 2.61716,-1.16371 3.63427,-1.61805 4.67553,-2.08853 0.59343,-0.26813 2.0038,-0.87936 3.13414,-1.35829 1.13035,-0.47892 2.46431,-1.05533 2.96437,-1.2809 0.99965,-0.45094 11.07359,-4.44079 12.80397,-5.07109 0.59625,-0.21719 1.77773,-0.6416 2.62549,-0.94312 0.84776,-0.30153 1.72635,-0.62906 1.95242,-0.72785 0.22607,-0.0988 1.65955,-0.61007 3.18552,-1.13617 1.52597,-0.52609 3.2369,-1.12854 3.80207,-1.33877 0.56518,-0.21023 1.67498,-0.58069 2.46621,-0.82323 0.79125,-0.24254 2.22474,-0.70355 3.18553,-1.02447 3.67134,-1.22627 11.2446,-3.234241 12.47128,-3.306624 1.24363,-0.07339 1.33733,0.06336 1.19393,1.742304 -0.13717,1.60595 -0.61454,5.44843 -0.92968,7.48316 -0.19156,1.23683 -0.34322,2.2398 -0.8237,5.44742 -0.22454,1.49898 -0.44145,2.85408 -0.80587,5.03459 -0.10863,0.64999 -0.29111,1.78297 -0.40552,2.51774 -0.1144,0.73477 -0.34821,2.20192 -0.51957,3.26033 -0.17136,1.05841 -0.26975,1.99204 -0.21865,2.07474 0.0511,0.0827 1.48791,0.2133 3.1929,0.29024 4.13473,0.18659 7.19113,0.91286 7.19113,1.70877 0,1.22236 -4.91503,5.96475 -9.75939,9.4166 -2.79673,1.99281 -3.18822,2.33914 -3.18822,2.82046 0,0.52012 -0.42254,2.03154 -0.65454,2.34125 -0.0943,0.12595 -1.16483,0.29403 -2.37885,0.37351 l -2.20731,0.1445 -2.36346,1.35042 c -1.2999,0.74272 -2.76963,1.58049 -3.26606,1.86169 -1.38505,0.78456 -7.54008,3.81676 -9.27051,4.567 -0.84776,0.36756 -1.91132,0.83417 -2.36345,1.03691 -1.81329,0.81308 -4.27968,1.7531 -7.57394,2.88668 -1.90498,0.65553 -3.50761,1.23587 -3.5614,1.28967 -0.0538,0.0538 0.18694,0.61461 0.53496,1.24626 0.76134,1.3818 1.7589,3.19451 2.41343,4.38554 0.26402,0.48043 0.72537,1.31283 1.02523,1.84977 0.29985,0.53695 0.79231,1.43871 1.09434,2.00392 0.30203,0.56521 0.65351,1.21262 0.78106,1.43871 0.12755,0.22608 0.98744,1.79838 1.91088,3.494 0.92343,1.69562 1.93145,3.54539 2.24005,4.1106 0.30859,0.56521 1.28186,2.36873 2.16282,4.00783 0.88096,1.6391 1.8194,3.37654 2.08543,3.86098 0.62771,1.14303 0.61009,1.62972 -0.0815,2.25099 -0.60477,0.54328 -5.07823,4.13324 -6.21389,4.98664 -0.37607,0.2826 -1.63209,1.25373 -2.79116,2.15806 -1.15906,0.90433 -2.77179,2.15293 -3.58386,2.77465 -0.81205,0.62173 -2.23073,1.70983 -3.15259,2.418 -0.92187,0.70818 -2.24821,1.72555 -2.94742,2.26083 -1.05914,0.81083 -1.4454,1.29381 -2.31457,2.89421 l -1.04327,1.92096 1.69801,2.15035 c 0.93391,1.18269 2.10102,2.67671 2.59357,3.32005 1.03432,1.35094 4.06341,5.09152 4.59858,5.67872 0.49079,0.53851 0.45941,0.79153 -0.19453,1.56874 -0.45049,0.53541 -3.85191,3.52704 -5.20001,4.57354 -0.1713,0.13297 -0.79804,0.64553 -1.39275,1.13901 l -1.08129,0.89724 0.0569,2.883 c 0.0623,3.15992 -0.0217,2.96635 1.49549,3.44412 4.09234,1.28868 8.38148,5.0373 10.10846,8.8346 0.54919,1.20756 1.25389,3.2592 1.3358,3.88897 0.0774,0.5949 0.42493,0.75531 0.81157,0.37458 0.66026,-0.65019 3.05362,-2.40446 3.79302,-2.78021 0.88349,-0.44895 3.1362,-1.07227 3.87525,-1.07227 0.58657,0 1.48194,0.68708 1.67079,1.28211 0.0784,0.2471 0.35911,0.61961 0.62375,0.82779 0.801,0.63011 1.00969,1.72996 0.5981,3.15208 -0.33414,1.15445 -1.93732,4.50439 -2.8916,6.04215 -0.24553,0.39565 -1.21311,2.0142 -2.15019,3.59677 -0.93709,1.58258 -2.07568,3.43235 -2.53019,4.1106 -0.76303,1.13863 -3.67027,5.04598 -4.14589,5.57212 -0.11354,0.12559 -0.48292,0.58804 -0.82086,1.02764 -1.62686,2.11636 -5.23596,5.68665 -7.40076,7.32116 -2.18308,1.64831 -3.47314,2.21317 -5.05455,2.21317 -1.29195,0 -1.82981,-0.1814 -2.5903,-0.8736 -0.42818,-0.38974 -0.56752,-0.39935 -2.67173,-0.18445 -2.02063,0.20635 -5.1795,0.17756 -6.74138,-0.0614 -0.33911,-0.0519 -1.49263,-0.11802 -2.5634,-0.14694 l -1.94684,-0.0526 -0.3947,0.74957 c -0.49534,0.94067 -1.23282,1.26164 -2.47182,1.07584 -0.54526,-0.0818 -0.9467,-0.0614 -0.9467,0.0482 0,0.10455 -0.18858,0.39252 -0.41905,0.63992 -0.53916,0.57877 -1.68185,0.59381 -2.72277,0.0359 -0.7104,-0.38078 -0.8205,-0.389 -1.374,-0.10277 -0.86236,0.44597 -1.68926,0.38488 -2.53203,-0.18707 l -0.73416,-0.49824 -0.579,0.498 c -0.31846,0.27389 -0.64081,0.4981 -0.71634,0.49824 -0.0755,1.5e-4 -0.2605,0.0455 -0.41103,0.10094 -0.15055,0.0554 -0.50492,-0.014 -0.78751,-0.15415 z m 9.30196,-2.00184 c 0.34959,-0.80699 0.85059,-1.05441 1.29247,-0.63825 0.10739,0.10114 0.49457,0.24694 0.86042,0.32403 0.71763,0.15119 0.65507,0.22434 1.31329,-1.53555 0.14798,-0.39564 1.28932,-2.25555 2.53633,-4.1331 3.41095,-5.1357 4.67425,-7.25295 6.73337,-11.28485 1.42059,-2.78161 3.18094,-6.70291 3.96601,-8.83456 0.18735,-0.50869 0.42063,-1.10986 0.51841,-1.33595 0.41157,-0.9516 1.30378,-3.87999 1.94121,-6.37142 1.06044,-4.14473 1.33662,-6.51407 1.33633,-11.46451 -4e-4,-7.75945 -0.98221,-13.74545 -2.91282,-17.75986 -0.73328,-1.52477 -1.03894,-1.83416 -1.4324,-1.44989 -1.45778,1.42373 -5.27208,4.34211 -7.78007,5.95268 -3.03805,1.95095 -7.60892,3.93774 -8.04832,3.49832 -0.30791,-0.30793 -0.0999,-0.55515 0.90556,-1.0765 2.01773,-1.04618 3.99306,-2.14167 4.50276,-2.49716 0.30003,-0.20927 0.60416,-0.38048 0.67581,-0.38048 0.43688,0 4.97018,-3.3181 8.22058,-6.01696 l 0.60465,-0.50205 -0.81016,-0.25223 c -2.04854,-0.63775 -3.71563,-1.91211 -4.68129,-3.57844 -1.05837,-1.82636 -1.43338,-3.35435 -1.44486,-5.88717 -0.0117,-2.57844 0.40223,-4.32291 1.44989,-6.11072 1.28614,-2.19475 3.71226,-4.40835 5.95982,-5.43775 1.17452,-0.53795 1.66492,-0.64441 3.0442,-0.6609 1.14673,-0.0137 1.91614,0.0918 2.54319,0.3486 l 0.89905,0.36826 -0.12868,-0.57378 c -0.7736,-3.44952 -0.93499,-5.11388 -1.14179,-11.77516 -0.10353,-3.33473 -0.23819,-6.38684 -0.29925,-6.78249 -0.061,-0.39565 -0.21691,-1.50551 -0.34635,-2.46635 -0.65535,-4.86483 -1.71821,-7.65141 -5.05694,-13.25816 -0.5643,-0.94763 -0.67416,-1.53999 -0.28562,-1.53999 0.59064,0 2.97084,3.20425 4.3149,5.80876 0.35216,0.68243 0.34958,0.68268 4.84495,-0.46837 5.1068,-1.30762 12.83542,-4.00347 16.889,-5.89114 1.16857,-0.54418 5.99425,-7.14754 8.75968,-11.98657 1.16043,-2.03054 2.3583,-4.65638 3.04722,-6.67971 0.67587,-1.98501 0.72803,-2.27004 0.42761,-2.33632 -0.33787,-0.0746 -2.64805,0.27891 -3.84485,0.58826 -0.3391,0.0876 -1.17144,0.27513 -1.84965,0.41662 -1.90377,0.39717 -7.49543,1.77839 -8.52898,2.10677 -0.50866,0.16162 -1.61846,0.50413 -2.46621,0.76115 -0.84776,0.25702 -1.91132,0.60441 -2.36345,0.77198 -0.45215,0.16757 -1.33073,0.47042 -1.95242,0.67299 -1.28513,0.41874 -5.29887,1.96882 -6.98433,2.6973 -2.17291,0.93916 -7.5275,3.61978 -8.91755,4.46432 -0.77199,0.46902 -1.43618,0.85277 -1.47599,0.85277 -0.14405,0 -4.32349,2.74854 -5.08162,3.34184 -0.5711,0.44693 -0.74458,0.71171 -0.65377,0.99787 0.22489,0.70857 -0.43931,0.6388 -2.16131,-0.22706 -8.82806,-4.43892 -18.85081,-6.58033 -27.94187,-5.96991 -4.792551,0.32179 -8.050251,0.95878 -12.857481,2.51408 -1.01731,0.32914 -2.03462,0.67662 -2.26069,0.77218 -0.22607,0.0956 -0.73473,0.29096 -1.13035,0.43421 -0.39562,0.14326 -1.40649,0.58092 -2.24637,0.97258 -1.57421,0.7341 -2.20969,0.72122 -2.14284,-0.0434 0.0852,-0.97468 -11.89799,-7.62668 -18.42324,-10.22692 -0.84776,-0.33782 -1.81883,-0.73737 -2.15794,-0.88789 -1.430281,-0.63488 -7.727592,-2.74991 -10.121741,-3.39951 -2.584977,-0.70139 -4.429572,-1.16008 -5.703114,-1.4182 -0.678208,-0.13746 -1.556796,-0.32786 -1.952417,-0.4231 -0.68432,-0.16476 -2.318621,-0.44513 -4.295651,-0.73695 l -0.90461,-0.13353 0.11623,1.12624 c 0.265598,2.57355 2.548293,8.0431 4.781842,11.45774 2.589534,3.95887 5.955794,7.95166 7.268611,8.62145 2.164498,1.10431 11.06726,3.89407 14.40741,4.5147 0.50866,0.0945 1.61845,0.31385 2.46621,0.48743 0.84776,0.17358 2.06725,0.36284 2.70997,0.42058 l 1.16858,0.10499 1.2609,-1.63004 c 1.75859,-2.2734 3.92217,-4.44876 4.59186,-4.61685 1.24231,-0.31182 0.942,0.46789 -0.9913,2.57376 -3.31199,3.60762 -5.33377,7.01702 -6.28038,10.59079 -0.0898,0.33912 -0.29898,1.12527 -0.46479,1.74699 -0.2733,1.02478 -0.51473,2.31633 -0.86442,4.62443 -0.0685,0.45216 -0.20598,2.81062 -0.30549,5.241 -0.10648,2.60055 -0.3153,5.02413 -0.50747,5.88974 -0.28629,1.28958 -1.18483,4.15246 -1.66121,5.29285 -0.15014,0.35942 -0.10503,0.37688 0.53857,0.20853 0.38633,-0.10106 1.44229,-0.17821 2.34656,-0.17145 2.96102,0.0221 5.25083,1.36938 7.53181,4.4315 1.92056,2.57827 2.42964,4.1069 2.43336,7.30676 0.003,2.29824 -0.27882,3.66655 -1.11781,5.43352 -0.99522,2.09603 -3.07916,3.79956 -5.09666,4.16631 -0.42388,0.0771 -0.77069,0.22163 -0.77069,0.32128 0,0.23002 3.78627,3.7462 5.54897,5.15314 2.14749,1.71408 4.52898,3.24705 8.88864,5.72167 1.08288,0.61465 1.38333,0.98705 1.05846,1.31194 -0.0678,0.0678 -0.36836,0.0255 -0.66793,-0.0941 -0.29957,-0.11956 -0.72963,-0.28562 -0.9557,-0.36901 -2.06331,-0.76123 -6.91849,-3.58656 -8.71873,-5.07363 -1.67076,-1.38011 -4.0991,-3.5224 -5.0292,-4.43678 -0.5532,-0.54385 -1.1081,-0.95661 -1.2331,-0.91721 -0.36477,0.11493 -2.10162,3.15822 -3.07582,5.38943 -1.95707,4.48227 -2.67016,7.17827 -3.61509,13.66773 -0.59575,4.09136 -0.34705,11.08106 0.56674,15.92856 1.85568,9.8441 5.524,18.6762 10.84612,26.11389 0.72342,1.01098 1.31616,1.9623 1.31719,2.11404 0.001,0.15172 -0.18183,0.50943 -0.40636,0.79489 -0.52864,0.6721 -0.33413,0.95596 0.55606,0.81149 0.58837,-0.0955 0.79904,-0.0217 1.21229,0.42415 l 0.50016,0.53972 1.46662,-0.48083 1.46662,-0.48084 0.43683,0.54786 c 0.24026,0.30132 0.54664,0.54786 0.68086,0.54786 0.13421,0 0.84529,-0.27541 1.58018,-0.61201 1.28412,-0.58818 1.9573,-0.63496 1.96699,-0.13674 0.002,0.1292 0.1736,0.45474 0.38019,0.72341 l 0.37562,0.4885 1.21257,-0.77838 c 0.70246,-0.45094 1.51518,-0.79873 1.93189,-0.82673 0.39562,-0.0266 0.79945,-0.058 0.89741,-0.0698 0.0979,-0.0117 0.13312,-0.25673 0.0781,-0.54431 -0.0579,-0.30309 0.22711,-1.49101 0.67811,-2.82603 2.61752,-7.74837 3.84797,-16.6917 3.30548,-24.02545 -0.3993,-5.39793 -0.64197,-7.0377 -2.50647,-16.93629 -0.14149,-0.75115 0.4647,-0.98243 0.8225,-0.31381 0.55231,1.03206 1.43062,4.36441 1.92956,7.3208 0.29611,1.75457 0.482,3.06129 0.95876,6.73949 0.2757,2.12703 0.26558,11.07309 -0.0151,13.28899 -0.65986,5.21067 -1.64238,9.92602 -2.76525,13.2712 -0.78378,2.33495 -1.03855,2.15459 3.03921,2.15165 1.94985,-0.002 5.986751,0.10715 8.970881,0.24123 l 5.42569,0.24379 0.36018,-0.44483 c 0.34371,-0.4245 0.34236,-0.51305 -0.0297,-1.93686 -0.54127,-2.07124 -1.32812,-6.04824 -1.65746,-8.37726 -0.3718,-2.62931 -0.37432,-13.39157 -0.004,-15.92856 0.43863,-3.00281 1.23144,-7.05237 1.79058,-9.14608 0.28679,-1.07389 0.69457,-2.59995 0.90618,-3.39124 0.73055,-2.7319 1.1803,-3.90336 1.52471,-3.97152 0.2579,-0.051 0.33581,0.0956 0.33581,0.63215 0,0.73169 -0.6907,4.16384 -1.54062,7.6555 -0.63286,2.5999 -1.03226,4.66623 -1.33084,6.88525 -0.12929,0.96084 -0.32221,2.36599 -0.42871,3.12253 -0.25544,1.81467 -0.2488,10.47597 0.009,12.35559 0.1117,0.81295 0.30462,2.21799 0.4287,3.12232 0.28369,2.06758 0.6816,4.05781 1.23279,6.16589 0.23644,0.90433 0.47864,1.8488 0.53821,2.09883 0.0699,0.29331 -0.11838,0.82307 -0.53069,1.49318 -0.35146,0.57122 -0.63901,1.07464 -0.63901,1.11871 0,0.044 0.36563,0.0311 0.81252,-0.0289 l 0.81253,-0.109 0.54739,1.15621 c 0.30108,0.63591 0.6706,1.15619 0.82116,1.15619 0.15057,0 0.52065,-0.32371 0.82241,-0.71936 0.30175,-0.39565 0.68831,-0.71935 0.859,-0.71935 0.17069,0 0.66864,0.3237 1.10655,0.71935 0.9476,0.85616 1.18796,0.88096 1.99063,0.20553 0.72874,-0.61324 0.86597,-0.62711 1.38838,-0.14038 1.20081,1.11878 1.92877,1.13019 2.40208,0.0376 z m -19.65314,-63.72052 c -2.459341,-0.7368 -5.116521,-4.70724 -7.079531,-10.57849 -0.76084,-2.27566 -1.039,-3.29963 -1.68638,-6.20801 -0.23779,-1.06827 -0.2397,-1.07022 -1.37187,-1.39937 -1.97273,-0.57352 -3.92851,-2.83851 -2.81875,-3.26438 0.39456,-0.15142 0.67624,0.005 1.19836,0.66273 0.90086,1.13595 3.37288,1.77889 4.96934,1.29246 0.32771,-0.0999 1.01201,-0.30571 1.52067,-0.45746 1.39334,-0.41566 3.242041,-1.35266 4.660971,-2.36237 0.69846,-0.49703 1.37599,-0.90369 1.50562,-0.90369 0.12962,0 0.76043,0.39536 1.40179,0.87857 1.10761,0.8345 3.24703,2.20438 3.44271,2.20438 0.0503,0 0.48338,0.17951 0.96255,0.39892 1.35482,0.62035 3.44264,1.24578 4.14205,1.2408 0.99384,-0.007 2.18205,-0.65519 3.58841,-1.9573 1.04923,-0.97146 1.35972,-1.15833 1.63646,-0.9849 0.712,0.4462 0.50841,1.00445 -0.79727,2.18609 -1.19088,1.07774 -1.82784,1.4808 -3.11141,1.96885 -0.45516,0.17306 -0.5838,0.40335 -0.78238,1.40059 -0.3923,1.97012 -2.00898,6.76809 -2.91976,8.66526 -2.01022,4.18733 -4.22741,6.61187 -6.57625,7.19124 -1.08659,0.26802 -1.07813,0.2679 -1.88533,0.0261 z m 2.90473,-1.99982 c 1.78705,-1.09829 3.92198,-4.48195 5.49122,-8.70305 l 0.67089,-1.80463 -0.4368,-0.39044 c -0.70575,-0.63084 -2.33952,-1.45099 -3.77156,-1.89333 -1.62455,-0.5018 -4.42911,-0.55004 -6.1604,-0.10596 -1.472271,0.37764 -4.566471,1.87898 -4.725231,2.29274 -0.1319,0.34373 0.20566,1.46572 1.16605,3.87576 1.50982,3.78877 3.343261,6.53151 4.811501,7.19776 0.85969,0.3901 1.79938,0.24097 2.95433,-0.46885 z m -8.287971,-12.78556 c 2.23809,-1.17737 3.975551,-1.68236 6.196741,-1.8011 2.67541,-0.14301 4.68394,0.28534 6.98691,1.49005 l 1.68933,0.88371 0.2252,-0.8944 c 0.30984,-1.23053 0.28881,-2.15109 -0.0492,-2.15109 -0.44898,0 -2.75351,-0.80153 -4.00569,-1.39319 -1.41001,-0.66624 -2.95639,-1.58814 -3.98298,-2.37449 l -0.75975,-0.58197 -0.91228,0.6277 c -1.78749,1.2299 -4.188901,2.25684 -7.071551,3.02408 -0.30096,0.0801 -0.33828,1.20142 -0.0684,2.05453 0.10369,0.32772 0.24419,0.85021 0.3122,1.16107 0.068,0.31087 0.15875,0.56521 0.20164,0.56521 0.0429,0 0.59987,-0.27454 1.23774,-0.61011 z m 29.454791,-11.83633 c -1.61664,-0.39186 -2.61433,-0.93736 -3.69986,-2.02294 -1.99104,-1.99116 -2.70091,-5.13937 -1.78678,-7.92415 0.84275,-2.56729 2.19433,-3.99181 4.46842,-4.70956 1.75364,-0.55349 2.798,-0.55266 4.29672,0.003 3.85779,1.43142 6.00062,4.95909 5.38119,8.85888 -0.4936,3.10757 -2.3443,5.06845 -5.49455,5.82169 -1.41396,0.33808 -1.66647,0.3359 -3.16514,-0.0273 z m 0.52969,-7.82791 c 2.13555,-1.58919 1.08561,-5.21134 -1.51059,-5.21134 -0.79107,0 -2.33738,1.47561 -2.52397,2.40857 -0.47266,2.36342 2.16378,4.19493 4.03456,2.80277 z m -24.52595,7.15738 c -1.13104,-0.51255 -1.62509,-1.41463 -0.98982,-1.80728 0.42184,-0.26072 3.11585,-0.0967 3.42082,0.20833 0.40519,0.40521 -0.0249,1.11117 -0.89955,1.47665 -0.75302,0.31465 -1.05396,0.33869 -1.53145,0.1223 z m -24.456591,-0.22913 c -1.83365,-0.55983 -3.68976,-2.17871 -4.48791,-3.91433 -0.616,-1.33952 -0.83747,-3.82348 -0.45151,-5.06395 0.98119,-3.15353 3.09555,-5.24671 6.24441,-6.18188 0.87014,-0.25842 1.23278,-0.26644 2.2797,-0.0504 2.50673,0.51723 4.29042,1.78638 5.18261,3.68757 0.64994,1.38497 0.94122,3.63547 0.68585,5.299 -0.2024,1.31842 -0.28247,1.58113 -0.87279,2.86379 -0.34756,0.75518 -1.71215,2.0614 -2.65725,2.54359 -1.68781,0.8611 -4.50516,1.24953 -5.92311,0.81662 z m 5.73968,-8.1557 c 0.77922,-0.46032 1.05977,-0.98406 1.1842,-2.21065 0.0897,-0.88448 0.0317,-1.14889 -0.36095,-1.64492 -0.52602,-0.66451 -1.87564,-1.35017 -2.67102,-1.35698 -0.93792,-0.008 -2.24777,1.92664 -2.24777,3.32001 0,0.64291 0.58021,1.57524 1.18431,1.90304 0.74919,0.40653 2.21424,0.40124 2.91123,-0.0105 z m 61.156301,98.31469 c 2.25242,-0.83903 7.16963,-5.36843 10.54382,-9.71224 1.05165,-1.35385 2.03627,-2.61327 2.18805,-2.79873 0.42798,-0.52291 2.81489,-4.05949 3.51577,-5.20915 2.02431,-3.32051 2.5972,-4.29357 3.51091,-5.96332 1.66326,-3.03951 2.33474,-4.55963 2.33209,-5.27944 -0.002,-0.59733 -0.0854,-0.49104 -0.67786,0.86583 -1.38726,3.17728 -4.02898,7.35805 -6.78231,10.73365 -0.84314,1.03369 -1.43095,1.22795 -1.7743,0.58636 -0.17262,-0.32258 -0.0134,-0.62818 0.92203,-1.76942 3.2256,-3.93541 7.17433,-10.97508 7.04457,-12.55883 -0.057,-0.69597 -0.13131,-0.79934 -0.57447,-0.79934 -0.44591,0 -0.53838,0.13235 -0.74613,1.06792 -0.48267,2.1737 -2.37139,5.51171 -5.3267,9.41409 -2.64486,3.49244 -2.8181,3.6742 -3.34322,3.50753 -0.67744,-0.21503 -0.55645,-0.79433 0.41984,-2.01019 3.00342,-3.74043 6.52519,-9.25052 6.52519,-10.20918 0,-0.12885 0.1121,-0.41379 0.24912,-0.6332 0.34767,-0.55675 0.0615,-0.74633 -0.60909,-0.40355 -2.27029,1.16045 -7.00871,5.51395 -10.89014,10.0055 -2.19311,2.53784 -2.72509,2.96391 -2.72509,2.18254 0,-0.58246 2.37655,-4.14517 3.48315,-5.22165 0.0624,-0.0607 0.91932,-0.93932 1.90433,-1.95253 l 1.79091,-1.84221 -0.38351,-1.74701 c -0.80406,-3.66268 -2.73108,-6.76225 -5.55527,-8.93554 -1.56459,-1.204 -5.0414,-2.98518 -5.82697,-2.98518 -0.0767,0 -0.13954,0.49709 -0.13954,1.10465 0,1.93292 -0.79446,6.0814 -2.05165,10.71331 -0.40945,1.50853 -2.16241,6.37849 -2.88527,8.01566 -0.39924,0.90421 -0.97059,2.13997 -2.37561,5.13824 -1.601,3.41646 -6.77411,12.00336 -8.74712,14.51943 -0.323,0.41192 -0.58728,0.79591 -0.58728,0.85332 0,0.10044 1.09751,0.24655 3.49379,0.46515 1.79211,0.16348 7.43459,0.16408 8.16933,0 0.65364,-0.14521 0.66846,-0.17332 0.69225,-1.31385 0.0395,-1.89615 0.2071,-2.39864 0.79977,-2.39864 0.49851,0 0.51491,0.048 0.63254,1.84977 0.14428,2.21002 0.2299,2.43714 1.07588,2.85403 0.67957,0.33487 1.56614,0.29081 2.70819,-0.13462 z m -82.135871,-1.44816 c 0.12905,-0.15551 0.2488,-1.39783 0.28206,-2.92627 0.0518,-2.38218 0.0965,-2.66348 0.43298,-2.72802 0.70307,-0.13484 0.94719,0.55405 0.95415,2.69253 0.006,1.96482 0.0181,2.01338 0.53371,2.20944 1.03234,0.3925 8.31009,0.19057 8.31009,-0.23061 0,-0.0925 -0.70919,-1.25887 -1.57597,-2.59187 -2.16359,-3.3273 -3.80299,-6.3741 -5.70851,-10.60912 -1.47454,-3.27716 -3.54367,-10.26583 -4.17887,-14.11449 -0.76455,-4.63241 -1.07588,-7.84001 -1.0744,-11.06951 l 10e-4,-2.54002 -0.56518,0.13621 c -1.170596,0.2821 -3.074688,1.31425 -4.287316,2.324 -1.63882,1.36466 -3.144013,3.3828 -4.329937,5.80554 -1.270005,2.59452 -1.199107,2.42389 -1.505843,3.62426 l -0.269618,1.05514 1.226009,1.51398 c 3.082101,3.80615 5.415946,7.31074 5.415946,8.13288 0,0.57893 -0.51859,0.62793 -0.813494,0.0769 -0.116271,-0.21727 -0.331504,-0.51786 -0.478297,-0.66798 -0.146791,-0.15011 -1.121103,-1.3828 -2.165138,-2.73929 -1.044036,-1.3565 -2.011212,-2.60721 -2.149285,-2.77937 -0.138071,-0.17215 -0.645587,-0.83005 -1.127811,-1.462 -0.482227,-0.63194 -1.625509,-1.83217 -2.540629,-2.66717 -0.915119,-0.835 -1.76909,-1.61581 -1.897713,-1.73514 -0.396499,-0.36785 -1.861613,-1.32452 -2.028467,-1.32452 -0.256692,0 -0.181059,0.71477 0.16589,1.56776 1.007419,2.4768 3.671609,7.42831 5.272606,9.79936 0.649768,0.96231 0.758132,1.25086 0.559594,1.4901 -0.474311,0.57154 -0.987104,0.31967 -1.802,-0.8851 -2.174253,-3.2145 -4.840159,-8.27917 -5.607237,-10.6526 -0.335208,-1.03718 -0.520692,-1.30532 -1.091067,-1.57734 -0.938342,-0.44748 -1.176821,-0.1725 -0.835119,0.96295 0.568908,1.89045 3.031206,6.49366 5.254338,9.82287 0.68097,1.01976 1.188436,1.98363 1.1277,2.14191 -0.220291,0.57411 -0.762097,0.55327 -1.356437,-0.0521 -0.963699,-0.98169 -3.379898,-5.04089 -5.247296,-8.81545 -0.770457,-1.55731 -1.118766,-2.09328 -1.11934,-1.72239 -0.0026,1.69376 2.718759,7.90503 5.347178,12.20441 2.970078,4.85825 5.853267,8.64641 10.037618,13.18827 2.905821,3.15408 4.578342,4.4475 6.810275,5.2666 0.59306,0.21764 1.80129,0.14322 2.02359,-0.12465 z M 146.2324,220.37615 c 2.55933,-2.11317 4.00759,-3.46753 4.00759,-3.74775 0,-0.10486 -1.15292,-1.63478 -2.56205,-3.39983 -1.40912,-1.76505 -3.22034,-4.04158 -4.02494,-5.05896 -0.80459,-1.01737 -1.57692,-1.87642 -1.71627,-1.90898 -0.13935,-0.0325 -0.71975,0.4419 -1.28977,1.05439 l -1.0364,1.11361 0.86325,1.5717 c 0.47479,0.86443 1.07416,2.23972 1.33195,3.0562 0.2578,0.81648 0.54153,1.71573 0.63052,1.99833 0.089,0.2826 0.2702,1.115 0.40269,1.84977 0.13249,0.73477 0.32596,1.77982 0.42992,2.32233 0.10396,0.5425 0.18902,1.44427 0.18902,2.00391 0,0.67852 0.0856,1.01659 0.2569,1.0147 0.14129,-0.002 1.27421,-0.84279 2.51759,-1.86942 z m -6.20776,-14.41598 c 1.44463,-1.65265 2.63763,-3.51417 3.21839,-5.02186 0.25326,-0.65747 0.53536,-1.38039 0.6269,-1.60647 0.66075,-1.63205 1.04197,-5.38643 0.79854,-7.86451 -0.16174,-1.64659 -0.22833,-1.83973 -0.80347,-2.33024 -1.84631,-1.57466 -4.78842,-1.27738 -7.54061,0.76195 -4.54715,3.36936 -6.01667,8.94232 -3.63933,13.80171 1.08787,2.22366 2.9486,3.49739 5.15511,3.52884 1.05158,0.015 1.07218,0.003 2.18447,-1.26942 z m -68.026071,-1.46281 c 3.03488,-1.34225 4.54531,-5.83619 3.55614,-10.58055 -0.45282,-2.17187 -2.4104,-4.91192 -4.59622,-6.43339 -1.83133,-1.27473 -4.38255,-1.52584 -6.4296,-0.63285 -1.04269,0.45485 -1.22977,0.84052 -1.62599,3.35202 -0.76024,4.81895 0.92434,9.71115 4.78903,13.90781 0.77008,0.83624 0.85564,0.8735 2.00547,0.8735 0.81636,0 1.55344,-0.15584 2.30117,-0.48654 z m 76.391761,-7.9407 c 0.0565,-0.0568 0.65766,-0.51925 1.33586,-1.02764 0.67822,-0.50841 1.33532,-1.01686 1.46025,-1.1299 0.12492,-0.11304 1.31488,-1.03793 2.64437,-2.0553 2.16239,-1.65475 5.88039,-4.54723 8.89438,-6.91954 0.59343,-0.46709 1.07896,-0.96477 1.07896,-1.10597 0,-0.14118 -0.26479,-0.75166 -0.58842,-1.3566 -1.76358,-3.2965 -2.23189,-4.16466 -3.30957,-6.13539 -0.64906,-1.18693 -1.52948,-2.80548 -1.95648,-3.59677 -0.42699,-0.79129 -1.03113,-1.90115 -1.34253,-2.46636 -0.3114,-0.5652 -1.07093,-1.95253 -1.68784,-3.08294 -1.96327,-3.59749 -2.68282,-4.90649 -3.27641,-5.96036 -0.31836,-0.56522 -1.01857,-1.8412 -1.55604,-2.83553 -0.8285,-1.53275 -1.03977,-1.78869 -1.38825,-1.68175 -2.13822,0.65616 -5.57604,1.5296 -6.03472,1.53324 -0.52912,0.004 -0.53261,0.16533 -0.0424,1.95638 1.01791,3.71885 1.64772,9.0326 1.6565,13.97603 0.008,4.35746 0.2901,7.71044 0.91736,10.89308 0.92518,4.69434 0.98149,5.242 0.86636,8.42672 -0.0613,1.69562 -0.17552,3.44529 -0.25381,3.88815 l -0.14234,0.8052 1.31099,-1.01073 c 0.72105,-0.5559 1.35724,-1.05721 1.41375,-1.11402 z m -16.80887,-51.95095 c 1.58354,-1.10223 4.45307,-2.93888 5.40265,-3.45797 0.22607,-0.12358 0.78096,-0.43877 1.2331,-0.70043 1.023,-0.59201 5.69843,-2.92493 7.2624,-3.62375 3.37565,-1.50832 10.71429,-4.23689 13.49488,-5.01752 1.14595,-0.32171 2.1544,-0.60632 2.92863,-0.82652 0.42388,-0.12056 1.09438,-0.29939 1.49,-0.3974 0.39562,-0.098 1.043,-0.26553 1.43862,-0.37227 5.29752,-1.42934 15.0324,-3.05819 19.00758,-3.18037 l 1.43582,-0.0441 0.15108,-0.82212 c 0.0831,-0.45216 0.2398,-1.42329 0.34823,-2.15806 0.10843,-0.73477 0.33903,-2.16834 0.51245,-3.18571 1.17059,-6.8677 2.57541,-16.55385 2.86165,-19.73086 0.0572,-0.63536 -0.56708,-0.52955 -6.64229,1.1258 -2.47351,0.67398 -12.4689,3.88017 -13.4614,4.31798 -0.22607,0.0997 -1.01218,0.38488 -1.74691,0.63368 -0.73472,0.24879 -2.81559,1.00329 -4.62415,1.67665 -1.80855,0.67336 -3.9819,1.48239 -4.82965,1.79786 -2.45899,0.91501 -8.42875,3.29318 -9.61405,3.82993 -0.59678,0.27025 -1.12956,0.49136 -1.18396,0.49136 -0.0544,0 -0.5372,0.1942 -1.07288,0.43154 -0.53568,0.23735 -1.15893,0.51074 -1.385,0.60753 -0.64454,0.27595 -6.25672,2.76391 -7.39864,3.27992 -1.79308,0.81026 -11.6595,5.71303 -13.05036,6.48493 -0.73473,0.40775 -2.07573,1.16328 -2.98001,1.67895 -0.90428,0.51567 -1.85151,1.03947 -2.10496,1.16399 -0.25344,0.12452 -0.46152,0.29577 -0.46241,0.38055 -7.8e-4,0.0848 -0.0846,0.15415 -0.18612,0.15415 -0.77792,0 -8.44722,5.35355 -8.44722,5.89658 0,0.37088 3.26523,5.21412 3.57527,5.30313 0.12474,0.0358 1.46664,0.36027 2.98199,0.72102 2.74988,0.65465 7.16388,2.0754 9.011,2.90042 0.53675,0.23973 1.28329,0.57142 1.65897,0.73708 0.37569,0.16566 1.06931,0.47658 1.54138,0.69093 0.47208,0.21435 0.92417,0.39175 1.00465,0.39423 0.0805,0.002 0.91283,-0.52901 1.84966,-1.1811 z m 51.02756,-2.71945 c 0.0698,-0.11304 -0.0172,-0.20553 -0.19339,-0.20553 -0.17623,0 -0.32041,0.0925 -0.32041,0.20553 0,0.11304 0.087,0.20553 0.19339,0.20553 0.10636,0 0.25055,-0.0925 0.32041,-0.20553 z M 75.440949,110.7598 c -0.1788,-0.21547 -0.21478,-1.10736 -0.13103,-3.24883 l 0.11543,-2.95184 -2.47213,-1.82676 c -1.85131,-1.368 -2.45697,-1.92588 -2.41172,-2.22147 0.0609,-0.39809 0.4689,-0.557487 4.58706,-1.792176 l 1.44389,-0.432899 0.90202,-2.709207 c 0.49611,-1.490064 0.9906,-2.824818 1.09887,-2.966119 0.48662,-0.635098 0.92234,-0.209326 3.3127,3.237093 l 1.06914,1.541474 3.17442,0.102765 c 3.86629,0.125163 3.89349,0.157006 2.11117,2.47189 -0.65042,0.844769 -1.23662,1.582189 -1.30267,1.638709 -0.35143,0.30071 -1.02512,1.44525 -1.02512,1.74157 0,0.18819 0.38345,1.48243 0.85211,2.87609 0.48028,1.42821 0.79325,2.68731 0.71722,2.88544 -0.18606,0.4849 -0.92032,0.35124 -3.94207,-0.71763 l -2.47549,-0.87564 -2.45693,1.76955 c -1.35131,0.97326 -2.56121,1.77078 -2.68866,1.77227 -0.12745,0.001 -0.34265,-0.13093 -0.47821,-0.29428 z m 3.07339,-2.97844 c 0.39563,-0.29741 1.10425,-0.79892 1.57474,-1.11447 l 0.85542,-0.57372 1.91906,0.63922 c 1.05549,0.35158 2.07966,0.72849 2.27594,0.83758 0.73566,0.40889 0.74651,0.1309 0.0743,-1.904 -0.98006,-2.96678 -1.0212,-2.75704 1.0432,-5.31945 0.60204,-0.747271 1.09461,-1.417812 1.09461,-1.490093 0,-0.07228 -1.09212,-0.131417 -2.42693,-0.131417 -1.6312,0 -2.53349,-0.08424 -2.75192,-0.256913 -0.17875,-0.141301 -0.88818,-1.078209 -1.57652,-2.082015 l -1.25152,-1.825104 -0.37526,0.90022 c -0.20639,0.49512 -0.50464,1.316417 -0.66278,1.825102 -0.52444,1.687024 -0.84617,2.085565 -1.95495,2.42172 -0.56259,0.170562 -1.64572,0.50473 -2.40695,0.74258 l -1.38406,0.43247 1.80905,1.27841 c 2.61654,1.84904 2.48539,1.60441 2.32565,4.33813 -0.0748,1.28043 -0.0966,2.3675 -0.0484,2.41569 0.0976,0.0976 0.78192,-0.31797 1.86734,-1.13394 z M 157.53587,86.385733 c -1.46945,-1.480276 -2.81046,-2.765833 -2.98001,-2.856794 -0.30614,-0.164233 -1.73766,-0.02637 -3.90483,0.376048 -4.76517,0.884838 -4.79329,0.886455 -5.0227,0.288586 -0.0701,-0.182736 0.4198,-1.33482 1.15131,-2.707378 2.2612,-4.24278 2.43277,-4.58503 2.43277,-4.853029 0,-0.282278 -1.26498,-2.785218 -2.59816,-5.140852 -0.99843,-1.764136 -1.12041,-2.074298 -0.96997,-2.466358 0.13965,-0.363931 0.93176,-0.394132 2.65693,-0.1013 2.4543,0.416595 3.6093,0.620121 4.81344,0.848189 l 1.23051,0.233065 2.93122,-2.903914 c 3.24119,-3.210997 3.6374,-3.418633 4.02903,-2.111407 0.13093,0.43702 0.23805,1.079886 0.23805,1.428592 0,0.348705 0.0864,1.077882 0.19194,1.620392 0.10556,0.542511 0.30913,1.761299 0.45235,2.708418 l 0.26042,1.722036 3.74746,1.821468 c 2.06111,1.001808 3.79999,1.906459 3.86419,2.010336 0.2775,0.44904 -0.26157,0.863035 -2.60286,1.99894 -1.36854,0.663962 -3.04546,1.484669 -3.72649,1.823793 l -1.23824,0.61659 -0.23417,1.438708 c -0.1288,0.79129 -0.3511,2.271104 -0.494,3.288476 -0.36716,2.613774 -0.64712,3.481821 -1.14543,3.551405 -0.29244,0.04084 -1.18186,-0.71911 -3.08276,-2.63401 z m 3.08029,-3.178222 c 0.17919,-1.243455 0.37828,-2.525525 0.44242,-2.849046 0.10433,-0.526244 0.44998,-0.74857 3.28075,-2.110145 1.74028,-0.837059 3.16098,-1.589732 3.1571,-1.672608 -0.006,-0.129561 -3.32006,-1.778222 -5.45585,-2.714187 -0.85526,-0.374799 -0.98448,-0.720337 -1.42409,-3.80792 -0.19313,-1.356496 -0.41927,-2.743822 -0.50254,-3.082946 l -0.15139,-0.61659 -2.57986,2.538095 -2.57985,2.538095 -3.34533,-0.544492 c -1.83993,-0.299471 -3.42147,-0.591554 -3.51453,-0.649074 -0.22777,-0.140778 -0.2169,0.60831 0.0124,0.854838 0.36409,0.391442 2.90114,5.222285 2.90114,5.524122 0,0.170883 -0.16895,0.614096 -0.37544,0.98492 -1.55934,2.800261 -2.73242,5.136523 -2.63039,5.238565 0.0669,0.06691 1.57981,-0.123992 3.36202,-0.424222 1.7822,-0.30023 3.34087,-0.545303 3.46371,-0.54461 0.12284,6.16e-4 1.36369,1.134245 2.75746,2.519001 l 2.53411,2.51774 0.16116,-0.719354 c 0.0887,-0.395645 0.30779,-1.736727 0.48699,-2.980182 z M 40.114649,85.828016 c -0.103333,-0.197822 -0.251254,-2.333065 -0.328714,-4.744986 -0.07746,-2.411919 -0.206572,-4.563023 -0.286916,-4.780227 -0.08035,-0.217206 -1.253561,-1.071444 -2.607144,-1.898306 -1.353584,-0.826862 -3.129439,-1.912853 -3.946345,-2.413314 -1.569291,-0.961394 -1.983235,-1.530618 -1.415167,-1.946025 0.184494,-0.134913 1.929884,-0.816138 3.878641,-1.513832 1.948759,-0.697694 3.703787,-1.357387 3.900064,-1.465984 0.196278,-0.108596 0.485524,-0.197448 0.64277,-0.197448 0.479063,0 0.789287,-0.558322 1.173458,-2.111918 1.169362,-4.728919 1.859375,-7.227544 2.064046,-7.474172 0.488088,-0.588146 0.970536,-0.23295 2.761174,2.03287 1.005014,1.271716 1.876393,2.358454 1.9364,2.414975 0.06,0.05652 0.508896,0.629041 0.997539,1.272267 0.488641,0.643226 1.006103,1.26716 1.149914,1.386521 0.184194,0.152874 1.67844,0.123694 5.055467,-0.09873 2.636694,-0.173658 4.916603,-0.268687 5.066473,-0.211175 0.5009,0.192225 0.26656,1.031051 -0.63571,2.275532 -0.491743,0.678248 -1.706788,2.419738 -2.700104,3.869977 l -1.806027,2.636798 1.495146,3.734624 c 0.822332,2.054044 1.624381,4.026069 1.782334,4.382277 0.379718,0.856327 0.362483,1.288888 -0.05778,1.450167 -0.378219,0.145145 -1.628308,-0.145433 -6.437112,-1.496288 l -3.185523,-0.894853 -0.650642,0.454956 c -0.357854,0.250226 -2.100181,1.634184 -3.871835,3.075461 -1.771654,1.441278 -3.34839,2.620505 -3.503857,2.620505 -0.155469,0 -0.367213,-0.161855 -0.470547,-0.359677 z m 2.271417,-2.671887 c 0.741045,-0.571725 1.551204,-1.234305 4.166748,-3.407736 1.553301,-1.290745 1.617457,-1.30468 3.497339,-0.759702 0.452139,0.131077 1.145761,0.31851 1.541382,0.416519 0.688797,0.170639 1.342947,0.351696 3.031385,0.839036 1.173199,0.338625 1.901038,0.455551 1.901038,0.305401 0,-0.07447 -0.647381,-1.739139 -1.438624,-3.699266 -0.791243,-1.960128 -1.438623,-3.75718 -1.438623,-3.993449 0,-0.23627 1.017312,-1.913964 2.260694,-3.728211 1.243382,-1.814246 2.260693,-3.387984 2.260693,-3.497196 0,-0.11344 -0.370145,-0.152056 -0.863414,-0.09008 -0.474877,0.05967 -2.393898,0.190961 -4.264491,0.29176 -2.83389,0.152707 -3.454746,0.134696 -3.722906,-0.107999 -0.177008,-0.160198 -1.379286,-1.628796 -2.671729,-3.263552 -1.292444,-1.634757 -2.4343,-2.948773 -2.53746,-2.920036 -0.103158,0.02873 -0.207809,0.185967 -0.232559,0.3494 -0.02475,0.163435 -0.491625,1.952537 -1.037501,3.975784 l -0.992502,3.678629 -1.035632,0.454783 c -0.569598,0.25013 -1.636771,0.658684 -2.371496,0.907897 -0.734726,0.249213 -1.520831,0.534875 -1.7469,0.634804 -0.226069,0.09993 -0.866222,0.329378 -1.42256,0.509887 -0.556338,0.180509 -1.148702,0.404971 -1.316364,0.498805 -0.320664,0.179463 -0.0075,0.403342 4.722499,3.376303 1.204003,0.756751 2.244436,1.520136 2.312074,1.69641 0.06764,0.176275 0.12298,1.501717 0.12298,2.945428 0,2.842879 0.180921,5.151583 0.403702,5.151583 0.0768,0 0.469298,-0.254343 0.872227,-0.565206 z"
       id="path2299" />
  </g>
</svg>
