<?xml version="1.0" encoding="UTF-8" standalone="no"?>
<!-- Created with Inkscape (http://www.inkscape.org/) -->

<svg
   width="210mm"
   height="297mm"
   viewBox="0 0 210 297"
   version="1.1"
   id="svg5"
   inkscape:version="1.3 (0e150ed6c4, 2023-07-21)"
   sodipodi:docname="Stef_Text.svg"
   xmlns:inkscape="http://www.inkscape.org/namespaces/inkscape"
   xmlns:sodipodi="http://sodipodi.sourceforge.net/DTD/sodipodi-0.dtd"
   xmlns="http://www.w3.org/2000/svg"
   xmlns:svg="http://www.w3.org/2000/svg">
  <sodipodi:namedview
     id="namedview7"
     pagecolor="#ffffff"
     bordercolor="#666666"
     borderopacity="1.0"
     inkscape:pageshadow="2"
     inkscape:pageopacity="0.0"
     inkscape:pagecheckerboard="0"
     inkscape:document-units="mm"
     showgrid="false"
     inkscape:zoom="0.69130191"
     inkscape:cx="397.80014"
     inkscape:cy="329.81248"
     inkscape:window-width="1366"
     inkscape:window-height="705"
     inkscape:window-x="-8"
     inkscape:window-y="-8"
     inkscape:window-maximized="1"
     inkscape:current-layer="layer1"
     showguides="false"
     inkscape:guide-bbox="true"
     inkscape:showpageshadow="2"
     inkscape:deskcolor="#d1d1d1">
    <sodipodi:guide
       position="-11.86469,172.99485"
       orientation="0,-1"
       id="guide2846"
       inkscape:locked="false" />
  </sodipodi:namedview>
  <defs
     id="defs2" />
  <g
     inkscape:label="Ebene 1"
     inkscape:groupmode="layer"
     id="layer1">
    <g
       aria-label="Stefan"
       id="text4184"
       style="font-size:28.1238px;line-height:1.25;font-family:'Comic Sans MS';-inkscape-font-specification:'Comic Sans MS, Normal';letter-spacing:0px;word-spacing:0px;fill:none;stroke:#000000;stroke-width:0.703852">
      <path
         d="m 31.069999,117.16037 q -0.01373,-0.57676 0.384505,-0.9338 0.41197,-0.37077 1.00246,-0.37077 0.672884,0 1.18098,0.76901 0.700349,1.04366 1.249642,1.41443 1.167247,0.76901 3.391884,0.76901 2.12851,0 3.954909,-0.92007 2.334495,-1.18098 2.334495,-3.28202 0,-1.73027 -1.963722,-2.73273 -1.661611,-0.86514 -4.105965,-0.9338 -2.169707,-0.0824 -3.693995,-0.94753 -1.94999,-1.11232 -1.94999,-3.1859 0,-2.44436 2.773929,-4.46301 2.650339,-1.90879 5.479198,-1.90879 1.332035,0 3.007379,0.45317 2.224636,0.59049 2.224636,1.51055 0,1.20845 -1.235909,1.20845 -0.549293,0 -1.922526,-0.28838 -1.373232,-0.30211 -2.12851,-0.28838 -2.142242,0.0275 -3.639066,1.05739 -1.53802,1.05739 -1.53802,2.56794 0,1.13979 2.032384,1.60668 0.755278,0.17852 2.924985,0.32958 3.144702,0.23345 4.916172,1.97746 1.620414,1.59294 1.620414,3.88624 0,3.2683 -3.021111,5.21829 -2.622874,1.68907 -6.08342,1.68907 -2.513015,0 -4.600328,-0.96126 -2.554213,-1.18098 -2.59541,-3.24083 z"
         id="path6551" />
      <path
         d="m 59.825487,108.87978 q -0.288379,0 -0.686616,-0.0275 -0.384505,-0.0275 -0.672884,-0.0275 -0.315844,0 -1.867596,0.20598 l 0.260914,8.11581 0.01373,0.60422 0.01373,0.70035 q 0.05493,3.00738 -1.441894,3.00738 -0.549293,0 -0.961262,-0.35704 -0.398238,-0.35704 -0.398238,-0.8926 0,-0.52183 0.0412,-1.56549 0.0412,-1.04365 0.0412,-1.56548 l -0.274646,-8.01968 q -1.00246,-0.0412 -3.048576,-0.23345 -1.222177,-0.16479 -1.222177,-1.3595 0,-0.60422 0.370773,-1.00246 0.370772,-0.39824 0.94753,-0.39824 l 2.883788,0.23345 q 0,-0.70035 -0.06866,-1.86759 -0.05493,-1.18098 -0.05493,-1.70281 0,-0.57676 0.398238,-0.94753 0.398237,-0.38451 0.974995,-0.38451 1.235909,0 1.441894,2.01865 0.0412,0.5081 0.0412,1.22218 l -0.02746,0.79648 -0.01373,0.8514 q 1.702808,-0.21972 1.94999,-0.21972 1.428161,0 1.867596,0.13733 0.837672,0.27464 0.837672,1.29083 0,0.60423 -0.384505,1.00246 -0.370773,0.38451 -0.961263,0.38451 z"
         id="path6553" />
      <path
         d="m 70.303251,121.21141 q -3.103505,0 -5.026031,-1.55176 -2.101045,-1.71654 -2.101045,-4.80631 0,-3.5704 1.730273,-5.98729 1.881328,-2.63661 5.02603,-2.63661 2.279566,0 3.72146,0.76901 1.77147,0.94753 1.77147,2.91125 0,1.37324 -1.551753,2.49929 -0.686616,0.49436 -2.911252,1.53802 l -5.245748,2.48555 q 0.76901,1.13978 1.908793,1.71654 1.153515,0.57676 2.677803,0.57676 0.94753,0 2.224637,-0.35704 1.620414,-0.45317 2.087313,-1.18098 0.466899,-0.74155 1.00246,-0.74155 0.480631,0 0.851404,0.37077 0.384505,0.35704 0.384505,0.83767 0,1.52429 -2.458086,2.62288 -2.101046,0.9338 -4.092233,0.9338 z m -0.370773,-12.51015 q -1.675343,0 -2.787662,1.30457 -1.112318,1.29084 -1.661611,3.89998 l 4.215824,-2.00492 q 2.48555,-1.20844 3.542939,-2.10105 -1.180979,-1.09858 -3.30949,-1.09858 z"
         id="path6555" />
      <path
         d="m 88.526047,101.27207 q -3.323223,0 -3.72146,4.61406 l -0.0412,0.85141 q 2.334495,-0.16479 3.021111,-0.16479 2.18344,0 2.18344,1.37323 0,1.00246 -1.071122,1.19471 -0.466899,0.0824 -1.098586,0.0687 -0.617954,-0.0275 -3.158434,0.17853 l -0.109859,3.13097 q 0,0.8514 0.05493,2.55421 0.05493,1.70281 0.05493,2.54048 0,2.60914 -0.302111,4.06477 -0.23345,1.09858 -1.277106,1.09858 -0.563026,0 -0.961263,-0.37077 -0.398238,-0.35704 -0.398238,-0.90633 0,-0.10986 0.02746,-0.27465 0.288379,-1.7852 0.288379,-3.88625 l -0.0412,-3.74892 v -3.98238 q -1.716541,0.13733 -2.169707,0.13733 -1.386965,0 -1.386965,-1.33204 0,-1.3595 2.403157,-1.42816 l 1.318303,-0.0412 q 0.0412,-0.76901 0.205985,-2.08731 0.35704,-3.04858 1.53802,-4.49047 1.428162,-1.744007 4.463005,-1.744007 1.963723,0 1.963723,1.332035 0,1.318302 -1.785202,1.318302 z"
         id="path6557" />
      <path
         d="m 104.31822,121.48605 q -0.26092,0 -0.94753,-0.60422 -0.61796,-0.56302 -0.92007,-1.00246 -1.3183,0.71408 -2.32076,1.07112 -1.00246,0.37078 -1.675343,0.37078 -3.213364,0 -4.682723,-1.81267 -1.386965,-1.70281 -1.386965,-5.21829 0,-3.32322 2.279566,-5.68518 2.293298,-2.36196 5.465465,-2.36196 1.19471,0 2.6778,0.61796 1.8676,0.76901 1.8676,1.85386 0,0.37077 -0.27465,0.65915 -0.13732,0.52183 -0.21971,1.71654 -0.0687,1.19472 -0.0824,3.06231 -0.0137,1.70281 0.23345,2.69154 0.13732,0.60422 0.86514,2.41689 0.0961,0.24718 0.31584,0.72781 l 0.0824,0.23345 q 0,0.54929 -0.38451,0.90633 -0.3845,0.35704 -0.8926,0.35704 z m -2.85632,-9.54396 q 0,-0.59049 0.0687,-1.27711 0.0824,-0.70035 0.23345,-1.48309 -0.5081,-0.26091 -0.87887,-0.3845 -0.35704,-0.1236 -0.57676,-0.1236 -2.12851,0 -3.680263,1.74401 -1.53802,1.73027 -1.53802,3.99611 0,2.2521 0.796475,3.37815 0.796475,1.12605 2.389424,1.12605 1.318303,0 2.238374,-0.48063 0.49436,-0.26092 1.38696,-1.04366 -0.43943,-3.63907 -0.43943,-5.45173 z"
         id="path6559" />
      <path
         d="m 118.51744,121.55471 q -1.18098,0 -1.33204,-1.29083 l -0.3845,-3.00738 q -0.19225,-1.60668 -0.19225,-3.00738 0,-0.38451 0.0412,-1.30457 0.0549,-0.92007 0.0549,-1.30457 0,-2.96619 -1.09858,-2.96619 -1.53802,0 -2.93872,1.8264 -1.26338,1.66161 -1.97746,4.20209 -0.0275,0.53557 -0.12359,1.34577 -0.0824,0.68662 -0.0824,1.33204 0,0.41197 0.0824,1.23591 0.0824,0.82394 0.0824,1.23591 0,0.61795 -0.38451,1.00246 -0.37077,0.3845 -0.96126,0.3845 -0.60422,0 -0.975,-0.3845 -0.37077,-0.38451 -0.37077,-1.00246 0,-0.41197 -0.0961,-1.23591 -0.0824,-0.82394 -0.0824,-1.23591 0,-1.41443 0.19225,-3.91371 0.20599,-2.51302 0.20599,-3.92745 0,-0.43943 -0.0549,-1.30457 -0.0412,-0.86514 -0.0412,-1.30457 0,-0.59049 0.38451,-0.96126 0.39823,-0.38451 0.97499,-0.38451 1.26338,0 1.38697,1.7852 l 0.0412,1.60669 q 2.30703,-3.07605 4.73766,-3.07605 2.19717,0 3.0623,1.93626 0.59049,1.29084 0.64542,3.81759 v 1.38696 l -0.0137,1.27711 q 0,1.13978 0.28838,2.95245 0.30211,1.79893 0.30211,2.92498 0,0.60423 -0.39824,0.975 -0.3845,0.3845 -0.97499,0.3845 z"
         id="path6561" />
    </g>
  </g>
</svg>
