<?xml version="1.0" encoding="UTF-8" standalone="no"?>
<!-- Created with Inkscape (http://www.inkscape.org/) -->

<svg
   width="210mm"
   height="297mm"
   viewBox="0 0 210 297"
   version="1.1"
   id="svg3943"
   inkscape:version="1.1 (c68e22c387, 2021-05-23)"
   sodipodi:docname="Conny.svg"
   xmlns:inkscape="http://www.inkscape.org/namespaces/inkscape"
   xmlns:sodipodi="http://sodipodi.sourceforge.net/DTD/sodipodi-0.dtd"
   xmlns="http://www.w3.org/2000/svg"
   xmlns:svg="http://www.w3.org/2000/svg">
  <sodipodi:namedview
     id="namedview3945"
     pagecolor="#ffffff"
     bordercolor="#666666"
     borderopacity="1.0"
     inkscape:pageshadow="2"
     inkscape:pageopacity="0.0"
     inkscape:pagecheckerboard="0"
     inkscape:document-units="mm"
     showgrid="false"
     inkscape:zoom="0.66457632"
     inkscape:cx="397.24557"
     inkscape:cy="80.502417"
     inkscape:window-width="1920"
     inkscape:window-height="1017"
     inkscape:window-x="-8"
     inkscape:window-y="-8"
     inkscape:window-maximized="1"
     inkscape:current-layer="layer1" />
  <defs
     id="defs3940" />
  <g
     inkscape:label="Ebene 1"
     inkscape:groupmode="layer"
     id="layer1">
    <path
       style="fill:none;stroke-width:0.264583;stroke:#000000;stroke-opacity:1"
       d="m 195.05936,376.67074 c -4.63441,-1.67833 -9.78978,-6.84191 -15.7701,-15.79518 -4.24704,-6.35833 -6.08759,-9.69166 -7.99424,-14.47794 -2.98964,-7.50494 -4.99807,-17.14027 -6.10961,-29.3106 -0.82961,-9.08341 -0.75429,-15.41277 0.26678,-22.41867 0.58809,-4.03514 2.68271,-14.06983 3.93603,-18.85633 0.67366,-2.57275 0.79613,-3.39148 0.45189,-3.02067 -0.0563,0.0607 -0.86777,1.65807 -1.8033,3.54984 -0.93553,1.89177 -3.72489,7.42818 -6.19858,12.30312 -2.4737,4.87495 -4.75168,9.45886 -5.06218,10.18646 -0.3105,0.72761 -0.80515,1.88976 -1.09922,2.58255 -0.46088,1.08574 -2.16515,6.07748 -2.91229,8.52995 -0.54271,1.78142 -1.89167,9.4261 -2.07383,11.75261 -0.13916,1.77736 -0.30213,2.52764 -0.5682,2.61583 -0.31629,0.10485 -0.34497,-0.59656 -0.18839,-4.60796 0.31445,-8.05638 1.33329,-13.07052 4.42945,-21.79902 0.86175,-2.4294 0.95716,-2.67195 1.79418,-4.56118 0.30555,-0.68963 0.55554,-1.30794 0.55554,-1.37398 0,-0.16047 3.66043,-8.49463 4.83049,-10.99817 0.91135,-1.95001 1.81489,-3.87025 4.29506,-9.12813 4.03312,-8.55009 4.77444,-10.18085 6.73541,-14.81666 3.19603,-7.55558 5.40509,-14.75899 6.22696,-20.30522 0.58618,-3.9557 0.88252,-10.89215 0.63683,-14.90622 -1.11138,-18.15772 -10.87476,-29.51707 -31.05704,-36.13379 -1.30853,-0.429 -3.21353,-1.00433 -4.23333,-1.2785 -1.01979,-0.27417 -2.74714,-0.7482 -3.83855,-1.05339 -1.0914,-0.3052 -3.53218,-0.90961 -5.42396,-1.34312 -1.89177,-0.43352 -4.18372,-0.96561 -5.09322,-1.18243 -1.75254,-0.41779 -3.47564,-0.81735 -7.34219,-1.70256 -1.30969,-0.29984 -2.82774,-0.66391 -3.37344,-0.80903 -0.5457,-0.14513 -1.43867,-0.37449 -1.98438,-0.50969 -8.45802,-2.09552 -16.20778,-5.42115 -21.21524,-9.10405 -9.855118,-7.24823 -17.089387,-17.50562 -21.340249,-30.25809 l -1.516904,-4.55067 -1.478645,-0.58685 c -6.072521,-2.41008 -9.503156,-5.40336 -11.942639,-10.42015 -1.561689,-3.21161 -2.269617,-5.70274 -2.686809,-9.45465 -0.652121,-5.86467 0.788141,-11.43398 3.594005,-13.897561 1.589865,-1.395923 3.624188,-2.016111 6.646381,-2.026237 2.352368,-0.0079 2.793148,0.06821 3.973989,0.68599 0.730488,0.38217 1.869067,1.273131 2.530178,1.979908 1.112097,1.18893 2.888541,4.39101 2.888541,5.20666 0,0.78488 -0.376711,0.63179 -1.049506,-0.42651 -0.390771,-0.61468 -1.369653,-1.71892 -2.175293,-2.45386 -2.358203,-2.15127 -4.386882,-2.48825 -7.029575,-1.16768 -1.905717,0.9523 -3.30481,2.41528 -4.261945,4.45656 -0.615818,1.31336 -0.696741,1.81132 -0.693095,4.26509 0.0049,3.28473 0.481499,5.28251 1.988378,8.33438 1.47461,2.98652 3.384775,5.39688 5.614464,7.08468 2.493597,1.88756 3.89201,2.63646 6.588519,3.52841 2.044856,0.6764 2.532486,0.73136 6.574304,0.74101 3.670136,0.009 4.744984,-0.0845 6.746871,-0.58523 4.90448,-1.22683 10.72928,-3.89155 15.49044,-7.08654 3.5233,-2.36432 3.29119,-2.18682 3.10417,-2.37384 -0.0807,-0.0807 -1.20187,0.10867 -2.49149,0.42081 -1.28963,0.31214 -3.23775,0.65741 -4.32916,0.76728 -2.31496,0.23302 -9.65582,0.0808 -10.75499,-0.223 -0.67706,-0.18714 -0.60523,-0.22744 0.70083,-0.39326 2.69514,-0.34219 7.03781,-1.35473 9.92187,-2.31341 5.84522,-1.94297 11.65055,-5.64482 16.09691,-10.26442 3.40159,-3.53414 4.48141,-6.27518 3.89108,-9.877225 -0.67531,-4.12055 -3.00065,-6.797826 -7.48643,-8.619488 -1.02078,-0.414538 -0.91081,-0.666371 0.4689,-1.07375 1.57328,-0.464535 4.59745,-1.922929 6.15708,-2.969226 3.4439,-2.310389 6.17635,-5.900989 7.45521,-9.796571 0.86495,-2.634787 0.64044,-4.136493 -0.95581,-6.393175 -0.94941,-1.342205 -3.18294,-2.563685 -4.68782,-2.563685 -1.79266,0 -6.73746,2.002829 -8.67082,3.51201 -0.36043,0.281347 -0.4527,1.100431 -0.55883,4.960927 -0.14299,5.201505 -0.68322,8.394197 -2.17443,12.850604 -1.68013,5.020992 -3.18957,7.713821 -6.71103,11.972425 -3.1321,3.787734 -9.57088,9.975574 -9.57088,9.197864 0,-0.0675 0.14882,-0.2802 0.33072,-0.4727 6.02106,-6.37193 10.4771,-13.739101 11.73367,-19.399255 0.19384,-0.873125 0.35662,-2.837701 0.36173,-4.365723 0.0195,-5.826617 -2.02412,-11.235066 -4.66163,-12.33709 -1.14835,-0.479814 -3.64172,-0.454813 -5.09451,0.05108 -3.49721,1.2178 -5.97888,3.621087 -8.31543,8.052773 -1.862067,3.531751 -1.907869,3.939051 -1.804406,16.045165 0.06228,7.28693 -0.0048,11.10767 -0.213744,12.17083 -0.583248,2.96804 -2.172322,6.24528 -4.131712,8.52106 -1.271937,1.47732 -4.050708,3.79334 -4.338135,3.6157 -0.121627,-0.0752 0.524671,-0.88249 1.436222,-1.79404 1.206023,-1.20602 1.951058,-2.26871 2.735842,-3.90231 2.008973,-4.18185 2.305243,-7.7931 1.378045,-16.797029 -1.006338,-9.772457 -0.497779,-15.527806 1.893731,-21.431251 0.412658,-1.018645 0.750697,-2.178288 0.751195,-2.57698 0.0011,-0.756188 -1.913692,-4.001704 -3.137255,-5.317977 -0.384064,-0.413166 -1.209439,-1.052563 -1.834168,-1.420882 -0.932445,-0.549738 -1.38261,-0.648721 -2.513542,-0.55269 -2.720922,0.231039 -4.332923,1.583854 -5.278064,4.429429 -0.71373,2.14885 -0.678744,7.491995 0.0721,11.011207 0.903912,4.236654 2.522718,8.632447 4.963399,13.477894 2.118389,4.205609 0.402201,2.320046 -2.902239,-3.188661 -2.776323,-4.628303 -6.027155,-12.241578 -6.035267,-14.134275 -0.0027,-0.62825 -0.01646,-0.633494 -0.347216,-0.132291 -0.189426,0.287041 -0.742235,1.414862 -1.228468,2.506268 -3.631687,8.151768 -7.214907,14.295888 -9.868924,16.922179 -5.333352,5.277629 -12.429493,6.738759 -18.406461,3.789989 -2.15216,-1.06179 -5.2602,-4.233968 -6.41024,-6.542529 -1.21038,-2.429687 -1.3835,-5.125321 -0.52913,-8.239493 1.43883,-5.244608 4.39612,-7.782229 9.06922,-7.782229 2.206606,0 2.155991,0.302633 -0.19748,1.180819 -4.60118,1.716903 -6.87593,6.299928 -5.56728,11.216622 1.27613,4.79448 6.51779,7.862877 11.844228,6.933449 3.697608,-0.645211 6.762256,-2.646244 8.843735,-5.774436 0.555506,-0.834851 2.208964,-3.899162 3.674351,-6.809579 2.447454,-4.860909 3.110966,-6.254626 4.975461,-10.451042 0.355608,-0.800365 0.884761,-1.99099 1.175898,-2.645833 0.831684,-1.870684 3.175815,-7.270049 4.479878,-10.318751 0.653581,-1.527968 1.401955,-3.254375 1.663057,-3.836458 0.261101,-0.582083 1.249495,-2.844271 2.196425,-5.027083 0.946931,-2.182813 2.073188,-4.742657 2.502792,-5.688542 0.429604,-0.945886 1.050962,-2.315104 1.380791,-3.042708 1.891168,-4.171897 4.225298,-8.781175 5.560357,-10.980209 2.77744,-4.574844 3.355089,-5.991079 4.369194,-10.712056 0.66493,-3.095445 1.18752,-7.835799 1.18902,-10.78534 5.3e-4,-1.013635 0.11532,-1.785938 0.26549,-1.785938 0.14552,0 0.26458,0.154771 0.26458,0.343938 0,0.189163 0.29765,2.392182 0.66146,4.895598 0.3638,2.503414 0.66146,5.398006 0.66146,6.432423 v 1.880759 l 2.93154,-2.741461 c 4.3253,-4.044839 7.68893,-7.030435 11.63759,-10.329641 1.10078,-0.919731 3.77969,-3.1546008 5.95312,-4.9663718 4.21369,-3.512529 8.75714,-7.397837 10.68524,-9.137433 9.16242,-8.2666712 14.07714,-14.8491612 17.48581,-23.4194782 3.03041,-7.61929 4.1245,-12.980393 4.47069,-21.906721 0.1202,-3.099166 0.27105,-5.68735 0.33522,-5.75152 0.18957,-0.189575 0.72629,5.028464 0.89903,8.740533 0.25047,5.382551 -0.79942,13.356952 -2.43841,18.520833 -2.2268,7.015811 -5.64407,13.523111 -9.44824,17.9916672 -3.59014,4.217141 -8.26253,8.71645505 -14.39962,13.866202 -0.76398,0.641074 -1.38906,1.237908 -1.38906,1.326295 0,0.08839 0.60684,0.44881 1.34854,0.800944 4.7732,2.266164 6.82352,7.8137808 5.68526,15.3827378 -0.20599,1.369769 -0.43813,2.788145 -0.51587,3.151947 -0.84014,3.931878 -2.15256,8.381275 -3.37229,11.432786 -0.4485,1.122042 -0.76973,2.177217 -0.71386,2.344836 0.0559,0.167616 0.55836,-0.274167 1.11665,-0.981745 2.45638,-3.113238 5.12418,-4.941991 7.82757,-5.365739 1.22133,-0.19144 1.63596,-0.14246 2.58987,0.305929 0.62465,0.293622 1.19111,0.478486 1.25879,0.410806 0.0677,-0.06768 5.3e-4,-1.600989 -0.14914,-3.407357 -1.51989,-18.339412 -0.90945,-26.9849558 2.40511,-34.0628928 1.52161,-3.249274 4.15625,-6.5905072 6.95161,-8.8159972 1.56114,-1.24289 2.16102,-1.062958 0.8943,0.268246 -1.96546,2.065504 -5.09029,7.3900532 -6.10563,10.4037022 -0.22975,0.681927 -0.68917,2.52739505 -1.02092,4.101042 -0.54212,2.571551 -0.60327,3.584305 -0.60413,10.0049248 -5.3e-4,4.112165 0.14259,8.378841 0.33729,10.054167 3.34653,28.795406 4.08911,38.839543 3.53201,47.7738 -0.85182,13.660829 -3.34798,22.87424 -8.63697,31.879397 -2.4924,4.24361 -5.8099,8.38778 -10.97324,13.70759 -12.22275,12.59315 -25.25162,19.48401 -36.839342,19.48401 h -3.183237 l 0.177231,1.12448 c 0.429242,2.72344 3.661275,10.45235 5.781046,13.82448 2.903742,4.61928 6.985182,9.24017 10.780842,12.20577 2.39372,1.87025 4.72887,3.39144 4.91714,3.20317 0.0755,-0.0755 -0.0994,-0.65635 -0.38853,-1.29081 -0.51428,-1.12834 -1.30783,-3.5382 -1.86097,-5.65147 -0.90445,-3.45539 -1.79395,-5.83859 -2.98245,-7.99078 -0.73943,-1.33899 -1.53725,-2.64868 -1.77294,-2.91042 -1.11451,-1.23768 -2.67749,-3.21501 -2.67749,-3.3873 0,-0.42308 1.56141,0.82861 3.43959,2.75732 1.95982,2.01255 3.28791,3.92732 6.38513,9.20575 0.87189,1.48591 2.10716,3.28214 2.74504,3.99162 2.34241,2.60533 5.75829,4.72645 8.61771,5.35125 2.006,0.43832 4.07905,-0.14472 5.61773,-1.57998 1.04701,-0.97664 1.09183,-1.08577 1.19484,-2.90881 0.0994,-1.75857 -0.11161,-3.08683 -0.83315,-5.24518 -0.23472,-0.70213 -0.48985,-0.91599 -1.35867,-1.13888 -6.05337,-1.55298 -11.73858,-4.53478 -16.52835,-8.66887 -3.67151,-3.16891 -7.4562,-7.18718 -6.76938,-7.18718 0.10455,0 1.10051,0.75117 2.21324,1.66926 5.85307,4.82922 12.42327,7.63058 18.8452,8.03511 4.0575,0.25559 6.60927,-0.59696 8.54076,-2.85346 1.49772,-1.74976 2.08234,-3.25995 2.08731,-5.392 0.005,-2.23641 -0.69267,-3.9702 -2.55666,-6.35163 -1.9148,-2.44635 -4.43383,-4.30543 -9.28094,-6.84946 -1.18508,-0.62199 -1.24455,-0.69323 -0.5787,-0.69323 0.85158,0 8.57869,2.52486 9.13169,2.9838 0.53805,0.44654 2.88872,0.35118 4.40731,-0.17879 3.99504,-1.39422 7.21563,-4.04741 8.79705,-7.2472 0.89237,-1.80559 0.988,-2.20462 0.99119,-4.13592 0.004,-2.56002 -0.41201,-3.43374 -2.41277,-5.06471 -1.15755,-0.94361 -2.57663,-1.58722 -5.91808,-2.68407 -0.2876,-0.0944 -0.21474,-0.20292 0.26458,-0.39408 1.31994,-0.52641 4.93736,-1.49338 6.74687,-1.8035 1.91999,-0.32906 7.05999,-0.25435 7.87136,0.1144 0.25626,0.11646 0.46302,0.10272 0.46302,-0.0308 0,-0.32575 -2.56697,-2.94775 -5.25226,-5.36484 -1.20834,-1.08766 -2.06357,-2.02203 -1.90052,-2.07638 0.16306,-0.0543 1.27359,0.53672 2.46785,1.31348 5.2345,3.40458 8.33805,5.93712 12.88973,10.51817 6.71082,6.75413 11.11568,13.39803 13.43762,20.26812 1.46182,4.32522 2.11882,7.0294 3.50334,14.41979 0.32947,1.75868 0.91243,5.67005 1.45907,9.78958 2.39375,18.03987 3.70515,23.73029 7.10443,30.82755 2.34331,4.89254 4.95365,8.65349 8.58255,12.36568 1.67151,1.70987 2.86938,3.10886 2.66194,3.10886 -0.54571,0 -4.70236,-3.41179 -7.03775,-5.77661 -7.4949,-7.58931 -10.42016,-13.96413 -13.64872,-29.74371 -0.1712,-0.83674 -0.39751,-1.52135 -0.5029,-1.52135 -0.1054,0 -0.38344,0.40419 -0.61786,0.8982 -0.74985,1.58019 -2.28287,3.11535 -3.81902,3.82437 -1.32582,0.61193 -1.77588,0.67607 -4.64313,0.66172 -2.85797,-0.0143 -3.42597,-0.10112 -5.68854,-0.86953 -1.38244,-0.46951 -3.6744,-1.42271 -5.09323,-2.11823 -1.41882,-0.69552 -2.57917,-1.19185 -2.57855,-1.10295 5.3e-4,0.0889 0.3587,0.69741 0.79573,1.35225 2.54621,3.81525 2.40263,7.0476 -0.42022,9.46051 -0.89807,0.76764 -1.16665,1.13544 -0.89579,1.22669 14.36419,4.83902 22.284,9.1627 28.84507,15.74745 6.0209,6.04263 8.95451,11.39497 10.59926,19.33827 0.56908,2.74836 0.62857,3.6826 0.61502,9.65729 -0.0124,5.44222 -0.11887,7.29456 -0.60096,10.45104 -0.69818,4.57142 -1.45397,8.61296 -2.1523,11.50938 -0.28068,1.16416 -0.69731,2.89057 -0.92585,3.83646 -0.22854,0.94588 -0.66002,2.61276 -0.95886,3.70416 -0.29884,1.09141 -0.87925,3.23453 -1.28979,4.7625 -0.41055,1.52797 -1.1866,4.26641 -1.72456,6.08542 -0.53796,1.81901 -1.07653,3.66448 -1.19682,4.10104 -0.12028,0.43656 -0.75694,2.63922 -1.41478,4.89479 -2.96082,10.15185 -4.8852,18.21971 -5.96387,25.00313 -1.22538,7.70596 -0.85674,16.82602 1.17728,29.12621 1.72351,10.42246 4.92825,19.59964 9.00077,25.77483 3.69395,5.60118 6.5761,7.49081 14.26683,9.35382 5.77681,1.39935 7.11395,1.93243 8.9199,3.55608 2.68929,2.41781 3.35081,5.10473 1.84091,7.47736 -0.88433,1.38962 -1.07722,1.55673 -2.86894,2.48536 -1.95782,1.01471 -3.75993,1.11535 -5.92601,0.33089 z M 129.72579,175.02139 c 0,-0.2097 -0.13105,-0.46226 -0.29122,-0.56125 -0.52908,-0.32698 -3.09297,-4.51211 -4.8534,-7.92234 -0.95269,-1.84551 -1.78436,-3.19552 -1.84815,-3.00001 -0.0638,0.19552 -0.2448,1.01032 -0.40223,1.81069 -0.4018,2.04263 -1.26699,4.14642 -2.3229,5.64831 -0.49599,0.70548 -0.82618,1.35831 -0.73376,1.45072 0.261,0.26101 3.53685,1.23374 8.2027,2.43573 2.32162,0.59808 2.24896,0.59362 2.24896,0.13815 z m 9.79967,-1.27239 c 1.5583,-0.7858 2.38412,-2.25761 2.40842,-4.29235 0.01,-0.81651 -0.13475,-1.86652 -0.32113,-2.33335 -0.53464,-1.33915 -3.48161,-5.68978 -5.28542,-7.80293 -1.53819,-1.80195 -2.04402,-2.76177 -0.89375,-1.69588 1.25175,1.15992 5.99145,4.35936 8.04456,5.43033 3.84772,2.00709 5.29487,2.41774 8.47265,2.40423 3.06167,-0.013 4.07556,-0.31734 5.64327,-1.69382 3.25491,-2.85785 0.76396,-9.80463 -4.98731,-13.90865 -1.78124,-1.27107 -6.22474,-3.47206 -8.52731,-4.22383 -0.76399,-0.24943 -1.38907,-0.54515 -1.38907,-0.65716 0,-0.112 0.68461,-0.28895 1.52136,-0.39321 3.31882,-0.41354 6.55307,-2.39852 7.36283,-4.51886 0.61042,-1.59835 0.4053,-4.7338 -0.44676,-6.82913 -1.27378,-3.13238 -3.35373,-4.70837 -7.21592,-5.46752 -2.90702,-0.5714 -8.69268,0.56205 -13.9854,2.73985 -2.1019,0.86486 -2.45163,1.27218 -1.52028,1.77062 0.75072,0.40177 3.33939,3.59981 3.97247,4.90757 0.89088,1.84032 1.31587,3.9914 1.31587,6.6603 0,3.67021 -0.85232,6.01865 -2.97209,8.18909 -1.62215,1.66093 -3.76486,2.68241 -6.37654,3.03982 -1.04289,0.14272 -1.98084,0.34129 -2.08434,0.44125 -0.19881,0.19203 2.82345,6.40111 3.74714,7.6983 0.29814,0.41871 0.54208,0.83758 0.54208,0.93083 0,0.3165 2.58846,3.97375 4.08689,5.77439 1.86411,2.24008 3.59834,3.53208 5.70269,4.24853 0.88339,0.30075 2.06736,0.14522 3.18509,-0.41842 z m 26.20155,-21.65394 c -0.98328,-5.565 -1.88556,-9.82579 -2.51619,-11.882 -0.20083,-0.65484 -0.43752,-1.51805 -0.52597,-1.91823 -0.21955,-0.99337 -0.56705,-0.91308 -1.12351,0.25957 -1.23968,2.61244 -4.48995,4.57974 -10.47829,6.34222 -0.67506,0.19869 -0.38183,0.39503 3.57188,2.39168 4.56534,2.30553 8.0324,4.684 9.99586,6.85737 0.65484,0.72485 1.28488,1.23915 1.40009,1.14288 0.1152,-0.0963 -0.0305,-1.53334 -0.32387,-3.19349 z m -8.77046,-27.42336 c -1.90482,-3.38696 -8.18643,-11.97531 -8.75888,-11.97531 -0.11859,0 -0.21563,0.29206 -0.21563,0.64901 0,1.4987 -1.48999,3.80419 -4.20837,6.51165 -1.10513,1.10071 -2.54512,2.40917 -3.19996,2.9077 -0.65485,0.49852 -1.46708,1.15699 -1.80496,1.46325 l -0.61434,0.55685 1.67267,-0.28505 c 0.91997,-0.15678 3.87532,-0.28707 6.56746,-0.28954 5.40687,-0.005 7.09949,0.28656 9.78958,1.68606 0.80037,0.41639 1.49446,0.65414 1.54244,0.52835 0.048,-0.12579 -0.29853,-0.91463 -0.77001,-1.75297 z M 129.3884,94.378427 c 1.6898,-3.537578 4.30614,-12.40199 4.30614,-14.589634 0,-0.388596 -0.42869,-0.07637 -1.69558,1.234919 -3.01033,3.115832 -7.5898,5.58455 -13.17025,7.099859 -1.38598,0.376348 -1.43688,0.760322 -0.10078,0.760322 0.48244,0 1.39385,0.182301 2.02537,0.405112 3.74497,1.3213 6.20376,3.318825 6.98668,5.675992 0.24321,0.732232 0.53481,1.274099 0.648,1.204143 0.11319,-0.06996 0.56338,-0.875776 1.00042,-1.790713 z M 87.921622,70.641298 c 0,-0.521517 3.272618,-4.999278 4.777508,-6.536836 3.27018,-3.34115 6.38058,-4.962847 9.51869,-4.962847 3.94861,0 7.26269,3.039255 9.25633,8.488735 l 0.307,0.839169 1.36555,-0.804701 c 2.1591,-1.272329 6.01712,-4.262904 7.38249,-5.722594 2.61546,-2.796133 4.6806,-6.858389 5.43607,-10.693062 0.55506,-2.817397 0.23574,-3.895574 -1.48026,-4.998161 -1.61409,-1.037104 -2.93522,-0.93915 -4.88852,0.36246 -2.7464,1.830105 -4.32998,3.503936 -8.94367,9.453386 -0.82577,1.06485 -0.58262,0.23005 0.66193,-2.272567 4.89091,-9.834931 7.04918,-17.953475 6.69882,-25.198232 -0.15855,-3.27833 -0.66194,-4.917054 -1.8584,-6.049685 -1.94379,-1.8401 -4.2284,-1.70203 -6.56259,0.39661 -0.72591,0.652656 -1.65367,1.677215 -2.06168,2.276804 -2.65954,3.908263 -6.07092,11.988657 -6.93895,16.435991 -0.53715,2.75206 -1.00157,5.643337 -1.30765,8.140898 -0.34995,2.855534 -0.77663,3.653123 -0.78418,1.465863 -0.009,-2.581672 -0.74105,-6.752238 -1.41841,-8.07983 -1.4765,-2.893875 -4.62197,-4.540128 -6.58398,-3.445872 -0.32545,0.181509 -1.19029,0.940729 -1.92187,1.687155 -4.363991,4.452533 -5.616616,14.2635 -3.052993,23.911994 0.135329,0.509323 0.511315,1.938073 0.835527,3.175 0.32421,1.236927 0.633788,2.333056 0.687954,2.435842 0.120473,0.228613 0.875284,-0.03486 0.875284,-0.30552 z m 47.364298,-9.075634 c 0.004,-5.862924 -0.45666,-14.430278 -0.79696,-14.82637 -0.0984,-0.114477 -0.70191,0.838023 -1.34123,2.116667 -1.47222,2.944453 -3.40684,5.971114 -5.54485,8.674807 -0.92059,1.164166 -1.74228,2.179841 -1.82597,2.257057 -1.04516,0.964295 -2.99973,3.185652 -2.89511,3.290271 0.0751,0.07506 0.84199,-0.05179 1.70429,-0.281868 1.62805,-0.434404 4.69092,-0.369735 5.96603,0.125965 1.29686,0.50415 2.90523,1.933932 3.60713,3.206602 0.39925,0.723924 0.81521,1.31794 0.92435,1.320035 0.10914,0.0021 0.20018,-2.645328 0.20232,-5.883166 z M 81.839896,61.329515 c -0.882467,-2.665915 -1.531723,-5.259102 -1.734452,-6.92754 -0.103002,-0.847712 -0.281003,-1.443025 -0.39556,-1.322917 -0.193344,0.202713 -2.636179,5.798452 -2.636179,6.038628 0,0.05943 0.413605,0.304315 0.919123,0.5442 0.505518,0.239882 1.666378,1.125874 2.579688,1.968865 0.913309,0.842994 1.697378,1.498545 1.742373,1.45678 0.045,-0.04176 -0.168751,-0.832871 -0.474993,-1.758016 z M 99.29871,38.46058 c 0,-0.173755 0.17709,-0.895141 0.39354,-1.603076 0.21646,-0.707932 0.87304,-2.98055 1.45908,-5.050258 1.26284,-4.459923 3.72803,-11.689033 4.79865,-14.071881 0.41896,-0.932471 0.70592,-1.751222 0.6377,-1.819445 -0.158,-0.158001 -2.32921,1.653001 -4.89519,4.083066 -1.0983,1.040125 -2.495,2.327439 -3.10379,2.860697 -0.60878,0.533259 -2.01349,1.968182 -3.12157,3.188716 l -2.01471,2.219156 0.81581,0.726884 c 1.685,1.501339 3.26226,5.015862 4.00036,8.913765 0.30041,1.58646 0.38473,1.750915 0.6863,1.338493 0.1891,-0.258607 0.34382,-0.61236 0.34382,-0.786117 z m -3.43959,246.16953 c -2.96333,-0.16259 -4.05879,-0.30221 -7.08084,-0.90244 -0.47472,-0.0943 -0.909863,-0.24702 -0.966979,-0.33938 -0.05711,-0.0924 3.129269,-0.17032 7.080839,-0.1732 5.54908,-0.004 7.81713,-0.10962 9.96282,-0.46363 6.20362,-1.02346 10.85132,-2.53923 16.49808,-5.38049 2.91387,-1.46619 7.00526,-4.03997 7.63217,-4.80123 0.30275,-0.36764 0.25603,-0.39553 -0.39212,-0.23408 -3.32812,0.82899 -5.39508,1.06775 -9.18605,1.06117 -5.76676,-0.0101 -9.83288,-0.85958 -14.48801,-3.02718 -2.92098,-1.36009 -4.24298,-2.30293 -7.10251,-5.06542 -4.96641,-4.79785 -8.12745,-11.07927 -8.85872,-17.60347 -0.78616,-7.01392 1.26711,-13.01118 6.03203,-17.61858 4.9381,-4.77486 11.04569,-5.84121 16.78841,-2.93113 1.71073,0.86688 4.46695,3.49935 5.29008,5.05253 1.16003,2.1889 1.41616,3.58579 1.02752,5.60414 -0.8866,4.60444 -3.33742,7.28096 -7.18265,7.84413 -2.32613,0.34068 -4.86358,-1.62949 -5.17884,-4.02103 -0.191,-1.44891 0.69004,-3.55875 2.448,-5.86224 2.30247,-3.01699 2.70625,-4.38976 1.67633,-5.69907 -1.61568,-2.05402 -5.59264,-2.23346 -9.45384,-0.42659 -4.13031,1.93281 -6.49587,5.16511 -7.57871,10.35558 -2.63396,12.62552 6.80268,26.07254 20.31435,28.94753 2.29961,0.48932 8.21941,0.50168 10.49999,0.022 2.52893,-0.532 7.08181,-2.11315 9.30269,-3.23075 6.67393,-3.35843 11.91587,-8.5698 15.02997,-14.94234 4.22946,-8.65497 4.92263,-19.28315 2.14091,-32.82606 -0.13809,-0.67228 -0.50219,-1.92244 -0.80911,-2.77813 -0.30692,-0.85566 -0.74092,-2.09155 -0.96444,-2.7464 -1.35083,-3.95753 -6.60794,-13.06703 -9.92497,-17.19791 -0.40897,-0.50933 -1.54015,-1.93808 -2.51371,-3.175 -2.1048,-2.67417 -3.31137,-4.03184 -6.65102,-7.48389 -1.37764,-1.424 -2.42627,-2.66762 -2.3303,-2.7636 0.24579,-0.24578 3.70707,1.65234 5.48478,3.00778 2.56887,1.95868 8.20706,7.58301 10.52846,10.50259 3.22203,4.05227 6.14513,8.56078 8.00558,12.34753 0.89368,1.81901 1.71285,3.54542 1.82037,3.83646 0.10752,0.29104 0.3776,0.94589 0.60019,1.45521 1.62739,3.72385 3.1244,10.1999 3.60852,15.61042 0.64875,7.25035 0.15431,12.64909 -1.82948,19.97604 -1.18153,4.3639 -3.98062,9.34506 -7.62171,13.56339 -8.8383,10.23945 -16.36725,15.72027 -26.01991,18.94157 -8.89856,2.96963 -16.70591,4.05532 -25.63817,3.56521 z m 59.93914,-76.98735 c -3.47491,-4.67043 -4.87064,-7.34468 -5.5501,-10.63415 -0.51363,-2.48664 -0.57296,-7.68012 -0.0859,-7.51776 0.18049,0.0602 0.42511,0.69516 0.54361,1.41111 0.34814,2.10343 1.87913,7.32414 2.70942,9.23923 0.18927,0.43656 0.55196,1.32953 0.80598,1.98437 0.25401,0.65485 1.16088,2.55399 2.01526,4.22032 0.85438,1.66634 1.51953,3.19656 1.47811,3.40053 -0.0414,0.20394 -0.9038,-0.74271 -1.91639,-2.10365 z m -43.84599,-1.37484 c -2.35414,-1.19455 -5.01153,-3.14241 -8.62442,-6.32169 -4.01775,-3.53556 -10.7104,-10.23418 -14.74477,-14.75793 -4.236923,-4.75086 -5.302935,-5.97016 -7.167501,-8.19815 -2.479432,-2.96271 -5.60318,-6.90221 -7.237961,-9.12813 -0.641247,-0.87312 -1.480198,-2.00422 -1.864333,-2.51354 -0.928452,-1.23103 -2.84733,-4.21201 -5.109422,-7.9375 -1.574046,-2.59233 -7.857241,-14.7307 -7.857241,-15.17924 0,-0.083 -0.307296,-0.82273 -0.682877,-1.64384 -3.007939,-6.57602 -8.779661,-23.71989 -9.778976,-29.0467 -0.255334,-1.36104 0.184936,-1.19084 0.76641,0.29629 0.270058,0.69068 0.64438,1.61297 0.831829,2.04953 0.187447,0.43656 1.062697,2.5279 1.945,4.64741 5.786903,13.90161 12.70652,27.45768 18.738885,36.71094 3.468936,5.32112 6.406041,9.01073 14.466488,18.1729 2.637509,2.99801 8.978699,9.46165 11.416369,11.63682 2.33614,2.08458 4.9883,3.89574 6.61359,4.51645 1.12623,0.43011 1.33155,0.4398 1.95269,0.0922 1.37447,-0.76929 1.73071,-2.06113 1.81033,-6.56492 0.0397,-2.2428 0.12605,-4.13177 0.19198,-4.1977 0.12256,-0.12257 1.59509,2.9425 2.56953,5.34848 0.88057,2.17419 0.94735,2.3434 1.41628,3.58851 2.52589,6.70676 3.94595,13.10628 3.78688,17.06563 l -0.085,2.11666 -0.79375,0.0719 c -0.49314,0.0447 -1.46266,-0.26752 -2.55998,-0.82432 z M 46.288479,93.380913 C 45.7277,93.100976 45.082286,92.718767 44.854228,92.531561 44.063608,91.882562 42.942455,89.834695 42.942455,89.039569 v -0.799058 l 1.389062,1.315027 c 1.817381,1.720517 2.315774,1.974189 3.878715,1.974189 1.604301,0 2.749029,-0.84681 3.49395,-2.584641 0.602414,-1.405374 0.671997,-4.812848 0.139028,-6.808068 -0.850937,-3.185554 -1.321393,-3.68835 -11.349507,-12.12968 -10.44424,-8.791618 -12.8421,-11.739219 -14.59868,-17.945616 -1.27597,-4.508281 -1.73931,-8.672444 -1.71722,-15.433038 0.016,-4.90864 0.22711,-6.883947 0.57854,-5.414314 0.0857,0.358497 0.23494,2.021033 0.33158,3.694523 0.20463,3.543609 0.67244,6.960558 1.57167,11.479858 0.77921,3.91614 1.20208,5.231172 2.54613,7.917907 2.44264,4.882788 5.64479,8.281488 14.419346,15.304384 5.795738,4.638744 8.834242,7.546145 10.04425,9.610871 2.098305,3.580487 1.827054,10.421229 -0.517906,13.061167 -1.452533,1.635249 -4.734626,2.16027 -6.862934,1.097833 z M 57.759121,77.106344 c 0,-0.220255 -0.112966,-0.607208 -0.251036,-0.859896 -0.13807,-0.252687 -0.492795,-1.88818 -0.788281,-3.63443 -1.726155,-10.201198 -1.379826,-19.202631 1.114689,-28.971876 0.493432,-1.932421 0.573871,-2.97513 0.5715,-7.408333 -0.003,-5.58198 -0.378338,-8.195154 -1.862224,-12.964583 -0.38484,-1.236928 -0.760204,-2.606146 -0.834144,-3.042709 l -0.134441,-0.79375 0.496658,0.663337 c 1.211368,1.617911 3.471145,6.297205 4.447439,9.209257 0.466696,1.39205 0.970929,2.571798 1.120516,2.621659 0.149585,0.04986 1.019498,-1.371727 1.933136,-3.159088 3.43431,-6.718579 6.947474,-11.936895 12.38119,-18.390545 4.055417,-4.8166368 6.029828,-6.8946848 15.278097,-16.0800368 8.52294,-8.4649522 9.81981,-9.9768952 11.57425,-13.4937502 1.65831,-3.324156 2.92048,-7.883142 3.36954,-12.170834 0.1524,-1.455208 0.35355,-2.943489 0.44699,-3.307291 l 0.16989,-0.661459 0.19035,0.79375 c 0.49502,2.064168 -0.0267,9.028854 -0.95305,12.722562 -0.80103,3.194039 -2.5512,7.008317 -4.25806,9.279929 -0.56357,0.750041 -3.28541,3.7258632 -6.04853,6.6129352 -8.709615,9.100323 -10.530285,11.064577 -12.837764,13.8502 -0.90407,1.091406 -1.961308,2.3415628 -2.34942,2.7781248 -0.725906,0.816528 -2.198844,2.693429 -5.126755,6.532798 -6.829383,8.955374 -13.037156,20.683599 -15.144022,28.611317 -1.998904,7.521467 -2.636304,13.860571 -2.452154,24.387255 0.07001,4.001757 0.08641,7.275923 0.03646,7.275923 -0.04995,0 -0.09082,-0.180211 -0.09082,-0.400466 z M 34.608083,74.893785 c -2.98908,-1.078365 -7.88759,-3.963461 -10.84792,-6.389143 -6.86264,-5.623208 -10.47129,-12.357082 -12.97031,-24.203041 -0.65762,-3.11727 -0.3857,-4.119711 0.39474,-1.455208 0.99205,3.386955 2.16393,6.381345 4.09011,10.451041 2.32994,4.922772 5.48336,9.209675 9.74292,13.245008 2.48737,2.356429 7.73457,6.439159 9.68351,7.534524 0.59018,0.3317 1.13437,0.762862 1.2093,0.958135 0.0749,0.195273 0.11022,0.350748 0.0784,0.345496 -0.0318,-0.0052 -0.65315,-0.224314 -1.38075,-0.486812 z M 101.73119,8.3599682 c -0.78122,-1.828517 -1.20296,-4.864817 -1.20017,-8.64065895 0.002,-3.34349005 0.0952,-4.17643805 0.72198,-6.48229205 1.09861,-4.0418202 2.73348,-7.1457142 5.09165,-9.6667912 1.3388,-1.431282 4.01011,-3.574729 4.2082,-3.376639 0.0705,0.0705 -0.31854,0.712394 -0.86454,1.42643 -1.34721,1.76186 -3.30609,4.798867 -3.82387,5.928458 -1.31944,2.8785372 -1.62802,3.6811432 -2.08261,5.4166772 -0.92268,3.522718 -1.37127,6.85374605 -1.55093,11.516657 -0.15293,3.969083 -0.22428,4.522827 -0.49971,3.878159 z"
       id="path4052" />
  </g>
</svg>
