<?xml version="1.0" encoding="UTF-8" standalone="no"?>
<!-- Created with Inkscape (http://www.inkscape.org/) -->

<svg
   width="210mm"
   height="297mm"
   viewBox="0 0 210 297"
   version="1.1"
   id="svg2949"
   inkscape:version="1.3 (0e150ed6c4, 2023-07-21)"
   sodipodi:docname="Feder3.svg"
   xmlns:inkscape="http://www.inkscape.org/namespaces/inkscape"
   xmlns:sodipodi="http://sodipodi.sourceforge.net/DTD/sodipodi-0.dtd"
   xmlns="http://www.w3.org/2000/svg"
   xmlns:svg="http://www.w3.org/2000/svg">
  <sodipodi:namedview
     id="namedview2951"
     pagecolor="#ffffff"
     bordercolor="#666666"
     borderopacity="1.0"
     inkscape:pageshadow="2"
     inkscape:pageopacity="0.0"
     inkscape:pagecheckerboard="0"
     inkscape:document-units="mm"
     showgrid="false"
     inkscape:zoom="0.23496321"
     inkscape:cx="251.10314"
     inkscape:cy="702.23759"
     inkscape:window-width="1366"
     inkscape:window-height="705"
     inkscape:window-x="-8"
     inkscape:window-y="-8"
     inkscape:window-maximized="1"
     inkscape:current-layer="layer1"
     inkscape:showpageshadow="2"
     inkscape:deskcolor="#d1d1d1" />
  <defs
     id="defs2946" />
  <g
     inkscape:label="Ebene 1"
     inkscape:groupmode="layer"
     id="layer1">
    <path
       style="fill:none;stroke:#000000;stroke-width:0.264583;stroke-opacity:1"
       d="m 26.455592,288.77467 v -2.73066 l 1.147188,-1.13337 c 0.630952,-0.62334 4.277998,-4.21468 8.104557,-7.98074 3.826552,-3.76605 7.650564,-7.65208 8.497811,-8.6356 4.287372,-4.97706 6.055143,-7.07114 10.801843,-12.79579 4.716522,-5.68827 8.168977,-10.18981 7.968714,-10.39014 -0.04374,-0.0438 -0.174177,0.0151 -0.289887,0.13093 -0.115711,0.11575 -0.33673,0.21046 -0.491152,0.21046 -0.154422,0 -0.388753,0.14987 -0.520738,0.33306 -0.144228,0.20018 -0.373922,0.29802 -0.575744,0.24521 -0.186561,-0.0488 -0.631684,0.10806 -1.001683,0.35301 -0.366248,0.24247 -0.844868,0.49765 -1.063596,0.5671 -0.218728,0.0694 -0.397689,0.19115 -0.397689,0.27046 0,0.19644 -1.94756,0.86798 -2.444584,0.84292 -0.220012,-0.011 -0.400021,-0.0416 -0.400021,-0.0678 0,-0.0262 0.273378,-0.32919 0.607507,-0.67339 0.425428,-0.43823 0.700606,-0.59006 0.918105,-0.50656 0.229936,0.0883 0.272363,0.0573 0.163372,-0.11908 -0.10213,-0.16531 -0.07022,-0.20967 0.104173,-0.1448 0.138268,0.0514 0.391891,-0.0422 0.563602,-0.20804 0.296056,-0.28594 0.286864,-0.29949 -0.177793,-0.26246 -0.546816,0.0436 -1.214389,0.39836 -3.634117,1.93124 -1.539979,0.97559 -4.016561,2.7485 -4.557894,3.26288 -0.303825,0.2887 -0.625247,0.28935 -0.454443,0.002 0.316369,-0.53426 2.126306,-2.29571 4.556268,-4.43424 1.442303,-1.26933 2.622369,-2.38315 2.622369,-2.47516 0,-0.0957 -0.361283,-0.12245 -0.844492,-0.0624 -1.153954,0.14326 -0.955405,0.14259 -4.908822,0.0169 -1.942029,-0.0617 -3.822138,-0.18633 -4.178018,-0.27687 -0.355881,-0.0906 -1.287089,-0.25627 -2.069358,-0.3683 -1.638346,-0.23461 -4.011413,-0.81294 -4.827139,-1.17638 -0.308132,-0.13728 -0.62815,-0.24997 -0.711157,-0.25042 -0.339095,-0.002 -2.310589,-0.88934 -2.659071,-1.19701 -0.206088,-0.18194 -0.47913,-0.296 -0.606755,-0.25344 -0.127631,0.0425 -0.339034,-0.069 -0.46979,-0.24786 -0.130755,-0.17888 -0.237737,-0.25769 -0.237737,-0.17511 0,0.0826 -0.149396,-0.0222 -0.331986,-0.2328 -0.18259,-0.21059 -0.435333,-0.38292 -0.561653,-0.38292 -0.325905,0 -1.997513,-1.2939 -3.414765,-2.64317 -1.329906,-1.26612 -2.339047,-3.00331 -2.545787,-4.38245 -0.153602,-1.02465 0.285439,-2.84182 1.040071,-4.30482 0.698927,-1.35501 2.610026,-3.118 4.261683,-3.93142 1.943259,-0.95701 4.699226,-1.12734 6.174919,-0.38162 1.008039,0.5094 2.433825,2.10464 3.092912,3.46049 1.144493,2.35443 1.59948,4.35742 0.989809,4.35742 -0.08812,0 -0.115442,0.11674 -0.06068,0.25945 0.153099,0.39911 -0.2585,1.44977 -0.789109,2.01427 -0.262452,0.27923 -0.95722,0.75406 -1.543916,1.05519 -1.214498,0.62334 -2.503306,0.68966 -3.089479,0.15898 -0.183087,-0.16573 -0.408031,-0.27802 -0.499874,-0.24947 -0.09184,0.0285 -0.428028,-0.20823 -0.747078,-0.52615 -0.319051,-0.31791 -0.673944,-0.57802 -0.788653,-0.57802 -0.262412,-2e-5 -1.13176,-1.07808 -1.365687,-1.69358 -0.282187,-0.74249 -0.204476,-2.00023 0.168822,-2.73223 0.379802,-0.74558 1.478669,-1.79991 1.875069,-1.79991 0.339672,0 1.157797,-0.3814 1.157797,-0.53974 0,-0.0698 -0.359529,-0.11699 -0.798961,-0.10485 -0.439424,0.0121 -0.799444,0.079 -0.800042,0.14864 -6.72e-4,0.0982 -0.933855,0.43572 -1.60118,0.57925 -0.451856,0.0972 -1.510715,0.77081 -1.85497,1.18008 -0.278821,0.33148 -0.460498,0.43279 -0.520026,0.28999 -0.05033,-0.12071 -0.07657,-0.0205 -0.05833,0.22271 0.02305,0.307 -0.08961,0.4968 -0.368466,0.62089 -0.220905,0.0983 -0.443719,0.3395 -0.495143,0.53603 -0.379917,1.45186 -0.496844,1.84309 -0.691468,2.31369 -0.44306,1.07128 0.363366,2.32648 2.28322,3.5538 2.562673,1.63825 7.319217,2.84784 12.81692,3.25935 2.413687,0.18069 6.78037,0.10339 8.8005,-0.15576 2.573169,-0.3301 5.566827,-0.86715 6.311474,-1.13224 l 0.711149,-0.25316 -1.15562,0.0153 c -2.242904,0.0296 -6.691558,-0.91781 -7.129222,-1.51836 -0.14908,-0.20455 -1.045817,-0.65648 -1.302631,-0.65648 -0.337166,0 -1.61769,-0.6622 -1.871023,-0.96756 -0.126583,-0.15258 -0.304698,-0.27741 -0.395809,-0.27741 -0.09112,0 -0.421335,-0.24322 -0.733828,-0.5405 -0.312499,-0.29727 -0.954276,-0.8375 -1.426176,-1.20052 -2.43947,-1.87657 -3.183095,-4.59407 -2.070883,-7.56784 0.321248,-0.85891 0.529406,-1.12772 1.205439,-1.5566 0.44943,-0.28513 1.244077,-0.6782 1.765883,-0.87351 2.08613,-0.78081 5.908496,-0.21771 7.522349,1.10819 0.373251,0.30664 1.628892,2.3949 1.890181,3.14354 0.24103,0.6906 0.352178,1.81128 0.205067,2.06766 -0.05456,0.0951 -0.151801,0.39298 -0.216074,0.66198 -0.06431,0.269 -0.197326,0.4891 -0.295666,0.4891 -0.09834,0 -0.255222,0.20107 -0.348617,0.44682 -0.0934,0.24576 -0.39144,0.53449 -0.662305,0.64163 -0.270865,0.10714 -0.638767,0.27082 -0.817554,0.36373 -0.666384,0.34632 -1.46148,0.32371 -2.475097,-0.0704 -0.562251,-0.2186 -1.022278,-0.49205 -1.022278,-0.60769 0,-0.11564 -0.389908,-0.49659 -0.866465,-0.84653 -0.796313,-0.58478 -1.622568,-1.90569 -1.622568,-2.59397 0,-0.46546 -1.070538,0.46785 -1.393956,1.21526 -0.610296,1.41041 0.0081,2.42237 2.079363,3.40265 0.649753,0.30753 1.337424,0.64522 1.528165,0.75042 1.355017,0.7474 10.031192,1.12196 13.69845,0.59139 1.804702,-0.26112 4.294522,-0.97705 5.022511,-1.44418 0.451701,-0.28985 0.527685,-0.60419 0.146042,-0.60419 -0.139692,0 -0.361646,-0.10004 -0.493235,-0.22232 -0.522982,-0.48596 -1.945429,-1.37837 -2.197062,-1.37837 -0.146883,0 -0.311948,-0.11701 -0.366807,-0.26 -0.05483,-0.14301 -0.272356,-0.31454 -0.48333,-0.38116 -0.21098,-0.0666 -0.50361,-0.25541 -0.650284,-0.41954 -0.522592,-0.58478 -3.362218,-2.67423 -3.634339,-2.67423 -0.152346,0 -0.276993,-0.10941 -0.276993,-0.24314 0,-0.13373 -0.340023,-0.46753 -0.7556,-0.74178 -2.650551,-1.74912 -8.740407,-7.57435 -10.889512,-10.41631 -0.195566,-0.25862 -0.709994,-0.93657 -1.14317,-1.50653 -1.12547,-1.48089 -2.664312,-3.84709 -3.576948,-5.50012 -0.432053,-0.78256 -0.969973,-1.74297 -1.195386,-2.13424 -0.394814,-0.68535 -0.88317,-1.68567 -2.214084,-4.53528 -1.010518,-2.16359 -2.049716,-5.0966 -2.615159,-7.38094 -1.030086,-4.16144 -1.975795,-11.71922 -1.969559,-15.74007 0.0034,-2.0578 0.4024,-6.52928 0.704652,-7.89265 0.08941,-0.4033 0.258561,-1.25349 0.375898,-1.88932 0.186608,-1.01124 0.473083,-2.14401 1.506784,-5.95811 0.600606,-2.21608 2.398521,-7.22554 2.741776,-7.63928 0.0854,-0.10295 0.32663,-0.62716 0.536051,-1.16493 0.209422,-0.53776 0.528936,-1.29789 0.710028,-1.68917 1.070625,-2.31326 1.676156,-3.54518 2.404098,-4.89098 0.449739,-0.83146 1.545623,-2.91236 2.435297,-4.6242 3.13286,-6.028 5.596225,-10.13168 7.529364,-12.54304 0.395022,-0.49274 0.853208,-1.08868 1.018193,-1.32432 0.467203,-0.66727 0.521013,-0.34078 0.130823,0.79375 -0.364697,1.06041 -0.43069,2.14739 -0.17825,2.93594 0.10084,0.31497 0.147514,0.35081 0.160067,0.12289 0.02681,-0.4863 0.373297,-0.16816 0.373297,0.34273 0,0.30837 0.06811,0.4037 0.222236,0.31107 0.174943,-0.10514 0.176683,-0.0772 0.0082,0.13124 -0.125769,0.15561 -0.206283,0.77481 -0.195236,1.50145 0.01035,0.68014 0.004,2.39712 -0.01378,3.8155 -0.0385,3.04394 0.07525,5.16371 0.318446,5.93513 0.09649,0.30609 0.210194,1.11678 0.252655,1.80152 0.04247,0.68473 0.155336,1.44506 0.250834,1.68961 0.0955,0.24455 0.23218,0.76459 0.30373,1.15565 0.07155,0.39105 0.217612,0.76511 0.324581,0.83124 0.138382,0.0856 0.132361,0.19512 -0.02083,0.37981 -0.171745,0.20702 -0.160436,0.28065 0.05591,0.36368 0.149167,0.0573 0.272397,0.24669 0.273835,0.42094 0.0073,0.88597 0.947509,3.13981 3.057466,7.32945 1.866986,3.70717 2.268485,4.34915 5.02927,8.04159 3.049229,4.07823 3.308267,4.39792 4.467933,5.51404 1.496799,1.44059 4.233038,3.86767 4.292855,3.80782 0.02795,-0.028 -0.07234,-0.28176 -0.222847,-0.56402 -0.30248,-0.56718 -1.574006,-3.31798 -2.512874,-5.43625 -1.985666,-4.48011 -4.387178,-12.11178 -5.049671,-16.04717 -0.08386,-0.49817 -0.443214,-2.46643 -0.798564,-4.37391 -0.774414,-4.157 -1.07463,-6.45178 -1.430967,-10.93802 -0.249114,-3.13629 -0.386583,-11.29591 -0.195512,-11.60517 0.0463,-0.075 0.172974,-1.09601 0.281481,-2.26899 0.529776,-5.72714 1.109632,-8.98672 2.328679,-13.09034 0.883082,-2.9727 2.373531,-6.47249 2.676623,-6.2851 0.0897,0.0555 0.16309,0.7272 0.16309,1.49275 0,0.82901 0.105033,1.63393 0.259724,1.99036 0.187441,0.4319 0.263164,0.49945 0.272088,0.24274 0.01142,-0.32833 0.02641,-0.33165 0.194369,-0.0431 0.100101,0.17196 0.130783,0.39556 0.06818,0.49689 -0.06263,0.10133 -0.02896,0.2865 0.07472,0.41149 0.103696,0.12499 0.218862,0.8618 0.255934,1.63736 0.03709,0.77555 0.114394,1.53015 0.171839,1.67688 0.05745,0.14673 0.144168,0.62693 0.19271,1.06712 0.164864,1.49504 1.001978,5.66084 1.429576,7.11416 0.129513,0.44019 0.25289,1.1605 0.274171,1.60069 0.07435,1.5379 0.124849,1.87045 0.346863,2.2842 0.122981,0.2292 0.175145,0.60992 0.115905,0.84604 -0.07272,0.28984 -0.03649,0.41446 0.111417,0.3836 0.126334,-0.0264 0.242717,0.18026 0.274829,0.48787 0.03064,0.29346 0.07369,0.706 0.09569,0.91675 0.02197,0.21075 0.100007,0.34609 0.173345,0.30075 0.07334,-0.0453 0.133335,0.10514 0.133335,0.33439 0,0.22926 0.160013,0.87226 0.355579,1.42888 0.195565,0.55664 0.355578,1.12394 0.355578,1.26068 0,0.13673 0.1644,0.63895 0.365335,1.11603 0.582201,1.38231 2.882019,5.94834 2.957849,5.87248 0.07588,-0.0759 -0.376745,-1.90657 -1.281444,-5.18292 -0.727216,-2.6336 -1.395475,-5.90309 -1.780854,-8.71292 -0.160852,-1.17277 -0.327618,-2.18923 -0.370603,-2.2588 -0.23001,-0.3723 -0.372236,-6.30092 -0.22319,-9.30364 0.170516,-3.43537 0.312607,-4.77198 1.162811,-10.93801 0.463978,-3.364932 0.497555,-3.496037 1.128211,-4.404959 0.3575,-0.515242 1.448902,-1.79579 2.425339,-2.845663 1.770547,-1.903713 4.907438,-5.37803 5.750459,-6.369016 2.437824,-2.865712 3.308885,-3.938362 5.260422,-6.47786 1.240344,-1.614024 3.176889,-4.175121 4.303441,-5.691326 1.126559,-1.516205 2.827854,-3.797181 3.780654,-5.068837 2.16669,-2.891782 2.51878,-3.399738 6.2871,-9.070551 2.77912,-4.182198 5.86204,-8.237096 10.41206,-13.694753 0.65241,-0.782557 1.73333,-2.103123 2.40205,-2.93459 3.42325,-4.256402 10.77516,-11.795613 21.15734,-21.696355 1.59451,-1.520568 6.00779,-5.148366 8.9783,-7.380315 1.02672,-0.771452 1.90677,-1.451485 1.95566,-1.511184 0.66191,-0.808214 5.92574,-3.91634 6.1881,-3.653878 0.0675,0.06752 -0.11715,0.294662 -0.41031,0.504756 -0.54519,0.390693 -2.45933,2.364463 -2.89118,2.981236 -0.14553,0.207862 -0.16603,0.342717 -0.0521,0.342717 0.10332,0 0.18787,-0.07722 0.18787,-0.171597 0,-0.198122 0.55415,-0.519933 1.22485,-0.711299 0.43138,-0.123084 0.4664,-0.09002 0.49624,0.468421 0.0217,0.406582 -0.0932,0.732198 -0.35558,1.007087 -0.21322,0.223428 -0.50769,0.592439 -0.65436,0.820023 -0.14667,0.227584 -0.6111,0.843203 -1.03205,1.368043 -0.42095,0.52484 -0.70097,0.9568 -0.62226,0.95991 0.0787,0.0031 0.0231,0.10328 -0.12357,0.222598 -0.14667,0.119318 -0.46613,0.616987 -0.70992,1.105931 -0.24378,0.488944 -0.54087,1.012117 -0.66021,1.162607 -0.34804,0.43887 -2.18563,4.12633 -2.18563,4.385857 0,0.129984 -0.0742,0.375309 -0.16481,0.545167 -0.0906,0.169857 -0.22224,0.468899 -0.29243,0.664538 -0.0702,0.19564 -0.31862,0.875931 -0.55203,1.511759 -0.23342,0.635828 -0.51017,1.43617 -0.61499,1.778539 -0.10482,0.342369 -0.26837,0.718071 -0.36343,0.834893 -0.18658,0.229268 -1.02235,3.492852 -1.03003,4.022124 -0.003,0.176957 -0.0847,0.272276 -0.18246,0.21182 -0.10947,-0.06768 -0.17779,0.231794 -0.17779,0.779351 0,0.489098 -0.0844,0.941472 -0.18763,1.005275 -0.1032,0.0638 -0.15733,0.248604 -0.12029,0.410668 0.037,0.162064 -0.0418,0.517107 -0.17521,0.788984 -0.13341,0.271876 -0.20056,0.562283 -0.14924,0.645348 0.0513,0.08307 -0.0328,0.403913 -0.18694,0.712993 -0.15413,0.309082 -0.23386,0.682886 -0.17716,0.83068 0.0567,0.147792 0.0189,1.045117 -0.084,1.994055 -0.34875,3.216389 -0.4389,4.678427 -0.37505,6.082765 0.0155,0.342369 0.0193,0.782557 0.008,0.978196 -0.011,0.19564 0.0388,1.356137 0.11075,2.578883 0.0719,1.222746 0.1268,2.366024 0.12194,2.540619 -0.005,0.174595 0.1116,0.854886 0.25876,1.511758 0.14717,0.656873 0.37873,1.736228 0.5146,2.398565 0.13587,0.662339 0.29574,1.28309 0.35527,1.379446 0.0595,0.09636 0.11264,0.494848 0.11803,0.885533 0.005,0.390686 0.07,0.710338 0.14367,0.710338 0.0736,0 0.19034,0.499422 0.25938,1.109826 0.069,0.610405 0.19314,1.191351 0.27581,1.290992 0.22165,0.267179 0.7304,2.582174 0.61022,2.776712 -0.0567,0.0918 0.003,0.144909 0.1316,0.118031 0.17521,-0.03648 0.22559,0.19914 0.19872,0.929326 -0.0271,0.737761 10e-4,0.868908 0.11636,0.533562 0.1384,-0.403945 0.15397,-0.383603 0.17007,0.222317 0.01,0.366825 0.0874,0.666953 0.17261,0.666953 0.0852,0 0.20794,0.400172 0.2728,0.88927 0.0648,0.489097 0.18407,0.889269 0.26493,0.889269 0.0809,0 0.11057,0.190704 0.0661,0.423787 -0.0446,0.233083 0.007,0.477909 0.11355,0.544059 0.10699,0.06615 0.19453,0.297825 0.19453,0.514835 0,0.217011 0.11737,0.562202 0.26083,0.767093 0.14346,0.204889 0.34449,0.745966 0.44674,1.202391 0.10225,0.456426 0.3542,1.206982 0.5599,1.667903 0.77479,1.736119 0.86598,1.964176 0.86598,2.165489 0,0.342485 0.79002,2.580876 0.93339,2.644621 0.0733,0.03261 0.13334,0.157634 0.13334,0.277838 0,0.120204 0.14968,0.533715 0.33262,0.918912 0.18294,0.385198 0.43808,1.120539 0.56698,1.634092 0.12889,0.513553 0.3079,0.933733 0.3978,0.933733 0.0899,0 0.11325,0.200086 0.0519,0.444635 -0.0643,0.256403 -0.0349,0.444635 0.0696,0.444635 0.0996,0 0.18118,0.151507 0.18118,0.336679 0,0.185174 0.12,0.382747 0.26668,0.439054 0.28673,0.110068 0.37332,0.647099 0.10434,0.647099 -0.0893,0 -0.0717,0.240102 0.039,0.533561 0.11073,0.293459 0.26103,0.533562 0.33401,0.533562 0.073,0 0.18575,0.400171 0.25061,0.889269 0.0648,0.489099 0.19222,0.88927 0.28303,0.88927 0.0908,0 0.1405,0.340146 0.11043,0.755879 -0.0389,0.537604 0.0351,0.845759 0.25646,1.067124 0.17779,0.177854 0.31114,0.578025 0.31114,0.933734 0,0.342368 0.078,0.622488 0.17333,0.622488 0.0978,0 0.12685,0.232578 0.0667,0.533562 -0.0674,0.337213 -0.0339,0.533562 0.0912,0.533562 0.10885,0 0.24937,0.32191 0.31226,0.715357 0.0629,0.393447 0.18384,0.758324 0.26879,0.81084 0.0849,0.05251 0.15443,0.374437 0.15443,0.715385 0,0.340948 0.11289,1.116558 0.25086,1.723579 0.58204,2.560625 0.75379,3.961245 0.90963,7.417495 0.11145,2.47223 0.11425,4.00226 0.009,5.06883 -0.0385,0.39128 -0.12942,1.33436 -0.202,2.09573 -0.0726,0.76137 -0.20001,1.42638 -0.28317,1.47779 -0.0832,0.0514 -0.1512,0.44891 -0.1512,0.88333 0,0.43441 -0.0642,0.78984 -0.14267,0.78984 -0.14424,0 -0.42311,1.01922 -0.79077,2.89013 -0.11054,0.56246 -0.26575,1.02266 -0.34492,1.02266 -0.0792,0 -0.14394,0.15029 -0.14394,0.33399 0,0.18369 -0.11862,0.61798 -0.26358,0.96507 -0.14498,0.3471 -0.31559,1.07365 -0.37913,1.61456 -0.0636,0.5409 -0.19152,0.96699 -0.28436,0.94685 -0.21854,-0.0474 -0.82798,1.42492 -0.84088,2.0314 -0.005,0.25702 -0.12994,0.56695 -0.27661,0.68873 -0.14667,0.12177 -0.26668,0.30368 -0.26668,0.40422 0,0.31574 -0.92295,2.08573 -1.0876,2.08573 -0.0863,0 -0.15692,0.12156 -0.15692,0.27012 0,0.40256 -1.74256,3.73343 -2.14267,4.09565 -0.1905,0.17246 -0.34713,0.48124 -0.34809,0.68617 -0.001,0.32335 -0.66899,1.34867 -1.46715,2.25366 -0.136,0.1542 -0.29865,0.41432 -0.36145,0.57803 -0.0628,0.16371 -0.21669,0.30173 -0.34199,0.30671 -0.1253,0.005 -0.94786,0.89012 -1.82791,1.96698 -0.88005,1.07685 -1.88011,2.22144 -2.22235,2.54354 -0.34224,0.3221 -0.82887,0.81756 -1.0814,1.10101 -0.25253,0.28346 -0.85256,0.8834 -1.33341,1.33321 -0.48085,0.44981 -1.1212,1.09853 -1.42301,1.4416 -0.30181,0.34307 -0.87464,0.76761 -1.27296,0.94341 -0.39832,0.1758 -0.69112,0.40746 -0.65067,0.51479 0.0405,0.10733 -0.22676,0.33426 -0.5938,0.50428 l -0.66738,0.30913 1.5112,-0.0755 c 0.95167,-0.0475 2.06291,-0.24944 3.00125,-0.54534 1.57384,-0.49629 7.19648,-3.27855 8.99944,-4.4532 6.44081,-4.19626 11.10685,-10.21143 12.71984,-16.39764 0.33745,-1.29419 0.49613,-1.64515 0.74384,-1.64515 0.28307,0 0.31489,0.20667 0.31489,2.04532 0,1.64993 0.0489,2.04532 0.25289,2.04532 0.45793,0 0.61627,1.11253 0.63285,4.44636 0.009,1.80966 0.0836,3.58423 0.16574,3.9435 0.0822,0.35927 0.0825,0.72013 6.7e-4,0.8019 -0.0817,0.0818 -0.0733,0.68088 0.0188,1.33134 0.0921,0.65046 0.18308,2.51467 0.20222,4.14269 0.0191,1.62802 0.0922,2.99552 0.16231,3.03888 0.0701,0.0434 0.0642,0.35938 -0.013,0.70227 -0.0846,0.37517 -0.073,0.62344 0.029,0.62344 0.0933,0 0.10552,0.10004 0.0272,0.22231 -0.0783,0.12228 -0.15962,1.94306 -0.18077,4.04618 -0.0407,4.0419 -0.16042,7.32944 -0.32071,8.80377 -0.111,1.02097 -0.21578,2.08999 -0.33526,3.42036 -0.046,0.51172 -0.1416,1.02434 -0.21252,1.13914 -0.0709,0.11481 -0.15679,0.84461 -0.19081,1.62178 -0.034,0.77717 -0.1135,1.49662 -0.17662,1.59879 -0.0631,0.10216 -0.13264,0.63441 -0.15448,1.18275 -0.0218,0.54835 -0.17823,1.61814 -0.34751,2.37731 -0.16928,0.75917 -0.26461,1.49286 -0.21184,1.63043 0.0527,0.13757 -0.0203,0.29473 -0.16233,0.34926 -0.19425,0.0746 -0.23018,0.27494 -0.14493,0.80826 0.0624,0.39001 0.0495,0.85223 -0.0285,1.02716 -0.22973,0.51507 -0.63109,2.58229 -0.62196,3.20339 0.005,0.31528 -0.10332,0.91554 -0.23992,1.3339 -0.13658,0.41837 -0.30128,1.14084 -0.36598,1.60548 -0.0647,0.46464 -0.19275,0.8448 -0.28454,0.8448 -0.0918,0 -0.17203,0.2201 -0.17831,0.48911 -0.0138,0.58996 -0.39031,2.2743 -0.64611,2.89012 -0.10158,0.24455 -0.14823,0.54054 -0.10367,0.65774 0.0445,0.11721 -0.0349,0.43734 -0.1765,0.71141 -0.32704,0.63284 -0.67008,1.62753 -0.73794,2.13975 -0.0289,0.21805 -0.14212,0.50444 -0.25163,0.63645 -0.10951,0.13198 -0.22847,0.39378 -0.26437,0.58174 -0.0359,0.18795 -0.15748,0.56705 -0.27022,0.84242 -0.11273,0.27537 -0.20496,0.57659 -0.20496,0.66937 0,0.20125 -0.32597,0.79966 -0.7556,1.38711 -0.17112,0.23396 -0.31113,0.60998 -0.31113,0.83555 0,0.2256 -0.0846,0.46249 -0.18806,0.52643 -0.10344,0.0639 -0.39031,0.56889 -0.63749,1.12209 -0.24718,0.55319 -0.53009,1.15685 -0.6287,1.34142 -0.61211,1.14588 -0.92636,1.63231 -1.16937,1.81008 -0.15142,0.11074 -0.21801,0.29411 -0.14799,0.40747 0.0711,0.11504 0.005,0.25324 -0.15062,0.3128 -0.15287,0.0587 -0.27795,0.25819 -0.27795,0.44337 0,0.18516 -0.08,0.33668 -0.17779,0.33668 -0.0978,0 -0.17779,0.12256 -0.17779,0.27236 0,0.14979 -0.1246,0.32019 -0.2769,0.37865 -0.15229,0.0585 -0.2348,0.21603 -0.18337,0.35013 0.0531,0.13833 -0.0194,0.24384 -0.16756,0.24384 -0.14361,0 -0.26111,0.14612 -0.26111,0.32471 0,0.17857 -0.20001,0.51267 -0.44447,0.74241 -0.24446,0.22973 -0.44446,0.51894 -0.44446,0.64269 0,0.25907 -1.76669,2.83967 -2.92598,4.27397 -0.2486,0.30758 -0.452,0.62992 -0.452,0.71635 0,0.0864 -0.14001,0.28584 -0.31113,0.44319 -0.17112,0.15733 -0.47113,0.50029 -0.6667,0.7621 -0.19557,0.26182 -0.49558,0.60885 -0.6667,0.77118 -0.17112,0.16233 -0.31113,0.35975 -0.31113,0.43871 0,0.23217 -1.85399,2.61286 -3.0224,3.88104 -1.02917,1.11703 -1.42231,1.60922 -1.42231,1.78064 0,0.0895 -0.10246,0.16274 -0.2277,0.16274 -0.12523,0 -0.318,0.23934 -0.42838,0.53183 -0.11179,0.29631 -0.40314,0.60886 -0.65784,0.70573 -0.30619,0.11646 -0.42265,0.26386 -0.35264,0.44636 0.0671,0.17506 0.003,0.27247 -0.18118,0.27247 -0.15715,0 -0.28571,0.0657 -0.28571,0.14614 0,0.18202 -3.12592,3.3401 -3.90432,3.9445 -0.31495,0.24455 -0.96634,0.82894 -1.44754,1.29864 -0.50539,0.49333 -0.96071,0.80096 -1.07807,0.7284 -0.11354,-0.0702 -0.15491,-0.0475 -0.0938,0.0514 0.10931,0.17693 -0.78093,0.94503 -1.09532,0.94503 -0.0915,0 -0.54257,0.35551 -1.0024,0.79003 -0.45983,0.43451 -1.06816,0.84101 -1.35184,0.90335 -0.28367,0.0623 -0.62548,0.27 -0.75955,0.4615 -0.23111,0.33008 -2.14356,1.58005 -2.41747,1.58005 -0.0708,0 -0.2735,0.16007 -0.45049,0.35571 -0.17698,0.19564 -0.41431,0.35571 -0.52739,0.35571 -0.11309,0 -0.36338,0.14705 -0.55621,0.32677 -0.19284,0.1797 -0.58795,0.38603 -0.87802,0.45849 -0.29008,0.0724 -0.67284,0.26285 -0.8506,0.42311 -0.37169,0.33515 -1.28141,0.90114 -2.43253,1.51341 -1.95742,1.04118 -4.05023,2.08027 -4.18977,2.08027 -0.0837,0 -0.7954,0.31397 -1.58145,0.6977 -1.32087,0.64484 -3.66366,1.50127 -4.71827,1.72483 -0.24445,0.0518 -0.60447,0.16237 -0.80004,0.24567 -0.19557,0.0833 -0.91561,0.24319 -1.60009,0.35532 -0.68449,0.11214 -1.40453,0.26609 -1.60009,0.34212 -1.17729,0.45772 -1.68084,0.585 -2.35569,0.59547 -0.41559,0.007 -0.7556,0.0681 -0.7556,0.137 0,0.0689 -0.35982,0.1325 -0.79959,0.14133 -0.43978,0.009 -0.93981,0.0871 -1.11118,0.17383 -0.17137,0.0868 -0.83161,0.10323 -1.46721,0.0365 -0.63559,-0.0667 -1.19562,-0.0632 -1.24451,0.008 -0.13285,0.19293 -4.677363,0.14689 -4.925832,-0.0499 -0.117941,-0.0934 -0.288866,-0.12386 -0.379815,-0.0676 -0.09096,0.0563 -0.773877,-0.002 -1.517596,-0.12945 -0.743722,-0.12742 -1.441217,-0.17664 -1.549993,-0.10939 -0.191353,0.1183 -0.903994,-0.0559 -1.704245,-0.41658 -0.213412,-0.0962 -0.51053,-0.12786 -0.660262,-0.0704 -0.149725,0.0575 -0.721686,-0.0126 -1.271022,-0.15573 -0.549336,-0.14314 -1.075766,-0.21266 -1.169846,-0.1545 -0.09409,0.0581 -0.267565,0.0263 -0.385507,-0.0708 -0.117948,-0.0971 -0.614475,-0.23388 -1.103389,-0.30399 -0.488921,-0.0701 -1.158725,-0.23767 -1.48846,-0.37235 -0.329742,-0.13469 -0.715477,-0.24489 -0.857192,-0.24489 -0.141722,0 -0.370556,-0.11292 -0.508529,-0.25096 -0.137972,-0.13801 -0.41346,-0.20841 -0.612197,-0.15642 -0.278586,0.0729 -0.336025,0.0285 -0.250794,-0.19368 0.122148,-0.31843 -0.192999,-0.40001 -0.379446,-0.0982 -0.06458,0.10449 -0.228061,0.14748 -0.363353,0.0956 -0.283027,-0.10866 -0.606989,0.40381 -0.606989,0.96017 0,0.58354 2.337185,3.85082 4.251724,5.94372 3.856898,4.21621 7.276246,7.03963 11.126937,9.18773 3.868796,2.15818 6.222786,2.84614 9.867226,2.8837 2.03371,0.021 2.30538,-0.0157 3.20048,-0.43019 1.38939,-0.64356 2.13316,-1.54135 2.13316,-2.5749 0,-0.44323 -0.0877,-0.98067 -0.19495,-1.19432 -0.42865,-0.85413 -1.3285,-2.07743 -1.5284,-2.07777 -0.11668,-1.7e-4 -0.32013,-0.15455 -0.45211,-0.34304 -0.17,-0.24282 -0.54884,-0.37767 -1.29964,-0.46265 -0.92568,-0.10477 -1.10063,-0.0747 -1.38348,0.23798 -0.26035,0.28779 -0.29982,0.51784 -0.20145,1.17407 0.0673,0.44887 0.19155,0.81613 0.27613,0.81613 0.14338,0 0.0451,0.32427 -0.43122,1.42284 -0.27011,0.62295 -0.99157,1.24497 -1.44402,1.24497 -0.20969,0 -0.4703,0.0891 -0.57911,0.19794 -0.10962,0.10966 -0.30029,0.1346 -0.42754,0.0559 -0.12633,-0.0781 -0.47053,-0.16838 -0.76489,-0.20062 -0.46692,-0.0512 -1.11924,-0.40894 -0.74556,-0.40894 0.0769,0 -0.50551,-0.47867 -1.29428,-1.06374 -2.242999,-1.6637 -3.308766,-3.35145 -3.10593,-4.91859 0.09614,-0.74282 0.244652,-0.99543 1.051065,-1.78787 1.153305,-1.13331 1.924625,-1.37935 3.902675,-1.24491 2.66969,0.18145 6.64908,1.82329 8.38143,3.45807 1.04475,0.98591 2.33481,2.91842 2.81909,4.22303 0.18155,0.48903 0.43585,0.99497 0.56512,1.12429 0.12927,0.12931 0.24505,0.42949 0.25727,0.66706 0.0122,0.23755 0.0344,0.69204 0.0493,1.00996 0.0321,0.6861 -0.39565,1.90881 -0.81346,2.32506 -0.16361,0.16301 -0.44362,0.48149 -0.62226,0.70776 -0.38336,0.48557 -3.02736,1.78323 -3.3674,1.65269 -0.12929,-0.0496 -0.28357,-0.0118 -0.34284,0.0842 -0.13224,0.21405 -3.81496,0.17776 -3.81496,-0.0376 0,-0.0838 -0.32002,-0.15238 -0.71115,-0.15238 -0.39113,0 -0.71115,-0.0754 -0.71115,-0.16765 0,-0.0922 -0.16646,-0.13558 -0.36991,-0.0964 -0.20345,0.0392 -0.50347,0.003 -0.66671,-0.0798 -0.16323,-0.0831 -0.75682,-0.28391 -1.31907,-0.44627 -0.56226,-0.16236 -1.02228,-0.37115 -1.02228,-0.46397 0,-0.0928 -0.23022,-0.16876 -0.51159,-0.16876 -0.28139,0 -0.61119,-0.12006 -0.73293,-0.26679 -0.12173,-0.14672 -0.345239,-0.26677 -0.496684,-0.26677 -0.151446,0 -0.401668,-0.1091 -0.556043,-0.24244 -0.154375,-0.13335 -0.680703,-0.38984 -1.169617,-0.56999 -0.488921,-0.18014 -0.98608,-0.46065 -1.104801,-0.62332 -0.118721,-0.16268 -0.471517,-0.34694 -0.783996,-0.40945 -0.312472,-0.0625 -0.519165,-0.16266 -0.459314,-0.22254 0.164178,-0.16423 -0.377894,-0.63944 -0.58403,-0.51199 -0.09853,0.0609 -0.179149,0.026 -0.179149,-0.0776 0,-0.10359 -0.140829,-0.18835 -0.31295,-0.18835 -0.172121,0 -0.532141,-0.20332 -0.800045,-0.45184 -0.267908,-0.2485 -0.488329,-0.38856 -0.489821,-0.31124 -0.0013,0.0773 -0.06148,0.0549 -0.133343,-0.0497 -0.198099,-0.28858 -2.134732,-1.67718 -2.33912,-1.67718 -0.09852,0 -0.255753,-0.14322 -0.349403,-0.31828 -0.09365,-0.17506 -0.396487,-0.43518 -0.672963,-0.57803 -0.890312,-0.46003 -2.205703,-1.40741 -3.323957,-2.39398 -0.110879,-0.0978 -0.601506,-0.49319 -1.090293,-0.87858 -0.488786,-0.3854 -1.328729,-1.12325 -1.866535,-1.6397 -0.537812,-0.51643 -1.252133,-1.16152 -1.587391,-1.43351 -0.999714,-0.81111 -2.288469,-2.01544 -3.621956,-3.38469 -1.284232,-1.31868 -1.605595,-1.49995 -1.793003,-1.01138 -0.05866,0.15292 -0.179304,0.23313 -0.268096,0.17825 -0.47954,-0.29649 -0.691717,5.61648 -0.221866,6.18282 0.149577,0.18029 0.160281,0.3026 0.03333,0.38107 -0.126939,0.0785 -0.129708,0.22244 -0.0086,0.44876 0.09805,0.18328 0.178269,0.61198 0.178269,0.95267 0,0.34068 0.173237,1.00623 0.38497,1.47899 0.211733,0.47275 0.401963,1.07123 0.422726,1.32997 0.08202,1.02186 2.17595,5.09489 3.64411,7.08837 1.747445,2.37271 3.736443,4.02496 5.859893,4.86777 1.188715,0.47179 1.537136,0.52855 3.210673,0.52298 1.983461,-0.007 2.384524,-0.12034 3.250015,-0.92168 0.944331,-0.87433 1.232125,-1.89563 0.831315,-2.95022 -0.150941,-0.39716 -0.261209,-0.45122 -0.799478,-0.39187 -0.343416,0.0379 -0.928957,0.27998 -1.301213,0.53805 -0.372256,0.25806 -0.802737,0.46922 -0.956635,0.46922 -0.153891,0 -0.368654,0.1071 -0.477249,0.238 -0.108594,0.13088 -0.516759,0.33369 -0.907031,0.45066 -1.215249,0.36423 -2.382165,-0.10139 -3.860815,-1.54057 -1.538681,-1.49762 -2.011932,-2.45543 -2.011932,-4.07202 0,-0.99167 0.07714,-1.30424 0.457305,-1.85302 1.023158,-1.47696 3.776969,-1.88223 5.914866,-0.87045 0.620086,0.29343 1.540133,0.87968 2.044562,1.30274 0.504423,0.42305 1.169665,0.94332 1.478314,1.15617 0.716259,0.49394 2.215705,2.52329 2.716674,3.67676 0.212418,0.4891 0.457829,1.04934 0.545345,1.24498 0.08752,0.19563 0.279351,0.72742 0.426288,1.18175 0.245969,0.76054 0.240848,0.89807 -0.06458,1.73407 -0.182476,0.49942 -0.295855,0.90804 -0.251956,0.90804 0.04388,0 -0.02265,0.18008 -0.147844,0.40017 -0.125218,0.22009 -0.228968,0.49706 -0.230561,0.6155 -0.0047,0.37461 -1.257959,1.38338 -2.504108,2.01613 -1.163187,0.59062 -1.268334,0.61033 -3.259637,0.61083 -1.827623,0 -2.206759,-0.0558 -3.391093,-0.50326 -0.733371,-0.27706 -1.53342,-0.54697 -1.777877,-0.59982 -0.244457,-0.0528 -0.564475,-0.18909 -0.711149,-0.30281 -0.146675,-0.11372 -0.486697,-0.31688 -0.7556,-0.45146 -0.268902,-0.13458 -0.488921,-0.35123 -0.488921,-0.48143 0,-0.13019 -0.131763,-0.23672 -0.292817,-0.23672 -0.161047,0 -0.63454,-0.28013 -1.0522,-0.6225 -0.41766,-0.34237 -0.839258,-0.62249 -0.936879,-0.62249 -0.09763,0 -0.204167,-0.0663 -0.236764,-0.1474 -0.03259,-0.0811 -0.619293,-0.61306 -1.303779,-1.1822 -0.68448,-0.56914 -1.545738,-1.36318 -1.913901,-1.76452 -1.211313,-1.32051 -3.526532,-4.89426 -4.425338,-6.83091 -0.485561,-1.04624 -1.017971,-2.16793 -1.183137,-2.49268 -0.277564,-0.54572 -0.303992,-0.55917 -0.349208,-0.17785 -0.06838,0.5768 -0.560276,2.30639 -0.761553,2.67779 -0.09205,0.16987 -0.167364,0.47 -0.167364,0.66695 0,0.19698 -0.08001,0.35812 -0.177792,0.35812 -0.09778,0 -0.177786,0.1877 -0.177786,0.41707 0,0.2294 -0.160005,0.56193 -0.355578,0.73899 -0.195565,0.17705 -0.355571,0.46957 -0.355571,0.65006 0,0.18046 -0.104926,0.32813 -0.233162,0.32813 -0.128236,0 -0.408252,0.16319 -0.622256,0.36265 -0.214005,0.19944 -0.389102,0.28345 -0.389102,0.18668 0,-0.0968 0.100007,-0.23995 0.222235,-0.31817 0.237099,-0.15174 0.338457,-0.94257 0.120811,-0.94257 -0.07131,0 -0.706406,0.9404 -1.41132,2.08979 -1.428366,2.32899 -1.38776,2.27099 -1.506609,2.1521 -0.09903,-0.0991 0.08133,-0.7217 0.610484,-2.10764 0.67559,-1.76949 0.9548,-3.38046 0.971008,-5.6024 0.0085,-1.17384 -0.04563,-2.35312 -0.120488,-2.62065 -0.135701,-0.48513 -0.136951,-0.48548 -0.488921,-0.13338 -0.194074,0.19416 -0.352863,0.43303 -0.352863,0.53085 0,0.0978 -0.08001,0.17786 -0.177793,0.17786 -0.09778,0 -0.177786,0.0866 -0.177786,0.19238 0,0.19545 -0.920906,1.38532 -1.838319,2.37524 -0.277699,0.29965 -0.637725,0.7449 -0.800049,0.98945 -0.162324,0.24456 -0.931107,1.20497 -1.708411,2.13425 -0.777303,0.92929 -1.474281,1.76965 -1.548835,1.86747 -0.07457,0.0978 -0.638659,0.7661 -1.253544,1.48508 -0.614892,0.719 -1.20081,1.45015 -1.30204,1.62484 -0.10123,0.17467 -0.501251,0.65473 -0.888935,1.06678 -1.093989,1.16276 -1.413113,1.5434 -1.451381,1.73118 -0.03595,0.1764 -2.05686,2.37823 -2.935783,3.19861 -0.125984,0.1176 -0.313386,0.31769 -0.41645,0.44464 -0.590621,0.72753 -3.903296,4.33533 -5.08898,5.54235 -0.764872,0.77863 -1.390677,1.52277 -1.390677,1.65364 0,0.13086 -0.119386,0.23793 -0.265308,0.23793 -0.145921,0 -0.485937,0.24895 -0.755599,0.55322 -0.898188,1.01346 -3.307642,3.35957 -3.450285,3.35957 -0.07735,0 -0.318096,0.2401 -0.534983,0.53356 -0.21688,0.29345 -0.491004,0.53356 -0.60916,0.53356 -0.118157,0 -0.448248,0.26012 -0.733533,0.57803 -0.512499,0.5711 -1.53506,1.37836 -1.745979,1.37836 -0.0598,0 -0.215563,0.10005 -0.346057,0.22232 -1.826728,1.71165 -3.026005,2.73917 -3.826464,3.27843 -0.244457,0.1647 -0.976431,0.74497 -1.626607,1.28948 -1.045185,0.87533 -2.289094,1.80005 -4.615649,3.43122 l -0.691474,0.4848 z m 84.004818,-57.48481 c 1.5844,-0.3329 3.93839,-1.03262 5.42253,-1.61178 1.35551,-0.529 5.44658,-2.24372 6.53176,-2.73774 1.8898,-0.86032 1.40656,-0.1751 -1.03477,1.46728 -1.61306,1.08515 -2.03012,1.45054 -2.03012,1.77853 0,0.36996 0.0738,0.4085 0.71114,0.37125 0.89303,-0.0522 2.18785,-0.46694 3.52093,-1.12787 1.09204,-0.54144 5.83979,-3.34035 5.99073,-3.53168 0.0489,-0.062 0.52892,-0.42855 1.06673,-0.81459 0.53781,-0.38606 1.07983,-0.79985 1.20448,-0.91958 0.12465,-0.11972 0.60377,-0.52152 1.0647,-0.89291 1.56661,-1.26227 1.8992,-1.90484 0.88655,-1.71286 -0.31779,0.0602 -0.71296,0.17849 -0.87815,0.26281 -0.17491,0.0893 -0.34325,0.0838 -0.40309,-0.013 -0.0565,-0.0915 0.95867,-0.6801 2.256,-1.30801 3.14783,-1.52357 4.08444,-2.5527 2.1288,-2.33908 -0.96958,0.10591 -1.02322,0.15806 1.35958,-1.32181 1.95969,-1.21707 2.1624,-1.40028 1.80389,-1.6303 -0.28765,-0.18455 -0.57889,-0.14632 -2.75571,0.36183 -3.64013,0.84973 -3.40974,0.59634 0.71115,-0.78215 3.15026,-1.05378 4.36696,-1.7005 5.03547,-2.67649 0.50439,-0.73639 0.51029,-1.45817 0.0132,-1.616 -0.96369,-0.30598 -1.2889,-0.22123 -9.27798,2.4175 -2.03277,0.67142 -3.99288,1.26209 -4.35581,1.31262 -0.40895,0.0569 -0.52466,0.0395 -0.3043,-0.0458 0.19557,-0.0757 0.74223,-0.3141 1.21481,-0.52973 0.47258,-0.21564 0.8984,-0.39207 0.94626,-0.39207 0.1953,0 6.99021,-2.71058 8.06174,-3.21594 3.43282,-1.61899 4.51471,-2.46214 4.20277,-3.27534 -0.21076,-0.54942 -2.47917,-0.15088 -6.51401,1.14449 -2.14348,0.68815 -4.57583,1.30136 -4.82819,1.2172 -0.26367,-0.0879 0.24974,-0.30166 6.11715,-2.54669 1.96699,-0.75261 1.60466,-0.58361 7.24486,-3.37932 2.49347,-1.23594 4.6736,-2.37269 4.84472,-2.52609 0.43019,-0.38566 0.389,-0.72949 -0.11491,-0.95917 -0.35965,-0.16393 -0.843,-0.0371 -3.10185,0.81381 -3.87873,1.46114 -4.62333,1.48401 -1.71685,0.0528 6.08438,-2.9962 9.01237,-4.82767 10.11049,-6.32415 0.69181,-0.9428 1.53462,-2.74324 1.53462,-3.27835 0,-0.32575 -0.078,-0.34613 -0.9045,-0.23645 -1.01043,0.13408 -1.04981,-0.0653 -0.10651,-0.53924 0.67421,-0.33874 2.25552,-1.83387 2.25552,-2.13259 0,-0.39793 -0.48141,-0.39259 -1.48752,0.0165 -0.55489,0.22561 -1.22724,0.4637 -1.49411,0.52908 -0.46717,0.11445 -0.46244,0.10189 0.12712,-0.33735 0.33679,-0.25094 0.65855,-0.45623 0.71502,-0.45623 0.0564,0 0.48095,-0.34742 0.9433,-0.77207 0.80518,-0.7395 1.08929,-1.36442 0.61838,-1.36017 -0.12223,0.002 -1.28242,0.47346 -2.5782,1.04969 -1.29578,0.57623 -2.39338,0.98711 -2.43913,0.91307 -0.0458,-0.074 0.3344,-0.42372 0.84477,-0.77705 1.1674,-0.80823 2.43913,-2.04091 2.43913,-2.36424 0,-0.41738 -0.50854,-0.27614 -1.5654,0.4348 -1.50442,1.01199 -3.94943,2.35128 -7.19086,3.93891 -1.58887,0.7782 -3.36888,1.68408 -3.95558,2.01304 -4.50015,2.52323 -5.9872,3.29328 -8.65398,4.48132 -2.84258,1.26633 -3.59281,1.49327 -2.98055,0.90157 0.14086,-0.13613 1.85619,-1.08347 3.81186,-2.10519 1.95567,-1.02171 4.83583,-2.61605 6.40037,-3.54295 1.56453,-0.92692 4.12467,-2.38806 5.68921,-3.24699 3.15155,-1.73022 5.69384,-3.40003 6.69652,-4.39837 1.34064,-1.33485 1.52061,-2.06499 0.45652,-1.8521 -0.61127,0.1223 -2.64003,1.08581 -5.08667,2.41578 -0.91696,0.49845 -1.74642,0.87984 -1.84326,0.84755 -0.0968,-0.0323 0.73339,-0.75428 1.84497,-1.60442 3.2752,-2.5049 3.71566,-2.88146 4.43959,-3.79541 0.69257,-0.87436 0.88341,-1.57212 0.47051,-1.72023 -0.33745,-0.12104 -2.17957,0.61589 -3.84408,1.53781 -0.81861,0.4534 -1.51253,0.82437 -1.54205,0.82437 -0.0295,0 -1.59986,0.93182 -3.48967,2.07072 -1.88981,1.1389 -3.91605,2.28971 -4.50274,2.55736 -0.58671,0.26764 -2.33843,1.09828 -3.89271,1.84587 -1.55428,0.74759 -2.8631,1.32211 -2.90847,1.27672 -0.10576,-0.10578 1.20963,-0.94188 4.22299,-2.68424 5.7517,-3.32567 12.95674,-8.86917 12.76485,-9.82115 -0.0489,-0.24281 -0.20273,-0.30018 -0.67744,-0.25271 -0.7968,0.0797 -0.88463,0.12659 -6.25501,3.34053 -6.50594,3.89351 -6.52579,3.56032 -0.054,-0.90705 8.4597,-5.83965 14.46764,-11.04714 14.94166,-12.95097 0.1574,-0.63231 -0.3115,-1.19349 -0.9971,-1.19349 -0.50181,0 -1.93294,0.5758 -5.03293,2.02495 -1.9324,0.90333 -1.889,0.88819 -1.889,0.6592 0,-0.0888 0.70004,-0.62083 1.55564,-1.18222 3.4205,-2.2443 6.6226,-5.00414 6.6226,-5.70791 0,-1.28204 -2.35853,-0.12359 -9.38733,4.6108 -2.41802,1.62871 -3.30582,1.99465 -1.60532,0.6617 2.57518,-2.01857 3.61048,-3.00418 3.76116,-3.5806 0.13402,-0.51268 -0.47346,-0.91928 -1.15104,-0.77041 -0.58039,0.12753 -2.95307,1.52857 -5.8405,3.44875 -1.93367,1.28592 -2.84461,1.84261 -2.84461,1.73839 0,-0.0455 0.60814,-0.67231 1.35142,-1.39287 3.13889,-3.04296 3.14542,-4.32818 0.0134,-2.63817 -0.71792,0.38739 -2.29876,1.05506 -3.51297,1.48372 -1.21422,0.42867 -2.48768,0.89604 -2.82992,1.03862 -0.34224,0.14258 -0.84898,0.31556 -1.12608,0.3844 -0.83587,0.20767 -0.38362,-0.19629 1.00026,-0.89346 1.90341,-0.95891 3.37169,-1.98373 5.63788,-3.93512 2.21705,-1.90908 3.19954,-2.93182 3.19954,-3.33065 0,-0.31428 -0.54772,-0.62255 -1.10614,-0.62255 -0.42164,0 -4.05026,1.18417 -7.33879,2.39497 -0.97783,0.36002 -2.29791,0.84292 -2.9335,1.07311 -0.63559,0.23019 -1.71135,0.62594 -2.39058,0.87944 -2.71367,1.0128 -1.36348,0.15651 2.39058,-1.5161 1.74784,-0.77874 6.83058,-3.3747 8.57964,-4.38196 2.01,-1.15753 2.36705,-1.85692 1.05661,-2.06965 -0.70044,-0.11371 -1.64017,0.11208 -4.12482,0.99107 -4.77915,1.6907 -5.57881,1.92148 -7.55721,2.18092 -2.33476,0.30617 -3.60101,0.34426 -3.02118,0.0909 0.19557,-0.0855 1.39564,-0.43258 2.66682,-0.77138 2.69427,-0.71808 6.86648,-2.31108 7.5154,-2.86948 0.3434,-0.29548 0.42358,-0.49255 0.33846,-0.83184 -0.1546,-0.61622 -0.8075,-0.86084 -2.30635,-0.86413 -2.15206,-0.005 -5.41609,-0.33326 -7.1253,-0.71717 -0.89231,-0.20042 -1.8024,-0.40206 -2.02241,-0.44809 -0.83141,-0.17393 -0.35547,-0.4327 0.80005,-0.43499 1.63147,-0.003 3.7556,-0.75963 5.61991,-2.00122 2.0892,-1.39136 5.05185,-3.98459 6.16931,-5.40003 0.53073,-0.67226 1.61119,-1.9426 2.40102,-2.82297 1.30448,-1.45405 3.39175,-4.15972 4.25332,-5.51348 0.56452,-0.88701 3.00493,-5.42349 3.68357,-6.84738 2.98193,-6.25657 3.88168,-9.45431 4.679,-16.62934 0.49842,-4.48521 -0.0877,-9.6166 -1.77766,-15.56222 -0.12512,-0.440188 -0.44368,-1.560667 -0.70792,-2.489954 -0.26423,-0.929287 -0.70031,-2.489956 -0.96907,-3.468153 -0.26875,-0.978196 -1.2186,-3.939464 -2.11078,-6.580595 -0.89218,-2.641131 -1.99518,-6.082605 -2.45112,-7.647719 -0.45593,-1.565115 -1.18075,-4.046178 -1.61069,-5.513472 -0.42995,-1.467295 -0.89488,-3.148015 -1.03318,-3.734933 -0.1383,-0.586918 -0.37943,-1.587346 -0.53585,-2.223174 -0.15642,-0.635828 -0.36039,-1.676274 -0.45328,-2.312101 -0.22115,-1.513866 -0.69561,-4.899718 -0.92214,-6.580596 -0.0989,-0.733648 -0.19189,-3.49483 -0.2067,-6.135961 -0.0264,-4.708564 0.10144,-6.650992 0.81954,-12.449776 0.12113,-0.978197 0.22024,-2.805517 0.22024,-4.060715 0,-2.591586 -0.0965,-2.786661 -1.37934,-2.786661 -0.61371,0 -0.80515,0.121644 -1.74934,1.111586 -0.88173,0.924461 -1.32555,1.650515 -2.63639,4.312959 -1.69586,3.44444 -2.26944,4.908587 -2.76956,7.069693 -0.17544,0.758103 -0.38488,1.378368 -0.46543,1.378368 -0.0805,0 -0.1286,-0.77784 -0.10678,-1.728535 0.0344,-1.498388 -3.5e-4,-1.736644 -0.26025,-1.789419 -0.44696,-0.09073 -0.82256,0.61864 -1.33676,2.524697 -0.25293,0.937571 -0.52818,1.704674 -0.61167,1.704674 -0.0835,0 -0.1518,-0.388229 -0.1518,-0.862731 0,-0.944139 -0.27021,-1.930151 -0.63669,-2.323363 -0.1919,-0.205898 -0.28428,-0.210097 -0.50945,-0.02315 -0.39454,0.327558 -0.71943,1.538676 -1.60047,5.965981 -1.02996,5.175741 -1.34418,6.51163 -1.50784,6.410445 -0.0749,-0.0463 -0.0981,-1.073484 -0.0515,-2.282633 0.0936,-2.429927 -0.0559,-3.034067 -0.72692,-2.93809 -0.60575,0.08664 -0.79813,0.752872 -1.09672,3.79805 -0.51027,5.204036 -0.81877,7.804924 -1.09608,9.240543 -0.35354,1.830292 -0.6823,2.214874 -0.53214,0.622489 0.24677,-2.616866 0.49662,-8.342691 0.40754,-9.339523 -0.11739,-1.313656 -0.23782,-1.644497 -0.6859,-1.884391 -0.76305,-0.408523 -1.72623,1.21178 -2.18179,3.67029 -0.26337,1.421311 -0.46737,2.458886 -1.21413,6.175256 -0.11302,0.562463 -0.27297,1.02266 -0.35543,1.02266 -0.0825,0 -0.12544,-0.995027 -0.0955,-2.211172 0.03,-1.216144 -0.008,-2.273767 -0.0846,-2.350274 -0.49361,-0.493783 -1.34759,1.449437 -1.82938,4.162684 -0.46898,2.64112 -0.61304,2.487724 -0.54418,-0.579434 0.0649,-2.892451 -0.0539,-3.844233 -0.54939,-4.401885 -0.48619,-0.547157 -0.87289,-0.344879 -2.04006,1.067124 -1.28989,1.560462 -4.90899,6.369091 -6.36754,8.460415 -0.53346,0.764898 -1.43808,2.00543 -2.01027,2.756736 -1.62239,2.13026 -2.42123,3.925606 -3.19671,7.184374 -0.57855,2.431242 -0.78095,4.138621 -1.00749,8.498882 -0.21381,4.115899 -0.33032,5.164732 -0.53178,4.787518 -0.0741,-0.138701 -0.18878,-0.852441 -0.25492,-1.586089 -0.27456,-3.046102 -0.59799,-4.090641 -1.26664,-4.090641 -0.65203,0 -0.75816,0.675335 -0.96423,6.135962 -0.23232,6.156171 -0.34188,7.534427 -0.5424,6.823184 -0.0727,-0.257852 -0.22665,-1.458367 -0.342135,-2.667808 -0.268426,-2.81116 -0.705915,-5.515166 -0.938485,-5.800525 -0.363877,-0.446471 -0.803833,-0.237637 -1.124066,0.533561 -0.275642,0.663808 -0.322646,1.557448 -0.38587,7.336475 -0.03958,3.619328 -0.118875,6.700647 -0.176166,6.847377 -0.125528,0.321494 -0.26645,-0.382043 -0.855015,-4.268495 -0.496064,-3.275701 -0.68618,-3.912786 -1.167608,-3.912786 -0.634372,0 -0.733875,0.631576 -0.831651,5.279048 -0.05221,2.483085 -0.157164,4.553143 -0.233162,4.600133 -0.152409,0.0942 -0.370727,-0.88879 -0.784294,-3.531393 -0.309906,-1.980233 -0.660733,-2.968564 -1.053753,-2.968564 -0.148226,0 -0.350464,0.151347 -0.44943,0.336326 -0.23003,0.429981 -0.539572,3.117891 -0.544995,4.732512 -0.0027,0.860199 -0.05671,1.162529 -0.174056,0.978199 -0.189263,-0.29722 -0.215805,-0.4853 -0.646663,-4.582655 -0.323895,-3.080115 -0.491951,-3.529187 -1.094963,-2.92595 -0.262848,0.262948 -0.389915,0.803851 -0.556378,2.368467 -0.492899,4.632728 -0.573708,5.294858 -0.705895,5.783848 -0.09116,0.33726 -0.17493,-0.4233 -0.245109,-2.225635 -0.110362,-2.834153 -0.275024,-3.407814 -0.908395,-3.164677 -0.717909,0.27559 -1.074099,1.728342 -1.342202,5.474232 -0.292818,4.09128 -0.603113,6.77672 -0.752233,6.51016 -0.07537,-0.13471 -0.229681,-1.35794 -0.342932,-2.71827 -0.113251,-1.36035 -0.274426,-2.65362 -0.358165,-2.87395 -0.168761,-0.44404 -0.719851,-0.53175 -1.025584,-0.16323 -0.649168,0.78249 -0.964423,6.57907 -0.570261,10.48534 0.09092,0.90098 0.209919,2.59856 0.264461,3.77239 0.08865,1.90797 0.07312,2.07768 -0.146479,1.60069 -0.135103,-0.29346 -0.416,-1.65405 -0.624212,-3.02352 -0.493813,-3.24789 -1.017857,-5.06884 -1.458746,-5.06884 -0.8946,0 -1.266829,1.88534 -1.281686,6.49167 -0.02768,8.57829 1.450172,17.61237 3.950111,24.14723 0.403032,1.05353 0.829434,2.07033 0.94757,2.25956 0.11813,0.18923 0.157809,0.40105 0.08817,0.47072 -0.06963,0.0697 -0.15041,0.0933 -0.179506,0.0526 -0.0291,-0.0407 -0.73583,-0.95449 -1.570525,-2.0305 -3.744272,-4.82678 -5.587927,-8.35489 -7.853421,-15.02871 -0.24904,-0.73365 -0.977976,-2.61446 -1.619854,-4.17957 -0.641878,-1.56512 -1.16787,-2.94289 -1.168878,-3.06173 -0.0013,-0.11883 -0.16438,-0.30309 -0.363071,-0.40946 -0.326522,-0.17482 -0.400847,-0.10275 -0.77315,0.74962 -0.462191,1.05816 -1.061561,3.33926 -1.36937,5.21152 -0.513225,3.12177 -0.464098,12.90175 0.08643,17.20755 0.153199,1.1982 0.401849,3.21898 0.552548,4.49064 0.331193,2.79466 0.817977,5.03563 1.950993,8.98162 0.592099,2.06214 1.020154,3.50654 1.159558,3.91279 0.08392,0.24454 0.488585,1.52509 0.899263,2.84566 0.410679,1.32056 1.200145,3.56152 1.754359,4.97991 0.554222,1.41838 1.178178,3.05909 1.386565,3.64601 0.676497,1.90534 2.12142,5.30533 2.796607,6.58059 1.637842,3.09348 1.917872,3.66096 1.843299,3.73557 -0.175461,0.17552 -4.663398,-3.3924 -7.170144,-5.70028 -2.792643,-2.57111 -3.858181,-3.75949 -6.530786,-7.28369 -0.890192,-1.17384 -2.394308,-3.13468 -3.34249,-4.35743 -0.948181,-1.22274 -2.461342,-3.50372 -3.362574,-5.06883 -2.408755,-4.18313 -2.789834,-4.60908 -3.406117,-3.80716 -0.448832,0.58402 -0.422854,0.92255 0.211464,2.75603 1.028642,2.97327 2.700061,6.04966 6.161762,11.34124 1.014745,1.55114 1.811213,2.85404 1.769935,2.89533 -0.138819,0.13888 -3.663234,-4.37483 -6.079804,-7.78637 -2.751257,-3.88403 -5.229452,-7.04319 -5.601331,-7.14048 -0.41627,-0.1089 -0.887928,0.45039 -0.887928,1.05288 0,1.01399 3.192987,7.38717 5.067545,10.11479 0.605041,0.88037 2.327563,3.43947 3.827829,5.68688 2.482146,3.71828 6.128426,8.71236 8.703503,11.92065 3.100022,3.86233 4.065661,5.34099 2.032568,3.11244 -2.297654,-2.51853 -4.4231,-4.95719 -5.672149,-6.50797 C 59.045269,171.7425 56.661322,169.04626 55.657268,168.85837 l -0.577814,-0.10812 v 0.76007 c 0,1.18691 1.840678,4.41819 6.127076,10.75597 2.884445,4.26488 2.896144,4.28329 2.608715,4.10559 -0.114702,-0.0709 -1.589945,-1.82403 -3.278324,-3.8958 -3.493196,-4.28644 -3.731283,-4.57906 -5.184149,-6.37167 -2.217127,-2.73559 -3.967367,-4.59828 -4.320681,-4.59828 -0.430797,0 -0.156041,1.56196 0.505727,2.87506 1.076719,2.13645 4.056723,6.64604 5.857003,8.86329 0.992793,1.22275 2.178053,2.69346 2.633914,3.26824 0.455854,0.57478 0.968837,1.20728 1.139957,1.40557 0.17112,0.19829 0.311129,0.4406 0.311129,0.53845 0,0.20023 -0.488767,-0.29753 -2.66682,-2.71583 -3.682122,-4.0883 -6.285294,-6.76492 -6.579294,-6.76492 -0.689593,0 -0.54515,1.0562 0.401076,2.93277 1.616938,3.20674 6.655474,9.4888 11.898822,14.83551 3.727358,3.80083 4.559177,4.73254 4.382742,4.90904 -0.08168,0.0817 -10.519628,-10.40356 -14.304916,-14.36976 -2.031318,-2.12842 -3.028472,-2.87392 -3.567339,-2.66707 -0.320005,0.12285 -0.290029,1.02024 0.05698,1.70481 0.581503,1.14732 2.85668,4.19616 5.13638,6.88302 2.763829,3.25744 5.597978,6.88424 5.597978,7.16361 0,0.10899 -0.297319,-0.0776 -0.660712,-0.41473 -2.481824,-2.30227 -3.61529,-3.37731 -5.759134,-5.46222 -1.73084,-1.68324 -2.508688,-2.32761 -2.714474,-2.24861 -0.98567,0.37839 0.755754,3.15281 6.163845,9.82021 0.579715,0.7147 1.01785,1.33565 0.973635,1.37988 -0.04422,0.0442 -1.097772,-0.80063 -2.341237,-1.87748 -2.172859,-1.88173 -2.625226,-2.16386 -2.86006,-1.78375 -0.234015,0.37879 1.195548,2.27223 4.086854,5.41296 0.09778,0.10624 0.894405,1.0335 1.77027,2.0606 0.875873,1.02709 2.035942,2.34972 2.577927,2.93916 1.947767,2.1183 2.35342,2.599 2.266536,2.68592 -0.04852,0.0485 -1.741236,-1.25727 -3.761568,-2.90181 -4.477393,-3.64457 -4.848843,-3.91046 -5.104972,-3.65423 -0.655942,0.65618 1.022419,2.40703 8.143705,8.49543 4.080215,3.48841 7.201907,6.22432 8.552905,7.49594 0.122484,0.11528 0.222699,0.25815 0.222699,0.3175 0,0.18504 -0.702904,-0.25601 -2.561745,-1.60746 -0.986732,-0.71739 -2.111093,-1.52812 -2.498582,-1.80162 -3.048732,-2.15184 -10.459684,-7.85724 -11.907497,-9.16707 -0.423842,-0.38346 -0.964571,-0.40396 -1.103477,-0.0418 -0.05698,0.14847 -0.0013,0.52863 0.123653,0.8448 0.426671,1.07941 3.0007,4.79889 4.582588,6.62185 0.532329,0.61346 4.840639,5.22595 5.510645,5.89971 0.12921,0.12994 0.154926,0.23626 0.05712,0.23626 -0.09778,0 -0.283511,-0.10373 -0.412721,-0.2305 -0.129217,-0.12678 -0.920752,-0.78706 -1.758975,-1.46729 -0.838223,-0.68024 -2.137528,-1.74154 -2.887348,-2.35842 -1.789892,-1.47257 -5.076865,-3.76937 -5.394397,-3.76937 -0.747542,0 -0.381213,1.07894 0.903114,2.6599 3.399014,4.18403 8.921472,8.67972 14.591881,11.87884 1.843876,1.04029 2.390471,1.24394 2.421206,0.90208 0.04764,-0.53022 -0.09728,-0.78062 -1.200789,-2.0744 -0.634991,-0.74448 -1.067339,-1.38267 -0.960781,-1.4182 0.106565,-0.0356 0.588666,0.14196 1.071331,0.39442 2.119022,1.10842 4.333851,1.60458 5.365092,1.20187 0.749082,-0.29254 7.621173,-8.65527 7.611323,-9.26231 -0.007,-0.42922 -1.068979,-2.00371 -2.235707,-3.31455 -1.586868,-1.78286 -1.675996,-2.0649 -0.369703,-1.16983 1.733482,1.18776 3.321115,1.65888 3.321115,0.98552 0,-0.60203 -1.27885,-2.0997 -3.060907,-3.58469 -0.671565,-0.55962 -1.134877,-1.04623 -1.029569,-1.08134 0.105302,-0.0351 0.688713,0.2581 1.296476,0.65158 1.245421,0.80635 3.81144,1.75566 4.269867,1.57967 0.406069,-0.15587 0.38122,-0.76125 -0.05644,-1.37616 -0.197165,-0.27701 -1.017211,-1.04812 -1.822327,-1.71361 -1.493896,-1.2348 -5.727646,-4.84721 -6.530792,-5.57234 l -0.444471,-0.40129 0.42317,0.13007 c 0.232738,0.0715 1.152791,0.61784 2.044555,1.21402 2.193562,1.46648 4.601753,2.71423 5.88272,3.04801 2.035121,0.53028 4.317831,0.25403 5.828775,-0.70537 0.570133,-0.36202 1.036832,-0.94285 1.90627,-2.3725 l 1.151307,-1.89311 -0.03434,-1.62875 c -0.04173,-1.98081 -0.595963,-3.54354 -1.766665,-4.98139 -0.422572,-0.51899 -0.768313,-0.98478 -0.768313,-1.03507 0,-0.28001 0.477491,0.0255 1.527281,0.97724 1.67273,1.51645 2.629237,1.66675 2.182401,0.34293 -0.284627,-0.84325 -1.465264,-2.51156 -3.690343,-5.21468 -1.037363,-1.26022 -2.072529,-2.52153 -2.300376,-2.80292 -0.227846,-0.2814 -0.386226,-0.59576 -0.351956,-0.69861 0.03427,-0.10284 1.020732,0.79293 2.192144,1.99058 4.069043,4.16022 5.066559,4.97089 5.061506,4.11351 -0.0034,-0.54455 -2.444577,-4.30214 -5.691067,-8.75931 -1.956449,-2.68605 -4.389455,-6.40273 -4.191336,-6.40273 0.03447,0 0.412412,0.45911 0.839876,1.02026 2.713668,3.56225 6.254185,7.8055 8.018711,9.61027 1.805084,1.84627 2.625742,2.13089 2.625742,0.91063 0,-0.69305 -0.308723,-1.27544 -1.889717,-3.56488 -0.719589,-1.04205 -1.362636,-2.03617 -1.429005,-2.20918 -0.06639,-0.17301 0.620852,0.2994 1.527144,1.0498 0.906298,0.7504 1.714767,1.36437 1.796604,1.36437 0.08184,0 0.200142,-0.16183 0.262903,-0.35963 0.153783,-0.48471 -1.031793,-2.68432 -5.93785,-11.0166 -1.488695,-2.52834 -1.745126,-3.02993 -1.549002,-3.02993 0.0387,0 0.618749,0.7759 1.288963,1.72423 1.506592,2.13177 2.939427,3.70356 3.579692,3.92684 0.272652,0.0951 0.660229,0.10452 0.884433,0.0216 1.038082,-0.38416 0.184035,-2.25609 -4.836912,-10.60166 -0.365691,-0.60784 -0.631658,-1.20493 -0.591024,-1.32687 0.04065,-0.12194 0.775643,0.84629 1.63336,2.15161 1.874265,2.85236 3.366716,4.90768 4.045766,5.57158 0.933157,0.91234 2.103581,0.46182 2.103581,-0.80973 0,-0.58626 -1.949172,-4.52674 -9.440842,-19.08574 -1.163456,-2.26102 -2.115374,-4.21966 -2.115374,-4.35253 0,-0.38201 0.326026,0.16444 2.714985,4.55068 2.747367,5.04427 3.13037,5.71113 4.749787,8.27021 2.534619,4.00532 3.568817,5.33561 4.147964,5.33561 0.29081,0 0.33067,-0.0919 0.25153,-0.57977 -0.1074,-0.66212 -0.652851,-1.79987 -3.585253,-7.47857 -1.15214,-2.23115 -2.059003,-4.09243 -2.015259,-4.13619 0.145882,-0.14594 0.606258,0.52368 2.270091,3.30184 2.824897,4.71682 5.591801,8.37941 6.803931,9.00646 0.47444,0.24543 0.55776,0.24574 0.80052,0.003 0.23253,-0.23261 0.23886,-0.38576 0.0447,-1.07961 -0.18375,-0.65655 -2.39461,-4.81325 -4.00189,-7.52408 -0.3933,-0.66332 -0.22182,-1.02665 0.20011,-0.42403 0.72818,1.04001 2.42992,3.04995 3.07879,3.63637 0.81487,0.73647 1.23163,0.80875 1.69701,0.29431 0.28695,-0.3172 0.2976,-0.43888 0.0972,-1.11159 -0.37448,-1.25709 -1.65316,-3.69608 -3.06207,-5.84071 -1.21019,-1.84213 -5.836083,-10.56468 -5.836083,-11.00447 0,-0.51939 0.45328,0.0135 1.621177,1.90594 1.733036,2.80818 3.114786,4.66412 3.491506,4.68974 0.92217,0.0627 1.35941,-0.35665 1.18762,-1.13909 -0.10292,-0.46876 -1.04384,-2.53321 -3.09765,-6.79648 -0.471253,-0.9782 -1.393725,-3.05909 -2.049956,-4.62421 -0.656231,-1.56511 -1.336215,-3.16579 -1.511071,-3.55708 -1.067863,-2.3895 -1.235334,-2.82145 -1.13104,-2.91721 0.0637,-0.0585 0.148837,-0.0143 0.189229,0.0982 0.266994,0.74355 3.257621,6.39243 4.31722,8.15463 1.631838,2.71387 2.000248,3.11244 2.876978,3.11244 0.70065,0 1.03972,-0.33255 1.03972,-1.01972 0,-0.18243 -0.74837,-1.84841 -1.66304,-3.70217 -0.91466,-1.85375 -1.87163,-3.97072 -2.1266,-4.70436 -0.254965,-0.73365 -0.83378,-2.37435 -1.286247,-3.64601 -0.452474,-1.27166 -0.902179,-2.55221 -0.999344,-2.84567 -0.09717,-0.29345 -0.242535,-0.69362 -0.323049,-0.88927 -0.577357,-1.40289 -1.016694,-2.90903 -0.902482,-3.0939 0.09256,-0.14981 0.196708,-0.0599 0.325186,0.2807 2.679936,7.10464 6.067126,14.09052 8.643766,17.82731 1.04487,1.51532 1.38563,1.79403 1.84312,1.50747 0.72606,-0.45478 0.50643,-1.30947 -1.34548,-5.23593 -0.48652,-1.03154 -1.06107,-2.47216 -1.27676,-3.20137 -0.21569,-0.7292 -0.62755,-2.03806 -0.91523,-2.90857 -0.6912,-2.09152 -0.57404,-2.5058 0.20552,-0.72672 2.70238,6.16728 4.87022,9.62921 5.93458,9.47722 0.59054,-0.0843 0.55964,-1.32109 -0.14811,-5.92646 -0.34544,-2.24783 -0.75145,-4.92732 -0.90223,-5.95443 -0.15078,-1.0271 -0.34744,-2.30765 -0.43704,-2.84566 -0.0896,-0.53801 -0.21259,-1.53843 -0.27332,-2.22317 -0.0607,-0.68474 -0.2336,-2.36546 -0.38416,-3.73493 -0.19164,-1.74312 -0.28134,-4.51708 -0.29908,-9.24841 -0.0217,-5.78622 0.0208,-7.02709 0.29553,-8.62592 0.17648,-1.0271 0.56459,-3.308079 0.86245,-5.068833 0.82216,-4.859918 2.82215,-12.43726 3.52076,-13.339046 0.0758,-0.09782 0.31348,-0.658059 0.52822,-1.244977 1.07219,-2.930528 3.41781,-6.434032 5.54508,-8.282336 1.61404,-1.402375 2.12234,-1.726882 3.76569,-2.404107 1.45399,-0.59919 1.46562,-0.600782 4.4125,-0.604027 6.1337,-0.0068 10.17937,1.404962 13.15444,4.590182 1.41246,1.51224 3.51187,4.28372 3.93653,5.19671 0.16135,0.346869 0.58009,1.107019 0.93054,1.689224 0.35046,0.582203 0.72992,1.378864 0.84326,1.770356 0.11335,0.391494 0.31462,0.88393 0.44728,1.094303 0.47463,0.752658 1.45601,3.586544 1.90006,5.486684 0.16001,0.684737 0.40489,1.725183 0.54416,2.312101 0.97905,4.125993 1.16026,5.371294 1.24227,8.536986 0.0793,3.06134 -0.0509,4.81379 -0.60236,8.11067 -0.21102,1.2615 -1.53291,5.27024 -2.42782,7.36263 -1.12531,2.63106 -1.86878,3.74344 -3.80672,5.6957 -1.6398,1.6519 -2.0144,1.93002 -3.88733,2.8862 -2.88856,1.47468 -4.58749,1.8785 -7.30891,1.73727 -5.20142,-0.26992 -8.79698,-2.31353 -11.28583,-6.41453 -1.51988,-2.50438 -2.05902,-4.45507 -2.05324,-7.42889 0.009,-4.7689 0.99444,-7.27696 4.32349,-11.00682 2.25483,-2.52632 3.36122,-3.178712 6.27382,-3.699416 1.40364,-0.250938 2.94297,-0.07642 4.07785,0.462313 1.38597,0.657933 2.98409,2.750763 3.37057,4.413943 0.34462,1.48304 -0.13404,3.62302 -1.17694,5.26187 -1.74375,2.74019 -2.49614,4.29541 -2.76374,5.71276 -0.23378,1.23817 -0.24598,1.70097 -0.0721,2.7353 0.26736,1.59068 0.47982,2.1498 1.14109,3.00292 0.58359,0.75289 2.02171,1.52781 2.84058,1.53062 1.40416,0.005 3.79332,-1.1854 5.037,-2.50932 1.54107,-1.64049 3.91531,-6.323 4.76854,-9.40456 1.20781,-4.36223 1.23485,-8.42595 0.0813,-12.225206 -1.47247,-4.849707 -5.58953,-10.686139 -9.3094,-13.197212 -2.2197,-1.498395 -3.78652,-2.253194 -6.68377,-3.219832 -1.00836,-0.336437 -1.42759,-0.374492 -3.28911,-0.298581 -2.50873,0.102305 -3.68981,0.392132 -5.88104,1.443162 -2.89496,1.388573 -3.99073,2.672682 -6.45325,7.562477 -1.53843,3.054822 -1.76015,3.970266 -2.69584,11.130802 -0.75971,5.8138 -0.61182,13.03771 0.4442,21.69818 0.33397,2.73896 0.65865,5.50014 0.7215,6.13596 0.0628,0.63584 0.27025,2.39659 0.4609,3.9128 0.19065,1.5162 0.4265,3.397 0.52412,4.17956 0.0976,0.78256 0.37233,2.86345 0.61047,4.6242 0.73796,5.45633 1.00166,8.87447 1.10455,14.31724 0.0917,4.84877 0.0707,5.39521 -0.27686,7.20483 -0.37743,1.96535 -1.82334,8.21424 -2.50273,10.81629 -1.39177,5.3304 -4.51285,13.32155 -7.38909,18.91888 -1.523,2.96386 -1.80046,3.70572 -1.53823,4.11289 0.0834,0.12948 0.84302,0.36958 1.68809,0.53356 0.84506,0.16399 1.53674,0.34392 1.53706,0.39987 3.6e-4,0.0559 -0.84479,0.36448 -1.87801,0.68565 -2.00419,0.62298 -3.05459,1.2811 -2.56611,1.60774 0.14667,0.0981 1.24201,0.17957 2.4341,0.18106 1.19207,0.002 2.20747,0.0676 2.25645,0.14683 0.049,0.0793 -0.64635,0.31888 -1.54516,0.53246 -2.49537,0.59295 -3.92765,1.4577 -3.3581,2.02745 0.46423,0.46439 4.83214,0.13563 8.83543,-0.66505 1.27078,-0.25415 4.54651,-1.14227 5.91766,-1.60437 0.41899,-0.14121 0.93903,-0.25657 1.15562,-0.25637 0.93622,0.002 -3.64876,1.94049 -7.51776,3.18022 -2.37631,0.76145 -3.78815,1.36117 -3.99806,1.69829 -0.68741,1.10399 3.08096,0.60862 11.4345,-1.50317 6.63391,-1.67705 6.95665,-1.41979 0.6867,0.54738 -5.64098,1.76986 -7.59555,2.58301 -7.91978,3.29487 -0.16343,0.35884 -0.15134,0.4573 0.0644,0.52467 0.14608,0.0456 0.39454,0.12386 0.55212,0.17389 0.32583,0.10344 2.96596,-0.31181 4.69155,-0.73792 1.88906,-0.46647 5.61601,-1.65233 6.69949,-2.13166 0.55505,-0.24556 1.33485,-0.56003 1.73289,-0.69881 3.18993,-1.11219 -2.07279,1.72917 -6.21367,3.35477 -4.25056,1.66868 -6.39673,2.31879 -12.8693,3.89842 -1.5985,0.3901 -2.44619,0.68257 -2.57394,0.88802 -0.59532,0.9575 1.46535,0.964 8.91317,0.0282 1.36485,-0.17149 1.16581,0.16636 -0.35558,0.60354 -1.66699,0.47904 -6.91606,1.51837 -9.64499,1.90973 -1.1734,0.16827 -2.333472,0.36296 -2.577929,0.43263 -0.642053,0.18299 -0.674434,0.7985 -0.0631,1.19916 0.42862,0.2809 0.882719,0.32094 3.522209,0.31051 2.10958,-0.008 3.50887,-0.10576 4.60591,-0.32073 1.69492,-0.33214 2.04952,-0.29499 1.23015,0.12889 -1.50518,0.77864 -4.39284,1.33568 -11.145197,2.14997 -2.760235,0.33287 -3.640498,0.50259 -4.000229,0.77126 -0.734473,0.54857 -0.599793,0.96833 0.427713,1.33307 0.770486,0.2735 1.36276,0.30534 4.444699,0.23891 3.825724,-0.0825 6.746184,-0.50913 9.852804,-1.43939 0.82323,-0.2465 1.53743,-0.40752 1.58712,-0.35782 0.16666,0.16673 -0.58621,0.5936 -1.57269,0.89172 -0.53781,0.16252 -1.29785,0.40247 -1.68898,0.5332 -0.86429,0.28891 -4.28936,1.0982 -5.61495,1.32673 -0.52976,0.0913 -1.908572,0.32942 -3.064011,0.52909 -1.155439,0.19968 -2.418082,0.36304 -2.805873,0.36304 -0.854243,0 -1.902467,0.41141 -2.053872,0.8061 -0.150343,0.39194 0.215758,0.69406 1.258553,1.03864 1.577003,0.52109 6.906793,0.3103 10.680063,-0.42241 0.48891,-0.0949 1.60897,-0.30299 2.48902,-0.46235 1.98184,-0.35887 4.59131,-1.00252 6.42594,-1.58501 1.7898,-0.56827 2.39197,-0.56672 1.21553,0.003 -1.10256,0.53406 -3.65796,1.32871 -6.93031,2.15513 -3.45121,0.87157 -6.74463,1.974 -7.11271,2.38087 -0.16974,0.18764 -0.26143,0.46418 -0.20375,0.61456 0.24608,0.64148 5.35991,0.0927 8.9945,-0.96538 0.93496,-0.27214 3.9687,-1.34998 6.74166,-2.39517 4.27191,-1.6102 5.58455,-2.02489 5.16626,-1.63211 -0.0613,0.0575 -2.65272,1.29685 -4.87435,2.33106 -0.29335,0.13657 -1.77344,0.7412 -3.28908,1.34365 -1.51565,0.60245 -3.65412,1.52657 -4.75216,2.05361 -1.6253,0.78014 -2.01784,1.04357 -2.11155,1.41708 -0.0633,0.25234 -0.045,0.5262 0.0408,0.60857 0.37764,0.36283 1.64883,0.32606 3.71165,-0.10739 z M 32.036893,228.2723 c 0.166893,-0.43508 0.130709,-0.49256 -0.158763,-0.25223 -0.295552,0.24539 -0.353837,0.53356 -0.107915,0.53356 0.08732,0 0.207324,-0.12659 0.266678,-0.28133 z M 165.78502,129.09993 c -0.0568,-0.14188 -0.0989,-0.0997 -0.10741,0.10745 -0.008,0.1875 0.0343,0.29254 0.0934,0.23344 0.0591,-0.0591 0.0654,-0.2125 0.014,-0.34089 z"
       id="path3058" />
  </g>
</svg>
