<?xml version="1.0" encoding="UTF-8" standalone="no"?>
<!-- Created with Inkscape (http://www.inkscape.org/) -->

<svg
   width="210mm"
   height="297mm"
   viewBox="0 0 210 297"
   version="1.1"
   id="svg3202"
   inkscape:version="1.3 (0e150ed6c4, 2023-07-21)"
   sodipodi:docname="Fee.svg"
   xmlns:inkscape="http://www.inkscape.org/namespaces/inkscape"
   xmlns:sodipodi="http://sodipodi.sourceforge.net/DTD/sodipodi-0.dtd"
   xmlns="http://www.w3.org/2000/svg"
   xmlns:svg="http://www.w3.org/2000/svg">
  <sodipodi:namedview
     id="namedview3204"
     pagecolor="#ffffff"
     bordercolor="#666666"
     borderopacity="1.0"
     inkscape:pageshadow="2"
     inkscape:pageopacity="0.0"
     inkscape:pagecheckerboard="0"
     inkscape:document-units="mm"
     showgrid="false"
     inkscape:zoom="0.23496321"
     inkscape:cx="148.95949"
     inkscape:cy="800.12526"
     inkscape:window-width="1366"
     inkscape:window-height="705"
     inkscape:window-x="-8"
     inkscape:window-y="-8"
     inkscape:window-maximized="1"
     inkscape:current-layer="layer1"
     inkscape:showpageshadow="2"
     inkscape:deskcolor="#d1d1d1" />
  <defs
     id="defs3199" />
  <g
     inkscape:label="Ebene 1"
     inkscape:groupmode="layer"
     id="layer1">
    <path
       style="fill:none;stroke:#000000;stroke-width:0.264583;stroke-opacity:1"
       d="m 14.372322,244.89047 c -0.569433,-0.46111 -0.414876,-0.99779 0.445536,-1.54708 0.685298,-0.43749 1.013149,-1.23177 1.785889,-4.32658 0.62663,-2.50964 0.957788,-3.32895 2.134945,-5.28201 0.583565,-0.96822 1.435432,-2.64351 1.893037,-3.72287 1.87914,-4.43236 3.459891,-7.3611 8.210292,-15.21167 1.395651,-2.30648 2.926119,-4.84205 3.401041,-5.63462 l 0.863496,-1.44102 -0.05857,-7.2445 -0.05857,-7.24449 0.471297,-0.88356 c 0.583822,-1.09451 0.944336,-1.4772 1.842853,-1.95622 0.882535,-0.4705 3.268905,-0.48706 4.728916,-0.0329 0.553385,0.17217 1.549475,0.46994 2.213536,0.6617 2.678018,0.77335 3.775647,1.21801 7.281839,2.94995 2.219909,1.09655 3.842838,1.7818 4.125225,1.74177 0.40105,-0.0568 0.48509,-0.21928 0.60671,-1.17277 0.450086,-3.52863 0.239508,-6.7818 -0.513362,-7.93086 -0.398965,-0.60891 -0.638242,-0.63866 -1.535752,-0.1909 -0.560125,0.27943 -0.816678,0.29438 -1.670254,0.0973 -0.996121,-0.22994 -3.841677,-1.98616 -5.390839,-3.32712 -0.395221,-0.34211 -0.939932,-0.80313 -1.21047,-1.02448 -0.270539,-0.22136 -0.988545,-0.80998 -1.595569,-1.30804 -0.607024,-0.49805 -1.194234,-0.97211 -1.304911,-1.05346 -0.110677,-0.0813 -0.472892,-0.35553 -0.804922,-0.60933 -2.949507,-2.25447 -4.664298,-2.69448 -8.049219,-2.06543 -3.647474,0.67785 -4.266562,0.61287 -6.977874,-0.73239 -0.632164,-0.31366 -1.296251,-0.57028 -1.47575,-0.57028 -0.504321,0 -1.104825,-0.38459 -1.104825,-0.70758 0,-0.65339 1.558608,-0.55228 4.852879,0.31481 1.005292,0.26461 1.538047,0.23968 1.72742,-0.0808 0.08851,-0.14979 0.296753,-0.32375 0.462768,-0.38658 0.166015,-0.0628 -0.134237,-0.12139 -0.667228,-0.13013 -1.502215,-0.0246 -2.200715,-0.59667 -1.469548,-1.2035 0.270096,-0.22417 3.730196,-0.49754 5.557694,-0.4391 0.925097,0.0296 2.494955,0.71465 5.634454,2.45882 0.830076,0.46116 2.720956,1.3666 4.201956,2.0121 1.481,0.6455 3.641987,1.67606 4.802193,2.29014 2.297539,1.21605 2.678444,1.25019 3.177671,0.28476 0.167643,-0.32419 0.370394,-0.59229 0.450561,-0.59576 0.08017,-0.004 0.306884,-0.2278 0.503819,-0.49848 0.348565,-0.47908 0.344408,-0.51279 -0.156641,-1.26994 -0.293333,-0.44327 -0.565885,-1.20993 -0.6337,-1.78255 -0.192207,-1.62293 0.368616,-2.58879 3.01039,-5.18459 1.486908,-1.46102 2.596545,-2.76234 3.230353,-3.78835 0.530991,-0.85957 1.207107,-1.6881 1.502481,-1.84117 0.295372,-0.15307 0.786065,-0.5095 1.090426,-0.79206 0.46211,-0.42899 0.553384,-0.68051 0.553384,-1.52488 0,-0.84433 -0.07941,-1.06319 -0.481346,-1.32655 -0.419026,-0.27456 -0.699565,-0.28385 -2.166775,-0.0717 -2.077776,0.30042 -2.738849,0.16751 -2.890334,-0.58112 -0.06125,-0.30268 -0.289013,-0.88522 -0.506141,-1.29453 -0.21713,-0.4093 -0.39478,-0.93089 -0.39478,-1.15907 0,-0.22819 -0.191213,-0.57247 -0.424916,-0.76508 -0.994964,-0.81999 -0.981892,-0.77189 -0.546102,-2.00976 0.35712,-1.0144 0.378604,-1.28759 0.173517,-2.20652 -0.151182,-0.6774 -0.184097,-1.72953 -0.09295,-2.97124 0.121294,-1.65243 0.07733,-2.15981 -0.312973,-3.61222 -0.553386,-2.05928 -0.60852,-1.95102 2.099499,-4.1224 2.204008,-1.76725 3.482189,-2.34021 4.790725,-2.14749 0.469255,0.0691 1.858197,0.19315 3.086531,0.27565 2.039175,0.13694 2.301596,0.20127 3.018458,0.7399 0.431816,0.32445 0.830395,0.64311 0.885734,0.70812 0.05534,0.065 0.598661,0.44711 1.207383,0.84909 2.797556,1.84739 4.041273,4.14388 4.302036,7.94358 0.09954,1.45051 0.514426,2.57749 1.111805,3.02008 0.176674,0.13091 0.38083,0.17618 0.453676,0.10062 0.07285,-0.0755 0.762759,-1.72211 1.533143,-3.65901 0.770382,-1.93689 1.587455,-3.92913 1.815716,-4.42719 0.22826,-0.49806 0.787814,-1.81112 1.24345,-2.91792 0.455636,-1.1068 1.050459,-2.46645 1.321831,-3.02143 0.271371,-0.55499 0.493403,-1.06762 0.493403,-1.13917 0,-0.0716 0.324757,-0.83998 0.721686,-1.70762 1.467454,-3.20767 1.654077,-3.62699 2.403835,-5.401 0.420993,-0.99612 0.832445,-1.90168 0.914336,-2.01236 0.592106,-0.80026 5.564734,-13.79443 7.442688,-19.44879 0.861984,-2.59537 1.221636,-3.41615 1.461812,-3.33609 0.119035,0.0397 0.417378,1.10748 0.662977,2.3729 0.245606,1.26541 0.642274,3.2063 0.8815,4.3131 0.6211,2.87368 0.509861,4.26237 -0.878557,10.96736 -0.533461,2.57619 -0.669038,4.31769 -0.351422,4.51399 0.151875,0.0939 1.632207,-2.11856 1.632207,-2.43942 0,-0.0606 0.30801,-0.62008 0.684477,-1.2433 1.881533,-3.11478 4.429572,-8.2048 5.616962,-11.22058 0.86097,-2.1867 1.94901,-5.77527 1.94901,-6.42819 0,-0.53782 0.34587,-0.82712 0.63873,-0.53424 0.11066,0.11066 0.323,1.01655 0.47187,2.01308 0.14886,0.99652 0.38386,2.20662 0.52222,2.68911 0.15835,0.55218 0.26847,2.4805 0.29716,5.20382 0.0386,3.6622 0.10719,4.52743 0.44667,5.63461 1.2366,4.03308 1.24549,4.07913 1.24549,6.45015 0,3.14859 -0.42958,4.42348 -2.41476,7.16634 -0.66321,0.91634 -0.70246,1.05906 -0.67265,2.44599 0.0174,0.81007 0.15323,1.76091 0.30184,2.11297 0.15927,0.37731 0.27019,1.39023 0.27019,2.46715 0,2.82058 -0.70959,3.98973 -4.18156,6.88975 -0.946759,0.79079 -2.036005,1.82442 -2.420558,2.29697 -0.680287,0.83594 -0.70162,0.9163 -0.789054,2.97215 -0.142847,3.35856 -1.040798,5.1577 -3.334438,6.68089 -0.757628,0.50314 -1.635967,0.86856 -2.606954,1.08459 -1.499035,0.33352 -2.061566,0.75569 -2.061566,1.54719 0,0.61618 -0.808876,2.21887 -1.470989,2.91459 -0.680815,0.71538 -1.788633,1.30722 -3.075049,1.6428 -1.020624,0.26624 -1.41359,0.68644 -1.657598,1.77247 -0.116265,0.51746 -0.511317,1.21076 -1.017802,1.78617 -0.926205,1.05226 -0.96842,1.23549 -0.495361,2.15032 0.961153,1.85871 2.618713,3.92489 5.76435,7.18536 1.309846,1.35766 2.297613,2.48814 3.159832,3.61635 2.554075,3.34198 6.112862,7.00745 7.715285,7.94655 0.995074,0.58317 1.306423,1.0633 0.812442,1.25286 -0.175795,0.0675 -1.165066,0.0188 -2.198388,-0.10823 -1.033314,-0.12699 -2.721665,-0.23288 -3.751892,-0.23531 -1.428524,-0.003 -2.081078,-0.0988 -2.749167,-0.40195 -0.716155,-0.32498 -1.12474,-0.37441 -2.238893,-0.27086 -1.182949,0.10995 -1.488309,0.064 -2.313096,-0.34791 -0.522625,-0.26101 -1.172395,-0.68048 -1.443931,-0.93214 -0.427426,-0.39614 -0.70842,-0.45755 -2.093178,-0.45755 -1.759404,0 -1.826205,0.0631 -1.405447,1.32831 0.106716,0.32088 0.284181,1.35315 0.394369,2.29393 0.301159,2.57132 0.773872,5.38822 1.131292,6.74141 0.175404,0.66407 0.408,1.56964 0.51688,2.01236 0.362048,1.47215 0.999917,2.19149 2.21393,2.49673 0.595835,0.14981 1.241807,0.35433 1.435491,0.45448 0.42273,0.2186 0.44408,0.88774 0.05031,1.5766 -0.475608,0.83201 -0.378738,2.67893 0.20046,3.82196 0.660451,1.30337 1.957481,2.52653 3.087383,2.91153 1.129925,0.38502 3.490073,0.39663 4.560146,0.0224 1.497322,-0.5236 2.86252,-1.34897 4.210545,-2.54561 0.738394,-0.65548 1.408603,-1.19177 1.489367,-1.19177 0.08076,0 0.410879,0.60613 0.733619,1.34696 1.42921,3.28076 5.31864,5.49977 9.16183,5.22705 3.2957,-0.23387 6.05182,-2.07178 7.04229,-4.69609 1.35436,-3.58852 -0.96794,-7.64974 -3.83351,-6.70399 -1.27434,0.42058 -1.69955,1.03077 -1.69955,2.43894 0,1.04293 0.0669,1.2554 0.50308,1.59942 0.41264,0.32541 0.69297,0.37499 1.55953,0.27588 0.97818,-0.11189 1.05646,-0.0894 1.05646,0.3028 0,0.76321 -0.96423,2.34763 -1.98994,3.26985 -1.05482,0.94841 -2.66927,1.57057 -4.06017,1.56467 -2.08197,-0.009 -4.72275,-1.89114 -5.92462,-4.22303 -0.49816,-0.96651 -0.89876,-2.54773 -0.90163,-3.55877 -0.005,-1.97131 1.01735,-5.06955 2.16456,-6.55597 1.39936,-1.81311 4.15075,-4.01722 6.18724,-4.95653 2.61579,-1.20651 3.65038,-1.52277 6.36335,-1.94518 1.97416,-0.30738 2.29849,-0.30829 4.17066,-0.0118 5.23754,0.82956 9.17152,4.34673 11.28734,10.09141 0.59308,1.61028 0.67579,2.09368 0.76579,4.47512 0.0796,2.10721 0.0277,2.97097 -0.24641,4.09883 -0.68387,2.81379 -2.24364,5.54839 -4.18711,7.34088 -2.04631,1.88733 -4.77492,3.45029 -4.77492,2.73508 0,-0.0879 0.5018,-0.69914 1.1151,-1.35833 1.76715,-1.89938 2.80584,-3.63447 3.62268,-6.0515 0.69541,-2.05776 0.74134,-2.34863 0.75884,-4.80638 0.0202,-2.84561 -0.0846,-3.27465 -1.07691,-4.40483 -0.54371,-0.61927 -0.76361,-0.72668 -1.48764,-0.72668 -0.62125,0 -0.96361,0.1217 -1.27375,0.45278 -0.86877,0.92746 -0.95135,1.44636 -0.95271,5.98677 -0.002,4.59154 -0.0408,4.84393 -1.17904,7.54635 -1.15613,2.74492 -3.05674,4.48005 -5.47991,5.0028 -4.38536,0.94604 -14.21723,1.46342 -21.684675,1.14109 -2.894738,-0.12494 -5.76121,-0.30837 -6.369933,-0.40759 -0.608722,-0.0992 -1.740643,-0.237 -2.515381,-0.30615 -2.060371,-0.18389 -7.450226,-1.0782 -9.303086,-1.5436 -1.323252,-0.33237 -1.381904,-0.58153 -0.341603,-1.45114 1.822237,-1.52324 2.536597,-3.40954 2.110829,-5.57374 -0.314523,-1.59874 -0.851294,-2.66522 -1.794219,-3.56487 -1.40804,-1.34341 -4.605049,-2.45743 -6.19585,-2.15898 -0.537252,0.10079 -0.702285,0.25167 -0.843176,0.77088 -0.249098,0.91796 0.02191,1.14863 1.349765,1.14882 2.166629,4e-4 4.45835,1.27807 5.277674,2.94257 1.66415,3.38081 -1.530887,7.30512 -4.712351,5.78795 -1.741499,-0.83049 -1.731133,-3.46748 0.01373,-3.49215 0.634266,-0.009 0.604999,-0.75061 -0.04124,-1.04506 -1.27215,-0.57965 -2.524442,0.92562 -2.524442,3.03443 0,0.94719 -0.07525,1.26552 -0.321498,1.36001 -0.176825,0.0678 -1.079203,-0.1232 -2.005288,-0.42457 -1.713898,-0.55775 -2.156098,-0.55543 -3.061814,0.0161 -0.554014,0.34956 -0.849545,0.20607 -0.849545,-0.41248 0,-0.54998 -0.369049,-0.8932 -1.710459,-1.59073 -2.341657,-1.21765 -2.365885,-0.74016 -0.08902,1.7544 2.105897,2.30725 2.763765,3.33927 3.135549,4.91887 0.323721,1.37539 0.338282,2.10351 0.06196,3.09852 -0.36372,1.30973 -0.737155,0.94356 -0.71831,-0.70433 0.0271,-2.36954 -0.888337,-3.49136 -4.655448,-5.70499 -2.429928,-1.42789 -3.983021,-2.76915 -4.197909,-3.62535 -0.163552,-0.65167 -0.724275,-0.54114 -0.982353,0.19363 -0.31289,0.89083 -0.567973,0.67441 -0.939271,-0.79687 -0.325293,-1.289 -0.858611,-2.28711 -1.300823,-2.43452 -0.128005,-0.0427 -0.197999,0.63658 -0.188988,1.83395 0.01384,1.83817 -0.0054,1.92239 -0.576716,2.52023 -0.549468,0.575 -1.276211,0.79711 -1.588002,0.48531 -0.07326,-0.0733 0.102686,-0.44246 0.390979,-0.82044 0.659843,-0.86512 0.592457,-1.27355 -0.66218,-4.01349 l -0.938339,-2.04919 -1.726632,-0.88759 c -0.949647,-0.48819 -2.291824,-1.18474 -2.982616,-1.54792 -1.066759,-0.56083 -1.526611,-0.67574 -3.052254,-0.76274 l -1.796268,-0.10242 -0.63802,1.26395 c -0.93616,1.85457 -1.413406,3.50972 -1.547509,5.36694 l -0.118896,1.64666 1.336931,1.28535 c 1.236766,1.18906 1.336933,1.3494 1.336933,2.13995 0,0.58748 -0.150052,1.0548 -0.480092,1.49517 -1.13562,1.51527 -1.38381,2.31928 -1.470538,4.76384 -0.09178,2.58677 -0.418362,3.94473 -1.233209,5.12774 -0.679754,0.98689 -2.131534,2.11879 -2.717796,2.11899 -0.436777,1.4e-4 -0.437073,-0.003 -0.370587,-4.17564 0.07526,-4.72286 -0.210982,-9.23709 -0.610895,-9.63433 -0.212598,-0.21118 -0.485557,-0.11555 -1.482749,0.51949 -1.616174,1.02922 -4.303504,3.57574 -5.202039,4.92948 -0.986075,1.48563 -0.956635,2.10958 0.175385,3.71724 0.492164,0.69895 0.951195,1.5274 1.020069,1.84099 0.191996,0.87417 -0.426419,1.96105 -1.466514,2.57744 -3.216233,1.906 -4.59523,3.05809 -5.638082,4.7104 -0.433919,0.68751 -0.84988,1.43112 -0.924358,1.65248 -0.179204,0.53263 -0.702731,1.12658 -1.374715,1.55966 -0.75124,0.48416 -2.575218,0.47695 -3.17973,-0.0125 z m 62.988412,-35.35821 c 1.272783,-0.16615 2.427343,-0.34369 2.565689,-0.39453 0.349465,-0.12843 0.317109,-1.51961 -0.06725,-2.89141 -0.820323,-2.92779 -1.92107,-5.34319 -3.499003,-7.67794 -2.817366,-4.16864 -3.500733,-5.64442 -3.614158,-7.80504 -0.0075,-0.14229 -0.404246,-0.42617 -0.881726,-0.63084 -0.886239,-0.3799 -1.819516,-1.30313 -2.049353,-2.0273 -0.106904,-0.33684 -0.30386,-0.40356 -1.191258,-0.40356 -0.58475,0 -1.358079,-0.10281 -1.718509,-0.22846 -0.91291,-0.31825 -1.058515,-0.0181 -0.94073,1.93896 0.11681,1.94092 0.448569,2.8331 1.983008,5.33276 1.714499,2.79298 2.748705,4.9781 3.002296,6.34339 0.122894,0.66163 0.238283,2.78815 0.256426,4.72561 0.01813,1.93747 0.102655,3.63539 0.187808,3.77318 0.215371,0.34849 3.078775,0.32218 5.966758,-0.0548 z m -35.035737,-7.28049 c 0.300848,-0.19583 -1.403293,-1.26856 -2.015247,-1.26856 -0.291351,0 -0.199402,1.08539 0.132034,1.5586 0.301242,0.43009 0.326734,0.43252 1.05646,0.10105 0.411275,-0.18682 0.783314,-0.36281 0.826753,-0.39109 z m 87.154423,21.14935 c 0,-0.0663 0.54364,-0.842 1.20807,-1.7238 2.04566,-2.71486 3.12545,-5.3621 3.72123,-9.12304 0.21313,-1.34537 0.20568,-2.03184 -0.0453,-4.17804 -0.34234,-2.92683 -0.258,-3.40093 1.09042,-6.12898 0.70678,-1.42994 2.69006,-3.70189 3.58409,-4.10578 0.22136,-0.1 0.71941,-0.37484 1.10677,-0.61076 1.85408,-1.12919 5.45811,-1.4857 7.91533,-0.78298 3.98118,1.13855 6.16772,3.83183 5.92014,7.29216 -0.19129,2.6737 -2.03508,5.3063 -4.15051,5.92619 -2.0115,0.58944 -4.32726,-0.19386 -5.46586,-1.8488 -0.44996,-0.65402 -0.59695,-1.09607 -0.59695,-1.79528 0,-0.86963 0.55642,-2.34415 0.98439,-2.60866 0.24084,-0.14885 0.0398,-0.91901 -0.23993,-0.91901 -0.11812,0 -0.62995,0.43076 -1.1374,0.95726 -1.40718,1.45996 -1.77729,3.20237 -1.04374,4.91372 0.72184,1.68401 1.91343,2.72003 3.77974,3.28626 3.99657,1.21254 8.11512,-1.36726 9.54171,-5.97678 0.59064,-1.90846 0.48528,-4.38128 -0.25554,-5.99776 -0.8126,-1.77308 -2.66156,-3.49364 -4.78739,-4.45493 -2.57561,-1.16469 -6.55172,-1.43503 -9.15599,-0.62254 -1.78722,0.55759 -3.67566,1.66446 -5.1435,3.0148 -0.63164,0.58106 -1.20425,1.05649 -1.27246,1.05649 -0.73326,0 1.30147,-3.06858 3.48137,-5.25026 1.94041,-1.942 3.65265,-3.12538 6.45613,-4.46206 1.8,-0.85823 6.37131,-2.50911 8.14983,-2.94324 2.51758,-0.61452 6.31435,-1.62705 6.79153,-1.81118 0.60932,-0.23512 0.73647,-0.8272 0.26218,-1.22084 -0.33661,-0.27937 -1.5242,-0.17719 -4.73956,0.40777 -7.87053,1.43186 -13.99763,4.22183 -17.67381,8.04775 -0.9671,1.0065 -1.41331,0.91274 -0.81202,-0.17061 1.78915,-3.22347 3.7989,-5.41932 6.83929,-7.47259 1.70287,-1.14999 6.14947,-3.43722 6.68233,-3.43722 0.14891,0 0.80339,-0.48406 1.45438,-1.07568 1.17521,-1.06804 1.18351,-1.08348 1.16775,-2.17375 -0.02,-1.38505 -0.26931,-1.84586 -1.33408,-2.46608 -1.58635,-0.92404 -3.94136,-0.86053 -6.18413,0.16677 -4.0971,1.87668 -9.51268,7.47557 -11.79046,12.18953 -1.26489,2.61774 -2.4909,6.90169 -2.49999,8.73551 -0.002,0.34208 -0.0923,0.75779 -0.20123,0.92382 -0.17613,0.26831 -0.22016,0.26831 -0.39629,0 -0.10899,-0.16603 -0.19954,-0.39897 -0.20124,-0.51767 -0.008,-0.51135 -1.3391,-2.61688 -2.33709,-3.69486 -0.82183,-0.8877 -1.36954,-1.27748 -2.26643,-1.6129 -1.45274,-0.5433 -2.43329,-0.49359 -2.66395,0.13506 -0.14985,0.40838 -0.0173,0.5181 1.52271,1.25998 1.79313,0.86386 2.91739,1.90669 3.61604,3.35414 0.20559,0.42592 0.45306,0.93492 0.54997,1.13112 0.3401,0.68865 -0.38286,0.58855 -1.57498,-0.21807 -0.64669,-0.43757 -1.53802,-0.97367 -1.98072,-1.19136 -1.84677,-0.90804 -4.83734,-1.66267 -6.60656,-1.66706 -1.68958,-0.005 -1.98024,-0.21271 -1.22366,-0.8778 0.32226,-0.28328 0.65703,-0.51792 0.74395,-0.52142 0.32533,-0.0131 6.38281,-4.66912 9.69515,-7.45209 3.50429,-2.94424 7.93363,-7.62055 13.15201,-13.88528 1.91672,-2.30107 5.42988,-7.9341 6.97885,-11.18997 1.77634,-3.73378 2.64928,-5.97564 3.59616,-9.23549 0.28934,-0.99612 0.65786,-2.2639 0.81891,-2.8173 0.16106,-0.5534 0.48669,-1.91175 0.72362,-3.01854 0.23693,-1.1068 0.50582,-2.28403 0.59755,-2.61607 0.0917,-0.33204 0.22335,-1.05649 0.2925,-1.60988 0.0691,-0.55341 0.24899,-1.64008 0.39966,-2.41483 0.4871,-2.50473 0.7188,-3.98792 0.91169,-5.83585 0.10396,-0.99612 0.27632,-2.58085 0.38301,-3.52163 0.93546,-8.24887 0.93359,-17.09239 -0.005,-24.45017 -0.11297,-0.88544 -0.28066,-2.28906 -0.37264,-3.11916 -0.16511,-1.490255 -0.45843,-3.107098 -1.24122,-6.842026 -0.22038,-1.051458 -0.48934,-2.347246 -0.59769,-2.879529 -0.21009,-1.032043 -0.95522,-3.912984 -1.88367,-7.282888 -1.7043,-6.186016 -4.96601,-13.358703 -8.76209,-19.268345 -1.08075,-1.682489 -0.99976,-1.929119 0.36348,-1.106799 1.99712,1.20469 3.92554,1.760816 6.10579,1.760816 1.46423,0 1.90518,0.280018 1.39984,0.888937 -0.12786,0.154059 -0.40964,0.899706 -0.6262,1.656995 -1.01878,3.562569 0.0756,7.571619 2.80454,10.273915 1.47708,1.462651 2.21457,1.898882 3.98651,2.358051 3.31379,0.858714 6.57456,-0.172948 7.88747,-2.49549 0.3516,-0.621992 0.81937,-2.348995 0.82255,-3.036866 0.0134,-2.904586 -2.94579,-5.620823 -6.12361,-5.620823 -1.96501,0 -2.9566,0.645831 -3.64264,2.37249 -0.63768,1.604981 0.0985,3.390196 1.64304,3.984189 0.7863,0.302395 0.87178,0.297141 1.65342,-0.101635 1.39778,-0.713111 1.66017,-1.853 0.63649,-2.765125 -0.70034,-0.624015 -0.76002,-0.977262 -0.21446,-1.269243 1.71751,-0.919214 3.82653,1.025496 3.83329,3.534665 0.003,1.047029 -0.0853,1.349867 -0.59933,2.059485 -1.34648,1.858813 -3.35807,2.447372 -5.65169,1.653597 -3.38484,-1.171427 -5.46656,-4.20033 -5.4793,-7.972394 -0.007,-1.957549 0.51943,-3.365131 1.68897,-4.519231 1.57204,-1.551296 3.39118,-2.116112 6.72436,-2.087817 3.46651,0.02943 3.85088,0.209156 7.413,3.466334 7.34969,6.720487 13.57487,14.535394 18.30195,22.975699 0.84417,1.507284 3.1606,6.105159 3.16117,6.274585 4e-4,0.118393 0.84529,2.06581 1.42483,3.284123 0.63717,1.33947 2.16844,6.0179 3.1286,9.55871 1.11693,4.11892 1.59434,6.52702 2.31389,11.67169 0.86973,6.21833 0.65823,18.43418 -0.41635,24.0477 -0.10594,0.5534 -0.34023,1.86646 -0.52064,2.91792 -0.33677,1.96265 -1.4838,6.96196 -2.00845,8.75377 -1.04934,3.58374 -1.34448,4.32658 -1.71897,4.32658 -0.0897,0 -0.2252,-0.20375 -0.30118,-0.45279 -0.2559,-0.83868 -0.94556,-2.26018 -1.34243,-2.76699 -0.21669,-0.2767 -1.09871,-1.24038 -1.96005,-2.14151 -1.26955,-1.32818 -1.63476,-1.85674 -1.92874,-2.79138 -0.30816,-0.97976 -0.32652,-1.28799 -0.12223,-2.05184 0.28729,-1.07415 0.70937,-1.67178 1.58703,-2.24712 1.37385,-0.9006 3.06638,-0.33058 3.58373,1.20696 0.2622,0.77925 0.84502,0.99703 1.23627,0.46196 0.44187,-0.60432 0.30482,-1.40897 -0.39661,-2.32865 -1.32701,-1.73986 -3.40496,-2.01073 -5.31995,-0.69345 -1.71481,1.17957 -2.41993,3.29099 -1.87841,5.62472 0.17788,0.7666 0.17405,0.77362 -0.35696,0.65415 -1.24153,-0.27933 -4.00053,-0.71797 -4.53643,-0.72123 -0.85912,-0.005 -3.92185,-1.29282 -6.13108,-2.57757 -1.41348,-0.822 -2.49155,-1.66822 -3.95538,-3.10474 -1.10677,-1.08611 -2.23686,-2.31285 -2.51131,-2.7261 -1.00129,-1.50764 -2.05831,-3.38664 -2.34714,-4.17236 -0.97704,-2.65784 -1.11056,-3.39809 -1.12519,-6.23831 -0.017,-3.29001 0.27445,-4.52761 1.74452,-7.40869 1.77935,-3.48722 3.92638,-5.65706 7.25757,-7.33467 2.60496,-1.31188 3.65101,-1.55692 6.64061,-1.55561 2.25736,9.9e-4 2.8091,0.0688 4.02461,0.49441 2.90387,1.01687 5.24497,2.84863 6.43937,5.03843 0.5922,1.08572 0.6034,1.16046 0.58823,3.92411 -0.0152,2.76902 -0.0268,2.83972 -0.67482,4.12533 -1.14878,2.2789 -3.93838,4.4272 -5.74882,4.4272 h -0.72895 l 0.12381,-1.35835 c 0.13499,-1.48115 -0.0766,-2.01501 -1.12587,-2.84037 -1.11875,-0.88003 -2.6573,-0.70702 -3.74966,0.42165 -2.16862,2.24072 -1.4567,5.50169 1.51037,6.91837 3.10793,1.48395 7.96251,0.0424 10.82214,-3.21357 1.55774,-1.77367 2.7076,-4.7795 2.70493,-7.07097 -0.002,-1.53482 -0.64213,-4.22334 -1.32852,-5.57789 -2.28675,-4.51282 -7.0655,-7.55745 -11.95129,-7.6144 -0.83007,-0.01 -1.66753,-0.0803 -1.86102,-0.15689 -0.31027,-0.12284 -0.28651,-0.19158 0.20123,-0.58231 0.30416,-0.24367 1.32273,-1.06811 2.26349,-1.8321 3.23237,-2.625 5.42116,-6.05077 6.7423,-10.55267 0.37761,-1.28674 0.30464,-1.7568 -0.27272,-1.7568 -0.29136,0 -0.44317,0.23229 -0.6247,0.95587 -0.55789,2.22373 -2.34515,5.86465 -3.71345,7.56484 -1.82568,2.26852 -4.74743,4.8175 -4.74743,4.14173 0,-0.10219 0.0679,-0.18722 0.15092,-0.18894 0.16982,-0.004 1.40757,-2.53869 2.06172,-4.22283 0.60906,-1.56803 1.20827,-5.01936 1.20827,-6.9593 0,-1.64017 -0.52926,-4.672895 -1.0879,-6.233813 -0.85731,-2.395424 -2.88387,-4.812556 -5.09348,-6.075131 -2.26126,-1.292089 -3.03526,-1.559677 -4.5114,-1.559677 -1.14274,0 -1.4263,0.07298 -1.85746,0.478052 -0.64851,0.609248 -0.82758,1.430699 -0.52078,2.388864 0.31158,0.973137 0.79843,1.494174 2.40581,2.574781 4.80687,3.231557 7.04307,7.066794 7.04307,12.079334 0,3.61715 -1.33499,6.82824 -4.11711,9.90296 -1.72787,1.90962 -2.34473,1.88332 -1.84397,-0.0786 0.63494,-2.48763 -0.5349,-5.19143 -2.70367,-6.24887 -2.59946,-1.26744 -6.23164,-1.03419 -8.35227,0.53637 -1.14272,0.84631 -2.1014,2.95465 -2.09799,4.61396 0.004,1.79919 1.89663,4.03918 3.41336,4.03918 0.91036,0 2.10126,-0.49917 2.75818,-1.15611 1.22557,-1.2256 0.62332,-1.90558 -0.77616,-0.87636 -2.44051,1.79482 -4.68383,-0.57501 -3.37453,-3.56483 0.79719,-1.82039 2.40896,-2.5663 5.17871,-2.39665 1.36132,0.0834 1.81553,0.20003 2.47294,0.63509 1.53762,1.01758 2.05312,2.61198 1.59299,4.92697 -0.40994,2.06245 -0.84639,2.80593 -2.56522,4.36972 -2.33239,2.12203 -4.38151,5.35259 -5.34443,8.42583 -0.51568,1.64584 -0.80464,4.46957 -0.66952,6.54263 0.42502,6.52073 4.04248,12.34046 9.86268,15.86694 0.76043,0.46074 1.60016,0.89232 1.86608,0.95906 0.26591,0.0667 0.61793,0.31331 0.78226,0.54794 0.26911,0.38422 0.26365,0.44048 -0.055,0.56656 -0.19458,0.077 -1.85405,0.14636 -3.6877,0.15414 -3.76399,0.016 -5.16129,-0.24213 -7.47346,-1.38044 -1.23349,-0.60726 -2.259,-1.53219 -4.55647,-4.10954 -1.01949,-1.14369 -2.8465,-0.89078 -3.56211,0.4931 -0.44266,0.85602 -0.38142,3.13977 0.11003,4.10375 1.27981,2.51034 4.26242,4.15886 8.2611,4.56599 1.21206,0.1234 2.20375,0.28083 2.20375,0.34982 0,0.069 -0.70179,0.75707 -1.55953,1.52905 -2.97948,2.68156 -5.92534,6.242 -5.74264,6.94069 0.19101,0.73045 0.75199,0.41964 2.57745,-1.42808 1.83599,-1.85835 5.28791,-4.92909 6.50527,-5.78691 2.76596,-1.94905 3.18978,-2.20524 3.41643,-2.06515 0.18603,0.11497 0.14519,0.28436 -0.16304,0.67621 -0.60844,0.77355 -1.51556,2.70119 -1.91737,4.07447 -0.49644,1.69677 -0.4901,4.84725 0.0129,6.43955 0.77324,2.44738 2.41263,4.56875 4.24568,5.49387 0.9962,0.50277 3.19187,1.04713 4.2084,1.04337 1.30647,-0.005 3.76103,-0.97346 4.71606,-1.86107 1.92619,-1.79021 2.49589,-3.98614 1.5629,-6.02413 -0.58933,-1.28728 -1.66332,-2.39402 -2.90788,-2.99652 -1.83933,-0.89043 -4.15807,-0.14459 -4.80848,1.54668 -0.28645,0.74484 -0.28712,0.89612 -0.007,1.56682 0.60383,1.44518 2.61058,1.7243 3.83871,0.53392 0.34669,-0.33604 0.77936,-0.61097 0.9615,-0.61097 0.96978,0 1.30174,2.25136 0.50491,3.42422 -1.03121,1.51785 -3.42054,2.49742 -5.10306,2.09216 -1.52527,-0.3674 -3.23663,-1.65008 -4.33867,-3.25188 -1.1891,-1.72833 -1.53778,-4.03418 -0.96234,-6.36393 0.82994,-3.36014 3.01699,-5.74305 6.20445,-6.76011 1.63655,-0.5222 5.04827,-0.56748 6.67848,-0.0886 3.58874,1.05414 5.94686,3.70084 6.96179,7.81376 0.36193,1.46666 0.29235,1.90605 -0.63974,4.03997 -0.14504,0.33204 -0.59806,1.37344 -1.00672,2.31422 -0.40867,0.94077 -1.20729,2.66134 -1.77471,3.82348 -0.93195,1.90872 -1.47275,2.92857 -3.25474,6.1377 -0.63327,1.14043 -3.97104,6.32584 -5.05179,7.8482 -5.80732,8.18037 -13.41455,15.89066 -21.68785,21.98168 -4.48551,3.30235 -12.55577,7.98564 -16.32808,9.47543 -0.54977,0.21712 -1.49762,0.61892 -2.10635,0.89289 -0.60872,0.27397 -1.51426,0.65599 -2.0123,0.84895 -0.49804,0.19295 -1.11535,0.4323 -1.37178,0.53189 -0.25643,0.0996 -1.40119,0.4972 -2.54388,0.88357 -2.01294,0.68063 -2.72495,0.8327 -2.72495,0.58198 z M 90.582978,214.56 c -1.146682,-0.42086 -1.917481,-1.0459 -2.360353,-1.91403 -0.968418,-1.8983 -0.01408,-3.21272 1.950076,-2.68584 0.239962,0.0643 0.543998,0.37706 0.675642,0.69488 0.409683,0.9891 1.382583,0.96182 2.097433,-0.0588 0.604087,-0.86248 0.182557,-2.36067 -0.872041,-3.09936 -0.553494,-0.38769 -0.541907,-0.84224 0.02713,-1.06449 1.673812,-0.65377 3.79495,-1.51976 4.477382,-1.82797 0.442704,-0.19995 1.741407,-0.78936 2.885991,-1.30982 1.313562,-0.59728 2.151542,-0.87581 2.272142,-0.7552 0.12059,0.12059 -0.0354,0.68033 -0.42296,1.51769 -0.33771,0.72964 -0.75928,1.9439 -0.93682,2.69833 -0.676772,2.87585 -0.963547,3.56439 -1.996162,4.79272 -1.287804,1.53188 -2.793949,2.54825 -4.417219,2.9808 -1.511461,0.40276 -2.346661,0.41044 -3.380243,0.0311 z M 23.361507,169.85633 c -0.07509,-0.0751 -0.0819,-0.42778 -0.01512,-0.78375 0.146266,-0.77969 -0.126035,-1.33838 -1.046001,-2.14615 -0.543302,-0.47703 -0.640331,-0.66359 -0.458874,-0.88224 0.126564,-0.1525 0.403322,-0.27727 0.615018,-0.27727 0.670393,0 1.34476,-0.60673 1.695668,-1.5256 0.186777,-0.48908 0.447967,-0.88923 0.580422,-0.88923 0.132456,0 0.531912,0.36222 0.887682,0.80494 0.575052,0.71559 0.743579,0.80495 1.518267,0.80495 1.245642,0 1.5048,0.3924 0.837215,1.26767 -0.574527,0.75327 -0.640328,1.28948 -0.280386,2.28492 0.131904,0.36478 0.177689,0.72539 0.101744,0.80133 -0.07594,0.076 -0.632931,0.0194 -1.237745,-0.12572 -1.070387,-0.2568 -1.118273,-0.24962 -1.798776,0.26944 -0.696095,0.53095 -1.139236,0.6566 -1.399116,0.39671 z m 0.353287,-13.69843 c -0.561278,-2.45933 -0.684958,-2.68958 -1.662297,-3.09466 -1.424706,-0.59051 -1.902242,-0.85759 -1.985916,-1.1107 -0.04199,-0.12704 0.470488,-0.56316 1.138843,-0.96918 1.541861,-0.93665 1.823079,-1.34569 1.823079,-2.65168 0,-1.97551 0.292364,-2.1039 1.76857,-0.77662 0.904428,0.81318 1.107827,0.90556 1.993822,0.90556 0.542656,0 1.072674,-0.0827 1.177817,-0.18384 0.186966,-0.1798 0.745568,-0.28806 1.247628,-0.24181 0.385674,0.0355 0.304238,0.60607 -0.284485,1.99308 -0.58861,1.38675 -0.581367,1.43048 0.523697,3.16162 0.427858,0.67026 0.515224,1.22221 0.222134,1.40335 -0.105958,0.0655 -0.79368,0.008 -1.528269,-0.12704 l -1.335616,-0.2461 -1.211449,1.24571 c -0.666296,0.68514 -1.335155,1.24571 -1.486354,1.24571 -0.151198,0 -0.33174,-0.24903 -0.401204,-0.5534 z m 7.9149,-16.90382 c -0.175414,-0.63642 -0.378994,-1.51934 -0.452398,-1.96206 -0.302346,-1.8235 -0.476461,-2.10673 -1.615348,-2.62768 -0.590939,-0.27031 -1.159278,-0.49147 -1.262978,-0.49147 -0.394928,0 -1.99041,-0.80717 -2.323897,-1.17568 -0.337307,-0.37273 -0.296416,-0.41599 1.250319,-1.3228 0.879466,-0.51561 1.970192,-1.20635 2.423835,-1.53498 l 0.824804,-0.5975 0.0116,-1.65893 c 0.01689,-2.41538 0.200004,-3.25511 0.726297,-3.33058 0.243226,-0.0349 0.548551,0.0996 0.701597,0.30908 0.468245,0.64083 3.248598,2.87185 3.578305,2.87132 0.173146,-2e-4 1.158969,-0.22666 2.190716,-0.50308 2.849944,-0.76354 3.367815,-0.65875 2.749924,0.55647 -0.182182,0.35829 -0.518309,1.14951 -0.746949,1.75825 -0.228642,0.60873 -0.53841,1.28542 -0.688375,1.50373 -0.405176,0.58986 -0.333363,1.15417 0.245418,1.92849 0.284945,0.38121 0.884183,1.30491 1.331643,2.05265 1.039975,1.7379 0.922962,1.94316 -0.986718,1.73089 -0.751344,-0.0835 -1.909403,-0.156 -2.573464,-0.16109 -1.182536,-0.009 -1.226117,0.0104 -2.117798,0.94555 -0.500728,0.52512 -1.258703,1.38492 -1.684391,1.91065 -0.425687,0.52573 -0.884054,0.95587 -1.018591,0.95587 -0.134536,0 -0.388133,-0.5207 -0.563548,-1.1571 z m -12.617199,-7.85896 c -0.501555,-0.50156 -0.814536,-0.64327 -1.420818,-0.64327 -0.98181,0 -1.12617,-0.23859 -0.694621,-1.14804 0.279981,-0.59003 0.303455,-0.85804 0.125841,-1.43678 -0.287783,-0.93771 -0.03179,-1.26842 0.797692,-1.03052 0.672944,0.193 1.36149,0.003 1.769598,-0.48903 0.393096,-0.47366 0.7999,-0.39388 0.919101,0.18027 0.05745,0.2767 0.152224,0.73256 0.210616,1.01302 0.05842,0.28063 0.329898,0.61188 0.603692,0.73663 0.538708,0.24546 0.71471,1.16827 0.222816,1.16827 -0.434161,0 -1.335136,0.79869 -1.335136,1.18356 0,0.19217 -0.124994,0.52035 -0.277765,0.72928 -0.266022,0.36382 -0.30496,0.35268 -0.921016,-0.26339 z m -0.300274,-15.67001 -0.995979,-1.1192 -1.561141,0.0904 c -1.913043,0.11075 -2.02226,-0.042 -1.066953,-1.49264 0.915064,-1.38949 0.933485,-1.63042 0.253121,-3.3106 -0.46205,-1.14105 -0.379376,-1.81487 0.193095,-1.5738 0.928564,0.39103 2.402444,0.62993 2.854521,0.46269 0.265738,-0.0983 0.879568,-0.54414 1.364065,-0.99075 0.988369,-0.91107 1.340114,-0.92731 1.414886,-0.0653 0.241146,2.77997 0.159508,2.59896 1.571485,3.48429 0.712434,0.44671 1.295335,0.89562 1.295335,0.99757 0,0.25898 -0.764174,0.72801 -1.669827,1.0249 -1.084402,0.35549 -1.486079,0.87855 -1.643744,2.14049 -0.09549,0.7643 -0.249025,1.15267 -0.511149,1.29295 -0.206064,0.11029 -0.403254,0.19552 -0.438199,0.1894 -0.03495,-0.006 -0.511728,-0.51477 -1.059516,-1.13033 z m 26.351021,-1.85329 c -0.332031,-0.17956 -0.908275,-0.54353 -1.280541,-0.80881 -0.842493,-0.60039 -1.448491,-0.58526 -2.793391,0.0697 -1.097628,0.53457 -1.5664,0.6289 -1.738824,0.3499 -0.05579,-0.0903 0.07915,-0.8691 0.299869,-1.73072 0.44157,-1.72374 0.435561,-1.74916 -0.717586,-3.03542 -1.477945,-1.64856 -1.429477,-1.79245 0.663634,-1.97008 0.737548,-0.0626 1.493555,-0.17304 1.680013,-0.24545 0.186458,-0.0724 0.71426,-0.76331 1.172892,-1.53533 0.458633,-0.77201 0.939951,-1.36973 1.069598,-1.32827 0.232949,0.0745 0.623525,0.77002 1.226345,2.18379 0.461116,1.08144 0.69115,1.2034 3.184909,1.68855 0.426061,0.0829 0.553385,0.22252 0.553385,0.60691 0,0.27459 -0.06792,0.50112 -0.150924,0.5034 -0.08301,0.002 -0.603691,0.40097 -1.157075,0.886 l -1.006153,0.88186 v 1.86234 c 0,1.07884 -0.08466,1.88037 -0.20123,1.9052 -0.110677,0.0236 -0.472892,-0.10406 -0.804921,-0.28362 z M 28.662956,99.864366 c -0.940752,-0.704184 -2.111955,-1.527029 -2.602673,-1.828549 -0.80437,-0.494244 -0.952962,-0.523584 -1.509229,-0.298003 -1.590277,0.644906 -4.644328,1.621224 -5.071391,1.621224 -0.287898,0 -0.47577,-0.118715 -0.47577,-0.300638 0,-0.165352 0.423044,-1.568504 0.940098,-3.118118 1.065437,-3.193126 1.085781,-2.981629 -0.467559,-4.86086 -1.372894,-1.660926 -2.330485,-3.180896 -2.206896,-3.502974 0.09086,-0.236785 0.682698,-0.291569 3.149884,-0.291569 1.670901,0 3.190518,-0.08186 3.376927,-0.181911 0.186408,-0.100051 1.018077,-1.184942 1.848152,-2.41087 1.48839,-2.198181 2.095767,-2.748932 2.435144,-2.208108 0.09425,0.150193 0.544097,1.450309 0.99966,2.889147 0.455563,1.438837 0.966891,2.724758 1.136282,2.857602 0.169392,0.132843 1.089184,0.485908 2.043982,0.784588 3.709761,1.160488 4.011178,1.293032 3.900761,1.715281 -0.05616,0.214776 -0.294549,0.491569 -0.529748,0.6151 -0.859715,0.451538 -3.776877,2.653887 -4.159386,3.140184 -0.3517,0.447125 -0.393472,0.82849 -0.393472,3.592251 0,2.815477 -0.03149,3.090877 -0.352153,3.079287 -0.193684,-0.007 -1.12186,-0.58888 -2.062613,-1.293064 z m 12.660938,-15.819069 -0.85898,-1.025987 -1.524215,0.07012 c -1.43206,0.06587 -1.519963,0.04578 -1.453854,-0.332358 0.0387,-0.22136 0.333,-0.759897 0.653999,-1.19675 0.688337,-0.936768 0.72639,-1.456279 0.181176,-2.473557 -0.221354,-0.413009 -0.402461,-0.967337 -0.402461,-1.23184 0,-0.421784 0.07075,-0.466765 0.575477,-0.365817 0.316511,0.0633 1.029453,0.175321 1.584316,0.24893 0.953895,0.126541 1.051465,0.09532 1.791446,-0.573225 0.430434,-0.388881 0.96226,-0.738611 1.181836,-0.777176 0.356016,-0.06253 0.417836,0.08886 0.571093,1.398508 l 0.171861,1.468626 1.068524,0.603054 c 0.894894,0.505062 1.485123,1.10952 1.260326,1.290713 -0.03028,0.0244 -0.611101,0.291032 -1.290726,0.59251 -1.204631,0.534367 -1.244234,0.576776 -1.576095,1.687645 -0.187227,0.626727 -0.375398,1.252698 -0.418156,1.391048 -0.153887,0.497938 -0.671921,0.233228 -1.515567,-0.774442 z M 53.967837,71.137902 c -2.680253,-3.449784 -2.593195,-3.362132 -3.375559,-3.398644 -0.384728,-0.01795 -2.07799,0.03958 -3.762807,0.127855 -2.802502,0.146837 -3.07464,0.130953 -3.196483,-0.186573 -0.08053,-0.209869 0.0323,-0.570913 0.285423,-0.913286 0.808566,-1.093675 2.800383,-4.140965 3.146357,-4.813625 0.192318,-0.373914 0.303478,-0.871973 0.247023,-1.106798 -0.164762,-0.685328 -0.696209,-2.050066 -1.225955,-3.148204 -0.270152,-0.560013 -0.549804,-1.285103 -0.621447,-1.611312 -0.07165,-0.326208 -0.213852,-0.644767 -0.316015,-0.707908 -0.102161,-0.06314 -0.185748,-0.390638 -0.185748,-0.727771 0,-0.592896 0.02471,-0.609517 0.754614,-0.507586 1.041026,0.145379 5.827585,1.421292 6.007712,1.601425 0.287485,0.287491 0.796839,0.138329 1.382681,-0.404909 0.569434,-0.528024 3.127042,-2.688701 4.463954,-3.771169 0.58122,-0.4706 0.663204,-0.487294 0.955845,-0.194644 0.239249,0.239253 0.321662,0.735803 0.326287,1.965928 0.0074,1.955 0.148033,4.254028 0.305649,4.99498 0.07529,0.353933 0.462788,0.762376 1.15834,1.220947 0.574861,0.379001 1.657319,1.113145 2.405465,1.631433 0.748142,0.518286 1.427295,0.94279 1.509228,0.94334 0.08193,6.03e-4 0.420628,0.22018 0.752658,0.488069 0.434981,0.35095 0.543001,0.54915 0.386522,0.709205 -0.210423,0.215233 -4.243579,1.820266 -4.573997,1.820266 -0.313515,0 -2.34547,1.033145 -2.498655,1.270436 -0.149764,0.231993 -0.357765,1.052698 -0.953062,3.760463 -0.874457,3.97756 -1.003633,4.014197 -3.37803,0.958082 z M 23.36206,68.972404 c -0.429129,-0.481636 -0.701612,-0.603708 -1.347577,-0.603708 -0.969758,0 -1.119386,-0.264714 -0.707224,-1.251181 0.236365,-0.565718 0.255507,-0.86499 0.08636,-1.350222 -0.313984,-0.900719 -0.105459,-1.301289 0.5803,-1.114748 0.82754,0.225112 1.177028,0.164205 1.830615,-0.319027 0.732883,-0.541857 0.96138,-0.417411 1.136469,0.618952 0.100153,0.592819 0.318372,0.946389 0.82047,1.329369 0.376215,0.28696 0.633489,0.603522 0.57172,0.703471 -0.06177,0.09995 -0.468379,0.363381 -0.903576,0.585407 -0.531401,0.271109 -0.791269,0.538868 -0.791269,0.8153 0,0.479899 -0.344631,1.190095 -0.577508,1.190095 -0.08849,0 -0.402939,-0.271669 -0.698779,-0.603708 z m 124.52996,-4.366968 c -1.5816,-0.37068 -3.96418,-1.478299 -5.41311,-2.516452 -0.43164,-0.309271 -0.87138,-0.562311 -0.97719,-0.562311 -0.52024,0 -2.06327,-1.408065 -3.75607,-3.427523 -2.39729,-2.859899 -6.86988,-7.08461 -9.91656,-9.366978 -2.13134,-1.59665 -1.92943,-1.803519 1.05865,-1.084621 4.48259,1.078467 10.27466,2.912071 12.9421,4.097102 0.65016,0.288841 1.25045,0.525165 1.33399,0.525165 0.12792,0 1.4274,0.617912 5.049,2.400839 0.71798,0.353462 0.74991,0.865652 0.0813,1.30377 -2.13325,1.397798 -2.04308,4.777059 0.17821,6.678451 0.72871,0.623765 1.81605,1.228632 2.83499,1.577058 0.33218,0.113588 0.34857,0.166207 0.10061,0.32302 -0.29951,0.189424 -2.774,0.226359 -3.51589,0.05248 z m 3.94568,-1.528264 c -1.65505,-0.565845 -3.10664,-1.88125 -3.43269,-3.110643 -0.34387,-1.296647 0.0412,-2.379811 1.02437,-2.881402 0.97631,-0.498085 1.15414,-0.488243 1.88356,0.104246 l 0.60369,0.490365 -0.35216,0.631742 c -0.432,0.774989 -0.44528,1.124034 -0.0485,1.276276 0.49123,0.188508 1.19679,-0.186895 1.82642,-0.971768 l 0.58783,-0.732779 3.37,2.231774 c 1.85349,1.227475 3.36998,2.309235 3.36998,2.40391 0,0.282404 -0.56846,0.416301 -1.77722,0.418609 -0.62734,0.0012 -1.58514,0.137033 -2.12845,0.301854 -1.40924,0.427524 -3.39294,0.362223 -4.92678,-0.162184 z M 30.585633,56.842639 c -0.169751,-0.259081 -0.400191,-0.963812 -0.512089,-1.566068 -0.200737,-1.080412 -0.730567,-1.799337 -1.326068,-1.799337 -0.150346,0 -0.633068,-0.187497 -1.072716,-0.416661 -1.029237,-0.536483 -0.917496,-0.806841 0.709548,-1.716761 1.361413,-0.761367 1.382034,-0.796296 1.564825,-2.650727 0.05754,-0.583706 0.159394,-1.149927 0.226351,-1.258269 0.167407,-0.270877 0.725138,0.05044 1.434657,0.826531 0.618789,0.676846 1.779563,1.278446 2.092979,1.084738 0.106105,-0.06558 0.645562,-0.190788 1.198793,-0.278244 1.458862,-0.230622 1.578381,0.03113 0.766249,1.678089 l -0.657563,1.333505 0.74429,1.431961 c 0.409361,0.787579 0.696247,1.509699 0.637528,1.604711 -0.05871,0.09501 -0.851157,0.115529 -1.760974,0.04559 l -1.654211,-0.127156 -1.041479,1.139576 -1.04148,1.139576 z"
       id="path3311" />
  </g>
</svg>
