<?xml version="1.0" encoding="UTF-8" standalone="no"?>
<!-- Created with Inkscape (http://www.inkscape.org/) -->

<svg
   width="210mm"
   height="297mm"
   viewBox="0 0 210 297"
   version="1.1"
   id="svg2443"
   inkscape:version="1.3 (0e150ed6c4, 2023-07-21)"
   sodipodi:docname="Herz-Schmetterling.svg"
   xmlns:inkscape="http://www.inkscape.org/namespaces/inkscape"
   xmlns:sodipodi="http://sodipodi.sourceforge.net/DTD/sodipodi-0.dtd"
   xmlns="http://www.w3.org/2000/svg"
   xmlns:svg="http://www.w3.org/2000/svg">
  <sodipodi:namedview
     id="namedview2445"
     pagecolor="#ffffff"
     bordercolor="#666666"
     borderopacity="1.0"
     inkscape:pageshadow="2"
     inkscape:pageopacity="0.0"
     inkscape:pagecheckerboard="0"
     inkscape:document-units="mm"
     showgrid="false"
     inkscape:zoom="0.23496321"
     inkscape:cx="306.43095"
     inkscape:cy="510.71825"
     inkscape:window-width="1366"
     inkscape:window-height="705"
     inkscape:window-x="-8"
     inkscape:window-y="-8"
     inkscape:window-maximized="1"
     inkscape:current-layer="layer1"
     inkscape:showpageshadow="2"
     inkscape:deskcolor="#d1d1d1" />
  <defs
     id="defs2440" />
  <g
     inkscape:label="Ebene 1"
     inkscape:groupmode="layer"
     id="layer1">
    <path
       style="fill:none;stroke:#000000;stroke-width:0.264583;stroke-opacity:1"
       d="m 95.457094,231.57516 c -0.06704,-0.11236 -0.193386,-0.63565 -0.280697,-1.16286 -0.238761,-1.44178 -1.070261,-3.73879 -1.734057,-4.7903 l -0.589875,-0.93441 2.842652,-2.84263 2.84266,-2.84264 0.598852,0.38316 c 1.153001,0.73771 2.993121,1.62095 3.692451,1.77234 0.95153,0.20598 0.88769,0.42928 -0.21709,0.75933 -3.619049,1.0812 -5.411871,3.22543 -6.532323,7.81273 -0.27534,1.12727 -0.555496,1.95765 -0.622573,1.84528 z m -12.625566,-4.14478 c -0.06769,-0.34015 -0.185012,-1.00923 -0.2607,-1.48684 -0.305545,-1.928 -1.435906,-6.09315 -2.051433,-7.5591 -0.870389,-2.07293 -2.840744,-4.76752 -4.447171,-6.08179 -1.439044,-1.17732 -3.936206,-2.43717 -6.350004,-3.20365 -0.865663,-0.27488 -1.573933,-0.57639 -1.573933,-0.67001 0,-0.0936 0.268654,-0.22787 0.597009,-0.29833 2.77255,-0.5949 7.652569,-2.77167 7.652569,-3.41347 0,-0.4017 -1.985016,-3.23038 -3.689635,-5.2578 l -1.782898,-2.12052 2.62772,-2.63402 c 1.445246,-1.44872 2.627718,-2.72884 2.627718,-2.84473 0,-0.11588 -1.210515,0.9969 -2.69003,2.47286 -1.479516,1.47595 -2.788972,2.6224 -2.9099,2.54766 -0.120926,-0.0748 -1.914019,-2.06533 -3.984648,-4.42355 -2.070631,-2.35821 -5.328294,-6.03963 -7.23925,-8.18091 -1.910959,-2.14129 -3.861795,-4.33936 -4.335182,-4.88459 -0.473395,-0.54524 -1.697642,-1.91941 -2.720543,-3.05372 -1.022909,-1.1343 -2.533244,-2.82519 -3.356301,-3.7575 l -1.496461,-1.69514 2.368002,-2.37535 c 1.3024,-1.30645 2.281297,-2.37536 2.17532,-2.37536 -0.105978,0 -1.159262,0.9525 -2.340629,2.11665 -1.181367,1.16416 -2.272797,2.11666 -2.425388,2.11666 -0.240395,0 -2.611358,-2.61135 -13.600452,-14.9794 -2.86721,-3.227 -5.393119,-6.25634 -7.572468,-9.08174 l -1.814097,-2.35186 1.059463,-1.12149 1.059455,-1.12147 -0.985141,0.92251 c -0.541826,0.50738 -1.08823,0.9225 -1.214237,0.9225 -0.244701,0 -4.432183,-6.26161 -5.879864,-8.79225 -1.705929,-2.98208 -4.837853,-9.4285 -4.837853,-9.95771 0,-0.13356 2.852884,2.58959 6.339746,6.05145 3.486861,3.46185 6.148984,6.06301 5.915818,5.78035 -0.233165,-0.28266 -3.231345,-3.34972 -6.662617,-6.8157 l -6.238674,-6.30178 -1.319435,-4.00494 c -1.235283,-3.74953 -2.5854294,-8.93367 -2.5912474,-9.94959 -0.0016,-0.30335 2.3277974,-2.76344 7.1699334,-7.57175 3.94488,-3.917316 7.213731,-7.081179 7.264103,-7.030803 0.05038,0.05038 -0.0066,1.015373 -0.12576,2.144435 -0.293785,2.774598 -0.289051,10.187498 0.0084,13.124568 0.850544,8.39906 3.634989,17.31301 7.502494,24.01808 0.564251,0.97824 0.914889,1.82374 0.838688,2.02233 -0.08705,0.22684 -0.03184,0.30741 0.164578,0.24029 0.187742,-0.0642 0.728903,0.5882 1.483685,1.78855 2.025889,3.22183 7.89973,10.89984 14.898061,19.47404 0.682191,0.83581 -2.9015,-2.5834 -7.963755,-7.59824 -5.062247,-5.01484 -8.415595,-8.28751 -7.451869,-7.2726 0.963726,1.01491 5.798641,5.92976 10.744253,10.9219 4.945603,4.99215 9.022373,9.16184 9.059476,9.266 0.03709,0.10415 -0.08501,0.48422 -0.271368,0.84459 -0.421186,0.81447 -0.421219,0.89387 -4.35e-4,0.89387 0.18615,0 0.286794,0.0836 0.223664,0.18573 -0.0631,0.10215 0.135466,0.13789 0.441337,0.0794 0.406827,-0.0778 0.477916,-0.15588 0.264796,-0.29096 -0.221251,-0.14022 -0.195052,-0.18544 0.108907,-0.18797 0.223089,-0.002 0.451922,0.1943 0.516997,0.44315 0.06515,0.2492 0.240255,0.39907 0.396267,0.3392 0.167008,-0.0641 1.761043,1.65677 3.960216,4.2753 5.697584,6.78405 6.296811,7.49265 8.249862,9.75561 1.004729,1.16415 1.863261,2.11665 1.907847,2.11665 0.124873,0 -2.225306,-3.58128 -3.704212,-5.6446 -0.72752,-1.01501 -1.405044,-1.99193 -1.505609,-2.17093 -0.100565,-0.17899 2.373363,2.21454 5.497614,5.31897 6.540391,6.49888 8.218924,8.66111 13.229487,17.04177 0.152051,0.25431 0.272558,0.14048 0.550234,-0.51981 l 0.355546,-0.84544 1.521778,1.49522 c 1.189837,1.16906 1.729613,1.92244 2.47458,3.4538 1.848744,3.80028 4.088335,6.09697 7.437634,7.62725 0.932891,0.42623 2.064551,1.12838 2.5148,1.56032 l 0.818626,0.78536 -1.819612,0.56722 c -2.714102,0.84605 -4.552521,1.96326 -6.552575,3.98201 -1.259029,1.2708 -1.995277,2.24702 -2.656481,3.52231 -1.071546,2.06676 -2.252875,5.50754 -2.785596,8.11345 -0.425114,2.07952 -0.639731,2.49746 -0.819261,1.59538 z m 9.090319,-3.54727 c -0.60453,-0.668 -2.048797,-1.44189 -3.452411,-1.84993 -0.897857,-0.26102 -1.18559,-0.42655 -0.97417,-0.56045 0.165024,-0.10451 0.44658,-0.1916 0.625683,-0.19353 0.578419,-0.007 2.93803,-1.23004 3.755606,-1.94788 1.488632,-1.30702 2.60732,-3.61177 3.19338,-6.57908 0.267561,-1.35471 0.521707,-1.46452 0.709613,-0.30658 0.253637,1.56296 1.046721,3.79005 1.788104,5.02122 l 0.775467,1.28778 -2.774197,2.78035 c -1.525802,1.52919 -2.88257,2.78034 -3.015033,2.78034 -0.132472,0 -0.416887,-0.19451 -0.632042,-0.43224 z m 10.199743,-6.30075 c -0.0847,-0.13701 -0.18663,-0.72965 -0.22659,-1.317 -0.0703,-1.03349 -0.0538,-1.06779 0.51213,-1.06458 0.35132,0.002 0.48101,0.0693 0.32486,0.16855 -0.15331,0.0975 -0.18698,0.28322 -0.0821,0.45291 0.16562,0.26797 -0.0317,1.66659 -0.26854,1.90342 -0.0582,0.0582 -0.17507,-0.007 -0.25975,-0.1433 z m 0.1571,-3.89744 -0.93031,-0.11566 -0.62296,-1.80337 c -1.325702,-3.83774 -3.799828,-6.43333 -7.3074,-7.66613 -1.658536,-0.58292 -2.12974,-0.84383 -1.901145,-1.05264 0.102367,-0.0935 0.986453,-0.43253 1.96462,-0.75337 4.615617,-1.51391 7.030655,-4.39654 8.559435,-10.21665 0.37636,-1.43282 0.7633,-2.69252 0.85988,-2.79934 0.18755,-0.20744 0.20722,-0.13684 0.7487,2.68738 0.72354,3.77374 2.43328,7.07264 4.52927,8.7391 0.97079,0.77184 2.62094,1.64598 4.79874,2.54204 l 0.65058,0.26768 -0.49148,0.39797 c -0.27031,0.21888 -1.12638,0.60926 -1.90239,0.86749 -1.70946,0.56887 -3.72586,1.87885 -4.78206,3.10673 -0.96892,1.1264 -2.16291,3.23061 -2.62534,4.62672 -0.19245,0.58101 -0.41019,1.10844 -0.48387,1.17205 -0.0737,0.0636 -0.55261,0.0636 -1.06427,0 z m -5.039785,-4.67461 c -0.581014,-0.61845 -0.546397,-0.63189 0.772242,-0.29986 1.003504,0.25269 1.207287,0.4859 0.621112,0.71082 -0.59479,0.22825 -0.868767,0.14744 -1.393354,-0.41096 z m 28.547875,-0.9648 c -0.96776,-0.22854 -1.49316,-0.5608 -2.25018,-1.423 -0.94605,-1.07748 -1.3449,-2.13153 -1.4856,-3.92592 -0.1485,-1.89416 0.1771,-3.84115 1.14102,-6.82282 0.614,-1.89927 0.88793,-2.43267 1.61291,-3.14059 0.92451,-0.90275 1.24502,-1.62371 0.34664,-0.77973 -0.28967,0.27212 -0.62609,0.43332 -0.7476,0.35823 -0.12151,-0.0751 -0.46711,0.28101 -0.768,0.79135 -0.30088,0.51034 -1.86946,2.24538 -3.48573,3.85563 l -2.93868,2.92773 v -0.77168 c 0,-1.47655 0.59733,-2.86242 1.95728,-4.54106 2.39429,-2.95537 3.28033,-4.12475 3.12536,-4.12475 -0.0842,0 -0.60274,0.41878 -1.15243,0.93062 -2.57822,2.4007 -5.99808,4.32784 -8.65507,4.87724 -2.14572,0.44368 -3.78931,0.16279 -4.9354,-0.84347 -1.25271,-1.09989 -1.52337,-2.19324 -1.49764,-6.04986 0.0341,-5.10794 0.9311,-7.89087 2.83468,-8.79433 0.75662,-0.3591 1.02366,-0.37172 2.89587,-0.13691 1.13432,0.14227 2.98087,0.45155 4.10347,0.68729 1.12258,0.23574 2.13361,0.42862 2.24672,0.42862 0.11311,0 -0.36575,-0.43038 -1.06415,-0.95639 -2.33266,-1.7569 -5.81059,-5.01429 -6.43897,-6.03066 -0.43494,-0.70349 -0.65732,-1.4018 -0.74127,-2.32773 -0.066,-0.72752 -0.0336,-1.32276 0.072,-1.32276 0.10552,0 3.75432,3.54133 8.10842,7.86961 4.3541,4.32828 7.84417,7.77712 7.7557,7.66409 -0.0885,-0.11303 -3.68701,-3.76016 -7.99677,-8.1047 l -7.83591,-7.89919 0.13819,-1.0082 c 0.19732,-1.43954 1.23348,-3.51751 2.82684,-5.66908 1.81655,-2.45292 2.20387,-3.26728 2.95059,-6.20373 0.68332,-2.68712 1.30614,-4.13392 2.03054,-4.71694 1.64156,-1.32117 4.36585,0.96661 6.65098,5.58531 2.13654,4.31835 2.59864,7.21034 2.76193,17.28506 0.11501,7.09593 0.14363,7.5102 0.51231,7.41379 0.21476,-0.0562 0.53591,-0.26334 0.71364,-0.46039 0.3476,-0.38537 2.093,-9.45351 2.093,-10.87406 0,-0.906 0.38143,-1.39962 0.85522,-1.1068 0.24773,0.15311 0.22208,0.43447 -0.1522,1.67005 -0.24756,0.81726 -0.75646,3.29322 -1.13087,5.50215 -0.37442,2.20891 -0.73099,4.18717 -0.79237,4.39612 -0.0643,0.21876 0.003,0.37991 0.15984,0.37991 0.48785,0 8.31132,-4.40287 9.16644,-5.15865 0.45838,-0.40514 0.89132,-0.67869 0.96209,-0.60793 0.34544,0.34544 -1.69622,1.831 -5.39487,3.92544 -2.24752,1.2727 -4.17472,2.42741 -4.28267,2.56603 -0.34735,0.44602 -0.45512,1.25061 -0.18157,1.35558 0.14345,0.0551 0.83501,-0.0975 1.5368,-0.33891 0.70179,-0.24145 1.33062,-0.439 1.3974,-0.439 0.0668,0 -0.40921,0.5373 -1.05776,1.19401 -0.64855,0.6567 -1.11395,1.19401 -1.03421,1.19401 0.0797,0 0.8091,-0.66398 1.62079,-1.47552 1.39174,-1.39146 1.61803,-1.52682 3.97239,-2.37638 3.12904,-1.12909 6.47881,-2.08972 9.00941,-2.58368 4.55093,-0.8883 12.01902,-0.23932 14.67027,1.27486 2.75611,1.57407 2.00241,3.77214 -2.13657,6.23106 -2.22818,1.32372 -3.37763,2.41877 -4.87236,4.64173 -2.66781,3.96758 -5.59142,6.01093 -8.6004,6.01093 -1.42083,0 -1.31392,0.0485 -6.37306,-2.8898 -1.99183,-1.15683 -3.67772,-2.10333 -3.74642,-2.10333 -0.0687,0 0.39949,0.7091 1.04044,1.57578 1.19148,1.61111 2.44666,3.85153 2.15778,3.85153 -0.0884,0 -1.7507,-1.61191 -3.69394,-3.58202 -1.94324,-1.97012 -3.60558,-3.58204 -3.69409,-3.58204 -0.0885,0 1.63108,1.79398 3.82133,3.98661 3.73333,3.7374 3.9944,4.05157 4.17641,5.02586 0.35197,1.88396 -0.24073,3.02854 -2.30153,4.44463 -2.94037,2.02047 -8.11074,3.71409 -9.98633,3.27115 z m -6.20646,-10.16119 c 0.93014,-0.92536 1.91536,-1.87785 2.18938,-2.11665 l 0.49821,-0.43418 -0.27739,0.54272 c -0.47175,0.92306 -1.76398,2.40293 -2.67361,3.06186 -1.57583,1.14152 -1.45423,0.65506 0.26341,-1.05375 z m -35.466845,-2.03552 -1.402345,-1.40234 0.328917,-1.40177 c 0.180905,-0.77098 0.431307,-1.87524 0.556449,-2.45391 0.125142,-0.57867 0.301986,-0.96944 0.39299,-0.86837 0.091,0.10106 0.283209,0.93985 0.427122,1.86396 0.143914,0.92411 0.490414,2.53602 0.769998,3.58203 0.279585,1.046 0.468033,1.94253 0.418775,1.99228 -0.04926,0.0497 -0.720618,-0.5406 -1.491906,-1.31188 z M 66.47094,176.50069 c -3.555653,-3.57768 -6.74169,-7.02367 -8.560218,-9.25865 -1.59315,-1.958 -4.417151,-5.3772 -6.275565,-7.59825 -8.100583,-9.68124 -11.67693,-14.28297 -15.142664,-19.48431 -2.645777,-3.97076 -3.370742,-5.21471 -3.126894,-5.36542 0.103812,-0.0642 1.0118,1.02027 2.017757,2.40983 4.24244,5.86021 8.926455,11.60222 18.55289,22.74349 10.545874,12.2054 18.799316,22.25199 18.28037,22.25199 -0.04514,0 -2.630699,-2.5644 -5.745676,-5.69868 z m 96.66825,3.06492 c -0.0646,-0.28274 -0.22087,-0.99845 -0.34725,-1.59046 -0.50768,-2.378 -2.27272,-4.52977 -4.30884,-5.25294 -0.61002,-0.21665 -1.10912,-0.46491 -1.10912,-0.55169 0,-0.0868 0.36635,-0.26195 0.8141,-0.3893 0.44776,-0.12734 1.15602,-0.41789 1.57394,-0.64565 l 0.75982,-0.41413 2.31036,2.29274 2.31037,2.29272 -0.39731,0.67831 c -0.21852,0.37307 -0.59639,1.40048 -0.83971,2.28314 -0.50826,1.84373 -0.60434,2.00636 -0.76636,1.29726 z m -23.45718,-1.92651 c 0.43194,-0.47728 0.66876,-0.42627 0.46662,0.10051 -0.0707,0.18425 -0.2933,0.33501 -0.49466,0.33501 -0.33408,0 -0.33164,-0.0381 0.0281,-0.43552 z m 25.26077,-2.88148 c -0.17174,-0.14577 -1.17574,-1.16319 -2.23113,-2.26095 l -1.91887,-1.99591 0.79178,-0.92501 c 0.72192,-0.84339 1.86805,-3.6942 1.86805,-4.64645 0,-0.17293 0.0753,-0.31443 0.16743,-0.31443 0.0921,0 0.27648,0.57389 0.40978,1.27531 0.57173,3.00838 2.17343,5.21074 4.37964,6.02208 1.3834,0.50875 1.50386,0.66476 0.65479,0.84812 -0.9949,0.21485 -2.19887,0.84837 -3.07619,1.61866 -0.59518,0.52257 -0.79175,0.59377 -1.04528,0.37858 z m -24.85883,-1.45924 c -1.20029,-0.47915 -1.51122,-2.33502 -0.73393,-4.38066 0.23596,-0.62102 0.39236,-1.16579 0.34756,-1.2106 -0.0448,-0.0448 -0.32893,0.24245 -0.63137,0.63834 -0.30244,0.3959 -0.85039,0.89675 -1.21766,1.11301 -0.57407,0.33804 -0.68509,0.34803 -0.7913,0.0712 -0.16538,-0.43094 0.22909,-1.15535 1.18383,-2.17404 0.43364,-0.46268 0.69075,-0.79992 0.57135,-0.74942 -0.1194,0.0505 -0.77853,0.36282 -1.46475,0.69404 -0.6862,0.33122 -1.77687,0.65684 -2.42371,0.72359 -1.07098,0.11054 -1.22875,0.0687 -1.76551,-0.46805 -0.56102,-0.56101 -0.58231,-0.65918 -0.44169,-2.03655 0.3313,-3.24494 0.92176,-4.30374 2.27257,-4.0751 0.43108,0.073 1.17454,0.19553 1.65215,0.27236 l 0.86838,0.13968 -1.2372,-1.30658 c -1.90957,-2.01667 -1.9307,-2.821 -0.143,-5.44426 0.61375,-0.90062 1.39803,-2.25971 1.74286,-3.02021 0.34484,-0.7605 0.78208,-1.44225 0.97166,-1.51499 1.12896,-0.43322 2.45887,1.36097 3.02918,4.08669 0.2842,1.35825 0.29833,2.10419 0.0936,4.93805 -0.29504,4.08336 -0.0673,4.61923 0.76276,1.7945 0.4278,-1.45587 0.6289,-1.3472 0.28266,0.15276 -0.14182,0.61439 -0.20636,1.16856 -0.14343,1.23148 0.0629,0.0629 0.95388,-0.28838 1.97989,-0.7807 1.02601,-0.49231 1.9921,-0.8529 2.14685,-0.80131 0.15477,0.0516 -0.7195,0.56458 -1.94281,1.13999 -1.2233,0.5754 -2.22419,1.17117 -2.22419,1.32392 0,0.2116 0.16799,0.22782 0.70555,0.0681 3.21856,-0.95612 4.91271,-1.27974 6.69942,-1.27974 1.06154,0 1.92661,0.0733 1.92238,0.16282 -0.004,0.0895 -0.14731,0.40704 -0.31794,0.70554 -0.40227,0.7037 -0.39984,0.86838 0.0128,0.86838 0.18615,0 0.28165,0.0919 0.21223,0.20423 -0.0749,0.12114 0.18488,0.15375 0.63846,0.0802 0.49722,-0.0807 0.7647,-0.0382 0.7647,0.12141 0,0.13502 0.10966,0.24549 0.24367,0.24549 0.41727,0 -0.22437,-0.61531 -0.7479,-0.71723 -0.33095,-0.0644 -0.26578,-0.10088 0.21736,-0.12158 0.37953,-0.0162 0.83658,0.11698 1.01569,0.29608 0.38084,0.38084 0.57375,0.41499 0.57375,0.10155 0,-0.12325 -0.19746,-0.29714 -0.43879,-0.38641 -0.39433,-0.14587 -0.4071,-0.20565 -0.12604,-0.59001 0.30798,-0.42119 0.32139,-0.41956 0.882,0.1071 0.57249,0.53781 0.68605,1.47077 0.16614,1.36477 -0.14642,-0.0299 -0.26622,0.0898 -0.26622,0.2658 0,0.17603 -0.27692,0.46326 -0.61538,0.63829 -0.33846,0.17501 -1.3398,0.98946 -2.22521,1.80987 -2.17751,2.01767 -2.51862,2.2249 -3.66219,2.2249 h -0.97882 l 2.16279,-2.17093 c 1.18954,-1.19401 2.05066,-2.17092 1.9136,-2.17092 -0.13706,0 -0.28449,0.0733 -0.32762,0.16281 -0.0432,0.0896 -0.97075,1.03146 -2.06138,2.09311 l -1.98295,1.93029 -1.25682,-0.89159 c -0.69125,-0.49038 -1.28809,-0.86032 -1.32631,-0.8221 -0.0382,0.0382 0.17587,0.59656 0.47576,1.24078 0.67395,1.44776 0.68617,1.95044 0.061,2.50873 -0.52089,0.46517 -2.23614,1.22537 -3.31069,1.46729 -0.3582,0.0807 -0.79782,0.18374 -0.97692,0.22909 -0.1791,0.0454 -0.535,-8.2e-4 -0.79087,-0.10327 z m 16.42165,-11.0999 c -0.41791,-0.12248 -0.83192,-0.29203 -0.92002,-0.37676 -0.0881,-0.0847 2.77347,-3.0794 6.35907,-6.65481 l 6.51925,-6.50077 0.86524,1.59457 c 2.41862,4.45733 2.15829,6.28068 -1.21075,8.48 -1.96492,1.2827 -4.15216,2.21243 -6.85534,2.91398 -2.63624,0.68418 -3.81775,0.81924 -4.75745,0.54379 z m -2.21151,-1.437 c -1.03572,-1.08105 -1.40292,-1.8608 -1.71194,-3.63532 -0.46167,-2.65109 0.2206,-5.52201 3.03421,-12.76758 0.43237,-1.11346 -0.16019,-0.39504 -2.02728,2.45786 -2.07523,3.17093 -3.28385,4.44313 -5.03631,5.30122 -1.59627,0.78161 -1.77894,0.59801 -1.30715,-1.3138 0.49385,-2.0012 1.02525,-2.81865 3.83609,-5.9011 1.33927,-1.46868 2.39926,-2.70278 2.35553,-2.74245 -0.0437,-0.0396 -1.00433,0.59412 -2.13468,1.4084 -3.89037,2.80255 -8.3083,4.80716 -10.64484,4.83005 -1.7677,0.0173 -2.30225,-0.26153 -4.15305,-2.16641 l -1.4394,-1.48145 -0.12732,-1.62981 c -0.1607,-2.05707 0.15695,-6.05178 0.63177,-7.94507 0.7692,-3.06708 1.82934,-4.62238 3.46241,-5.07961 1.69741,-0.47525 4.38636,-0.1784 7.43287,0.82054 1.46267,0.4796 2.6594,0.80169 2.6594,0.71576 0,-0.0859 -0.51288,-0.56977 -1.13975,-1.07519 -1.5442,-1.24506 -5.59017,-5.26252 -5.59017,-5.55079 0,-0.12759 2.19441,-2.42476 4.87648,-5.10481 2.68206,-2.68005 4.83668,-4.91261 4.78807,-4.96123 -0.0487,-0.0486 -2.29788,2.09612 -4.99835,4.76609 -2.70046,2.66997 -5.02188,4.85449 -5.1587,4.85449 -0.13681,0 -0.54354,-0.47679 -0.90383,-1.05955 -0.51704,-0.83629 -0.67144,-1.36235 -0.73274,-2.49657 -0.17688,-3.27317 1.0593,-6.4646 3.73715,-9.64805 0.88613,-1.05345 1.97281,-2.60359 2.41483,-3.44476 l 0.80369,-1.52939 2.47132,2.4643 c 1.35923,1.35536 2.47132,2.38478 2.47132,2.28759 0,-0.0972 -1.07462,-1.25301 -2.38804,-2.5685 -1.31341,-1.3155 -2.38803,-2.54269 -2.38803,-2.72711 0,-1.29953 1.81786,-5.752 2.66882,-6.536687 0.65465,-0.603682 1.73353,-0.671157 2.70433,-0.169134 1.69562,0.876831 4.56572,5.324111 5.30823,8.225221 l 0.26442,1.03314 -1.29384,1.35255 c -0.71162,0.7439 -0.90853,1.01167 -0.4376,0.59505 0.47093,-0.41662 1.04524,-0.98426 1.27623,-1.26143 0.23099,-0.27717 0.49409,-0.42371 0.58466,-0.32564 0.42134,0.45621 1.32549,5.42504 1.58664,8.71941 l 0.10915,1.37706 -0.54803,-0.50869 c -0.30141,-0.27977 -1.30587,-1.26579 -2.23212,-2.19114 -0.92625,-0.92536 -1.76865,-1.68247 -1.87199,-1.68247 -0.10334,0 0.92508,1.11612 2.28538,2.48028 l 2.47326,2.48029 -0.137,4.52095 c -0.0753,2.48652 -0.23784,5.40017 -0.36109,6.47479 -0.43902,3.82801 -0.44077,3.58202 0.0254,3.58202 1.00989,0 1.36292,-0.79722 2.54916,-5.75662 1.35371,-5.65948 1.28923,-5.44186 1.53715,-5.18858 0.11561,0.11809 -0.24594,2.2623 -0.88855,5.26965 -0.59591,2.78878 -1.03036,5.12363 -0.96545,5.18853 0.0649,0.0649 1.93578,-0.77588 4.15749,-1.86841 2.22172,-1.09253 4.12834,-1.98642 4.23694,-1.98642 0.75227,0 -0.30841,0.68527 -3.65598,2.36201 -2.11938,1.06157 -4.01677,2.11227 -4.21642,2.3349 -0.4441,0.49521 -0.7199,1.50766 -0.45523,1.67123 0.10662,0.0659 2.48358,-0.65544 5.28212,-1.60297 2.79854,-0.94754 5.34273,-1.7235 5.65377,-1.72433 0.40139,-8.2e-4 0.87907,0.32923 1.64591,1.1382 0.59422,0.62685 1.26782,1.28069 1.49688,1.45297 0.22906,0.17229 -0.21467,-0.33956 -0.98608,-1.13743 -0.84523,-0.87423 -1.3197,-1.52369 -1.19402,-1.63441 0.74122,-0.65306 10.73761,-1.94777 10.73761,-1.39072 0,0.0918 -0.97376,1.13699 -2.16392,2.32268 -1.19015,1.18568 -2.12751,2.19218 -2.08302,2.23667 0.0445,0.0445 1.1892,-1.01403 2.54382,-2.35227 l 2.46292,-2.43315 2.38805,0.13083 c 2.65144,0.14525 4.44016,0.51908 6.59337,1.37798 2.04268,0.81481 2.94648,1.4754 3.5329,2.58224 l 0.51136,0.96519 -0.43419,0.80498 c -0.53276,0.98773 -2.40729,2.52153 -4.45043,3.64149 -2.68906,1.47402 -4.20757,2.8997 -6.35688,5.96826 l -0.37579,0.53652 -3.36358,-3.35831 c -1.84998,-1.84707 -3.36359,-3.26294 -3.36359,-3.14639 0,0.11656 1.47469,1.68891 3.27709,3.49412 l 3.27709,3.28219 -1.10549,1.10549 c -1.2784,1.27838 -3.38266,2.51947 -5.30232,3.12729 -1.60948,0.50961 -3.14583,0.42176 -4.474,-0.25581 -1.24424,-0.63476 -5.8758,-3.66751 -5.8758,-3.84748 0,-0.08 1.46539,-1.57891 3.25642,-3.33089 1.79103,-1.75199 3.25641,-3.27194 3.25641,-3.37767 0,-0.10572 -1.54051,1.34602 -3.42336,3.2261 l -3.42337,3.41833 -1.25613,-0.78571 c -0.69086,-0.43213 -1.29702,-0.7448 -1.34702,-0.6948 -0.05,0.05 0.22404,0.69495 0.60897,1.43323 l 0.69988,1.34232 -6.51282,6.51204 c -3.58206,3.58162 -6.56627,6.51331 -6.63159,6.51487 -0.0653,0.002 -0.46975,-0.36351 -0.89873,-0.81126 z m 0.0405,-46.60784 c 0,-0.0526 -0.0977,-0.15611 -0.21709,-0.22991 -0.1194,-0.0738 -0.21709,-0.0307 -0.21709,0.0957 0,0.12645 0.0977,0.22991 0.21709,0.22991 0.1194,0 0.21709,-0.0431 0.21709,-0.0957 z m -1.01344,-0.34178 c 0.14551,-0.002 0.11481,-0.093 -0.072,-0.21377 -0.24793,-0.16022 -0.16098,-0.21123 0.36441,-0.21376 0.37953,-0.002 0.83658,0.14321 1.01569,0.32231 0.1791,0.1791 0.37839,0.32564 0.44288,0.32564 0.0645,0 0.061,-0.14654 -0.007,-0.32564 -0.0688,-0.1791 -0.26448,-0.32564 -0.43501,-0.32564 -0.24383,0 -0.25991,-0.0937 -0.0753,-0.43867 0.33459,-0.62518 0.0948,-0.86388 -0.86783,-0.86388 -0.64869,0 -0.94221,0.13017 -1.28975,0.572 -0.53728,0.68303 -0.56841,0.94764 -0.11149,0.94764 0.20312,0 0.27568,0.10156 0.18148,0.25399 -0.10703,0.17316 -0.0363,0.2077 0.22203,0.10855 0.20846,-0.08 0.49313,-0.14694 0.63262,-0.14877 z m -17.08218,32.90323 c -0.31594,-0.2928 -0.57444,-0.60415 -0.57444,-0.69189 0,-0.0877 0.29308,0.12125 0.65129,0.46444 0.3582,0.34318 0.65128,0.65453 0.65128,0.69189 0,0.15669 -0.18581,0.0382 -0.72813,-0.46444 z M 32.663831,134.02498 c -0.190975,-0.3693 -0.263533,-0.67146 -0.161239,-0.67146 0.249313,0 0.800977,1.0504 0.637506,1.21386 -0.07097,0.071 -0.285293,-0.1731 -0.476267,-0.5424 z m 138.182279,-4.52485 c 0.0244,-0.32243 2.55857,-2.00811 3.01897,-2.00811 0.38091,0 0.45794,0.10879 0.40239,0.56834 -0.0583,0.48296 -0.28068,0.64548 -1.47981,1.08186 -1.48225,0.53942 -1.96193,0.62784 -1.94155,0.35791 z m 15.93396,-1.07658 c -0.58577,-2.70005 -1.00631,-3.61091 -2.2316,-4.83339 -0.84635,-0.8444 -1.58835,-1.35664 -2.37148,-1.63716 -0.62687,-0.22454 -1.13975,-0.46638 -1.13975,-0.53743 0,-0.0711 0.44988,-0.24951 0.99974,-0.39657 1.32931,-0.35553 2.75019,-1.36043 3.53361,-2.49908 0.63054,-0.91645 1.54529,-3.32957 1.54529,-4.0765 0,-0.75971 0.41498,-0.62398 0.54982,0.17983 0.58008,3.45824 2.05533,5.6252 4.42175,6.49495 1.34216,0.4933 1.50473,0.67696 0.75855,0.857 -1.1049,0.26659 -2.55823,1.11261 -3.39101,1.97398 -0.78336,0.81027 -1.69719,2.69579 -2.0052,4.13736 -0.19924,0.93248 -0.50695,1.08732 -0.66972,0.33701 z m -22.95532,-5.87039 c -0.0483,-0.0896 -0.0295,-0.70012 0.0414,-1.35682 0.10883,-1.00624 0.19743,-1.19401 0.56333,-1.19401 0.56582,0 0.69233,0.82482 0.23384,1.52456 -0.18831,0.2874 -0.34238,0.67252 -0.34238,0.85582 0,0.34308 -0.34033,0.45999 -0.49625,0.17045 z m 11.35094,-2.42597 c -1.58268,-0.4897 -4.62996,-2.59442 -7.1269,-4.92247 -1.15586,-1.07767 -1.39233,-1.42263 -1.48992,-2.1734 -0.15935,-1.22598 0.27155,-2.03991 2.45337,-4.63414 1.00187,-1.19124 1.82158,-2.20587 1.82158,-2.25474 0,-0.0489 -1.48344,0.38752 -3.29652,0.96974 -2.41591,0.77581 -3.63951,1.0586 -4.58044,1.0586 -1.20284,0 -2.60226,-0.43645 -2.88947,-0.90116 -0.1211,-0.19594 10.86678,-11.25603 11.18253,-11.25603 0.0909,0 1.31279,0.788799 2.71528,1.752886 1.42409,0.978943 2.6856,1.700841 2.85716,1.635007 0.83204,-0.319282 0.15808,-1.204594 -3.1216,-4.100509 -0.80397,-0.709888 -1.02688,-1.241539 -0.52037,-1.241083 0.0825,7.5e-5 1.07255,0.830455 2.2001,1.845287 1.12754,1.014834 2.12888,1.845153 2.2252,1.845153 0.0963,0 0.17513,-2.289989 0.17513,-5.088864 0,-3.430314 0.0769,-5.136406 0.23602,-5.234728 0.60126,-0.371598 0.66213,0.367068 0.40579,4.924326 -0.23157,4.116594 -0.22252,4.731187 0.0802,5.453539 0.18768,0.447754 0.44206,0.814098 0.56527,0.814098 0.26652,0 0.28844,-0.09025 1.0017,-4.124761 0.30608,-1.731314 0.61328,-3.377927 0.68266,-3.659139 0.1137,-0.460858 0.51911,-0.118768 4.10957,3.46774 3.82383,3.819608 3.96401,3.989832 3.49852,4.248452 -0.46046,0.255822 -0.44646,0.269804 0.27738,0.277106 0.69251,0.007 1.08718,0.333027 4.31143,3.5617 l 3.54913,3.554 -0.15245,0.95067 c -0.35927,2.2404 -1.07146,4.60729 -1.5616,5.18978 -0.28428,0.33785 -0.94962,0.77954 -1.47852,0.98153 -1.28501,0.49075 -2.53814,0.28634 -4.1333,-0.6742 -1.75877,-1.05907 -4.63911,-3.53324 -5.63776,-4.84275 -0.46358,-0.60787 -0.87107,-1.07703 -0.90555,-1.04255 -0.0345,0.0345 0.51974,1.61981 1.23158,3.52297 0.99179,2.6516 1.26404,3.62519 1.16496,4.16585 -0.15049,0.82113 -0.20364,0.83653 -1.02296,0.29634 -1.02513,-0.67587 -2.04004,-2.34696 -2.76591,-4.55417 -0.37841,-1.15067 -0.78454,-2.18982 -0.90251,-2.30922 -0.14178,-0.14351 -0.17415,-0.0699 -0.0955,0.21709 0.0655,0.2388 0.18207,1.36226 0.25918,2.49657 0.23283,3.42555 -0.39797,6.8735 -1.53345,8.38178 -0.80613,1.0708 -2.65334,1.75512 -3.78909,1.4037 z m -80.9642,-9.09 c -0.540062,-2.00562 -1.980703,-8.57452 -1.920264,-8.75583 0.03676,-0.11022 0.56905,0.31501 1.182917,0.94495 l 1.116112,1.14535 0.449387,3.5591 c 0.247163,1.95751 0.397727,3.64269 0.334589,3.74485 -0.06318,0.10216 -0.300653,0.18574 -0.527812,0.18574 -0.294449,0 -0.47671,-0.23658 -0.634929,-0.82416 z M 8.4589916,107.03104 c -0.150228,-0.98506 -0.322002,-3.40293 -0.381711,-5.37304 -0.211249,-6.969626 1.046573,-12.862812 4.0080434,-18.778516 0.960698,-1.919051 3.528093,-5.955391 4.078706,-6.412356 0.214622,-0.17812 1.329585,0.824366 4.764565,4.283919 l 4.484376,4.516457 -0.553772,2.06238 c -0.304575,1.134309 -0.744821,3.185835 -0.978339,4.558946 l -0.424567,2.496565 -7.273489,7.218335 c -4.000429,3.97008 -7.3133674,7.21833 -7.3620894,7.21833 -0.04874,0 -0.211495,-0.80596 -0.361723,-1.79102 z m 90.8008374,-0.30115 c -0.172415,-0.44929 0.925611,-11.697277 1.480571,-15.166699 1.00113,-6.258803 2.58557,-9.61145 6.34129,-13.418043 1.54821,-1.569183 5.44416,-4.711725 6.62445,-5.343391 0.34802,-0.186252 0.73998,0.1171 2.66232,2.060453 1.23982,1.253374 2.25422,2.359408 2.25422,2.457856 0,0.09844 -0.78154,0.770414 -1.73676,1.493261 -4.73101,3.580139 -8.72954,8.544766 -11.49141,14.267888 -0.87742,1.81819 -5.11629,13.363535 -5.11629,13.935165 0,0.25486 -0.908754,-9e-4 -1.018391,-0.28649 z m 59.058581,-1.01557 c -0.58935,-0.64584 -1.28372,-1.72119 -1.57704,-2.4423 -1.12507,-2.76591 -2.81439,-5.360405 -5.14199,-7.897158 -1.78689,-1.947458 -1.97288,-2.58324 -1.06968,-3.656628 0.75873,-0.901699 2.14519,-1.242671 4.99898,-1.229409 2.71288,0.01261 4.57188,0.38499 7.69436,1.541284 1.70331,0.630759 7.21989,3.303143 7.5969,3.680153 0.1491,0.149096 -10.89865,11.157958 -11.19736,11.157958 -0.13815,0 -0.72503,-0.51925 -1.30417,-1.1539 z m 34.86274,-3.34943 c -1.61485,-1.6425 -3.01393,-3.113348 -3.10907,-3.26855 -0.13872,-0.226299 0.16409,-0.256223 1.529,-0.151092 0.93608,0.0721 2.11853,0.236586 2.62766,0.365519 1.20251,0.304537 2.14585,1.360603 2.33091,2.609433 0.18561,1.25263 0.0528,3.26829 -0.22128,3.35838 -0.12161,0.04 -1.54236,-1.27119 -3.15722,-2.91369 z m -99.198658,0.95065 c -0.179101,-0.14627 -0.698142,-0.66275 -1.153428,-1.14773 -0.730216,-0.77785 -0.891553,-1.1605 -1.368836,-3.246631 -1.158365,-5.062987 -2.297872,-8.222317 -4.797499,-13.30126 l -1.642892,-3.33816 0.798006,-0.752866 c 0.589671,-0.556318 0.86977,-0.693312 1.07289,-0.52474 0.404226,0.335478 2.133347,3.707246 3.256987,6.351094 1.617951,3.806936 3.225385,9.376615 3.95373,13.699503 0.390114,2.31538 0.37189,2.66167 -0.118958,2.26079 z m 90.956018,-9.286166 c -2.1457,-2.165929 -3.90127,-4.053185 -3.90127,-4.193905 0,-0.466782 0.67968,-2.585247 1.5376,-4.792419 l 0.84668,-2.178289 4.45085,-4.41655 c 3.85806,-3.828307 4.49634,-4.37881 4.79227,-4.133209 0.63074,0.52346 0.90294,1.388889 1.04561,3.324328 0.20319,2.756409 0.664,4.805826 1.88605,8.387998 1.44032,4.221974 1.43036,5.570949 -0.0573,7.759174 -0.83476,1.227841 -5.30841,4.180922 -6.33373,4.180922 -0.20101,0 -2.12105,-1.772123 -4.26675,-3.93805 z m -88.564008,1.50857 c 0.0074,-1.334392 0.646622,-5.251436 1.190425,-7.294545 1.442898,-5.421131 4.181673,-10.134477 8.288013,-14.263424 1.81955,-1.829554 4.31392,-3.905902 5.02293,-4.181132 0.25735,-0.0999 1.77671,1.150949 1.77671,1.462729 0,0.07065 -0.61057,0.530757 -1.35683,1.02245 -5.80925,3.82758 -10.42419,10.511392 -13.276833,19.228825 -0.399778,1.2217 -0.846343,2.734453 -0.992353,3.361675 -0.311188,1.336776 -0.65774,1.689363 -0.652062,0.663422 z m 75.117328,-2.231068 c -0.63114,-0.651167 -0.67913,-0.772289 -0.35527,-0.896568 0.41209,-0.158135 1.6511,0.865753 1.6511,1.364425 0,0.503012 -0.54583,0.305942 -1.29583,-0.467857 z M 36.785359,92.920019 c 0.233067,-0.785269 1.578799,-3.172064 2.402209,-4.260595 3.891391,-5.144307 9.08634,-7.953363 15.199312,-8.218682 1.571119,-0.06819 2.680863,-0.03052 2.757581,0.09363 0.07065,0.114258 -0.672903,0.435051 -1.652268,0.712876 -0.979364,0.277822 -2.978832,1.014843 -4.44326,1.63782 -4.745406,2.018736 -8.366717,4.51244 -11.939379,8.221679 -1.219341,1.265952 -2.273725,2.301731 -2.343083,2.301731 -0.06933,0 -0.06088,-0.219806 0.01887,-0.488459 z M 151.45589,87.818342 c -0.44728,-1.989608 -1.42353,-4.14671 -2.43573,-5.381965 -0.81109,-0.989819 -2.72343,-2.102358 -4.29192,-2.496894 -0.56715,-0.142662 -1.03119,-0.32764 -1.03119,-0.41106 0,-0.08342 0.56173,-0.325296 1.24829,-0.5375 3.79745,-1.173726 5.41388,-3.380798 6.6918,-9.136997 0.12479,-0.562112 0.22363,-0.354055 0.72192,1.519648 0.67617,2.542561 1.33585,3.938649 2.46976,5.226834 0.85557,0.971971 2.92909,2.152306 4.19976,2.390685 1.14628,0.215041 1.05417,0.428382 -0.41052,0.950796 -1.59751,0.569783 -2.85145,1.334362 -3.71357,2.264302 -0.93025,1.003442 -2.06136,3.530303 -2.47438,5.527687 -0.20096,0.971813 -0.41725,1.766933 -0.48068,1.766933 -0.0634,0 -0.2855,-0.757111 -0.49354,-1.682469 z M 29.87292,88.185398 c 1.105453,-1.99192 3.933246,-5.555518 5.75979,-7.258512 1.766213,-1.646737 4.276245,-3.583264 4.644459,-3.583264 0.103089,0 -1.716621,1.927557 -4.04381,4.283462 -2.327189,2.355902 -3.803588,3.894547 -3.280888,3.419208 0.522691,-0.475338 2.769618,-2.655967 4.99316,-4.845841 4.32047,-4.255047 5.001734,-4.735857 8.49324,-5.994204 5.596574,-2.017019 12.429382,-1.988877 17.378857,0.07158 1.700333,0.707845 4.213109,2.170146 4.035064,2.348191 -0.05629,0.05628 -0.86763,-0.05172 -1.802993,-0.23999 -2.839012,-0.571457 -6.407261,-0.789442 -9.194708,-0.561703 -3.199887,0.261436 -4.215076,0.468414 -7.698745,1.569634 -5.515746,1.743584 -11.808459,5.459138 -18.008619,10.633256 -0.828119,0.691078 -1.590868,1.256503 -1.695008,1.256503 -0.104131,0 0.08496,-0.494244 0.420201,-1.098321 z M 166.20131,87.60125 c -0.0546,-0.08955 -0.25966,-1.042045 -0.45584,-2.116654 -0.93607,-5.127633 -2.59234,-8.87115 -5.00339,-11.308698 -1.74291,-1.762059 -3.45927,-2.78564 -6.35315,-3.788821 -1.10447,-0.382869 -2.00812,-0.759036 -2.00812,-0.835928 0,-0.07689 0.83442,-0.370034 1.85426,-0.65143 1.01985,-0.281398 2.55034,-0.845218 3.40111,-1.252933 l 1.54684,-0.7413 4.46856,4.552589 c 2.4577,2.503923 4.84258,4.937759 5.29973,5.408527 l 0.83118,0.855938 -0.64635,1.280406 c -0.70486,1.396316 -2.04102,5.526773 -2.43031,7.51284 -0.24339,1.241693 -0.31524,1.396277 -0.50452,1.085464 z M 20.983061,80.435714 c -2.357351,-2.359541 -4.286083,-4.390623 -4.286083,-4.513513 0,-0.365332 3.248224,-3.976835 5.333887,-5.930435 7.73351,-7.243795 16.694294,-11.149091 26.087777,-11.369593 l 2.431009,-0.05707 1.363767,1.302556 1.363775,1.302556 -1.186528,-1.248283 -1.186528,-1.248283 h 0.8331 c 0.986487,0 5.166543,0.601382 5.794383,0.833635 0.433781,0.160465 0.433338,0.167957 -0.04784,0.803906 l -0.485653,0.641932 0.68471,-0.632131 0.68471,-0.632132 1.688206,0.490036 c 5.680309,1.64882 12.633934,5.407207 17.184998,9.288373 3.140035,2.677834 6.857531,6.905031 8.790957,9.996274 l 0.579116,0.925918 -0.87571,0.919369 c -0.7136,0.749181 -0.911865,0.859091 -1.071017,0.593734 C 82.486161,78.271242 77.89718,73.418695 74.546434,71.203806 69.862263,68.1075 65.134905,66.352906 60.308565,65.919315 l -1.603914,-0.144092 4.283612,2.181259 c 6.772851,3.448805 11.245039,6.617588 13.322658,9.439813 1.610565,2.187784 1.353719,2.20638 -1.791956,0.129754 -3.850886,-2.542172 -6.55211,-4.164545 -9.099695,-5.46534 -2.006461,-1.024495 -2.6758,-1.505196 -4.053308,-2.910971 -0.907489,-0.926106 -2.414829,-2.415967 -3.349656,-3.3108 -0.934828,-0.894833 -0.333309,-0.235414 1.336723,1.465375 1.67002,1.700789 2.956627,3.092344 2.859116,3.092344 -0.09751,0 -1.010349,-0.294032 -2.028535,-0.653405 -2.467153,-0.870791 -5.713432,-1.675558 -7.449047,-1.846658 -2.181679,-0.215069 -2.173064,-0.196568 -0.757268,-1.627286 0.701342,-0.708737 1.226815,-1.336973 1.167705,-1.396081 -0.05908,-0.05911 -0.713149,0.509553 -1.453416,1.263693 l -1.345954,1.371162 -2.518491,0.134968 c -1.385175,0.07423 -3.392848,0.295652 -4.461501,0.492041 -1.068645,0.19639 -1.999435,0.300634 -2.068415,0.231653 -0.06901,-0.06898 -0.01994,-0.540965 0.108972,-1.048855 0.128919,-0.507889 0.200418,-0.957406 0.1589,-0.998928 -0.129042,-0.129041 -2.750237,1.263474 -4.348745,2.310278 -2.003989,1.312344 -5.374961,4.59012 -6.90251,6.711677 -1.516916,2.106794 -3.078419,5.014356 -3.987145,7.424144 -0.381498,1.011675 -0.775525,1.866708 -0.875611,1.900071 -0.100094,0.03336 -2.110721,-1.869874 -4.468064,-4.229417 z M 55.339734,64.113782 c 0,-0.112353 -0.09769,-0.264657 -0.217092,-0.338451 -0.119409,-0.0738 -0.217099,0.01813 -0.217099,0.204281 0,0.186148 0.09769,0.338451 0.217099,0.338451 0.119401,0 0.217092,-0.09193 0.217092,-0.204281 z m -0.532448,-0.699698 c 0.437129,-0.04974 0.759525,0.06516 1.013687,0.361247 0.204981,0.238802 0.375943,0.324033 0.379914,0.189402 0.0041,-0.134631 -0.141522,-0.36823 -0.323323,-0.519108 -0.201625,-0.167334 -0.277235,-0.44228 -0.193863,-0.704963 0.277342,-0.873803 -1.328534,-1.133791 -2.072264,-0.335497 -0.524398,0.562866 -0.582096,1.261621 -0.104188,1.261621 0.199343,0 0.281953,0.111534 0.200993,0.271365 -0.07557,0.149251 -0.0033,0.108804 0.160295,-0.08988 0.163758,-0.198686 0.586199,-0.39407 0.938749,-0.434185 z m 2.16065,-1.266948 c 0.07376,-0.1194 0.03069,-0.217092 -0.09573,-0.217092 -0.12645,0 -0.229908,0.09769 -0.229908,0.217092 0,0.119401 0.04308,0.217094 0.09573,0.217094 0.05268,0 0.156119,-0.09769 0.229908,-0.217094 z M 138.3054,82.43446 c -0.14815,-1.024643 -0.32334,-2.132898 -0.38932,-2.462792 -0.1048,-0.523968 0.0918,-0.811542 1.55472,-2.274485 0.92108,-0.921071 1.61564,-1.520786 1.54346,-1.332698 -0.36729,0.957144 -1.06828,3.506947 -1.51945,5.526883 -0.27865,1.247549 -0.59965,2.299278 -0.71334,2.337174 -0.1137,0.0379 -0.32792,-0.769442 -0.47607,-1.794082 z M 31.027596,82.96077 c -0.0041,-0.546007 1.025929,-2.743606 1.912132,-4.081068 3.053171,-4.607876 8.404978,-7.993596 13.933334,-8.814669 l 0.97692,-0.145091 -1.183156,1.211789 c -0.805851,0.825349 -1.705864,1.459427 -2.82223,1.988319 -4.839535,2.292798 -9.450754,5.850879 -12.226042,9.433795 -0.379061,0.489373 -0.589407,0.634213 -0.590958,0.406925 z M 184.52875,80.831489 c 1.81831,-3.23523 6.30272,-7.442905 7.09163,-6.654003 0.15414,0.154141 -6.52157,6.956656 -7.18991,7.326485 -0.36076,0.199622 -0.34982,0.124791 0.0983,-0.672482 z m -47.32466,-3.54214 c -0.5823,-1.833734 -2.02774,-5.029542 -2.37069,-5.241502 -0.30699,-0.189724 -4.00126,0.402678 -6.22439,0.998125 -2.2321,0.597844 -5.33641,1.862084 -7.6685,3.123014 l -1.83943,0.994556 -2.35587,-2.34855 c -1.29573,-1.291703 -2.35487,-2.399063 -2.35366,-2.460799 0.002,-0.06173 0.58738,-0.538564 1.30257,-1.059619 1.27049,-0.925614 1.55006,-1.369237 1.05553,-1.674878 -0.13465,-0.08322 -1.01606,0.224712 -1.95868,0.684289 l -1.71386,0.835596 -0.80927,-0.818596 -0.80927,-0.818593 0.65128,-0.544043 c 0.97902,-0.817809 6.02262,-3.22967 8.31815,-3.977757 1.11234,-0.362496 3.40811,-0.920254 5.10172,-1.239463 5.72923,-1.079837 8.71916,-3.322359 11.24181,-8.431649 0.82039,-1.661573 2.01048,-5.350922 2.29005,-7.099294 0.13673,-0.855048 0.48795,-1.05025 0.93042,-0.51711 0.1407,0.169532 0.48326,1.415101 0.76125,2.767932 1.3815,6.72322 4.35371,10.951638 9.26266,13.177522 0.76339,0.346147 1.57662,0.693214 1.8072,0.771259 0.3669,0.124193 0.26223,0.300521 -0.83873,1.41309 -0.69187,0.699156 -1.94924,1.647929 -2.79416,2.108388 -2.05902,1.122095 -4.61565,3.642222 -5.69456,5.613234 -0.72246,1.319812 -4.22364,5.31877 -4.65671,5.31877 -0.0743,0 -0.35998,-0.708265 -0.63486,-1.573922 z m 27.42272,-5.202804 -5.23009,-5.271916 1.87957,-1.845288 c 2.66579,-2.61717 3.60421,-4.554726 5.23092,-10.800359 0.25656,-0.985058 0.55161,-1.791014 0.65565,-1.791014 0.19919,0 0.2514,0.186501 0.63813,2.279473 0.4196,2.27091 1.26995,5.289484 1.84302,6.542336 1.82338,3.986286 5.05613,6.845417 9.32128,8.243987 0.96047,0.314943 1.82866,0.647737 1.92933,0.739541 0.10066,0.0918 -0.95188,0.533812 -2.33899,0.982238 -3.71201,1.200021 -5.56868,2.421167 -7.83683,5.154309 l -0.86191,1.038609 z M 46.783585,71.427848 c 1.081896,-1.282638 1.429515,-1.4494 3.038336,-1.457569 0.845769,-0.0043 1.606787,0.06123 1.691168,0.145606 0.119402,0.119403 -4.582222,1.800421 -5.03558,1.800421 -0.05826,0 0.07951,-0.219806 0.306076,-0.488458 z m 104.775835,-5.739949 1.01819,-1.018184 1.04134,0.323391 c 0.57275,0.177864 1.04135,0.406871 1.04135,0.508906 0,0.158935 -3.28991,1.164853 -3.90484,1.193938 -0.11783,0.0056 0.24395,-0.44805 0.80396,-1.008051 z M 139.71587,47.063253 c -0.32792,-0.327923 -0.28039,-0.980972 0.0714,-0.980972 0.16311,0 0.46281,1.128031 0.3344,1.25862 -0.035,0.03554 -0.21755,-0.08941 -0.40579,-0.277648 z"
       id="path2552" />
  </g>
</svg>
