<?xml version="1.0" encoding="UTF-8" standalone="no"?>
<!-- Created with Inkscape (http://www.inkscape.org/) -->

<svg
   width="210mm"
   height="297mm"
   viewBox="0 0 210 297"
   version="1.1"
   id="svg3708"
   inkscape:version="1.3 (0e150ed6c4, 2023-07-21)"
   sodipodi:docname="Herz-Schmetterling2.svg"
   xmlns:inkscape="http://www.inkscape.org/namespaces/inkscape"
   xmlns:sodipodi="http://sodipodi.sourceforge.net/DTD/sodipodi-0.dtd"
   xmlns="http://www.w3.org/2000/svg"
   xmlns:svg="http://www.w3.org/2000/svg">
  <sodipodi:namedview
     id="namedview3710"
     pagecolor="#ffffff"
     bordercolor="#666666"
     borderopacity="1.0"
     inkscape:pageshadow="2"
     inkscape:pageopacity="0.0"
     inkscape:pagecheckerboard="0"
     inkscape:document-units="mm"
     showgrid="false"
     inkscape:zoom="0.23496321"
     inkscape:cx="400.06263"
     inkscape:cy="561.79007"
     inkscape:window-width="1366"
     inkscape:window-height="705"
     inkscape:window-x="-8"
     inkscape:window-y="-8"
     inkscape:window-maximized="1"
     inkscape:current-layer="layer1"
     inkscape:showpageshadow="2"
     inkscape:deskcolor="#d1d1d1" />
  <defs
     id="defs3705" />
  <g
     inkscape:label="Ebene 1"
     inkscape:groupmode="layer"
     id="layer1">
    <path
       style="fill:none;stroke:#000000;stroke-width:0.264583;stroke-opacity:1"
       d="m 97.837591,221.93256 c -0.292982,-1.54443 -0.870909,-3.09951 -1.492063,-4.01483 l -0.481363,-0.70931 2.434288,-2.43967 c 1.338858,-1.34182 2.491047,-2.43967 2.560427,-2.43967 0.0694,0 0.56615,0.2961 1.10393,0.65799 0.53778,0.36191 1.44406,0.80498 2.01394,0.98462 0.56988,0.17963 1.03614,0.38296 1.03614,0.45182 0,0.0689 -0.36334,0.23377 -0.80743,0.36645 -1.83806,0.54912 -3.39355,1.70402 -4.239696,3.14784 -0.567084,0.96765 -1.34206,3.19682 -1.517051,4.36371 -0.07066,0.47114 -0.184748,0.85662 -0.253545,0.85662 -0.06879,0 -0.229706,-0.5515 -0.357577,-1.22557 z m -10.77051,-2.60879 c -0.741636,-4.87072 -2.014936,-8.47312 -3.815367,-10.79436 -1.981475,-2.55467 -3.736144,-3.68423 -7.876569,-5.07048 -0.470211,-0.15743 -0.924331,-0.35154 -1.009155,-0.43136 -0.08482,-0.0798 0.576182,-0.32832 1.468883,-0.55221 2.471728,-0.61992 5.619813,-2.16672 5.619813,-2.76129 0,-0.38673 -1.799778,-2.97702 -3.310495,-4.76454 l -1.441741,-1.70591 2.420874,-2.42622 c 1.331477,-1.33443 2.335276,-2.42623 2.230655,-2.42623 -0.104614,0 -1.213464,1.02591 -2.464102,2.2798 -1.250637,1.25389 -2.322903,2.2798 -2.382817,2.2798 -0.05989,0 -1.172664,-1.21182 -2.472783,-2.69293 -4.847286,-5.52208 -10.68645,-12.10505 -16.126426,-18.18065 l -1.764105,-1.97024 2.016279,-2.02252 c 1.108951,-1.11239 2.016272,-2.10516 2.016272,-2.20616 0,-0.101 -0.946139,0.75531 -2.102539,1.90293 l -2.102539,2.08658 -0.871763,-0.94991 c -0.479474,-0.52246 -3.569448,-3.98491 -6.866609,-7.69434 -3.297161,-3.70942 -6.044952,-6.78715 -6.106195,-6.8394 -0.436025,-0.37196 -5.611117,-6.92522 -5.97767,-7.56956 -0.09535,-0.1676 0.135519,-0.5412 0.672574,-1.08842 0.449762,-0.45827 0.759287,-0.89169 0.687826,-0.96315 -0.07145,-0.0714 -0.479403,0.22658 -0.906538,0.66231 -0.427129,0.43573 -0.857431,0.74229 -0.956228,0.68123 -0.247478,-0.15295 -2.659599,-3.75102 -4.106302,-6.12523 -2.134572,-3.50308 -4.998293,-9.23178 -4.988599,-9.97938 0.0014,-0.12136 2.399757,2.2044 5.329302,5.16834 2.929545,2.96394 5.382373,5.33306 5.450725,5.2647 0.06836,-0.0684 -2.454035,-2.70712 -5.605308,-5.86394 -4.423381,-4.43116 -5.813437,-5.93774 -6.097384,-6.60849 -0.849231,-2.00611 -2.519888,-7.74672 -3.071211,-10.55311 l -0.228435,-1.16282 6.334292,-6.2808 c 3.483863,-3.45444 6.344468,-6.26538 6.356905,-6.24653 0.01242,0.0189 -0.06075,0.76096 -0.16254,1.64913 -0.308074,2.68698 -0.239844,10.02728 0.118774,12.77886 0.904836,6.94245 2.45076,12.00307 5.532325,18.11021 0.953693,1.89006 1.696916,3.54769 1.6516,3.68363 -0.04531,0.13594 0.0029,0.19464 0.10643,0.13046 0.103853,-0.0642 0.769426,0.75747 1.479059,1.8259 1.78332,2.68497 5.76389,7.95847 9.927149,13.15161 l 3.503056,4.36961 -7.645577,-7.6523 c -4.205071,-4.20877 -7.693773,-7.60411 -7.752676,-7.5452 -0.05888,0.0589 4.152251,4.36955 9.358119,9.57922 5.205868,5.20967 9.430915,9.54543 9.388995,9.63503 -0.04193,0.0896 -0.191692,0.39276 -0.332812,0.67372 -0.218504,0.43501 -0.215524,0.55189 0.02011,0.78749 0.161871,0.16187 0.478397,0.2381 0.76287,0.18372 0.267411,-0.0511 0.544013,5.6e-4 0.614677,0.11493 0.07066,0.11433 0.27304,0.21296 0.44974,0.21918 0.178192,0.006 1.844139,1.83369 3.740998,4.10358 5.458796,6.53232 8.463278,10.03359 8.673812,10.10805 0.107579,0.0381 -0.688601,-1.24183 -1.769297,-2.84417 -1.080688,-1.60233 -2.127075,-3.17232 -2.325301,-3.48887 -0.198227,-0.31655 1.745679,1.51903 4.319787,4.07906 5.093844,5.06596 6.392549,6.67849 9.830908,12.20643 0.95864,1.54124 1.810563,2.80226 1.893154,2.80226 0.08259,0 0.206498,-0.25648 0.275353,-0.56995 0.06886,-0.31347 0.184648,-0.56995 0.257329,-0.56995 0.07268,0 0.746391,0.61982 1.497125,1.37738 0.9639,0.97266 1.529146,1.74023 1.923689,2.61227 0.673824,1.48931 1.697326,3.03196 2.757356,4.15596 0.98207,1.04135 3.214434,2.52867 4.476496,2.98249 0.835465,0.30043 2.319176,1.47898 2.089032,1.65938 -0.04509,0.0353 -0.839041,0.30611 -1.764306,0.60171 -1.876646,0.59952 -4.008833,1.88603 -5.352215,3.2294 -2.013558,2.01353 -3.699771,5.54185 -4.636956,9.70256 -0.295351,1.31124 -0.581518,2.42859 -0.635932,2.483 -0.05443,0.0544 -0.155136,-0.27017 -0.223825,-0.7213 z m 7.971564,-2.93328 c -0.638775,-0.54304 -2.696622,-1.58968 -3.134758,-1.59439 -0.156737,-0.001 -0.401795,-0.0771 -0.544581,-0.16752 -0.183456,-0.11622 0.03942,-0.26229 0.759947,-0.49801 3.071879,-1.00501 4.780901,-3.10875 5.592096,-6.88367 0.185101,-0.86135 0.365469,-1.53718 0.400833,-1.50182 0.03533,0.0353 0.245051,0.77912 0.46599,1.65281 0.480673,1.90077 0.971314,3.09192 1.628478,3.95349 l 0.48632,0.63759 -2.444451,2.44985 c -1.344444,1.34743 -2.488429,2.44679 -2.542182,2.44303 -0.05378,-0.004 -0.35421,-0.22487 -0.667692,-0.49136 z m 8.776555,-6.19509 c -0.12119,-0.90353 -0.0826,-1.00056 0.33457,-0.8405 0.29755,0.11418 0.38786,0.79652 0.17785,1.34378 -0.20092,0.52358 -0.40105,0.327 -0.51242,-0.50328 z m -0.89182,-3.8983 c -1.17435,-3.64994 -3.508135,-6.14238 -6.736915,-7.19489 -1.793258,-0.58456 -1.843041,-0.84594 -0.245382,-1.28854 1.916046,-0.53081 3.410866,-1.3717 4.670267,-2.6272 1.47647,-1.47189 2.46799,-3.3668 3.25745,-6.22535 0.82505,-2.98741 0.75837,-2.81285 0.94325,-2.46979 0.0845,0.15674 0.21161,0.71244 0.28256,1.23489 0.37634,2.77175 1.75579,6.06222 3.20489,7.64481 1.02109,1.11515 2.66345,2.18051 4.2245,2.74037 0.67552,0.24226 1.22823,0.49211 1.22823,0.55522 0,0.27075 -0.7501,0.71033 -1.89986,1.11337 -0.67919,0.23808 -1.53413,0.61348 -1.89985,0.83421 -1.82951,1.10415 -3.82252,3.68429 -4.48368,5.80451 l -0.36095,1.15753 -0.88596,10e-4 -0.88596,0.001 -0.41259,-1.28238 z m -3.105643,-2.67472 c -0.601932,-0.66512 -0.348602,-0.70909 1.015473,-0.17623 0.45162,0.17641 0.45629,0.19319 0.095,0.34124 -0.58353,0.23913 -0.76976,0.21145 -1.110465,-0.16501 z m 24.098723,-1.2679 c -2.67157,-1.45193 -3.18909,-4.94512 -1.50963,-10.18995 0.60233,-1.88101 0.80394,-2.27452 1.56823,-3.06093 0.48237,-0.49633 0.78664,-0.90242 0.67615,-0.90242 -0.11049,0 -0.35747,0.173 -0.54883,0.38446 -0.22304,0.24646 -0.4136,0.31879 -0.53088,0.2015 -0.11729,-0.11729 -0.43849,0.20502 -0.89483,0.89793 -0.39153,0.59449 -1.79026,2.14826 -3.10829,3.45283 l -2.39641,2.37194 v -0.70246 c 0,-1.3124 0.68672,-2.62241 2.65907,-5.07253 1.04532,-1.29854 1.90059,-2.43855 1.90059,-2.53334 0,-0.0948 -0.53434,0.29362 -1.18741,0.86314 -2.52095,2.19844 -4.85276,3.55328 -7.14268,4.15005 -2.38582,0.62176 -4.40246,0.0826 -5.33509,-1.42643 -0.82815,-1.33997 -0.95706,-5.49649 -0.26581,-8.57157 0.48197,-2.14412 1.19451,-3.23459 2.41597,-3.69743 0.61762,-0.23403 2.2486,-0.0664 5.68893,0.58457 1.13206,0.21423 2.09373,0.35408 2.13702,0.31079 0.0433,-0.0433 -0.32724,-0.36962 -0.82341,-0.72517 -2.17997,-1.56219 -5.40417,-4.64307 -5.92267,-5.6594 -0.37532,-0.73568 -0.75946,-2.8773 -0.51611,-2.8773 0.0661,0 3.19274,3.09765 6.94804,6.88366 3.75529,3.78601 6.89269,6.81878 6.97198,6.73949 0.0793,-0.0793 -2.97142,-3.26737 -6.77938,-7.0846 -6.74286,-6.75927 -6.92274,-6.9589 -6.89167,-7.64846 0.0537,-1.19129 0.95395,-3.07515 2.37484,-4.96957 1.5292,-2.03878 2.10073,-3.15601 2.52689,-4.93956 0.72815,-3.04738 1.3513,-4.4354 2.20685,-4.9156 0.79008,-0.44345 1.47468,-0.12511 2.9483,1.37102 1.10192,1.11874 1.54712,1.76986 2.42711,3.54971 1.99647,4.03807 2.39798,6.6425 2.39798,15.55481 0,4.21322 0.0641,6.11533 0.20895,6.20488 0.32345,0.1999 1.19688,-0.55698 1.35127,-1.17096 0.4297,-1.70885 1.47955,-7.84238 1.47955,-8.64403 0,-0.68068 0.0828,-0.97448 0.29774,-1.05698 0.56254,-0.21586 0.74153,0.24501 0.39703,1.02231 -0.26563,0.59936 -0.65762,2.56573 -1.74813,8.76941 -0.10621,0.60425 -0.086,0.63463 0.34923,0.52539 0.67227,-0.16873 6.913,-3.66484 7.76708,-4.35119 0.39947,-0.32102 0.77318,-0.53681 0.83046,-0.47952 0.23471,0.2347 -1.57582,1.48312 -4.48718,3.09405 -3.23835,1.79186 -4.35616,2.64012 -4.35616,3.30571 0,0.50588 0.37158,0.51027 1.66237,0.0197 0.54859,-0.2085 0.99697,-0.31533 0.99641,-0.23738 -5.8e-4,0.0779 -0.43227,0.55781 -0.95934,1.06639 -0.52707,0.50857 -0.91103,0.97195 -0.85326,1.02972 0.0578,0.0578 0.76733,-0.53582 1.57679,-1.31911 1.42924,-1.38305 1.54304,-1.45018 3.94155,-2.32519 4.82622,-1.76067 10.16136,-2.76635 13.29091,-2.50536 2.33988,0.19514 6.12321,0.99283 6.85559,1.44546 2.40326,1.48528 1.7269,3.46974 -1.87553,5.50281 -1.59248,0.89873 -3.05249,2.31562 -4.30411,4.17703 -1.36076,2.02372 -3.02275,3.58334 -4.69673,4.40743 -1.08384,0.53356 -1.48959,0.63148 -2.61664,0.63148 -1.30531,0 -1.38276,-0.0283 -3.61373,-1.32068 -4.38347,-2.53929 -5.12141,-2.95394 -5.25703,-2.95394 -0.0751,0 0.49987,0.94181 1.27781,2.09291 0.77793,1.1511 1.41442,2.19744 1.41442,2.3252 0,0.12776 -1.45339,-1.2192 -3.22975,-2.99323 -1.77637,-1.77405 -3.22976,-3.13296 -3.22976,-3.01981 0,0.11314 1.49809,1.72445 3.32908,3.58067 1.831,1.85623 3.41262,3.53106 3.51473,3.72185 0.32587,0.6089 0.21799,2.31134 -0.18873,2.97841 -1.49737,2.45575 -9.046,5.26445 -11.11974,4.13741 z m -4.36967,-8.83376 c 1.69286,-1.70072 1.95134,-1.9258 1.69087,-1.47237 -0.52077,0.90655 -1.54568,2.11225 -2.2122,2.60241 -1.41047,1.03726 -1.21568,0.61504 0.52133,-1.13004 z m -31.310987,-1.67284 c -0.594851,-0.60111 -1.08155,-1.23362 -1.08155,-1.40555 0,-0.65472 0.80823,-3.78762 0.93791,-3.63558 0.07484,0.0877 0.244405,0.83658 0.376815,1.66406 0.132409,0.82749 0.407611,2.14161 0.611568,2.92027 0.203945,0.77866 0.340663,1.4459 0.303813,1.48275 -0.03684,0.0368 -0.553697,-0.42483 -1.148556,-1.02595 z M 72.884828,175.13982 c -2.674313,-2.69064 -5.835359,-6.08897 -7.024546,-7.55184 -1.189179,-1.46287 -4.221722,-5.13905 -6.738974,-8.16929 -5.797388,-6.97882 -8.256061,-10.08827 -10.875033,-13.75352 -2.407102,-3.36874 -4.529273,-6.80247 -4.328347,-7.0034 0.07595,-0.0759 0.215697,5.8e-4 0.310545,0.17006 0.338283,0.60447 3.928447,5.42859 5.777304,7.76298 2.939132,3.711 10.436136,12.59053 13.911382,16.4768 0.675339,0.7552 1.541931,1.75242 1.925775,2.21604 0.383837,0.4636 2.371573,2.83794 4.417199,5.2763 2.045626,2.43836 4.516362,5.4593 5.490534,6.71319 0.974172,1.25389 1.854386,2.38666 1.95602,2.51727 0.560787,0.72066 -0.425779,-0.23168 -4.821859,-4.65459 z m -9.288791,-11.63649 c 0,-0.10449 -0.08044,-0.18998 -0.178767,-0.18998 -0.09833,0 -0.231616,0.0855 -0.296198,0.18998 -0.06455,0.10449 0.01587,0.18999 0.178774,0.18999 0.162906,0 0.296191,-0.0855 0.296191,-0.18999 z m 93.750793,13.91629 c -0.52645,-3.14353 -1.82489,-4.90282 -4.25846,-5.76988 l -0.86406,-0.30786 0.56996,-0.2357 c 0.31348,-0.12964 0.9803,-0.41379 1.48183,-0.63146 l 0.91187,-0.39576 1.92267,1.92266 1.92268,1.92265 -0.48609,1.10649 c -0.26736,0.60855 -0.58963,1.55531 -0.71616,2.10389 -0.12654,0.54857 -0.26041,0.99741 -0.29751,0.99741 -0.037,0 -0.12112,-0.32059 -0.18673,-0.71244 z m -20.5103,-1.37854 c 0.18971,-0.20962 0.38613,-0.33993 0.4365,-0.28957 0.12765,0.12766 -0.3462,0.6707 -0.58525,0.6707 -0.10789,0 -0.0409,-0.17151 0.14875,-0.38113 z m 20.36366,-4.33206 c -1.84449,-1.85142 -1.85397,-1.86571 -1.46903,-2.21407 0.55085,-0.4985 1.46216,-2.40051 1.73561,-3.6224 0.12793,-0.57163 0.28499,-1.03933 0.34902,-1.03933 0.0641,0 0.22296,0.56159 0.35317,1.24798 0.52382,2.76128 1.95716,4.38187 4.69454,5.30777 0.2937,0.0993 0.11961,0.20956 -0.76667,0.48543 -0.651,0.20264 -1.48528,0.64679 -1.93006,1.02749 -0.43087,0.36882 -0.85692,0.67057 -0.94676,0.67057 -0.0898,0 -0.99876,-0.83855 -2.01982,-1.86344 z m -20.22622,0.4064 c -0.37836,-0.15223 -0.80344,-1.11965 -0.80344,-1.8285 0,-0.35455 0.17099,-1.14161 0.37997,-1.74902 0.20899,-0.60742 0.37997,-1.18622 0.37997,-1.28623 0,-0.10001 -0.41045,0.25535 -0.91211,0.78967 -0.88095,0.93833 -1.73367,1.32414 -1.48304,0.67101 0.0634,-0.16529 0.11532,-0.38268 0.11532,-0.48311 0,-0.10042 0.40262,-0.613 0.89469,-1.13906 l 0.89469,-0.95649 -1.32215,0.65881 c -2.29758,1.14485 -3.83073,1.11018 -4.25126,-0.0961 -0.23146,-0.66396 0.0183,-2.83182 0.44347,-3.84942 0.37884,-0.90667 0.81505,-1.09003 2.04216,-0.85838 0.55738,0.10522 1.18441,0.24509 1.3934,0.31084 0.23049,0.0725 -0.0836,-0.37609 -0.7983,-1.14029 -1.77074,-1.89328 -1.76963,-2.61122 0.008,-5.1123 0.46426,-0.65325 1.10452,-1.76479 1.42281,-2.47011 0.48959,-1.08489 0.65156,-1.28238 1.05176,-1.28238 0.69335,0 1.58011,1.1822 2.05624,2.74133 0.37041,1.21288 0.39246,1.59148 0.28039,4.81218 -0.0952,2.73733 -0.0706,3.47916 0.11364,3.41939 0.1294,-0.042 0.38525,-0.49761 0.56856,-1.01251 0.2883,-0.80982 0.30671,-0.41253 0.0248,0.53619 -0.15147,0.50984 0.29006,0.41379 2.0162,-0.43858 0.8588,-0.42408 1.60485,-0.72766 1.65788,-0.67462 0.0531,0.0531 -0.72564,0.5048 -1.73041,1.00391 -1.00477,0.49911 -1.82685,1.01642 -1.82685,1.14958 0,0.30138 -0.23983,0.3411 2.09024,-0.34621 1.4736,-0.43467 2.53415,-0.61495 4.06109,-0.69034 1.16923,-0.0577 2.03283,-0.0292 1.98876,0.0658 -0.0429,0.0923 -0.19459,0.40046 -0.33721,0.68472 -0.36976,0.73693 -0.0289,1.10747 0.88277,0.95954 0.48994,-0.0795 0.64439,-0.0488 0.54698,0.10884 -0.0806,0.13032 -0.0153,0.21964 0.16044,0.21964 0.35376,0 0.38177,-0.21841 0.0682,-0.53196 -0.14854,-0.14853 -0.15664,-0.22798 -0.0233,-0.22798 0.11259,0 0.31114,0.12824 0.44123,0.28498 0.13008,0.15673 0.31153,0.28497 0.40323,0.28497 0.0917,0 0.16672,-0.12824 0.16672,-0.28497 0,-0.15674 -0.12823,-0.28498 -0.28498,-0.28498 -0.38382,0 -0.36292,-0.36198 0.0296,-0.5126 0.20125,-0.0772 0.44078,0.0352 0.66495,0.31198 0.44683,0.55181 0.44263,0.78202 -0.0164,0.90207 -0.20175,0.0528 -0.3283,0.19631 -0.28122,0.319 0.0471,0.12269 -0.1854,0.38316 -0.51662,0.57881 -0.33122,0.19565 -1.29472,0.97082 -2.1411,1.72258 -0.84637,0.75176 -1.72561,1.46603 -1.95384,1.58728 -0.46567,0.24736 -1.57988,0.29954 -1.57988,0.074 0,-0.0806 0.76944,-0.91231 1.70987,-1.84837 0.94044,-0.93606 1.70988,-1.78768 1.70988,-1.89248 0,-0.1048 -0.87631,0.68002 -1.94736,1.74404 -2.15836,2.14423 -1.96804,2.09145 -3.4285,0.95086 -0.39666,-0.30979 -0.75703,-0.52743 -0.80082,-0.48365 -0.0438,0.0438 0.1394,0.62181 0.40707,1.28449 0.38723,0.95869 0.4458,1.29461 0.2866,1.64401 -0.44021,0.96612 -3.81712,2.10495 -4.9227,1.66013 z m 13.92044,-9.90919 c -0.92409,-0.44364 -1.62543,-1.17655 -2.21296,-2.31258 -0.36305,-0.702 -0.45485,-1.22121 -0.51319,-2.90262 -0.0849,-2.44739 0.002,-2.83898 1.60349,-7.2363 0.68001,-1.86698 1.19991,-3.43097 1.15533,-3.47555 -0.0446,-0.0446 -0.86963,1.11602 -1.83347,2.57909 -1.86164,2.8259 -3.06345,4.12353 -4.43712,4.7909 -1.22144,0.59342 -1.454,0.43852 -1.2274,-0.81752 0.28561,-1.58313 1.12812,-2.91124 3.47438,-5.4769 2.03946,-2.23018 2.65201,-3.04825 1.83111,-2.44547 -2.55395,1.87535 -3.68446,2.60138 -5.53459,3.5544 -2.63765,1.35868 -4.25825,1.93116 -5.46284,1.92974 -1.57557,-0.002 -2.1362,-0.27939 -3.6299,-1.79698 l -1.39834,-1.42071 0.0906,-3.47268 c 0.0957,-3.66898 0.27572,-4.70189 1.20955,-6.94159 0.8546,-2.04969 2.01209,-2.63911 4.82125,-2.45511 1.18038,0.0773 2.2251,0.31236 3.88285,0.8736 1.24739,0.42232 2.31605,0.71806 2.37482,0.65723 0.0587,-0.0608 -0.36337,-0.50629 -0.93808,-0.9899 -1.59397,-1.34131 -4.93962,-4.63721 -4.93962,-4.86618 0,-0.11165 1.9236,-2.12514 4.27468,-4.47444 2.35107,-2.3493 4.27467,-4.35699 4.27467,-4.46152 0,-0.10452 -1.99633,1.80491 -4.43629,4.24319 l -4.4363,4.43323 -0.57929,-0.70277 c -1.13071,-1.37173 -1.26834,-3.48397 -0.40998,-6.29191 0.49769,-1.62808 1.13066,-2.67314 2.92431,-4.82817 0.7762,-0.93258 1.65014,-2.20894 1.94208,-2.83634 0.29194,-0.62741 0.61783,-1.14164 0.72419,-1.14273 0.10636,-0.001 1.08521,0.8929 2.17523,1.98662 1.09002,1.09373 2.02467,1.94579 2.07699,1.89346 0.0524,-0.0523 -0.87874,-1.07178 -2.06904,-2.26545 l -2.16418,-2.17031 0.52265,-1.74593 c 0.62394,-2.08437 1.47098,-3.83003 2.05785,-4.24109 1.33306,-0.9337 3.20324,0.22451 4.9073,3.03913 0.90313,1.49171 2.08408,4.14804 2.08408,4.68776 0,0.14737 -0.48667,0.75075 -1.08149,1.34084 -0.59481,0.59009 -1.02016,1.1342 -0.94522,1.20914 0.0749,0.0749 0.59414,-0.31594 1.15377,-0.86862 0.57773,-0.57054 1.07004,-0.91988 1.13904,-0.80825 0.35915,0.58111 1.25378,6.08718 1.25378,7.7165 v 0.76152 l -1.98861,-1.98183 c -1.09375,-1.09001 -2.03067,-1.93979 -2.08205,-1.88841 -0.0514,0.0514 0.86486,1.05728 2.03611,2.23531 l 2.12955,2.14189 -0.0327,3.64457 c -0.018,2.00451 -0.16761,4.78548 -0.33247,6.17992 -0.16486,1.39444 -0.29975,2.66114 -0.29975,2.81488 0,0.44904 0.95844,0.22511 1.36218,-0.31828 0.30229,-0.40683 1.75001,-5.78673 2.15986,-8.02628 0.14889,-0.81359 0.46814,-1.14472 0.46671,-0.48408 -5.7e-4,0.24128 -0.3843,2.14853 -0.85283,4.23835 -0.89792,4.00502 -0.96727,4.46461 -0.6737,4.46461 0.10032,0 1.76649,-0.76281 3.70261,-1.69512 1.93611,-0.93232 3.55735,-1.63505 3.60274,-1.56161 0.0454,0.0734 -1.52122,0.96372 -3.48135,1.9784 -2.6644,1.37924 -3.61972,1.96743 -3.78513,2.33047 -0.26375,0.57886 -0.2897,1.22766 -0.0491,1.22766 0.0947,0 1.56945,-0.4807 3.27725,-1.06822 3.22042,-1.1079 5.98078,-1.96063 6.36907,-1.96753 0.12332,-0.002 0.78169,0.57016 1.46306,1.2719 0.68135,0.70174 1.30237,1.21236 1.38002,1.13471 0.0777,-0.0777 -0.3984,-0.6856 -1.05789,-1.351 -1.35561,-1.36775 -1.43606,-1.23475 1.03037,-1.70324 3.04482,-0.57834 7.31444,-1.02964 7.31444,-0.77314 0,0.0813 -0.85641,1.00174 -1.90314,2.04553 -1.04672,1.04379 -1.85604,1.9449 -1.79848,2.00245 0.0576,0.0576 1.07768,-0.86561 2.26694,-2.05148 l 2.16228,-2.15613 1.92966,0.13291 c 3.63686,0.25047 7.31794,1.49203 8.53564,2.87889 0.45376,0.51681 0.58621,0.84599 0.58621,1.45699 0,0.70448 -0.10309,0.88462 -0.95879,1.67542 -0.52733,0.48733 -1.87386,1.42987 -2.99227,2.09453 -2.37288,1.41016 -3.50329,2.402 -4.93605,4.33092 l -1.0392,1.39909 -2.91448,-2.9099 c -1.60296,-1.60044 -2.95724,-2.86712 -3.0095,-2.81486 -0.0523,0.0523 1.18434,1.37226 2.74802,2.93331 1.56367,1.56105 2.84304,2.93451 2.84304,3.05214 0,0.27288 -1.59524,1.76927 -2.57462,2.41507 -1.92432,1.2689 -4.77722,1.85126 -6.2597,1.27779 -0.31348,-0.12126 -1.71029,-0.9548 -3.10403,-1.8523 l -2.53407,-1.63182 3.00681,-3.01118 c 1.65374,-1.65615 2.91961,-3.01119 2.81304,-3.01119 -0.10656,0 -1.38796,1.19255 -2.84755,2.65009 -1.45959,1.45754 -2.83609,2.74899 -3.05888,2.86987 -0.34684,0.18819 -0.55134,0.1213 -1.42236,-0.46527 -0.5595,-0.37678 -1.08755,-0.68506 -1.17343,-0.68506 -0.0859,0 0.16318,0.58393 0.5535,1.29764 l 0.70967,1.29765 -5.68566,5.62088 c -3.1271,3.09147 -5.63171,5.67482 -5.56578,5.74077 0.0659,0.0659 2.61514,-2.34207 5.66491,-5.35116 3.04977,-3.00908 5.62496,-5.49963 5.72265,-5.53454 0.0977,-0.0349 0.57702,0.76268 1.0652,1.77242 0.96944,2.0052 1.23839,3.45873 0.82476,4.45732 -0.87697,2.11714 -6.8303,5.00586 -10.83258,5.25625 -1.14414,0.0716 -1.57462,0.0172 -2.18483,-0.2757 z m -1.30361,-41.92412 c -0.12143,-0.31644 0.16867,-0.39435 0.35368,-0.095 0.14784,0.23919 0.47497,0.24854 0.47497,0.0136 0,-0.097 -0.11891,-0.29532 -0.26424,-0.44065 -0.17823,-0.17822 -0.20772,-0.36522 -0.0906,-0.57449 0.24228,-0.43292 -0.45234,-0.77735 -1.26156,-0.62554 -1.30549,0.24491 -1.60659,1.79248 -0.3239,1.66477 0.31669,-0.0315 0.63139,0.0326 0.69931,0.14249 0.19026,0.30785 0.53578,0.2365 0.41234,-0.0851 z m 1.58859,-1.61486 c 0,-0.10449 -0.0805,-0.18998 -0.17877,-0.18998 -0.0983,0 -0.23162,0.0855 -0.29619,0.18998 -0.0645,0.10449 0.0159,0.18998 0.17877,0.18998 0.1629,0 0.29619,-0.0855 0.29619,-0.18998 z m -17.31292,30.25486 c -0.23632,-0.30132 -0.2296,-0.30805 0.0717,-0.0717 0.18286,0.14341 0.33248,0.29302 0.33248,0.33247 0,0.15636 -0.15602,0.0557 -0.40421,-0.26075 z M 43.267585,137.95057 c -0.134276,-0.16179 -0.201385,-0.33691 -0.14914,-0.38915 0.05227,-0.0523 0.204854,0.0374 0.339124,0.19916 0.134269,0.16179 0.201386,0.33691 0.14914,0.38915 -0.05228,0.0523 -0.204854,-0.0374 -0.339124,-0.19916 z m 121.495775,-4.55165 c 1.16572,-0.99912 1.93701,-1.37668 2.22468,-1.08902 0.39344,0.39344 -0.0457,0.80571 -1.375,1.29089 -1.63362,0.59625 -1.74893,0.56886 -0.84968,-0.20187 z m 13.29292,-0.59792 c -0.53315,-2.40146 -1.27869,-3.85839 -2.37323,-4.63776 -0.34078,-0.24266 -1.0976,-0.63547 -1.6818,-0.8729 -0.59328,-0.24113 -0.93778,-0.46927 -0.78037,-0.5168 2.80747,-0.8478 4.07824,-2.1012 4.84783,-4.78158 0.18001,-0.62694 0.36958,-1.26814 0.42127,-1.42487 0.0517,-0.15674 0.24769,0.31347 0.43555,1.04491 0.48584,1.89158 0.85384,2.66795 1.69943,3.5853 0.64976,0.70489 1.68813,1.31659 2.94697,1.73604 0.29793,0.0993 0.12431,0.22012 -0.80402,0.55969 -0.6512,0.23821 -1.4861,0.66352 -1.85534,0.94516 -0.80965,0.61755 -1.70144,2.10568 -2.11412,3.5279 -0.37978,1.3088 -0.58556,1.5403 -0.74217,0.83491 z m -20.0345,-5.82197 c 0.001,-0.54858 0.0785,-1.11674 0.17081,-1.26258 0.21666,-0.34215 0.77621,-0.13006 0.77621,0.29421 0,0.32802 -0.72639,1.96578 -0.87189,1.96578 -0.0429,0 -0.0767,-0.44884 -0.0751,-0.99741 z m 8.58869,-1.89117 c -1.43906,-0.74822 -5.29598,-3.82959 -5.88209,-4.6993 -0.84094,-1.24785 -0.44949,-2.28551 1.90357,-5.04602 0.89067,-1.04491 1.59372,-1.92673 1.56233,-1.9596 -0.0314,-0.0329 -1.27965,0.34168 -2.77391,0.83233 -3.33481,1.09501 -4.67149,1.24464 -5.97357,0.66867 l -0.92771,-0.41036 4.95913,-4.95909 4.95915,-4.95908 2.40859,1.6444 c 1.32474,0.90442 2.48812,1.59526 2.58532,1.53519 0.0972,-0.0601 0.17671,-0.30842 0.17671,-0.55189 0,-0.42669 -0.834,-1.32801 -3.00062,-3.24283 -0.53976,-0.47703 -0.75199,-0.78479 -0.62722,-0.90955 0.17856,-0.17856 2.03011,1.31219 3.23349,2.60341 0.93107,0.99903 0.96431,0.86171 0.96431,-3.98433 0,-4.163469 0.0234,-4.473959 0.33247,-4.413335 0.38727,0.07596 0.39317,0.272999 0.15525,5.187195 -0.13617,2.81247 -0.11575,3.32635 0.15808,3.97771 0.27025,0.64286 0.35103,0.70961 0.57475,0.47495 0.14317,-0.15016 0.44357,-1.37512 0.66755,-2.72211 0.52452,-3.15446 0.77206,-4.295327 0.93196,-4.295327 0.18844,0 6.77196,6.622217 6.67029,6.709487 -0.0473,0.0406 -0.25705,0.16938 -0.46603,0.2861 -0.27963,0.15618 -0.30472,0.21954 -0.095,0.23992 0.15674,0.0152 0.37047,0.0476 0.47496,0.0718 0.10449,0.0243 0.33179,0.0572 0.50509,0.0731 0.30466,0.028 4.05141,3.59174 5.63628,5.36101 l 0.77706,0.86747 -0.3696,1.88729 c -0.20328,1.03802 -0.55382,2.25119 -0.77896,2.69595 -0.71239,1.4072 -2.20243,1.99261 -3.81787,1.49995 -1.47813,-0.45078 -4.75797,-3.00103 -6.30429,-4.90192 -0.41128,-0.50559 -0.77851,-0.88852 -0.81607,-0.85096 -0.0376,0.0376 0.40463,1.35128 0.98265,2.91938 0.94363,2.55991 1.33343,4.41956 0.92639,4.41956 -0.32984,0 -1.4938,-1.09202 -1.97836,-1.85607 -0.29869,-0.47098 -0.81329,-1.67804 -1.14357,-2.68235 -0.33027,-1.00432 -0.66962,-1.90151 -0.7541,-1.99377 -0.13831,-0.15104 -0.0714,2.12393 0.0969,3.29698 0.11049,0.76998 -0.24019,3.82571 -0.56238,4.90024 -0.16492,0.55005 -0.5727,1.31084 -0.90618,1.69065 -1.19555,1.36164 -2.62425,1.55208 -4.46473,0.59514 z m -69.386982,-6.69618 c 0,-0.0471 -0.424529,-1.90235 -0.943389,-4.12284 -0.518867,-2.2205 -0.904901,-4.07575 -0.857854,-4.1228 0.160643,-0.16065 1.991204,1.84944 1.997667,2.19358 0.0036,0.18873 0.157383,1.56147 0.341866,3.05052 0.33432,2.69842 0.297642,3.08713 -0.291308,3.08713 -0.135842,0 -0.246982,-0.0385 -0.246982,-0.0856 z M 21.9641,113.68855 c -0.415266,-3.12504 -0.328381,-8.31115 0.188719,-11.26488 0.79053,-4.515503 2.536913,-8.901135 5.06872,-12.728891 0.691136,-1.044909 1.358762,-2.005555 1.483611,-2.134768 0.178315,-0.184542 1.070872,0.610094 4.161197,3.704677 l 3.934199,3.93961 -0.462198,1.675808 c -0.254214,0.921693 -0.635559,2.696473 -0.847435,3.943954 l -0.38523,2.26815 -6.281695,6.22016 c -3.454932,3.42108 -6.353321,6.24529 -6.440852,6.27602 -0.08754,0.0307 -0.2761,-0.8242 -0.419036,-1.89984 z m 79.65377,0.4384 c -0.27216,-0.17241 -0.27898,-0.0756 0.6575,-9.32849 0.69864,-6.90286 1.78224,-10.47225 4.12547,-13.589412 1.23843,-1.647453 3.91833,-4.161466 6.11649,-5.737878 l 1.89985,-1.362483 2.04235,2.029872 c 1.12329,1.11643 2.03864,2.074078 2.03411,2.128105 -0.004,0.05403 -0.60315,0.517929 -1.33028,1.030892 -1.56056,1.100919 -4.70834,4.104447 -5.99131,5.716759 -3.37918,4.246597 -5.44808,8.651025 -8.3664,17.810945 -0.45634,1.43239 -0.6487,1.64318 -1.18778,1.30169 z m 51.67213,-0.8737 c -0.46164,-0.50082 -1.17631,-1.68478 -1.72691,-2.86093 -1.17249,-2.50457 -2.23649,-4.10999 -4.05282,-6.11511 -1.53164,-1.69084 -1.79674,-2.25892 -1.41893,-3.04059 0.35862,-0.74199 1.22342,-1.15612 2.90169,-1.389539 2.38733,-0.332041 5.25166,0.141055 8.78504,1.451019 1.68133,0.62333 5.14751,2.33945 5.99298,2.96714 0.30593,0.22712 -0.11806,0.70059 -4.51912,5.04652 -2.67119,2.63774 -4.92818,4.79589 -5.01554,4.79589 -0.0873,0 -0.51323,-0.38448 -0.94639,-0.8544 z m 30.37692,-3.24187 -2.75478,-2.77776 1.80486,0.0765 c 2.05077,0.087 2.85125,0.39887 3.41883,1.33218 0.45095,0.7415 0.67219,2.40338 0.45216,3.39639 l -0.16628,0.75043 z m -87.536959,0.24441 c -0.960242,-0.97642 -0.984598,-1.03015 -1.483403,-3.27252 -0.911765,-4.09886 -2.32062,-7.899373 -4.506877,-12.157728 l -1.07229,-2.08861 0.696582,-0.713363 c 0.383126,-0.392349 0.758676,-0.649372 0.83456,-0.57116 0.642308,0.662024 3.178402,6.15214 4.139778,8.961751 0.985151,2.87913 2.715953,10.48631 2.447041,10.75522 -0.04351,0.0435 -0.518444,-0.3676 -1.055391,-0.91359 z m 80.332809,-7.43684 -3.49559,-3.499384 0.62108,-1.962641 c 1.18001,-3.7289 1.25938,-3.845789 5.39598,-7.947121 2.0551,-2.037572 3.85853,-3.731278 4.00763,-3.763794 0.55361,-0.120725 0.92229,0.880151 1.08308,2.940314 0.18838,2.413735 0.61244,4.263001 1.76238,7.685596 0.47815,1.423118 0.86937,2.919802 0.86937,3.325964 0,1.886896 -0.98791,3.446056 -3.03332,4.787316 -1.40979,0.92447 -3.26956,1.93313 -3.5643,1.93313 -0.0829,0 -1.72374,-1.57472 -3.64631,-3.49938 z m -77.428432,0.79212 c 0.281787,-2.46383 0.52426,-3.955653 0.87233,-5.367037 1.120452,-4.543204 3.483422,-8.817887 6.803302,-12.3074 1.59436,-1.675817 4.67598,-4.302856 5.05764,-4.311575 0.22091,-0.005 1.53291,1.284657 1.40168,1.377861 -0.0451,0.03203 -0.46673,0.303584 -0.93694,0.603442 -4.39786,2.804539 -8.17541,7.690941 -10.75478,13.911732 -0.69143,1.667557 -2.164246,6.310027 -2.164246,6.821927 0,0.14765 -0.08844,0.26846 -0.196524,0.26846 -0.124913,0 -0.154964,-0.36347 -0.08246,-0.99741 z m 65.736252,-1.30153 c -0.59492,-0.52233 -0.73324,-0.93078 -0.31521,-0.93078 0.24402,0 1.3529,1.06497 1.3529,1.29933 0,0.3685 -0.3329,0.25026 -1.03769,-0.36855 z M 46.879714,102.02787 c 0.0036,-0.57438 1.003354,-2.399019 2.14563,-3.916732 2.567063,-3.410793 6.10883,-5.816683 9.835008,-6.68083 1.702797,-0.394901 3.941437,-0.577415 5.047645,-0.411528 l 0.920439,0.138024 -2.183578,0.65967 c -2.571365,0.776823 -6.530294,2.630461 -8.654511,4.052193 -2.133271,1.427792 -4.515845,3.481299 -5.841993,5.035133 -0.624264,0.73144 -1.165627,1.36551 -1.203031,1.40905 -0.03741,0.0435 -0.06692,-0.0847 -0.06563,-0.28498 z M 147.22447,97.634027 c -0.30828,-1.625126 -1.14988,-3.623712 -1.95281,-4.637497 -0.80616,-1.017836 -2.56288,-2.154479 -3.78175,-2.446877 -0.52234,-0.125307 -0.94971,-0.291264 -0.94971,-0.368792 0,-0.07753 0.36334,-0.249617 0.80744,-0.382416 3.11411,-0.931228 4.70342,-2.798385 5.67308,-6.664859 0.2218,-0.884451 0.42436,-1.632015 0.45012,-1.661254 0.0258,-0.02924 0.22871,0.726719 0.45101,1.679904 0.51027,2.187956 1.33801,3.748021 2.6011,4.902403 0.89113,0.814436 2.70422,1.735132 3.41692,1.735132 0.72724,0 0.2855,0.380358 -1.09925,0.946529 -2.66041,1.087735 -4.12788,3.026465 -4.82958,6.380546 -0.17343,0.828934 -0.36731,1.569258 -0.43086,1.645162 -0.0635,0.0759 -0.22362,-0.431688 -0.35571,-1.127981 z M 40.341408,98.481512 c 0.759358,-1.325791 2.753492,-4.121885 3.730385,-5.230597 1.788096,-2.029376 5.013185,-4.791222 5.594538,-4.790958 0.08566,4e-5 -1.447249,1.575246 -3.406478,3.500458 -1.959222,1.925214 -3.562224,3.612978 -3.562224,3.750587 0,0.137608 1.987722,-1.733531 4.417163,-4.158088 4.117791,-4.109511 4.513734,-4.451883 5.842058,-5.05157 3.378531,-1.525282 5.501879,-2.027925 9.119307,-2.158738 3.38251,-0.122319 5.385361,0.158632 7.78473,1.092008 1.593265,0.619796 4.270622,2.052421 4.119004,2.204039 -0.05385,0.05382 -0.702273,-0.03962 -1.441015,-0.207646 -0.738743,-0.168021 -2.451091,-0.401467 -3.805215,-0.518769 -8.421278,-0.72949 -16.651597,2.416606 -25.98724,9.933804 -2.29049,1.844338 -2.674026,2.105152 -2.405013,1.63547 z M 159.66041,95.251794 c -0.42433,-2.385984 -1.45508,-5.584627 -2.26939,-7.042438 -1.72192,-3.082629 -4.61178,-5.227685 -8.64005,-6.413239 -0.44744,-0.131687 -0.74667,-0.296102 -0.66494,-0.365365 0.0817,-0.06926 0.70429,-0.273822 1.38349,-0.454578 0.6792,-0.180757 1.94936,-0.634279 2.82258,-1.007828 l 1.58768,-0.679183 4.62099,4.618049 4.62098,4.618048 -0.44006,0.869735 c -0.65972,1.303854 -1.52335,3.870048 -2.00302,5.951791 -0.23475,1.018786 -0.48197,1.852338 -0.54938,1.852338 -0.0674,0 -0.27841,-0.876298 -0.46888,-1.94733 z M 32.930872,90.933038 c -2.065868,-2.087965 -3.727126,-3.882222 -3.691683,-3.987238 0.03547,-0.105016 0.833893,-1.057485 1.774323,-2.116597 7.054251,-7.944513 15.904051,-12.50132 24.950613,-12.847201 l 2.722292,-0.104082 1.119945,1.108245 c 0.615969,0.609536 1.178631,1.049557 1.250365,0.977827 0.07173,-0.07173 -0.03289,-0.283133 -0.232514,-0.469784 -0.199612,-0.186651 -0.619416,-0.625352 -0.932891,-0.974892 l -0.569957,-0.635527 1.424889,0.133022 c 1.559868,0.145622 4.176836,0.608272 4.334931,0.766365 0.05479,0.05477 -0.100593,0.312625 -0.345234,0.573028 -0.244635,0.260404 -0.389976,0.528278 -0.322982,0.595276 0.06699,0.067 0.37237,-0.146395 0.678599,-0.474209 0.306229,-0.327814 0.611597,-0.596025 0.678591,-0.596025 0.640527,0 5.880941,2.019049 7.98371,3.076 4.636127,2.330336 7.954937,4.763579 11.43577,8.384344 2.038151,2.120085 5.004378,6.000084 5.004378,6.546021 0,0.26307 -1.055639,1.371944 -1.306075,1.371944 -0.06929,0 -0.680078,-0.78823 -1.357305,-1.751624 -1.574208,-2.239396 -4.56794,-5.356112 -6.634598,-6.907148 -3.379673,-2.536455 -7.820252,-4.494429 -11.576049,-5.104199 -2.384972,-0.387209 -3.254135,-0.468449 -3.254135,-0.304162 0,0.08001 0.705317,0.465803 1.567379,0.857325 4.47363,2.031792 9.551397,5.183822 11.815535,7.334509 1.502883,1.427574 2.893513,3.151203 2.699186,3.345525 -0.06168,0.06168 -1.290189,-0.657351 -2.730027,-1.597838 -3.986731,-2.604088 -4.530141,-2.93263 -6.987558,-4.224636 -2.179895,-1.1461 -2.410685,-1.328266 -5.265294,-4.155996 -1.642007,-1.626545 -3.039896,-2.902925 -3.106424,-2.836399 -0.06656,0.06653 0.977704,1.24424 2.320519,2.617141 1.342807,1.372902 2.4679,2.523487 2.500205,2.556855 0.03231,0.03337 -1.036362,-0.308738 -2.374818,-0.760241 -2.225097,-0.750598 -4.119278,-1.186051 -6.592269,-1.5155 l -0.928956,-0.123755 1.208445,-1.219274 c 0.664647,-0.6706 1.122953,-1.219273 1.018462,-1.219273 -0.104492,0 -0.728856,0.5437 -1.387478,1.208224 l -1.197501,1.208223 -2.406736,0.103778 c -1.323707,0.05708 -3.078262,0.245369 -3.899,0.418427 -0.820745,0.173056 -1.531685,0.275227 -1.579873,0.227043 -0.04818,-0.04818 0.0091,-0.446835 0.127354,-0.885894 0.118228,-0.439058 0.173339,-0.839911 0.122457,-0.890785 -0.171751,-0.171756 -3.51405,1.672314 -4.815396,2.656831 -3.686721,2.789156 -6.810256,7.017074 -8.52055,11.533149 -0.395641,1.044713 -0.774962,1.899479 -0.842933,1.899479 -0.068,0 -1.813837,-1.708335 -3.879712,-3.796302 z M 62.931469,76.492127 c -0.09228,-0.290767 -0.05112,-0.352257 0.177181,-0.26465 0.163573,0.06276 0.297404,0.190469 0.297404,0.283781 0,0.09331 0.120238,0.169656 0.267189,0.169656 0.173661,0 0.232413,-0.133014 0.167831,-0.379966 -0.05464,-0.208982 -0.220644,-0.379967 -0.368873,-0.379967 -0.215998,0 -0.226568,-0.08023 -0.05321,-0.404128 0.260892,-0.487476 -0.01293,-0.728404 -0.832858,-0.732863 -1.080703,-0.0059 -1.858709,0.807768 -1.42952,1.495003 0.177338,0.283958 0.371343,0.343673 0.859283,0.264493 0.402399,-0.0653 0.630223,-0.02461 0.630223,0.112571 0,0.118162 0.09126,0.214841 0.202794,0.214841 0.116116,0 0.151402,-0.161886 0.08257,-0.378771 z m 1.614499,-1.521064 c 0,-0.10449 -0.08549,-0.189983 -0.189984,-0.189983 -0.104491,0 -0.18999,0.08549 -0.18999,0.189983 0,0.104491 0.0855,0.189984 0.18999,0.189984 0.104492,0 0.189984,-0.08549 0.189984,-0.189984 z m 71.365622,19.168023 c -0.0429,-0.145569 -0.21888,-1.114387 -0.3912,-2.152928 l -0.3133,-1.888257 1.27872,-1.288578 c 0.70329,-0.708715 1.31357,-1.253716 1.35618,-1.211108 0.0426,0.04261 -0.10044,0.617256 -0.31789,1.276999 -0.21746,0.659742 -0.61957,2.13995 -0.8936,3.28935 -0.52694,2.210216 -0.59474,2.39642 -0.71891,1.974522 z M 41.747698,93.173678 c 0,-0.55724 1.409091,-3.168497 2.433513,-4.509659 1.917884,-2.510873 4.672396,-4.556732 7.719824,-5.733742 1.452519,-0.561006 4.094598,-1.184119 4.271362,-1.007365 0.04703,0.04702 -0.293886,0.475468 -0.757585,0.952089 -0.575292,0.591329 -1.454522,1.160746 -2.768062,1.792689 -3.681457,1.771146 -8.001194,5.103427 -10.171532,7.846405 -0.400136,0.505715 -0.72752,0.802526 -0.72752,0.659583 z M 176.26655,91.162281 c 1.44322,-2.626483 5.36499,-6.320948 6.01735,-5.668596 0.0962,0.0962 -2.83436,3.050249 -5.91258,5.959947 l -0.55112,0.520948 z m -41.49692,-2.74989 c -0.1778,-0.653068 -0.7241,-2.030448 -1.214,-3.060846 l -0.89072,-1.873447 -1.03921,0.122136 c -3.89278,0.457514 -8.47169,1.963935 -11.67363,3.840519 l -1.13631,0.665966 -2.07355,-2.073528 -2.07355,-2.073529 1.25749,-1.000606 c 1.01116,-0.804596 1.21457,-1.052317 1.03841,-1.264581 -0.32416,-0.390589 -0.61457,-0.333182 -2.10084,0.415283 l -1.34884,0.679255 -0.64127,-0.621533 c -0.35269,-0.341843 -0.64126,-0.689182 -0.64126,-0.771865 0,-0.463204 4.79746,-2.883221 7.59942,-3.833425 1.09717,-0.372073 3.23451,-0.902016 4.74964,-1.177651 3.57191,-0.649805 4.80947,-1.256569 6.93447,-3.39988 2.41101,-2.431787 3.3818,-4.461464 4.839,-10.117088 0.14371,-0.557792 0.28613,-0.768725 0.47109,-0.697748 0.36108,0.138555 0.45442,0.415957 0.95129,2.827112 0.98471,4.778513 3.0473,8.169128 6.28799,10.33661 0.77961,0.521425 1.93502,1.136755 2.5676,1.3674 l 1.15013,0.419355 -1.00909,1.026696 c -0.555,0.564682 -1.5956,1.336291 -2.31245,1.714687 -1.91077,1.008619 -3.99687,3.059575 -5.22873,5.14065 -0.67021,1.132233 -1.51544,2.204676 -2.4875,3.156204 -0.80979,0.792688 -1.51283,1.441251 -1.56232,1.441251 -0.0495,0 -0.23545,-0.534329 -0.41326,-1.187397 z m 23.96169,-4.701071 c -2.48169,-2.523843 -4.51158,-4.646583 -4.51087,-4.7172 7.2e-4,-0.07062 0.31547,-0.342128 0.69946,-0.603355 1.11093,-0.755771 2.679,-2.800821 3.56898,-4.654593 0.51163,-1.065699 1.09005,-2.765546 1.53535,-4.512107 0.39296,-1.541241 0.77428,-2.802255 0.84739,-2.802255 0.0731,0 0.31595,0.935557 0.53963,2.079017 1.49148,7.624414 4.25647,11.121466 10.37794,13.12559 l 1.32628,0.434213 -2.08622,0.689421 c -1.14742,0.379182 -2.63838,0.985461 -3.31324,1.34729 -1.2097,0.648579 -3.10363,2.335282 -4.00887,3.570226 l -0.46367,0.632555 z M 55.42666,83.340964 c 0,-0.06793 0.324202,-0.440074 0.720454,-0.826998 0.681341,-0.665307 0.787068,-0.703341 1.947353,-0.70059 0.674793,0.0015 1.355136,0.08578 1.511873,0.187075 0.236714,0.152974 0.22063,0.185997 -0.09499,0.194989 -0.208983,0.006 -1.213529,0.293919 -2.232328,0.639923 -1.018799,0.346005 -1.852361,0.573526 -1.852362,0.505601 z m 91.79467,-5.245438 0.88657,-0.902925 0.87775,0.245752 c 0.48276,0.135164 0.84745,0.336647 0.81042,0.44774 -0.0371,0.111094 -0.61724,0.341884 -1.28936,0.512868 -0.67211,0.170984 -1.43576,0.375818 -1.69699,0.455186 -0.39934,0.121331 -0.33381,5.51e-4 0.41161,-0.758621 z M 136.86714,61.735552 c -0.19708,-0.197083 -0.14891,-0.823262 0.0633,-0.823262 0.1045,0 0.18999,0.213731 0.18999,0.474959 0,0.497388 -0.0439,0.557729 -0.25332,0.348303 z"
       id="path3799" />
  </g>
</svg>
