<?xml version="1.0" encoding="UTF-8" standalone="no"?>
<!-- Created with Inkscape (http://www.inkscape.org/) -->

<svg
   width="210mm"
   height="297mm"
   viewBox="0 0 210 297"
   version="1.1"
   id="svg1151"
   inkscape:version="1.3 (0e150ed6c4, 2023-07-21)"
   sodipodi:docname="Herz-Pfode2.svg"
   xmlns:inkscape="http://www.inkscape.org/namespaces/inkscape"
   xmlns:sodipodi="http://sodipodi.sourceforge.net/DTD/sodipodi-0.dtd"
   xmlns="http://www.w3.org/2000/svg"
   xmlns:svg="http://www.w3.org/2000/svg">
  <sodipodi:namedview
     id="namedview1153"
     pagecolor="#ffffff"
     bordercolor="#666666"
     borderopacity="1.0"
     inkscape:pageshadow="2"
     inkscape:pageopacity="0.0"
     inkscape:pagecheckerboard="0"
     inkscape:document-units="mm"
     showgrid="false"
     inkscape:zoom="0.23496321"
     inkscape:cx="251.10314"
     inkscape:cy="540.51015"
     inkscape:window-width="1366"
     inkscape:window-height="705"
     inkscape:window-x="-8"
     inkscape:window-y="-8"
     inkscape:window-maximized="1"
     inkscape:current-layer="layer1"
     inkscape:showpageshadow="2"
     inkscape:deskcolor="#d1d1d1" />
  <defs
     id="defs1148" />
  <g
     inkscape:label="Ebene 1"
     inkscape:groupmode="layer"
     id="layer1">
    <path
       style="fill:none;stroke:#000000;stroke-width:0.264583;stroke-opacity:1"
       d="m 96.786458,208.82865 c -0.188016,-0.48982 -0.107545,-3.55491 0.143234,-5.45575 0.694682,-5.26554 1.79268,-9.12024 3.659488,-12.84728 2.46788,-4.92709 3.29849,-6.4021 4.31773,-7.66757 0.26419,-0.328 0.53642,-0.67304 0.60498,-0.76676 1.62426,-2.22048 7.97415,-8.92814 11.29114,-11.92733 1.96282,-1.77474 2.32392,-2.07714 3.46496,-2.90158 0.64474,-0.46585 1.48842,-1.07942 1.87483,-1.36349 0.38641,-0.28406 1.66128,-1.20188 2.83305,-2.03959 2.65642,-1.89912 5.44459,-3.99794 6.5619,-4.93952 0.46871,-0.395 1.50883,-1.24702 2.31138,-1.89339 0.80255,-0.64637 1.79962,-1.45964 2.2157,-1.80727 0.41609,-0.34762 1.6002,-1.33241 2.63136,-2.18842 1.03116,-0.85601 2.25831,-1.88371 2.72702,-2.28379 0.46871,-0.40007 1.50412,-1.28308 2.30093,-1.96224 0.7968,-0.67917 1.64047,-1.39895 1.87482,-1.59951 0.23435,-0.20058 0.77124,-0.63265 1.19308,-0.96018 1.4061,-1.09173 1.94041,-1.58874 5.03244,-4.681 5.22866,-5.22905 8.60267,-9.24165 8.60267,-10.23087 0,-2.44879 -13.87585,-3.58162 -23.77623,-1.94109 -4.96311,0.82241 -9.41293,2.19777 -13.37473,4.13389 -2.14238,1.04698 -3.05355,1.68284 -7.56793,5.28123 -7.98636,6.36591 -10.5035,8.81748 -10.50322,10.2296 1.5e-4,0.72607 1.13024,2.12966 2.98408,3.70623 5.66687,4.81933 8.13868,6.2067 14.23015,7.98706 0.70306,0.20549 1.37416,0.45167 1.49134,0.54708 0.41456,0.33756 0.21266,0.8815 -0.61489,1.65658 -1.0506,0.98399 -3.69437,2.56454 -4.2897,2.56454 -1.35531,0 -4.63561,-1.68476 -6.45448,-3.31501 -0.31834,-0.28532 -1.61247,-1.81325 -2.87584,-3.39538 -1.26338,-1.58213 -2.39831,-3.00063 -2.52208,-3.15222 -0.12376,-0.15159 -0.83438,-1.04237 -1.57913,-1.97952 -1.75231,-2.20497 -2.11655,-2.53968 -2.62492,-2.41212 -0.36271,0.091 -2.75782,2.05574 -5.822838,4.77651 -1.703402,1.5121 -4.62948,3.93704 -5.812577,4.81707 -0.562449,0.41838 -1.142207,0.85226 -1.288351,0.96418 -0.687379,0.5264 -1.349797,0.97024 -1.44807,0.97024 -0.05963,0 -0.312005,0.14194 -0.560828,0.31543 -0.248824,0.17348 -1.065989,0.64383 -1.81592,1.04523 -1.781685,0.95363 -4.182172,2.37329 -4.559242,2.69637 -0.164048,0.14055 -0.298268,0.35299 -0.298268,0.47208 0,0.11909 0.671103,0.80432 1.491341,1.52274 4.182586,3.66338 5.141086,4.55727 6.500001,6.06187 2.209082,2.44588 3.392637,4.31733 4.3669,6.90497 0.467641,1.24205 1.340426,4.21165 1.521485,5.17675 0.06152,0.328 0.235673,1.24811 0.386978,2.04469 0.188403,0.99194 0.279934,2.47991 0.29046,4.72209 0.0134,2.85943 -0.02106,3.31024 -0.272661,3.56187 -0.270446,0.27052 -0.313316,0.23189 -0.702187,-0.63272 -0.227788,-0.50645 -0.915913,-2.45434 -1.529171,-4.32863 -2.433955,-7.43885 -3.426557,-9.36019 -9.462892,-18.31697 -4.132081,-6.13123 -4.101999,-6.08908 -4.437634,-6.21784 -0.223351,-0.0857 -1.153317,0.20193 -2.498814,0.77281 -2.347686,0.99609 -7.489543,2.25823 -11.078533,2.71937 -0.843675,0.10841 -2.047174,0.26763 -2.67445,0.35384 -1.465023,0.20135 -8.900637,0.20417 -9.972254,0.004 -0.449882,-0.0841 -1.354856,-0.24397 -2.011049,-0.35523 -2.436806,-0.41316 -4.99435,-0.99837 -8.181064,-1.872 -3.482391,-0.95469 -6.698692,-2.32194 -7.925891,-3.3693 -0.356109,-0.30392 -1.003908,-0.70533 -1.439566,-0.89202 -2.766136,-1.18537 -8.665029,-6.45187 -10.691802,-9.54559 -2.886011,-4.40528 -3.094152,-8.93609 -0.635766,-13.83954 0.496842,-0.99099 2.427478,-3.99127 3.160901,-4.91216 0.93406,-1.17281 4.272136,-4.45671 5.648102,-5.55643 3.820624,-3.05358 8.215154,-5.49665 12.139677,-6.74887 1.86254,-0.59429 2.794532,-0.80141 2.944438,-0.65434 0.0727,0.0713 0.111057,1.38078 0.08522,2.9099 -0.05025,2.97352 -0.0013,2.81346 -0.984388,3.20086 -0.234353,0.0923 -0.809585,0.32958 -1.278289,0.52724 -0.468711,0.19767 -1.849264,0.75113 -3.067902,1.22991 -4.440208,1.74449 -8.068796,4.42379 -12.027667,8.88102 -0.769104,0.86593 -2.358725,3.3004 -2.837028,4.34485 -1.2732,2.78024 -1.204981,4.9167 0.249246,7.80584 0.96364,1.91448 1.869954,3.12433 3.701805,4.9416 3.595883,3.56726 8.143218,5.871 13.555447,6.86737 6.864556,1.26373 13.627486,1.32605 20.537894,0.18926 3.32938,-0.54769 8.102523,-1.99057 8.998885,-2.72028 l 0.375257,-0.30549 -0.511317,-0.53996 c -0.281224,-0.29698 -1.700128,-1.43389 -3.15312,-2.52648 -1.452991,-1.09259 -2.680151,-2.0269 -2.727022,-2.07624 -0.0469,-0.0493 -0.430363,-0.35517 -0.852197,-0.67961 -3.931197,-3.0237 -10.002981,-9.26062 -12.438647,-12.77709 -0.227189,-0.328 -0.455112,-0.6347 -0.506505,-0.68156 -0.348932,-0.31817 -1.605036,-2.36899 -2.191612,-3.5782 -1.304906,-2.69003 -2.289952,-6.1877 -2.770181,-9.8362 -0.256538,-1.94903 -0.112216,-6.76481 0.256389,-8.55526 0.707695,-3.43755 2.803531,-8.03625 4.817852,-10.57139 0.113234,-0.1425 0.443079,-0.5658 0.732985,-0.94066 0.852236,-1.10195 3.392587,-3.62375 4.750909,-4.71622 2.512452,-2.02071 5.52333,-3.81234 7.945346,-4.727886 0.562452,-0.212612 1.176032,-0.450856 1.363514,-0.529431 0.187481,-0.07857 0.916106,-0.309095 1.619169,-0.512267 0.70306,-0.203173 1.470036,-0.429905 1.704389,-0.50385 0.234354,-0.07395 0.886282,-0.225555 1.448731,-0.336913 0.562449,-0.111358 1.367773,-0.289721 1.789609,-0.396364 1.10317,-0.278887 7.32177,-0.262683 8.607168,0.02243 2.054645,0.455736 2.579327,0.591863 3.749657,0.972835 2.122239,0.690843 3.98241,1.478193 7.840864,3.318776 1.809724,0.86329 6.372786,5.22646 8.304726,7.94093 0.9362,1.3154 1.31006,1.55434 2.01281,1.28646 0.2307,-0.0879 1.76166,-1.15191 3.40213,-2.36436 2.63628,-1.94845 3.98288,-2.87486 6.1358,-4.22121 0.74725,-0.46729 3.93816,-2.01255 4.8844,-2.36536 1.06103,-0.39561 6.58424,-1.77194 8.2394,-2.05319 5.30891,-0.902094 9.2906,-0.706542 14.82819,0.72826 3.7708,0.97701 7.00543,2.34503 9.56974,4.04729 1.27961,0.84945 4.08429,3.5079 5.44103,5.15736 3.76128,4.57277 5.30734,9.23204 4.77965,14.40408 -0.1706,1.67204 -0.16072,1.89311 0.0973,2.17812 0.15793,0.17446 1.5193,0.98409 3.02526,1.79919 1.50596,0.81509 2.95046,1.59848 3.21001,1.74086 1.32593,0.72736 4.86104,3.89132 6.85728,6.13733 2.01668,2.26903 3.31306,4.56241 4.08016,7.21806 0.35928,1.24384 0.43616,1.86872 0.43616,3.54535 0,3.16977 -0.57399,5.14298 -2.39553,8.23512 -0.22081,0.37486 -0.4437,0.7199 -0.49529,0.76676 -0.0516,0.0469 -0.32048,0.3919 -0.59754,0.76675 -0.66882,0.90491 -2.71215,2.94944 -3.67008,3.67225 -0.42183,0.31829 -0.80532,0.61915 -0.85219,0.66858 -0.65941,0.69535 -4.99962,3.04869 -7.07483,3.8361 -2.32015,0.88034 -11.03311,3.3331 -14.31526,4.02984 -0.46871,0.0995 -1.12064,0.24062 -1.44873,0.3136 -1.98037,0.44048 -4.70632,0.95852 -6.30624,1.19844 -0.70306,0.10543 -1.47003,0.22336 -1.70439,0.26208 -0.23435,0.0387 -1.69161,0.18774 -3.23834,0.33115 -2.70163,0.25051 -4.38633,0.21354 -5.27166,-0.11568 -0.40516,-0.15068 -0.38852,-0.18002 0.76698,-1.35267 2.60768,-2.64638 5.27574,-4.23485 7.83332,-4.66369 0.37217,-0.0624 1.4053,-0.25369 2.29585,-0.42508 0.89054,-0.1714 2.53953,-0.47733 3.66443,-0.67985 7.05563,-1.27029 8.50366,-1.62298 12.44204,-3.03049 6.34935,-2.26915 11.57003,-5.56339 14.05347,-8.86772 1.62493,-2.16205 2.21886,-3.78861 2.22161,-6.08424 0.003,-2.58091 -0.97396,-4.56789 -3.64328,-7.40911 -0.86508,-0.92077 -1.79465,-1.76161 -2.83155,-2.56122 -0.42184,-0.32531 -0.80533,-0.63556 -0.8522,-0.68945 -0.52132,-0.59941 -4.18955,-2.65313 -5.76382,-3.22697 -1.57002,-0.5723 -1.70407,-0.5005 -2.18541,1.17039 -0.96295,3.34262 -3.22758,8.39337 -4.6832,10.4448 -0.17651,0.24875 -0.32093,0.49856 -0.32093,0.55514 0,0.28611 -3.4604,4.82466 -4.93963,6.47868 -8.8482,9.89363 -14.61857,15.19744 -25.31328,23.26656 -2.15605,1.62673 -4.16036,3.15544 -4.45402,3.39713 -0.29365,0.2417 -1.01599,0.82284 -1.60519,1.29141 -4.26412,3.39114 -9.37924,8.46019 -12.3482,12.23699 -0.28123,0.35774 -0.74141,0.94151 -1.02263,1.29726 -4.49229,5.68282 -6.334083,9.22148 -8.298152,15.94329 -0.324378,1.11012 -0.98193,1.65 -1.2282,1.00841 z m -20.15606,-48.15973 c 1.551708,-0.80397 5.148586,-2.96435 7.099243,-4.26401 3.836912,-2.5564 10.785785,-8.90561 11.763757,-10.74859 0.339025,-0.63888 0.374127,-0.83482 0.212895,-1.18858 -0.462829,-1.0155 -3.637074,-2.85021 -10.498469,-6.06808 -1.014957,-0.476 -1.870189,-0.86546 -1.900515,-0.86546 -0.03033,0 -0.733856,-0.31038 -1.563402,-0.68973 -0.829546,-0.37936 -1.66166,-0.75491 -1.849143,-0.83458 -0.406752,-0.17283 -1.405795,-0.59941 -2.173096,-0.92789 -3.973034,-1.70083 -8.522374,-2.99094 -13.251631,-3.75793 -1.452991,-0.23565 -3.178688,-0.51541 -3.834874,-0.6217 -1.394872,-0.22595 -2.261318,-0.5506 -2.576309,-0.96533 -0.325252,-0.42825 -0.308124,-3.57388 0.0257,-4.72192 0.364792,-1.25448 0.706387,-1.52491 1.734316,-1.373 0.88648,0.131 1.860601,0.37908 3.713742,0.94577 0.656193,0.20066 1.346469,0.40341 1.533951,0.45055 0.187481,0.0471 0.494271,0.1456 0.681753,0.2188 0.187482,0.0732 1.107852,0.38 2.045268,0.68179 0.937415,0.30178 2.087879,0.68958 2.556586,0.86177 9.169117,3.36841 12.962324,5.18878 19.089164,9.16095 2.528412,1.63924 4.040481,2.81468 5.863629,4.55827 2.03757,1.94863 2.878534,2.5075 3.36295,2.23487 0.371498,-0.2091 1.012984,-0.74351 4.221387,-3.51678 3.96916,-3.43085 5.34425,-4.54759 7.19751,-5.84523 0.76223,-0.53371 1.4525,-0.9705 1.53395,-0.97063 0.0814,-1.4e-4 0.83835,-0.58063 1.68203,-1.28999 1.68276,-1.41485 4.59787,-2.98724 8.52195,-4.59668 0.37496,-0.15378 0.91184,-0.37893 1.19307,-0.50032 2.39016,-1.03168 6.55445,-2.26842 9.37414,-2.78398 0.56245,-0.10284 1.55952,-0.28581 2.21571,-0.40661 1.61051,-0.29647 12.76648,-0.30052 14.57253,-0.005 0.70306,0.11493 2.00692,0.32564 2.89746,0.46826 1.39844,0.22395 2.75745,0.53104 4.85751,1.0976 0.28123,0.0759 1.33169,0.41562 2.33436,0.75499 2.01897,0.68336 2.38486,0.73335 2.6887,0.36735 0.44187,-0.53226 -0.22489,-2.80908 -1.60238,-5.4717 -3.19068,-6.16745 -7.34442,-9.8039 -13.47657,-11.79826 -1.09142,-0.35496 -1.89549,-0.55545 -3.66444,-0.91372 -1.62575,-0.32926 -7.65944,-0.27408 -9.59872,0.0878 -5.21375,0.97289 -9.34949,2.49647 -13.21215,4.86729 -3.34579,2.05357 -5.65553,4.06829 -12.06176,10.52114 -3.1033,3.12587 -5.75516,5.6834 -5.89305,5.6834 -0.47941,0 -1.46563,-1.361 -2.778051,-3.83378 -3.122104,-5.88248 -4.541275,-8.36344 -5.019552,-8.77511 -0.05443,-0.0469 -0.327004,-0.3906 -0.605702,-0.76389 -2.472974,-3.31224 -6.963699,-6.02994 -11.541493,-6.98471 -1.629241,-0.3398 -5.749192,-0.34522 -7.46511,-0.01 -3.508543,0.68578 -6.667576,2.03965 -9.970679,4.27314 -0.937416,0.63386 -1.742742,1.19857 -1.789613,1.25491 -0.0469,0.0563 -0.35366,0.30291 -0.681754,0.54793 -1.595276,1.19131 -2.28923,2.08855 -3.608637,4.66578 -1.212667,2.36871 -2.020377,4.44621 -2.501173,6.4332 -0.244981,1.01244 -0.256866,5.17833 -0.01862,6.52916 0.562503,3.18942 1.068344,5.0836 1.803842,6.7547 0.258799,0.588 0.737134,1.4908 1.062972,2.00623 0.325839,0.51544 1.021919,1.78058 1.546841,2.81145 1.195757,2.34825 2.662519,4.56679 4.111799,6.21925 0.616441,0.70286 1.535716,1.85299 2.042833,2.55585 2.958029,4.09979 6.391876,8.358 7.18644,8.91168 0.587026,0.40906 0.894465,0.35411 2.408898,-0.43054 z m -2.890261,37.41944 c -0.364612,-0.24508 -1.506603,-1.2644 -2.537759,-2.26515 -1.278519,-1.24081 -2.310872,-2.06958 -3.245762,-2.60571 -1.91861,-1.10023 -3.004289,-2.00349 -3.475545,-2.89156 -0.479893,-0.90435 -0.408667,-1.39543 0.314662,-2.16954 0.918458,-0.98292 1.719165,-1.20451 4.20518,-1.1637 1.826359,0.03 2.461824,-0.0309 3.729491,-0.35744 2.613911,-0.67326 3.124074,-0.34328 3.643833,2.35685 0.524756,2.72609 0.675833,6.24227 0.340031,7.91388 -0.16348,0.81379 -0.289213,1.04043 -0.724366,1.30571 -0.726973,0.44317 -1.467342,0.40259 -2.249765,-0.12334 z m 7.006822,-2.31803 c -3.01175,-1.04532 -1.43474,-5.30272 2.164059,-5.84224 0.6554,-0.0983 0.963539,-0.0427 1.743941,0.31449 1.522651,0.69689 1.63428,1.3716 0.499729,3.02048 -0.981544,1.4265 -1.91702,2.22166 -2.873778,2.44271 -0.281225,0.065 -0.626363,0.14601 -0.766975,0.18008 -0.140612,0.0341 -0.485752,-0.0179 -0.766976,-0.11552 z m 54.161291,0.0183 c -0.37778,-0.10914 -0.85442,-0.53593 -1.52458,-1.36513 -0.63644,-0.78749 -1.71794,-1.77192 -3.11482,-2.83525 -3.535,-2.6909 -3.92946,-3.16666 -3.92946,-4.7391 0,-1.08779 0.48976,-1.77835 1.48053,-2.08754 0.87985,-0.27457 8.92881,-0.56024 9.21765,-0.32715 0.20526,0.16565 0.54389,0.83001 0.80321,1.57584 0.234,0.67298 0.58895,3.60325 0.58823,4.85613 -6.4e-4,1.28371 -0.36354,4.52114 -0.52473,4.68229 -0.11046,0.11042 -1.80897,0.43431 -2.17141,0.41405 -0.15125,-0.008 -0.52233,-0.0868 -0.82462,-0.17414 z m 6.61327,-2.46669 c -0.48762,-0.41019 -0.52439,-0.51965 -0.52439,-1.56114 0,-2.03672 1.1768,-3.23673 3.35086,-3.41697 1.63912,-0.13589 3.29626,0.69901 3.29626,1.66072 0,0.44396 -1.21502,2.16245 -1.89072,2.67418 -1.5491,1.17317 -3.28785,1.43744 -4.23201,0.64321 z m -60.984118,-5.30209 c -0.642857,-0.12323 -1.068735,-0.91826 -1.068735,-1.99511 0,-2.30953 1.974847,-4.35939 4.199856,-4.35939 0.697904,0 0.929377,0.0804 1.267092,0.44017 0.359101,0.38254 0.412596,0.60004 0.40862,1.6613 -0.0038,1.02103 -0.07732,1.33401 -0.448498,1.90991 -1.038323,1.61101 -2.914808,2.61985 -4.358335,2.34312 z m 61.649498,-2.20009 c -1.24628,-0.774 -1.08526,-2.64358 0.36425,-4.22913 1.03921,-1.13673 2.06658,-1.66851 3.22348,-1.66851 0.72949,0 0.96419,0.0791 1.33476,0.44984 0.37557,0.37573 0.44771,0.59652 0.43791,1.34019 -0.007,0.50361 -0.14411,1.14252 -0.3165,1.4709 -0.43889,0.83604 -1.77419,2.20965 -2.51564,2.5878 -0.76722,0.39129 -1.94039,0.41399 -2.52826,0.0489 z m -73.849349,-1.7217 c -0.306417,-0.046 -0.60118,-0.2667 -0.819074,-0.61331 -0.513288,-0.81653 -0.364418,-2.02419 0.446365,-3.62111 1.730315,-3.40802 4.189703,-3.16709 4.614391,0.45203 0.190551,1.62385 -0.412644,2.99524 -1.520432,3.45674 -0.626177,0.26087 -2.031915,0.4291 -2.72125,0.32565 z m 7.339148,-0.16634 c -0.971255,-0.62263 -1.436712,-2.56956 -0.95329,-3.98747 0.316584,-0.92855 1.116132,-1.97681 1.940053,-2.54352 0.610983,-0.42025 0.907502,-0.51522 1.478077,-0.47343 0.602062,0.0441 0.764928,0.14017 1.040701,0.61387 0.926903,1.59216 0.282044,4.89007 -1.218499,6.23159 -0.505727,0.45213 -1.700211,0.53515 -2.287042,0.15896 z m 61.474831,-2.44842 c -0.47136,-0.49228 -0.50035,-0.60422 -0.49653,-1.91689 0.005,-1.58894 0.20496,-2.0875 1.3313,-3.31302 1.15918,-1.26125 2.18961,-1.52499 3.36906,-0.86229 1.01446,0.57 1.08624,1.57607 0.27141,3.80357 -0.26154,0.71496 -0.63967,1.29129 -1.25767,1.91689 -0.84831,0.85874 -0.92037,0.89455 -1.80033,0.89455 -0.80063,0 -0.97999,-0.0662 -1.41724,-0.52281 z m -6.84193,-0.0439 c -0.87234,-0.31934 -0.98841,-0.53373 -0.97821,-1.80677 0.008,-1.01461 0.0845,-1.28856 0.59653,-2.14054 1.53617,-2.5559 3.6375,-2.97542 4.7136,-0.94105 1.43132,2.7059 -1.44064,5.94676 -4.33192,4.88836 z m -4.25799,-25.66515 c -0.58317,-0.35548 -1.50385,-1.30487 -2.98227,-3.07527 -0.50868,-0.60915 -1.87776,-1.88154 -3.0424,-2.82755 -1.16463,-0.94601 -2.25285,-1.94279 -2.41827,-2.21507 -0.4008,-0.65974 -0.38083,-1.46051 0.0582,-2.33355 0.7079,-1.40775 0.28687,-1.31374 5.88346,-1.31374 h 4.99828 l 0.0846,0.38338 c 0.45794,2.07469 0.58157,7.09131 0.23143,9.39081 -0.16718,1.09792 -0.29285,1.42866 -0.69599,1.83169 -0.58963,0.58946 -1.32108,0.6445 -2.11705,0.1593 z m 6.99937,-1.95127 c -0.82354,-0.36716 -1.08711,-0.87815 -1.08711,-2.10752 0,-1.21553 0.25482,-1.83745 1.01481,-2.47675 0.96075,-0.80819 3.39429,-0.9932 4.64464,-0.35311 0.53018,0.27142 0.75249,1.06681 0.57,2.0393 -0.22237,1.18496 -2.30926,2.76523 -4.01374,3.03935 -0.34847,0.056 -0.8178,-0.003 -1.1286,-0.14127 z m 0.0928,-8.09689 c -0.42824,-0.42813 -0.49821,-0.62793 -0.49821,-1.42276 0,-0.76869 0.0915,-1.05117 0.54261,-1.67441 0.67852,-0.93754 0.73731,-0.99436 1.6731,-1.61717 1.0849,-0.72205 1.61544,-0.92166 2.44967,-0.92166 0.8057,0 1.30211,0.3826 1.63463,1.25987 0.64106,1.69131 -2.38263,4.85743 -4.65133,4.87044 -0.49667,0.003 -0.77111,-0.11507 -1.15047,-0.49431 z m -3.73067,-3.91111 c -0.23112,-0.0653 -0.57538,-0.38433 -0.76502,-0.70887 -0.49481,-0.84678 -0.45686,-2.87473 0.0716,-3.82749 0.8393,-1.51313 1.97054,-2.30027 3.30583,-2.30027 0.90553,0 1.32029,0.34255 1.60457,1.32521 0.72398,2.50253 -2.04749,6.12471 -4.217,5.51142 z m -7.25764,-0.60132 c -0.85286,-0.37139 -1.17241,-1.03176 -1.1621,-2.40152 0.0104,-1.38242 0.38667,-2.2776 1.35069,-3.21359 0.66475,-0.64541 1.98635,-1.07706 2.66448,-0.87025 1.73321,0.52858 2.24508,3.57002 0.86156,5.11928 -0.62791,0.70314 -1.17602,1.04127 -2.18286,1.3466 -0.99795,0.30264 -0.88481,0.3012 -1.53177,0.0195 z m 56.19725,-7.23987 c -0.25058,-0.27136 -0.775,-0.87036 -1.16537,-1.33112 -0.62172,-0.73381 -3.43044,-2.98122 -5.17038,-4.1371 -0.85664,-0.56909 -1.86389,-1.54644 -2.14453,-2.08088 -0.49135,-0.9357 -0.22386,-2.00405 0.72319,-2.88841 0.68169,-0.63657 2.65325,-0.86224 6.94065,-0.79444 l 3.38884,0.0536 0.30828,0.97356 c 0.65941,2.08238 1.01271,6.624 0.67201,8.63874 -0.28935,1.71109 -0.63671,2.05944 -2.05361,2.05944 -0.93255,0 -1.09192,-0.0525 -1.49908,-0.49338 z m 6.88294,-2.27077 c -0.36559,-0.52181 -0.36795,-3.18739 -0.003,-3.9552 0.64926,-1.36783 3.7513,-2.02363 5.03655,-1.06477 1.10639,0.82543 0.792,2.58566 -0.70301,3.93593 -1.5039,1.3583 -3.74483,1.91932 -4.33005,1.08404 z m 0.67202,-7.6897 c -1.01389,-0.45307 -1.2641,-1.24787 -0.8286,-2.63204 0.33858,-1.07613 1.74902,-2.65576 2.81447,-3.15208 0.62401,-0.29069 1.7511,-0.38217 2.26754,-0.18405 0.38253,0.14675 0.77461,0.96289 0.77461,1.61243 0,2.50347 -3.12157,5.20767 -5.02802,4.35574 z m -4.46227,-3.77512 c -1.54087,-0.64771 -1.77839,-3.54489 -0.45459,-5.54472 0.61938,-0.93569 1.25157,-1.23188 2.65678,-1.24474 1.56939,-0.0144 1.74566,0.17382 1.72033,1.83671 -0.0164,1.07258 -0.10971,1.44997 -0.62149,2.51181 -0.66343,1.37648 -1.25667,2.0396 -2.16344,2.41826 -0.50562,0.21115 -0.68091,0.21464 -1.13759,0.0227 z m -7.92949,-0.34768 c -0.45046,-0.24445 -0.81406,-1.07812 -0.81624,-1.87148 -0.002,-0.75613 0.49221,-2.17597 1.03365,-2.96919 1.26203,-1.84888 2.96347,-2.02154 4.18203,-0.4244 0.38126,0.49973 0.46467,0.78994 0.47752,1.66149 0.02,1.3589 -0.37642,2.19623 -1.37372,2.90144 -1.34598,0.95178 -2.58543,1.2002 -3.50324,0.70214 z"
       id="path1242" />
  </g>
</svg>
