<?xml version="1.0" encoding="UTF-8" standalone="no"?>
<!-- Created with Inkscape (http://www.inkscape.org/) -->

<svg
   width="210mm"
   height="297mm"
   viewBox="0 0 210 297"
   version="1.1"
   id="svg5"
   inkscape:version="1.3 (0e150ed6c4, 2023-07-21)"
   sodipodi:docname="Herz-Pfode.svg"
   xmlns:inkscape="http://www.inkscape.org/namespaces/inkscape"
   xmlns:sodipodi="http://sodipodi.sourceforge.net/DTD/sodipodi-0.dtd"
   xmlns="http://www.w3.org/2000/svg"
   xmlns:svg="http://www.w3.org/2000/svg">
  <sodipodi:namedview
     id="namedview7"
     pagecolor="#ffffff"
     bordercolor="#666666"
     borderopacity="1.0"
     inkscape:pageshadow="2"
     inkscape:pageopacity="0.0"
     inkscape:pagecheckerboard="0"
     inkscape:document-units="mm"
     showgrid="false"
     inkscape:zoom="0.23496321"
     inkscape:cx="187.26336"
     inkscape:cy="663.93372"
     inkscape:window-width="1366"
     inkscape:window-height="705"
     inkscape:window-x="-8"
     inkscape:window-y="-8"
     inkscape:window-maximized="1"
     inkscape:current-layer="layer1"
     inkscape:showpageshadow="2"
     inkscape:deskcolor="#d1d1d1" />
  <defs
     id="defs2" />
  <g
     inkscape:label="Ebene 1"
     inkscape:groupmode="layer"
     id="layer1">
    <path
       style="fill:none;stroke:#000000;stroke-width:0.265;stroke-miterlimit:4;stroke-dasharray:none;stroke-opacity:1"
       d="m 98.244385,263.29742 c -2.676677,-0.23354 -3.874148,-0.61771 -7.103749,-2.2789 -1.274522,-0.65559 -2.706026,-1.32394 -3.181118,-1.48525 -2.046809,-0.69498 -6.916842,-5.01009 -9.607609,-8.51287 -0.356901,-0.4646 -1.084934,-1.36552 -1.617858,-2.00204 -1.237185,-1.47768 -3.964899,-6.92592 -4.730638,-9.44881 -1.003121,-3.30499 -1.394252,-6.43789 -1.394422,-11.16927 -1.85e-4,-5.83031 0.648633,-9.40855 2.298919,-12.678 0.33056,-0.65489 0.722017,-1.59821 0.869912,-2.09627 0.147895,-0.49805 0.518828,-1.19023 0.824295,-1.53816 0.305467,-0.34793 0.61126,-0.91694 0.679536,-1.26446 0.121703,-0.6194 1.196676,-2.79812 1.654756,-3.35377 0.127669,-0.15486 0.844798,-1.29526 1.593624,-2.53421 0.748819,-1.23894 1.830822,-2.88617 2.404454,-3.66051 1.631394,-2.2022 12.888949,-13.36994 15.245162,-15.12353 2.541389,-1.89142 4.411041,-3.46892 4.411041,-3.72178 0,-0.10981 -1.313933,-1.08853 -2.919837,-2.17495 -1.605912,-1.08642 -3.540893,-2.42946 -4.299963,-2.98452 -0.759063,-0.55507 -1.735702,-1.16652 -2.170293,-1.35878 -0.434597,-0.19226 -0.906915,-0.49094 -1.049596,-0.66374 -0.142688,-0.17279 -0.850694,-0.6928 -1.573356,-1.15557 -0.722655,-0.46277 -1.72428,-1.20934 -2.225819,-1.65906 -0.50154,-0.44971 -0.989763,-0.81766 -1.084941,-0.81766 -0.276416,0 -3.52376,-2.02509 -4.758489,-2.96747 -0.620526,-0.4736 -2.395232,-1.7156 -3.943786,-2.75999 -1.548561,-1.04439 -3.744691,-2.55582 -4.880299,-3.35876 -1.135608,-0.80293 -2.324196,-1.56836 -2.641305,-1.70096 -0.317109,-0.13261 -1.626336,-0.93656 -2.909406,-1.78658 -1.283064,-0.85002 -2.518758,-1.61722 -2.745982,-1.7049 -0.417969,-0.16127 -3.104429,-2.08486 -3.621633,-2.5932 -0.154386,-0.15173 -0.795343,-0.50925 -1.424361,-0.79448 -0.62901,-0.28523 -2.107564,-1.16418 -3.285667,-1.95323 -1.84157,-1.23339 -2.965806,-1.95003 -4.769251,-3.04012 -0.206814,-0.12501 -0.497688,-0.28804 -0.646399,-0.36231 -0.647547,-0.32338 -5.800815,-3.87623 -8.642563,-5.9585 -7.407705,-5.42794 -12.396497,-9.78504 -16.682676,-14.57028 -1.710836,-1.91004 -3.205764,-3.57119 -3.322068,-3.69146 -0.116304,-0.12026 -0.32509,-0.50039 -0.463968,-0.84473 -0.265945,-0.65938 -0.76227,-1.38993 -1.891961,-2.78485 -0.376268,-0.4646 -1.259071,-1.81617 -1.961791,-3.0035 -1.612104,-2.72383 -2.542729,-4.12981 -2.733524,-4.12981 -0.08193,0 -0.245357,-0.35901 -0.363165,-0.79781 -0.573745,-2.13705 -0.81127,-2.82114 -1.580606,-4.55218 -1.54993,-3.48742 -2.2884615,-5.92537 -2.9001755,-9.573663 -0.103868,-0.619472 -0.321259,-1.717628 -0.483088,-2.440345 -0.161828,-0.722718 -0.372487,-1.694163 -0.468118,-2.158768 -0.09563,-0.464604 -0.307106,-1.436049 -0.469934,-2.158766 -0.876964,-3.892303 -1.026675,-5.21526 -1.029201,-9.094624 -0.0014,-2.111173 0.07978,-4.518668 0.180345,-5.349988 0.463358,-3.830508 0.586593,-4.759431 0.735964,-5.547451 0.149442,-0.788399 0.273237,-1.252577 1.051313,-3.942096 0.164276,-0.56785 0.474624,-1.708242 0.68966,-2.534205 0.368897,-1.416976 1.6024415,-4.200381 2.4125905,-5.443848 0.201798,-0.309736 0.425014,-0.689867 0.496042,-0.844735 0.07102,-0.154868 0.312384,-0.577236 0.536358,-0.938595 0.223975,-0.361358 0.513245,-0.979935 0.642816,-1.374615 0.129571,-0.394678 0.640723,-1.246235 1.135906,-1.892351 0.495176,-0.646113 1.277516,-1.759243 1.738518,-2.473622 0.461003,-0.714379 1.039764,-1.517993 1.286128,-1.78581 0.246372,-0.267814 1.097852,-1.20054 1.892181,-2.072724 1.395871,-1.532667 4.607906,-4.754775 6.345467,-6.365354 1.275288,-1.182092 2.820841,-2.314935 3.660219,-2.682827 0.412945,-0.180991 1.088679,-0.627188 1.501632,-0.991549 0.968459,-0.854508 2.518339,-1.757088 3.021085,-1.75934 0.216277,-9.79e-4 0.934243,-0.351512 1.595476,-0.778985 2.513473,-1.624896 6.976775,-3.379152 10.58744,-4.161289 3.130579,-0.678141 8.610872,-1.253537 11.955663,-1.255269 4.0085,-0.0021 8.882677,0.644331 12.539668,1.662991 0.77428,0.215676 1.646285,0.394127 1.937797,0.396557 0.291506,0.0024 1.150052,0.212574 1.907874,0.466987 1.222598,0.410447 2.574682,1.0284 8.24184,3.766841 0.815243,0.393934 2.139687,1.203738 2.943218,1.799566 0.803523,0.595827 1.80297,1.257818 2.220981,1.47109 1.760589,0.898257 8.906634,7.662615 9.685937,9.168587 0.197903,0.38244 0.621952,1.117712 0.942331,1.633939 1.632022,2.629687 2.632332,4.64609 3.101292,6.251557 0.20198,0.691459 0.44619,1.510619 0.5427,1.820356 0.0965,0.309735 0.31109,1.097047 0.47683,1.74958 0.28664,1.128514 0.28343,1.233889 -0.0656,2.158768 -0.20183,0.534789 -1.12432,2.492865 -2.04997,4.351282 -0.92566,1.858417 -1.733908,3.597517 -1.796111,3.864667 -0.211553,0.908599 -0.83078,1.485322 -1.594788,1.485322 -0.740667,0 -1.055414,-0.253169 -1.516955,-1.220173 C 94.958938,70.062766 94.090721,67.454331 93.286219,64.42783 92.853757,62.800913 91.965946,60.145102 91.340887,58.608544 91.025893,57.834204 90.627881,56.742823 90.456411,56.183253 90.054327,54.871114 89.081618,53.08039 87.746085,51.193648 87.161429,50.367685 86.5267,49.438476 86.33558,49.12874 85.836998,48.320726 81.871674,44.438299 80.951939,43.857651 80.524925,43.588065 79.73027,43.004785 79.186051,42.561473 76.758774,40.584271 70.58702,37.610916 66.710155,36.550987 c -0.87751,-0.239912 -1.975582,-0.579112 -2.440146,-0.753779 -1.22218,-0.459514 -3.901483,-0.636062 -9.793721,-0.645343 -4.42146,-0.007 -5.472752,0.04657 -7.060496,0.359544 -5.917565,1.16646 -11.439324,3.328478 -15.43082,6.041864 -1.519807,1.03315 -4.05916,3.401987 -7.132743,6.653792 -2.7998,2.962142 -3.675685,4.057833 -4.413266,5.520788 -0.286299,0.56785 -0.878759,1.623768 -1.316591,2.346486 -1.435237,2.369106 -1.62335,2.779627 -2.536012,5.534319 -0.799983,2.414607 -1.534259,4.393354 -2.056187,5.541096 -0.480562,1.056767 -0.616993,3.470809 -0.70094,12.402485 l -0.08834,9.398982 0.862491,2.521168 c 1.628663,4.760795 1.940515,5.631725 2.058926,5.750149 0.06527,0.06527 0.118666,0.239655 0.118666,0.387523 0,0.147868 0.115226,0.535038 0.256063,0.860377 0.243427,0.562341 0.485293,1.17721 1.174179,2.984942 0.431696,1.13282 0.540772,1.39305 1.185694,2.82888 0.316265,0.70411 0.575023,1.30968 0.575023,1.34572 0,0.35457 2.011039,4.14445 3.252515,6.12949 4.53802,7.256 4.375575,7.02698 6.732682,9.49183 0.908838,0.95038 1.652435,1.8132 1.652435,1.91736 0,0.44664 3.508316,3.96343 7.131269,7.1485 0.763355,0.6711 2.245655,1.98044 3.293996,2.90965 1.048341,0.9292 2.869167,2.34293 4.046291,3.14161 1.177124,0.79869 2.858186,1.95959 3.735703,2.57979 0.877517,0.62019 2.73578,1.88157 4.129486,2.80305 3.40974,2.25446 4.98472,3.33845 8.030749,5.52721 1.415982,1.01747 3.221932,2.17081 4.013232,2.56299 1.190028,0.58978 3.352538,2.01512 3.723131,2.45394 0.218419,0.25865 3.792676,2.80364 5.349552,3.80907 2.939834,1.89855 3.972319,2.60648 6.468857,4.43543 1.338846,0.98083 3.116859,2.24793 3.951143,2.81578 0.834277,0.56785 2.634835,1.83971 4.001235,2.82636 1.366401,0.98665 2.790279,1.91594 3.164171,2.06508 0.373891,0.14914 1.013713,0.58013 1.421813,0.95775 0.885364,0.81923 1.973568,1.59813 5.942985,4.25378 1.64388,1.0998 3.50215,2.51588 4.12949,3.14683 0.62733,0.63096 1.3251,1.24459 1.5506,1.3636 0.91025,0.48043 2.16955,0.0575 2.385,-0.80096 0.06,-0.23894 0.40693,-0.86755 0.77104,-1.3969 1.10264,-1.6031 1.48404,-4.21638 0.94484,-6.47381 -0.39637,-1.6594 -1.69886,-3.42903 -4.99505,-6.78646 -1.62179,-1.65193 -3.18991,-3.38429 -3.48472,-3.84969 -0.29479,-0.4654 -0.93725,-1.40541 -1.427692,-2.0889 -0.49043,-0.68348 -0.942103,-1.49475 -1.003703,-1.80281 -0.124775,-0.62391 0.215908,-1.42093 1.074583,-2.51393 0.874442,-1.11309 1.460922,-1.28683 4.415562,-1.3081 2.80972,-0.0202 3.50687,-0.12791 3.589,-0.55438 0.0675,-0.35028 -1.32621,-1.26221 -2.1713,-1.42076 -0.43943,-0.0824 -0.9199,-0.41573 -1.51414,-1.05034 -0.47875,-0.51127 -1.18106,-1.08998 -1.56069,-1.28603 -0.37964,-0.19604 -0.74664,-0.53416 -0.81557,-0.75135 -0.20798,-0.65533 0.0792,-1.63428 0.59958,-2.04361 0.72411,-0.56963 1.62335,-0.48721 2.98343,0.27345 0.64612,0.36135 1.3564,0.65701 1.57841,0.65701 0.77784,0 2.53561,-1.04355 3.79833,-2.25497 1.18465,-1.13652 1.27428,-1.27898 1.27428,-2.0252 0,-0.75265 -0.0531,-0.83441 -0.8529,-1.31168 -1.50919,-0.90068 -3.55809,-2.59142 -4.50929,-3.72103 -0.50923,-0.60476 -1.08007,-1.26985 -1.26852,-1.47798 -0.95234,-1.05179 -2.52782,-3.79953 -3.33834,-5.82225 -0.6728,-1.67905 -1.19401,-7.31227 -0.70521,-7.62196 0.76919,-0.48732 2.5787,0.0376 3.87581,1.12436 1.06903,0.89566 2.85141,1.71076 3.74094,1.71076 1.05836,0 3.43292,-2.01144 3.43292,-2.90795 0,-0.87804 -0.97258,-1.89033 -3.23613,-3.36826 -1.39295,-0.90951 -3.35857,-3.03948 -4.20989,-4.5619 -0.62655,-1.12046 -0.6718,-1.3123 -0.68976,-2.92391 -0.0159,-1.4269 0.0501,-1.85447 0.38216,-2.47566 0.53449,-0.99993 1.59341,-1.97734 2.96717,-2.73878 2.00785,-1.1129 3.91426,-0.73654 6.02044,1.18855 1.38149,1.26271 2.38274,2.63121 3.23792,4.42556 0.57402,1.20445 0.69889,1.68925 0.75742,2.94074 0.0385,0.82419 -0.0347,2.05406 -0.16282,2.73302 -0.30771,1.63098 -0.0239,2.24678 1.26449,2.74392 0.81513,0.31451 1.5449,0.34504 8.12218,0.33978 l 7.2266,-0.006 3.19096,-0.77647 c 1.75503,-0.42705 3.8667,-0.91727 4.69259,-1.08938 0.8259,-0.1721 1.7128,-0.3803 1.9709,-0.46269 0.25808,-0.0824 0.97606,-0.29962 1.59547,-0.48275 3.87189,-1.14473 11.25025,-4.18026 12.29461,-5.05813 0.53489,-0.44962 2.42099,-1.41111 2.76807,-1.41111 0.49416,0 3.90884,-2.275 5.96014,-3.97088 5.09332,-4.21083 10.40306,-9.722556 11.51733,-11.955479 0.29153,-0.584208 0.86019,-1.574357 1.2637,-2.200336 0.67901,-1.053394 1.47735,-2.66002 2.23281,-4.493425 0.17017,-0.412982 0.38098,-0.919823 0.46847,-1.126313 0.38112,-0.899497 1.21281,-3.770836 1.60402,-5.537708 0.17146,-0.77434 0.38283,-1.619075 0.46972,-1.877189 0.41044,-1.219152 0.74473,-3.309169 0.74153,-4.63617 -0.005,-2.097444 -0.62505,-6.168147 -1.46679,-9.630466 -0.28277,-1.16311 -0.96246,-3.004795 -1.90519,-5.162269 -0.0902,-0.206491 -0.30995,-0.840042 -0.48827,-1.407892 -0.36374,-1.158332 -0.95662,-2.001207 -3.03698,-4.317535 -2.34195,-2.607588 -4.73195,-4.850155 -6.13859,-5.759914 -0.72599,-0.469542 -1.66042,-1.082537 -2.0765,-1.36221 -0.83053,-0.558242 -3.13655,-1.700598 -4.31349,-2.136808 -2.67921,-0.993117 -5.44723,-1.9651 -7.93592,-2.786787 l -2.86994,-0.947564 -9.70621,0.09157 c -11.39682,0.107545 -11.51476,0.123188 -17.96518,2.382959 -2.01915,0.707368 -4.171,1.309922 -4.69982,1.316028 -0.61107,0.007 -5.02642,1.911988 -8.91557,3.846478 -2.78535,1.385457 -4.38265,2.259263 -5.15498,2.820057 -0.30971,0.224882 -1.05814,0.644867 -1.66317,0.933301 -0.60503,0.288433 -1.36523,0.751443 -1.68934,1.028913 -0.80758,0.691392 -1.93068,1.183418 -2.37751,1.041589 -0.87434,-0.277529 -0.91323,-1.448234 -0.0812,-2.444965 1.11587,-1.336786 2.86689,-2.9693 3.55878,-3.317941 0.66183,-0.333492 3.21054,-2.138179 3.77494,-2.672946 0.1147,-0.108688 0.68653,-0.493271 1.27073,-0.85463 0.58419,-0.361359 2.01074,-1.282714 3.17011,-2.047455 2.35956,-1.556421 6.22988,-3.486185 9.61608,-4.794643 1.23884,-0.4787 2.42137,-0.945274 2.62785,-1.036831 0.5115,-0.226815 4.61807,-1.5778 6.00651,-1.976034 0.61943,-0.177662 1.50633,-0.434873 1.9709,-0.57158 0.46456,-0.136707 1.47816,-0.389537 2.25244,-0.561845 0.77428,-0.172308 1.66118,-0.382421 1.97089,-0.466918 0.30971,-0.0845 1.40778,-0.28259 2.44015,-0.440205 6.2069,-0.947628 13.56346,-0.922902 17.45645,0.05867 0.41294,0.10412 1.21537,0.194334 1.78318,0.200475 1.59118,0.01721 3.38683,0.530313 5.92583,1.693291 2.40064,1.099605 5.67112,2.434316 5.96487,2.434316 1.09798,0 7.594,4.302935 9.53941,6.318854 1.32425,1.372257 3.3617,4.016151 5.11212,6.63375 1.74723,2.612822 2.07158,3.202796 2.23546,4.066208 0.0619,0.326375 0.6152,1.635714 1.22945,2.909642 0.61426,1.27393 1.21181,2.738603 1.3279,3.25483 1.05747,4.702381 1.89332,10.550939 1.89139,13.234182 -0.002,2.031922 -0.71735,7.932921 -1.25254,10.324539 -0.67347,3.009517 -1.14683,4.419525 -2.45781,7.321036 -0.20992,0.464605 -0.51987,1.256052 -0.68876,1.758771 -0.40044,1.191887 -0.49975,1.37437 -1.95434,3.591218 -2.26803,3.456554 -3.84575,5.425938 -6.40543,7.995618 -4.30434,4.32113 -6.0455,5.51723 -13.05325,8.96704 -3.56527,1.75512 -5.00931,2.37378 -8.07126,3.45785 -0.72266,0.25586 -1.69685,0.60202 -2.16487,0.76925 -0.46802,0.16723 -0.99307,0.30405 -1.16678,0.30405 -0.17372,0 -0.59322,0.1177 -0.93225,0.26155 -0.33902,0.14385 -1.1232,0.40182 -1.74262,0.57326 -0.61942,0.17145 -1.29515,0.38153 -1.50163,0.46686 -1.83748,0.75936 -2.89113,1.04194 -4.94659,1.32666 -4.56629,0.63251 -5.44578,0.76727 -8.09882,1.24095 -2.62385,0.46847 -18.45482,0.47474 -20.24023,0.008 -2.1674,-0.56658 -2.23168,-0.54414 -4.45947,1.55621 -1.99237,1.87841 -3.4718,2.82613 -4.4117,2.82613 -0.2787,0 -1.40758,-0.17601 -2.50861,-0.39113 -1.10104,-0.21511 -2.12342,-0.34447 -2.27198,-0.28747 -0.40804,0.1566 -0.32554,0.78593 0.21537,1.64286 0.77504,1.22783 7.43056,7.74215 8.58464,8.4025 0.86212,0.49329 3.85951,2.73129 6.3538,4.74406 1.80194,1.45407 2.47833,2.32935 2.19344,2.83845 -0.27372,0.48916 -1.30767,0.84667 -2.83007,0.97855 -2.95179,0.2557 -4.39972,0.71492 -6.90371,2.18955 -2.58167,1.52038 -2.88308,2.34054 -1.52244,4.14284 0.42248,0.55961 0.82079,1.28074 0.88513,1.60251 0.12867,0.6434 0.15619,0.67385 2.04509,2.26324 1.41609,1.19155 5.38959,5.22501 6.50389,6.60203 1.13244,1.39942 1.66121,2.50711 1.66121,3.47994 0,2.14672 -1.92645,3.09022 -6.30964,3.09022 -1.18894,0 -2.32508,0.0874 -2.52477,0.19432 -0.32683,0.17494 -0.36306,0.41106 -0.36306,2.36632 0,2.04589 -0.23339,3.54372 -0.78561,5.04198 -0.54872,1.48874 -1.54035,3.41468 -2.32273,4.51117 -0.47589,0.66696 -0.83698,1.28897 -0.80243,1.38224 0.0571,0.15409 4.42459,4.71387 9.10748,9.50846 6.86436,7.02809 10.84209,11.49022 12.29156,13.78841 0.61862,0.98083 1.58027,2.50136 2.137,3.37894 0.55674,0.87758 1.17362,2.01798 1.37084,2.5342 1.03681,2.71378 2.47799,6.7057 2.77862,7.69648 0.30654,1.01026 0.34115,1.89991 0.33595,8.63507 -0.005,6.47863 -0.0524,7.74053 -0.34511,9.19823 -0.44191,2.20026 -1.55624,6.1834 -1.99563,7.13331 -0.0955,0.20649 -0.33672,0.80123 -0.536,1.32162 -1.21991,3.18557 -4.64987,7.78981 -7.54552,10.12881 -0.76661,0.61924 -1.43606,1.17832 -1.48768,1.2424 -0.0516,0.0641 -0.47396,0.38333 -0.93852,0.70946 -2.61052,1.83266 -4.139,2.76538 -5.32936,3.25209 -0.73377,0.30004 -2.09432,0.91294 -3.02346,1.36202 -4.68563,2.26473 -5.97496,2.53787 -12.38844,2.62446 -2.58093,0.0348 -5.072695,0.0302 -5.537266,-0.0103 z m 15.016305,-5.5026 c 1.67882,-0.50453 2.18595,-0.67633 3.37866,-1.14462 0.56781,-0.22293 1.2013,-0.45403 1.40778,-0.51355 0.20648,-0.0595 1.28959,-0.57294 2.40692,-1.14096 1.36815,-0.69552 2.19062,-1.24136 2.51878,-1.67163 0.26799,-0.3514 0.78975,-0.79489 1.15945,-0.98553 0.82496,-0.42541 1.61707,-1.26085 2.54015,-2.67909 0.3864,-0.59366 0.77537,-1.07938 0.86439,-1.07938 0.55378,0 1.87978,-2.22094 3.01212,-5.04506 0.8918,-2.22421 1.03823,-2.62827 1.60708,-4.43475 l 0.532,-1.68947 v -7.03946 c 0,-7.93217 0.10455,-7.15955 -1.6129,-11.92015 -1.01113,-2.80276 -3.50827,-7.41578 -5.18243,-9.57366 -0.24031,-0.30973 -0.50113,-0.64763 -0.57961,-0.75087 -1.61711,-2.12749 -2.09472,-2.7337 -2.58817,-3.28508 -0.3234,-0.36136 -1.21256,-1.37298 -1.97592,-2.24804 -5.07082,-5.81282 -15.82335,-16.34734 -16.98265,-16.63833 -0.29948,-0.0752 -0.70385,0.0786 -1.33348,0.50713 -0.49701,0.33827 -0.94589,0.66284 -0.99751,0.72127 -0.0516,0.0585 -0.72735,0.65083 -1.501631,1.31642 -0.774274,0.6656 -2.548079,2.35771 -3.941778,3.76024 -2.396495,2.4117 -3.145144,3.22642 -7.226594,7.86448 -0.929128,1.05584 -1.991303,2.4857 -2.360378,3.17748 -0.369074,0.69177 -1.146838,2.07822 -1.728359,3.08099 -1.16246,2.00452 -1.629883,2.9753 -2.08499,4.33016 -0.165766,0.4935 -0.500199,1.29599 -0.743187,1.78333 -0.649108,1.30187 -1.381809,3.36831 -1.612111,4.5466 -0.531457,2.71912 -0.714972,9.93036 -0.379773,14.92364 0.274231,4.08511 0.790569,6.44669 1.981321,9.06201 0.247932,0.54455 0.623065,1.50152 0.833624,2.1266 0.21056,0.62509 0.590865,1.46611 0.845125,1.8689 0.254253,0.4028 0.462286,0.7701 0.462286,0.81618 0,0.0461 0.410882,0.70432 0.913074,1.46272 1.406604,2.12421 3.200252,4.26848 4.14469,4.9549 0.470197,0.34174 1.167078,0.95735 1.548617,1.368 1.086665,1.1696 4.737264,2.84436 9.066881,4.15954 1.228523,0.37318 4.065933,0.52548 8.352813,0.44834 3.31333,-0.0596 4.254,-0.13826 5.25571,-0.4393 z m 4.64963,-94.35509 0.41599,-0.29139 -0.36273,-0.69414 c -0.77474,-1.48259 -4.01641,-4.39669 -5.43479,-4.88559 -0.35093,-0.12096 -0.65606,-0.21993 -0.67808,-0.21993 -0.022,0 -0.3684,0.26194 -0.76973,0.5821 -0.40133,0.32016 -1.13092,0.78619 -1.62129,1.03562 -1.58902,0.80826 -1.20132,1.46507 1.6424,2.78242 2.30426,1.06744 3.03765,1.33904 4.59874,1.70308 1.40734,0.32819 1.72611,0.32643 2.20949,-0.0122 z m -10.79134,-6.5753 c 0.87399,-0.29783 1.18307,-0.70179 0.96726,-1.26421 -0.16531,-0.43083 -1.88351,-0.87526 -3.58779,-0.92803 l -1.46762,-0.0454 -0.057,0.68202 c -0.0495,0.59264 0.036,0.75868 0.65281,1.2671 0.58896,0.4855 0.8725,0.58509 1.66592,0.58509 0.52589,0 1.34776,-0.13344 1.82637,-0.29654 z m 7.12388,-41.23627 c 0.78585,-1.03412 0.99233,-1.8441 0.71899,-2.82046 -0.46186,-1.64973 -2.91714,-4.07821 -4.12322,-4.07821 -0.53178,0 -1.09993,0.29236 -1.75435,0.90279 -0.42658,0.3979 -0.51618,0.64022 -0.51618,1.39592 v 0.91443 l 2.16563,2.1478 c 2.41743,2.39754 2.74624,2.54163 3.50913,1.53773 z m -65.082994,4.80361 c -3.260611,-0.3923 -7.693251,-3.5302 -9.637292,-6.82232 -0.77611,-1.3143 -1.134416,-3.72391 -1.145753,-7.70525 -0.0127,-4.46368 0.30866,-6.049635 2.179898,-10.757688 0.702947,-1.768618 1.127783,-3.2304 1.644434,-5.658211 0.734006,-3.449143 0.917954,-4.197153 1.361824,-5.537706 0.518963,-1.567339 1.249905,-2.967767 2.195917,-4.207212 0.346167,-0.453531 0.688894,-1.065138 0.761632,-1.359127 0.337235,-1.363031 4.377327,-4.274659 7.00345,-5.047269 0.801877,-0.235912 1.173151,-0.439512 1.173151,-0.643333 0,-0.311552 -0.119909,-0.431911 -1.502249,-1.507944 -2.200032,-1.71253 -3.246805,-3.020618 -4.393686,-5.4905 -0.44353,-0.955174 -1.000909,-2.116808 -1.238632,-2.581413 -0.395664,-0.773294 -0.439344,-1.14972 -0.51653,-4.450993 -0.07291,-3.118688 -0.03817,-3.753182 0.256871,-4.692972 1.030548,-3.282466 3.454413,-6.200781 6.268004,-7.546635 1.294797,-0.619355 1.544062,-0.673397 3.106003,-0.673397 1.676046,0 1.725089,0.01325 3.754077,1.014426 1.694455,0.836105 2.286894,1.248581 3.370224,2.346485 1.423254,1.442404 2.371388,2.773626 3.469652,4.87152 0.835348,1.595682 1.070071,2.589661 1.242909,5.263269 0.07124,1.101995 0.193753,2.043321 0.272245,2.091837 0.258062,0.159504 0.639304,-0.09703 1.060727,-0.713754 1.533904,-2.244767 4.162135,-4.596299 5.699018,-5.09903 1.120214,-0.366432 2.689923,-0.371841 4.373751,-0.01508 1.551611,0.328758 2.822125,1.228686 4.427596,3.136138 2.361101,2.805217 3.502882,6.565603 3.022504,9.954469 -0.47468,3.348672 -1.131578,5.149063 -2.598874,7.122811 -1.000943,1.346429 -2.247684,2.479572 -3.658317,3.324993 -2.010344,1.204839 -3.423283,1.424094 -5.137979,0.7973 -3.329162,-1.216949 -6.240733,-3.720015 -7.005833,-6.022888 -0.384746,-1.15805 -0.748798,-3.434025 -0.767037,-4.795364 -0.04079,-3.043004 -0.522624,-3.88999 -1.314967,-2.31142 -1.036082,2.06416 -3.608891,4.861497 -5.224174,5.68009 -0.527335,0.26724 -0.958782,0.605422 -0.958782,0.751514 0,0.53275 3.361449,2.611951 6.046987,3.740321 0.383589,0.16117 1.349253,0.775116 2.145909,1.364322 0.796663,0.589207 2.636722,1.652534 4.089013,2.362951 1.452291,0.710417 2.767229,1.358682 2.922091,1.440589 0.299778,0.158563 3.985869,1.688107 5.040106,2.091395 1.403929,0.537062 5.170953,5.040166 6.441204,7.699829 0.36674,0.767881 0.822621,1.860751 1.013068,2.4286 0.586252,1.74802 0.398047,4.137433 -0.480548,6.100867 -0.0924,0.20649 -0.35114,0.7978 -0.574973,1.31403 -1.365691,3.14969 -4.423297,6.00152 -7.371268,6.87517 -1.805836,0.53516 -3.349878,0.88935 -4.349148,0.99763 -1.741725,0.18873 -5.598406,0.93045 -6.381924,1.22737 -3.337427,1.26473 -4.131082,1.63949 -4.660226,2.20053 -0.32133,0.3407 -0.72191,0.61945 -0.890173,0.61945 -0.337108,0 -1.318492,0.66653 -3.177827,2.15826 -1.73053,1.38841 -4.198805,3.03842 -5.628401,3.76252 -1.722783,0.8726 -3.560253,1.16159 -5.727672,0.90082 z m 4.198302,-5.15841 c 2.224386,-1.06116 4.580904,-2.56216 6.219257,-3.96138 2.18595,-1.8669 4.13507,-3.06056 6.663476,-4.08077 1.588687,-0.64104 3.642682,-1.14042 6.569632,-1.59726 3.463785,-0.54063 4.598662,-0.8463 6.475782,-1.74414 1.965111,-0.93993 3.429037,-2.2834 4.303659,-3.949532 0.33007,-0.628773 0.764675,-2.39226 0.762305,-3.093169 -0.0076,-2.2534 -2.36767,-6.080508 -4.926199,-7.988407 -0.866428,-0.646097 -3.603989,-2.280043 -3.820054,-2.280043 -0.0442,0 -0.817917,-0.411075 -1.719455,-0.913498 -3.171421,-1.767432 -3.918289,-2.168289 -6.89485,-3.700576 -1.651798,-0.850318 -3.383363,-1.762596 -3.847927,-2.027285 -2.872779,-1.636785 -3.437117,-1.882252 -5.255638,-2.286 -2.284355,-0.507175 -3.349006,-0.317081 -5.359399,0.956922 -2.410619,1.527632 -3.663376,3.436752 -4.61427,7.031843 -0.204806,0.77434 -0.564977,1.703549 -0.800373,2.064908 -0.253948,0.389852 -0.481186,1.115012 -0.558819,1.783328 -0.07196,0.619473 -0.21859,1.464208 -0.325842,1.87719 -0.873828,3.364651 -1.248117,4.691773 -1.482385,5.256128 -1.587225,3.823691 -2.249153,6.829751 -2.250061,10.218361 -3.76e-4,1.59615 0.09804,2.69419 0.311419,3.4728 0.280389,1.02311 0.475972,1.30052 1.927759,2.73424 2.232722,2.20494 4.570143,3.32657 6.394567,3.06849 0.361334,-0.0511 1.363669,-0.43008 2.227416,-0.84215 z M 79.2102,75.138919 c 1.062821,-0.609651 2.439671,-1.964403 2.930725,-2.883697 0.276217,-0.517104 0.321706,-1.22787 0.328481,-5.133067 l 0.0079,-4.532849 -1.266995,-1.117929 c -1.548767,-1.366537 -2.715186,-2.11454 -3.281092,-2.104088 -0.63106,0.01166 -1.557422,0.562209 -2.860945,1.700317 -2.399502,2.095013 -2.926326,3.318336 -2.94265,6.833023 -0.01064,2.29177 0.196966,3.059268 1.269492,4.692973 1.897026,2.889607 3.778899,3.713317 5.815116,2.545317 z M 59.950558,68.161425 c 0.844273,-0.440097 2.466572,-2.159508 2.885718,-3.058466 0.849388,-1.821718 1.066084,-2.379619 1.330007,-3.424149 0.405142,-1.603425 0.367329,-2.155439 -0.205288,-2.99714 -0.285511,-0.419681 -0.533699,-1.089329 -0.583685,-1.574877 -0.151776,-1.474376 -1.243456,-3.456423 -2.737923,-4.970943 -1.28732,-1.304601 -1.402957,-1.375482 -2.764356,-1.694444 -1.360859,-0.318837 -1.46323,-0.318803 -2.425361,7.8e-4 -1.382795,0.459327 -2.504583,1.530435 -2.906455,2.775143 -0.173988,0.538895 -0.534478,1.359941 -0.801097,1.824545 -0.410661,0.715627 -0.497616,1.137154 -0.568942,2.757988 -0.103308,2.347596 0.09193,3.082125 1.836554,6.909534 0.48037,1.053838 2.141198,2.637798 3.453632,3.293792 1.340201,0.669867 2.412344,0.718514 3.487196,0.158226 z m -31.438103,30.82045 c -2.006215,-0.522215 -3.243854,-1.177427 -4.78293,-2.532118 -0.772344,-0.679816 -1.456952,-1.236029 -1.521354,-1.236029 -0.244243,0 -1.658083,-2.222806 -2.388017,-3.754378 -1.448574,-3.039443 -1.803445,-4.507455 -1.539523,-6.368549 0.257318,-1.814451 0.958399,-3.05413 2.714973,-4.800725 1.566871,-1.557965 2.72726,-2.266078 4.594589,-2.803786 1.410485,-0.406159 2.362293,-0.368327 3.976824,0.158065 0.961961,0.313631 1.424326,0.388424 1.513104,0.244762 0.180947,-0.292807 -0.02206,-0.604283 -1.432917,-2.198154 -2.791584,-3.153779 -4.127925,-6.554331 -4.083905,-10.392243 0.02568,-2.238086 0.290817,-3.332722 1.198116,-4.946286 1.290825,-2.295618 5.163617,-5.12283 7.017397,-5.12283 1.981251,0 4.818905,1.111788 7.043192,2.759513 2.494744,1.84807 5.803858,5.845319 5.803858,7.010769 0,0.170841 0.196612,0.682214 0.436917,1.136385 0.240299,0.454171 0.535933,1.222183 0.656962,1.706695 0.27726,1.10995 0.285326,4.322946 0.01412,5.633061 -0.487862,2.356921 -2.08477,4.698067 -4.194988,6.150052 -1.319308,0.907782 -2.319202,1.128969 -5.113992,1.131263 -1.361796,0.0011 -2.51492,0.06539 -2.562495,0.142821 -0.0476,0.07743 0.335192,0.605393 0.850594,1.173242 0.948751,1.045313 2.217009,3.016223 2.217009,3.445314 0,0.128687 0.07962,0.314226 0.176939,0.41231 0.193888,0.195411 0.494977,1.297477 0.792378,2.900257 0.243385,1.311665 0.08199,3.811106 -0.309099,4.786832 -1.248018,3.113696 -2.399567,4.443516 -4.601996,5.314436 -1.083374,0.428404 -4.907542,0.457531 -6.475783,0.04932 z m 4.483116,-4.178382 c 1.165767,-0.335758 2.072555,-1.136067 2.553166,-2.253365 1.212958,-2.819821 -0.704905,-7.074407 -4.131721,-9.165837 -1.765732,-1.077646 -3.130132,-1.498604 -4.85725,-1.498604 h -1.356589 l -0.981087,0.996974 c -0.582379,0.591807 -1.122746,1.367932 -1.329658,1.909761 -0.31325,0.820303 -0.324246,1.037862 -0.108494,2.147316 0.999249,5.138487 6.082509,9.052997 10.211633,7.863755 z m 7.835485,-18.439122 c 0.804822,-0.337194 1.301693,-0.880466 1.989359,-2.175159 1.357739,-2.556241 1.253615,-4.527256 -0.434108,-8.217833 -0.249166,-0.544861 -0.453035,-1.036218 -0.453035,-1.091909 0,-0.646554 -3.937259,-3.883922 -5.631112,-4.630113 -1.097156,-0.48333 -2.702423,-0.511986 -3.547937,-0.06334 -0.35119,0.186353 -1.038033,0.738359 -1.526313,1.22668 -1.261788,1.261885 -1.539807,2.735336 -1.122299,5.947972 0.367606,2.828727 2.170526,5.438023 5.476973,7.926618 1.600229,1.20441 3.845005,1.665078 5.248472,1.077078 z"
       id="path908" />
  </g>
</svg>
