<?xml version="1.0" encoding="UTF-8" standalone="no"?>
<!-- Created with Inkscape (http://www.inkscape.org/) -->

<svg
   width="210mm"
   height="297mm"
   viewBox="0 0 210 297"
   version="1.1"
   id="svg2696"
   inkscape:version="1.3 (0e150ed6c4, 2023-07-21)"
   sodipodi:docname="JackW.svg"
   xmlns:inkscape="http://www.inkscape.org/namespaces/inkscape"
   xmlns:sodipodi="http://sodipodi.sourceforge.net/DTD/sodipodi-0.dtd"
   xmlns="http://www.w3.org/2000/svg"
   xmlns:svg="http://www.w3.org/2000/svg">
  <sodipodi:namedview
     id="namedview2698"
     pagecolor="#ffffff"
     bordercolor="#666666"
     borderopacity="1.0"
     inkscape:pageshadow="2"
     inkscape:pageopacity="0.0"
     inkscape:pagecheckerboard="0"
     inkscape:document-units="mm"
     showgrid="false"
     inkscape:zoom="0.23496321"
     inkscape:cx="740.54146"
     inkscape:cy="838.42913"
     inkscape:window-width="1366"
     inkscape:window-height="705"
     inkscape:window-x="-8"
     inkscape:window-y="-8"
     inkscape:window-maximized="1"
     inkscape:current-layer="layer1"
     inkscape:showpageshadow="2"
     inkscape:deskcolor="#d1d1d1" />
  <defs
     id="defs2693" />
  <g
     inkscape:label="Ebene 1"
     inkscape:groupmode="layer"
     id="layer1">
    <path
       style="fill:none;stroke:#000000;stroke-width:0.264583;stroke-opacity:1"
       d="m 133.36841,263.88952 c -0.99948,-0.19129 -2.07547,-0.43722 -2.3911,-0.54648 -0.31562,-0.10927 -1.34857,-0.3258 -2.29544,-0.48118 -2.55298,-0.41893 -4.2623,-1.14028 -6.99149,-2.95046 -0.51542,-0.34187 -1.47731,-0.82501 -2.13756,-1.07365 -1.49045,-0.5613 -4.00955,-1.8652 -5.0262,-2.60159 -0.42084,-0.30483 -1.03626,-0.6057 -1.36762,-0.66865 -0.33134,-0.0629 -0.70407,-0.23686 -0.82827,-0.38652 -0.12419,-0.14966 -0.54171,-0.37422 -0.92783,-0.49899 -0.38612,-0.12477 -1.26655,-0.55964 -1.95652,-0.96633 -0.68997,-0.4067 -1.31576,-0.73946 -1.39063,-0.73946 -0.0749,0 -0.45723,-0.2011 -0.84967,-0.44687 -2.75988,-1.72843 -9.057129,-2.52914 -13.254977,-1.68539 -2.693946,0.54146 -8.298142,3.20437 -10.508653,4.99333 -1.208621,0.97813 -1.815151,1.37648 -3.347526,2.1985 -0.736455,0.39506 -1.425089,0.8173 -1.530297,0.93831 -0.238128,0.27392 -1.761533,1.27189 -1.941531,1.27189 -0.07288,0 -0.268401,0.12017 -0.434497,0.26701 -0.166096,0.14687 -0.68935,0.39785 -1.162785,0.55777 -0.473436,0.15989 -1.276161,0.46991 -1.783831,0.68891 -0.586718,0.2531 -1.3534,0.40244 -2.104159,0.40984 -0.649618,0.007 -1.783675,0.10463 -2.520131,0.21827 -0.977839,0.1509 -1.777574,0.14746 -2.964951,-0.0128 -0.894264,-0.12066 -2.142416,-0.24897 -2.773667,-0.28513 -3.280174,-0.18791 -7.720312,-0.5235 -8.225346,-0.62172 -0.764214,-0.1486 -3.941321,-1.40855 -4.303959,-1.70683 -0.157811,-0.12981 -0.671651,-0.4296 -1.141859,-0.66622 -1.257355,-0.63272 -1.847737,-1.07891 -3.536889,-2.67317 -2.885127,-2.72307 -5.745159,-7.92523 -6.122617,-11.13656 -0.06557,-0.55757 -0.03673,-2.30513 0.06413,-3.88344 0.20124,-3.15131 1.023371,-7.04998 1.859637,-8.81872 0.253547,-0.53627 0.460998,-1.07943 0.460998,-1.20704 0,-0.12762 0.335048,-0.93716 0.744556,-1.79898 0.409507,-0.86183 0.934612,-2.12655 1.166896,-2.81048 0.604878,-1.781 1.969732,-4.58579 2.908949,-5.97791 0.986514,-1.46223 4.126236,-4.8258 5.639669,-6.04175 0.612042,-0.49173 1.642448,-1.32444 2.289793,-1.85046 0.647345,-0.52602 1.714008,-1.25772 2.370361,-1.62599 0.65636,-0.36827 2.16163,-1.50817 3.34504,-2.53312 2.176574,-1.88505 7.549791,-7.66661 7.549791,-8.12348 0,-0.13641 0.0803,-0.24801 0.178448,-0.24801 0.21922,0 1.924963,-2.80481 2.501424,-4.11316 0.2318,-0.52611 0.581506,-1.30092 0.777124,-1.72179 0.817025,-1.75788 1.193044,-2.75143 1.520463,-4.01752 1.224364,-4.73444 1.833642,-6.23431 3.599749,-8.86157 0.38512,-0.57291 0.93914,-1.39611 1.231152,-1.82934 0.977882,-1.45078 4.203793,-4.50978 6.107322,-5.7913 1.346724,-0.90667 2.42285,-1.44826 3.921388,-1.97356 1.135923,-0.39818 2.611577,-1.03584 3.279234,-1.41701 0.667655,-0.38118 1.37489,-0.69304 1.571629,-0.69304 0.196739,0 0.640385,-0.12697 0.985881,-0.28215 0.345495,-0.15518 1.488966,-0.41079 2.541046,-0.56801 1.052079,-0.15723 2.730629,-0.43167 3.730098,-0.60985 1.703357,-0.30367 1.985047,-0.30392 4.495247,-0.004 1.47291,0.17599 3.71098,0.36733 4.97347,0.42521 2.89397,0.13267 4.24112,0.50148 5.9299,1.62344 0.42083,0.27959 1.41075,0.87671 2.19981,1.32694 1.49025,0.85033 3.09705,1.98146 3.87261,2.72618 0.24741,0.23757 0.74695,0.69826 1.1101,1.02374 1.27081,1.13903 2.89942,3.0508 3.34849,3.93065 0.24915,0.48816 0.56974,1.0047 0.71243,1.14786 0.55535,0.55723 2.18616,4.31476 2.3548,5.42568 0.0479,0.31566 0.16634,0.91829 0.26316,1.33917 0.0968,0.42088 0.22386,1.31403 0.28232,1.98476 0.11777,1.35119 0.99711,4.09662 1.8493,5.77383 0.30433,0.59895 0.55333,1.19941 0.55333,1.33435 0,0.34489 2.21887,4.50114 2.96763,5.55875 0.34163,0.48256 0.68205,1.06932 0.75651,1.30391 0.1777,0.55998 1.65595,2.72725 2.70689,3.96858 2.06054,2.43386 6.19207,6.39666 8.24828,7.91143 1.77094,1.30462 4.1628,3.94267 5.3253,5.87343 0.35238,0.58526 0.769,1.20591 0.92583,1.37922 0.42901,0.4741 2.3488,4.64889 2.86577,6.23192 0.24976,0.76475 0.55918,2.02522 0.68763,2.80104 0.3356,2.02699 0.7126,3.97107 0.94132,4.85414 0.29988,1.15783 0.24584,6.07396 -0.096,8.7349 -0.22771,1.77241 -0.48749,2.83806 -1.04193,4.27419 -0.40622,1.0522 -0.79749,2.17136 -0.86948,2.48702 -0.072,0.31567 -0.27587,0.74612 -0.45306,0.95656 -0.74524,0.88511 -0.99151,1.46 -0.86745,2.02494 0.11127,0.5067 -0.0553,0.77901 -1.60325,2.62071 -1.94185,2.31036 -3.56417,3.79667 -4.70294,4.30861 -0.42246,0.18992 -0.89878,0.46253 -1.05848,0.60582 -1.52054,1.36414 -9.2266,2.20985 -13.20225,1.44889 z m 27.12398,-69.81927 c -3.15245,-0.86897 -6.97064,-3.27565 -7.91918,-4.9916 -0.26173,-0.47349 -0.76299,-1.34677 -1.11389,-1.94063 -0.66741,-1.12947 -0.74409,-1.39036 -1.59432,-5.4248 -0.46822,-2.22183 -0.52072,-2.84403 -0.49225,-5.83496 0.0291,-3.06547 0.58498,-8.25072 0.94723,-8.83692 0.0634,-0.10263 0.23596,-0.97573 0.38344,-1.94024 0.42118,-2.75465 0.78747,-4.74824 1.02523,-5.57984 0.12033,-0.42089 0.34077,-1.28178 0.48987,-1.91311 0.1491,-0.63132 0.39812,-1.49222 0.55338,-1.9131 0.15526,-0.42088 0.28608,-0.87837 0.2907,-1.01664 0.004,-0.13826 0.22359,-0.72192 0.48661,-1.29701 0.26302,-0.57509 0.47822,-1.22375 0.47822,-1.44148 0,-0.40995 0.12224,-0.71296 1.36448,-3.38229 0.40681,-0.87419 0.73967,-1.65224 0.73967,-1.72901 0,-0.15147 0.94034,-2.44036 1.8198,-4.42961 0.30237,-0.68394 0.81715,-1.67397 1.14395,-2.20007 0.32679,-0.52611 0.90604,-1.51613 1.28719,-2.20007 0.38116,-0.68392 1.00094,-1.54019 1.37728,-1.9028 0.37634,-0.3626 0.68626,-0.75001 0.6887,-0.8609 0.002,-0.11088 0.30372,-0.53394 0.6695,-0.94013 0.36579,-0.40621 0.66507,-0.90412 0.66507,-1.10649 0,-0.21772 0.27335,-0.52925 0.66951,-0.76301 0.36822,-0.21729 0.6695,-0.4784 0.6695,-0.58024 0,-0.4126 1.02147,-1.49882 1.40954,-1.49892 0.22423,-6e-5 0.85521,-0.17021 1.40218,-0.37813 0.54697,-0.20792 1.93079,-0.46633 3.07516,-0.57426 2.02591,-0.19108 2.45139,-0.15741 4.63392,0.36673 0.72959,0.17522 4.58514,2.1365 5.35604,2.72456 0.26302,0.20065 0.95165,0.6757 1.53029,1.05567 1.45005,0.95219 3.15682,2.78719 4.1464,4.45792 0.42858,0.72359 1.01836,3.10538 1.01836,4.11258 0,0.34214 0.12912,0.98807 0.28693,1.43542 0.15781,0.44733 0.28693,1.08661 0.28693,1.42061 0,0.334 0.0834,0.69071 0.1854,0.79269 0.10197,0.10198 0.2792,1.78155 0.39385,3.73236 0.17027,2.89721 0.15375,4.31584 -0.0902,7.74439 -0.28506,4.00614 -0.39558,4.74428 -0.97221,6.49316 -0.13878,0.42088 -0.3918,1.41091 -0.56227,2.20006 -0.17047,0.78915 -0.51263,2.12354 -0.76034,2.96531 -0.24771,0.84176 -0.50649,1.87484 -0.57505,2.29572 -0.14723,0.90376 -0.60669,2.40939 -1.02168,3.34793 -1.59475,3.60677 -3.75559,7.50479 -5.30107,9.56277 -1.19084,1.58576 -1.50189,2.0114 -1.90467,2.60635 -0.7738,1.14299 -1.35303,1.7605 -3.70918,3.95429 -2.17153,2.02191 -2.54796,2.29403 -3.66357,2.64841 -2.16207,0.6868 -3.66059,0.93814 -6.1212,1.02671 -1.93032,0.0695 -2.63815,0.0179 -3.67325,-0.26738 z M 41.550555,190.09751 c -1.014768,-0.17314 -3.242732,-1.02619 -4.135006,-1.58323 -0.513754,-0.32073 -1.193249,-0.7049 -1.509992,-0.85371 -0.316735,-0.14881 -1.005369,-0.61058 -1.530292,-1.02615 -0.524931,-0.41558 -1.255693,-0.90653 -1.623918,-1.09101 -0.716736,-0.35907 -4.399608,-4.03433 -4.399608,-4.3905 0,-0.11737 -0.243513,-0.51282 -0.541147,-0.87876 -0.567796,-0.69811 -1.608034,-3.03456 -1.920743,-4.31414 -0.100985,-0.41323 -0.374096,-1.397 -0.606908,-2.18616 -0.70206,-2.37973 -1.111712,-8.79907 -0.775247,-12.14818 0.116284,-1.15743 0.256049,-3.4388 0.31059,-5.06973 0.192753,-5.76387 0.312058,-7.57324 0.599173,-9.08722 0.159633,-0.84176 0.360367,-2.00397 0.446069,-2.58268 0.08571,-0.57871 0.29326,-1.56531 0.461229,-2.19244 0.167969,-0.62712 0.305399,-1.32751 0.305399,-1.55644 0,-0.22891 0.128589,-0.6628 0.285756,-0.96418 0.157161,-0.30138 0.286703,-0.72015 0.287867,-0.93059 0.0014,-0.21044 0.474706,-1.54483 1.05232,-2.96531 0.577613,-1.42047 1.051553,-2.71182 1.053201,-2.86965 0.0051,-0.49232 1.413944,-3.33755 2.011751,-4.06296 0.313229,-0.38009 0.822203,-1.1742 1.131058,-1.76469 0.98008,-1.8738 2.394451,-3.18874 5.11458,-4.75502 1.189099,-0.6847 3.578583,-0.97854 7.599264,-0.9345 1.709779,0.0187 1.852241,0.0531 2.898141,0.69872 0.604985,0.37346 1.188795,0.67902 1.29735,0.67902 0.28577,0 2.901198,2.33936 2.901198,2.59497 0,0.11846 0.184749,0.37938 0.410563,0.57983 0.225807,0.20044 1.108119,1.14696 1.960687,2.10338 1.206393,1.35334 1.789682,2.22302 2.63035,3.92186 1.513447,3.05838 2.591866,6.35405 2.847409,8.70173 0.113681,1.04435 0.287245,2.20689 0.385693,2.58341 0.254031,0.97153 0.560537,6.41978 0.564188,10.02877 0.0058,6.09267 -0.514635,10.67163 -1.342738,11.80565 -0.332829,0.45578 -0.378529,0.82974 -0.378529,3.0975 0,1.51307 -0.07906,2.62801 -0.191284,2.69738 -0.105208,0.065 -0.194336,0.52208 -0.198067,1.01567 -0.0036,0.49359 -0.129795,1.11265 -0.280153,1.3757 -0.150357,0.26306 -0.276422,0.71321 -0.280152,1.00036 -0.0036,0.28714 -0.220746,1.14803 -0.482261,1.91309 -0.482846,1.41258 -0.58214,1.69077 -1.610782,4.51309 -0.319041,0.87536 -0.797904,1.85048 -1.064132,2.16691 -0.266236,0.31644 -0.484061,0.68866 -0.484061,0.82716 0,0.1385 -0.121778,0.29855 -0.27061,0.35567 -0.148839,0.0571 -0.385555,0.33877 -0.526044,0.62588 -0.140481,0.28711 -0.944053,0.98952 -1.785719,1.56093 -0.841667,0.57141 -1.78854,1.27854 -2.104162,1.57141 -0.662766,0.61498 -2.481808,1.44712 -3.730097,1.70636 -0.870042,0.18069 -3.900906,0.23317 -4.782184,0.0828 z m 89.044185,-47.12429 c -0.84166,-0.0815 -1.92377,-0.26573 -2.40469,-0.40937 -1.29975,-0.38823 -5.60743,-2.9895 -7.43435,-4.48936 -0.26975,-0.22148 -0.71488,-0.52279 -0.98917,-0.6696 -1.04663,-0.56017 -2.57048,-2.5259 -3.57931,-4.61721 -0.5451,-1.13001 -0.9911,-2.12834 -0.9911,-2.21849 0,-0.0902 -0.13461,-0.4338 -0.29914,-0.76365 -0.59336,-1.18956 -1.43761,-4.7723 -1.72086,-7.30278 -0.50053,-4.4717 -0.15213,-13.42411 0.6823,-17.53217 0.10992,-0.54113 0.27776,-1.53116 0.37299,-2.20007 0.0952,-0.66891 0.3032,-1.73274 0.46214,-2.36406 0.15895,-0.631326 0.42474,-2.094848 0.59065,-3.252274 0.1659,-1.157425 0.46872,-2.620947 0.67291,-3.25227 0.93191,-2.881203 1.15188,-3.636662 1.15188,-3.955954 0,-0.188335 0.26498,-0.881857 0.58884,-1.541162 0.99665,-2.028982 2.29966,-4.972642 2.68083,-6.056316 0.19952,-0.567261 0.43487,-1.126842 0.52301,-1.243515 0.0881,-0.116675 0.27635,-0.513447 0.41826,-0.881719 0.5892,-1.528971 1.90086,-3.423257 3.46164,-4.999235 1.60453,-1.620151 2.67788,-2.333127 4.28287,-2.844914 0.42083,-0.134191 0.99302,-0.40377 1.27152,-0.599066 0.39649,-0.278028 0.72648,-0.333171 1.52066,-0.254108 0.55786,0.05554 1.04439,0.131082 1.08118,0.167875 0.0368,0.0368 0.39867,-0.0076 0.80418,-0.09878 0.43902,-0.09865 1.46054,-0.08568 2.52513,0.03207 0.98331,0.108764 2.17519,0.240552 2.64862,0.292862 0.47344,0.05231 1.96996,0.413858 3.3256,0.803446 l 2.4648,0.708339 1.83916,1.700497 c 1.01154,0.935273 1.91737,1.839213 2.01296,2.008755 0.0956,0.169542 0.67166,0.997829 1.28013,1.840639 0.60848,0.842808 1.30077,2.048061 1.53842,2.678339 0.23765,0.630279 0.48414,1.189006 0.54777,1.241616 0.38305,0.316745 0.92674,2.605254 1.02261,4.304476 0.12062,2.137819 0.41917,4.535964 0.7264,5.834955 0.29876,1.263169 0.39757,6.555114 0.15487,8.294834 -0.11534,0.82682 -0.24434,3.19428 -0.28667,5.26102 -0.0423,2.06674 -0.1622,4.23119 -0.26638,4.80991 -0.42595,2.36619 -0.57553,3.03761 -1.02288,4.59144 -0.60248,2.09269 -0.87883,3.14168 -1.10877,4.20882 -0.10203,0.47349 -0.32481,1.50657 -0.49509,2.29572 -0.17027,0.78915 -0.36931,1.52091 -0.44232,1.62613 -0.073,0.10522 -0.23875,0.68424 -0.36831,1.2867 -0.12956,0.60247 -0.45623,1.5064 -0.72593,2.00876 -0.2697,0.50235 -1.20896,2.31557 -2.08725,4.02936 -0.87829,1.7138 -1.8544,3.49032 -2.16913,3.94782 -0.76949,1.11853 -4.06086,4.20685 -5.36613,5.03506 -0.57864,0.36716 -1.35335,0.86385 -1.72158,1.10376 -0.36823,0.23991 -1.01382,0.54449 -1.43465,0.67684 -0.42084,0.13235 -1.05565,0.36567 -1.41071,0.51849 -0.80413,0.34612 -2.33756,0.43027 -4.32791,0.23753 z m -50.691103,-1.92159 c -0.420832,-0.0855 -1.625941,-0.2562 -2.67802,-0.37925 -1.05208,-0.12305 -2.162815,-0.34448 -2.468301,-0.49207 -0.305486,-0.14759 -0.633366,-0.26834 -0.72862,-0.26834 -0.09526,0 -0.916655,-0.35989 -1.82533,-0.79977 -1.413453,-0.68423 -1.931052,-1.08281 -3.582774,-2.75893 -2.016007,-2.04578 -2.157089,-2.24627 -2.67867,-3.80673 -0.994686,-2.97589 -1.475787,-4.75233 -1.642006,-6.063 -0.102641,-0.80936 -0.305428,-1.80835 -0.450637,-2.21997 -0.145217,-0.41163 -0.236059,-1.04077 -0.201877,-1.39809 0.0342,-0.35733 0.194972,-2.17852 0.357316,-4.0471 0.162344,-1.86858 0.393617,-3.76255 0.513942,-4.20882 0.120332,-0.44627 0.338056,-1.58621 0.483832,-2.53319 0.145778,-0.94699 0.341067,-2.1092 0.433975,-2.58269 0.09291,-0.47349 0.270167,-1.50656 0.393908,-2.29572 0.123742,-0.78915 0.353182,-2.25267 0.509865,-3.25227 0.156683,-0.99959 0.425108,-2.46311 0.596502,-3.25227 0.171394,-0.789152 0.376524,-1.779181 0.455843,-2.200063 0.07932,-0.420882 0.327964,-1.497001 0.552541,-2.391375 0.224579,-0.894375 0.495877,-2.056583 0.602889,-2.582686 0.107012,-0.526102 0.279173,-1.235053 0.382578,-1.575446 0.103406,-0.340392 0.259009,-1.201287 0.345783,-1.9131 0.08677,-0.711813 0.301575,-1.767696 0.47734,-2.346409 0.480339,-1.581556 0.880431,-3.036207 1.157608,-4.208821 0.278038,-1.176251 2.010226,-5.962073 2.502549,-6.914239 0.174995,-0.338443 0.630791,-1.024048 1.01288,-1.523568 0.382088,-0.499518 0.952942,-1.266621 1.268566,-1.704672 0.315624,-0.438052 1.090337,-1.245208 1.721585,-1.793682 1.148811,-0.998172 3.557272,-2.603401 3.906101,-2.603401 0.101958,0 0.814222,-0.285453 1.582808,-0.634341 2.257744,-1.024869 3.91524,-1.358728 6.75347,-1.360311 1.943677,-0.0012 2.695602,0.07552 3.44317,0.350766 1.835894,0.675963 3.795574,1.739966 4.696165,2.549772 0.499057,0.448748 0.982714,0.815905 1.074792,0.815905 0.414995,0 1.65251,1.277128 2.10423,2.171594 0.27361,0.541762 0.658,1.190333 0.85421,1.441268 0.19621,0.250936 0.35674,0.618433 0.35674,0.816661 0,0.198228 0.20546,0.948544 0.45658,1.667372 0.25111,0.718828 0.51762,1.685719 0.59224,2.148645 0.0746,0.462926 0.24107,1.013865 0.36988,1.224306 0.12882,0.210441 0.33815,1.028291 0.46518,1.817445 0.12703,0.789154 0.36183,2.004705 0.52176,2.701227 0.15995,0.696521 0.37117,2.418311 0.4694,3.8262 0.0982,1.407889 0.2603,3.592873 0.36017,4.855519 0.23547,2.976618 0.22876,13.260614 -0.009,13.407414 -0.0987,0.061 -0.16872,0.42683 -0.15551,0.81287 0.0132,0.38604 -0.0344,2.1632 -0.10589,3.94925 -0.0998,2.49487 -0.21458,3.47014 -0.4953,4.20882 -0.20098,0.52881 -0.36545,1.09223 -0.3655,1.25206 -8e-5,0.25653 -0.69695,2.07125 -1.43116,3.72692 -0.57446,1.29541 -1.24695,3.51333 -1.24695,4.11248 0,0.35208 -0.12178,0.77605 -0.27063,0.94217 -0.14884,0.16611 -0.48534,0.91881 -0.74777,1.67265 -0.26244,0.75383 -0.893853,1.97115 -1.403145,2.70514 -1.401011,2.01911 -3.992819,4.92316 -5.404897,6.05605 -0.692839,0.55585 -1.500858,1.23693 -1.795601,1.51351 -0.294743,0.27657 -0.610935,0.50286 -0.702652,0.50286 -0.09171,0 -0.410077,0.19887 -0.70747,0.44194 -0.606644,0.49581 -2.550001,1.47117 -2.931242,1.47117 -0.136524,0 -0.730499,0.16183 -1.319945,0.35963 -2.356119,0.79064 -4.478056,0.98499 -6.42776,0.58871 z m 99.851913,-15.24605 c -0.21042,-0.053 -0.72689,-0.33985 -1.14772,-0.63741 -0.42083,-0.29756 -1.02339,-0.60218 -1.33901,-0.67693 -0.31562,-0.0748 -0.74602,-0.24575 -0.95644,-0.38 -0.95286,-0.60798 -5.50546,-0.45444 -6.54486,0.22073 -0.57845,0.37575 -0.76307,0.34923 -1.2988,-0.18657 -0.56089,-0.56095 -0.52024,-0.81717 0.38203,-2.40788 1.59047,-2.80399 2.5234,-5.63101 2.90414,-8.80026 0.32713,-2.723 0.25875,-5.78892 -0.14567,-6.53182 -0.14867,-0.27309 -0.47557,-0.87368 -0.72644,-1.33465 -0.25088,-0.46098 -0.68128,-1.11476 -0.95644,-1.45286 -1.32063,-1.62268 -1.43116,-1.81409 -1.23088,-2.13163 0.49585,-0.7862 2.77999,-0.59478 4.74186,0.39737 1.47758,0.74724 3.05055,2.48284 3.86273,4.26209 0.14409,0.31566 0.55441,0.98147 0.91184,1.47958 0.35742,0.49811 0.74027,1.32733 0.85079,1.84271 0.11052,0.51539 0.37477,1.23173 0.58724,1.59187 0.34522,0.58518 0.70176,2.25162 1.3838,6.46784 0.14301,0.88409 0.14019,1.60159 -0.01,2.48703 -0.31862,1.88122 -0.42504,4.58497 -0.19721,5.01072 0.14207,0.26548 0.13372,0.44969 -0.0293,0.6461 -0.23408,0.28209 -0.37969,0.30081 -1.04193,0.13397 z M 47.097886,115.31869 c -0.89427,-0.34871 -2.162983,-0.69275 -2.819372,-0.76454 -1.193003,-0.13048 -3.182349,0.13136 -4.353894,0.57307 -0.727104,0.27413 -1.52529,0.23616 -1.919854,-0.0913 -0.451107,-0.37444 -0.147682,-2.47551 0.597337,-4.13629 0.148737,-0.33157 0.270436,-0.77845 0.270436,-0.99309 0,-0.21463 0.07549,-0.4369 0.167759,-0.49394 0.09227,-0.057 0.266937,-0.4976 0.388151,-0.97905 0.194806,-0.77373 1.149639,-3.05194 2.362018,-5.63568 0.38236,-0.81487 1.044887,-1.9171 1.665901,-2.77155 0.153936,-0.211789 1.229926,-1.317561 2.391096,-2.457271 1.843529,-1.80946 2.336157,-2.179703 3.88529,-2.920053 1.962589,-0.937943 4.167396,-1.393292 5.075106,-1.04814 0.800427,0.304359 0.597618,1.279776 -0.525958,2.529614 -0.497652,0.553573 -1.115312,1.39778 -1.372575,1.876017 -0.257271,0.478239 -0.721819,1.256925 -1.032344,1.730418 -0.310518,0.473495 -0.62272,0.980225 -0.693781,1.126075 -0.07107,0.14584 -0.407946,0.67944 -0.748641,1.18577 -0.921078,1.36888 -1.515739,3.1914 -1.773755,5.43621 -0.241835,2.10406 -0.122472,4.11385 0.321486,5.41281 0.205223,0.60045 0.425196,1.45432 0.488825,1.89748 0.09652,0.6723 0.05422,0.83865 -0.255406,1.00438 -0.204095,0.10924 -0.398265,0.18839 -0.431486,0.17587 -0.03326,-0.0125 -0.79207,-0.30807 -1.686339,-0.65678 z M 143.36129,67.581811 c -0.50683,-0.605369 -1.70063,-1.239456 -3.39348,-1.802447 -2.29578,-0.763512 -4.65043,-0.806112 -8.63891,-0.15629 -0.50326,0.08199 -0.66192,0.01142 -0.9447,-0.4202 -0.32901,-0.502193 -0.32671,-0.543996 0.0719,-1.310307 0.71211,-1.368942 0.98155,-2.461812 1.08218,-4.389285 0.0536,-1.027718 0.19619,-2.231316 0.31674,-2.674664 0.12563,-0.462032 0.23003,-2.43919 0.2446,-4.632287 0.0245,-3.691804 0.009,-3.856439 -0.43191,-4.687096 -0.49425,-0.9304 -2.32282,-3.434649 -2.79272,-3.824679 -0.68814,-0.571169 0.0419,-1.704263 1.10613,-1.716946 0.80867,-0.0096 3.27992,0.537866 4.10166,0.908717 0.94071,0.424543 4.52668,4.113254 5.80575,5.972079 0.54302,0.789154 1.114,1.865272 1.26886,2.391375 0.15485,0.526103 0.43535,1.214819 0.62333,1.53048 0.88862,1.492202 2.44513,7.004566 2.59296,9.182881 0.0357,0.526103 0.12235,1.455321 0.19254,2.06493 0.0815,0.707846 0.0453,1.307285 -0.10034,1.658807 -0.1989,0.480248 -0.17319,0.624517 0.2016,1.131515 0.35666,0.48247 0.38802,0.631143 0.1848,0.87605 -0.34643,0.417466 -1.09892,0.365667 -1.491,-0.102633 z M 93.867602,63.492633 c -2.678901,-1.620931 -3.098847,-1.807415 -4.686537,-2.081124 -1.933289,-0.333291 -3.188981,-0.187908 -4.863455,0.563089 -1.340317,0.601126 -1.746582,0.477348 -1.716544,-0.522979 0.0226,-0.752623 1.286466,-3.701072 1.855052,-4.327612 0.214126,-0.235954 0.618096,-0.881625 0.89771,-1.434826 0.802546,-1.587794 1.54442,-2.893922 1.820926,-3.205885 0.139892,-0.157831 0.589597,-0.98128 0.999345,-1.829887 0.409747,-0.848608 1.062176,-2.065122 1.449842,-2.703366 0.387667,-0.638244 0.704848,-1.253535 0.704848,-1.367315 0,-0.300555 3.296808,-3.702765 4.183695,-4.317452 1.448077,-1.003637 3.533486,-1.71747 7.139896,-2.443976 1.11799,-0.225219 1.68394,-0.05866 1.68394,0.49559 0,0.122042 -0.67011,0.950874 -1.48912,1.841848 -1.48626,1.616835 -2.422094,2.936707 -2.979819,4.202637 -0.16225,0.368272 -0.538983,1.100034 -0.837192,1.626136 -0.629512,1.110591 -1.449091,3.108645 -1.726413,4.20882 -0.554316,2.199051 -0.870798,3.535288 -1.033559,4.363859 -0.198088,1.0084 -0.1125,5.266863 0.122942,6.117068 0.109179,0.394263 0.0591,0.630555 -0.192613,0.908723 -0.42232,0.466714 -0.405372,0.467901 -1.332944,-0.09335 z"
       id="path2805" />
  </g>
</svg>
