<?xml version="1.0" encoding="UTF-8" standalone="no"?>
<!-- Created with Inkscape (http://www.inkscape.org/) -->

<svg
   width="210mm"
   height="297mm"
   viewBox="0 0 210 297"
   version="1.1"
   id="svg3455"
   inkscape:version="1.3 (0e150ed6c4, 2023-07-21)"
   sodipodi:docname="Schmetterlin-Herz.svg"
   xmlns:inkscape="http://www.inkscape.org/namespaces/inkscape"
   xmlns:sodipodi="http://sodipodi.sourceforge.net/DTD/sodipodi-0.dtd"
   xmlns="http://www.w3.org/2000/svg"
   xmlns:svg="http://www.w3.org/2000/svg">
  <sodipodi:namedview
     id="namedview3457"
     pagecolor="#ffffff"
     bordercolor="#666666"
     borderopacity="1.0"
     inkscape:pageshadow="2"
     inkscape:pageopacity="0.0"
     inkscape:pagecheckerboard="0"
     inkscape:document-units="mm"
     showgrid="false"
     inkscape:zoom="0.23496321"
     inkscape:cx="263.8711"
     inkscape:cy="523.48621"
     inkscape:window-width="1366"
     inkscape:window-height="705"
     inkscape:window-x="-8"
     inkscape:window-y="-8"
     inkscape:window-maximized="1"
     inkscape:current-layer="layer1"
     inkscape:showpageshadow="2"
     inkscape:deskcolor="#d1d1d1" />
  <defs
     id="defs3452" />
  <g
     inkscape:label="Ebene 1"
     inkscape:groupmode="layer"
     id="layer1">
    <path
       style="fill:none;stroke:#000000;stroke-width:0.264583;stroke-opacity:1"
       d="m 124.1153,211.22425 c -0.17278,-0.4076 -0.38395,-0.96542 -0.46924,-1.23959 -0.29761,-0.95657 -2.59333,-5.22431 -3.72582,-6.92629 -4.48549,-6.7411 -9.0998,-10.905 -20.340984,-18.35549 -4.76452,-3.15786 -7.51336,-4.8592 -15.701272,-9.71801 -13.582953,-8.0603 -20.387237,-15.2115 -25.590427,-26.89516 -2.708269,-6.08136 -3.989451,-12.30876 -3.35976,-16.33078 0.184994,-1.18164 0.608872,-2.25707 2.035787,-5.16495 0.991176,-2.01992 1.82746,-3.71131 1.858406,-3.75866 0.136698,-0.20913 0.254242,0.21427 0.569391,2.05107 0.784786,4.57392 1.472073,6.3862 4.198044,11.06965 1.102785,1.89467 1.46866,2.72703 1.581909,3.59878 0.19941,1.53504 0.834675,4.06414 1.565089,6.23096 3.251556,9.64592 7.332466,14.98027 17.140929,22.4057 1.193139,0.90326 4.819034,3.58796 8.057554,5.96602 16.090814,11.8155 18.471254,13.63955 20.895804,16.0117 2.59197,2.53597 5.04182,5.36662 7.83115,9.04847 1.23079,1.6246 2.29409,2.97266 2.36288,2.99568 0.0688,0.023 0.52555,-0.90051 1.01499,-2.05228 2.64006,-6.21266 6.05909,-11.21228 10.78901,-15.77662 3.4347,-3.31448 5.86414,-5.23873 11.15808,-8.83781 0.6267,-0.42605 -1.3949,-0.10253 -3.22731,0.51649 -2.1262,0.71826 -6.24495,2.69379 -8.08445,3.87764 -1.84463,1.18716 -4.93481,4.26152 -6.12611,6.09474 -1.00854,1.552 -1.09541,1.39828 -0.31887,-0.56425 1.8305,-4.62612 3.73738,-6.86691 8.57773,-10.07975 3.61261,-2.39792 7.87316,-4.36529 13.38945,-6.18276 6.57482,-2.16624 11.28137,-4.36068 19.16808,-8.93718 3.53558,-2.05163 7.13813,-5.26852 10.20366,-9.11137 0.66311,-0.83124 1.20567,-1.54885 1.20567,-1.59466 0,-0.0458 -0.72189,-0.0276 -1.6042,0.0404 -4.83196,0.3726 -8.78519,-1.72368 -10.16931,-5.39249 -0.20733,-0.54957 -0.12009,-0.50425 0.91643,0.47603 0.63008,0.59588 1.68042,1.33405 2.33411,1.64038 1.10685,0.51869 1.38018,0.55696 3.97767,0.55696 2.78466,0 2.79132,-0.002 4.13209,-0.71454 1.56336,-0.83183 4.66991,-3.8171 5.84202,-5.61395 2.99341,-4.5889 4.3761,-9.80013 4.62478,-17.43033 0.45413,-13.9344 -4.95003,-25.000135 -15.11382,-30.947532 -2.89515,-1.69411 -7.26353,-3.223478 -10.45571,-3.660535 -1.76198,-0.24124 -4.11145,-0.106369 -4.11145,0.23602 0,0.105944 0.31366,0.468016 0.69702,0.804605 1.11683,0.980561 1.65963,2.463901 1.66145,4.540358 0.002,2.10255 -0.39149,3.018678 -1.84556,4.29857 -1.87473,1.650154 -5.13183,2.191124 -7.22755,1.200401 -0.90756,-0.429043 -2.49877,-1.780199 -2.09646,-1.780199 0.0826,0 0.54161,0.200661 1.02003,0.445912 1.2163,0.623522 3.36762,0.614498 4.83205,-0.02026 2.44262,-1.058776 3.00709,-4.046651 1.16995,-6.192884 -1.1977,-1.399196 -1.6865,-1.570368 -4.40905,-1.543954 -1.87575,0.0182 -2.65867,0.120104 -3.71888,0.484064 -5.03902,1.729851 -9.99246,6.997141 -11.76328,12.508594 -2.43672,7.58401 -0.47698,16.93634 4.48903,21.42271 1.70018,1.53598 4.35611,2.9326 6.87473,3.6151 1.83447,0.4971 6.38167,0.49952 8.25048,0.005 7.07365,-1.87414 11.20002,-8.45147 8.35146,-13.31204 -0.71501,-1.22004 -1.55936,-1.7084 -2.95537,-1.70937 -1.34658,-7.8e-4 -2.27205,0.50669 -2.92987,1.60704 -0.56666,0.94786 -0.71328,0.6234 -0.40006,-0.88533 0.48898,-2.3553 2.77164,-3.51385 5.45526,-2.76876 1.17642,0.32663 2.80597,2.04664 3.40663,3.59576 0.65926,1.70025 0.81406,4.48372 0.35004,6.29418 -1.64617,6.42285 -9.4334,10.81037 -17.62208,9.92875 -5.65774,-0.60913 -9.97365,-2.92405 -12.94617,-6.94393 -3.59751,-4.86505 -5.22938,-10.99496 -4.45998,-16.75325 1.00372,-7.51192 5.51111,-13.950031 12.69682,-18.135396 1.02269,-0.595673 2.29343,-1.257622 2.82385,-1.470998 0.53044,-0.213375 0.93013,-0.443444 0.88822,-0.511267 -0.13892,-0.224754 -3.06374,0.214962 -4.91834,0.73942 -2.30382,0.651496 -3.66034,1.293546 -5.90478,2.794786 -5.97492,3.996451 -9.53195,10.172905 -10.14427,17.614555 -0.66664,8.10196 2.30037,17.62652 7.09578,22.77854 3.84937,4.13562 9.07331,6.4716 15.96717,7.14002 7.56123,0.73312 14.5922,-1.53227 19.30713,-6.22078 3.84675,-3.8252 5.7694,-8.79116 5.77171,-14.90758 0.002,-6.73603 -2.54372,-11.39817 -7.54021,-13.80589 -4.48478,-2.16115 -8.69827,-1.85964 -12.43306,0.88968 -1.33547,0.98309 -2.22404,2.00821 -2.9831,3.44151 -0.43675,0.82469 -0.49041,1.18636 -0.47509,3.20228 0.0191,2.50945 0.40471,3.89551 1.58074,5.68145 l 0.61219,0.92969 -0.83342,-0.80356 c -3.15871,-3.04555 -3.62297,-8.88744 -0.99047,-12.46333 3.22399,-4.37937 10.58077,-5.900808 16.20412,-3.35113 6.05869,2.74707 9.33846,8.68827 9.33835,16.91613 -1.1e-4,7.84904 -3.25456,14.1993 -9.40045,18.34266 -5.42028,3.65416 -14.33899,5.54051 -21.26222,4.49704 -1.12642,-0.16978 -2.12663,-0.30868 -2.22269,-0.30868 -0.096,0 1.6722,0.92947 3.92947,2.06548 2.38455,1.20007 4.49757,2.41181 5.0432,2.89208 1.18861,1.04622 2.28539,2.69336 2.98851,4.4881 0.48753,1.24447 0.54968,1.6889 0.55702,3.98324 0.008,2.35859 -0.0382,2.68099 -0.52724,3.71877 -0.96468,2.04692 -3.01245,3.91131 -4.98452,4.53815 -1.1204,0.35614 -1.43422,0.14379 -0.46306,-0.31333 1.38906,-0.6538 2.65238,-2.12591 3.16534,-3.68842 0.81375,-2.47878 0.51458,-5.73133 -0.73901,-8.03452 -1.11203,-2.04313 -3.29943,-3.57448 -11.62022,-8.13505 -3.57109,-1.9573 -4.72456,-2.7739 -7.08619,-5.01673 -4.59586,-4.36466 -8.30974,-10.69061 -9.64851,-16.43452 -1.03373,-4.43522 -1.40374,-10.64642 -0.84921,-14.25529 1.43379,-9.331048 6.56448,-16.093553 15.66648,-20.649223 11.34387,-5.677747 23.40061,-5.349464 33.96766,0.924878 4.67882,2.778125 8.39133,6.355088 11.11403,10.708256 3.14771,5.032699 5.15904,10.522539 6.15106,16.789079 0.46014,2.90672 0.51833,10.65173 0.10147,13.50664 -1.18938,8.14563 -3.27075,14.54715 -6.4673,19.89096 -3.94405,6.59346 -11.57147,14.66286 -19.29332,20.41127 -2.86528,2.13301 -4.86262,3.30171 -10.67169,6.24426 -12.14059,6.14975 -19.06636,10.80855 -24.67687,16.59954 -4.65222,4.80187 -7.77723,11.12493 -9.2692,18.75508 l -0.46754,2.39107 z m -3.36496,-14.88198 c -1.88212,-2.75975 -5.10601,-6.66365 -7.4182,-8.98294 -3.61919,-3.6303 -6.30266,-5.60757 -14.439014,-10.63916 -9.48542,-5.86587 -17.129937,-13.26567 -19.447195,-18.82464 -0.257873,-0.61863 0.41104,-0.0361 3.450341,3.00509 4.128034,4.1305 5.621024,5.33101 9.348544,7.51712 2.70924,1.58891 6.29732,3.43717 6.42494,3.30956 0.0443,-0.0442 -0.15173,-0.67276 -0.43545,-1.39673 -1.38856,-3.54308 -1.96632,-7.22369 -1.58432,-10.0928 0.46316,-3.47862 1.64277,-6.1018 4.236784,-9.4216 2.67442,-3.4227 3.34181,-5.1446 3.19606,-8.24611 -0.10288,-2.18957 -0.53453,-3.22994 -1.76007,-4.24218 -1.82098,-1.50407 -4.815204,-1.33295 -6.415454,0.36664 -1.30352,1.38443 -1.67333,3.80381 -0.85749,5.60982 0.50901,1.12679 1.67255,2.3726 2.72166,2.91409 0.9528,0.49178 0.99236,0.67788 0.1033,0.48599 -2.88171,-0.62198 -4.93794,-3.68425 -4.64477,-6.91731 0.32348,-3.56727 4.04458,-5.95791 7.886754,-5.06688 2.33934,0.54251 3.83929,1.83208 4.69789,4.03895 0.35323,0.90788 0.44383,1.59311 0.45073,3.40887 0.005,1.24992 -0.0584,2.52825 -0.14032,2.84073 -0.24864,0.94844 0.25139,0.68157 1.93555,-1.03299 1.09662,-1.11641 1.78495,-2.03896 2.27369,-3.04733 0.64417,-1.32909 0.70136,-1.60511 0.7062,-3.40887 0.005,-1.73387 -0.0642,-2.11317 -0.59085,-3.25341 -1.11291,-2.40957 -3.37508,-3.9113 -6.2155,-4.12611 -2.52483,-0.19095 -4.07353,0.42418 -6.249854,2.4824 -1.19474,1.1299 -1.40234,1.11357 -0.53051,-0.0418 0.88447,-1.17205 1.92173,-2.02692 3.261804,-2.68824 1.76588,-0.87146 2.86765,-1.11188 4.362,-0.95186 4.10883,0.44001 6.71518,2.46774 7.72912,6.01323 0.49546,1.73245 0.51976,3.42941 0.075,5.23832 -0.53031,2.15694 -1.42487,3.65002 -3.32425,5.54845 -0.94273,0.94225 -1.71405,1.74352 -1.71405,1.78061 0,0.0371 0.53459,-0.0583 1.18797,-0.21211 1.7797,-0.41879 5.82685,-0.36195 7.63298,0.1072 5.64533,1.46641 9.72965,6.17431 10.39132,11.97783 0.71636,6.2833 -2.31515,11.78801 -7.14867,12.98076 -3.03432,0.74878 -6.54525,-0.6816 -8.15579,-3.32273 -0.60038,-0.98457 -0.48013,-1.05228 0.48252,-0.27167 1.49292,1.21058 2.57237,1.64682 4.33556,1.75212 2.01419,0.12029 3.55292,-0.40365 5.06184,-1.72359 4.1194,-3.60345 4.0585,-11.03876 -0.12309,-15.02721 -2.21295,-2.11075 -4.46649,-2.91662 -8.18963,-2.92863 -2.02089,-0.006 -2.75656,0.0791 -3.97918,0.4634 -3.68256,1.1574 -6.38821,3.77799 -7.57098,7.33297 -0.50244,1.51012 -0.72068,4.06298 -0.51173,5.98606 0.59313,5.45923 3.75872,10.6133 8.96283,14.59287 3.57636,2.73485 8.7949,9.42831 10.36696,13.29699 0.68978,1.69747 1.34938,3.8483 1.26126,4.11267 -0.0386,0.11563 -0.53231,-0.46752 -1.09726,-1.29589 z M 75.494813,155.09595 c -0.459571,-0.31468 -0.484926,-0.93693 -0.08637,-2.12 0.226248,-0.67157 0.411352,-1.36712 0.411352,-1.54567 0,-0.73234 -0.883167,-1.96112 -2.358589,-3.28157 -2.910783,-2.60507 -4.762231,-5.20607 -6.633623,-9.31923 -0.465286,-1.02265 -1.642121,-3.25392 -2.615189,-4.95836 -2.87147,-5.0297 -3.568978,-7.61464 -3.539946,-13.11901 0.01499,-2.83642 0.419973,-6.71296 0.806635,-7.72055 0.07106,-0.18523 0.04919,-0.33679 -0.04865,-0.33679 -0.171486,0 -2.228583,4.97665 -3.287812,7.95405 l -0.514497,1.44618 0.12308,-1.13628 c 0.0677,-0.62497 0.300586,-2.48435 0.51755,-4.13197 0.216956,-1.64762 0.390417,-3.32108 0.385474,-3.71878 l -0.009,-0.72309 -0.275099,0.6198 c -0.151308,0.34088 -0.658824,1.55365 -1.127812,2.69503 -2.398359,5.83685 -5.89602,10.03727 -10.57072,12.69459 -2.150231,1.22229 -5.014681,3.06281 -7.420731,4.76807 -1.987764,1.40881 -6.808252,3.29518 -9.142884,3.57781 -1.186276,0.14362 -2.449295,0.75691 -2.999649,1.45656 -0.222843,0.28329 -0.464631,0.96327 -0.537298,1.51108 -0.161108,1.21437 -0.61508,1.91075 -1.245645,1.91075 -1.477538,0 -2.496802,-3.84633 -1.70217,-6.42337 0.154479,-0.50098 0.951735,-2.27434 1.771683,-3.94078 2.285305,-4.64461 2.406933,-6.55455 0.663314,-10.41615 -1.20921,-2.67805 -1.549698,-4.16851 -1.421878,-6.2241 0.197043,-3.16874 1.918618,-5.75839 4.758931,-7.15855 0.818473,-0.40347 1.881567,-0.79587 2.362439,-0.87199 1.129601,-0.17883 0.9623,-0.41127 -0.516355,-0.71743 -0.651406,-0.13487 -1.974638,-0.52363 -2.940514,-0.86391 -3.523977,-1.24147 -5.894053,-2.70505 -8.294426,-5.122035 -2.997307,-3.018044 -3.680025,-5.417256 -3.349461,-11.770694 0.09755,-1.87488 0.147232,-4.013175 0.110398,-4.751764 -0.0606,-1.21546 -0.78085,-5.181268 -1.575865,-8.677135 -0.363118,-1.596715 -0.403473,-3.795268 -0.100747,-5.488565 0.328854,-1.839404 1.518479,-5.540698 2.529224,-7.869164 1.341254,-3.089864 2.574132,-4.779084 5.982384,-8.196715 2.02801,-2.033582 3.235283,-3.418702 3.590187,-4.119042 0.632001,-1.247159 0.834855,-2.964918 0.522259,-4.422456 -0.266291,-1.241651 -0.02764,-2.339857 0.647782,-2.980984 0.658598,-0.625151 2.517277,-0.454132 4.176266,0.384263 1.276957,0.645329 3.151222,2.429358 3.980759,3.78911 1.147475,1.880897 2.226124,5.870623 2.43506,9.006849 0.207921,3.12089 1.331595,6.170073 3.460024,9.389071 0.628121,0.949959 2.928957,3.865492 5.112968,6.478963 8.08916,9.679784 9.041996,10.957509 10.816381,14.504422 1.942841,3.883638 3.046423,7.74993 3.353904,11.750023 l 0.132185,1.719617 0.583619,-0.805642 c 0.320991,-0.443102 0.76774,-0.904174 0.99277,-1.024604 0.386153,-0.206659 0.390503,-0.251451 0.0773,-0.797092 -0.382616,-0.666646 -0.254148,-1.485732 0.321053,-2.047029 0.756144,-0.73787 1.810344,-6.077799 2.100951,-10.64212 C 66.5269,73.554743 63.6214,62.65382 59.885363,60.721891 c -1.144257,-0.591703 -2.102254,-0.15159 -1.622256,0.745279 0.192468,0.359622 0.362243,0.423967 0.857359,0.324949 0.44051,-0.0881 0.59288,-0.05002 0.531887,0.132933 -0.04701,0.141022 -0.400373,0.256403 -0.785262,0.256403 -1.282916,0 -1.519534,-1.54346 -0.326613,-2.130484 0.48548,-0.238899 0.664111,-0.214565 1.503971,0.204871 2.208788,1.103087 3.903618,4.33281 5.201831,9.912724 1.480623,6.36398 1.457892,13.971787 -0.06223,20.821228 -0.327558,1.475925 -0.451614,2.436709 -0.330299,2.55802 0.174454,0.174447 0.842359,-1.039399 0.842359,-1.530893 0,-0.584498 1.772542,-5.12259 2.898012,-7.419533 2.303308,-4.700762 5.128058,-8.66195 8.671822,-12.160602 2.057738,-2.031543 3.764601,-3.347498 5.440854,-4.194769 2.139042,-1.081196 4.315198,-0.98895 4.612488,0.195522 0.32822,1.307684 -1.659823,2.194031 -2.136284,0.952438 -0.153885,-0.401008 0.08729,-0.629915 0.367967,-0.349249 0.292567,0.292563 0.950847,0.106349 1.112417,-0.31468 0.16559,-0.431537 -0.416135,-0.863135 -1.163368,-0.863135 -0.921133,0 -3.072114,0.877535 -4.454668,1.817366 -2.53209,1.721264 -6.293973,5.643109 -8.561701,8.925753 -2.704462,3.91486 -5.19558,9.114034 -6.452001,13.46589 -0.429663,1.488216 -0.451035,1.734933 -0.194787,2.248578 0.384366,0.770466 0.165622,1.531777 -0.615837,2.143346 -0.546356,0.427578 -0.596949,0.543395 -0.361377,0.827234 0.150652,0.181526 0.281283,0.839571 0.290287,1.462321 0.009,0.62275 0.0367,1.132273 0.06153,1.132273 0.02483,0 0.492711,-0.667607 1.039668,-1.483567 2.247074,-3.352198 5.582202,-6.574571 9.280414,-8.966662 3.050038,-1.972832 4.303179,-2.507542 15.68825,-6.694107 7.01845,-2.580849 9.291064,-3.599201 11.458414,-5.134465 2.05564,-1.456127 3.02028,-2.431123 4.40381,-4.45108 1.48555,-2.168898 4.31101,-5.10064 5.92639,-6.149311 2.3428,-1.52089 5.36814,-2.168791 7.61276,-1.630331 2.71098,0.650337 3.19875,2.433284 1.26898,4.63848 -1.25531,1.434474 -1.54361,2.270119 -1.53852,4.459433 0.003,1.426419 0.12602,2.108382 0.65365,3.632713 1.75002,5.055844 1.94486,9.719895 0.65522,15.684242 -0.68233,3.155692 -1.91005,6.248091 -2.91177,7.334241 -1.66423,1.80452 -5.38971,6.06081 -6.09827,6.96719 -0.46399,0.59352 -1.53554,2.458 -2.38121,4.14328 -3.30025,6.57682 -5.07582,8.31215 -9.80255,9.58039 -3.203214,0.85947 -8.891074,0.52007 -12.431704,-0.74181 -0.49722,-0.17721 -1.00006,-0.3222 -1.11742,-0.3222 -0.11735,0 0.36198,0.59916 1.0652,1.33147 2.5585,2.66435 3.26178,5.84715 2.03399,9.20506 -0.75256,2.05816 -2.08668,3.59352 -4.722446,5.43481 -1.734576,1.21174 -2.915675,2.55018 -3.699352,4.19218 -0.559763,1.17286 -0.634687,1.5909 -0.83569,4.66277 -0.341933,5.22561 -0.86559,6.88741 -2.689536,8.53519 -1.101434,0.99506 -2.035873,1.35154 -2.575037,0.98236 z m 2.0114,-10.01686 c 1.069732,-0.86556 1.386584,-2.96707 0.578177,-3.83477 -0.640544,-0.68752 -1.907155,-0.62702 -2.428516,0.116 -0.858015,1.22281 -0.736317,3.26507 0.222141,3.7278 0.627535,0.30296 1.246847,0.29953 1.628198,-0.009 z m -4.250525,-3.48091 c 0.293738,-0.32457 0.392697,-0.7467 0.39358,-1.67893 7.8e-4,-1.108 -0.0595,-1.29099 -0.548996,-1.65931 -1.073589,-0.80781 -2.193499,0.0177 -2.388149,1.76047 -0.07637,0.684 1.56e-4,0.99911 0.350628,1.4432 0.563629,0.71423 1.610216,0.77845 2.192937,0.13457 z m 7.210553,-3.48765 c 0.378064,-0.73108 0.409916,-1.98868 0.0538,-2.12417 -0.730555,-0.27795 -2.016836,0.93058 -2.011221,1.88964 0.0083,1.40715 1.272686,1.55864 1.957435,0.23453 z m -3.099857,-3.01562 c 1.018655,-2.04945 1.401263,-2.50767 3.963057,-4.74627 2.232941,-1.95122 3.12957,-3.22228 3.695284,-5.2384 0.456033,-1.62524 0.31807,-3.01148 -0.448959,-4.51125 -0.531699,-1.03963 -0.802301,-1.29814 -2.354068,-2.24883 -0.964323,-0.5908 -1.789385,-1.03846 -1.833473,-0.99482 -0.04412,0.0436 0.04888,0.52363 0.206601,1.06662 0.169604,0.5839 0.277137,1.83137 0.263207,3.05325 -0.03256,2.85277 -0.182996,3.26482 -3.824001,10.47174 -0.211631,0.41889 -0.465092,0.81125 -0.563247,0.87191 -0.09816,0.0607 -0.679923,-0.65239 -1.292801,-1.58457 -0.927622,-1.41088 -3.657497,-4.9518 -4.099319,-5.31721 -0.06872,-0.0568 -0.832008,-0.94002 -1.696239,-1.96269 -1.872149,-2.21535 -3.726323,-4.902 -4.562638,-6.61115 l -0.606545,-1.23959 0.122424,1.34289 c 0.176968,1.94117 1.026643,4.92181 1.897652,6.65691 1.156298,2.30338 2.623217,4.32952 5.410396,7.47294 1.399718,1.57862 2.736841,3.25208 2.971374,3.71877 1.066116,2.12145 1.617259,2.08133 2.751295,-0.20025 z m -7.124904,0.7389 c 0.529427,-0.52941 0.523273,-1.04395 -0.02077,-1.73556 -0.323747,-0.41157 -0.546763,-0.51739 -0.878068,-0.41662 -1.113671,0.33871 -1.521111,1.4187 -0.825282,2.18756 0.44874,0.49584 1.208468,0.48025 1.724113,-0.0354 z m 13.12588,-0.91988 c 0.982283,-1.28781 0.04435,-2.19284 -1.049405,-1.01264 -0.483668,0.52187 -0.663033,1.29407 -0.368912,1.58818 0.325652,0.32565 0.912605,0.0875 1.418317,-0.57554 z m -52.012019,-2.68586 c 0.219244,-0.27871 0.514411,-0.92027 0.65592,-1.42567 0.307411,-1.09795 0.03764,-1.83056 -0.873773,-2.37292 -0.512998,-0.30528 -0.628714,-0.30859 -1.116248,-0.0319 -0.851589,0.48321 -1.356231,1.32417 -1.463311,2.43854 -0.08152,0.8484 -0.02335,1.09951 0.338755,1.46158 0.637468,0.63745 1.9313,0.60084 2.458657,-0.0696 z m 5.653531,-1.14937 c 0.503752,-0.93927 0.491188,-1.95402 -0.03069,-2.47584 -0.798053,-0.79804 -2.067436,-0.33497 -2.604375,0.95006 -0.545036,1.30443 -0.267993,2.27538 0.744938,2.61083 0.556828,0.1844 1.499489,-0.35675 1.890086,-1.08505 z m 40.290904,-1.35475 c 1.139385,-1.84319 2.594653,-5.3828 2.87136,-6.98397 0.285305,-1.65086 0.135278,-3.71041 -0.375861,-5.15985 -0.346213,-0.98177 -0.802324,-1.38218 -3.278582,-2.87825 -0.128047,-0.0774 -0.0091,0.41311 0.26426,1.08993 0.663307,1.64214 0.966126,3.36908 0.833574,4.75371 -0.113639,1.18703 -1.078243,4.73112 -1.367569,5.02462 -0.09192,0.0933 -0.452113,-0.29357 -0.800411,-0.85961 -0.348297,-0.56604 -2.294012,-2.73775 -4.323802,-4.82602 -5.461184,-5.6185 -6.645812,-7.48321 -6.667559,-10.49531 -0.01523,-2.10222 -0.372449,-1.4632 -0.5395,0.96495 -0.15579,2.26453 0.196544,3.76293 1.491399,6.34255 1.398554,2.78625 2.915081,4.90196 5.92177,8.26149 1.52147,1.70003 2.833871,3.33055 3.974427,4.93784 0.454526,0.64053 0.919383,1.13933 1.033023,1.10846 0.113631,-0.0308 0.547191,-0.60711 0.963471,-1.28054 z m -35.740877,-1.463 c 0.499847,-0.45235 0.479693,-1.33022 -0.04342,-1.89172 -0.544388,-0.58432 -0.925076,-0.57083 -1.550869,0.055 -0.627332,0.62731 -0.645464,1.20731 -0.05497,1.75743 0.547574,0.51014 1.141633,0.53871 1.649259,0.0793 z M 31.29131,125.30754 c 0.173368,-0.33524 0.315212,-0.80471 0.315212,-1.04325 0,-0.67174 -0.589881,-1.65279 -0.993784,-1.65279 -0.494179,0 -1.072261,1.03951 -1.072261,1.92816 0,1.35257 1.180684,1.8704 1.750833,0.76788 z m 4.75299,-0.32547 c 0.716413,-0.40063 2.637444,-1.15466 4.268954,-1.67561 3.386138,-1.08124 6.4383,-2.45537 8.562302,-3.85487 1.552111,-1.0227 4.178701,-3.55949 5.279722,-5.09922 l 0.661354,-0.92489 -0.60339,0.39821 c -3.011893,1.9877 -5.463585,3.11525 -10.611638,4.88041 -1.754675,0.60163 -4.254976,1.6191 -5.556219,2.26103 l -2.365898,1.16713 0.118122,-3.8417 c 0.172009,-5.59407 0.951555,-8.10897 3.315157,-10.69506 l 1.005982,-1.10067 h -2.141181 c -2.102942,0 -2.160265,0.0129 -3.210084,0.71981 -1.360229,0.91602 -1.983868,1.74489 -2.523509,3.35399 -0.710993,2.12006 -0.597081,3.54934 0.545732,6.847 0.952234,2.74775 0.977121,2.88236 0.998524,5.40048 0.01203,1.42036 0.03748,2.6522 0.05646,2.73742 0.07723,0.34685 0.970249,0.11403 2.199628,-0.57346 z m -6.131936,-3.85808 c 0.552541,-0.55252 0.02694,-2.23126 -0.698617,-2.23126 -0.390183,0 -0.756409,0.95812 -0.582963,1.52513 0.279026,0.91213 0.792602,1.1951 1.28158,0.70613 z m 9.958318,-1.93361 c 0.965877,-0.38778 3.38314,-1.27663 5.371709,-1.97521 7.344854,-2.58025 10.669265,-4.83989 12.528194,-8.51554 0.507883,-1.00422 0.886579,-1.93391 0.841555,-2.06598 -0.04506,-0.13207 -0.290951,0.16789 -0.546505,0.66657 -0.725049,1.41486 -2.19278,2.71544 -4.145874,3.67371 -1.601009,0.78553 -3.815583,1.49382 -9.607093,3.07266 -1.136323,0.30977 -2.698336,0.86973 -3.471151,1.24435 l -1.405121,0.68113 0.139502,-0.96721 c 0.232994,-1.61549 1.130272,-4.20395 1.837728,-5.30148 0.707035,-1.09687 2.818184,-3.20655 3.208781,-3.20655 0.127132,0 0.182207,-0.0792 0.122385,-0.176 -0.05982,-0.0968 -0.832333,-0.13354 -1.716679,-0.0816 -1.904391,0.11177 -2.581847,0.47646 -3.760485,2.02439 -1.938297,2.54559 -2.479085,4.37585 -2.641435,8.93977 l -0.119972,3.37228 0.804167,-0.3401 c 0.44229,-0.18706 1.594418,-0.65738 2.560294,-1.04515 z m 56.323604,0.3401 c 0.9432,-0.42832 2.01059,-1.66558 1.90414,-2.20718 -0.0378,-0.1922 -0.30235,-0.52373 -0.58794,-0.73673 -0.51145,-0.38145 -0.53863,-0.37966 -1.81098,0.11896 -0.71044,0.27841 -1.82487,0.62065 -2.4765,0.76052 -1.73356,0.37212 -1.94299,0.51562 -1.86833,1.28004 0.055,0.56238 0.17766,0.68648 0.89014,0.90009 1.25618,0.37664 2.97622,0.32625 3.94947,-0.1157 z m 3.845104,-0.0467 c 0.49272,-0.25869 0.84211,-0.94119 0.56841,-1.11033 -0.54941,-0.33955 -2.681374,0.66028 -2.681374,1.25748 0,0.2746 0.14981,0.30627 0.87807,0.18564 0.48294,-0.08 1.03864,-0.22975 1.234894,-0.33279 z m 3.77526,-3.46073 c 1.33122,-0.61438 2.58255,-2.36028 2.58255,-3.60325 0,-1.29853 -1.27531,-2.41082 -2.76414,-2.41082 -0.94783,0 -1.3217,0.50116 -1.76645,2.36785 -0.28388,1.19152 -0.54065,1.75746 -1.02326,2.25537 -1.116474,1.15188 -0.72994,1.7674 1.11186,1.77051 0.57173,7.8e-4 1.40206,-0.16858 1.85944,-0.37966 z m -9.745724,-0.7418 c 1.86524,-0.49123 3.44685,-1.34919 4.61519,-2.50356 1.376034,-1.35957 1.757744,-2.50413 1.841514,-5.52182 0.0341,-1.23015 0.1603,-2.35494 0.28032,-2.49956 0.12002,-0.14462 0.84609,-0.5238 1.61346,-0.84262 3.66171,-1.52133 6.87708,-4.068276 7.96503,-6.309243 1.00592,-2.071976 1.24943,-3.513505 1.06298,-6.29263 -0.0915,-1.36355 -0.1704,-3.656137 -0.17539,-5.094641 l -0.009,-2.615458 -0.52377,0.270846 c -4.66662,2.413134 -9.52636,3.613611 -17.977864,4.440981 -9.451939,0.925309 -18.040244,4.068313 -23.157949,8.474958 -0.592669,0.510327 -1.158273,0.959476 -1.256889,0.99811 -0.363017,0.14221 -3.964908,4.297787 -4.769879,5.503107 -0.544959,0.81599 -0.84731,1.5132 -0.878248,2.0252 l -0.04716,0.7808 0.503307,-0.32977 c 0.365804,-0.23969 0.576232,-0.26927 0.770191,-0.1083 0.196169,0.1628 0.404739,0.11303 0.787277,-0.18786 0.838907,-0.65987 4.142758,-2.2347 5.873266,-2.79958 1.369775,-0.44712 5.135586,-1.14577 8.850141,-1.64191 1.394689,-0.18628 4.398562,-1.00953 6.353077,-1.741144 0.880636,-0.329642 1.601176,-0.505034 1.601176,-0.389759 0,0.433564 -1.922783,3.079153 -3.002018,4.130523 -2.476617,2.41267 -4.997814,3.37074 -8.826344,3.35404 -1.221704,-0.005 -2.151426,0.0471 -2.066046,0.11654 0.503409,0.40932 6.215988,2.93689 7.655303,3.38714 3.091424,0.96706 5.707825,0.61926 7.652815,-1.0173 1.02529,-0.8627 1.33142,-1.65391 1.59705,-4.12762 0.35714,-3.32597 0.65178,-3.86459 3.14824,-5.755125 2.90075,-2.19671 3.97555,-3.622632 3.00991,-3.993176 -0.18419,-0.07068 -1.78795,-0.02303 -3.56392,0.105892 -1.77597,0.128915 -4.62362,0.327621 -6.3281,0.441569 -6.466097,0.432264 -10.596018,1.885609 -18.387766,6.47077 -1.818113,1.06989 -3.352148,1.9036 -3.408963,1.85267 -0.170416,-0.15275 3.466684,-3.5278 5.116474,-4.747847 4.20089,-3.106625 11.940472,-6.259487 16.576955,-6.752933 5.27778,-0.561698 10.54099,-1.251136 12.07666,-1.581945 1.01738,-0.21916 2.061174,-0.398471 2.319544,-0.398471 1.16191,0 1.57274,2.175372 0.90055,4.768512 -0.87963,3.393375 -2.502954,5.587984 -5.406844,7.309614 -2.61928,1.55289 -2.65855,1.60853 -2.65992,3.76892 -0.002,2.26437 -0.2201,3.06798 -1.12128,4.12078 -1.40502,1.6414 -4.68609,2.53484 -7.761544,2.11347 -2.217315,-0.3038 -4.250658,-1.04698 -7.437746,-2.71845 -5.007068,-2.62598 -5.723606,-2.89336 -8.987277,-3.35383 -1.709432,-0.24119 -3.89659,-0.1281 -4.478546,0.23156 -0.499645,0.30879 0.04959,0.42109 2.050944,0.41939 3.42483,-0.003 5.239058,0.66633 10.588465,3.90601 5.039723,3.05213 7.212677,3.96624 10.842294,4.56106 1.9551,0.3204 4.88357,0.21897 6.58043,-0.22791 z m 16.136354,-7.40472 c 0.61496,-0.80623 1.93363,-3.59125 2.10419,-4.44403 0.26228,-1.31137 -1.75857,-1.92189 -3.47059,-1.04849 -1.6498,0.84163 -4.09451,3.48761 -4.09451,4.43159 0,0.55944 0.3474,0.71335 1.61808,0.71685 0.59055,0.002 1.36496,0.19555 1.99749,0.5002 0.56816,0.27366 1.09802,0.50488 1.17746,0.51384 0.0794,0.009 0.37999,-0.29252 0.66788,-0.66996 z m -50.707209,-2.28801 c 0,-0.48007 -1.453371,-1.60107 -3.005498,-2.31818 -2.559381,-1.18247 -4.186627,-1.52936 -8.151121,-1.73762 -4.587719,-0.24099 -7.187409,-0.55019 -8.540805,-1.01581 -3.714735,-1.278028 -6.541141,-3.835032 -7.020148,-6.351017 -0.188782,-0.991599 0.392932,-2.879892 1.310465,-4.253873 0.980213,-1.467838 0.967477,-1.587091 -0.44386,-4.156658 -0.555141,-1.010731 -1.148403,-2.305932 -1.318359,-2.878226 -0.640763,-2.157601 -0.255562,-5.826517 0.840797,-8.008483 0.453793,-0.90314 1.74604,-2.253985 2.156197,-2.253985 0.105917,0 0.869697,0.616737 1.697298,1.370528 0.827593,0.753791 3.831934,3.113732 6.676316,5.244314 5.62784,4.215542 7.346908,5.840381 10.013799,9.46492 3.271414,4.446131 4.838603,7.494202 5.990646,11.6514 0.219025,0.79033 0.458235,1.62605 0.53159,1.85716 0.302742,0.95385 -0.373785,0.0202 -1.794305,-2.47633 -5.053536,-8.881335 -7.902744,-12.070001 -14.639741,-16.383963 -0.963026,-0.616661 -2.450575,-1.606185 -3.305662,-2.198945 -2.453676,-1.700913 -3.293075,-2.17556 -3.623303,-2.048843 -0.543702,0.208632 -0.360401,1.743739 0.434996,3.643083 1.312745,3.1347 1.506415,3.898333 1.307334,5.154667 -0.09813,0.619299 -0.552978,1.906554 -1.010753,2.86057 -1.293777,2.696232 -1.061056,4.484831 0.85383,6.562182 1.091658,1.184272 2.365219,1.842285 4.565074,2.358632 1.696189,0.398127 8.16399,1.077517 8.48085,0.890847 0.09157,-0.054 -0.373285,-0.35573 -1.033023,-0.670624 -2.723675,-1.300024 -4.920173,-3.43012 -6.080477,-5.896658 -0.759259,-1.614001 -1.249525,-4.036744 -1.172212,-5.792659 l 0.06169,-1.400215 0.785847,1.013956 c 1.487877,1.919777 3.974177,4.281848 7.375012,7.006512 1.874929,1.502148 3.701545,3.046087 4.059143,3.430974 1.118364,1.203705 2.682047,3.392584 3.511475,4.915454 0.438269,0.80467 0.909795,1.46366 1.047836,1.46442 0.138042,8.6e-4 0.350499,0.18732 0.472127,0.41457 0.560435,1.04716 0.870931,0.15678 0.852339,-2.44419 -0.01687,-2.36151 -0.261786,-3.764018 -1.195365,-6.84587 -0.907024,-2.994188 -1.966128,-5.170083 -4.008802,-8.235967 -2.86755,-4.303946 -6.613699,-8.05723 -12.047025,-12.069966 -7.542859,-5.570721 -10.300174,-8.150999 -13.04159,-12.204264 -0.957404,-1.415551 -1.097187,-1.529058 -1.268837,-1.030363 -0.524687,1.524375 -1.388012,3.06548 -2.505111,4.471843 -1.665766,2.097098 -2.20333,3.023795 -2.840204,4.896236 -1.237719,3.638958 -0.299454,7.498314 2.885533,11.868975 0.743619,1.020445 1.35203,2.009271 1.35203,2.197391 0,0.18812 -0.360892,0.887204 -0.801988,1.553521 -2.603211,3.932395 -2.192265,7.042271 1.40363,10.621928 1.948642,1.939853 3.391237,2.807446 6.455432,3.882366 2.899558,1.01717 3.901674,1.12669 10.607578,1.15929 5.044892,0.0245 6.456971,0.0948 7.589359,0.37776 1.560685,0.38997 3.705255,1.37451 4.616306,2.11927 0.698571,0.57107 0.913691,0.62285 0.913691,0.21994 z m -29.715604,-3.1524 c 0.597019,-0.54027 0.463639,-0.86403 -0.913449,-2.21735 -0.710205,-0.697936 -1.626621,-1.662707 -2.036482,-2.143933 -1.275701,-1.497829 -2.414461,-1.025958 -2.19624,0.910065 0.06005,0.532896 0.326871,1.193938 0.656084,1.625548 0.519502,0.68108 2.038973,1.614 3.215082,1.97398 0.768723,0.2353 0.86327,0.2243 1.275005,-0.14831 z m 85.267433,-2.14314 c 1.12021,-0.811453 2.3268,-2.697797 2.4554,-3.838687 0.085,-0.754279 0.0214,-0.952082 -0.44559,-1.384842 -1.00485,-0.931238 -2.54719,-0.884766 -3.2816,0.09888 -0.2225,0.297998 -0.45898,1.073533 -0.54197,1.777372 -0.0984,0.834902 -0.33671,1.534994 -0.719,2.112664 -0.62512,0.944603 -0.59375,1.356793 0.12525,1.645563 0.84799,0.34057 1.53099,0.22398 2.40751,-0.41095 z M 23.755565,99.488538 c 0,-0.513069 -1.272826,-2.185345 -1.663345,-2.185345 -0.650235,0 -0.447093,0.933908 0.383897,1.764872 0.900533,0.900509 1.279448,1.025035 1.279448,0.420473 z m -0.316844,-4.070655 c 0.283174,-0.108663 0.316431,-0.346976 0.208991,-1.497838 -0.10177,-1.090194 -0.04076,-1.616863 0.299954,-2.588901 0.544068,-1.552259 0.536963,-1.831941 -0.06434,-2.530954 -0.435559,-0.506349 -0.636538,-0.572883 -1.750974,-0.579666 -1.093072,-0.0066 -1.331431,0.06476 -1.809173,0.542087 -0.962581,0.961737 -0.881449,3.793722 0.146124,5.100026 0.478124,0.607823 1.5705,1.384907 2.155158,1.533119 0.224382,0.05689 0.423604,0.114204 0.44272,0.127385 0.01913,0.01318 0.186299,-0.03419 0.371512,-0.105258 z m 95.756049,-4.812446 c 0.77436,-1.087465 1.08076,-4.18546 0.61464,-6.214647 -0.50624,-2.20385 -2.77784,-3.093579 -4.60326,-1.802987 -1.10098,0.778405 -1.55804,2.849241 -1.15227,5.220712 0.3777,2.207368 0.84986,2.865663 1.91906,2.675553 0.43314,-0.07701 0.89328,0.01642 1.37427,0.279028 1.02224,0.558125 1.35827,0.529449 1.84756,-0.157659 z M 84.332347,88.526734 c 1.583221,-0.488992 2.446469,-1.251334 2.011049,-1.775968 -0.626879,-0.755324 -3.462796,0.268107 -3.814638,1.376635 -0.114655,0.361236 0.11303,0.769855 0.448763,0.805392 0.01648,0.0016 0.626106,-0.180987 1.354826,-0.406059 z m 9.514039,-2.183205 c 1.00054,-0.345544 1.8074,-1.116972 1.8074,-1.728032 0,-0.186652 -0.15287,-0.557614 -0.33972,-0.824361 -0.30238,-0.431713 -0.45559,-0.472746 -1.39457,-0.37351 -1.17816,0.124515 -3.69875,1.180991 -4.41219,1.849314 -0.51993,0.487056 -0.59295,0.973587 -0.2066,1.376566 0.34102,0.355698 3.19188,0.167566 4.54568,-0.299977 z M 24.127453,85.382462 c 0.854009,-0.853985 -0.463499,-5.402944 -1.9824,-6.844646 -0.802675,-0.761875 -2.064991,-0.963621 -2.565948,-0.410091 -0.417404,0.461216 -0.844381,4.290392 -0.606225,5.43667 0.145608,0.700793 0.185651,0.72693 1.298423,0.847424 0.689856,0.07469 1.511358,0.341946 2.057972,0.669489 1.005248,0.602371 1.426415,0.672905 1.798178,0.301154 z M 104.16533,83.80074 c 1.17646,-0.507846 1.9648,-1.596921 2.15374,-2.975346 0.12606,-0.919717 0.10371,-0.980271 -0.43783,-1.186161 -0.66119,-0.251378 -2.36398,0.113648 -3.90157,0.836381 -1.06979,0.502848 -2.607014,2.062861 -2.607014,2.645672 0,1.221234 2.663024,1.598768 4.792674,0.679454 z m -51.356577,-3.4301 c 0.298205,-0.777084 -0.933962,-2.849315 -1.916291,-3.222787 -0.613308,-0.233171 -1.104785,-0.04701 -1.104785,0.418461 0,0.795089 1.958841,3.105704 2.632885,3.105704 0.149895,0 0.324582,-0.135621 0.388191,-0.301378 z M 111.8722,79.386145 c 0.11364,0.01066 0.87679,0.08509 1.6959,0.165379 l 1.4893,0.145991 0.70817,-0.70815 0.70817,-0.708147 0.15234,-2.844474 c 0.13101,-2.445915 0.24892,-3.125147 0.8415,-4.847605 0.58304,-1.694715 0.64565,-2.04679 0.40666,-2.286688 -0.23937,-0.24027 -0.51404,-0.196649 -1.79934,0.285761 -1.22737,0.460667 -1.7546,0.810485 -2.76269,1.833044 -1.12076,1.136837 -1.30485,1.450427 -1.83344,3.123115 -0.32319,1.022662 -0.91244,2.71047 -1.30945,3.750685 -0.39701,1.040215 -0.65613,1.997611 -0.57583,2.127547 0.0978,0.158178 0.46426,0.187984 1.10906,0.0902 0.52968,-0.08033 1.05602,-0.137321 1.16965,-0.126656 z M 21.315462,74.755796 c -0.04724,-0.781329 0.07535,-1.392596 0.464865,-2.318009 0.29095,-0.691265 0.529013,-1.408001 0.529013,-1.592745 0,-0.65112 -0.710807,-1.527482 -1.492649,-1.840303 -0.699312,-0.279802 -0.874819,-0.281362 -1.51598,-0.01347 -1.035155,0.432503 -1.419036,1.439235 -1.248737,3.274837 0.231073,2.490718 1.125055,3.735962 2.59352,3.612548 l 0.734123,-0.0617 z m 26.901582,0.284267 c 0.547348,-0.874232 -2.650961,-5.111166 -3.858226,-5.111166 -0.691231,0 -1.389075,0.659066 -1.389075,1.311892 0,0.618007 0.953508,1.939718 1.987928,2.755592 1.920149,1.514468 2.790198,1.793064 3.259373,1.043682 z m -7.63554,-7.645885 c 0.264691,-0.403958 0.269188,-0.631949 0.03256,-1.649732 -0.150996,-0.649548 -0.399788,-1.345068 -0.552869,-1.5456 -2.466068,-3.230458 -3.828405,-3.912556 -4.315048,-2.160458 -0.399242,1.437452 -0.270305,2.392396 0.467605,3.463146 0.796944,1.156418 1.409604,1.653101 2.53252,2.053109 1.141782,0.40673 1.483098,0.376887 1.83519,-0.160465 z M 25.12821,64.656933 c 1.317212,-1.392892 2.346229,-3.365829 2.346229,-4.498426 0,-0.991971 -0.641974,-2.106333 -1.455917,-2.527227 -0.324278,-0.167689 -1.075822,-0.304889 -1.6701,-0.304889 -1.015055,0 -1.133075,0.05647 -1.948853,0.932454 -1.261778,1.354901 -2.382102,3.599236 -2.512061,5.032376 -0.126602,1.39617 0.02772,1.579088 1.461757,1.732613 0.551463,0.05904 1.152457,0.257137 1.335546,0.440219 0.626832,0.626817 1.296589,0.405579 2.443399,-0.80712 z m 9.022248,-7.176138 c 0.0684,-0.709882 0.325168,-2.03445 0.570618,-2.943483 0.271843,-1.006809 0.456962,-2.33914 0.473642,-3.408875 0.02421,-1.552785 -0.041,-1.890945 -0.562903,-2.920971 -0.811929,-1.602297 -2.298291,-3.209934 -2.67712,-2.895545 -0.155408,0.128977 -0.451879,1.141822 -0.658817,2.250767 -0.305537,1.637306 -0.602937,2.450848 -1.582338,4.328514 -1.512069,2.898877 -1.604203,3.803246 -0.487385,4.783802 0.395282,0.347054 1.051998,0.693532 1.459368,0.769953 0.407362,0.07642 1.216666,0.496598 1.798451,0.933728 1.288709,0.968293 1.497544,0.855774 1.666484,-0.89789 z m 85.320962,84.086115 c 0.0563,-0.14203 0.47848,-1.18794 0.93818,-2.32423 3.63148,-8.97646 3.77587,-18.52155 0.40784,-26.9611 -0.79137,-1.98302 -2.3273,-4.40576 -3.59976,-5.67818 -0.28478,-0.28477 -0.18726,-0.45799 0.96241,-1.70957 0.70362,-0.76597 1.53288,-1.83489 1.84281,-2.37537 0.52823,-0.92119 0.58392,-0.95998 0.88983,-0.6198 1.62124,1.80293 3.76744,8.24825 4.58911,13.78174 0.32102,2.16195 0.44104,7.57467 0.20408,9.20369 -0.61683,4.24036 -1.00162,5.86684 -2.14883,9.08273 -0.88018,2.46736 -2.14524,5.09796 -3.25749,6.7737 -0.68005,1.02458 -1.05509,1.39881 -0.82818,0.82639 z m -4.46635,-9.96837 c 1.60289,-2.31192 2.35721,-4.99211 2.38396,-8.47054 0.0326,-4.24732 -1.11159,-7.27876 -3.87469,-10.26506 l -0.7649,-0.82669 0.47239,-1.00856 c 0.25982,-0.55472 0.69848,-1.22003 0.97479,-1.47848 l 0.50239,-0.46991 1.16915,1.24811 c 1.71789,1.8339 3.0164,4.62871 3.78759,8.15213 0.27978,1.27824 0.26392,5.046 -0.0265,6.30125 -0.53586,2.31596 -2.34902,5.25253 -4.1328,6.6935 -0.91713,0.74086 -0.91924,0.74139 -0.49136,0.12425 z m 10.63792,-26.09545 c -0.7303,-2.39278 -1.85071,-4.5173 -3.08584,-5.851352 l -1.1081,-1.196851 0.53163,-1.540243 c 0.2924,-0.847132 0.53164,-1.687324 0.53164,-1.867086 0,-1.563096 3.69888,2.722071 4.88558,5.659952 l 0.47363,1.17255 -0.4018,1.05741 c -0.22098,0.58157 -0.55637,1.69006 -0.74532,2.46333 -0.18894,0.77326 -0.40045,1.47008 -0.47002,1.54848 -0.0696,0.0784 -0.34471,-0.57237 -0.6114,-1.44619 z"
       id="path3564" />
  </g>
</svg>
